<svg width="3095" height="2005" viewBox="0 0 3095 2005" fill="none" xmlns="http://www.w3.org/2000/svg">
<g filter="url(#filter0_f_614_342)">
<ellipse cx="983.001" cy="923" rx="683" ry="623" transform="rotate(-180 983.001 923)" fill="#0025CE" fill-opacity="0.5"/>
</g>
<g filter="url(#filter1_f_614_342)">
<ellipse cx="2050.89" cy="1170.07" rx="651.829" ry="344.872" transform="rotate(-169.459 2050.89 1170.07)" fill="#0025CE"/>
</g>
<g filter="url(#filter2_f_614_342)">
<path d="M1666.83 1220.42C2246.83 1220.42 2163 1279.51 2455.5 1783.01C2550.4 1946.37 2552.13 1130.06 2399 964.508C2218.5 769.366 1374.58 1220.42 1666.83 1220.42Z" fill="#00EAFF" fill-opacity="0.75"/>
</g>
<g filter="url(#filter3_f_614_342)">
<path d="M2163 1141.5C2334.76 1141.5 2415.5 1050.17 2415.5 927C2415.5 670 899.335 578.622 669.737 792.945C501.002 950.454 522.639 1172.25 700.5 1251C901.5 1340 1024.52 1321.35 1222 1251C1386.77 1192.3 1440.44 1137 1621.5 1087.5C1790.98 1041.17 2010.43 1141.5 2163 1141.5Z" fill="#ACF5FA" fill-opacity="0.75"/>
</g>
<defs>
<filter id="filter0_f_614_342" x="0.000488281" y="0" width="1966" height="1846" filterUnits="userSpaceOnUse" color-interpolation-filters="sRGB">
<feFlood flood-opacity="0" result="BackgroundImageFix"/>
<feBlend mode="normal" in="SourceGraphic" in2="BackgroundImageFix" result="shape"/>
<feGaussianBlur stdDeviation="60" result="effect1_foregroundBlur_614_342"/>
</filter>
<filter id="filter1_f_614_342" x="1006.92" y="410.559" width="2087.95" height="1519.02" filterUnits="userSpaceOnUse" color-interpolation-filters="sRGB">
<feFlood flood-opacity="0" result="BackgroundImageFix"/>
<feBlend mode="normal" in="SourceGraphic" in2="BackgroundImageFix" result="shape"/>
<feGaussianBlur stdDeviation="60" result="effect1_foregroundBlur_614_342"/>
</filter>
<filter id="filter2_f_614_342" x="1405.88" y="715.535" width="1315.52" height="1288.96" filterUnits="userSpaceOnUse" color-interpolation-filters="sRGB">
<feFlood flood-opacity="0" result="BackgroundImageFix"/>
<feBlend mode="normal" in="SourceGraphic" in2="BackgroundImageFix" result="shape"/>
<feGaussianBlur stdDeviation="60" result="effect1_foregroundBlur_614_342"/>
</filter>
<filter id="filter3_f_614_342" x="354.404" y="473.344" width="2261.1" height="1037.62" filterUnits="userSpaceOnUse" color-interpolation-filters="sRGB">
<feFlood flood-opacity="0" result="BackgroundImageFix"/>
<feBlend mode="normal" in="SourceGraphic" in2="BackgroundImageFix" result="shape"/>
<feGaussianBlur stdDeviation="60" result="effect1_foregroundBlur_614_342"/>
</filter>
</defs>
</svg>
