<?xml version="1.0" encoding="UTF-8"?> <svg xmlns="http://www.w3.org/2000/svg" width="345" height="218" viewBox="0 0 345 218" fill="none"> <path d="M39.6789 136.387C38.196 136.387 37.0454 135.979 36.2273 135.162C35.4091 134.344 35 133.221 35 131.791V86.9025C35 85.4215 35.4347 84.247 36.304 83.3788C37.2244 82.4596 38.4261 82 39.909 82C41.4431 82 42.6448 82.4596 43.5141 83.3788C44.4345 84.247 44.8947 85.4215 44.8947 86.9025V128.267H66.4484C69.5165 128.267 71.0506 129.621 71.0506 132.327C71.0506 135.034 69.5165 136.387 66.4484 136.387H39.6789ZM93.5828 137C89.7476 137 86.3727 136.208 83.458 134.625C80.5944 133.042 78.37 130.77 76.7848 127.808C75.1996 124.846 74.407 121.399 74.407 117.467C74.407 113.534 75.1996 110.113 76.7848 107.202C78.37 104.24 80.5944 101.968 83.458 100.384C86.3727 98.8013 89.7476 98.0098 93.5828 98.0098C97.418 98.0098 100.767 98.8013 103.631 100.384C106.546 101.968 108.77 104.24 110.304 107.202C111.889 110.113 112.682 113.534 112.682 117.467C112.682 121.399 111.889 124.846 110.304 127.808C108.77 130.77 106.546 133.042 103.631 134.625C100.767 136.208 97.418 137 93.5828 137ZM93.5061 129.57C96.6254 129.57 99.0032 128.548 100.64 126.506C102.276 124.463 103.094 121.45 103.094 117.467C103.094 113.534 102.276 110.547 100.64 108.504C99.0032 106.41 96.6509 105.364 93.5828 105.364C90.5147 105.364 88.1369 106.41 86.4494 108.504C84.8131 110.547 83.9949 113.534 83.9949 117.467C83.9949 121.45 84.8131 124.463 86.4494 126.506C88.0857 128.548 90.438 129.57 93.5061 129.57ZM137.242 137C133.509 137 130.211 136.208 127.347 134.625C124.535 133.042 122.362 130.795 120.828 127.884C119.293 124.974 118.526 121.578 118.526 117.696C118.526 113.815 119.319 110.394 120.904 107.432C122.541 104.419 124.816 102.095 127.731 100.461C130.646 98.8269 133.995 98.0098 137.779 98.0098C139.773 98.0098 141.768 98.2906 143.762 98.8524C145.807 99.4141 147.597 100.18 149.131 101.15C150.767 102.223 151.586 103.576 151.586 105.21C151.586 106.334 151.304 107.253 150.742 107.968C150.23 108.632 149.54 108.964 148.671 108.964C148.108 108.964 147.52 108.836 146.907 108.581C146.293 108.325 145.679 108.019 145.066 107.662C143.941 106.998 142.867 106.487 141.844 106.13C140.822 105.721 139.645 105.517 138.316 105.517C135.145 105.517 132.691 106.564 130.952 108.657C129.265 110.7 128.421 113.662 128.421 117.543C128.421 121.373 129.265 124.335 130.952 126.429C132.691 128.472 135.145 129.493 138.316 129.493C139.594 129.493 140.719 129.314 141.691 128.957C142.714 128.548 143.839 128.012 145.066 127.348C145.833 126.889 146.498 126.557 147.06 126.352C147.623 126.097 148.185 125.969 148.748 125.969C149.566 125.969 150.256 126.327 150.819 127.042C151.381 127.757 151.662 128.65 151.662 129.723C151.662 130.591 151.458 131.357 151.049 132.021C150.691 132.634 150.077 133.195 149.208 133.706C147.623 134.727 145.782 135.545 143.685 136.157C141.589 136.719 139.441 137 137.242 137ZM178.99 98.163C180.32 98.0608 181.368 98.3417 182.135 99.0056C182.902 99.6695 183.286 100.665 183.286 101.993C183.286 103.372 182.953 104.393 182.288 105.057C181.624 105.721 180.422 106.155 178.683 106.359L176.382 106.589C173.365 106.896 171.141 107.917 169.709 109.653C168.328 111.39 167.638 113.56 167.638 116.164V132.251C167.638 133.732 167.178 134.881 166.257 135.698C165.337 136.464 164.186 136.847 162.806 136.847C161.425 136.847 160.275 136.464 159.354 135.698C158.485 134.881 158.05 133.732 158.05 132.251V102.606C158.05 101.176 158.485 100.078 159.354 99.312C160.275 98.546 161.4 98.163 162.729 98.163C164.059 98.163 165.132 98.546 165.951 99.312C166.769 100.027 167.178 101.074 167.178 102.453V105.517C168.149 103.27 169.581 101.533 171.473 100.308C173.416 99.0822 175.564 98.3928 177.916 98.2396L178.99 98.163ZM217.02 98.163C218.503 98.163 219.679 98.5715 220.548 99.3886C221.418 100.206 221.852 101.304 221.852 102.682V132.404C221.852 133.732 221.392 134.804 220.472 135.621C219.602 136.438 218.452 136.847 217.02 136.847C215.639 136.847 214.54 136.464 213.722 135.698C212.903 134.932 212.494 133.885 212.494 132.557V130.642C211.318 132.685 209.733 134.268 207.739 135.391C205.744 136.464 203.495 137 200.989 137C191.785 137 187.183 131.842 187.183 121.526V102.682C187.183 101.304 187.618 100.206 188.487 99.3886C189.356 98.5715 190.507 98.163 191.939 98.163C193.422 98.163 194.597 98.5715 195.466 99.3886C196.336 100.206 196.77 101.304 196.77 102.682V121.603C196.77 124.259 197.307 126.225 198.381 127.501C199.455 128.778 201.142 129.416 203.443 129.416C206.102 129.416 208.225 128.548 209.81 126.812C211.446 125.025 212.264 122.675 212.264 119.765V102.682C212.264 101.304 212.699 100.206 213.568 99.3886C214.438 98.5715 215.588 98.163 217.02 98.163ZM276.396 98.0098C280.487 98.0098 283.606 99.2354 285.754 101.687C287.953 104.087 289.052 107.994 289.052 113.407V132.251C289.052 133.732 288.592 134.881 287.672 135.698C286.802 136.464 285.652 136.847 284.22 136.847C282.839 136.847 281.689 136.464 280.768 135.698C279.899 134.881 279.464 133.732 279.464 132.251V113.407C279.464 110.598 278.953 108.606 277.93 107.432C276.959 106.206 275.45 105.593 273.405 105.593C270.899 105.593 268.905 106.461 267.422 108.198C265.939 109.883 265.198 112.207 265.198 115.169V132.251C265.198 133.732 264.737 134.881 263.817 135.698C262.948 136.464 261.823 136.847 260.442 136.847C259.061 136.847 257.911 136.464 256.99 135.698C256.07 134.881 255.61 133.732 255.61 132.251V113.407C255.61 110.598 255.098 108.606 254.076 107.432C253.104 106.206 251.596 105.593 249.55 105.593C247.044 105.593 245.05 106.461 243.567 108.198C242.135 109.883 241.42 112.207 241.42 115.169V132.251C241.42 133.732 240.959 134.881 240.039 135.698C239.118 136.464 237.968 136.847 236.587 136.847C235.207 136.847 234.056 136.464 233.136 135.698C232.266 134.881 231.832 133.732 231.832 132.251V102.606C231.832 101.176 232.292 100.078 233.212 99.312C234.133 98.546 235.283 98.163 236.664 98.163C237.993 98.163 239.067 98.546 239.885 99.312C240.755 100.027 241.189 101.074 241.189 102.453V104.291C242.366 102.248 243.925 100.691 245.868 99.6184C247.863 98.546 250.138 98.0098 252.695 98.0098C258.32 98.0098 262.078 100.359 263.97 105.057C265.095 102.912 266.757 101.202 268.956 99.9248C271.155 98.6481 273.635 98.0098 276.396 98.0098ZM303.324 136.847C301.688 136.847 300.333 136.311 299.259 135.238C298.185 134.115 297.648 132.736 297.648 131.102C297.648 129.468 298.185 128.114 299.259 127.042C300.333 125.918 301.688 125.357 303.324 125.357C304.96 125.357 306.315 125.918 307.389 127.042C308.463 128.114 309 129.468 309 131.102C309 132.736 308.463 134.115 307.389 135.238C306.315 136.311 304.96 136.847 303.324 136.847Z" fill="white"></path> </svg> 