<?xml version="1.0" encoding="UTF-8"?> <svg xmlns="http://www.w3.org/2000/svg" width="345" height="218" viewBox="0 0 345 218" fill="none"> <path d="M59 136.563V82.6749H67.6837L90.3053 118.212V82.6749H101.105V136.563H92.4215L69.8729 101.026V136.563H59ZM126.288 137C123.515 137 120.548 136.854 117.386 136.563C114.272 136.223 111.596 135.762 109.359 135.179V126.659C111.499 126.853 114.078 127.023 117.094 127.169C120.159 127.266 123.053 127.315 125.777 127.315C128.55 127.315 130.74 126.951 132.345 126.222C133.95 125.446 134.753 123.989 134.753 121.853V119.887C134.753 118.285 134.267 117.071 133.294 116.246C132.321 115.372 130.983 114.935 129.28 114.935H124.683C119.526 114.935 115.561 113.818 112.788 111.585C110.064 109.303 108.702 105.444 108.702 100.006V97.3849C108.702 92.1417 110.186 88.3065 113.153 85.8791C116.169 83.4517 120.499 82.238 126.142 82.238C129.11 82.238 132.053 82.4322 134.972 82.8205C137.94 83.2089 140.445 83.6216 142.488 84.0585V92.5787C140.25 92.433 137.745 92.2874 134.972 92.1417C132.248 91.9961 129.718 91.9233 127.383 91.9233C124.853 91.9233 122.81 92.3117 121.253 93.0884C119.745 93.8652 118.991 95.4673 118.991 97.8947V99.3511C118.991 101.244 119.526 102.604 120.596 103.429C121.667 104.254 123.248 104.667 125.34 104.667H130.667C135.483 104.667 139.083 105.978 141.467 108.599C143.85 111.221 145.042 114.522 145.042 118.503V121.562C145.042 125.785 144.24 129.014 142.634 131.247C141.077 133.48 138.888 135.01 136.067 135.835C133.294 136.612 130.034 137 126.288 137ZM184.57 136.563C180.338 136.563 177.151 135.592 175.011 133.65C172.87 131.708 171.8 128.431 171.8 123.819V82.6749H182.6V122.072C182.6 123.868 183.038 125.106 183.913 125.785C184.838 126.465 186.005 126.805 187.416 126.805H204.492V136.563H184.57ZM218.66 137C215.692 137 213.284 136.126 211.436 134.378C209.587 132.631 208.662 130.203 208.662 127.096V123.601C208.662 120.639 209.708 118.212 211.8 116.319C213.892 114.377 217.152 113.406 221.579 113.406H231.576V110.711C231.576 109.498 231.357 108.502 230.919 107.726C230.53 106.9 229.727 106.318 228.511 105.978C227.295 105.589 225.471 105.395 223.038 105.395H211.29V99.1326C213.236 98.5501 215.449 98.0403 217.93 97.6034C220.411 97.1664 223.427 96.948 226.979 96.948C230.238 96.948 233.011 97.3364 235.298 98.1131C237.584 98.8899 239.335 100.225 240.552 102.118C241.768 104.012 242.376 106.633 242.376 109.983V136.563H233.838L232.087 132.412C231.649 132.898 230.773 133.505 229.46 134.233C228.146 134.912 226.541 135.544 224.644 136.126C222.795 136.709 220.8 137 218.66 137ZM224.133 129.499C224.96 129.499 225.908 129.378 226.979 129.135C228.098 128.844 229.095 128.553 229.971 128.261C230.895 127.922 231.43 127.703 231.576 127.606V118.503L225.008 118.94C221.311 119.231 219.463 120.834 219.463 123.746V125.349C219.463 126.902 219.9 127.994 220.776 128.625C221.7 129.208 222.819 129.499 224.133 129.499ZM272.646 137C270.068 137 267.878 136.587 266.078 135.762C264.327 134.937 262.722 133.966 261.262 132.849L259.511 136.563H250.462V81H261.262V100.152C262.819 99.3268 264.57 98.5743 266.516 97.8947C268.511 97.215 270.384 96.8751 272.135 96.8751C277.146 96.8751 280.697 98.4772 282.789 101.681C284.93 104.837 286 110.08 286 117.411C286 124.013 284.905 128.941 282.716 132.194C280.576 135.398 277.219 137 272.646 137ZM268.632 128.189C269.897 128.189 271.016 127.873 271.989 127.242C273.011 126.562 273.789 125.397 274.324 123.746C274.908 122.096 275.2 119.814 275.2 116.901C275.2 113.551 274.884 111.075 274.251 109.473C273.668 107.871 272.865 106.827 271.843 106.342C270.822 105.808 269.751 105.541 268.632 105.541C267.173 105.541 265.811 105.784 264.546 106.269C263.281 106.706 262.187 107.192 261.262 107.726V126.295C262.138 126.781 263.184 127.218 264.4 127.606C265.616 127.994 267.027 128.189 268.632 128.189Z" fill="white"></path> </svg> 