<?xml version="1.0" encoding="UTF-8"?> <svg xmlns="http://www.w3.org/2000/svg" width="80" height="30" viewBox="0 0 80 30" fill="none"> <path fill-rule="evenodd" clip-rule="evenodd" d="M11.2534 20.7891C16.8315 20.7891 21.0991 16.8359 21.6235 11.1641L21.6655 10.7891H7.9292V13.2812H18.4673C17.5024 16.2578 14.6191 18.3047 11.3267 18.3516C6.3252 18.3516 3.22119 14.1953 3.22119 10.3516C3.22119 7.17969 5.36035 2.46094 11.2427 2.46094H11.4419C12.7222 2.46094 13.9497 2.80469 15.0029 3.41406C15.5742 3.74219 16.0942 4.15625 16.5435 4.63281C16.9204 5.03125 17.2476 5.48438 17.5132 5.97656L17.6182 6.16406H20.6694L20.4492 5.67969C18.9917 2.24219 15.4893 0 11.5889 0L11.2324 0.0078125C5.16113 0 0.568359 4.41406 0.568359 10.2969C0.568359 15.3906 4.32227 20.7891 11.2534 20.7891ZM78.2983 27.2734H1.38623V30H78.2983V27.2734ZM30.3052 2.78125H26.52V10.1953H30.3052C34.269 10.1953 34.5728 7.375 34.5728 6.50781C34.5728 5.38281 34.1641 2.78125 30.3052 2.78125ZM30.2739 12.6562H26.52L26.4888 20.4531H23.8672V0.28125H30.2739C36.5757 0.28125 37.2261 4.63281 37.2261 6.5C37.2261 9.47656 35.3911 12.6562 30.2739 12.6562ZM41.7139 4.71094L48.0996 20.4453H50.1338L56.5195 4.71094V20.4453H59.0889V0.320312H55.6387L49.1167 16.2578L42.5947 0.320312H39.145V20.4453H41.7139V4.71094ZM67.7812 2.77344H64.835L64.814 18.0156H67.8965C74.2192 18.0156 76.4634 13.875 76.4634 10.3516C76.4634 6.6875 74.1772 2.77344 67.7812 2.77344ZM67.7812 0.304688C78.2876 0.304688 79.1055 7.99219 79.1055 10.3516C79.1055 15.0078 76.1802 20.4453 67.8862 20.4453H62.1714V0.304688H67.7812Z" fill="url(#paint0_linear_2007_423)"></path> <defs> <linearGradient id="paint0_linear_2007_423" x1="1" y1="10" x2="80.0532" y2="10.7111" gradientUnits="userSpaceOnUse"> <stop stop-color="#449ABB"></stop> <stop offset="1" stop-color="#75CABC"></stop> </linearGradient> </defs> </svg> 