<?xml version="1.0" encoding="UTF-8"?> <svg xmlns="http://www.w3.org/2000/svg" width="149" height="40" viewBox="0 0 149 40" fill="none"> <path fill-rule="evenodd" clip-rule="evenodd" d="M48.5825 24.8681V16.9373L51.2718 16.2134V17.1303C51.9541 16.3742 52.9174 15.9399 53.9289 15.9319C54.9323 15.8675 55.8956 16.3179 56.4897 17.1303C57.2282 16.3984 58.2076 15.9721 59.2431 15.9319C61.836 15.9319 62.4381 18.0151 62.4381 19.294V24.844H59.4278V19.5836C59.484 19.0849 59.1307 18.6344 58.633 18.5701H58.4645C57.9828 18.5862 57.5333 18.7873 57.2041 19.1412V24.8842H54.1135V19.5916C54.1697 19.0929 53.8165 18.6425 53.3188 18.5781H53.1342C52.5642 18.6023 52.0263 18.8838 51.6812 19.3342V24.8842H48.5825V24.8681Z" fill="#3361B4"></path> <path fill-rule="evenodd" clip-rule="evenodd" d="M68.3299 15.9258C72.0306 15.9258 73.1786 18.8053 72.5444 21.4355H66.8769C67.2301 22.3847 68.3942 22.7707 69.6304 22.7707C70.4813 22.7949 71.3242 22.6662 72.127 22.3927V24.6851C71.0994 25.0229 70.0157 25.1838 68.932 25.1596C66.0822 25.1596 63.8024 23.559 63.8024 20.5588C63.682 18.1216 65.5524 16.0545 67.9847 15.9258H68.3299V15.9258ZM68.4263 18.1779C67.6235 18.1216 66.9331 18.7329 66.8769 19.5292V19.5373V19.6338H69.7909C69.8793 18.926 69.3815 18.2745 68.6671 18.186C68.5868 18.1699 68.5065 18.1699 68.4263 18.1779Z" fill="#3361B4"></path> <path fill-rule="evenodd" clip-rule="evenodd" d="M83.4943 12.2539V24.9062H80.805V23.7319C80.1468 24.7051 79.0309 25.2601 77.8589 25.1878C74.9449 25.1878 73.6846 22.7908 73.6846 20.5869C73.6846 18.383 74.9288 16.0021 77.8589 16.0021C78.8142 15.9539 79.7374 16.3078 80.4197 16.9754V12.9778L83.4943 12.2539ZM78.7098 18.4634C77.6662 18.4715 76.8233 19.3321 76.8314 20.3778C76.8233 20.426 76.8233 20.4823 76.8314 20.5306C76.727 21.5602 77.4816 22.4771 78.5091 22.5817H78.7018C79.4403 22.5817 80.1146 22.1634 80.4438 21.5039V19.5171C80.0986 18.8656 79.4163 18.4554 78.6777 18.4715H78.7098V18.4634Z" fill="#3361B4"></path> <path fill-rule="evenodd" clip-rule="evenodd" d="M86.9057 15.3806C86.0307 15.461 85.252 14.8175 85.1637 13.9408C85.1637 13.9408 85.1637 13.9408 85.1637 13.9327C85.1557 13.8443 85.1557 13.7558 85.1637 13.6673C85.1637 12.7021 85.9424 11.9219 86.9057 11.9219C87.869 11.9219 88.6477 12.7021 88.6477 13.6673C88.7119 14.5521 88.0537 15.3162 87.1706 15.3806H86.9057ZM85.3885 24.8718V16.941L88.455 16.2171V24.8798H85.3885V24.8718Z" fill="#3361B4"></path> <path fill-rule="evenodd" clip-rule="evenodd" d="M99.0753 22.9305C99.1957 22.9224 99.3081 22.8983 99.4205 22.8661V24.7965C98.9228 24.9815 98.401 25.0781 97.8711 25.0861C97.0684 25.1344 96.2977 24.7804 95.8081 24.137C94.9491 24.8207 93.8895 25.1826 92.7977 25.1746C91.1521 25.1746 89.7954 24.2013 89.7954 22.5122C89.7954 20.3324 91.8505 19.6648 93.5282 19.6648C94.1544 19.6568 94.7805 19.7211 95.3987 19.8498V19.5361C95.3987 18.9248 94.8207 18.4583 93.5925 18.4583C92.5489 18.4824 91.5133 18.7077 90.55 19.1259V16.5359C91.6337 16.1901 92.7656 15.997 93.9055 15.9648C96.659 15.9648 98.4331 16.914 98.4331 20.0187V22.4157C98.4652 22.8018 98.7542 22.9305 99.0753 22.9305ZM93.9697 23.0592C94.4835 23.0833 94.9893 22.9224 95.3987 22.6087V21.4424C95.0374 21.3298 94.6681 21.2816 94.2908 21.2816C93.5603 21.2816 92.9262 21.5309 92.9262 22.2307C92.9262 22.6731 93.3436 23.0592 93.9697 23.0592Z" fill="#3361B4"></path> <path fill-rule="evenodd" clip-rule="evenodd" d="M103.539 13.0352V16.2364H105.875V18.7782H103.539V21.5934C103.539 22.3012 103.884 22.6712 104.671 22.6712C105.153 22.6631 105.626 22.5666 106.068 22.3897V24.7866C105.305 25.0279 104.519 25.1405 103.724 25.1325C102.046 25.1325 100.529 24.4327 100.529 22.1564V13.7671L103.539 13.0352Z" fill="#3361B4"></path> <path fill-rule="evenodd" clip-rule="evenodd" d="M111.823 15.9258C114.424 15.9258 116.704 17.446 116.704 20.5186C116.704 23.5912 114.432 25.1194 111.823 25.1194C109.222 25.1194 106.951 23.5992 106.951 20.5186C106.951 17.4379 109.263 15.9258 111.823 15.9258ZM111.823 18.6525C110.908 18.6203 110.138 19.3362 110.097 20.2531C110.089 20.3497 110.089 20.4542 110.097 20.5508C110.097 21.5321 110.547 22.4571 111.807 22.4571C112.731 22.4892 113.501 21.7734 113.541 20.8484C113.549 20.7518 113.541 20.6473 113.525 20.5508C113.646 19.6338 112.995 18.7892 112.08 18.6686C111.992 18.6605 111.904 18.6525 111.823 18.6525Z" fill="#3361B4"></path> <path fill-rule="evenodd" clip-rule="evenodd" d="M127.461 12.2539V24.9062H124.772V23.7319C124.122 24.7051 122.998 25.2601 121.826 25.1878C118.92 25.1878 117.651 22.7908 117.651 20.5869C117.651 18.383 118.92 16.0021 121.826 16.0021C122.789 15.9458 123.736 16.2998 124.427 16.9674V12.9698L127.461 12.2539ZM122.669 18.4634C121.625 18.4715 120.782 19.3321 120.79 20.3778C120.782 20.426 120.782 20.4823 120.79 20.5306C120.694 21.5682 121.448 22.4852 122.484 22.5817H122.661C123.407 22.5897 124.089 22.1715 124.419 21.5039V19.5171C124.065 18.8576 123.383 18.4554 122.636 18.4715H122.669V18.4634Z" fill="#3361B4"></path> <path fill-rule="evenodd" clip-rule="evenodd" d="M138.105 22.9305C138.225 22.9224 138.338 22.8983 138.45 22.8661V24.7965C137.952 24.9815 137.431 25.0781 136.901 25.0861C136.082 25.1424 135.295 24.7724 134.806 24.1128C133.947 24.7965 132.887 25.1585 131.795 25.1504C130.15 25.1504 128.793 24.1772 128.793 22.4881C128.793 20.3083 130.856 19.6407 132.526 19.6407C133.152 19.6326 133.778 19.697 134.396 19.8257V19.512C134.396 18.9007 133.818 18.4342 132.59 18.4342C131.546 18.4583 130.511 18.6835 129.548 19.1018V16.5359C130.631 16.1901 131.763 15.997 132.903 15.9648C135.657 15.9648 137.431 16.914 137.431 20.0187V22.4157C137.471 22.7455 137.776 22.9787 138.105 22.9305ZM132.999 23.0592C133.513 23.0833 134.019 22.9224 134.428 22.6087V21.4424C134.067 21.3298 133.698 21.2816 133.321 21.2816C132.598 21.2816 131.956 21.5309 131.956 22.2307C132.028 22.7455 132.486 23.1155 132.999 23.0592Z" fill="#3361B4"></path> <path fill-rule="evenodd" clip-rule="evenodd" d="M145.066 16.207H148.261L144.616 25.8028C143.637 28.4009 142.12 29.1007 140.667 29.1007C140.129 29.0926 139.591 29.0202 139.069 28.8754V26.3257C139.446 26.4302 139.84 26.4865 140.233 26.4865C141.044 26.4383 141.742 25.8913 141.991 25.1192L137.913 16.2392H141.108L143.235 21.4111L145.066 16.207Z" fill="#3361B4"></path> <path fill-rule="evenodd" clip-rule="evenodd" d="M0.681641 40H40.667V0H0.681641V40ZM15.4684 15.9501C16.4719 15.8938 17.4352 16.3523 18.0292 17.1566C18.7597 16.4247 19.7471 15.9903 20.7827 15.9501C23.3756 15.9501 23.9776 18.0495 23.9776 19.3203V24.9186H20.9432V19.6018C20.9914 19.1032 20.6382 18.6527 20.1405 18.5964H19.9799C19.4983 18.6125 19.0407 18.8136 18.7116 19.1675V24.9105H15.6209V19.6018C15.6691 19.1032 15.3159 18.6527 14.8182 18.5964H14.6576C14.0716 18.6286 13.5418 18.9262 13.1966 19.4008V24.9507H10.106V16.9556L12.7952 16.2236V17.1325C13.4856 16.3845 14.457 15.9501 15.4684 15.9501ZM31.2587 24.7979C30.5041 25.0312 29.7093 25.1518 28.9226 25.1438C27.2449 25.1438 25.7277 24.444 25.7277 22.1677V13.7704L28.8022 13.0465V16.2477H31.0981V18.7814H28.7059V21.6047C28.7059 22.3044 29.0591 22.6825 29.8458 22.6825C30.3275 22.6744 30.8091 22.5779 31.2587 22.401V24.7979Z" fill="#3361B4"></path> </svg> 