<?xml version="1.0" encoding="UTF-8"?> <svg xmlns="http://www.w3.org/2000/svg" width="148" height="41" viewBox="0 0 148 41" fill="none"> <path fill-rule="evenodd" clip-rule="evenodd" d="M47.9009 25.3485V17.2653L50.5901 16.5275V17.4621C51.2725 16.6915 52.2358 16.2488 53.2472 16.2406C54.2507 16.175 55.214 16.6341 55.808 17.4621C56.5466 16.716 57.5259 16.2816 58.5615 16.2406C61.1544 16.2406 61.7565 18.3638 61.7565 19.6673V25.3239H58.7461V19.9624C58.8023 19.4542 58.4491 18.9951 57.9514 18.9295H57.7828C57.3012 18.9459 56.8516 19.1508 56.5225 19.5116V25.3649H53.4319V19.9706C53.4881 19.4624 53.1349 19.0033 52.6371 18.9377H52.4525C51.8826 18.9623 51.3447 19.2492 50.9995 19.7083V25.3649H47.9009V25.3485Z" fill="#BE96FF"></path> <path fill-rule="evenodd" clip-rule="evenodd" d="M67.648 16.2344C71.3488 16.2344 72.4967 19.1693 71.8625 21.85H66.1951C66.5483 22.8174 67.7123 23.2109 68.9485 23.2109C69.7994 23.2355 70.6423 23.1043 71.4451 22.8256V25.162C70.4176 25.5063 69.3338 25.6702 68.2501 25.6457C65.4003 25.6457 63.1205 24.0143 63.1205 20.9564C63.0001 18.4724 64.8705 16.3655 67.3029 16.2344H67.648V16.2344ZM67.7444 18.5298C66.9416 18.4724 66.2512 19.0955 66.1951 19.9071V19.9153V20.0136H69.1091C69.1974 19.2922 68.6997 18.6282 67.9852 18.538C67.9049 18.5216 67.8247 18.5216 67.7444 18.5298Z" fill="#BE96FF"></path> <path fill-rule="evenodd" clip-rule="evenodd" d="M82.8124 12.4922V25.3876H80.1231V24.1907C79.4649 25.1827 78.349 25.7483 77.177 25.6745C74.263 25.6745 73.0027 23.2315 73.0027 20.9853C73.0027 18.739 74.247 16.3124 77.177 16.3124C78.1323 16.2633 79.0555 16.624 79.7378 17.3044V13.23L82.8124 12.4922ZM78.0279 18.821C76.9844 18.8292 76.1415 19.7064 76.1495 20.7721C76.1415 20.8213 76.1415 20.8787 76.1495 20.9279C76.0451 21.9773 76.7997 22.9118 77.8273 23.0184H78.0199C78.7585 23.0184 79.4328 22.5921 79.7619 21.9199V19.895C79.4167 19.2309 78.7344 18.8128 77.9958 18.8292H78.0279V18.821Z" fill="#BE96FF"></path> <path fill-rule="evenodd" clip-rule="evenodd" d="M86.2241 15.6736C85.3491 15.7555 84.5704 15.0997 84.4821 14.2061C84.4821 14.2061 84.4821 14.2061 84.4821 14.1979C84.4741 14.1078 84.4741 14.0176 84.4821 13.9274C84.4821 12.9436 85.2608 12.1484 86.2241 12.1484C87.1874 12.1484 87.9661 12.9436 87.9661 13.9274C88.0303 14.8292 87.372 15.608 86.489 15.6736H86.2241ZM84.7069 25.3472V17.264L87.7734 16.5262V25.3554H84.7069V25.3472Z" fill="#BE96FF"></path> <path fill-rule="evenodd" clip-rule="evenodd" d="M98.3939 23.3729C98.5143 23.3647 98.6267 23.3401 98.7391 23.3073V25.2748C98.2414 25.4634 97.7196 25.5618 97.1897 25.5699C96.387 25.6191 95.6163 25.2584 95.1267 24.6026C94.2677 25.2994 93.2081 25.6683 92.1163 25.6601C90.4707 25.6601 89.114 24.6682 89.114 22.9466C89.114 20.7249 91.1691 20.0445 92.8468 20.0445C93.473 20.0363 94.0991 20.1019 94.7173 20.2331V19.9133C94.7173 19.2903 94.1393 18.8148 92.9111 18.8148C91.8675 18.8394 90.8319 19.0689 89.8686 19.4952V16.8555C90.9523 16.503 92.0842 16.3062 93.2241 16.2734C95.9776 16.2734 97.7517 17.2408 97.7517 20.4052V22.8482C97.7838 23.2417 98.0728 23.3729 98.3939 23.3729ZM93.2884 23.5041C93.8021 23.5287 94.3079 23.3647 94.7173 23.045V21.8563C94.356 21.7415 93.9867 21.6923 93.6095 21.6923C92.8789 21.6923 92.2448 21.9464 92.2448 22.6597C92.2448 23.1106 92.6622 23.5041 93.2884 23.5041Z" fill="#BE96FF"></path> <path fill-rule="evenodd" clip-rule="evenodd" d="M102.858 13.2891V16.5519H105.194V19.1424H102.858V22.0117C102.858 22.7331 103.203 23.1102 103.989 23.1102C104.471 23.102 104.945 23.0037 105.386 22.8233V25.2663C104.624 25.5123 103.837 25.627 103.042 25.6188C101.364 25.6188 99.8472 24.9056 99.8472 22.5856V14.0351L102.858 13.2891Z" fill="#BE96FF"></path> <path fill-rule="evenodd" clip-rule="evenodd" d="M111.142 16.2344C113.743 16.2344 116.023 17.7838 116.023 20.9154C116.023 24.0471 113.751 25.6047 111.142 25.6047C108.541 25.6047 106.269 24.0552 106.269 20.9154C106.269 17.7756 108.581 16.2344 111.142 16.2344ZM111.142 19.0135C110.227 18.9807 109.456 19.7103 109.416 20.6449C109.408 20.7433 109.408 20.8498 109.416 20.9482C109.416 21.9484 109.865 22.8911 111.126 22.8911C112.049 22.9239 112.82 22.1943 112.86 21.2515C112.868 21.1532 112.86 21.0466 112.844 20.9482C112.964 20.0136 112.314 19.1529 111.399 19.0299C111.31 19.0217 111.222 19.0135 111.142 19.0135Z" fill="#BE96FF"></path> <path fill-rule="evenodd" clip-rule="evenodd" d="M126.779 12.4922V25.3876H124.09V24.1907C123.44 25.1827 122.316 25.7483 121.144 25.6745C118.238 25.6745 116.969 23.2315 116.969 20.9853C116.969 18.739 118.238 16.3124 121.144 16.3124C122.107 16.2551 123.054 16.6158 123.745 17.2962V13.2218L126.779 12.4922ZM121.987 18.821C120.943 18.8292 120.1 19.7064 120.108 20.7721C120.1 20.8213 120.1 20.8787 120.108 20.9279C120.012 21.9854 120.767 22.92 121.802 23.0184H121.979C122.725 23.0266 123.408 22.6003 123.737 21.9199V19.895C123.384 19.2227 122.701 18.8128 121.955 18.8292H121.987V18.821Z" fill="#BE96FF"></path> <path fill-rule="evenodd" clip-rule="evenodd" d="M137.424 23.3729C137.544 23.3647 137.656 23.3401 137.769 23.3073V25.2748C137.271 25.4634 136.749 25.5617 136.219 25.5699C135.401 25.6273 134.614 25.2502 134.124 24.578C133.265 25.2748 132.206 25.6437 131.114 25.6355C129.468 25.6355 128.112 24.6436 128.112 22.922C128.112 20.7003 130.175 20.0199 131.844 20.0199C132.471 20.0117 133.097 20.0773 133.715 20.2085V19.8887C133.715 19.2657 133.137 18.7902 131.909 18.7902C130.865 18.8148 129.829 19.0444 128.866 19.4707V16.8555C129.95 16.503 131.082 16.3062 132.222 16.2734C134.975 16.2734 136.749 17.2408 136.749 20.4052V22.8482C136.789 23.1843 137.094 23.4221 137.424 23.3729ZM132.318 23.5041C132.832 23.5287 133.338 23.3647 133.747 23.045V21.8563C133.386 21.7415 133.016 21.6923 132.639 21.6923C131.917 21.6923 131.274 21.9464 131.274 22.6597C131.347 23.1843 131.804 23.5614 132.318 23.5041Z" fill="#BE96FF"></path> <path fill-rule="evenodd" clip-rule="evenodd" d="M144.384 16.5156H147.579L143.934 26.2958C142.955 28.9438 141.438 29.657 139.985 29.657C139.447 29.6488 138.909 29.575 138.387 29.4274V26.8287C138.764 26.9353 139.158 26.9926 139.551 26.9926C140.362 26.9435 141.06 26.386 141.309 25.599L137.231 16.5484H140.426L142.553 21.8197L144.384 16.5156Z" fill="#BE96FF"></path> <path fill-rule="evenodd" clip-rule="evenodd" d="M0 40.7686H39.9853V0H0V40.7686ZM14.7868 16.2566C15.7902 16.1992 16.7535 16.6665 17.3476 17.4863C18.0781 16.7403 19.0655 16.2976 20.101 16.2566C22.6939 16.2566 23.296 18.3963 23.296 19.6916V25.3973H20.2616V19.9785C20.3098 19.4702 19.9565 19.0111 19.4588 18.9537H19.2983C18.8166 18.9701 18.3591 19.1751 18.0299 19.5358V25.3891H14.9393V19.9785C14.9875 19.4702 14.6343 19.0111 14.1366 18.9537H13.976C13.39 18.9865 12.8602 19.2898 12.515 19.7735V25.4301H9.42437V17.2813L12.1136 16.5353V17.4617C12.804 16.6993 13.7753 16.2566 14.7868 16.2566ZM30.577 25.2744C29.8224 25.5121 29.0277 25.6351 28.241 25.6269C26.5632 25.6269 25.046 24.9137 25.046 22.5936V14.0349L28.1206 13.2971V16.5599H30.4165V19.1423H28.0242V22.0198C28.0242 22.733 28.3775 23.1183 29.1642 23.1183C29.6458 23.1101 30.1275 23.0117 30.577 22.8314V25.2744Z" fill="#BE96FF"></path> </svg> 