<svg width="35" height="564" viewBox="0 0 35 564" fill="none" xmlns="http://www.w3.org/2000/svg">
<path d="M33.3844 561.744H16.3924L16.3924 549.024H33.3844V550.752H17.9284L17.9284 560.016H33.3844V561.744ZM33.5524 546.437C33.5524 547.013 33.4804 547.557 33.3364 548.069L31.7764 547.757C31.9044 547.341 31.9684 546.997 31.9684 546.725C31.9684 545.749 31.5844 544.981 30.8164 544.421C30.0484 543.845 28.8084 543.429 27.0964 543.173C25.3684 542.901 23.0244 542.765 20.0644 542.765H16.3924L16.3924 532.589H33.3844L33.3844 534.317H17.9044L17.9044 541.085H20.9284C25.2644 541.085 28.4564 541.485 30.5044 542.285C32.5364 543.085 33.5524 544.469 33.5524 546.437ZM33.8164 515.76C33.8164 518.112 33.0084 520.048 31.3924 521.568C29.7764 523.072 27.7444 523.872 25.2964 523.968V527.664H33.3844V529.392H16.3924V527.664H23.7844V523.92C21.5124 523.68 19.6404 522.816 18.1684 521.328C16.6964 519.84 15.9604 517.984 15.9604 515.76C15.9604 513.344 16.8164 511.376 18.5284 509.856C20.2244 508.32 22.3444 507.552 24.8884 507.552C27.4324 507.552 29.5604 508.32 31.2724 509.856C32.9684 511.376 33.8164 513.344 33.8164 515.76ZM32.2804 515.76C32.2804 513.808 31.5604 512.256 30.1204 511.104C28.6644 509.952 26.9204 509.376 24.8884 509.376C22.8564 509.376 21.1124 509.952 19.6564 511.104C18.2004 512.256 17.4724 513.808 17.4724 515.76C17.4724 517.728 18.2004 519.288 19.6564 520.44C21.1124 521.576 22.8564 522.144 24.8884 522.144C26.9204 522.144 28.6644 521.576 30.1204 520.44C31.5604 519.288 32.2804 517.728 32.2804 515.76ZM33.3844 505.282H16.3924V503.554H31.8484V495.802H16.3924V494.074H31.8484L31.8484 486.322H16.3924V484.594H33.3844V505.282ZM33.3844 481.407H16.3924V479.679H24.0244V479.655L16.3924 471.567L16.3924 469.095L24.0964 477.663L33.3844 468.615V471.159L24.3364 479.655V479.679H33.3844V481.407ZM33.3844 467.656H16.3924V465.928H30.6964V465.88L16.3924 456.52L16.3924 454.576H33.3844V456.304H18.9364V456.352L33.3844 465.712V467.656Z" fill="black"/>
<path d="M0.703735 0L0.703735 561.475" stroke="black"/>
</svg>
