<svg fill="#fe0002" xmlns:rdf="http://www.w3.org/1999/02/22-rdf-syntax-ns#" xmlns:svg="http://www.w3.org/2000/svg" xmlns="http://www.w3.org/2000/svg" viewBox="0 0 2685.8474 704.36865">
  <path d="m 246,120 q -109,0 -109,72 0,32 27,49 27,17 126.5,49 99.5,32 139.5,72.5 40,40.5 40,124.5 0,107 -65,162 -65,55 -170,55 -78,0 -191,-24 L 8,673 22,566 q 134,18 205,18 106,0 106,-88 0,-32 -24.5,-50 Q 284,428 211,407 95,374 47.5,328.5 0,283 0,202 0,100 62,50 124,0 232,0 306,0 420,20 l 36,7 -11,109 Q 304,120 246,120 Z"></path>
  <path d="m 733.1271,703.66949 q 124,0 177,-68.5 53.00002,-68.5 53.00002,-192.5 0,-263 -230.00002,-263 -229.99999,0 -229.99999,263 0,124 53,192.5 52.99999,68.5 176.99999,68.5 z m 0,-410 q 53,0 73.5,36 20.5,36 20.5,113 0,77 -20.5,112 -20.5,35 -73.5,35 -53,0 -73.5,-35 -20.5,-35 -20.5,-112 0,-77 20.5,-113 20.5,-36 73.5,-36 z"></path>
  <path d="m 1015.2585,567.22034 q 124,16 173.5,16 49.5,0 64,-9 14.5,-9 14.5,-28.5 0,-19.5 -19.5,-27 -19.5,-7.5 -100,-22 -80.5,-14.5 -114.5,-47.5 -33.99998,-33 -33.99998,-107 0,-162 200.99998,-162 66,0 160,18 l 32,6 -4,112 q -124,-16 -172.5,-16 -48.5,0 -66,9.5 -17.5,9.5 -17.5,28.5 0,19 18.5,28 18.5,9 96,22 77.5,13 115.5,44 38,31 38,110.5 0,79.5 -54,120 -54,40.5 -139,40.5 -59,0 -161,-19 l -33,-6 z"></path>
  <path d="m 1744.8474,306.36864 h -123 v 205 q 0,30 1.5,42.5 1.5,12.5 11,21.5 9.5,9 29.5,9 l 76,-2 6,107 q -67,15 -102,15 -90,0 -123,-40.5 -33,-40.5 -33,-149.5 v -208 h -59 v -114 h 59 V 53.368648 h 134 V 192.36864 h 123 z"></path>
  <path d="m 2191.1653,348 v 208 q 2,24 8,33.5 6,9.5 25,13.5 l -4,101 q -51,0 -81.5,-7 -30.5,-7 -61.5,-28 -72,35 -147,35 -155,0 -155,-164 0,-80 43,-113.5 43,-33.5 132,-39.5 l 107,-8 v -31 q 0,-31 -14,-42.5 -14,-11.5 -45,-11.5 l -188,8 -4,-93 q 107,-29 203.5,-29 96.5,0 139,40 42.5,40 42.5,128 z m -225,132 q -56,5 -56,60 0,55 49,55 38,0 83,-12 l 15,-4 V 472 Z"></path>
  <path d="m 2685.8474,204.04237 h -140 l -80,386 h -28 l -84,-386 h -136 l 120,500 h 228 z"></path>
</svg>
