<svg width="41" height="1293" viewBox="0 0 41 1293" fill="none" xmlns="http://www.w3.org/2000/svg">
<path d="M35 1290.74H18.008V1285.68C18.008 1284.98 18.08 1284.32 18.224 1283.71C18.352 1283.1 18.576 1282.53 18.896 1281.98C19.2 1281.44 19.648 1281.01 20.24 1280.69C20.832 1280.37 21.536 1280.21 22.352 1280.21C23.248 1280.21 24.032 1280.49 24.704 1281.05C25.36 1281.59 25.792 1282.31 26 1283.21H26.048C26.176 1282.07 26.616 1281.15 27.368 1280.45C28.12 1279.73 29.096 1279.37 30.296 1279.37C31.72 1279.37 32.864 1279.94 33.728 1281.07C34.576 1282.21 35 1283.75 35 1285.7V1290.74ZM33.512 1289.02V1285.8C33.512 1284.44 33.24 1283.32 32.696 1282.44C32.152 1281.56 31.32 1281.12 30.2 1281.12C29.096 1281.12 28.264 1281.5 27.704 1282.25C27.144 1283 26.864 1284.08 26.864 1285.49V1289.02H33.512ZM25.448 1289.02V1285.54C25.448 1284.56 25.208 1283.72 24.728 1283.02C24.248 1282.3 23.496 1281.94 22.472 1281.94C21.448 1281.94 20.696 1282.31 20.216 1283.06C19.736 1283.82 19.496 1284.8 19.496 1286.02V1289.02H25.448ZM35 1278.82L18.008 1271.48V1269.8L35 1262.5L35 1264.42L30.536 1266.29V1275.08L35 1276.93V1278.82ZM28.952 1274.43V1266.94L19.928 1270.69L28.952 1274.43ZM35 1261.32H18.008V1259.59H25.64V1259.57L18.008 1251.48V1249.01L25.712 1257.58L35 1248.53V1251.07L25.952 1259.57V1259.59H35V1261.32ZM35 1249.59L18.008 1242.24V1240.56L35 1233.27V1235.19L30.536 1237.06L30.536 1245.84L35 1247.69V1249.59ZM28.952 1245.2L28.952 1237.71L19.928 1241.45L28.952 1245.2ZM35 1232.09H18.008V1230.36H25.376L25.376 1221.09H18.008V1219.37H35V1221.09H26.96L26.96 1230.36H35V1232.09ZM35.432 1208.24C35.432 1210.8 34.592 1212.92 32.912 1214.6C31.216 1216.26 29.08 1217.09 26.504 1217.09C23.928 1217.09 21.8 1216.25 20.12 1214.57C18.424 1212.89 17.576 1210.78 17.576 1208.24C17.576 1206.99 17.824 1205.82 18.32 1204.73C18.8 1203.63 19.448 1202.78 20.264 1202.19L21.32 1203.63C20.712 1204.03 20.192 1204.64 19.76 1205.48C19.312 1206.29 19.088 1207.2 19.088 1208.21C19.088 1210.34 19.808 1212.05 21.248 1213.35C22.688 1214.63 24.44 1215.27 26.504 1215.27C28.568 1215.27 30.32 1214.62 31.76 1213.32C33.2 1212.03 33.92 1210.32 33.92 1208.21C33.92 1206 33.08 1204.34 31.4 1203.22L32.264 1201.88C33.192 1202.48 33.952 1203.34 34.544 1204.44C35.136 1205.53 35.432 1206.8 35.432 1208.24ZM35 1200.23H18.008L18.008 1198.5H32.312V1198.45L18.008 1189.09V1187.15H35V1188.87H20.552V1188.92L35 1198.28V1200.23ZM35 1183.94H18.008V1182.22H32.312V1182.17L18.008 1172.81V1170.86H35V1172.59H20.552V1172.64L35 1182L35 1183.94Z" fill="black"/>
<line x1="0.5" y1="2.18557e-08" x2="0.499943" y2="1293" stroke="black"/>
</svg>
