<?xml version="1.0" standalone="no"?>
<!DOCTYPE svg PUBLIC "-//W3C//DTD SVG 20010904//EN"
 "http://www.w3.org/TR/2001/REC-SVG-20010904/DTD/svg10.dtd">
<svg version="1.0" xmlns="http://www.w3.org/2000/svg"
 width="130.000000pt" height="130.000000pt" viewBox="0 0 130.000000 130.000000"
 preserveAspectRatio="xMidYMid meet">

<g transform="translate(0.000000,130.000000) scale(0.100000,-0.100000)"
fill="#000000" stroke="none">
<path d="M999 1249 c-63 -9 -118 -40 -163 -89 -51 -57 -69 -103 -70 -180 -1
-149 103 -266 249 -278 86 -6 144 11 201 61 l47 41 -32 27 -32 27 -52 -35
c-48 -32 -57 -35 -113 -31 -48 3 -70 10 -98 31 -90 69 -99 199 -20 287 43 47
90 64 155 57 75 -9 89 -20 89 -72 l0 -45 45 0 45 0 0 64 c0 60 -2 66 -29 85
-58 42 -145 61 -222 50z"/>
<path d="M150 1196 l0 -45 47 -3 47 -3 80 -222 79 -223 42 0 42 0 83 225 84
225 43 0 43 0 0 45 0 45 -77 0 -78 0 -65 -190 c-35 -105 -67 -190 -70 -190 -3
0 -34 86 -70 190 l-65 190 -82 0 -83 0 0 -44z"/>
<path d="M190 551 c0 -40 0 -40 43 -43 l42 -3 3 -177 2 -178 -45 0 -45 0 0
-45 0 -45 200 0 200 0 0 45 0 45 -111 0 -111 0 4 129 c3 112 6 133 24 157 26
36 62 61 97 70 26 6 27 5 27 -35 l0 -41 45 0 45 0 0 80 0 80 -57 0 c-69 0
-129 -25 -165 -68 l-26 -31 -7 49 -7 50 -79 0 -79 0 0 -39z"/>
<path d="M710 545 l0 -45 40 0 40 0 0 -152 c0 -127 4 -160 19 -193 34 -74 85
-105 172 -105 58 0 97 17 133 60 l26 31 6 -40 7 -41 73 0 74 0 0 45 c0 44 0
45 -34 45 -33 0 -33 1 -40 53 -3 28 -6 127 -6 220 l0 167 -90 0 -90 0 0 -45 0
-45 45 0 45 0 0 -123 c0 -110 -3 -129 -23 -167 -28 -54 -78 -83 -130 -76 -84
10 -97 49 -97 284 l0 172 -85 0 -85 0 0 -45z"/>
<path d="M0 105 l0 -45 50 0 50 0 0 45 0 45 -50 0 -50 0 0 -45z"/>
</g>
</svg>
