<svg enable-background="new 0 0 1089.5 1089.5" height="1089.5" viewBox="0 0 1089.5 1089.5" width="1089.5" fill="#ffffff" xmlns="http://www.w3.org/2000/svg"><path d="m86.1 520.2 32.7 59.4h37.8l32.1-59.4h16.1v-10.8h-48.4v10.8h14l-23.4 43.2-23.7-43.2h17v-10.8h-70.3v10.8z"/><path d="m502.4 520.2v-10.7h64.8v10.7h-16.1v48.5h15c13.9 0 23-9.2 23-21.6h10.7v32.5h-97.3v-10.9h16.3v-48.5z"/><path d="m345.3 508c-32.5 0-49.8 16.2-49.8 36.6 0 20.6 16.6 37.1 50 37.1s49.8-16.5 49.8-37.1c0-20.4-17.4-36.6-50-36.6zm-.3 62.5c-11.9-.2-17.1-13.3-16.9-26.4.2-13.5 6.7-25.3 17.8-25.1s17 12.2 16.8 25.7c-.2 12.8-5.5 26-17.7 25.8z"/><path d="m710.2 520.2 32.7 59.4h37.8l32.1-59.4h16.1v-10.8h-48.4v10.8h14l-23.4 43.2-23.7-43.2h17v-10.8h-70.3v10.8z"/><path d="m969.4 508c-32.5 0-49.8 16.2-49.8 36.6 0 20.6 16.6 37.1 50 37.1s49.8-16.5 49.8-37.1c0-20.4-17.4-36.6-50-36.6zm-.3 62.5c-11.9-.2-17.1-13.3-16.9-26.4.2-13.5 6.7-25.3 17.8-25.1s17 12.2 16.8 25.7c-.2 12.8-5.5 26-17.7 25.8z"/><path d="m0 0h1089.5v1089.5h-1089.5z" fill="none"/></svg>