<svg width="808" height="281" viewBox="0 0 808 281" fill="none" xmlns="http://www.w3.org/2000/svg">
<path d="M100.625 208.556C94.2943 208.556 85.9644 208.89 79.6337 208.556C75.9685 208.222 72.6366 206.552 68.9714 202.877C58.3091 209.892 45.6477 213.567 31.3203 211.897C8.66294 209.224 0.333048 193.188 4.3314 174.814C6.66377 163.789 13.6609 158.11 24.3232 155.103C35.6518 151.762 47.3137 152.096 58.6423 149.09C64.6399 147.419 70.9706 145.081 70.6374 139.401C69.3046 130.381 63.9735 126.038 54.9772 125.704C43.6485 125.036 35.6518 129.379 33.6526 141.072C24.9895 141.072 17.326 141.072 8.99614 141.072C5.99738 132.052 9.99573 125.704 15.3269 120.025C21.6576 113.343 29.6543 110.002 38.6506 108.666C49.646 106.995 60.9747 106.995 71.9702 108.666C88.9631 111.339 97.9594 122.029 98.2926 139.401C98.6258 155.437 98.2926 171.473 98.2926 187.843C97.9594 194.191 97.6262 202.877 100.625 208.556ZM71.3038 161.451C68.9714 162.453 65.3062 163.455 58.6423 164.791C51.9784 166.128 43.3153 166.462 36.6514 170.805C29.9875 174.814 28.9879 184.836 34.319 189.513C43.3153 197.197 63.9735 194.859 68.305 181.83C70.3042 175.816 71.637 170.471 71.3038 161.451Z" fill="white"/>
<path d="M351.188 159.112C349.522 134.39 368.181 106.996 403.167 107.33C433.154 107.664 455.812 128.711 455.145 161.117C454.479 192.186 433.821 211.897 402.167 211.897C367.848 211.897 349.189 185.839 351.188 159.112ZM427.49 158.778C428.49 153.099 426.157 147.085 423.825 141.74C420.16 133.054 412.829 128.377 402.834 128.377C392.504 128.043 385.507 133.054 381.842 142.074C376.844 154.435 376.511 166.796 382.509 179.157C386.84 187.843 393.837 192.186 403.833 192.186C413.829 191.852 420.826 186.507 424.158 177.487C426.157 171.473 428.156 165.46 427.49 158.778Z" fill="white"/>
<path d="M203.583 99.3117C195.586 99.3117 188.589 92.6301 188.589 84.9463C188.589 76.5943 196.586 69.2445 204.915 69.9126C213.245 70.5808 218.91 76.9283 218.91 85.2804C218.243 93.6324 211.913 99.3117 203.583 99.3117Z" fill="white"/>
<path d="M762.352 208.89C762.352 200.204 762.352 154.101 762.352 154.101C762.352 154.101 765.684 145.081 770.682 140.738C779.012 133.388 784.343 132.72 788.008 132.386C792.007 131.718 796.338 132.052 800.003 132.72C800.003 125.704 800.003 116.684 800.003 109C783.01 104.323 768.683 117.352 761.686 128.711C761.686 124.702 761.686 117.352 761.686 109.668C754.689 109.668 745.026 109.668 736.03 109.668C736.03 143.076 736.03 175.816 736.03 208.89C736.363 208.89 737.029 208.89 737.363 208.89H762.352V208.89Z" fill="white"/>
<path d="M189.922 108.666C189.922 131.718 189.922 173.144 189.922 208.89H217.244C217.244 172.475 217.244 130.381 217.244 108.666H189.922V108.666Z" fill="white"/>
<path d="M342.192 109.668H317.869C317.869 96.6391 317.869 83.944 317.869 73.2534C308.539 73.2534 299.543 73.2534 290.547 73.2534C290.547 83.944 290.547 97.3072 290.547 109.668H273.554V128.377C278.218 128.377 284.216 128.377 290.547 128.377C290.547 139.067 290.547 147.085 290.547 148.756C290.547 159.78 290.213 171.139 290.547 182.164C291.213 196.529 299.876 206.886 313.204 208.556C321.201 209.558 329.531 210.227 337.86 207.554C337.527 200.872 338.86 194.859 336.861 189.514C334.862 189.179 333.862 188.845 332.863 188.845C318.202 187.843 317.869 187.509 317.536 173.478C317.536 167.798 317.536 149.424 317.536 128.377C325.532 128.377 333.862 128.377 341.859 128.377L342.192 109.668Z" fill="white"/>
<path d="M175.594 109.668H155.602C155.602 109 155.602 108.332 155.602 107.664C155.602 88.6212 169.93 91.962 174.928 92.6302C174.595 85.9486 174.928 78.5988 174.928 71.9172C162.6 70.9149 150.271 70.5809 139.942 77.5966C129.613 84.9463 128.614 98.9777 128.614 109.334H111.621V128.043C116.285 128.043 122.283 128.043 128.614 128.043C128.614 150.426 128.614 183.166 128.614 208.89H155.602C155.602 184.168 155.602 151.762 155.602 128.043C162.266 128.043 168.93 128.043 175.594 128.043V109.668Z" fill="white"/>
<path d="M586.425 109.668C581.76 126.372 572.097 159.446 567.099 176.484C562.768 159.112 554.105 126.038 549.773 109.668H523.451L506.791 175.482L486.799 109.668H459.144L490.131 208.556H519.119L536.445 143.41L554.438 208.556H583.093L614.413 109.668H586.425V109.668Z" fill="white"/>
<path d="M698.712 116.684C683.718 104.991 666.725 104.657 650.065 111.005C623.743 121.027 612.081 149.758 621.077 178.489C629.407 205.884 657.395 216.574 683.718 210.227C699.045 206.552 710.04 197.531 714.705 181.83C715.038 181.162 715.372 179.491 715.705 178.155H693.381C686.717 189.179 676.054 194.525 661.727 189.514C652.064 186.173 646.733 177.487 647.066 165.794C671.056 165.794 693.714 165.794 717.371 165.794C719.37 145.749 714.372 129.045 698.712 116.684ZM669.724 128.377C682.052 128.377 689.715 137.731 690.049 148.422H647.733C649.399 133.388 659.395 128.377 669.724 128.377Z" fill="white"/>
</svg>
