<svg width="971" height="788" viewBox="0 0 971 788" fill="none" xmlns="http://www.w3.org/2000/svg">
<path fill-rule="evenodd" clip-rule="evenodd" d="M506.417 0.559204C498.437 2.12324 487.709 8.23207 478.385 16.5221C460.218 32.6736 454.364 35.2396 435.824 35.1742L422.854 35.1285L431.928 38.017C449.178 43.5057 461.744 44.1757 476.385 40.3859C486.331 37.8117 492.728 34.2781 501.843 26.3221C513.525 16.1279 518.256 13.952 528.684 13.9831C533.283 13.9966 540.903 14.8553 545.619 15.8914C550.333 16.9287 554.043 17.6276 553.86 17.4451C552.57 16.1559 539.487 8.20096 534.629 5.7512C524.9 0.845455 514.614 -1.04735 506.417 0.559204ZM433.221 5.64334C419.349 7.6046 408.988 13.9831 402.035 24.839C400.19 27.7212 396.71 35.67 394.302 42.5028C385.856 66.4693 380.928 73.0842 365.452 81.2331C356.425 85.9865 357.415 86.4968 369.62 83.3831C385.558 79.3186 398.536 71.5856 408.006 60.513C413.668 53.8928 416.88 47.7072 420.698 36.0683C425.631 21.0295 430.726 16.2918 448.968 9.78157C458.011 6.55499 459.503 5.75638 456.581 5.70764C454.584 5.67341 449.912 5.44731 446.199 5.20461C442.488 4.96088 436.647 5.15794 433.221 5.64334ZM512.638 30.2933C523.297 42.4446 534.662 50.242 547.947 54.5171C559.5 58.2364 569.066 58.6865 580.979 56.074C585.156 55.1571 591.505 54.4072 595.089 54.4072C603.644 54.4072 611.297 58.1887 621.402 67.4121C625.542 71.1894 628.93 73.995 628.93 73.6443C628.93 73.2938 627.695 70.5723 626.185 67.5966C614.664 44.8788 602.854 35.1369 585.387 33.941C579.06 33.5076 573.949 34.0189 562.343 36.2477C539.292 40.6733 530.032 39.3291 515.559 29.4605C512.258 27.2088 509.277 25.3669 508.936 25.3669C508.596 25.3669 510.261 27.5844 512.638 30.2933ZM363.479 47.5122C346.368 56.4898 338.163 64.73 334.133 76.987C331.293 85.6182 331.425 93.5059 334.677 109.895C339.222 132.785 337.684 142.097 326.691 158.297L322.235 164.865L327.621 160.37C338.373 151.399 347.709 138.973 351.795 128.197C353.017 124.976 354.695 118.474 355.525 113.748C356.943 105.672 356.899 104.436 354.774 93.2175C350.911 72.8011 352.643 65.9984 365.495 51.1277C369.357 46.6565 372.394 43.0121 372.243 43.0286C372.09 43.0452 368.147 45.0625 363.479 47.5122ZM586.363 59.7196C586.361 64.2321 591.85 82.1541 595.166 88.457C601.237 99.9973 612.484 111.959 621.663 116.637C623.741 117.696 628.681 119.595 632.637 120.857C651.141 126.757 656.869 132.723 663.306 152.802C666.199 161.824 667.079 160.576 667.235 147.233C667.435 130.21 663.322 117.997 654.444 109.251C648.18 103.08 642.669 100.151 627.506 94.9382C620.727 92.6076 612.815 89.4184 609.926 87.8523C602.221 83.6767 595.701 76.482 590.737 66.6789C588.332 61.9265 586.363 58.7943 586.363 59.7196ZM308.718 129.322C301.025 142.2 298.77 148.835 298.77 158.578C298.77 171.84 302.787 180.017 317.46 196.626C322.63 202.478 327.188 208.942 329.638 213.894C333.544 221.793 333.551 221.829 333.551 235.022C333.551 249.292 333.747 249.285 337.857 234.872C344.982 209.897 340.281 187.437 324.181 169.531C314.878 159.183 312.289 153.593 312.277 143.818C312.271 139.658 312.996 132.726 313.888 128.411C314.78 124.098 315.29 120.348 315.022 120.08C314.752 119.811 311.917 123.97 308.718 129.322ZM451.18 126.729C450.949 129.45 451.192 131.972 451.72 132.334C452.25 132.696 455.461 133.306 458.856 133.689C470.055 134.955 471.088 129.709 448.346 187.059L428.03 238.295L423.082 239.539C420.36 240.223 417.968 240.97 417.765 241.198C417.561 241.427 417.073 243.83 416.679 246.54L415.963 251.466H440.304H464.646L465.272 249.133C465.616 247.849 465.905 245.566 465.912 244.059C465.928 240.919 464.957 240.535 454.217 239.444C450.347 239.05 446.962 238.376 446.697 237.948C446.43 237.519 448.388 231.509 451.047 224.595L455.88 212.022L484.462 212.297L513.044 212.573L517.945 225.282C523.548 239.814 524.34 238.081 511.225 239.969C507.303 240.533 503.979 241.135 503.836 241.304C503.694 241.475 503.341 243.83 503.05 246.54L502.52 251.466H527.81H553.098L553.718 248.999C554.059 247.641 554.186 245.192 553.997 243.556C553.694 240.907 553.095 240.462 548.557 239.505C545.751 238.913 543.037 237.745 542.526 236.91C542.015 236.073 531.884 209.954 520.014 178.866L498.432 122.341L475.018 122.062L451.603 121.784L451.18 126.729ZM633.766 135.046C629.705 148.399 628.549 158.63 630.012 168.267C632.555 185.023 636.013 192.348 647.432 205.163C659.831 219.076 660.957 225.866 655.283 252.495C654.545 255.958 663.423 242.533 667.495 234.029C676.263 215.71 672.972 199.559 656.66 180.846C638.798 160.355 636.801 156.034 636.921 138.157C636.966 131.454 636.896 125.971 636.762 125.971C636.632 125.971 635.283 130.055 633.766 135.046ZM497.05 168.95L508.229 199.609H484.497H460.765L462.914 194.164C464.096 191.169 468.951 178.451 473.702 165.902C478.454 153.352 482.867 141.736 483.507 140.088C484.148 138.44 484.942 137.362 485.273 137.692C485.603 138.021 490.903 152.087 497.05 168.95ZM635.862 220.319C627.9 228.605 625.05 232.437 621.765 239.271C614.384 254.621 612.647 267.508 616.068 281.544C616.972 285.252 617.763 291.37 617.826 295.138C617.919 300.887 617.404 303.078 614.627 308.711C612.808 312.405 608.507 318.494 605.069 322.241C601.632 325.987 598.82 329.339 598.82 329.689C598.82 330.658 608.899 325.374 616.471 320.432C636.461 307.387 641.885 291.871 636.086 264.32C634.637 257.436 633.701 249.377 633.691 243.688C633.677 235.363 634.028 233.598 636.948 227.373C638.748 223.534 641.696 218.251 643.501 215.632C645.304 213.013 646.568 210.661 646.311 210.402C646.052 210.146 641.349 214.607 635.862 220.319ZM303.802 221.388C303.014 242.931 305.846 253.225 315.313 263.226C321.797 270.073 327.289 273.102 343.028 278.514C364.967 286.057 371.846 291.34 380.057 306.954C382.756 312.088 384.74 315.122 384.468 313.696C380.281 291.838 374.201 279.11 362.243 267.164C354.721 259.65 349.415 256.459 338.094 252.636C318.425 245.994 314.626 242.111 307.535 221.39L304.163 211.536L303.802 221.388ZM600.168 290.255C587.202 293.808 577.297 299.179 568.393 307.486C558.563 316.657 555.28 321.835 550.497 335.73C544.62 352.801 538.526 358.388 518.957 364.645C512 366.87 511.546 367.173 514.285 367.765C524.421 369.953 542.983 368.015 551.799 363.849C563.261 358.433 570.576 348.387 577.091 329.122C584.353 307.639 590.223 299.925 605.05 292.369C615.147 287.223 613.63 286.565 600.168 290.255ZM346.587 309.518C353.5 322.803 361.949 332.015 371.066 336.207C379.865 340.253 392.352 340.694 406.88 337.475C413.911 335.916 421.072 335.085 427.511 335.077C439.048 335.063 443.741 336.595 455.552 344.226L463.197 349.166L457.731 342.863C438.432 320.611 415.454 312.342 387.842 317.716C370.555 321.082 363.22 318.734 347.892 304.924L340.936 298.656L346.587 309.518ZM500.562 331.766C485.358 334.636 480.45 337.021 468.324 347.427C455.932 358.061 452.016 359.849 441.527 359.663C436.959 359.583 430.039 358.773 426.149 357.868C422.259 356.961 418.533 356.218 417.87 356.218C416.135 356.218 431.045 365.354 438.437 368.819C456.858 377.456 472.252 374.282 490.986 357.985C511.489 340.151 515.73 338.185 533.713 338.194C540.446 338.197 545.285 337.823 544.463 337.365C543.643 336.907 538.709 335.391 533.5 333.999C521.295 330.736 510.051 329.974 500.562 331.766Z" fill="white"/>
<path d="M62.3317 563.025C62.3317 557.986 61.0429 553.885 58.5825 550.604C56.122 547.441 52.6071 545.214 47.9205 543.925V543.222C51.9041 541.934 55.0675 539.824 57.4108 537.012C59.7541 534.2 60.9257 530.45 60.9257 525.881C60.9257 522.483 60.2227 519.553 58.8168 516.975C57.4108 514.397 55.419 512.288 52.9586 510.648C50.3809 509.007 47.3347 507.718 43.8197 506.898C40.3048 506.078 36.3212 505.609 32.1033 505.609C28.0025 505.609 23.7846 506.078 19.3324 506.781C14.8801 507.484 10.4279 508.656 6.20996 510.179L7.96743 531.505L13.7085 530.802L14.8801 514.632C17.5749 513.694 20.6212 512.991 23.9018 512.64C27.1824 512.405 29.76 512.171 31.869 512.171C37.9615 512.171 42.7653 513.343 46.2802 515.569C49.7951 517.913 51.6697 521.545 51.6697 526.701C51.6697 528.927 51.3183 531.153 50.6153 533.263C49.9123 535.489 49.0921 537.364 48.0377 538.77C45.6944 539.824 43.1167 540.527 40.5391 540.879C37.9615 541.23 35.6182 541.348 33.6264 541.348C31.9861 541.348 30.3458 541.348 28.4712 541.23C26.5966 541.113 24.7219 540.996 22.9645 540.762L22.3786 548.847C24.1361 548.495 25.8936 548.261 27.7682 548.027C29.6428 547.792 31.2831 547.675 32.9234 547.675C39.4847 547.675 44.5227 549.198 47.9205 552.011C51.2011 554.823 52.9586 558.807 52.9586 563.728C52.9586 567.946 51.9041 571.462 49.7951 574.508C47.6862 577.555 45.1085 579.898 41.8279 581.773L10.3107 574.157L7.96743 581.304C9.60773 582.242 11.4824 582.945 13.8256 583.648C16.0518 584.351 18.3951 585.054 20.9727 585.523C23.4331 586.108 25.8936 586.577 28.354 586.811C30.8145 587.046 33.0406 587.163 35.1496 587.163C39.016 587.163 42.6481 586.694 45.9287 585.523C49.2093 584.468 52.1384 582.945 54.5989 580.836C56.9421 578.726 58.8168 576.266 60.2227 573.219C61.6287 570.29 62.3317 566.892 62.3317 563.025ZM111.771 506.898H73.575L72.9891 511.468L83.4168 513.343V579.547L73.575 581.304L72.9891 585.874H106.029C108.607 585.874 111.068 585.874 113.645 585.757C116.223 585.64 118.683 585.405 121.027 584.937C123.37 584.585 125.713 583.999 127.822 583.296C129.931 582.593 131.806 581.539 133.446 580.25C138.133 576.852 140.476 571.696 140.476 564.783C140.476 561.97 140.007 559.393 139.304 557.166C138.601 555.057 137.547 553.182 136.258 551.659C134.969 550.136 133.446 548.847 131.806 547.792C130.048 546.855 128.291 546.035 126.416 545.449V544.746C129.931 543.34 132.743 541.113 135.086 537.95C137.43 534.903 138.601 530.919 138.601 526.115C138.601 522.365 137.781 519.319 136.375 516.858C134.852 514.397 132.86 512.405 130.4 510.882C127.822 509.476 125.01 508.422 121.73 507.836C118.449 507.25 115.168 506.898 111.771 506.898ZM105.209 542.871H97.9452L97.3593 548.964H110.95C113.762 548.964 116.34 549.198 118.8 549.667C121.144 550.136 123.253 550.839 125.127 552.011C126.885 553.182 128.291 554.823 129.345 556.815C130.4 558.924 130.986 561.502 130.986 564.548C130.986 566.657 130.751 568.767 130.283 571.11C129.814 573.454 128.994 575.445 128.056 576.852C126.416 577.555 124.776 578.023 122.901 578.375C121.027 578.726 119.152 578.961 117.16 579.078C115.168 579.312 113.177 579.429 111.185 579.429C109.193 579.547 107.318 579.547 105.678 579.547H92.2041V513.343H106.147C109.544 513.343 112.708 513.577 115.52 513.812C118.332 514.163 120.675 514.866 122.784 515.804C124.776 516.858 126.299 518.381 127.471 520.256C128.642 522.248 129.228 524.826 129.228 527.99C129.228 530.333 128.877 532.56 128.291 534.669C127.588 536.895 126.533 538.653 125.127 539.942C122.198 541.348 119.269 542.168 116.223 542.402C113.177 542.754 109.427 542.871 105.209 542.871ZM170.351 513.343H205.501L207.844 531.505L213.468 530.802L214.171 506.898H151.722L151.136 511.468L161.564 513.343V579.547L151.722 581.304L151.136 585.874H215.225L214.522 560.213L208.899 560.799L206.672 579.547H170.351V549.784H190.621L191.91 561.853L196.479 561.267L197.299 533.263L189.566 533.966L190.269 543.457H170.351V513.343ZM283.731 563.025C283.731 557.986 282.443 553.885 279.982 550.604C277.522 547.441 274.007 545.214 269.32 543.925V543.222C273.304 541.934 276.467 539.824 278.811 537.012C281.154 534.2 282.325 530.45 282.325 525.881C282.325 522.483 281.622 519.553 280.216 516.975C278.811 514.397 276.819 512.288 274.358 510.648C271.781 509.007 268.734 507.718 265.219 506.898C261.704 506.078 257.721 505.609 253.503 505.609C249.402 505.609 245.184 506.078 240.732 506.781C236.28 507.484 231.828 508.656 227.61 510.179L229.367 531.505L235.108 530.802L236.28 514.632C238.975 513.694 242.021 512.991 245.301 512.64C248.582 512.405 251.16 512.171 253.269 512.171C259.361 512.171 264.165 513.343 267.68 515.569C271.195 517.913 273.069 521.545 273.069 526.701C273.069 528.927 272.718 531.153 272.015 533.263C271.312 535.489 270.492 537.364 269.437 538.77C267.094 539.824 264.516 540.527 261.939 540.879C259.361 541.23 257.018 541.348 255.026 541.348C253.386 541.348 251.746 541.348 249.871 541.23C247.996 541.113 246.122 540.996 244.364 540.762L243.778 548.847C245.536 548.495 247.293 548.261 249.168 548.027C251.043 547.792 252.683 547.675 254.323 547.675C260.884 547.675 265.922 549.198 269.32 552.011C272.601 554.823 274.358 558.807 274.358 563.728C274.358 567.946 273.304 571.462 271.195 574.508C269.086 577.555 266.508 579.898 263.228 581.773L231.71 574.157L229.367 581.304C231.007 582.242 232.882 582.945 235.225 583.648C237.451 584.351 239.795 585.054 242.372 585.523C244.833 586.108 247.293 586.577 249.754 586.811C252.214 587.046 254.44 587.163 256.549 587.163C260.416 587.163 264.048 586.694 267.328 585.523C270.609 584.468 273.538 582.945 275.999 580.836C278.342 578.726 280.216 576.266 281.622 573.219C283.028 570.29 283.731 566.892 283.731 563.025ZM290.678 602.279L296.419 601.693L298.176 585.874H360.156L361.914 602.279L367.538 601.693L368.241 579.547H361.797L335.2 506.898H310.361L309.776 511.468L321.492 513.343L296.302 579.547H289.975L290.678 602.279ZM304.503 579.547L328.756 514.866H329.459L352.892 579.547H304.503ZM393.699 579.547V513.343L404.595 511.468L405.181 506.898H374.953L374.367 511.468L384.795 513.343V579.547L374.953 581.304L374.367 585.874H402.486C408.345 585.874 413.617 585.64 418.186 585.054C422.756 584.468 426.739 582.827 430.02 580.25C432.129 578.609 433.886 576.5 435.292 573.688C436.698 570.876 437.519 567.36 437.519 563.142C437.519 558.69 436.581 554.94 434.824 551.893C432.949 548.964 430.606 546.621 427.794 544.863C424.982 543.222 421.818 542.051 418.304 541.348C414.789 540.645 411.274 540.293 407.876 540.293H399.44L398.854 546.621H406.353C408.93 546.621 411.625 546.855 414.203 547.324C416.78 547.792 419.241 548.612 421.35 549.784C423.459 550.956 425.099 552.714 426.388 554.94C427.677 557.166 428.38 559.978 428.38 563.494C428.38 566.072 428.028 568.532 427.325 570.876C426.622 573.219 425.919 575.094 424.982 576.5C421.701 577.789 417.835 578.609 413.5 578.961C409.165 579.429 405.181 579.547 401.549 579.547H393.699ZM442.908 581.304L442.322 585.874H471.496L472.082 581.304L461.654 579.547V513.343L471.496 511.468L472.082 506.898H442.908L442.322 511.468L452.75 513.343V579.547L442.908 581.304ZM499.932 581.304L499.346 585.874H527.466L528.051 581.304L515.046 579.547L522.193 561.267H558.28L565.31 579.547L553.007 581.304L552.422 585.874H581.244L581.83 581.304L574.331 579.547L546.681 506.898H521.725L521.139 511.468L532.738 513.343L506.845 579.547L499.932 581.304ZM524.654 554.94L540.354 514.515H540.822L555.937 554.94H524.654ZM620.575 549.316H611.905L611.319 553.768L621.864 555.643H625.73C633.697 555.643 640.024 553.885 644.945 550.136C647.405 548.261 649.514 545.683 651.155 542.519C652.795 539.473 653.615 535.606 653.615 530.919C653.615 526.232 652.678 522.248 650.92 519.084C649.046 516.038 646.702 513.577 643.773 511.702C640.844 509.945 637.564 508.656 633.814 507.953C630.065 507.25 626.199 506.898 622.332 506.898H587.886L587.3 511.468L597.728 513.343V579.547L587.886 581.304L587.3 585.874H619.989L620.575 581.304L606.515 579.547V513.343H620.458C624.675 513.343 628.425 513.812 631.471 514.632C634.517 515.452 636.978 516.624 638.852 518.147C640.727 519.67 642.016 521.545 642.953 523.654C643.773 525.881 644.242 528.341 644.242 531.036C644.242 533.38 643.89 535.958 643.187 538.653C642.484 541.348 641.43 543.925 639.907 546.269C638.501 546.972 636.978 547.441 635.337 547.792C633.58 548.261 631.823 548.495 630.065 548.73C628.19 548.964 626.433 549.198 624.793 549.198C623.152 549.316 621.746 549.316 620.575 549.316ZM683.635 513.343H715.739L718.082 531.271L723.706 530.568L724.409 506.898H664.889L664.303 511.468L674.731 513.343V579.547L664.889 581.304L664.303 585.874H697.344C702.968 585.874 708.006 585.64 712.341 585.054C716.676 584.468 720.425 582.827 723.706 580.25C725.815 578.609 727.572 576.5 729.095 573.688C730.501 570.876 731.321 567.36 731.321 563.142C731.321 558.924 730.384 555.291 728.627 552.479C726.752 549.667 724.409 547.441 721.597 545.8C718.785 544.16 715.621 543.105 712.106 542.402C708.592 541.699 705.077 541.348 701.679 541.348H689.142L688.556 547.792H700.156C702.733 547.792 705.311 548.027 707.889 548.378C710.466 548.847 712.927 549.55 715.036 550.722C717.145 551.893 718.785 553.417 720.191 555.526C721.48 557.635 722.183 560.213 722.183 563.494C722.183 566.072 721.831 568.532 721.128 570.876C720.425 573.219 719.722 575.094 718.785 576.5C717.145 577.203 715.27 577.672 713.395 578.023C711.403 578.492 709.412 578.726 707.303 578.961C705.194 579.195 703.202 579.429 701.093 579.429C698.984 579.547 697.109 579.547 695.352 579.547H683.635V513.343ZM737.579 581.304L736.994 585.874H765.113L765.699 581.304L752.694 579.547L759.841 561.267H795.927L802.957 579.547L790.655 581.304L790.069 585.874H818.892L819.477 581.304L811.979 579.547L784.328 506.898H759.372L758.786 511.468L770.386 513.343L744.492 579.547L737.579 581.304ZM762.301 554.94L778.001 514.515H778.47L793.584 554.94H762.301ZM856.642 513.343H878.083L880.309 531.505L886.05 530.802L886.753 506.898H817.509L818.095 531.505L823.953 530.802L826.179 513.343H847.737V579.547L835.435 581.304L834.849 585.874H868.827L869.413 581.304L856.642 579.547V513.343ZM886.667 581.304L886.081 585.874H914.2L914.786 581.304L901.781 579.547L908.928 561.267H945.015L952.045 579.547L939.742 581.304L939.156 585.874H967.979L968.565 581.304L961.066 579.547L933.415 506.898H908.459L907.873 511.468L919.473 513.343L893.58 579.547L886.667 581.304ZM911.388 554.94L927.089 514.515H927.557L942.671 554.94H911.388Z" fill="white"/>
<path d="M317.809 729.412H199.18V732.341H317.809V729.412Z" fill="white"/>
<path d="M774.75 729.412H656.121V732.341H774.75V729.412Z" fill="white"/>
<path d="M210.839 650.778H201.936V648.526H210.839C212.698 648.526 214.208 648.225 215.366 647.625C216.539 647.01 217.39 646.181 217.919 645.136C218.462 644.092 218.735 642.919 218.735 641.618C218.735 640.344 218.462 639.172 217.919 638.098C217.39 637.026 216.539 636.168 215.366 635.524C214.208 634.866 212.698 634.538 210.839 634.538H202.859V663.502H200.22V632.263H210.839C213.127 632.263 215.051 632.656 216.61 633.444C218.184 634.23 219.37 635.324 220.171 636.726C220.972 638.128 221.372 639.743 221.372 641.574C221.372 643.491 220.972 645.144 220.171 646.531C219.37 647.905 218.19 648.955 216.632 649.684C215.073 650.414 213.141 650.778 210.839 650.778ZM231.623 632.263H241.771C243.931 632.263 245.804 632.613 247.392 633.315C248.979 634.015 250.202 635.052 251.06 636.426C251.933 637.784 252.368 639.458 252.368 641.445C252.368 642.919 252.055 644.256 251.425 645.458C250.81 646.66 249.959 647.667 248.872 648.483C247.786 649.284 246.526 649.835 245.097 650.135L244.174 650.478H233.339L233.297 648.225H242.371C244.001 648.225 245.36 647.91 246.447 647.282C247.535 646.652 248.349 645.823 248.893 644.794C249.451 643.749 249.73 642.633 249.73 641.445C249.73 640.03 249.423 638.807 248.808 637.778C248.207 636.733 247.312 635.932 246.126 635.374C244.938 634.816 243.487 634.538 241.771 634.538H234.262V663.502H231.623V632.263ZM250.909 663.502L242.822 649.535L245.653 649.513L253.72 663.224V663.502H250.909ZM287.077 646.208V649.557C287.077 651.745 286.79 653.725 286.218 655.499C285.66 657.258 284.845 658.768 283.773 660.026C282.714 661.284 281.441 662.251 279.953 662.922C278.466 663.594 276.793 663.931 274.934 663.931C273.116 663.931 271.459 663.594 269.956 662.922C268.469 662.251 267.189 661.284 266.116 660.026C265.044 658.768 264.213 657.258 263.628 655.499C263.04 653.725 262.747 651.745 262.747 649.557V646.208C262.747 644.02 263.034 642.047 263.606 640.287C264.193 638.513 265.022 636.997 266.094 635.739C267.167 634.481 268.447 633.514 269.935 632.842C271.422 632.169 273.074 631.834 274.89 631.834C276.75 631.834 278.423 632.169 279.911 632.842C281.399 633.514 282.679 634.481 283.751 635.739C284.824 636.997 285.646 638.513 286.218 640.287C286.79 642.047 287.077 644.02 287.077 646.208ZM284.459 649.557V646.166C284.459 644.32 284.244 642.661 283.815 641.189C283.401 639.715 282.778 638.456 281.949 637.413C281.133 636.369 280.132 635.567 278.945 635.009C277.758 634.451 276.406 634.173 274.89 634.173C273.417 634.173 272.094 634.451 270.921 635.009C269.749 635.567 268.748 636.369 267.919 637.413C267.103 638.456 266.473 639.715 266.031 641.189C265.602 642.661 265.387 644.32 265.387 646.166V649.557C265.387 651.415 265.602 653.09 266.031 654.576C266.473 656.05 267.11 657.315 267.939 658.374C268.77 659.418 269.77 660.22 270.943 660.778C272.131 661.336 273.461 661.614 274.934 661.614C276.464 661.614 277.815 661.336 278.988 660.778C280.161 660.22 281.155 659.418 281.97 658.374C282.785 657.315 283.401 656.05 283.815 654.576C284.244 653.09 284.459 651.415 284.459 649.557ZM307.431 659.619L317.279 632.263H320.154L308.525 663.502H306.401L307.431 659.619ZM297.263 632.263L307.066 659.619L308.138 663.502H305.994L294.388 632.263H297.263ZM337.804 634.129L326.993 663.502H324.247L336.045 632.263H337.955L337.804 634.129ZM347.63 663.502L336.797 634.129L336.646 632.263H338.556L350.376 663.502H347.63ZM345.7 652.474V654.748H329.117V652.474H345.7ZM367.085 632.263V663.502H364.467V632.263H367.085ZM377.79 632.263V634.538H353.783V632.263H377.79ZM406.684 661.249V663.502H389.114V661.249H406.684ZM389.907 632.263V663.502H387.268V632.263H389.907ZM404.494 646.273V648.526H389.114V646.273H404.494ZM406.576 632.263V634.538H389.114V632.263H406.576ZM442.051 634.129L431.239 663.502H428.493L440.293 632.263H442.202L442.051 634.129ZM451.877 663.502L441.044 634.129L440.893 632.263H442.803L454.623 663.502H451.877ZM449.947 652.474V654.748H433.362V652.474H449.947ZM474.27 650.778H465.367V648.526H474.27C476.13 648.526 477.639 648.225 478.797 647.625C479.97 647.01 480.821 646.181 481.35 645.136C481.893 644.092 482.166 642.919 482.166 641.618C482.166 640.344 481.893 639.172 481.35 638.098C480.821 637.026 479.97 636.168 478.797 635.524C477.639 634.866 476.13 634.538 474.27 634.538H466.29V663.502H463.651V632.263H474.27C476.559 632.263 478.482 632.656 480.041 633.444C481.615 634.23 482.801 635.324 483.602 636.726C484.403 638.128 484.803 639.743 484.803 641.574C484.803 643.491 484.403 645.144 483.602 646.531C482.801 647.905 481.622 648.955 480.063 649.684C478.504 650.414 476.572 650.778 474.27 650.778ZM502.413 634.129L491.6 663.502H488.854L500.654 632.263H502.562L502.413 634.129ZM512.239 663.502L501.404 634.129L501.255 632.263H503.164L514.985 663.502H512.239ZM510.307 652.474V654.748H493.724V652.474H510.307ZM523.948 632.263H534.096C536.255 632.263 538.129 632.613 539.717 633.315C541.304 634.015 542.527 635.052 543.384 636.426C544.257 637.784 544.693 639.458 544.693 641.445C544.693 642.919 544.378 644.256 543.749 645.458C543.135 646.66 542.283 647.667 541.196 648.483C540.109 649.284 538.851 649.835 537.42 650.135L536.498 650.478H525.664L525.622 648.225H534.696C536.326 648.225 537.685 647.91 538.772 647.282C539.859 646.652 540.675 645.823 541.218 644.794C541.776 643.749 542.054 642.633 542.054 641.445C542.054 640.03 541.747 638.807 541.132 637.778C540.531 636.733 539.638 635.932 538.45 635.374C537.264 634.816 535.812 634.538 534.096 634.538H526.587V663.502H523.948V632.263ZM543.235 663.502L535.146 649.535L537.978 649.513L546.045 663.224V663.502H543.235ZM565.092 632.263V663.502H562.475V632.263H565.092ZM575.796 632.263V634.538H551.791V632.263H575.796ZM593.813 634.129L583 663.502H580.254L592.054 632.263H593.964L593.813 634.129ZM603.639 663.502L592.805 634.129L592.655 632.263H594.564L606.385 663.502H603.639ZM601.708 652.474V654.748H585.124V652.474H601.708ZM616.228 632.263H618.888L630.43 659.768L641.994 632.263H644.632L631.437 663.502H629.422L616.228 632.263ZM615.412 632.263H617.751L618.029 649.857V663.502H615.412V632.263ZM643.152 632.263H645.49V663.502H642.851V649.857L643.152 632.263ZM677.237 661.249V663.502H659.667V661.249H677.237ZM660.461 632.263V663.502H657.821V632.263H660.461ZM675.049 646.273V648.526H659.667V646.273H675.049ZM677.13 632.263V634.538H659.667V632.263H677.13ZM710.485 632.263V663.502H707.826L689.869 636.811V663.502H687.23V632.263H689.869L707.868 658.954V632.263H710.485ZM732.685 632.263V663.502H730.068V632.263H732.685ZM743.391 632.263V634.538H719.384V632.263H743.391ZM770.204 655.821C770.204 654.963 770.061 654.197 769.775 653.524C769.488 652.852 769.016 652.252 768.359 651.723C767.714 651.18 766.843 650.679 765.742 650.222C764.653 649.749 763.296 649.284 761.664 648.826C760.106 648.383 758.697 647.897 757.439 647.367C756.179 646.838 755.1 646.23 754.199 645.543C753.312 644.858 752.632 644.057 752.161 643.141C751.689 642.211 751.453 641.132 751.453 639.901C751.453 638.699 751.711 637.605 752.225 636.619C752.741 635.632 753.463 634.781 754.393 634.065C755.336 633.35 756.445 632.799 757.717 632.413C759.005 632.027 760.413 631.834 761.944 631.834C764.132 631.834 766.02 632.248 767.607 633.079C769.21 633.908 770.447 635.031 771.319 636.446C772.206 637.848 772.648 639.423 772.648 641.167H770.011C770.011 639.808 769.689 638.599 769.044 637.54C768.416 636.468 767.5 635.632 766.298 635.031C765.112 634.416 763.66 634.109 761.944 634.109C760.227 634.109 758.783 634.372 757.61 634.903C756.452 635.417 755.572 636.111 754.971 636.984C754.385 637.841 754.093 638.8 754.093 639.858C754.093 640.602 754.235 641.289 754.522 641.918C754.807 642.534 755.271 643.112 755.916 643.655C756.573 644.186 757.439 644.685 758.511 645.158C759.585 645.615 760.907 646.052 762.48 646.466C764.139 646.925 765.613 647.431 766.9 647.989C768.187 648.548 769.274 649.19 770.16 649.921C771.048 650.636 771.72 651.472 772.177 652.43C772.635 653.39 772.864 654.504 772.864 655.779C772.864 657.051 772.591 658.195 772.048 659.21C771.519 660.212 770.768 661.063 769.795 661.763C768.838 662.465 767.701 663.001 766.385 663.373C765.083 663.745 763.66 663.931 762.115 663.931C760.728 663.931 759.347 663.752 757.975 663.395C756.601 663.038 755.343 662.487 754.199 661.743C753.069 660.984 752.161 660.012 751.474 658.825C750.802 657.637 750.466 656.221 750.466 654.576H753.083C753.083 655.893 753.348 657.002 753.877 657.902C754.406 658.803 755.107 659.533 755.98 660.091C756.866 660.649 757.839 661.056 758.898 661.314C759.97 661.557 761.043 661.678 762.115 661.678C763.76 661.678 765.184 661.435 766.385 660.949C767.6 660.463 768.537 659.783 769.195 658.91C769.867 658.024 770.204 656.994 770.204 655.821Z" fill="white"/>
<path d="M486.233 752.848L490.178 764.993H502.947L492.617 772.498L496.562 784.643L486.233 777.138L475.903 784.643L479.849 772.498L469.518 764.993H482.287L486.233 752.848Z" fill="white"/>
<path d="M536.893 741.285L543.848 751.995L556.181 748.689L548.145 758.614L555.1 769.324L543.179 764.747L535.144 774.671L535.812 761.918L523.891 757.342L536.225 754.037L536.893 741.285Z" fill="white"/>
<path d="M589.325 722.089L598.814 730.634L609.873 724.249L604.679 735.914L614.168 744.459L601.469 743.125L596.276 754.791L593.621 742.3L580.923 740.964L591.98 734.58L589.325 722.089Z" fill="white"/>
<path d="M435.256 741.285L428.302 751.995L415.968 748.689L424.004 758.614L417.049 769.324L428.97 764.747L437.006 774.671L436.337 761.918L448.258 757.342L435.924 754.037L435.256 741.285Z" fill="white"/>
<path d="M382.823 722.089L373.334 730.634L362.275 724.249L367.468 735.914L357.979 744.459L370.679 743.125L375.872 754.791L378.527 742.3L391.226 740.964L380.168 734.58L382.823 722.089Z" fill="white"/>
</svg>
