<svg width="998" height="493" viewBox="0 0 998 493" fill="none" xmlns="http://www.w3.org/2000/svg">
<path d="M766.186 228.175C775.636 232.725 775.636 230.314 778.094 226.582C780.545 222.844 794.553 212.076 794.553 212.076C794.553 212.076 807.593 204.303 820.985 185.625C833.79 167.721 822.617 155.955 812.039 145.788C801.456 135.615 777.104 149.404 758.661 177.405C740.206 205.392 756.756 223.62 766.186 228.175ZM849.836 261.508C852.553 259.66 856.01 262.357 853.883 267.772C853.117 269.71 838.183 309.68 794.425 339.36C794.425 339.36 798.925 296.088 849.836 261.508ZM683.588 114.834C691.411 107.502 689.305 115.54 688.465 117.981C688.465 117.981 653.412 215.331 578.086 302.608C578.086 302.608 617.881 176.487 683.588 114.834V114.834ZM234.436 367.038C234.436 367.038 186.056 302.959 103.725 378.337L130.96 284.37C130.96 284.37 159.784 287.056 200.027 268.372C200.027 268.372 287.027 271.128 234.436 367.038ZM210.86 401.024C210.86 401.024 157.801 453.365 139.948 433.109C123.03 413.911 153.514 388.064 165.443 381.687C180.903 373.441 227.692 364.824 210.86 401.024ZM162.937 78.9145C162.937 78.9145 252.368 36.1051 290.92 57.7244C329.487 79.3446 317.741 118.046 258.995 182.269C258.995 182.269 214.078 222.504 187.279 233.846C187.279 233.846 153.483 239.064 143.787 243.869C143.787 243.869 151.812 217.38 161.443 187.068C173.399 149.552 188.923 108.08 180.313 97.0948C169.846 83.6984 162.937 78.9145 162.937 78.9145V78.9145ZM963.31 326.58C962.98 324.164 952.428 293.029 943.398 303.011C934.379 312.998 911.244 350.833 836.987 391.234C800.446 411.107 797.6 386.136 795.787 376.038C795.787 376.038 846.267 340.698 872.033 293.89C889.541 262.075 878.255 254.828 871.092 247.623C864.583 241.098 848.314 226.343 827.174 241.788C806.04 257.239 755.363 307.058 760.857 361.676C752.635 370.006 728.66 389.641 713.152 386.136C697.645 382.617 714.003 349.262 725.592 326.485C737.143 303.808 759.788 285.617 766.755 275.318C773.722 265.017 769.844 261.725 768.451 260.09C767.058 258.449 763.835 256.182 758.846 247.129C753.858 238.082 746.673 244.384 746.673 244.384C713.275 266.286 689.79 324.09 689.79 324.09C683.078 331.593 673.027 328.651 671.096 327.907C668.155 326.75 665.938 319.535 665.348 315.834C664.858 312.86 662.842 300.633 661.221 297.299C659.615 293.969 657.865 292.307 649.222 294.952C639.145 298.032 631.917 304.206 628.992 307.594C626.04 310.981 627.413 311.761 628.136 322.513C628.482 327.806 628.961 327.955 625.238 337.226C619.643 351.242 609.921 369.13 606.842 375.135C604.199 380.317 585.058 405.728 577.305 406.328C570.391 406.864 567.844 395.8 567.844 395.8C567.844 395.8 563.876 370.224 566.732 357.582C700.889 206.671 734.479 100.168 734.479 100.168C735.085 98.3639 738.217 92.1355 728.645 77.9426C716.242 59.551 703.304 60.342 703.304 60.342C703.304 60.342 694.262 59.1846 674.213 79.8975C546.55 211.795 533.881 350.292 533.881 350.292C532.611 352.878 532.121 353.345 526.606 359.44C520.81 365.849 512.36 370.42 512.36 370.42C512.36 370.42 504.254 372.517 502.525 365.669C501.414 361.257 502.164 357.869 502.759 351.944C503.313 346.454 511.172 328.321 511.172 328.321C511.172 328.321 523.012 302.714 525.628 295.121C528.244 287.519 527.633 279.103 525.207 273.156C522.782 267.215 511.885 261.115 508.387 258.736C504.988 256.427 501.351 252.89 501.829 247.841C501.994 246.18 500.436 244.793 506.977 230.357C513.535 215.904 501.451 212.4 497.936 211.8C494.432 211.195 484.72 208.237 475.839 216.005C460.108 229.784 459.64 253.92 459.64 253.92C459.592 257.1 460.751 260.239 459.204 263.833C458.316 265.893 456.134 269.832 450.476 281.365C444.722 293.067 432.619 316.54 425.136 329.606C418.844 340.603 410.149 353.239 404.528 359.536C400.73 363.788 395.652 367.225 395.652 367.225C395.652 367.225 390.024 371.461 389.881 360.996C389.733 350.08 404.794 316.763 404.794 316.763C404.794 316.763 415.35 290.709 416.717 287.567C418.642 283.106 419.907 277.239 416.935 273.607C412.563 268.314 401.262 265.585 396.274 268.069C391.307 270.565 382.382 285.639 377.086 294.235C370.379 305.125 359.509 326.331 347.027 347.33C334.939 367.644 321.463 375.019 321.463 375.019C321.463 375.019 314.209 379.425 308.587 374.307C305.391 371.398 279.141 348.275 341.694 278.705C367.46 250.05 380.93 245.25 394.327 254.653C399.518 258.295 404.623 264.518 411.271 264.699C422.556 265.012 426.252 251.117 426.252 251.117C426.635 248.711 436.516 222.212 394.322 221.745C325.834 220.991 286.644 298.185 286.644 298.185C273.572 248.945 236.52 245.239 236.52 245.239C279.162 215.31 303.483 196.191 334.423 142.782C365.364 89.3693 320.309 47.1968 320.309 47.1968C301.184 24.0997 254.363 0.000351936 175.447 24.0684C92.9936 49.2089 86.1651 69.2462 77.948 93.7711C69.7208 118.312 85.8508 111.982 95.7588 107.193C105.656 102.394 144.506 86.5551 144.506 86.5551C144.506 86.5551 46.0977 389.666 43.1883 404.401C40.5719 417.642 27.601 453.599 66.9926 458.467C66.9926 458.467 73.087 459.381 78.6451 457.358C84.2125 455.346 84.3512 451.73 84.3512 451.73C86.6597 443.09 90.3975 429.488 91.4145 428.134C112.984 493 182.786 474.108 225.985 436.088C257.363 408.479 275.923 370.787 275.923 370.787C302.519 428.681 334.609 398.104 334.609 398.104C347.665 387.613 364.423 363.55 364.423 363.55C374.506 410.783 409.676 391.09 409.676 391.09C426.204 381.263 442.808 351.551 446.074 346.145C464.799 315.239 482.428 277.754 482.428 277.754C482.428 277.754 484.795 277.893 490.113 282.517C494.852 286.626 492.528 293.358 490.549 299.577C488.576 305.788 480.929 321.653 476.945 335.208C472.866 349.093 472.09 362.494 477.546 374.604C482.886 386.45 498.553 396.527 509.275 397.733C522.953 399.283 535.685 388.372 535.685 388.372C537.636 422.783 564.546 434.957 564.546 434.957C599.636 453.221 632.391 395.216 632.391 395.216C654.727 358.739 652.876 349.57 654.796 343.985C657.365 347.319 663.746 350.951 677.148 353.563C673.554 366.39 677.345 378.899 677.345 378.899C677.345 378.899 687.551 404.619 710.611 410.846C735.33 417.532 767.925 392.608 767.925 392.608C767.925 392.608 804.902 456.115 887.648 400.95C970.399 345.79 963.634 329.006 963.31 326.58" fill="white"/>
</svg>
