<svg width="620" height="620" viewBox="0 0 620 620" fill="none" xmlns="http://www.w3.org/2000/svg">
<path d="M310 3C138.799 3 0 141.127 0 311.5C0 481.873 138.799 620 310 620C481.201 620 620 481.873 620 311.5C620 141.127 481.201 3 310 3ZM599.842 311.5C599.842 470.804 470.078 599.94 310 599.94C149.922 599.94 20.1734 470.788 20.1734 311.5C20.1734 152.212 149.937 23.0603 310 23.0603C470.063 23.0603 599.842 152.196 599.842 311.5Z" fill="white"/>
<path d="M310 128.571L133.624 315.039C140.751 366.457 150.933 404.964 183.51 437.378C216.088 469.792 286.846 492.974 313.571 488.796L493.819 311.5C493.819 262.984 474.452 216.455 439.98 182.15C405.507 147.844 358.752 128.571 310 128.571ZM310 484.415C263.932 484.366 219.765 466.132 187.191 433.715C154.616 401.298 136.293 357.345 136.244 311.5H126.181C126.181 360.016 145.547 406.545 180.02 440.851C214.493 475.157 261.248 494.43 310 494.43" fill="white"/>
<path d="M460.249 180.613C464.455 185.124 470.514 192.379 473.926 196.782L536.689 157.126C533.574 153.049 528.573 146.848 524.819 142.476L485.064 168.645L482.369 170.97L484.394 168.04L501.951 133.221L489.488 120.819L454.438 138.291L451.494 140.306L453.846 137.593L480.157 98.0462C475.484 94.1241 471.091 90.543 465.405 86.1713L425.557 148.6C430.604 152.476 437.256 158.134 441.493 162.01L479.02 142.647L481.419 140.895L479.659 143.283L460.249 180.613Z" fill="white"/>
<path d="M317.789 101.519L334.924 63.2896L336.015 59.9101L335.703 63.4446L337.51 114.525C343.523 115.099 349.739 115.921 355.877 116.928L353.088 41.2605C344.51 40.3201 335.963 39.6638 327.447 39.2917L310.561 81.0245L309.953 84.125L309.377 81.0245L292.49 39.2917C283.954 39.6483 275.354 40.3149 266.849 41.2605L264.061 116.928C270.198 115.921 276.414 115.099 282.427 114.525L284.265 63.4601L283.953 59.9256L285.044 63.3051L302.18 101.534L317.789 101.519Z" fill="white"/>
<path d="M179.146 161.808C189.053 151.421 194.724 139.422 184.754 127.951C179.348 121.75 170.298 120.354 162.773 123.424L162.041 123.734L162.275 123.067C163.213 119.656 163.123 116.046 162.015 112.686C160.907 109.326 158.83 106.364 156.044 104.17C154.101 102.647 151.874 101.523 149.491 100.863C147.109 100.203 144.618 100.02 142.164 100.325C132.817 101.271 125.683 107.596 106.179 129.253C100.291 135.779 91.7227 146.073 86.582 152.755L140.139 203.339C157.851 183.76 165.126 176.489 179.146 161.808ZM109.263 149.406C117.799 138.936 126.971 128.996 136.727 119.641C138.278 118.024 140.195 116.801 142.32 116.076C143.181 115.88 144.072 115.858 144.942 116.011C145.811 116.164 146.641 116.488 147.383 116.965C148.125 117.441 148.763 118.061 149.261 118.787C149.758 119.513 150.105 120.33 150.28 121.191C151.121 124.788 148.816 128.23 146.308 131.051C140.591 137.454 119.685 159.235 119.685 159.235L109.263 149.406ZM130.216 169.203C130.216 169.203 150.545 147.809 157.181 140.973C158.95 138.888 161.056 137.112 163.412 135.717C164.513 135.083 165.767 134.76 167.038 134.785C168.31 134.81 169.55 135.18 170.625 135.857C171.705 136.562 172.543 137.577 173.03 138.768C173.517 139.958 173.629 141.268 173.351 142.523C172.665 145.623 170.235 148.507 168.086 150.755L141.074 179.512L130.216 169.203Z" fill="white"/>
<path d="M310 128.571V311.5H126.181C126.181 262.984 145.547 216.456 180.02 182.15C214.493 147.844 261.248 128.571 310 128.571" fill="#0068B1"/>
<path d="M493.819 311.5C493.819 360.016 474.453 406.545 439.98 440.851C405.507 475.157 358.752 494.43 310 494.43V311.5H493.819Z" fill="#0068B1"/>
</svg>
