<svg width="970" height="280" viewBox="0 0 970 280" fill="none" xmlns="http://www.w3.org/2000/svg">
<g clip-path="url(#clip0_111_343)">
<path fill-rule="evenodd" clip-rule="evenodd" d="M154.234 103.832L154.043 97.3548L156.717 101.711C164.07 113.406 168.11 126.877 168.408 140.688C168.408 157.158 162.162 169.348 156.717 178.213L154.043 182.531C154.043 182.531 154.253 175.271 154.253 175.233V104.864V104.539V103.717L154.234 103.832ZM73.7941 155.037V123.206H139.372V156.528H73.775L73.7941 155.037ZM56.2772 176.78C48.3498 164.667 44.6439 153.222 44.6439 140.765C44.8111 127.341 48.8507 114.25 56.2772 103.068L58.9325 98.9979L58.7223 106.106V173.762V175.978L58.8751 180.812L56.2772 176.78ZM139.296 75.2486V108.207H73.775V75.2486C73.775 71.1216 72.3805 70.7777 71.0816 70.7777C70.2591 70.7708 69.4514 70.9959 68.7511 71.4273C56.8109 78.6082 46.938 88.7651 40.0974 100.905C33.2569 113.045 29.683 126.753 29.725 140.688C29.725 168.507 43.9562 193.116 68.7511 208.191C69.4561 208.612 70.2607 208.836 71.0816 208.841C73.5649 208.841 73.775 206.204 73.775 206.185V171.507H139.353V206.262C139.353 207.561 139.697 208.956 143.823 208.956C144.322 208.955 144.812 208.816 145.237 208.554C156.899 201.498 166.542 191.551 173.235 179.675C179.928 167.8 183.444 154.397 183.442 140.765C183.442 112.372 168.809 85.1649 146.192 71.4273C145.493 70.994 144.684 70.7687 143.862 70.7777C142.676 70.7777 141.539 71.2487 140.701 72.0872C139.863 72.9256 139.392 74.0628 139.392 75.2486H139.296ZM40.9953 206.414C32.1101 197.926 25.0335 187.727 20.1913 176.432C15.3492 165.136 12.8416 152.978 12.8194 140.688C12.8396 115.589 22.8157 91.5234 40.5579 73.7738C58.3001 56.0241 82.3586 46.041 107.452 46.0157C119.724 46.04 131.865 48.5456 143.144 53.382C154.424 58.2185 164.609 65.2859 173.088 74.1595C190.536 91.9069 200.318 115.798 200.328 140.688C200.298 165.313 190.502 188.92 173.09 206.328C155.677 223.737 132.072 233.525 107.452 233.546C82.6039 233.549 58.7443 223.809 40.9953 206.414ZM0.00170683 140.688C-0.0784419 154.682 2.66488 168.548 8.06749 181.457C13.4701 194.366 21.4209 206.051 31.4442 215.815C51.7635 235.588 79.0462 246.57 107.395 246.385C135.424 246.375 162.303 235.238 182.127 215.42C201.952 195.601 213.101 168.723 213.127 140.688C213.306 112.329 202.328 85.036 182.563 64.7019C172.809 54.6783 161.136 46.7227 148.242 41.3095C135.347 35.8964 121.494 33.1368 107.51 33.1952C79.0081 33.2104 51.6776 44.5392 31.5203 64.6937C11.3631 84.8481 0.0270106 112.18 0.00170683 140.688ZM394.656 210.713C416.796 210.713 438.744 195.065 438.744 171.258L438.802 171.22C438.802 145.552 417.229 138.522 413.648 137.355C413.324 137.249 413.147 137.191 413.147 137.172C418.965 134.901 423.947 130.902 427.424 125.713C430.9 120.524 432.705 114.395 432.593 108.15C432.593 82.0501 414.121 69.3252 388.658 69.3252H322.43V210.713H394.656ZM395.694 106.777C396.339 108.449 396.623 110.239 396.528 112.028C396.528 118.276 391.561 124.963 382.45 124.963H357.196V98.6536H383.061C384.849 98.5462 386.64 98.8178 388.316 99.4506C389.993 100.083 391.516 101.063 392.788 102.326C394.059 103.588 395.049 105.105 395.694 106.777ZM382.45 153.355C395.076 153.355 401.074 158.992 401.074 167.131V167.208C401.074 177.372 393.605 181.194 383.061 181.194H357.196V153.355H382.45ZM581.592 139.867C581.592 181.404 557.791 213.981 516.644 213.981C475.498 213.981 451.696 181.404 451.696 139.867C451.696 98.3295 475.708 65.7529 516.644 65.7529C557.58 65.7529 581.592 98.5205 581.592 139.867ZM546.807 139.867C546.807 117.723 536.663 99.7433 516.587 99.7433C496.51 99.7433 486.577 117.684 486.577 139.867C486.577 162.05 496.51 180.162 516.587 180.162C536.663 180.162 546.807 162.202 546.807 139.867ZM648.374 213.981C674.869 213.981 703.026 198.944 703.026 167.839H703.122C703.122 135.262 678.766 129.053 658.613 124.83L653.647 123.779C641.67 121.257 632.118 118.143 632.118 109.583C632.118 100.259 641.23 96.4379 649.31 96.4379C654.776 96.55 660.163 97.7732 665.141 100.033C670.12 102.293 674.586 105.542 678.27 109.583L700.218 87.8782C690.247 76.5863 673.895 65.7529 648.642 65.7529C618.842 65.7529 596.282 82.452 596.282 110.214C596.282 135.472 614.582 148.121 636.837 152.802L641.803 153.853C660.294 157.731 667.076 160.521 667.076 169.501C667.076 177.87 659.339 183.487 647.973 183.487C634.105 183.487 621.708 177.449 612.156 165.317L589.616 187.461C602.032 202.288 617.811 213.981 648.374 213.981ZM837.428 183.277C822.949 204.16 809.501 213.981 781.554 213.981C741.821 213.981 716.147 181.003 716.147 139.026C716.147 99.1508 739.338 65.9629 781.974 65.9629C805.355 65.9629 822.089 75.134 836.397 96.6479L807.839 115.64C802.108 105.609 794.582 99.7813 782.165 99.7813C766.444 99.7813 751.334 113.844 751.334 139.026C751.334 167.246 767.686 180.162 783.197 180.162C796.568 180.162 802.872 173.475 808.679 163.864L837.428 183.277ZM932.732 210.618H970.001V69.2876H932.732V121.276H889.905V69.2876H852.846V210.618H889.905V154.885H932.732V210.618Z" fill="white"/>
</g>
<defs>
<clipPath id="clip0_111_343">
<rect width="970" height="280" fill="white"/>
</clipPath>
</defs>
</svg>
