<svg width="1204" height="304" viewBox="0 0 1204 304" fill="none" xmlns="http://www.w3.org/2000/svg">
<g clip-path="url(#clip0_122_24)">
<path d="M1188.76 7.60037L1112.56 296.4H192.563C141.965 296.4 91.4426 293.436 52.1221 255.132C25.8849 229.695 10.2779 195.293 8.44006 158.845C6.60221 122.397 18.6698 86.6069 42.2158 58.6724C66.372 30.4004 104.473 14.7444 142.194 10.2604C165.457 7.90076 188.847 7.01232 212.224 7.60037H1188.76ZM1198.67 0.000372726H212.224C188.541 -0.56158 164.847 0.352199 141.279 2.73637C97.1578 7.60037 59.8948 26.0684 36.4244 53.7324C11.6099 83.1338 -1.11662 120.818 0.806233 159.201C2.72908 197.584 19.1586 233.816 46.7879 260.604C87.8611 300.504 139.222 304 192.563 304H1118.42L1198.74 0.000372726H1198.67Z" fill="white"/>
<path fill-rule="evenodd" clip-rule="evenodd" d="M268.051 189C252.285 237.19 206.958 272 153.5 272C86.9497 272 33 218.05 33 151.5C33 112.579 51.4529 77.9671 80.0874 55.937L65.5374 109.5H65.5001L64.802 112.207L63.5001 117L63.5498 117.063L51.4451 164.006C48.181 176.664 57.7392 189 70.8116 189H268.051ZM107.139 40.2413C121.41 34.2878 137.071 31 153.5 31C205.279 31 249.43 63.6582 266.478 109.5H88.1286L107.139 40.2413Z" fill="white"/>
<path d="M95.5576 139.764C95.5576 139.24 95.7663 138.738 96.1379 138.367C96.5094 137.997 97.0134 137.788 97.5389 137.788H102.34C102.865 137.788 103.369 137.997 103.741 138.367C104.112 138.738 104.321 139.24 104.321 139.764C104.321 140.288 104.112 140.791 103.741 141.162C103.369 141.532 102.865 141.74 102.34 141.74H97.5389C97.0134 141.74 96.5094 141.532 96.1379 141.162C95.7663 140.791 95.5576 140.288 95.5576 139.764V139.764ZM112.094 133.304H116.818C117.344 133.304 117.848 133.096 118.219 132.726C118.591 132.355 118.799 131.852 118.799 131.328C118.799 130.804 118.591 130.302 118.219 129.931C117.848 129.561 117.344 129.352 116.818 129.352H112.094C111.568 129.352 111.064 129.561 110.693 129.931C110.321 130.302 110.112 130.804 110.112 131.328C110.112 131.852 110.321 132.355 110.693 132.726C111.064 133.096 111.568 133.304 112.094 133.304V133.304ZM146.613 127.148H138.993C138.43 127.138 137.87 127.241 137.348 127.451C136.825 127.662 136.351 127.975 135.953 128.372C135.554 128.769 135.24 129.243 135.029 129.764C134.819 130.285 134.715 130.843 134.726 131.404C134.726 132.533 135.175 133.616 135.976 134.414C136.776 135.212 137.861 135.66 138.993 135.66H144.784L147.375 127.224L146.613 127.148ZM117.504 139.764C117.504 140.14 117.579 140.512 117.726 140.858C117.872 141.205 118.087 141.518 118.356 141.78C118.626 142.042 118.946 142.248 119.297 142.385C119.648 142.521 120.023 142.587 120.4 142.576H128.02C128.768 142.576 129.485 142.28 130.014 141.753C130.542 141.225 130.839 140.51 130.839 139.764C130.839 139.019 130.542 138.303 130.014 137.776C129.485 137.249 128.768 136.952 128.02 136.952H120.4C119.645 136.952 118.919 137.246 118.379 137.771C117.838 138.296 117.524 139.012 117.504 139.764V139.764ZM124.134 165.452C124.134 166.581 124.583 167.664 125.383 168.462C126.184 169.26 127.269 169.708 128.401 169.708H134.497L137.164 161.196H128.401C127.282 161.196 126.208 161.634 125.41 162.416C124.612 163.198 124.154 164.261 124.134 165.376V165.452ZM129.544 148.352C129.543 149.475 129.98 150.555 130.762 151.363C131.544 152.171 132.61 152.645 133.735 152.684H139.526L142.041 144.4H133.659C132.61 144.452 131.615 144.88 130.858 145.607C130.102 146.333 129.635 147.309 129.544 148.352ZM106.683 163.552H101.959C101.509 163.642 101.104 163.883 100.814 164.237C100.523 164.59 100.364 165.033 100.364 165.49C100.364 165.948 100.523 166.39 100.814 166.744C101.104 167.097 101.509 167.339 101.959 167.428H106.683C106.971 167.485 107.267 167.478 107.551 167.407C107.835 167.336 108.1 167.203 108.327 167.018C108.553 166.833 108.736 166.599 108.861 166.335C108.986 166.071 109.051 165.783 109.051 165.49C109.051 165.198 108.986 164.91 108.861 164.646C108.736 164.381 108.553 164.148 108.327 163.963C108.1 163.778 107.835 163.645 107.551 163.574C107.267 163.503 106.971 163.495 106.683 163.552V163.552ZM113.77 148.352C113.78 148.097 113.739 147.841 113.647 147.602C113.556 147.363 113.418 147.144 113.24 146.959C113.062 146.775 112.848 146.628 112.612 146.528C112.376 146.428 112.122 146.376 111.865 146.376H106.683C106.168 146.376 105.674 146.581 105.309 146.944C104.945 147.307 104.74 147.8 104.74 148.314C104.74 148.828 104.945 149.321 105.309 149.685C105.674 150.048 106.168 150.252 106.683 150.252H111.56C111.828 150.296 112.103 150.282 112.365 150.211C112.627 150.14 112.871 150.013 113.08 149.841C113.29 149.668 113.459 149.453 113.578 149.209C113.697 148.965 113.763 148.699 113.77 148.428V148.352ZM125.886 156.788C125.867 156.049 125.564 155.345 125.039 154.821C124.514 154.298 123.808 153.996 123.067 153.976H115.446C114.699 153.976 113.982 154.273 113.453 154.8C112.924 155.327 112.627 156.043 112.627 156.788C112.627 157.534 112.924 158.249 113.453 158.777C113.982 159.304 114.699 159.6 115.446 159.6H123.067C123.77 159.566 124.437 159.276 124.942 158.787C125.447 158.297 125.755 157.641 125.81 156.94L125.886 156.788ZM88.4708 133.228H93.1953C93.7208 133.228 94.2247 133.02 94.5963 132.65C94.9678 132.279 95.1766 131.776 95.1766 131.252C95.1766 130.728 94.9678 130.226 94.5963 129.855C94.2247 129.485 93.7208 129.276 93.1953 129.276H88.3946C87.8691 129.276 87.3651 129.485 86.9936 129.855C86.622 130.226 86.4133 130.728 86.4133 131.252C86.4133 131.776 86.622 132.279 86.9936 132.65C87.3651 133.02 87.8691 133.228 88.3946 133.228H88.4708ZM273.643 152C273.632 158.03 273.174 164.05 272.271 170.012H143.565C144.569 169.823 145.478 169.298 146.143 168.525C146.808 167.751 147.189 166.775 147.223 165.756C147.233 165.195 147.13 164.637 146.919 164.116C146.708 163.595 146.394 163.121 145.996 162.724C145.598 162.327 145.123 162.014 144.601 161.803C144.078 161.593 143.519 161.49 142.956 161.5H137.164L139.603 153.064H148.442C149.594 153.064 150.699 152.608 151.514 151.796C152.328 150.983 152.786 149.881 152.786 148.732C152.786 147.583 152.328 146.482 151.514 145.669C150.699 144.857 149.594 144.4 148.442 144.4H142.194L144.784 135.584H153.167C154.285 135.564 155.351 135.107 156.135 134.311C156.919 133.515 157.358 132.444 157.358 131.328C157.362 130.368 157.052 129.433 156.474 128.665C155.896 127.896 155.083 127.337 154.157 127.072H271.128C272.833 135.272 273.676 143.626 273.643 152V152ZM185.629 139.764C185.629 140.389 185.878 140.988 186.321 141.43C186.764 141.872 187.365 142.12 187.991 142.12H193.325C193.666 142.182 194.016 142.168 194.35 142.081C194.685 141.993 194.996 141.832 195.262 141.611C195.527 141.39 195.741 141.113 195.888 140.801C196.034 140.488 196.11 140.147 196.11 139.802C196.11 139.457 196.034 139.116 195.888 138.804C195.741 138.491 195.527 138.215 195.262 137.994C194.996 137.772 194.685 137.612 194.35 137.524C194.016 137.436 193.666 137.423 193.325 137.484H187.991C187.378 137.484 186.788 137.722 186.347 138.147C185.906 138.573 185.649 139.153 185.629 139.764V139.764ZM174.732 131.708C174.732 132.333 174.981 132.932 175.424 133.374C175.867 133.816 176.468 134.064 177.094 134.064H182.428C182.769 134.126 183.119 134.112 183.453 134.025C183.788 133.937 184.099 133.776 184.365 133.555C184.63 133.334 184.844 133.057 184.991 132.745C185.137 132.432 185.213 132.091 185.213 131.746C185.213 131.401 185.137 131.06 184.991 130.748C184.844 130.435 184.63 130.159 184.365 129.938C184.099 129.716 183.788 129.556 183.453 129.468C183.119 129.38 182.769 129.367 182.428 129.428H177.094C176.481 129.428 175.891 129.666 175.45 130.091C175.009 130.517 174.752 131.097 174.732 131.708ZM155.986 139.764C155.986 140.19 156.071 140.611 156.237 141.004C156.402 141.396 156.645 141.751 156.95 142.049C157.256 142.346 157.618 142.58 158.015 142.736C158.412 142.891 158.836 142.967 159.263 142.956H167.645C168.321 142.771 168.918 142.37 169.343 141.814C169.768 141.258 169.998 140.578 169.998 139.878C169.998 139.179 169.768 138.499 169.343 137.943C168.918 137.387 168.321 136.986 167.645 136.8H159.187C158.376 136.798 157.595 137.103 157.001 137.653C156.407 138.203 156.044 138.958 155.986 139.764V139.764ZM162.921 160.056C163.756 160.057 164.559 159.731 165.157 159.148C165.755 158.566 166.101 157.774 166.121 156.94C166.121 156.087 165.787 155.267 165.189 154.656C164.59 154.045 163.776 153.692 162.921 153.672H154.234C153.365 153.672 152.531 154.017 151.917 154.63C151.302 155.242 150.957 156.074 150.957 156.94C150.967 157.36 151.059 157.773 151.229 158.156C151.399 158.54 151.644 158.886 151.948 159.175C152.252 159.465 152.611 159.692 153.003 159.843C153.395 159.994 153.813 160.066 154.234 160.056H162.921ZM174.732 165.072C174.712 164.461 174.455 163.881 174.014 163.455C173.573 163.03 172.983 162.792 172.37 162.792H167.112C166.498 162.792 165.909 163.03 165.468 163.455C165.027 163.881 164.769 164.461 164.75 165.072C164.75 165.697 164.998 166.296 165.441 166.738C165.884 167.18 166.485 167.428 167.112 167.428H172.37C172.99 167.409 173.58 167.155 174.019 166.717C174.458 166.279 174.713 165.691 174.732 165.072V165.072ZM179.761 148.352C179.761 147.728 179.513 147.128 179.069 146.686C178.626 146.245 178.026 145.996 177.399 145.996H172.065C171.752 145.986 171.44 146.039 171.149 146.154C170.857 146.269 170.592 146.442 170.371 146.663C170.149 146.884 169.976 147.148 169.861 147.438C169.746 147.729 169.692 148.04 169.703 148.352C169.691 148.661 169.745 148.969 169.861 149.256C169.977 149.543 170.151 149.802 170.374 150.018C170.597 150.233 170.863 150.398 171.154 150.504C171.445 150.61 171.756 150.654 172.065 150.632H177.399C178.005 150.632 178.587 150.392 179.016 149.965C179.444 149.537 179.685 148.957 179.685 148.352H179.761ZM190.506 156.94C190.517 156.628 190.463 156.317 190.348 156.026C190.233 155.736 190.059 155.472 189.838 155.251C189.616 155.03 189.352 154.857 189.06 154.742C188.769 154.627 188.457 154.574 188.144 154.584H182.886C182.219 154.584 181.579 154.849 181.108 155.319C180.636 155.789 180.371 156.427 180.371 157.092C180.371 157.758 180.636 158.395 181.108 158.866C181.579 159.336 182.219 159.6 182.886 159.6H188.22C188.551 159.592 188.877 159.515 189.176 159.374C189.475 159.232 189.742 159.029 189.957 158.778C190.173 158.527 190.333 158.234 190.428 157.918C190.522 157.601 190.549 157.268 190.506 156.94V156.94ZM201.403 165.148C201.403 164.842 201.342 164.54 201.222 164.258C201.102 163.976 200.927 163.721 200.707 163.509C200.486 163.296 200.225 163.13 199.939 163.02C199.653 162.91 199.347 162.858 199.041 162.868H193.706C193.4 162.858 193.094 162.91 192.808 163.02C192.522 163.13 192.261 163.296 192.04 163.509C191.82 163.721 191.645 163.976 191.525 164.258C191.406 164.54 191.344 164.842 191.344 165.148C191.344 165.773 191.593 166.372 192.036 166.814C192.479 167.256 193.08 167.504 193.706 167.504H199.041C199.364 167.515 199.686 167.459 199.986 167.341C200.287 167.222 200.56 167.044 200.788 166.816C201.017 166.588 201.196 166.315 201.315 166.015C201.434 165.716 201.49 165.395 201.479 165.072L201.403 165.148ZM206.432 148.428C206.432 147.804 206.183 147.204 205.74 146.762C205.297 146.321 204.697 146.072 204.07 146.072H198.736C198.123 146.092 197.541 146.349 197.114 146.789C196.688 147.228 196.449 147.816 196.45 148.428C196.45 149.033 196.691 149.613 197.119 150.041C197.548 150.468 198.13 150.708 198.736 150.708H204.07C204.389 150.73 204.71 150.684 205.01 150.574C205.311 150.465 205.585 150.293 205.814 150.071C206.044 149.849 206.225 149.581 206.344 149.285C206.464 148.989 206.52 148.671 206.508 148.352L206.432 148.428ZM211.385 131.784C211.396 131.479 211.344 131.174 211.234 130.889C211.123 130.603 210.957 130.343 210.743 130.123C210.53 129.903 210.275 129.728 209.992 129.609C209.71 129.49 209.406 129.428 209.099 129.428H203.765C203.221 129.527 202.729 129.813 202.374 130.237C202.02 130.66 201.825 131.195 201.825 131.746C201.825 132.298 202.02 132.832 202.374 133.256C202.729 133.68 203.221 133.966 203.765 134.064H209.099C209.412 134.075 209.724 134.021 210.016 133.907C210.307 133.792 210.572 133.619 210.793 133.398C211.015 133.177 211.189 132.913 211.303 132.622C211.418 132.332 211.472 132.021 211.462 131.708L211.385 131.784ZM82.9842 163.552H78.2596C77.9994 163.542 77.7397 163.583 77.4954 163.673C77.2511 163.763 77.027 163.9 76.8359 164.077C76.6448 164.253 76.4905 164.466 76.3817 164.702C76.273 164.938 76.212 165.193 76.2021 165.452C76.2219 165.983 76.4473 166.486 76.8311 166.854C77.2148 167.223 77.7269 167.429 78.2596 167.428H82.9842C83.4963 167.409 83.9809 167.192 84.3361 166.823C84.6914 166.455 84.8896 165.964 84.8892 165.452C84.8892 164.948 84.6885 164.465 84.3313 164.109C83.974 163.753 83.4894 163.552 82.9842 163.552ZM97.1578 154.888H92.4333C91.9838 154.978 91.5791 155.22 91.2884 155.573C90.9976 155.926 90.8387 156.369 90.8387 156.826C90.8387 157.284 90.9976 157.727 91.2884 158.08C91.5791 158.433 91.9838 158.675 92.4333 158.764H97.1578C97.4452 158.821 97.7416 158.814 98.0258 158.743C98.31 158.672 98.5749 158.539 98.8014 158.354C99.0278 158.169 99.2103 157.935 99.3356 157.671C99.4608 157.407 99.5258 157.119 99.5258 156.826C99.5258 156.534 99.4608 156.246 99.3356 155.981C99.2103 155.717 99.0278 155.484 98.8014 155.299C98.5749 155.113 98.31 154.981 98.0258 154.91C97.7416 154.839 97.4452 154.831 97.1578 154.888V154.888ZM88.0897 146.528H83.289C82.7736 146.528 82.2794 146.733 81.915 147.096C81.5505 147.459 81.3458 147.952 81.3458 148.466C81.3458 148.98 81.5505 149.473 81.915 149.837C82.2794 150.2 82.7736 150.404 83.289 150.404H88.0897C88.6051 150.404 89.0994 150.2 89.4638 149.837C89.8282 149.473 90.0329 148.98 90.0329 148.466C90.0329 147.952 89.8282 147.459 89.4638 147.096C89.0994 146.733 88.6051 146.528 88.0897 146.528ZM1048.24 205.2C1047.35 208.708 1046.84 212.3 1046.72 215.916C1046.72 224.884 1053.58 226.708 1061.12 226.708H1076.36L1070.34 252.32H1040.47C1033.28 252.627 1026.1 251.728 1019.21 249.66C1013.98 247.535 1009.55 243.822 1006.56 239.047C1003.56 234.273 1002.15 228.68 1002.52 223.06C1002.71 216.824 1003.6 210.628 1005.19 204.592C1007.02 196.992 1047.33 52.5924 1047.33 52.5924L1093.05 43.9284C1093.05 43.9284 1049.38 198.588 1047.94 205.2H1048.24ZM796.773 89.7564H764.768L777.265 43.7004L731.544 51.3004L720.876 89.7564H704.949L697.786 115.14H713.636C713.636 115.14 689.099 204.288 687.27 211.736C685.903 216.699 685.085 221.796 684.832 226.936C684.605 232.374 686.272 237.721 689.55 242.072C692.829 246.422 697.516 249.506 702.816 250.8C708.705 252.18 714.753 252.767 720.799 252.548H752.5L759.586 226.936H743.584C736.421 226.936 729.791 226.328 729.791 217.968C729.953 215.407 730.335 212.864 730.934 210.368C731.849 206.72 757.3 115.216 757.3 115.216H789.229L796.773 89.7564ZM693.443 88.7684C682.14 85.5737 670.442 83.9874 658.694 84.0564C624.937 84.0564 589.121 102.22 588.817 140.144C588.817 174.496 630.347 185.744 630.118 205.504C630.118 221.312 615.868 227.316 602.152 227.316C590.8 227.319 579.499 225.811 568.547 222.832L560.926 249.052C575.762 253.461 591.168 255.663 606.648 255.588C640.787 255.588 672.335 236.208 672.716 199.196C673.097 162.184 633.624 154.736 633.776 133.836C633.776 117.648 650.16 112.936 663.647 112.936C671.068 112.881 678.474 113.594 685.746 115.064L693.443 88.7684ZM453.024 81.1684C453.024 51.6044 432.982 41.1924 406.007 41.1924C392.961 41.2714 380.1 44.2852 368.384 50.0093C356.668 55.7333 346.398 64.0201 338.339 74.2524C314.03 103.208 293.989 164.464 293.989 201.704C293.989 240.768 310.144 259.616 349.922 259.616C405.321 259.616 418.504 214.776 431.687 170.316L383.832 179.284C379.945 191.824 370.344 227.924 353.351 227.924C343.216 227.924 341.082 218.424 341.082 210.064C341.082 184.984 356.323 137.18 365.01 113.316C369.811 100.776 382.079 71.8204 398.844 71.8204C400.352 71.7941 401.842 72.1498 403.175 72.8543C404.507 73.5588 405.639 74.5889 406.464 75.8484C407.95 78.3736 408.641 81.2866 408.445 84.2084C408.36 86.914 408.054 89.6082 407.531 92.2644C406.388 98.1924 397.624 129.732 397.624 129.732L443.346 121.676C448.272 108.639 451.499 95.0253 452.947 81.1684H453.024ZM897.056 88.7684C888.268 85.2996 878.831 83.7699 869.394 84.2844C849.405 83.8934 829.585 87.9976 811.404 96.2924L767.969 252.32H811.709L848.972 116.508C855.33 114.258 862.039 113.152 868.785 113.24C874.424 113.24 877.624 113.24 880.139 113.62L897.056 88.7684ZM571.9 148.2L544.162 248.748C524.618 253.935 504.491 256.617 484.267 256.728C458.51 256.728 433.135 244.264 433.135 215.232C433.135 164.844 487.62 150.48 528.312 146.832C530.734 140.32 532.147 133.477 532.503 126.54C532.503 115.216 522.597 112.48 513.071 112.48C497.956 112.943 482.978 115.501 468.569 120.08L475.732 92.6444C491.639 86.8173 508.471 83.9078 525.416 84.0564C549.953 84.0564 576.243 91.6564 576.243 121.068C576.003 130.264 574.543 139.387 571.9 148.2V148.2ZM478.247 209.684C478.247 219.792 483.047 227.848 494.097 227.848C498.207 227.991 502.321 227.685 506.365 226.936L521.073 173.736C500.726 175.94 478.247 185.82 478.247 209.684V209.684ZM991.395 185.516C977.373 224.58 954.284 256.196 908.867 256.196C877.396 256.196 859.488 240.996 859.488 208.696C859.919 194.051 862.645 179.562 867.565 165.756C880.367 128.212 908.258 84.2084 952.76 84.2084C986.06 84.2084 1002.14 101.004 1002.14 133.76C1001.31 151.461 997.707 168.924 991.471 185.516H991.395ZM951.007 112.632C948.839 112.674 946.704 113.177 944.746 114.108C942.788 115.038 941.052 116.375 939.653 118.028C928.223 129.2 915.116 163.628 908.562 189.696C906.023 198.561 904.54 207.693 904.143 216.904C904.143 223.972 907.419 227.924 912.982 227.924C917.763 227.403 922.158 225.062 925.251 221.388C931.708 213.57 936.714 204.665 940.034 195.092C949.81 172.211 956.251 148.051 959.161 123.348C959.161 117.952 957.484 112.632 951.007 112.632V112.632Z" fill="white"/>
</g>
<defs>
<clipPath id="clip0_122_24">
<rect width="1204" height="304" fill="white"/>
</clipPath>
</defs>
</svg>
