<svg width="996" height="443" viewBox="0 0 996 443" fill="none" xmlns="http://www.w3.org/2000/svg">
<path fill-rule="evenodd" clip-rule="evenodd" d="M173.072 357.278H130.299V300.129H100.457V442.981H130.299V379.075H173.053L173.059 442.981H202.913V300.129H173.072V357.278V357.278ZM885.096 300.129V321.932H925.634V442.981H955.475V321.932H996V300.129H885.096V300.129ZM727.535 300.129H697.694V442.981H783.053V421.172H727.523L727.535 300.129V300.129ZM386.063 419.219C385.626 420.704 384.527 421.109 382.953 421.109C381.442 421.109 380.28 420.523 379.806 419.151L348.385 300.135H313.573L349.677 430.448C351.432 439.026 357.152 443 365.251 443H392.781C400.88 443 406.119 438.87 408.148 430.654L443.385 300.135H417.028L386.063 419.219V419.219ZM0.0187343 322.443L0 420.66C0 436.549 8.16122 442.994 22.2857 442.994L89.0179 442.981V421.134H40.7562C32.4763 421.134 29.8225 419.126 29.8225 410.217L29.86 332.836C29.86 324.234 31.8519 321.932 40.7749 321.932H89.0179V300.135H22.3481C7.09346 300.129 0.0187343 308.001 0.0187343 322.443V322.443ZM250.669 410.217L250.681 379.075H309.989V357.278H250.719L250.712 332.836C250.712 324.564 252.542 321.932 261.634 321.932H310.62V300.135L243.182 300.16C227.765 300.16 220.871 307.845 220.871 322.443L220.853 420.66C220.853 435.745 228.208 442.994 243.144 442.994L316.833 442.981V421.134H261.609C253.323 421.134 250.669 419.282 250.669 410.217V410.217ZM530.467 382.619C544.273 382.619 552.759 376.343 552.759 360.285L552.734 322.443C552.734 307.527 545.697 300.135 530.429 300.135H447.262V442.981H477.104V321.932H511.971C521.213 321.932 522.886 324.564 522.886 332.836L522.924 350.235C522.924 358.67 520.595 361.165 511.996 361.165L495.693 361.177C489.361 361.177 485.802 364.989 485.802 371.146C485.802 374.24 487.375 376.48 488.618 378.701L526.289 442.988H563.218L523.767 382.675L530.467 382.619V382.619ZM657.3 300.153H591.554C575.813 300.153 569.25 308.157 569.25 322.437L569.225 420.654C569.225 436.874 577.873 442.988 591.517 442.988H657.312C671.605 442.988 679.629 436.225 679.629 420.654L679.604 322.437C679.604 307.845 672.717 300.153 657.3 300.153V300.153ZM638.873 421.134H609.981C601.383 421.134 599.054 418.808 599.054 410.217V332.836C599.054 325.369 600.078 321.932 609.981 321.932H638.886C646.678 321.932 649.776 323.273 649.776 332.836L649.801 410.217C649.801 419.438 646.984 421.134 638.873 421.134ZM818.664 410.217L818.676 379.075H877.984V357.278H818.713V332.836C818.713 324.564 820.543 321.932 829.628 321.932H878.608V300.135L811.177 300.16C795.747 300.16 788.86 307.845 788.86 322.443L788.847 420.66C788.847 435.745 796.203 442.994 811.139 442.994L884.828 442.981V421.134H829.603C821.324 421.134 818.664 419.282 818.664 410.217V410.217ZM759.162 40.6992L600.228 40.7179C596.169 40.7179 593.509 39.5077 593.509 33.9368V10.3869C593.509 3.59331 589.85 0 583.206 0L401.267 0.00623495C394.467 0.00623495 390.971 3.83038 390.971 10.3245L390.958 33.8744C390.958 38.8464 388.61 40.6555 384.239 40.6555L280.085 40.6867C272.118 40.6867 267.453 44.4859 265.049 49.4766L214.34 148.511C213.667 149.809 213.312 151.248 213.303 152.709C213.303 156.633 215.876 161.693 222.976 161.693L384.227 161.674C389.203 161.674 390.946 163.932 390.946 168.455L390.933 192.005C390.933 199.098 395.061 202.329 401.255 202.329L492.233 202.323L583.187 202.317C589.381 202.317 593.503 199.323 593.503 192.067L593.49 168.517C593.49 163.701 595.538 161.736 600.209 161.736L701.322 161.711C708.297 161.711 713.311 159.877 716.807 153.389L766.942 55.5216C768.041 53.4068 768.81 52.2028 768.81 49.6887C768.828 43.0386 763.09 40.6992 759.162 40.6992V40.6992ZM719.112 80.1507L694.94 127.382C693.429 130.12 690.732 130.239 688.84 130.239H568.856C563.88 130.239 562.063 132.497 562.063 137.014L562.038 164.182C562.038 168.698 560.065 170.857 555.232 170.857H492.246L429.217 170.869C425.002 170.869 422.423 169.391 422.423 164.113L422.41 136.945C422.41 131.979 420.131 130.207 415.617 130.207H268.521C264.906 130.207 262.408 127.931 262.408 124.774C262.408 123.863 262.639 122.996 263.039 122.241L287.21 75.0103C288.134 73.3322 289.652 72.1843 293.304 72.1843L415.617 72.1906C419.838 72.1906 422.46 70.4937 422.46 65.372L422.454 38.2101C422.454 33.3878 424.558 31.4539 429.229 31.4539L555.257 31.4477C559.784 31.4477 562.038 33.4564 562.038 38.2725L562.025 65.4344C562.025 70.1007 564.198 72.1719 568.869 72.1719H713.635C718.244 72.1719 719.748 75.2037 719.748 77.6055C719.738 78.4919 719.52 79.3635 719.112 80.1507V80.1507Z" fill="white"/>
</svg>
