<svg width="1185" height="280" viewBox="0 0 1185 280" fill="none" xmlns="http://www.w3.org/2000/svg">
<g clip-path="url(#clip0_50_265)">
<path d="M1186 161.941C1186 147.662 1178.06 141.323 1162.19 138.147C1146.34 134.983 1136.83 133.384 1136.83 122.293C1136.83 114.365 1143.16 109.602 1154.28 109.602C1168.56 109.602 1173.31 115.942 1173.31 123.88L1174.9 125.468H1181.24L1182.82 123.88C1182.82 108.026 1170.13 101.675 1154.27 101.675C1136.81 101.675 1127.31 111.19 1127.31 122.304C1127.31 134.995 1136.83 141.334 1152.68 144.51C1168.55 147.685 1176.47 149.273 1176.47 161.964C1176.47 169.891 1171.72 176.242 1155.86 176.242C1141.58 176.242 1135.24 168.303 1135.24 158.788L1133.65 157.201H1127.31L1125.72 158.788C1125.72 173.067 1136.83 184.169 1155.86 184.169C1176.47 184.146 1186 174.631 1186 161.941ZM1117.8 146.086L1119.37 144.498V139.747C1119.37 117.541 1106.68 101.675 1084.48 101.675C1062.27 101.675 1049.58 117.541 1049.58 139.747V142.91C1049.58 165.116 1060.68 184.146 1086.06 184.146C1108.27 184.146 1116.2 169.868 1117.78 160.353L1116.2 158.765H1109.86L1108.27 160.353C1105.09 169.868 1098.75 176.219 1086.06 176.219C1065.43 176.219 1059.09 157.189 1059.09 147.674L1060.68 146.086H1117.8ZM1108.28 138.147H1060.69L1059.11 136.559C1059.11 125.457 1065.45 109.602 1084.49 109.602C1103.52 109.602 1109.87 125.457 1109.87 136.559L1108.28 138.147ZM1038.49 180.971V104.827L1036.9 103.239H1030.56L1028.97 104.827V180.971L1030.56 182.558H1036.9L1038.49 180.971ZM1038.49 88.9725V79.4575L1036.9 77.8697H1030.56L1028.97 79.4575V88.9725L1030.56 90.5603H1036.9L1038.49 88.9725ZM978.222 176.219C962.356 176.219 952.841 165.116 952.841 142.91C952.841 120.705 962.356 109.602 978.222 109.602C994.077 109.602 1003.59 120.705 1003.59 142.91C1003.59 165.104 994.077 176.219 978.222 176.219ZM1003.59 171.456C1003.59 192.073 998.828 207.94 979.798 207.94C965.52 207.94 960.768 201.6 959.18 193.661L957.593 192.073H951.253L949.665 193.661C951.253 206.352 960.768 215.867 979.798 215.867C1000.43 215.867 1013.11 203.176 1013.11 171.456V104.827L1011.52 103.239H1006.76L1005.17 104.827L1003.58 114.354H1001.99C998.828 108.014 990.889 101.663 976.611 101.663C954.405 101.663 943.303 119.117 943.303 142.91C943.303 166.692 954.405 184.146 976.611 184.146C990.889 184.146 998.817 177.807 1001.99 171.456H1003.59V171.456ZM900.503 109.602C916.357 109.602 927.46 122.293 927.46 142.91C927.46 163.528 916.357 176.219 900.503 176.219C884.636 176.219 873.534 163.528 873.534 142.91C873.534 122.293 884.636 109.602 900.503 109.602ZM900.503 184.146C921.12 184.146 936.975 169.868 936.975 142.91C936.975 115.953 921.12 101.663 900.503 101.663C879.873 101.663 864.019 115.941 864.019 142.91C864.019 169.868 879.885 184.146 900.503 184.146ZM852.916 180.971V73.1181L851.328 71.5303H844.988L843.401 73.1181V180.982L844.988 182.57H851.328L852.916 180.971ZM795.826 109.602C811.68 109.602 822.783 122.293 822.783 142.91C822.783 163.528 811.68 176.219 795.826 176.219C779.959 176.219 768.857 163.528 768.857 142.91C768.857 122.293 779.959 109.602 795.826 109.602ZM795.826 184.146C816.443 184.146 832.31 169.868 832.31 142.91C832.31 115.953 816.443 101.663 795.826 101.663C775.208 101.663 759.342 115.941 759.342 142.91C759.342 169.868 775.208 184.146 795.826 184.146ZM749.827 180.971V133.384C749.827 112.766 738.724 101.663 721.282 101.663C710.179 101.663 700.652 106.426 695.9 114.354H694.313L692.736 104.827L691.149 103.239H686.385L684.798 104.827V180.971L686.385 182.558H692.736L694.313 180.971V138.147C694.313 120.693 702.251 109.602 719.694 109.602C732.384 109.602 740.312 117.529 740.312 133.384V180.971L741.899 182.558H748.239L749.827 180.971ZM668.931 180.971V133.384C668.931 112.766 657.829 101.663 640.386 101.663C629.283 101.663 619.768 106.426 615.005 114.354H613.417V73.1181L611.83 71.5303H605.49L603.902 73.1181V180.982L605.49 182.57H611.83L613.417 180.982V138.147C613.417 120.693 621.356 109.602 638.798 109.602C651.489 109.602 659.416 117.529 659.416 133.384V180.971L661.004 182.558H667.355L668.931 180.971ZM532.534 142.91C532.534 120.705 543.637 109.602 559.491 109.602C575.346 109.602 581.697 119.117 583.273 128.632L584.861 130.22H591.212L592.799 128.632C591.212 112.778 578.521 101.675 559.491 101.675C538.873 101.675 523.019 114.365 523.019 142.922C523.019 171.467 538.873 184.158 559.491 184.158C578.521 184.158 591.212 173.055 592.799 157.201L591.212 155.613H584.861L583.273 157.201C581.685 166.716 575.346 176.231 559.491 176.231C543.625 176.219 532.534 165.104 532.534 142.91ZM515.08 146.086L516.668 144.498V139.747C516.668 117.541 503.977 101.675 481.76 101.675C459.566 101.675 446.864 117.541 446.864 139.747V142.91C446.864 165.116 457.966 184.146 483.348 184.146C505.553 184.146 513.48 169.868 515.068 160.353L513.48 158.765H507.141L505.553 160.353C502.389 169.868 496.038 176.219 483.348 176.219C462.73 176.219 456.39 157.189 456.39 147.674L457.978 146.086H515.08ZM505.565 138.147H457.978L456.39 136.559C456.39 125.457 462.73 109.602 481.76 109.602C500.801 109.602 507.141 125.457 507.141 136.559L505.565 138.147ZM462.823 77.8697V73.1181L461.235 71.5303H378.752L377.165 73.1181V77.8814L378.752 79.4692H413.649L415.236 81.057V180.982L416.824 182.57H423.164L424.751 180.982V81.0453L426.339 79.4575H461.235L462.823 77.8697Z" fill="white"/>
<path d="M377.165 160.493V182.558H305.539V71.5303H330.757V160.493H377.165ZM46.0067 182.558C71.8432 182.558 93.5584 164.906 99.7461 141.019L162.557 190.089L225.333 141.043V182.558H296.958V160.493H250.551V71.5303H225.333V113.046L165.125 160.084L151.664 149.565L180.478 127.044L211.86 102.527L193.951 88.5172L133.732 135.567L120.271 125.048L180.478 78.0099L162.557 64L99.7461 113.07C93.5584 89.1827 71.8432 71.5303 46.0067 71.5303H1V182.558H46.0067ZM26.2177 160.493V93.5958H46.0067C62.7368 93.5958 76.303 108.575 76.303 127.044C76.303 145.514 62.7368 160.493 46.0067 160.493H26.2177Z" fill="white"/>
</g>
<defs>
<clipPath id="clip0_50_265">
<rect width="1185" height="280" fill="white"/>
</clipPath>
</defs>
</svg>
