<svg width="936" height="280" viewBox="0 0 936 280" fill="none" xmlns="http://www.w3.org/2000/svg">
<path fill-rule="evenodd" clip-rule="evenodd" d="M203.22 0.245434C203.086 0.380108 202.976 15.8507 202.976 34.6242V68.7578L183.502 68.7137C166.846 68.6761 163.447 68.76 160.007 69.2951C144.603 71.6905 131.281 78.4198 120.531 89.2364C102.738 107.14 95.907 132.849 102.42 157.404C107.355 176.01 120.095 192.072 137.18 201.225C157.035 211.861 181.277 212.081 201.55 201.809C219.237 192.847 232.867 175.868 237.721 156.752C239.819 148.485 239.668 154.488 239.803 74.0524L239.927 0H221.695C211.668 0 203.354 0.110391 203.22 0.245434ZM462.987 69.22C448.826 70.6469 436.655 76.0917 428.419 84.6832C421.551 91.8489 418.657 98.0296 417.572 107.851C416.127 120.925 421.983 132.773 433.732 140.547C442.033 146.039 449.769 148.957 472.678 155.24C488.938 159.699 491.477 160.698 494.173 163.701C498.278 168.273 494.398 174.162 485.809 176.4C475.545 179.073 460.729 177.038 445.727 170.895C441.092 168.997 438.177 167.544 434.522 165.312C433.042 164.408 431.702 163.809 431.544 163.982C431.386 164.154 427.456 169.58 422.81 176.04C415.863 185.697 414.44 187.879 414.803 188.319C415.046 188.613 417.438 190.316 420.118 192.104C432.409 200.297 446.474 205.656 463.596 208.669C469.842 209.768 481.237 209.865 487.306 208.871C500.177 206.763 509.314 202.818 517.666 195.764C523.991 190.422 527.82 184.065 530.341 174.719C531.053 172.083 531.168 170.755 531.168 165.215C531.167 158.949 531.135 158.682 529.998 155.28C528.279 150.135 526.015 146.526 521.898 142.371C513.168 133.559 504.753 129.857 473.471 121.067C457.761 116.653 452.754 113.913 452.749 109.73C452.742 103.093 464.276 99.5265 479.812 101.361C488.129 102.343 496.475 104.45 504.002 107.467C507.581 108.902 507.747 108.934 508.353 108.294C508.699 107.928 511.143 104.649 513.785 101.006C516.426 97.3629 520.082 92.3442 521.909 89.8531C525.771 84.5865 525.821 85.1016 521.166 82.1012C512.836 76.7316 501.905 72.7193 489.866 70.6127C480.752 69.018 470.344 68.4785 462.987 69.22ZM601.576 69.3697C585.841 71.8388 572.756 78.6152 561.703 90.0191C553.407 98.5782 547.361 109.083 544.336 120.193C535.862 151.322 549.31 184.12 577.129 200.175C586.978 205.86 597.88 208.891 609.815 209.264C629.498 209.879 647.824 202.372 661.782 187.976C680.086 169.099 686.26 141.994 677.99 116.828C669.693 91.58 647.738 73.1211 621.518 69.3488C616.952 68.6916 605.822 68.7034 601.576 69.3697ZM756.697 69.4021C728.776 73.2168 705.541 94.0045 698.547 121.428C696.356 130.017 696.303 131.174 696.303 170.584V206.427L699.412 206.457C701.121 206.474 704.413 206.488 706.726 206.488C709.039 206.488 715.95 206.474 722.085 206.457L733.239 206.427V170.903C733.239 139.885 733.312 135.019 733.819 132.543C736.288 120.491 745.188 110.704 756.826 107.246C760.895 106.037 767.282 105.641 771.546 106.332C778.413 107.445 784.348 110.59 789.559 115.876C793.576 119.951 795.832 123.632 797.7 129.155L798.882 132.65L798.985 169.539L799.088 206.427H817.544H836L835.997 170.643C835.995 149.149 835.848 133.536 835.627 131.547C833.388 111.359 822.302 92.5297 806.112 81.4165C796.348 74.7144 786.456 70.8328 775.351 69.3455C770.488 68.6938 761.683 68.7207 756.697 69.4021ZM259.293 107.406C259.293 129.959 259.437 144.837 259.678 147.197C261.907 169.056 273.952 188.078 292.839 199.566C303.408 205.995 318.317 209.855 330.239 209.25C336.854 208.914 345.144 206.646 351.632 203.397C354.458 201.983 359.424 198.674 360.564 197.446C362.256 195.625 362.261 195.677 361.281 204.955C361.078 206.878 360.496 210.342 359.988 212.653C355.882 231.332 345.481 242.943 329.875 246.267C324.914 247.324 316.395 247.316 311.588 246.251C304.216 244.616 295.324 240.929 287.915 236.435C286.075 235.32 284.409 234.362 284.21 234.307C283.902 234.222 265.899 258.526 265.882 259.049C265.879 259.153 266.987 260.08 268.344 261.111C289.954 277.512 316.286 283.57 341.576 277.956C351.167 275.826 360.716 271.748 367.54 266.866C376.234 260.647 383.963 250.762 388.514 240.043C393.695 227.841 396.688 213.125 398.308 191.892C398.59 188.198 398.78 167.363 398.884 128.879L399.039 71.3847H380.555H362.072L361.969 108.641L361.866 145.897L361.02 148.841C358.811 156.525 354.105 163.135 347.84 167.352C341.534 171.596 336.562 173.102 328.959 173.073C322.878 173.05 319.802 172.35 314.697 169.828C305.919 165.492 299.972 158.196 297.106 148.247C296.47 146.041 296.422 143.616 296.319 108.641L296.209 71.3847H277.751H259.293V107.406ZM618.409 106.157C625.309 107.676 631.124 110.952 635.8 115.955C646.378 127.27 647.939 144.447 639.557 157.293C635.002 164.275 628.367 169.115 620.017 171.549C617.538 172.272 616.328 172.387 611.461 172.366C606.389 172.344 605.455 172.237 602.579 171.352C590.071 167.499 581.453 158.113 578.873 145.534C577.653 139.587 578.041 134.215 580.135 128.051C582.937 119.806 588.434 113.358 596.102 109.322C603.104 105.636 610.973 104.52 618.409 106.157ZM202.887 125.567C202.766 144.927 202.738 145.606 201.958 148.092C197.901 161.02 188.16 169.767 175.307 172.022C169.634 173.018 164.074 172.486 158.414 170.408C153.606 168.642 150.51 166.589 146.475 162.491C142.364 158.315 140.342 155.182 138.656 150.377C137.201 146.23 136.732 143.427 136.739 138.934C136.764 122.874 147.57 109.656 163.522 106.174C165.329 105.779 170.059 105.657 184.434 105.634L203.011 105.605L202.887 125.567Z" fill="white"/>
</svg>
