<svg width="1185" height="280" viewBox="0 0 1185 280" fill="none" xmlns="http://www.w3.org/2000/svg">
<g clip-path="url(#clip0_50_254)">
<path fill-rule="evenodd" clip-rule="evenodd" d="M217.391 95.0257V211.129H233.826V95.0257H273.817V87.3586H177.4V95.0257H217.391ZM363.113 73.1195V66H290.252V73.1195H363.113ZM290.8 211.129H364.209V203.461H307.235V148.148H358.73V141.029H307.235V95.5734H363.113V87.9062H290.8V211.129ZM387.217 211.129H460.626V203.461H403.652V148.148H455.696V141.029H403.652V95.5734H460.078V87.9062H387.217V211.129ZM1 211.129H74.4087V203.461H16.887V148.148H68.3826V141.029H16.887V95.5734H73.313V87.9062H1V211.129ZM992.565 211.129H1065.97V203.461H1009V148.148H1060.5V141.029H1009V95.5734H1064.88V88.4539H992.565V211.129ZM534.035 211.129H606.896V202.914H550.47V87.9062H534.583V211.129H534.035ZM89.7478 205.652C100.157 211.129 113.304 214.415 125.357 214.415C151.104 214.415 174.661 199.628 174.661 174.436C174.661 132.266 103.991 146.505 103.991 114.194C103.991 102.145 115.496 91.7398 132.478 91.7398C150.009 91.7398 160.965 100.502 165.896 104.336V92.8351C159.322 89.5492 147.27 84.6203 131.93 84.6203C110.017 84.6203 90.2956 97.764 90.2956 118.027C90.2956 162.387 160.417 146.505 160.417 179.365C160.417 193.056 147.817 206.747 126.452 206.747C110.017 206.747 96.8695 197.985 90.8435 194.151V205.652H89.7478ZM612.374 211.129L664.417 86.2632H677.565L697.835 134.457L730.704 211.129H712.078L692.904 164.03H643.052L623.878 211.129H612.374ZM690.165 156.911C684.687 143.767 675.922 122.956 667.704 102.145C659.487 123.504 648.53 150.887 645.791 156.911H690.165ZM739.47 170.054C739.47 197.985 755.904 213.867 788.774 213.867C824.383 213.867 838.078 193.056 838.078 171.15V87.9062H828.217V171.15C828.217 193.604 812.878 206.747 790.417 206.747C770.148 206.747 755.356 196.342 755.356 173.34V87.9062H739.47V170.054ZM1089.53 87.9062H1134.45C1158.01 87.3585 1177.18 96.6687 1177.18 119.67C1177.18 142.124 1151.43 149.791 1145.41 150.887L1185.95 211.676H1167.87L1130.07 152.529H1106.51V211.676H1090.08V87.9062H1089.53ZM1125.14 145.41C1145.41 145.958 1161.3 137.743 1161.3 119.67C1161.3 103.241 1151.43 94.4781 1133.36 95.0257H1105.97V145.958H1125.14V145.41ZM862.73 211.129V87.9062H910.391C949.835 87.3585 972.843 109.812 972.843 148.148C972.843 194.151 941.07 212.224 904.365 211.676H862.73V211.129ZM879.165 204.009H901.078C934.496 204.557 955.861 189.77 955.861 149.791C955.861 113.098 938.33 93.9304 908.2 94.4781H879.165V204.009Z" fill="white"/>
</g>
<defs>
<clipPath id="clip0_50_254">
<rect width="1185" height="280" fill="white"/>
</clipPath>
</defs>
</svg>
