<svg width="700" height="460" viewBox="0 0 700 460" fill="none" xmlns="http://www.w3.org/2000/svg">
<path d="M481.41 28.9671C504.948 17.4068 516.612 18.9238 516.875 30.6414C517.189 45.8632 514.939 66.1052 513.317 80.7518C504.581 160.358 489.987 225.408 488.889 307.143C527.335 207.613 559.556 138.436 601.088 53.2381C614.271 26.0903 622.692 31.1645 633.519 26.3518C675.679 7.5738 677.249 19.0811 671.755 42.0445C651.304 127.097 598.943 394.888 590.942 436.123C588.639 448.054 575.668 442.996 572.319 438.331C557.308 417.565 540.361 417.24 542.242 403.431C551.658 334.683 585.553 162.195 594.394 121.551C549.356 213.884 502.646 329.311 478.637 394.758C473.562 408.656 464.304 407.636 458.551 397.468C450.443 383.183 434.699 375.891 432.082 359.011C423.871 305.345 441.499 203.052 443.956 138.337C419.425 209.03 378.259 346.279 360.212 408.289C352.785 433.947 327.991 429.761 334.581 404.754C361.99 300.688 421.046 116.634 446.572 50.4656C452.59 34.8771 468.333 35.4002 481.41 28.9671Z" fill="white"/>
<path d="M331.916 16.2034C323.966 14.2684 300.898 26.7176 286.722 29.1756C282.224 29.9602 277.934 34.7199 276.417 38.1207C253.715 90.2711 233.368 139.984 215.741 185.271C193.196 189.121 166.834 194.19 137.332 200.817C158.464 146.611 179.806 93.147 200.624 41.729C210.876 16.4118 183.886 14.006 173.424 39.6368C159.824 72.9572 134.35 135.386 106.156 208.151C85.4422 213.229 63.4737 219.035 40.5103 225.669C23.8236 230.486 23.1444 234.932 30.363 244.939C34.3381 250.51 42.5505 249.949 46.3162 253.919C56.0458 264.208 61.9566 276.516 79.374 278.379C63.8385 319.936 48.3034 362.792 34.2329 404.057C25.393 429.96 50.5526 435.258 60.2301 407.849C75.8176 363.665 92.2423 318.947 109.137 274.361C123.208 271.091 157.26 263.757 188.696 256.936C163.746 325.322 147.321 377.259 141.097 402.539C139.946 407.403 141.881 410.103 142.927 412.085C151.349 424.341 159.352 424.843 170.18 439.996C173.11 444.128 182.944 446.357 186.291 436.183C209.41 366.347 233.21 300.822 255.388 242.08C264.594 240.066 281.175 236.065 291.323 220.922C309.369 194.045 314.547 199.496 318.89 191.326C324.33 181.069 320.72 171.439 301.472 173.818C301.472 173.818 294.201 174.336 280.757 175.868C302.099 120.919 320.772 74.3132 334.215 38.7973C338.821 26.7697 339.396 17.9819 331.916 16.2034Z" fill="white"/>
<path d="M300.428 372.594C305.397 385.153 320.932 381.35 315.021 366.192C309.005 350.75 294.046 304.265 290.122 289.289C284.787 269.109 307.907 274.628 296.19 287.82C286.148 299.165 279.451 303.711 260.883 325.282C242.941 346.106 247.806 373.128 267.003 379.097C288.658 385.834 307.751 361.971 319.572 344.464C331.027 327.512 319.937 317.568 308.378 327.59C300.95 334.034 292.371 343.93 283.688 349.266C276.627 353.56 271.082 348.947 280.498 335.986C291.43 320.979 303.67 308.404 312.771 294.223C331.341 265.323 294.62 248.664 278.823 267.437C270.349 277.443 272.494 287.267 274.796 295.698C278.51 309.204 292.32 352.316 300.428 372.594Z" fill="white"/>
</svg>
