<svg width="1482" height="280" viewBox="0 0 1482 280" fill="none" xmlns="http://www.w3.org/2000/svg">
<path fill-rule="evenodd" clip-rule="evenodd" d="M640.798 138.217H658.776C668.13 138.217 675.464 133.082 675.464 125.09C675.464 117.246 668.13 112.254 658.776 112.254H640.798V138.217ZM677.907 188L659.359 159.891H659.205H640.798V188H616.48V91H659.205C683.517 91 699.763 104.127 699.763 125.09C699.763 137.792 693.582 148.049 683.234 154.044L706.238 188H677.907Z" fill="white"/>
<path fill-rule="evenodd" clip-rule="evenodd" d="M742.25 111.973V129.659H783.686V150.201H742.25V167.027H789.584V188H719.061V91H789.584V111.973H742.25Z" fill="white"/>
<path fill-rule="evenodd" clip-rule="evenodd" d="M868.18 139.22C868.18 124.235 856.262 112.688 840.702 112.688H826.11V166.312H840.702C856.262 166.312 868.18 154.622 868.18 139.22ZM892.165 139.22C892.165 168.027 870.713 188 840.702 188H802.407V91H840.702C870.713 91 892.165 110.825 892.165 139.22Z" fill="white"/>
<path fill-rule="evenodd" clip-rule="evenodd" d="M911.398 188H937.044V91H911.398V188Z" fill="white"/>
<path fill-rule="evenodd" clip-rule="evenodd" d="M1026.8 112.541H999.912V188H976.749V112.541H949.866V91H1026.8V112.541Z" fill="white"/>
<path fill-rule="evenodd" clip-rule="evenodd" d="M578.87 152.592C575.257 161.202 567.721 166.295 557.201 166.295C541.833 166.295 531.165 155.036 531.165 139.507C531.165 123.973 541.833 112.713 557.201 112.713C567.721 112.713 575.257 117.816 578.87 126.417H603.658C598.793 105.078 581.105 91 557.349 91C528.947 91 507.489 111.338 507.489 139.507C507.489 167.671 528.947 188 557.349 188C581.114 188 598.793 173.931 603.658 152.592H578.87Z" fill="white"/>
<path fill-rule="evenodd" clip-rule="evenodd" d="M1137.96 157.903C1137.96 151.908 1132.99 148.484 1124.03 148.484H1102.12V168.03H1123.6C1133.56 168.03 1137.96 163.608 1137.96 157.903ZM1102.12 110.689V130.941H1120.19C1129.29 130.941 1134.27 126.381 1134.27 120.104C1134.27 113.966 1129.43 110.689 1120.19 110.689H1102.12ZM1161.44 161.042C1161.44 177.159 1148.49 188 1126.74 188H1078.09V91H1123.89C1144.93 91 1157.17 100.983 1157.17 116.818C1157.17 125.804 1152.18 135.081 1143.8 138.072C1155.6 140.638 1161.44 150.621 1161.44 161.042Z" fill="white"/>
<path fill-rule="evenodd" clip-rule="evenodd" d="M1231.43 151.193L1219.07 118.53L1206.71 151.193H1231.43ZM1239.06 171.306H1199.08L1192.83 188H1167.85L1207.96 91H1230.45L1270.43 188H1245.44L1239.06 171.306Z" fill="white"/>
<path fill-rule="evenodd" clip-rule="evenodd" d="M1366.6 91V188H1347.92L1301.11 134.79V188H1276.84V91H1295.36L1342.48 145.631V91H1366.6Z" fill="white"/>
<path fill-rule="evenodd" clip-rule="evenodd" d="M1424.91 151.774L1410.39 168.306V188H1385.83V91H1410.39V135.505L1449.75 91H1478.81L1441.19 133.512L1482 188H1451.36L1424.91 151.774Z" fill="white"/>
<path fill-rule="evenodd" clip-rule="evenodd" d="M90.7576 91V188H66.1896V151.623H25.705V188H1V91H25.705V129.947H66.1896V91H90.7576Z" fill="white"/>
<path fill-rule="evenodd" clip-rule="evenodd" d="M360.03 188H336.405V139.364L315.302 172.593V172.735H302.169V172.593L280.931 139.072L281.067 188H257.45V91H275.057L308.74 142.784L342.419 91H360.03V188Z" fill="white"/>
<path fill-rule="evenodd" clip-rule="evenodd" d="M402.445 111.969V129.66H443.891V150.204H402.445V167.031H449.788V188H379.264V91H449.788V111.969H402.445Z" fill="white"/>
<path fill-rule="evenodd" clip-rule="evenodd" d="M170.907 91C133.725 91 103.58 119.37 103.58 154.387C103.58 166.732 107.335 178.259 113.818 188H146.292C136.431 180.627 130.032 168.969 130.032 155.808C130.032 133.5 148.331 115.416 170.898 115.416C193.475 115.416 211.773 133.5 211.773 155.808C211.773 168.969 205.375 180.627 195.514 188H227.988C234.475 178.259 238.216 166.732 238.216 154.387C238.216 119.37 208.09 91 170.907 91Z" fill="white"/>
<path fill-rule="evenodd" clip-rule="evenodd" d="M148.459 162.133C151.679 173.427 160.504 181.533 170.901 181.533C181.297 181.533 190.127 173.427 193.338 162.133H148.459Z" fill="white"/>
</svg>
