<svg width="590" height="591" viewBox="0 0 590 591" fill="none" xmlns="http://www.w3.org/2000/svg">
<g clip-path="url(#clip0_50_548)">
<path d="M294.999 589.415C292.078 589.415 289.17 589.362 286.267 589.278L346.318 424.239H428.962C443.467 424.239 459.391 413.088 464.352 399.464L529.504 220.51C540.162 191.212 523.381 167.242 492.205 167.242H377.553L281.353 431.586H281.318L226.781 581.437C97.3953 550.677 1.15625 434.368 1.15625 295.572C1.15625 160.777 91.9224 47.1934 215.666 12.5757L159.393 167.242H159.377L65.8276 424.239L128.103 424.244L207.66 205.86H254.463L174.906 424.244L237.158 424.255L311.297 220.51C321.962 191.212 305.179 167.242 274.032 167.242H221.683L281.793 2.03683C286.174 1.8423 290.573 1.72803 294.999 1.72803C457.285 1.72803 588.842 133.285 588.842 295.572C588.842 457.855 457.285 589.415 294.999 589.415ZM472.791 205.704H426L360.475 385.49H407.266L472.791 205.704Z" fill="white"/>
</g>
<defs>
<clipPath id="clip0_50_548">
<rect width="590" height="590" fill="white" transform="translate(0 0.571777)"/>
</clipPath>
</defs>
</svg>
