<svg width="876" height="281" viewBox="0 0 876 281" fill="none" xmlns="http://www.w3.org/2000/svg">
<g clip-path="url(#clip0_50_439)">
<path d="M233.179 212.683C233.059 212.921 232.97 213.129 232.88 213.278C230.195 217.772 227.121 221.969 223.45 225.719C219.66 229.528 215.423 232.653 210.38 234.647C206.858 236.016 203.247 236.701 199.457 236.552C196.98 236.463 194.653 235.838 192.385 234.915C188.595 233.397 184.984 231.492 181.433 229.498C172.421 224.35 163.796 218.576 155.291 212.624C154.874 212.326 154.426 212.028 154.008 211.701C153.561 211.374 153.381 210.957 153.501 210.54C153.62 210.153 154.038 209.915 154.605 209.915C155.172 209.915 155.739 209.945 156.336 209.975C159.111 210.064 161.857 210.153 164.632 210.272C168.75 210.421 172.868 210.57 177.016 210.689C181.134 210.838 185.253 210.987 189.401 211.106C193.519 211.254 197.637 211.403 201.785 211.522C205.933 211.671 210.081 211.82 214.229 211.939C218.347 212.088 222.465 212.237 226.614 212.356C228.702 212.415 230.762 212.504 232.821 212.594C232.88 212.653 233 212.653 233.179 212.683Z" fill="white"/>
<path d="M23.3599 212.624C24.3749 212.594 25.2999 212.534 26.2249 212.504C29.9249 212.385 33.6249 212.237 37.2959 212.118C39.4749 212.058 41.6229 211.999 43.8019 211.909L53.6799 211.552C55.9174 211.467 58.1554 211.398 60.3939 211.344L70.1819 210.987C72.2719 210.927 74.3899 210.868 76.4789 210.778C80.2389 210.659 83.9989 210.51 87.7889 210.362C91.1009 210.243 94.4139 210.153 97.7259 210.034C98.9199 210.004 100.114 209.945 101.307 209.915H102.232C102.62 209.945 102.919 210.124 103.038 210.51C103.157 210.868 103.038 211.165 102.769 211.433L102.322 211.79C93.2499 218.189 84.0589 224.379 74.3899 229.826C71.2269 231.612 68.0039 233.278 64.6609 234.647C61.1699 236.106 57.5289 236.671 53.7389 236.403C50.3069 236.135 47.0549 235.153 43.9509 233.635C40.1309 231.76 36.7589 229.231 33.7149 226.284C29.7159 222.415 26.4049 218.01 23.5989 213.219C23.5518 213.009 23.4711 212.808 23.3599 212.624V212.624Z" fill="white"/>
<path d="M132.015 132.475C132.015 129.707 131.955 126.94 132.015 124.201C132.164 118.993 132.313 113.785 132.552 108.576C132.701 105.303 132.97 102.029 133.268 98.7556C133.716 93.5756 134.312 88.3976 135.118 83.2486C136.312 75.5706 137.864 67.9516 140.132 60.4816C141.385 56.4336 142.817 52.4456 144.727 48.6356C145.324 47.4456 146.04 46.3146 146.667 45.1536C146.936 44.6776 147.264 44.5886 147.771 44.6776C150.964 45.3026 154.157 45.8676 157.321 46.4936C159.947 47.0286 162.513 47.7436 164.99 48.7846C171.645 51.5526 176.957 55.9876 180.985 61.9396C183.522 65.6896 185.372 69.7966 186.357 74.2316C186.834 76.3446 187.013 78.5166 187.043 80.6896C187.192 87.7426 185.969 94.6176 183.94 101.344C181.97 107.892 179.344 114.201 176.509 120.422C172.63 128.874 168.243 137.088 163.647 145.183C155.441 159.558 146.548 173.517 137.147 187.147C136.998 187.356 136.849 187.594 136.67 187.772C136.431 188.04 136.163 188.189 135.775 188.07C135.615 188.023 135.47 187.935 135.355 187.815C135.24 187.695 135.158 187.547 135.118 187.386C135.029 187.028 134.999 186.642 134.969 186.255C134.671 182.862 134.342 179.469 134.074 176.106C133.745 172.029 133.417 167.951 133.119 163.874C132.914 160.999 132.755 158.122 132.641 155.243C132.432 150.868 132.283 146.493 132.104 142.118C132.074 141.106 132.074 140.064 132.044 139.052C132.015 136.85 131.955 134.678 131.925 132.475H132.015V132.475Z" fill="white"/>
<path d="M124.584 133.636C124.465 138.07 124.375 142.535 124.256 146.969C124.166 149.975 124.047 153.011 123.868 156.017C123.629 160.126 123.361 164.233 123.062 168.338C122.883 171.048 122.674 173.757 122.435 176.463C122.197 179.32 121.898 182.207 121.63 185.064C121.57 185.689 121.51 186.344 121.451 186.969C121.391 187.594 121.182 187.892 120.764 188.011C120.227 188.13 119.899 187.862 119.63 187.445C118.407 185.686 117.194 183.92 115.99 182.148C107.873 170.124 100.144 157.862 92.9522 145.243C89.3712 138.963 85.9692 132.624 82.7752 126.166C79.4932 119.469 76.4492 112.684 74.0022 105.63C72.4502 101.166 71.1672 96.6118 70.2722 91.9398C69.8242 89.6178 69.5852 87.2968 69.4662 84.9158C69.3462 82.5648 69.4063 80.2138 69.6463 77.8618C70.1523 73.1598 71.5262 68.7548 73.8532 64.6188C77.4632 58.2188 82.4472 53.2488 89.0132 49.8858C92.1762 48.2498 95.5182 47.1478 98.9802 46.4638C101.844 45.8978 104.679 45.3628 107.544 44.7968C108.022 44.7068 108.499 44.6778 108.947 44.5888C109.365 44.5288 109.633 44.6188 109.842 45.0048C110.558 46.2848 111.334 47.5648 111.991 48.8748C114.557 54.1418 116.318 59.6778 117.81 65.3328C119.272 70.8388 120.376 76.4038 121.242 82.0288C121.809 85.8388 122.316 89.6488 122.734 93.4868C123.152 97.3868 123.48 101.315 123.748 105.214C124.017 109.201 124.196 113.19 124.315 117.178C124.435 120.511 124.465 123.844 124.524 127.178C124.554 129.321 124.524 131.463 124.524 133.606C124.554 133.636 124.554 133.636 124.584 133.636V133.636Z" fill="white"/>
<path d="M217.303 78.4277C218.288 79.4097 219.213 80.3027 220.108 81.2547C224.763 86.2247 228.852 91.6417 232.104 97.6247C234.283 101.612 236.044 105.779 237.088 110.184C238.938 118.071 238.371 125.779 234.91 133.16C232.582 138.13 229.329 142.445 225.181 146.076C222.913 148.07 220.675 150.124 218.347 152.029C213.185 156.225 207.694 160.005 202.113 163.636C190.982 170.898 179.463 177.505 167.735 183.755C161.11 187.296 154.396 190.659 147.741 194.112C147.562 194.201 147.353 194.32 147.144 194.38C146.428 194.588 145.861 194.142 145.981 193.397C146.01 193.1 146.16 192.802 146.279 192.534C147.801 189.35 149.293 186.165 150.815 183.011C156.006 172.431 161.55 162.028 167.437 151.82C173.558 141.192 179.997 130.751 186.745 120.511C193.578 110.154 200.681 99.9747 208.171 90.0647C210.946 86.3747 213.841 82.7727 216.676 79.1117C216.855 78.9637 217.034 78.7547 217.303 78.4277V78.4277Z" fill="white"/>
<path d="M39.2958 78.4277C40.1608 79.4987 40.9958 80.5107 41.8028 81.5527C49.5908 91.4037 56.9628 101.583 64.0348 111.94C72.8078 124.767 81.0748 137.892 88.8038 151.374C93.1008 158.814 97.2188 166.374 101.158 173.993C104.351 180.213 107.455 186.493 110.379 192.832C110.469 193.04 110.558 193.219 110.648 193.427C110.857 194.112 110.349 194.707 109.633 194.528C109.365 194.469 109.096 194.32 108.857 194.201C100.936 190.273 93.0963 186.185 85.3418 181.939C76.6578 177.207 68.0638 172.267 59.6778 167.029C52.4858 162.505 45.4128 157.802 38.7578 152.535C36.2818 150.57 33.9238 148.487 31.6258 146.374C29.9258 144.797 28.2538 143.219 26.7918 141.404C22.8818 136.553 20.1668 131.136 19.0028 125.005C17.9888 119.559 18.3168 114.172 19.8388 108.845C21.3308 103.695 23.6588 98.9037 26.4938 94.3797C29.9848 88.8147 34.0738 83.6957 38.6688 79.0227C38.8788 78.8447 39.0568 78.6657 39.2958 78.4277V78.4277Z" fill="white"/>
<path d="M254.277 143.428C254.366 143.695 254.456 143.904 254.546 144.142C255.558 147.37 256.189 150.706 256.426 154.082C256.933 161.314 255.918 168.338 253.232 175.064C251.024 180.57 247.771 185.451 243.653 189.767C240.127 193.463 236.013 196.55 231.478 198.903C228.106 200.659 224.554 201.82 220.884 202.713C217.9 203.427 214.856 203.933 211.752 203.903C209.813 203.903 207.903 203.993 205.963 203.993C188.595 204.022 171.257 204.022 153.889 204.022H153.113C152.755 203.993 152.456 203.814 152.337 203.457C152.188 203.1 152.277 202.743 152.546 202.475C152.725 202.296 152.964 202.147 153.173 201.999C158.544 198.546 163.916 195.064 169.347 191.701C180.717 184.648 192.265 177.951 203.904 171.314C219.451 162.445 235.118 153.785 250.875 145.273C251.8 144.767 252.725 144.291 253.65 143.785C253.799 143.665 254.008 143.576 254.277 143.428V143.428Z" fill="white"/>
<path d="M2.32196 143.576C3.42596 144.172 4.43996 144.678 5.42496 145.243C23.092 154.737 40.639 164.41 58.036 174.409C69.406 180.927 80.716 187.564 91.818 194.528C95.757 196.999 99.636 199.558 103.545 202.088C103.754 202.237 103.993 202.386 104.142 202.564C104.59 203.1 104.321 203.844 103.635 203.993C103.456 204.022 103.247 204.022 103.068 204.022C99.875 204.022 96.682 204.022 93.458 204.052C89.132 204.082 84.835 204.082 80.508 204.112C77.613 204.112 74.718 204.141 71.853 204.141C65.855 204.141 59.857 204.171 53.889 204.171C50.964 204.171 48.069 204.201 45.145 204.082C39.833 203.903 34.67 202.891 29.717 200.957C18.944 196.731 10.917 189.439 5.36596 179.35C2.85896 174.767 1.30696 169.886 0.530961 164.737C-0.0060395 161.106 -0.15504 157.475 0.17296 153.844C0.441493 150.57 1.07201 147.336 2.05296 144.201C2.14296 143.993 2.20296 143.844 2.32196 143.576V143.576Z" fill="white"/>
<path d="M450.31 206.064C448.641 205.797 446.904 205.597 445.234 205.33C438.889 204.328 432.944 202.257 427.667 198.383C421.055 193.507 416.98 186.828 414.776 179.013C413.307 173.87 412.772 168.66 412.772 163.316V110.082V108.546C414.042 108.145 430.272 108.078 432.209 108.479V163.517C432.209 167.324 432.744 171.064 434.08 174.671C436.818 182.019 442.295 186.026 449.91 187.162C453.851 187.763 457.791 187.562 461.665 186.561C467.81 184.891 472.018 181.083 474.356 175.139C475.826 171.332 476.293 167.257 476.293 163.183V110.416V108.546C477.562 108.145 493.793 108.011 495.597 108.412C495.597 108.88 495.663 109.414 495.663 109.948C495.663 127.982 495.73 145.95 495.663 163.984C495.663 170.463 494.595 176.742 492.19 182.753C487.715 194.041 479.432 201.122 467.81 204.194C465.139 204.929 462.333 205.129 459.595 205.597C458.994 205.663 458.459 205.797 457.858 205.931C455.454 206.064 452.915 206.064 450.31 206.064V206.064ZM724.164 108.345H744.069C743.935 108.946 743.802 109.547 743.601 110.015C740.128 119.967 736.655 129.986 733.181 139.939C725.968 160.711 718.754 181.484 711.473 202.257C710.605 204.862 711.14 204.528 708.267 204.595H695.911C694.441 204.595 694.441 204.595 693.907 203.125C686.96 183.154 680.081 163.183 673.134 143.211C672.934 142.744 672.733 142.276 672.399 141.341C672.065 142.143 671.865 142.611 671.665 143.078C668.392 152.562 665.052 162.047 661.779 171.532C658.172 181.952 654.565 192.438 650.959 202.858C650.357 204.661 650.625 204.661 648.487 204.661H635.796C634.193 204.661 634.193 204.661 633.659 203.125C622.838 172.066 612.018 140.94 601.131 109.881C600.997 109.481 600.863 109.08 600.73 108.546H621.302C628.315 130.387 635.396 152.295 642.409 174.27H642.743C642.876 173.87 643.077 173.469 643.21 173.001C650.157 152.095 657.037 131.121 663.983 110.215C664.117 109.881 664.25 109.481 664.317 109.147C664.451 108.545 664.918 108.278 665.52 108.278C670.329 108.278 675.138 108.278 679.947 108.345C680.081 108.345 680.281 108.412 680.548 108.545C687.762 130.32 694.975 152.228 702.189 174.137C702.924 173.87 702.924 173.268 703.124 172.801C704.995 167.123 706.798 161.446 708.601 155.769C713.544 140.406 718.487 125.11 723.43 109.748C723.764 109.213 723.964 108.813 724.164 108.345V108.345ZM302.364 204.261V108.412H321.667C321.667 109.013 321.734 109.615 321.734 110.216V147.019H366.018C366.085 146.351 366.151 145.683 366.151 145.015V110.416V108.412H385.321C385.655 109.481 385.789 202.19 385.455 204.261C384.119 204.662 367.821 204.662 366.151 204.194V165.588C364.615 165.187 323.404 165.187 321.8 165.588V204.194C320.131 204.662 303.833 204.662 302.364 204.261V204.261ZM832.838 187.095V204.127C831.503 204.461 762.238 204.528 760.568 204.194C760.167 202.925 760.167 110.082 760.501 108.479C761.703 108.145 829.298 108.079 831.035 108.412V125.444C830.3 125.511 829.566 125.578 828.831 125.578H779.537V145.416H814.604C815.138 146.818 815.205 161.179 814.671 162.916H779.738C779.337 164.452 779.27 185.425 779.738 187.028C797.304 187.095 814.938 187.095 832.838 187.095V187.095ZM607.744 204.328C607.009 204.395 606.541 204.394 606.074 204.394C600.396 204.394 594.719 204.328 589.108 204.461C587.772 204.461 587.238 203.994 586.77 202.858C584.433 197.248 581.961 191.704 579.624 186.093C579.089 184.891 578.488 184.423 577.152 184.423C563.526 184.49 549.9 184.49 536.275 184.423C535.005 184.423 534.404 184.757 533.87 185.959C531.532 191.57 528.994 197.114 526.589 202.658C526.322 203.192 526.122 203.727 525.855 204.261H506.151C506.418 203.66 506.551 203.125 506.752 202.658C515.168 183.622 523.517 164.586 531.933 145.483C537.222 133.51 542.499 121.531 547.763 109.548C548.231 108.546 548.698 108.078 549.9 108.078C554.576 108.145 559.318 108.145 563.994 108.078C565.33 108.078 565.864 108.546 566.398 109.681C572.677 124.041 578.956 138.336 585.234 152.629C592.515 169.127 599.728 185.692 607.009 202.19C607.143 202.925 607.41 203.526 607.744 204.328V204.328ZM571.341 166.857C571.208 166.456 571.141 166.055 570.94 165.721C569.938 163.383 568.937 160.979 567.935 158.641C564.461 150.492 560.921 142.411 557.381 134.261C557.181 133.794 557.114 133.126 556.379 132.791C551.503 144.147 546.694 155.435 541.818 166.79C543.421 167.19 569.805 167.257 571.341 166.857V166.857ZM856.684 108.212H875.252L875.453 108.412C875.519 108.479 875.519 108.479 875.519 108.546C875.586 139.805 875.586 171.064 875.586 202.324C875.586 202.858 875.586 203.392 875.519 203.927C875.519 203.994 875.453 204.127 875.319 204.261H856.55C856.684 172.267 856.684 140.339 856.684 108.211V108.212Z" fill="white"/>
</g>
<defs>
<clipPath id="clip0_50_439">
<rect width="876" height="192" fill="white" transform="translate(0 44.5718)"/>
</clipPath>
</defs>
</svg>
