<svg width="762" height="281" viewBox="0 0 762 281" fill="none" xmlns="http://www.w3.org/2000/svg">
<g clip-path="url(#clip0_50_308)">
<path d="M609.302 176.79C613.943 176.171 639.318 172.768 639.318 144.917C639.318 112.735 596.614 113.663 584.546 113.663H535.034V113.973C538.748 117.686 539.985 126.969 539.985 134.087V230.015C539.985 237.442 538.438 246.416 535.034 250.129V250.439H597.852C613.015 250.439 646.435 244.25 646.435 213.305C646.745 185.145 623.227 179.266 609.302 176.79ZM588.259 235.585C578.047 235.585 571.239 232.491 571.239 232.491V128.517H585.783C595.376 128.517 607.754 132.23 607.754 147.393C607.754 166.269 594.139 172.768 586.402 172.768H582.689L579.285 185.455C598.78 185.455 613.015 191.025 613.015 212.067C612.705 231.872 598.78 235.585 588.259 235.585Z" fill="white"/>
<path d="M131.205 250.748C129.039 245.797 130.896 238.37 134.3 230.015L139.87 216.399H190.619L204.854 251.057H243.844V250.748C238.584 247.344 233.632 237.132 229.919 228.468L181.336 113.972H161.841L103.665 251.057L131.205 250.748ZM146.059 201.546L165.554 154.51L185.049 201.546H146.059Z" fill="white"/>
<path d="M17.0196 114.282V128.517H58.795C58.795 153.273 58.795 184.217 58.795 198.761C58.795 242.393 35.277 264.983 5.87949 265.292H0L3.40391 277.67C4.02281 277.67 10.5212 277.67 11.1401 277.67C63.7461 276.123 92.8341 242.084 92.8341 183.598V114.282H17.0196Z" fill="white"/>
<path d="M445.913 110.878C406.304 110.878 374.121 135.943 374.121 182.36C374.121 230.325 406.304 253.224 445.913 253.224C485.522 253.224 517.705 228.778 517.705 182.051C517.705 135.634 485.522 110.878 445.913 110.878ZM445.913 238.37C422.085 238.37 410.326 217.019 410.326 182.051C410.326 147.393 423.633 125.732 446.222 125.732C470.359 125.732 482.118 147.083 482.118 182.051C481.809 216.709 469.431 238.37 445.913 238.37Z" fill="white"/>
<path d="M761.858 215.162C763.406 197.214 757.526 184.836 723.796 168.126C699.35 156.057 692.542 152.963 693.78 139.966C694.708 132.539 702.135 126.041 716.989 126.041C732.151 126.041 747.005 133.468 752.266 143.679H752.575L758.145 122.328C746.077 115.21 733.389 111.806 716.37 111.806C689.448 111.806 665.93 126.35 665.93 151.106C665.93 174.624 682.021 182.67 701.207 192.263C719.464 201.237 730.295 207.116 728.438 221.66C726.891 233.729 716.679 238.37 704.92 238.37C690.686 238.37 676.142 232.181 669.334 221.351V221.351L663.764 242.703C676.451 250.748 690.376 253.533 705.849 253.533C722.249 252.914 759.073 247.963 761.858 215.162Z" fill="white"/>
<path d="M279.431 182.36C279.431 213.615 294.594 236.204 323.063 236.514C337.607 236.514 351.223 230.944 356.793 221.66H357.102L362.672 243.012C350.604 250.129 335.132 253.533 317.803 253.533C278.812 253.533 243.845 227.849 243.845 182.36C243.845 136.872 279.122 111.497 317.803 111.497C335.132 111.497 350.604 114.901 362.672 122.018L357.102 143.37H356.793C351.532 134.087 337.607 128.517 323.063 128.517C294.594 128.517 279.431 151.106 279.431 182.36Z" fill="white"/>
<path d="M279.431 182.36C279.431 213.615 294.594 236.204 323.063 236.514C337.607 236.514 351.223 230.944 356.793 221.66H357.102L362.672 243.012C350.604 250.129 335.132 253.533 317.803 253.533C278.812 253.533 243.845 227.849 243.845 182.36C243.845 136.872 279.122 111.497 317.803 111.497C335.132 111.497 350.604 114.901 362.672 122.018L357.102 143.37H356.793C351.532 134.087 337.607 128.517 323.063 128.517C294.594 128.517 279.431 151.106 279.431 182.36Z" fill="white"/>
<path d="M382.167 2.57178C332.965 2.57178 293.046 22.3764 293.046 46.8227C293.046 71.269 332.965 91.0737 382.167 91.0737C431.369 91.0737 471.288 71.269 471.288 46.8227C470.978 21.7575 431.369 2.57178 382.167 2.57178ZM459.838 40.6338C455.506 50.2266 435.392 67.5557 386.809 55.4872L376.907 53.0117C333.893 41.5621 315.945 49.6077 306.972 56.4156C306.353 57.0345 305.424 57.6534 304.805 57.0345C304.186 56.725 304.186 55.7967 304.805 54.8683C309.138 45.2755 331.418 27.0181 379.692 39.0865L389.594 41.5621C434.464 53.0117 448.698 45.8944 457.363 39.0865C457.982 38.4676 458.91 37.8488 459.529 38.4677C460.148 38.7771 460.148 39.396 459.838 40.6338Z" fill="white"/>
<path d="M382.477 10.6174C429.513 10.6174 468.193 25.7803 470.978 48.0605C470.978 47.1322 470.978 45.8944 470.978 44.966C469.122 22.067 431.679 2.57178 382.477 2.57178C332.037 2.57178 294.284 22.6858 293.046 45.5849C293.046 46.5133 293.046 48.37 293.046 49.2983C296.141 27.0181 335.441 10.6174 382.477 10.6174Z" fill="white"/>
</g>
<defs>
<clipPath id="clip0_50_308">
<rect width="762" height="280" fill="white" transform="translate(0 0.571777)"/>
</clipPath>
</defs>
</svg>
