<svg width="808" height="281" viewBox="0 0 808 281" fill="none" xmlns="http://www.w3.org/2000/svg">
<path d="M806.272 179.852H0.24707V228.148H806.272V179.852Z" fill="white"/>
<path d="M249.837 120.84L256.933 94.5915L264.086 120.84H249.837ZM283.846 79.4422H306.023V54.9871H282.264V75.1692L274.778 54.9871L239.107 54.9773L231.598 75.2332V54.9871H207.844V79.4422H230.039L207.868 139.248L180.907 97.6929L206.454 54.9789H166.643L152.514 85.9371V54.9773H115.261V155.723H152.158V115.63L176.675 155.722H239.235L243.543 141.459H270.349L274.676 155.722H312.131L283.846 79.4422Z" fill="white"/>
<path d="M572.361 54.9773V93.1228H552.919L552.924 54.9773H517.416L517.411 155.714H552.919V117.58H572.361V155.714H607.835V54.9773H572.361Z" fill="white"/>
<path d="M704.446 131.255H655.395V117.58H695.408L695.403 93.1228H655.395V79.4324H704.446V54.9773H618.882V155.714L704.446 155.723V131.255Z" fill="white"/>
<path d="M16.2368 96.062H29.7172L45.5196 122.025L61.3695 96.062H74.9992L45.6935 130.044L16.2368 96.062ZM35.4294 80.8848L45.6065 99.8985L55.7312 80.8848H68.1434L45.554 106.298L22.9926 80.8848H35.4294ZM29.7221 65.6338H61.4319L45.7739 85.1349L29.7221 65.6338ZM62.51 94.1962L71.7256 79.1028H56.683L64.8171 63.8271H26.304L34.476 79.1028H19.3956L28.5833 94.1962H12.5742L45.6164 148.458L78.5519 94.1962H62.51V94.1962Z" fill="white"/>
<path d="M352.9 79.4327C353.573 79.4327 367.155 79.4327 367.155 79.4327C367.419 79.4623 374.482 80.2975 374.482 88.6779C374.482 91.4297 373.762 93.5482 372.324 94.9758C370.453 96.8367 367.93 96.9679 367.204 96.963C367.204 96.963 353.575 96.9581 352.902 96.9581C352.9 96.2935 352.9 80.0973 352.9 79.4327ZM410.859 155.108C408.267 152.681 407.796 142.951 407.787 142.749C407.787 142.677 407.839 141.032 407.839 138.052C407.839 135.721 407.805 132.586 407.69 128.771C407.262 114.283 397.58 110.532 393.853 109.621C398.604 107.915 409.055 101.574 409.055 87.3224C409.055 86.8531 409.045 86.3772 409.021 85.8899C408.569 76.3789 405.329 68.8716 399.392 63.5647C388.761 54.0669 372.941 54.9744 372.782 54.9859H317.328V155.722L352.899 155.717C352.899 155.717 352.903 121.536 352.903 120.844C353.557 120.844 362.134 120.844 362.134 120.844C370.388 120.844 371.013 129.541 371.042 129.91C371.047 130.013 371.86 139.664 371.922 145.314C372.009 153.674 374.354 155.573 374.451 155.645L374.548 155.722L411.498 155.717L410.859 155.108Z" fill="white"/>
<path d="M749.397 79.4328C750.07 79.4328 763.67 79.4426 763.67 79.4426C763.934 79.4722 770.982 80.2943 770.982 88.6779C770.982 91.4248 770.257 93.5433 768.824 94.9677C766.948 96.8301 764.43 96.963 763.704 96.9581C763.704 96.9581 750.07 96.9581 749.397 96.9581C749.397 96.2935 749.397 80.0974 749.397 79.4328ZM807.36 155.104C804.769 152.677 804.293 142.951 804.288 142.739C804.288 142.672 804.341 141.027 804.341 138.048C804.341 135.721 804.306 132.582 804.191 128.766C803.763 114.283 794.082 110.527 790.355 109.621C795.105 107.91 805.557 101.574 805.557 87.3175C805.557 86.8482 805.547 86.3724 805.522 85.885C805.071 76.379 801.825 68.8667 795.888 63.5599C785.258 54.062 769.443 54.9695 769.283 54.981H713.824L713.814 155.717H749.395C749.395 155.717 749.405 121.531 749.405 120.839C750.058 120.839 758.635 120.839 758.635 120.839C766.889 120.839 767.515 129.536 767.539 129.905C767.549 130.009 768.361 139.654 768.424 145.309C768.511 153.669 770.851 155.568 770.952 155.645L771.049 155.722L808 155.717L807.36 155.104Z" fill="white"/>
<path d="M510.816 111.554L478.817 111.559C477.327 127.319 470.048 130.94 463.722 131.019V131.026C463.698 131.026 463.675 131.019 463.65 131.019C463.645 131.019 463.645 131.019 463.64 131.019C456.612 130.936 448.242 126.492 448.097 105.875C448.025 94.9397 450.217 86.9171 454.438 82.6621C456.817 80.2696 459.871 79.0438 463.509 79.006V78.9913C467.236 78.9913 470.345 80.2269 472.759 82.6572C475.731 85.6503 477.697 90.5239 478.571 96.9597C478.571 96.9695 510.921 96.9597 510.926 96.9597C510.772 82.3142 505.811 70.9375 496.167 63.1446C487.99 56.5398 476.635 52.7722 463.317 52.2504C450.284 51.7384 438.087 56.2904 428.992 65.0695C418.762 74.9398 413.161 89.3079 413.219 105.534C413.271 121.663 418.291 135.133 427.718 144.503C436.761 153.489 449.298 158.257 463.977 158.295C477.731 158.333 489.932 153.733 498.34 145.338C506.517 137.179 510.834 125.678 510.824 112.074L510.816 111.554Z" fill="white"/>
</svg>
