<svg width="694" height="281" viewBox="0 0 694 281" fill="none" xmlns="http://www.w3.org/2000/svg">
<g clip-path="url(#clip0_50_406)">
<g clip-path="url(#clip1_50_406)">
<path d="M0 0.571777V129.703H22.3509V105.088L35.5675 90.63L60.9546 129.703H87.4134L50.5957 74.7718L85.6274 36.9463H57.7398L22.3509 77.6227V0.571777H0Z" fill="white"/>
<path d="M138.366 106.87C144.26 100.99 145.689 92.4121 145.689 83.3249C145.689 74.2376 144.26 65.6594 138.366 59.7794C135.151 56.5721 130.15 53.8994 123.159 53.8994C116.194 53.8994 111.193 56.5721 107.953 59.7794C102.059 65.6594 100.63 74.2376 100.63 83.3249C100.63 92.4121 102.059 100.99 107.953 106.87C111.167 110.078 116.168 112.75 123.159 112.75C130.15 112.75 135.151 110.078 138.366 106.87ZM89.7351 118.096C82.2337 109.721 77.9473 99.5394 77.9473 83.3249C77.9473 67.0849 82.2337 56.9285 89.7351 48.554C96.3434 41.0703 107.442 34.4521 123.159 34.4521C138.902 34.4521 149.975 41.0449 156.584 48.554C164.085 56.9285 168.371 67.1103 168.371 83.3249C168.371 99.5649 164.085 109.721 156.584 118.096C149.975 125.579 138.876 132.198 123.159 132.198C107.442 132.198 96.3434 125.605 89.7351 118.096Z" fill="white"/>
<path d="M174.648 36.9465H194.141L195.57 52.2956C199.856 40.5356 210.955 35.6992 221.85 35.6992C224.172 35.6992 226.494 35.8774 228.816 36.2338V57.641C227.03 57.1065 224.351 56.7501 221.672 56.7501C205.036 56.7501 197.177 67.441 197.177 84.7501V129.703H174.648V36.9465V36.9465Z" fill="white"/>
<path d="M244.38 103.663V55.3247H233.995V36.9465H244.38V13.4011L266.73 7.87744V36.9465H289.26V55.3247H266.73V100.456C266.73 107.583 271.374 110.612 278.518 110.612C283.162 110.612 286.555 110.077 289.413 109.365V128.634C284.591 130.416 279.233 130.95 273.849 130.95C255.096 130.95 244.38 121.481 244.38 103.663Z" fill="white"/>
<path d="M294.976 36.9465H314.469L315.898 52.2956C320.184 40.5356 331.283 35.6992 342.178 35.6992C344.5 35.6992 346.821 35.8774 349.143 36.2338V57.641C347.357 57.1065 344.678 56.7501 341.999 56.7501C325.364 56.7501 317.505 67.441 317.505 84.7501V129.703H294.976V36.9465Z" fill="white"/>
<path d="M407.24 106.87C413.134 100.99 414.563 92.4121 414.563 83.3249C414.563 74.2376 413.134 65.6594 407.24 59.7794C404.025 56.5721 399.024 53.8994 392.033 53.8994C385.068 53.8994 380.067 56.5721 376.827 59.7794C370.933 65.6594 369.504 74.2376 369.504 83.3249C369.504 92.4121 370.933 100.99 376.827 106.87C380.041 110.078 385.042 112.75 392.033 112.75C399.024 112.75 404.025 110.078 407.24 106.87ZM358.609 118.096C351.108 109.721 346.821 99.5394 346.821 83.3249C346.821 67.0849 351.108 56.9285 358.609 48.554C365.217 41.0703 376.316 34.4521 392.033 34.4521C407.776 34.4521 418.849 41.0449 425.458 48.554C432.959 56.9285 437.245 67.1103 437.245 83.3249C437.245 99.5649 432.959 109.721 425.458 118.096C418.849 125.579 407.75 132.198 392.033 132.198C376.316 132.198 365.243 125.605 358.609 118.096Z" fill="white"/>
<path d="M437.475 99.8957H458.933C458.933 110.23 467.149 115.067 478.248 115.067C487.535 115.067 496.669 111.503 496.669 102.772C496.669 97.783 493.276 94.0412 487.025 93.1503L464.674 90.1212C449.288 87.983 440.358 77.2666 440.358 65.863C440.358 46.9503 457.351 34.4775 478.248 34.4775C498.455 34.4775 515.422 46.5939 515.422 64.4375H494.143C494.143 55.8848 487.356 51.2266 478.222 51.2266C468.577 51.2266 461.408 55.1466 461.408 62.6303C461.408 69.223 467.123 71.3612 472.124 72.0739L491.975 74.7466C506.645 76.7066 517.362 86.5066 517.362 101.143C517.362 121.838 498.761 132.172 477.482 132.172C454.978 132.198 437.475 119.521 437.475 99.8957Z" fill="white"/>
<path d="M447.757 223.376C440.613 214.645 437.041 202.681 437.041 189.139C437.041 175.572 440.613 163.456 447.936 154.903C454.544 147.063 465.643 140.267 481.003 140.267C503.711 140.267 520.168 154.19 521.24 175.216H499.603C498.71 165.238 492.28 159.51 481.539 159.51C474.216 159.51 469.394 162.183 466.332 165.568C460.795 171.627 459.724 180.383 459.724 189.114C459.724 197.845 460.795 206.601 466.332 212.481C469.547 215.867 474.19 218.717 481.539 218.717C492.076 218.717 498.71 212.659 499.603 203.19H521.24C520.168 223.885 502.997 237.961 481.003 237.961C465.618 237.987 454.187 231.394 447.757 223.376Z" fill="white"/>
<path d="M548.643 235.492H525.935V142.735H548.643V235.492ZM549.357 129.55H525.22V106.539H549.357V129.55Z" fill="white"/>
<path d="M564.921 209.452V161.114H553.618V142.736H564.921V119.19L587.272 113.667V142.736H609.802V161.114H587.272V206.245C587.272 213.372 591.916 216.401 599.06 216.401C603.704 216.401 607.097 215.867 609.955 215.154V234.423C605.132 236.205 599.774 236.739 594.391 236.739C575.637 236.739 564.921 227.296 564.921 209.452Z" fill="white"/>
<path d="M604.954 273.318V254.939C607.812 255.83 611.026 256.543 614.777 256.543C620.849 256.543 627.305 255.118 631.234 245.496L636.056 233.736L598.881 142.761H623.554L648.227 208.765L670.756 142.761H693.643L653.228 249.059C644.476 272.07 631.948 275.634 618.375 275.634C613.731 275.634 608.705 274.921 604.954 273.318Z" fill="white"/>
</g>
</g>
<defs>
<clipPath id="clip0_50_406">
<rect width="694" height="280" fill="white" transform="translate(0 0.571777)"/>
</clipPath>
<clipPath id="clip1_50_406">
<rect width="694" height="280" fill="white" transform="translate(0 0.571777)"/>
</clipPath>
</defs>
</svg>
