<svg width="650" height="650" viewBox="0 0 650 650" fill="none" xmlns="http://www.w3.org/2000/svg">
<path d="M0 0V650H650V0H0ZM641.062 8.95273V641.071H8.94639V8.95273H641.06H641.062Z" fill="white"/>
<path d="M536.074 197.214C502.48 197.214 479.269 210.531 463.558 229.138C460.902 223.571 458.884 221.131 456.046 217.915C443.182 203.377 422.506 196.594 394.755 196.594C367.642 196.594 345.037 205.061 329.343 218.397C321.192 205.143 301.766 196.37 278.339 196.37C247.731 196.37 214.38 200.699 194.591 232.582C194.115 221.103 193.078 215.027 186.626 208.198C178.783 199.896 166.092 197.732 153.729 197.732C131.201 197.732 114.265 207.573 102.061 227.61C84.3626 255.875 41.4677 348.873 42.435 393.919C43.0635 423.013 62.5825 443.98 97.5162 444.807C124.812 445.462 146.22 438.161 159.843 424.412C172.064 437.694 190.711 445.481 213.023 445.481C237.868 445.481 262.865 438.019 277.633 421.715C290.071 436.995 309.641 445.888 334.813 445.765C367.719 445.604 396.622 429.998 415.5 406.085C425.859 434.281 452.119 445.481 480.811 445.481C543.683 445.481 571.291 402.242 594.309 333.889C599.493 318.495 606.413 292.784 607.559 271.188C609.453 235.238 594.246 197.214 536.074 197.214ZM117.736 369.078C150.266 363.428 158.444 375.187 157.422 386.079C154.352 418.681 124.442 425.974 98.4696 425.364C79.6336 424.906 62.698 416.284 62.2245 394.416C61.3993 356.159 100.418 267.651 118.786 238.314C127.271 224.386 137.608 217.497 154.092 217.497C169.712 217.497 173.583 225.518 173.353 235.126C172.738 260.758 131.325 338.654 117.736 369.078ZM223.668 339.029C221.516 344.854 217.445 357.053 214.147 369.987C224.824 367.317 232.832 365.465 246.549 365.795C262.177 366.18 272.167 372.655 272.167 385.579C272.167 416.911 237.537 426.112 213.515 426.112C187.139 426.112 163.97 411.093 163.97 382.249C163.97 348.437 182.301 297.163 199.504 263.005C220.628 221.059 242.211 215.484 279.391 215.484C295.726 215.484 314.553 222.472 314.553 237.901C314.553 259.281 296.437 267.435 278.478 268.468C270.81 268.908 259.004 269.33 251.942 268.829C251.942 268.829 245.966 277.933 239.615 294.159C272.873 289.477 286.976 297.026 281.362 316.264C273.763 342.254 251.245 343.965 223.668 339.029ZM387.247 258.167C378.254 258.167 372.371 263.863 367.995 270.013C358.355 283.551 337.469 337.8 334.218 360.086C331.988 375.348 338.58 378.456 345.783 378.456C357.341 378.456 370.298 366.23 374.718 346.06C374.718 346.06 352.719 345.524 358.782 326.014C364.675 307.083 375.856 302.982 394.388 302.222C430.9 300.731 427.295 327.689 424.374 342.066C414.884 388.753 381.658 426.245 334.658 426.245C302.482 426.245 282.508 408.446 282.508 375.636C282.508 352.257 294.107 315.553 303.303 294.077C322.872 248.361 343.395 216.369 395.682 216.369C427.052 216.369 451.794 227.642 448.166 257.029C445.506 278.598 434.71 291.265 415.1 292.797C409.615 293.223 387.175 292.655 394.618 271.426C397.208 264 398.282 258.167 387.247 258.167ZM584.715 296.75C579.189 324.276 566.755 356.833 553.259 381.098C531.24 420.691 504.494 426.236 481.149 425.955C457.793 425.676 431.482 417.053 431.28 381.034C431.138 355.174 442.292 318.672 451.762 294.746C468.268 251.37 485.136 216.002 538.459 216.639C600.643 217.378 589.553 272.677 584.715 296.75ZM531.965 259.07C526.627 258.997 521.967 260.043 517.781 266.5C508.373 278.685 480.875 353.83 481.362 368.816C481.535 374.2 484.511 378.91 491.143 378.91C498.752 378.921 502.98 373.66 506.718 367.313C515.372 352.669 539.707 286.247 540.376 269.642C540.574 264.802 539.766 259.167 531.965 259.07Z" fill="white"/>
</svg>
