<svg width="936" height="446" viewBox="0 0 936 446" fill="none" xmlns="http://www.w3.org/2000/svg">
<path fill-rule="evenodd" clip-rule="evenodd" d="M428.758 27.3282C417.313 30.6252 398.369 47.8444 386.404 65.8278C372.535 86.6732 359.989 117.111 356.079 139.394C355.086 145.05 353.906 151.457 353.456 153.633L352.638 157.588L349.225 153.44C343.919 146.991 338.922 145.205 325.783 145.063C309.538 144.887 308.544 146.121 315.435 157.911C321.836 168.86 327.858 183.556 331.837 197.931C334.102 206.111 334.692 214.231 334.725 237.634C334.756 259.704 335.291 267.686 336.861 269.584C340.395 273.856 353.343 277.233 364.208 276.718L374.212 276.243L375.192 243.02C377.289 171.877 393.828 114.812 422.982 78.13C436.717 60.8475 443.247 56.5949 457.266 55.8007C469.049 55.133 469.934 54.1616 465.854 46.3684C462.932 40.7853 452.855 31.2501 446.476 28.0322C440.844 25.1924 436.744 25.0294 428.758 27.3282ZM599.675 34.0425C599.205 35.2686 599.579 39.007 600.503 42.3483C606.564 64.2315 594.423 116.615 573.242 159.961C565.181 176.459 565.126 176.675 565.177 191.602C565.26 216.199 573.091 228.112 584.681 221.274C586.942 219.94 600.508 205.301 614.827 188.743C665.851 129.737 684.852 110.126 690.995 110.126C694.304 110.126 693.059 121.463 686.738 148.886C678.77 183.455 677.437 205.945 682.637 218.067C690.181 235.65 710.219 243.507 734.547 238.42C752.267 234.715 754.804 231.303 743.465 226.428C733.46 222.128 723.095 211.938 718.868 202.245C711.147 184.538 713.168 161.106 726.131 118.036C730.771 102.619 731.7 97.3395 731.074 89.9433C729.518 71.5612 720.443 61.8727 704.78 61.8727C685.709 61.8727 667.139 76.9561 638.066 116.059C625.201 133.363 621.138 137.38 621.138 132.798C621.138 131.781 624.292 121.27 628.148 109.441C639.194 75.5528 640.49 60.9914 633.662 47.4806C630.076 40.3834 625.303 37.1955 613.747 34.177C602.545 31.2517 600.75 31.2343 599.675 34.0425ZM798.262 35.1309C773.484 39.3203 756.734 56.9334 752.854 82.8794C751.183 94.0551 754.875 94.5139 765.237 84.4203C775.442 74.4817 777.726 73.3268 790.925 71.4537C814.694 68.0775 851.416 78.4527 847.931 87.5575C847.464 88.7773 837.247 96.0627 825.228 103.747C765.42 141.979 741.051 167.276 741.051 191.128C741.051 199.283 741.448 200.123 749.203 208.345C753.686 213.098 758.998 217.401 761.007 217.907C763.16 218.448 771.96 216.49 782.439 213.134C822.19 200.41 853.186 199.332 892.887 209.291C900.467 211.193 907.119 212.296 907.671 211.744C909.438 209.97 903.718 188.359 899.351 180.316C892.62 167.914 888.349 166.139 862.79 165.125C840.602 164.244 823.129 165.854 805.171 170.436C800.085 171.733 795.47 172.331 794.915 171.766C792.869 169.678 812.35 153.796 845.1 130.851C892.074 97.9422 894.097 95.9109 894.097 81.6485C894.097 68.2278 887.126 60.569 864.654 49.3C841.872 37.8727 815.426 32.2294 798.262 35.1309ZM527.259 53.3959C479.712 60.6007 429.715 110.229 414.255 165.565C409.724 181.784 409.359 203.079 413.413 214.89C424.498 247.198 472.362 260.387 508.125 240.99C520.81 234.109 533.625 221.171 539.395 209.42C544.125 199.786 544.533 197.66 545.135 179.504C545.762 160.635 545.673 159.961 542.545 159.961C540.656 159.961 538.873 161.325 538.27 163.231C537.701 165.03 533.043 172.784 527.922 180.463C512.175 204.066 495.411 216.749 478.046 218.192C468.358 218.999 461.439 216.618 456.993 210.951C451.234 203.609 452.736 200.353 464.406 194.877C482.886 186.206 507.787 167.367 529.364 145.732C550.145 124.894 565.853 96.6449 566.996 78.0541C567.777 65.3485 565.768 60.5975 558.013 56.8037C552.299 54.0082 535.504 52.1461 527.259 53.3959ZM35.4954 72.395C26.9311 73.8948 26.9232 76.7409 35.4496 88.1571C49.9102 107.518 53.3056 128.414 50.2588 179.292C47.007 233.606 48.1904 282.027 54.0014 332.406C58.5675 372.007 67.4206 402.577 75.5888 406.961C85.0682 412.048 111.495 401.331 137.543 381.838C145.353 375.994 160.757 362.415 171.775 351.663L191.806 332.115L200.603 335.415C213.339 340.193 224.02 340.991 237.362 338.162C292.034 326.567 324.251 256.067 302.363 195.925C296.755 180.521 293.252 176.462 282.9 173.38C274.068 170.749 258.918 170.244 257.507 172.534C256.999 173.358 259.117 179.015 262.212 185.108C274.276 208.844 275.786 242.1 265.991 268.35C261.79 279.611 250.516 294.82 242.362 300.23C235.675 304.668 218.612 307.465 216.742 304.431C216.257 303.644 219.615 298.305 224.203 292.567C241.232 271.274 244.022 257.296 234.416 241.404C231.496 236.573 227.168 230.758 224.8 228.482C221.202 225.027 220.091 224.677 218.067 226.36C216.734 227.469 215.644 229.012 215.644 229.789C215.644 232.508 195.099 273.511 192.761 275.455C190.773 277.11 190.017 276.502 187.983 271.625C183.239 260.239 180.509 242.073 181.309 227.208C182.264 209.442 187.325 194.292 197.36 179.156C209.869 160.288 224.053 152.66 249.775 150.965C263.645 150.051 264.555 149.777 264.555 146.52C264.555 142.397 261.521 139.492 251.933 134.437C245.661 131.129 242.717 130.693 226.688 130.693C208.839 130.693 208.342 130.792 196.096 136.79C162.371 153.313 142.824 190.071 142.549 237.482C142.412 261.403 145.872 275.727 156.617 295.704C164.867 311.044 165.43 309.267 147.028 325.963C129.991 341.418 111.769 352.973 104.436 352.973C95.1567 352.973 87.8388 312.137 87.8499 260.422C87.8546 234.785 89.8174 203.985 93.4448 172.627C100.023 115.758 91.9175 87.2032 65.9295 75.6762C58.9557 72.5833 43.7694 70.9458 35.4954 72.395ZM529.031 86.3314C531.554 92.9239 511.126 123.227 491.904 141.41C481.203 151.532 459.527 167.871 456.799 167.871C454.071 167.871 455.663 162.288 462.545 147.722C471.075 129.664 480.24 116.505 493.134 103.797C508.297 88.8548 526.59 79.9541 529.031 86.3314ZM612.894 236.308C579.979 287.172 536.446 324.347 471.315 357.207C431.228 377.432 379.689 392.117 327.667 398.137C299.655 401.378 239.394 400.576 215.644 396.645C197.796 393.691 195.132 393.579 195.132 395.778C195.132 400.415 232.177 411.124 266.922 416.531C298.473 421.442 351.92 421.402 384.241 416.446C448.792 406.545 507.508 383.384 556.342 348.558C583.779 328.992 622.791 288.118 630.136 271.24C635.616 258.654 632.496 221.736 625.846 220.451C624.308 220.155 619.678 225.824 612.894 236.308Z" fill="white"/>
</svg>
