<svg width="970" height="280" viewBox="0 0 970 280" fill="none" xmlns="http://www.w3.org/2000/svg">
<g clip-path="url(#clip0_111_302)">
<path fill-rule="evenodd" clip-rule="evenodd" d="M561.168 39.093C561.168 17.5417 578.668 0 600.168 0C621.835 0 639.168 17.5417 639.168 39.093C639.168 60.6443 621.668 78.1861 600.168 78.1861C578.668 78.1861 561.168 60.6443 561.168 39.093ZM575.168 39.093C575.168 52.9594 586.335 64.1527 600.168 64.1527C614.001 64.1527 625.168 52.9594 625.168 39.093C625.168 25.2267 614.001 14.0334 600.168 14.0334C586.335 14.0334 575.168 25.2267 575.168 39.093ZM141.667 25.7277V76.6823H127.667V1.50342H127.833H143.333L166.5 43.1024L189.667 1.50342H205.167V76.6823H191.333V25.7277L171.5 62.1478H161.5L141.667 25.7277ZM150.833 201.981C150.833 158.878 185.667 123.795 228.667 123.795C271.833 123.795 306.667 158.711 306.667 201.814C306.667 244.917 271.833 280 228.833 280C185.833 280 150.833 245.084 150.833 201.981ZM176.333 201.981C176.333 230.883 199.833 254.272 228.667 254.272C257.5 254.105 280.833 230.716 281 201.981C281 172.912 257.5 149.523 228.667 149.523C199.667 149.523 176.333 173.079 176.333 201.981ZM104.667 197.47L106.667 198.974C117.833 207.494 124.333 219.689 124.333 232.721C124.333 257.112 101.833 276.993 74.3334 276.993H0V126.802H70.5C96.5001 126.802 117.667 145.513 117.667 168.568C117.667 178.759 113.5 188.449 106.5 195.632L104.667 197.47ZM70.3334 148.687H26.1667V188.449H70.3334C82.5 188.449 92.5 179.594 92.5 168.568C92.5 157.542 82.6667 148.687 70.3334 148.687ZM26.1667 254.94H74.3334C88.1667 254.94 99.3334 245.083 99.3334 232.721C99.3334 220.358 88.1667 210.334 74.3334 210.334H26.1667V254.94ZM895.5 126.802L852 188.95L808.5 126.802H778.5L838.833 212.172V276.993H865V212.172H865.166L925.333 126.802H895.5ZM774.667 254.94H643V276.826H774.667V254.94ZM561.5 226.873L518.166 126.802H489.333L555.333 276.993H567.5L633.666 126.802H604.833L561.5 226.873ZM436.001 223.532L350.834 126.802H337.834V276.993H364.001V180.095L449.001 276.993H462.001V126.802H436.001V223.532ZM656.5 176.253C656.5 147.184 680 123.795 708.834 123.795C737.667 123.795 761 147.184 761.167 176.253C761.167 205.322 737.834 228.711 708.834 228.711C679.834 228.711 656.5 205.322 656.5 176.253ZM678.667 176.086C678.667 192.792 692.167 206.325 708.834 206.325C725.5 206.325 738.834 192.792 739 176.086C739 159.38 725.5 145.847 708.834 145.847C692.167 145.847 678.667 159.38 678.667 176.086ZM739.333 14.3674V1.50342H797.666V14.3674H775.5V76.6823H761.5V14.3674H739.333ZM658.499 1.50342V14.3674H680.666V76.6823H694.666V14.3674H716.666V1.50342H658.499ZM519.166 1.50342H533.166V76.6823H519.166V1.50342ZM346.999 46.2766H358.333L379.333 76.6823H395.333L374.166 45.9425C386.166 44.2719 395.333 35.0834 395.333 23.89C395.333 11.5273 383.999 1.50342 370.166 1.50342H332.999V76.6823H346.999V46.2766ZM346.999 13.365H370.166C376.666 13.365 381.999 18.0428 381.999 23.89C381.999 29.7373 376.666 34.4151 370.166 34.4151H346.999V13.365ZM281 50.1191L270.167 26.5631L259.167 50.1191H281ZM232.167 76.6823L266.833 1.50342H273.5L308.333 76.6823H293.333L286.667 62.3148H253.833L247.167 76.6823H232.167ZM462.167 1.50342H425V76.6823H439V46.2766H450.334L471.334 76.6823H487.334L466.167 45.9425C478.167 44.2719 487.334 35.0834 487.334 23.89C487.334 11.5273 476 1.50342 462.167 1.50342ZM474 23.89C474 29.7373 468.667 34.4151 462.167 34.4151H439V13.365H462.167C468.667 13.365 474 18.0428 474 23.89ZM941.334 128.807H935.334V126.468H949.834V128.807H943.834V145.346H941.334V128.807ZM952.167 145.346H954.5V129.308C954.584 129.558 954.667 129.851 954.75 130.143C954.834 130.436 954.917 130.728 955 130.979L959.667 145.346H962.167L967 130.979C967.084 130.728 967.167 130.436 967.25 130.143C967.334 129.851 967.417 129.558 967.5 129.308V145.346H970V126.468H966.334L961.5 141.002L961 142.506L960.5 141.002L955.834 126.468H952.167V145.346Z" fill="white"/>
</g>
<defs>
<clipPath id="clip0_111_302">
<rect width="970" height="280" fill="white"/>
</clipPath>
</defs>
</svg>
