<svg width="876" height="280" viewBox="0 0 876 280" fill="none" xmlns="http://www.w3.org/2000/svg">
<g clip-path="url(#clip0_115_1982)">
<path fill-rule="evenodd" clip-rule="evenodd" d="M109.534 18.295C105.324 19.1199 99.665 22.342 94.747 26.7146C85.1635 35.2337 82.0756 36.5872 72.2959 36.5527L65.4542 36.5286L70.2409 38.0521C79.34 40.9471 85.9685 41.3006 93.6917 39.3016C98.938 37.9438 102.313 36.0801 107.121 31.8836C113.283 26.5067 115.779 25.359 121.279 25.3754C123.705 25.3825 127.725 25.8354 130.212 26.3819C132.699 26.9291 134.656 27.2977 134.56 27.2015C133.879 26.5215 126.978 22.3256 124.415 21.0335C119.283 18.4459 113.858 17.4476 109.534 18.295ZM70.9231 20.9766C63.6055 22.0111 58.1397 25.3754 54.4724 31.1014C53.499 32.6216 51.6635 36.8142 50.3934 40.4182C45.9381 53.0593 43.3385 56.5484 35.1749 60.8465C30.4129 63.3537 30.9352 63.6229 37.3736 61.9806C45.7805 59.8367 52.6268 55.7579 57.6221 49.9177C60.6088 46.4258 62.303 43.1633 64.317 37.0243C66.919 29.092 69.6067 26.5931 79.2295 23.1593C83.9993 21.4574 84.7865 21.0362 83.2453 21.0105C82.1915 20.9924 79.7271 20.8732 77.7687 20.7452C75.811 20.6166 72.7301 20.7206 70.9231 20.9766ZM112.815 33.9783C118.438 40.3875 124.433 44.5002 131.441 46.7552C137.535 48.7169 142.581 48.9543 148.865 47.5763C151.068 47.0927 154.417 46.6971 156.308 46.6971C160.821 46.6971 164.857 48.6917 170.188 53.5566C172.372 55.5489 174.159 57.0288 174.159 56.8438C174.159 56.6589 173.508 55.2235 172.711 53.6539C166.633 41.6714 160.404 36.533 151.19 35.9022C147.853 35.6736 145.157 35.9433 139.034 37.1189C126.875 39.4532 121.99 38.7442 114.356 33.539C112.614 32.3513 111.042 31.3798 110.862 31.3798C110.683 31.3798 111.561 32.5494 112.815 33.9783ZM34.1343 43.0604C25.1078 47.7956 20.78 52.1419 18.654 58.6069C17.156 63.1595 17.2255 67.3198 18.9414 75.9643C21.3386 88.0376 20.5274 92.9495 14.7287 101.494L12.3778 104.958L15.2192 102.587C20.8905 97.8554 25.8155 91.3013 27.9709 85.6175C28.6152 83.9189 29.5006 80.4895 29.9386 77.9965C30.6864 73.7367 30.6632 73.0851 29.5423 67.1677C27.5043 56.399 28.4182 52.8109 35.1973 44.9674C37.2345 42.609 38.8368 40.6868 38.7572 40.6955C38.6761 40.7042 36.5964 41.7683 34.1343 43.0604ZM151.705 49.4992C151.704 51.8793 154.599 61.3323 156.348 64.6568C159.551 70.7438 165.484 77.0529 170.325 79.5206C171.422 80.0792 174.027 81.0808 176.114 81.746C185.875 84.8582 188.897 88.0048 192.292 98.5955C193.818 103.354 194.282 102.696 194.365 95.6583C194.47 86.6793 192.301 80.2378 187.617 75.6246C184.313 72.3696 181.406 70.8247 173.408 68.0753C169.832 66.846 165.658 65.1639 164.134 64.3378C160.07 62.1354 156.63 58.3405 154.012 53.1699C152.744 50.6633 151.705 49.0112 151.705 49.4992ZM5.24793 86.2111C1.18973 93.0037 0 96.5034 0 101.642C0 108.637 2.1191 112.95 9.85927 121.711C12.5864 124.797 14.9905 128.207 16.283 130.819C18.3434 134.985 18.3473 135.004 18.3473 141.963C18.3473 149.49 18.4508 149.486 20.6186 141.884C24.377 128.71 21.8971 116.864 13.4045 107.42C8.49727 101.961 7.13141 99.0127 7.12523 93.8571C7.12214 91.6629 7.50454 88.0065 7.97502 85.7307C8.44551 83.4555 8.71435 81.478 8.57298 81.3363C8.43083 81.1946 6.93517 83.3882 5.24793 86.2111ZM80.3961 84.8434C80.274 86.2783 80.4023 87.6087 80.6812 87.7997C80.9608 87.9905 82.6543 88.3122 84.445 88.5146C90.3527 89.1821 90.8974 86.4151 78.9012 116.665L68.1844 143.689L65.5747 144.345C64.1386 144.706 62.877 145.1 62.7696 145.22C62.6622 145.341 62.405 146.609 62.1972 148.038L61.8194 150.636H74.6592H87.4997L87.8296 149.405C88.0111 148.729 88.1633 147.524 88.1672 146.729C88.1757 145.073 87.6635 144.87 81.9984 144.295C79.9565 144.087 78.1712 143.732 78.0313 143.506C77.8907 143.28 78.9236 140.11 80.3258 136.463L82.8752 129.831L97.9523 129.976L113.029 130.122L115.614 136.825C118.57 144.49 118.988 143.576 112.07 144.572C110.001 144.87 108.247 145.187 108.172 145.276C108.097 145.366 107.911 146.609 107.757 148.038L107.478 150.636H120.818H134.158L134.485 149.335C134.665 148.619 134.732 147.327 134.632 146.464C134.472 145.067 134.156 144.832 131.762 144.327C130.282 144.015 128.85 143.399 128.581 142.958C128.311 142.517 122.967 128.74 116.706 112.343L105.322 82.5288L92.9709 82.3817L80.6194 82.235L80.3961 84.8434ZM176.71 89.2302C174.568 96.2732 173.958 101.669 174.73 106.753C176.071 115.591 177.895 119.454 183.918 126.213C190.459 133.552 191.053 137.133 188.06 151.179C187.671 153.005 192.354 145.924 194.502 141.439C199.127 131.777 197.391 123.258 188.786 113.388C179.364 102.58 178.311 100.301 178.374 90.8713C178.398 87.3357 178.361 84.4435 178.29 84.4435C178.222 84.4435 177.51 86.5978 176.71 89.2302ZM104.592 107.113L110.489 123.284H97.9708H85.4524L86.5858 120.412C87.2092 118.832 89.7702 112.124 92.2764 105.505C94.7833 98.886 97.111 92.7586 97.4486 91.8894C97.7869 91.0206 98.2057 90.4517 98.3803 90.6257C98.5541 90.7991 101.35 98.2185 104.592 107.113ZM177.815 134.208C173.616 138.578 172.112 140.599 170.38 144.204C166.486 152.3 165.57 159.098 167.374 166.501C167.851 168.456 168.268 171.683 168.301 173.671C168.351 176.703 168.079 177.859 166.614 180.83C165.655 182.779 163.386 185.99 161.572 187.966C159.759 189.943 158.276 191.71 158.276 191.895C158.276 192.406 163.593 189.619 167.587 187.012C178.131 180.132 180.993 171.948 177.934 157.416C177.169 153.785 176.676 149.534 176.67 146.534C176.663 142.143 176.848 141.212 178.389 137.928C179.338 135.903 180.893 133.117 181.845 131.736C182.796 130.354 183.463 129.114 183.327 128.977C183.191 128.842 180.71 131.195 177.815 134.208ZM2.65448 134.772C2.23885 146.134 3.73296 151.564 8.72672 156.839C12.1468 160.45 15.0438 162.048 23.3464 164.903C34.9192 168.881 38.5479 171.668 42.8788 179.903C44.3026 182.611 45.3494 184.212 45.2057 183.459C42.997 171.931 39.7901 165.217 33.4823 158.916C29.5145 154.953 26.7155 153.27 20.7437 151.253C10.3684 147.75 8.36439 145.702 4.62371 134.772L2.8453 129.575L2.65448 134.772ZM158.987 171.095C152.147 172.97 146.923 175.803 142.226 180.184C137.04 185.021 135.309 187.752 132.786 195.082C129.686 204.086 126.471 207.032 116.148 210.332C112.479 211.506 112.239 211.666 113.684 211.978C119.03 213.132 128.822 212.11 133.473 209.913C139.519 207.056 143.377 201.757 146.814 191.596C150.645 180.265 153.741 176.196 161.562 172.21C166.888 169.496 166.088 169.149 158.987 171.095ZM25.2237 181.256C28.8702 188.263 33.327 193.122 38.1361 195.333C42.7776 197.467 49.3643 197.7 57.028 196.002C60.737 195.18 64.514 194.741 67.9109 194.737C73.9963 194.729 76.4723 195.537 82.7021 199.562L86.7349 202.168L83.8517 198.844C73.6718 187.107 61.5505 182.745 46.9857 185.58C37.8665 187.355 33.9976 186.117 25.9121 178.833L22.2425 175.527L25.2237 181.256ZM106.445 192.99C98.4251 194.504 95.8363 195.762 89.4396 201.251C82.903 206.86 80.8372 207.803 75.3042 207.705C72.8946 207.663 69.2444 207.235 67.1925 206.758C65.1406 206.28 63.1752 205.888 62.8252 205.888C61.9098 205.888 69.7751 210.706 73.6741 212.534C83.3913 217.09 91.5115 215.416 101.394 206.82C112.209 197.413 114.446 196.376 123.932 196.381C127.484 196.383 130.036 196.186 129.603 195.944C129.17 195.702 126.567 194.902 123.82 194.168C117.382 192.447 111.45 192.045 106.445 192.99Z" fill="white"/>
<path d="M285.584 80.4274C285.584 77.143 284.744 74.4696 283.14 72.3309C281.536 70.2686 279.245 68.8173 276.19 67.9771V67.5188C278.787 66.6786 280.849 65.3037 282.376 63.4705C283.904 61.6373 284.668 59.1931 284.668 56.2142C284.668 53.9991 284.209 52.0895 283.293 50.4091C282.376 48.7287 281.078 47.3538 279.474 46.2845C277.794 45.2151 275.808 44.3749 273.517 43.8402C271.225 43.3055 268.629 43 265.879 43C263.206 43 260.456 43.3055 257.554 43.7638C254.652 44.2221 251.75 44.9859 249 45.9789L250.146 59.8805L253.888 59.4222L254.652 48.8814C256.408 48.2704 258.394 47.8121 260.533 47.5829C262.671 47.4302 264.352 47.2774 265.726 47.2774C269.698 47.2774 272.829 48.0412 275.121 49.4925C277.412 51.0202 278.634 53.388 278.634 56.7488C278.634 58.2001 278.405 59.6514 277.946 61.0263C277.488 62.4775 276.954 63.6996 276.266 64.6162C274.739 65.3037 273.058 65.762 271.378 65.9911C269.698 66.2203 268.17 66.2967 266.872 66.2967C265.803 66.2967 264.733 66.2966 263.511 66.2203C262.289 66.1439 261.067 66.0675 259.922 65.9148L259.54 71.1851C260.686 70.956 261.831 70.8032 263.053 70.6505C264.275 70.4977 265.344 70.4213 266.414 70.4213C270.691 70.4213 273.975 71.4143 276.19 73.2475C278.328 75.0807 279.474 77.6777 279.474 80.8857C279.474 83.6355 278.787 85.927 277.412 87.9129C276.037 89.8988 274.357 91.4265 272.218 92.6486L251.673 87.6838L250.146 92.3431C251.215 92.9542 252.437 93.4125 253.964 93.8708C255.416 94.3291 256.943 94.7873 258.623 95.0929C260.227 95.4748 261.831 95.7803 263.435 95.9331C265.039 96.0859 266.49 96.1622 267.865 96.1622C270.385 96.1622 272.753 95.8567 274.891 95.0929C277.03 94.4054 278.939 93.4125 280.543 92.0376C282.071 90.6627 283.293 89.0586 284.209 87.0727C285.126 85.1631 285.584 82.948 285.584 80.4274ZM317.812 43.8402H292.913L292.531 46.8191L299.329 48.0412V91.1974L292.913 92.3431L292.531 95.322H314.069C315.75 95.322 317.353 95.322 319.034 95.2457C320.714 95.1693 322.318 95.0165 323.845 94.7109C325.373 94.4818 326.9 94.0999 328.275 93.6416C329.65 93.1833 330.872 92.4959 331.941 91.6557C334.996 89.4406 336.524 86.0797 336.524 81.5732C336.524 79.74 336.218 78.0596 335.76 76.6083C335.302 75.2334 334.614 74.0113 333.774 73.0183C332.934 72.0254 331.941 71.1851 330.872 70.4977C329.726 69.8866 328.581 69.352 327.359 68.97V68.5118C329.65 67.5952 331.483 66.1439 333.01 64.0816C334.538 62.0956 335.302 59.4986 335.302 56.3669C335.302 53.9227 334.767 51.9367 333.851 50.3327C332.858 48.7287 331.559 47.4302 329.955 46.4372C328.275 45.5206 326.442 44.8332 324.304 44.4513C322.165 44.0693 320.027 43.8402 317.812 43.8402ZM313.535 67.2896H308.799L308.417 71.2615H317.277C319.11 71.2615 320.79 71.4143 322.394 71.7198C323.922 72.0253 325.296 72.4836 326.518 73.2475C327.664 74.0113 328.581 75.0807 329.268 76.3792C329.955 77.754 330.337 79.4345 330.337 81.4204C330.337 82.7953 330.185 84.1702 329.879 85.6978C329.574 87.2255 329.039 88.524 328.428 89.4406C327.359 89.8989 326.289 90.2044 325.067 90.4335C323.845 90.6627 322.623 90.8154 321.325 90.8918C320.027 91.0446 318.728 91.121 317.43 91.121C316.131 91.1974 314.909 91.1974 313.84 91.1974H305.057V48.0412H314.146C316.361 48.0412 318.423 48.194 320.256 48.3468C322.089 48.5759 323.616 49.0342 324.991 49.6453C326.289 50.3327 327.282 51.3257 328.046 52.5478C328.81 53.8463 329.192 55.5267 329.192 57.5891C329.192 59.1167 328.963 60.568 328.581 61.9429C328.122 63.3941 327.435 64.5399 326.518 65.3801C324.609 66.2967 322.7 66.8313 320.714 66.9841C318.728 67.2133 316.284 67.2896 313.535 67.2896ZM355.999 48.0412H378.911L380.439 59.8805L384.105 59.4222L384.563 43.8402H343.855L343.473 46.8191L350.271 48.0412V91.1974L343.855 92.3431L343.473 95.322H385.251L384.792 78.5943L381.126 78.9762L379.675 91.1974H355.999V71.7962H369.212L370.052 79.6636L373.031 79.2817L373.565 61.0263L368.524 61.4846L368.983 67.6716H355.999V48.0412ZM429.908 80.4274C429.908 77.143 429.067 74.4696 427.464 72.3309C425.86 70.2686 423.568 68.8173 420.513 67.9771V67.5188C423.11 66.6786 425.172 65.3037 426.7 63.4705C428.227 61.6373 428.991 59.1931 428.991 56.2142C428.991 53.9991 428.533 52.0895 427.616 50.4091C426.7 48.7287 425.401 47.3538 423.798 46.2845C422.117 45.2151 420.131 44.3749 417.84 43.8402C415.549 43.3055 412.952 43 410.203 43C407.529 43 404.78 43.3055 401.878 43.7638C398.975 44.2221 396.073 44.9859 393.324 45.9789L394.469 59.8805L398.212 59.4222L398.975 48.8814C400.732 48.2704 402.718 47.8121 404.856 47.5829C406.995 47.4302 408.675 47.2774 410.05 47.2774C414.021 47.2774 417.153 48.0412 419.444 49.4925C421.735 51.0202 422.957 53.388 422.957 56.7488C422.957 58.2001 422.728 59.6514 422.27 61.0263C421.812 62.4775 421.277 63.6996 420.59 64.6162C419.062 65.3037 417.382 65.762 415.702 65.9911C414.021 66.2203 412.494 66.2967 411.196 66.2967C410.126 66.2967 409.057 66.2966 407.835 66.2203C406.613 66.1439 405.391 66.0675 404.245 65.9148L403.863 71.1851C405.009 70.956 406.155 70.8032 407.377 70.6505C408.599 70.4977 409.668 70.4213 410.737 70.4213C415.014 70.4213 418.298 71.4143 420.513 73.2475C422.652 75.0807 423.798 77.6777 423.798 80.8857C423.798 83.6355 423.11 85.927 421.735 87.9129C420.361 89.8988 418.68 91.4265 416.542 92.6486L395.997 87.6838L394.469 92.3431C395.538 92.9542 396.76 93.4125 398.288 93.8708C399.739 94.3291 401.267 94.7873 402.947 95.0929C404.551 95.4748 406.155 95.7803 407.759 95.9331C409.362 96.0859 410.814 96.1622 412.188 96.1622C414.709 96.1622 417.076 95.8567 419.215 95.0929C421.353 94.4054 423.263 93.4125 424.867 92.0376C426.394 90.6627 427.616 89.0586 428.533 87.0727C429.449 85.1631 429.908 82.948 429.908 80.4274ZM434.436 106.016L438.178 105.634L439.324 95.322H479.727L480.872 106.016L484.538 105.634L484.996 91.1974H480.796L463.459 43.8402H447.267L446.885 46.8191L454.523 48.0412L438.102 91.1974H433.977L434.436 106.016ZM443.448 91.1974L459.258 49.0342H459.716L474.991 91.1974H443.448ZM501.592 91.1974V48.0412L508.695 46.8191L509.077 43.8402H489.372L488.99 46.8191L495.787 48.0412V91.1974L489.372 92.3431L488.99 95.322H507.32C511.139 95.322 514.576 95.1693 517.555 94.7873C520.533 94.4054 523.13 93.3361 525.269 91.6557C526.643 90.5863 527.789 89.2114 528.705 87.3782C529.622 85.545 530.157 83.2536 530.157 80.5038C530.157 77.6013 529.546 75.157 528.4 73.1711C527.178 71.2615 525.65 69.7339 523.817 68.5881C521.984 67.5188 519.922 66.755 517.631 66.2967C515.34 65.8384 513.048 65.6092 510.833 65.6092H505.334L504.953 69.7339H509.841C511.521 69.7339 513.278 69.8866 514.958 70.1922C516.638 70.4977 518.242 71.0324 519.617 71.7962C520.991 72.56 522.061 73.7058 522.901 75.157C523.741 76.6083 524.199 78.4415 524.199 80.733C524.199 82.4134 523.97 84.0174 523.512 85.5451C523.054 87.0727 522.595 88.2948 521.984 89.2114C519.846 90.0516 517.325 90.5863 514.5 90.8154C511.674 91.121 509.077 91.1974 506.709 91.1974H501.592ZM533.67 92.3431L533.288 95.322H552.306L552.687 92.3431L545.89 91.1974V48.0412L552.306 46.8191L552.687 43.8402H533.67L533.288 46.8191L540.085 48.0412V91.1974L533.67 92.3431ZM570.842 92.3431L570.46 95.322H588.79L589.172 92.3431L580.694 91.1974L585.353 79.2817H608.877L613.46 91.1974L605.44 92.3431L605.058 95.322H623.847L624.229 92.3431L619.341 91.1974L601.316 43.8402H585.048L584.666 46.8191L592.227 48.0412L575.348 91.1974L570.842 92.3431ZM586.957 75.157L597.192 48.8051H597.497L607.35 75.157H586.957ZM649.485 71.4907H643.833L643.452 74.3932L650.325 75.6153H652.846C658.039 75.6153 662.164 74.4696 665.371 72.0254C666.975 70.8032 668.35 69.1228 669.419 67.0605C670.489 65.0745 671.023 62.5539 671.023 59.4986C671.023 56.4433 670.412 53.8463 669.267 51.784C668.045 49.798 666.517 48.194 664.608 46.9719C662.698 45.8261 660.56 44.9859 658.116 44.5276C655.672 44.0693 653.151 43.8402 650.631 43.8402H628.176L627.794 46.8191L634.592 48.0412V91.1974L628.176 92.3431L627.794 95.322H649.103L649.485 92.3431L640.32 91.1974V48.0412H649.409C652.158 48.0412 654.602 48.3468 656.588 48.8814C658.574 49.4161 660.178 50.18 661.4 51.1729C662.622 52.1659 663.462 53.388 664.073 54.7629C664.608 56.2142 664.913 57.8182 664.913 59.575C664.913 61.1026 664.684 62.7831 664.226 64.5399C663.767 66.2967 663.08 67.9771 662.087 69.5047C661.171 69.963 660.178 70.2686 659.109 70.4977C657.963 70.8032 656.817 70.956 655.672 71.1088C654.45 71.2615 653.304 71.4143 652.235 71.4143C651.165 71.4907 650.249 71.4907 649.485 71.4907ZM690.593 48.0412H711.52L713.047 59.7278L716.713 59.2695L717.171 43.8402H678.372L677.991 46.8191L684.788 48.0412V91.1974L678.372 92.3431L677.991 95.322H699.529C703.195 95.322 706.479 95.1693 709.305 94.7873C712.131 94.4054 714.575 93.3361 716.713 91.6557C718.088 90.5863 719.234 89.2114 720.226 87.3782C721.143 85.545 721.678 83.2536 721.678 80.5038C721.678 77.754 721.067 75.3862 719.921 73.553C718.699 71.7198 717.171 70.2686 715.338 69.1992C713.505 68.1299 711.443 67.4424 709.152 66.9841C706.861 66.5258 704.569 66.2967 702.354 66.2967H694.182L693.8 70.4977H701.362C703.042 70.4977 704.722 70.6505 706.402 70.8796C708.083 71.1851 709.687 71.6434 711.061 72.4073C712.436 73.1711 713.505 74.1641 714.422 75.5389C715.262 76.9138 715.72 78.5942 715.72 80.733C715.72 82.4134 715.491 84.0174 715.033 85.5451C714.575 87.0727 714.116 88.2948 713.505 89.2114C712.436 89.6697 711.214 89.9753 709.992 90.2044C708.694 90.5099 707.395 90.6627 706.02 90.8154C704.646 90.9682 703.347 91.121 701.973 91.121C700.598 91.1974 699.376 91.1974 698.23 91.1974H690.593V48.0412ZM725.757 92.3431L725.375 95.322H743.705L744.087 92.3431L735.609 91.1974L740.268 79.2817H763.792L768.375 91.1974L760.355 92.3431L759.973 95.322H778.762L779.144 92.3431L774.256 91.1974L756.231 43.8402H739.963L739.581 46.8191L747.142 48.0412L730.263 91.1974L725.757 92.3431ZM741.872 75.157L752.107 48.8051H752.412L762.265 75.157H741.872ZM803.37 48.0412H817.347L818.798 59.8805L822.54 59.4222L822.999 43.8402H777.861L778.242 59.8805L782.061 59.4222L783.512 48.0412H797.565V91.1974L789.546 92.3431L789.164 95.322H811.313L811.695 92.3431L803.37 91.1974V48.0412ZM822.942 92.3431L822.56 95.322H840.891L841.273 92.3431L832.795 91.1974L837.454 79.2817H860.977L865.56 91.1974L857.541 92.3431L857.159 95.322H875.947L876.329 92.3431L871.441 91.1974L853.416 43.8402H837.148L836.766 46.8191L844.328 48.0412L827.449 91.1974L822.942 92.3431ZM839.058 75.157L849.292 48.8051H849.597L859.45 75.157H839.058Z" fill="white"/>
<path d="M452.122 188.891H374.791V190.8H452.122V188.891Z" fill="white"/>
<path d="M749.988 188.891H672.657V190.8H749.988V188.891Z" fill="white"/>
<path d="M382.391 137.631H376.588V136.163H382.391C383.603 136.163 384.587 135.967 385.342 135.576C386.107 135.175 386.662 134.634 387.006 133.954C387.36 133.273 387.538 132.508 387.538 131.66C387.538 130.83 387.36 130.066 387.006 129.366C386.662 128.667 386.107 128.107 385.342 127.687C384.587 127.259 383.603 127.045 382.391 127.045H377.189V145.926H375.469V125.562H382.391C383.882 125.562 385.137 125.818 386.153 126.332C387.179 126.844 387.952 127.557 388.475 128.471C388.997 129.385 389.257 130.438 389.257 131.632C389.257 132.881 388.997 133.958 388.475 134.863C387.952 135.758 387.183 136.443 386.167 136.918C385.151 137.394 383.892 137.631 382.391 137.631ZM395.939 125.562H402.554C403.963 125.562 405.184 125.79 406.219 126.248C407.254 126.704 408.051 127.38 408.61 128.275C409.179 129.161 409.463 130.252 409.463 131.548C409.463 132.508 409.258 133.38 408.848 134.164C408.447 134.947 407.892 135.603 407.184 136.135C406.475 136.658 405.654 137.016 404.723 137.212L404.121 137.436H397.058L397.031 135.967H402.946C404.008 135.967 404.894 135.762 405.603 135.352C406.312 134.942 406.843 134.401 407.197 133.73C407.561 133.049 407.743 132.322 407.743 131.548C407.743 130.625 407.543 129.828 407.142 129.157C406.75 128.476 406.167 127.954 405.394 127.59C404.619 127.226 403.673 127.045 402.554 127.045H397.66V145.926H395.939V125.562ZM408.512 145.926L403.24 136.821L405.085 136.806L410.344 145.744V145.926H408.512ZM432.088 134.652V136.835C432.088 138.262 431.901 139.552 431.529 140.709C431.165 141.855 430.633 142.84 429.934 143.66C429.244 144.48 428.414 145.11 427.444 145.547C426.475 145.986 425.384 146.205 424.173 146.205C422.988 146.205 421.907 145.986 420.928 145.547C419.959 145.11 419.124 144.48 418.424 143.66C417.726 142.84 417.184 141.855 416.802 140.709C416.42 139.552 416.229 138.262 416.229 136.835V134.652C416.229 133.226 416.416 131.94 416.788 130.792C417.171 129.636 417.711 128.648 418.41 127.828C419.11 127.008 419.944 126.377 420.914 125.939C421.883 125.501 422.96 125.282 424.144 125.282C425.356 125.282 426.447 125.501 427.417 125.939C428.387 126.377 429.221 127.008 429.92 127.828C430.62 128.648 431.155 129.636 431.529 130.792C431.901 131.94 432.088 133.226 432.088 134.652ZM430.382 136.835V134.625C430.382 133.422 430.242 132.34 429.962 131.38C429.692 130.42 429.286 129.599 428.746 128.919C428.214 128.238 427.561 127.716 426.788 127.352C426.013 126.988 425.132 126.807 424.144 126.807C423.184 126.807 422.321 126.988 421.557 127.352C420.793 127.716 420.14 128.238 419.6 128.919C419.068 129.599 418.657 130.42 418.369 131.38C418.089 132.34 417.949 133.422 417.949 134.625V136.835C417.949 138.047 418.089 139.138 418.369 140.107C418.657 141.068 419.073 141.893 419.613 142.583C420.154 143.264 420.806 143.786 421.571 144.15C422.345 144.513 423.212 144.695 424.173 144.695C425.17 144.695 426.051 144.513 426.815 144.15C427.58 143.786 428.228 143.264 428.759 142.583C429.291 141.893 429.692 141.068 429.962 140.107C430.242 139.138 430.382 138.047 430.382 136.835ZM445.356 143.394L451.776 125.562H453.65L446.07 145.926H444.685L445.356 143.394ZM438.728 125.562L445.119 143.394L445.818 145.926H444.42L436.854 125.562H438.728ZM465.156 126.778L458.108 145.926H456.318L464.009 125.562H465.254L465.156 126.778ZM471.561 145.926L464.499 126.778L464.401 125.562H465.646L473.351 145.926H471.561ZM470.303 138.737V140.219H459.493V138.737H470.303ZM484.243 125.562V145.926H482.536V125.562H484.243ZM491.221 125.562V127.045H475.572V125.562H491.221ZM510.056 144.457V145.926H498.603V144.457H510.056ZM499.12 125.562V145.926H497.4V125.562H499.12ZM508.629 134.694V136.163H498.603V134.694H508.629ZM509.986 125.562V127.045H498.603V125.562H509.986ZM533.111 126.778L526.063 145.926H524.273L531.965 125.562H533.21L533.111 126.778ZM539.516 145.926L532.454 126.778L532.356 125.562H533.601L541.306 145.926H539.516ZM538.258 138.737V140.219H527.447V138.737H538.258ZM554.114 137.631H548.31V136.163H554.114C555.326 136.163 556.31 135.967 557.065 135.576C557.829 135.175 558.384 134.634 558.729 133.954C559.083 133.273 559.26 132.508 559.26 131.66C559.26 130.83 559.083 130.066 558.729 129.366C558.384 128.667 557.829 128.107 557.065 127.687C556.31 127.259 555.326 127.045 554.114 127.045H548.912V145.926H547.191V125.562H554.114C555.606 125.562 556.859 125.818 557.875 126.332C558.902 126.844 559.675 127.557 560.197 128.471C560.719 129.385 560.98 130.438 560.98 131.632C560.98 132.881 560.719 133.958 560.197 134.863C559.675 135.758 558.906 136.443 557.89 136.918C556.874 137.394 555.615 137.631 554.114 137.631ZM572.459 126.778L565.411 145.926H563.621L571.313 125.562H572.557L572.459 126.778ZM578.864 145.926L571.801 126.778L571.704 125.562H572.949L580.654 145.926H578.864ZM577.605 138.737V140.219H566.795V138.737H577.605ZM586.497 125.562H593.112C594.519 125.562 595.741 125.79 596.776 126.248C597.811 126.704 598.608 127.38 599.167 128.275C599.736 129.161 600.02 130.252 600.02 131.548C600.02 132.508 599.815 133.38 599.405 134.164C599.005 134.947 598.449 135.603 597.741 136.135C597.032 136.658 596.212 137.016 595.279 137.212L594.678 137.436H587.616L587.588 135.967H593.504C594.566 135.967 595.452 135.762 596.161 135.352C596.869 134.942 597.401 134.401 597.755 133.73C598.119 133.049 598.3 132.322 598.3 131.548C598.3 130.625 598.099 129.828 597.699 129.157C597.307 128.476 596.725 127.954 595.95 127.59C595.177 127.226 594.231 127.045 593.112 127.045H588.217V145.926H586.497V125.562ZM599.069 145.926L593.797 136.821L595.643 136.806L600.902 145.744V145.926H599.069ZM613.317 125.562V145.926H611.611V125.562H613.317ZM620.295 125.562V127.045H604.647V125.562H620.295ZM632.04 126.778L624.991 145.926H623.201L630.893 125.562H632.138L632.04 126.778ZM638.445 145.926L631.383 126.778L631.285 125.562H632.53L640.235 145.926H638.445ZM637.187 138.737V140.219H626.376V138.737H637.187ZM646.652 125.562H648.385L655.909 143.492L663.448 125.562H665.167L656.566 145.926H655.253L646.652 125.562ZM646.12 125.562H647.645L647.826 137.031V145.926H646.12V125.562ZM664.203 125.562H665.727V145.926H664.006V137.031L664.203 125.562ZM686.421 144.457V145.926H674.968V144.457H686.421ZM675.485 125.562V145.926H673.765V125.562H675.485ZM684.995 134.694V136.163H674.968V134.694H684.995ZM686.352 125.562V127.045H674.968V125.562H686.352ZM708.095 125.562V145.926H706.361L694.656 128.527V145.926H692.935V125.562H694.656L706.389 142.961V125.562H708.095ZM722.566 125.562V145.926H720.86V125.562H722.566ZM729.545 125.562V127.045H713.896V125.562H729.545ZM747.024 140.919C747.024 140.359 746.93 139.86 746.744 139.422C746.557 138.983 746.249 138.592 745.821 138.247C745.401 137.893 744.833 137.566 744.115 137.269C743.405 136.96 742.52 136.658 741.457 136.359C740.441 136.07 739.523 135.753 738.703 135.408C737.882 135.063 737.178 134.667 736.591 134.219C736.012 133.772 735.569 133.25 735.262 132.653C734.954 132.047 734.801 131.343 734.801 130.541C734.801 129.757 734.969 129.044 735.304 128.401C735.64 127.758 736.111 127.203 736.717 126.736C737.332 126.27 738.054 125.911 738.884 125.659C739.723 125.408 740.642 125.282 741.639 125.282C743.066 125.282 744.296 125.552 745.331 126.094C746.376 126.634 747.182 127.367 747.75 128.289C748.329 129.203 748.617 130.229 748.617 131.366H746.898C746.898 130.48 746.688 129.692 746.268 129.002C745.858 128.303 745.261 127.758 744.478 127.367C743.704 126.966 742.758 126.765 741.639 126.765C740.52 126.765 739.579 126.937 738.814 127.282C738.059 127.618 737.485 128.07 737.094 128.639C736.712 129.198 736.521 129.823 736.521 130.513C736.521 130.998 736.614 131.445 736.801 131.856C736.987 132.257 737.29 132.634 737.71 132.988C738.138 133.334 738.703 133.66 739.401 133.968C740.101 134.266 740.963 134.55 741.989 134.82C743.07 135.119 744.031 135.45 744.87 135.813C745.709 136.177 746.418 136.596 746.995 137.073C747.574 137.539 748.012 138.084 748.31 138.708C748.609 139.334 748.757 140.06 748.757 140.891C748.757 141.721 748.58 142.466 748.226 143.128C747.881 143.781 747.391 144.336 746.757 144.792C746.133 145.25 745.392 145.599 744.534 145.842C743.685 146.084 742.758 146.205 741.751 146.205C740.847 146.205 739.947 146.089 739.052 145.856C738.157 145.623 737.336 145.264 736.591 144.779C735.854 144.284 735.262 143.65 734.814 142.877C734.376 142.103 734.157 141.179 734.157 140.107H735.863C735.863 140.965 736.036 141.688 736.381 142.275C736.725 142.863 737.183 143.338 737.752 143.702C738.329 144.066 738.963 144.331 739.654 144.499C740.352 144.658 741.052 144.737 741.751 144.737C742.823 144.737 743.751 144.578 744.534 144.261C745.326 143.944 745.937 143.501 746.366 142.932C746.804 142.355 747.024 141.683 747.024 140.919Z" fill="white"/>
<path d="M561.913 204.168L564.485 212.085H572.809L566.074 216.977L568.646 224.894L561.913 220.002L555.179 224.894L557.751 216.977L551.017 212.085H559.341L561.913 204.168Z" fill="white"/>
<path d="M594.936 196.63L599.47 203.611L607.509 201.456L602.271 207.926L606.805 214.907L599.033 211.924L593.796 218.393L594.231 210.08L586.46 207.097L594.5 204.942L594.936 196.63Z" fill="white"/>
<path d="M629.115 184.116L635.3 189.686L642.509 185.525L639.124 193.128L645.309 198.699L637.031 197.829L633.646 205.434L631.915 197.291L623.638 196.42L630.846 192.259L629.115 184.116Z" fill="white"/>
<path d="M528.681 196.63L524.148 203.611L516.107 201.456L521.346 207.926L516.812 214.907L524.583 211.924L529.822 218.393L529.385 210.08L537.157 207.097L529.116 204.942L528.681 196.63Z" fill="white"/>
<path d="M494.501 184.116L488.316 189.686L481.107 185.525L484.492 193.128L478.307 198.699L486.585 197.829L489.97 205.434L491.701 197.291L499.979 196.42L492.77 192.259L494.501 184.116Z" fill="white"/>
</g>
<defs>
<clipPath id="clip0_115_1982">
<rect width="876" height="280" fill="white"/>
</clipPath>
</defs>
</svg>
