<svg width="876" height="281" viewBox="0 0 876 281" fill="none" xmlns="http://www.w3.org/2000/svg">
<path d="M320.221 116.632L298.069 150.229C298.069 150.229 299.468 132.614 299.817 128.415C300.051 125.148 299.701 116.632 291.889 116.632C284.311 116.632 256.796 116.632 256.796 116.632L233.828 179.16H261.227L277.899 133.897L274.401 179.16H298.768L328.732 134.714L312.409 179.16H340.041L363.009 116.632H320.221V116.632Z" fill="white"/>
<path d="M469.804 177.993C468.522 178.226 458.028 180.209 446.953 180.559C427.249 181.143 410.227 173.21 409.994 159.095C409.761 134.48 434.594 121.065 452.899 117.215C461.06 115.582 476.916 113.716 492.655 117.565L483.445 139.497C480.763 133.547 474.001 133.431 471.32 133.314C464.674 133.197 459.078 134.947 454.997 136.814C445.787 141.013 437.625 154.662 450.8 159.911C458.028 162.828 467.356 160.495 477.032 158.978L469.804 177.993Z" fill="white"/>
<path d="M751.366 179.16H721.053L744.021 116.632H774.334L751.366 179.16Z" fill="white"/>
<path d="M387.726 179.16H357.413L380.497 116.632H410.81L387.726 179.16Z" fill="white"/>
<path d="M551.066 116.632L542.789 139.147H527.516L535.793 116.632H506.996L484.028 179.16H512.825L520.637 157.928H535.91L528.098 179.16H556.896L579.981 116.632H551.066Z" fill="white"/>
<path d="M689.808 158.395L705.197 116.632H675.7L652.732 179.16H711.843L719.538 158.395H689.808Z" fill="white"/>
<path d="M848.951 116.632L833.212 159.562C833.445 155.245 834.261 138.214 834.844 128.298C835.077 124.215 834.145 121.182 832.279 119.082C829.947 116.632 826.799 116.632 826.799 116.632H791.59L768.622 179.16H794.155L810.477 134.831L808.612 179.16H851.4L874.368 116.632H848.951V116.632Z" fill="white"/>
<path d="M608.778 162.245L611.343 155.362H644.221L649.934 139.963H617.056L619.504 132.964H654.015L660.194 116.632H597.003L574.035 179.16H637.809L643.988 162.245H608.778Z" fill="white"/>
<path d="M38.4253 209.723L32.7124 225.238H734.461L740.058 209.723H38.4253Z" fill="white"/>
<path d="M219.138 196.891C218.555 195.841 218.322 194.792 218.439 193.625C218.905 187.559 217.506 181.959 214.241 176.827C211.793 173.094 208.762 170.061 204.914 167.727C201.417 165.628 197.686 164.461 193.722 163.761C193.022 163.645 192.672 163.295 192.323 162.828C188.359 159.212 184.045 156.062 179.148 153.729C177.632 152.912 176.233 151.979 174.718 151.162C175.067 149.879 176.35 149.763 177.166 149.179C179.614 147.546 182.179 146.263 184.278 143.93C187.076 140.663 188.592 136.93 189.524 132.964C189.874 130.981 189.874 129.115 189.524 127.131C188.592 123.165 187.542 119.315 185.327 115.932C185.094 115.583 184.978 115.233 184.978 114.649C185.211 112.433 185.211 110.216 185.327 108C184.744 107.067 185.327 105.9 184.861 104.967C184.395 103.45 183.928 101.817 183.578 100.301C181.83 92.9514 177.749 87.4686 171.22 83.7356C170.287 83.1523 169.588 82.4524 169.121 81.5191C168.189 79.536 166.556 78.2528 164.691 77.0862C162.942 76.0363 160.96 75.803 159.095 75.1031C157.929 74.7531 156.763 74.8698 155.597 75.1031C151.633 75.6864 147.902 76.7363 145.337 80.1193C144.871 80.7025 144.055 81.2858 143.239 81.6358C138.925 83.3856 135.427 86.0687 132.046 89.2184C127.383 93.6513 125.284 99.2508 123.185 104.967C122.602 106.367 122.253 107.767 121.203 108.817C117.589 112.2 115.141 116.166 114.091 121.065C113.159 125.265 113.392 129.465 114.674 133.431C115.491 135.997 116.89 138.68 118.872 140.663C118.755 141.947 117.589 141.013 117.123 141.597C115.84 141.83 114.558 141.947 113.275 141.713C112.109 142.18 110.827 141.713 109.544 142.063C106.28 142.53 102.899 142.997 99.6344 143.58C98.8183 143.696 98.1188 143.58 97.5358 143.23C93.5718 140.43 89.1414 139.264 84.4778 138.564C82.4958 138.33 80.6304 138.33 78.6484 138.564C74.5678 140.197 70.6038 138.914 66.6397 138.097C65.4738 135.064 64.308 132.381 62.2094 130.048C61.0435 128.765 60.2273 127.131 59.8776 125.265C59.0615 120.249 57.0794 115.816 53.1154 112.316C51.4832 110.8 49.6178 109.633 47.7523 108.467C47.4026 107.183 48.1021 106.133 48.2187 104.967C48.5685 100.534 49.268 96.2177 49.9675 91.9015C50.7836 86.652 51.4832 81.2858 52.5325 76.0363C52.9988 73.8199 52.4159 72.3034 51.1334 70.7868C48.1021 67.2872 40.5238 68.1038 38.5418 72.3034C37.8423 73.8199 37.0261 75.3364 36.3266 76.8529C35.7437 76.6196 35.6271 76.2696 35.3939 75.9197C32.9455 71.2535 30.4972 66.5872 28.1654 61.921C26.9995 59.5879 25.6004 57.6048 23.1521 56.5549C21.9862 56.0883 20.8203 56.2049 19.6544 56.4382C17.9056 57.2548 16.9728 55.6216 15.5738 55.2717C14.4079 55.0384 13.242 55.0384 12.0761 55.2717C9.27798 55.7383 7.41255 57.3715 6.82961 60.2878C6.71302 61.1044 6.36325 62.271 5.43054 62.621C2.74899 63.9042 2.04946 66.2373 2.28264 68.8037C2.39923 70.5535 2.16605 72.1867 1.46652 73.8199C1.00016 74.8698 1.23334 78.1361 1.46652 80.2359C1.69969 82.6857 2.63241 85.0188 3.33194 87.4686C5.19736 93.768 7.9955 99.6007 10.7936 105.433C12.6591 109.166 14.4079 113.016 17.206 116.166C15.807 118.732 14.0581 121.065 13.7084 124.098C13.242 125.032 13.8249 126.198 13.242 127.248C13.242 128.065 13.242 128.998 13.242 129.814C13.8249 130.748 13.242 131.914 13.7084 132.848C14.1747 133.547 13.9415 134.481 14.1747 135.297C14.9908 137.864 16.1567 140.313 17.3226 142.763C16.9728 144.513 16.9728 146.263 17.3226 148.013C17.4392 148.713 17.5558 149.413 17.5558 149.996C17.789 152.562 18.4885 155.012 19.6544 157.229C21.8696 161.661 25.1341 165.394 29.5645 167.844C30.8469 168.544 31.5465 169.477 32.1294 170.644C34.5778 175.077 37.8423 178.693 42.5058 181.143C43.6717 181.726 44.9542 181.843 45.8869 183.009C47.4026 184.876 49.1514 186.392 51.1334 187.792C54.0481 189.892 57.196 191.175 60.6937 191.642C62.2094 191.875 63.4918 192.225 64.1914 193.275C65.5904 195.025 67.5725 195.841 69.4379 196.775C70.4872 197.358 71.8862 197.125 72.9355 198.058C72.9355 198.641 72.819 199.341 72.819 200.041C72.5858 201.208 72.4692 202.374 72.819 203.541C73.1687 205.641 73.0521 207.974 74.1014 209.957C75.7337 210.657 77.4825 210.19 79.1148 210.307C80.0475 209.49 79.4645 208.44 79.2313 207.624C78.9982 206.34 78.5318 204.941 78.4152 203.657C78.182 200.391 78.5318 200.041 81.7963 199.808C89.3746 199.458 96.3699 196.891 101.267 191.292C105.231 186.742 108.262 186.859 113.625 188.609C139.858 197.475 166.673 202.841 194.538 200.274C197.219 200.041 198.502 200.974 199.318 203.307C199.551 204.124 199.784 204.941 200.017 205.874C200.134 206.34 200.367 206.807 200.367 207.274C200.251 209.723 201.3 210.657 203.865 210.423C206.43 210.19 208.995 210.423 211.676 210.423C212.026 210.307 212.259 210.19 212.493 210.073C212.493 210.073 212.493 210.073 212.376 210.073C213.775 207.857 215.174 205.524 216.69 202.957C217.739 205.407 217.972 207.624 218.089 209.957C218.205 210.073 218.439 210.307 218.555 210.423C219.954 210.307 221.47 210.773 222.752 210.073C222.403 205.174 221.47 200.858 219.138 196.891ZM21.17 119.432C21.753 119.665 22.3359 119.899 22.9189 120.132C23.2686 122.349 23.9682 124.565 25.0175 126.665C26.5331 129.581 28.8649 130.514 32.3626 129.231C32.246 128.181 31.3133 127.948 30.6138 127.598C29.4479 126.781 28.6317 125.848 28.3986 124.332C28.1654 123.398 28.0488 122.465 27.699 121.532C27.1161 119.899 26.8829 118.382 28.282 116.982C28.3986 116.866 28.3986 116.399 28.3986 116.166C28.0488 115.816 27.699 115.699 27.3493 115.699C23.9682 116.049 21.8696 114.183 20.1207 111.733C18.3719 109.4 16.9728 106.833 15.6904 104.267C11.9595 96.801 8.69503 89.1017 6.82961 80.9359C6.36325 79.0694 6.24666 77.3195 6.36325 75.453C6.47984 73.8199 7.87891 73.2366 9.27798 74.1698C10.3273 74.8698 10.9102 76.0363 11.26 77.3195C11.7263 80.2359 12.3093 83.0357 13.4752 85.7187C14.2913 87.5852 14.9908 89.4517 16.5065 90.7349C17.9056 90.2683 17.6724 89.4517 17.206 88.5185C16.5065 87.1186 15.6904 85.8354 15.1074 84.4355C14.2913 82.1024 13.8249 79.7693 13.3586 77.4362C12.6591 73.9365 11.1434 72.42 7.76232 71.3701C7.52914 70.7868 7.29596 70.0869 7.17938 69.5036C6.9462 68.1038 7.41255 67.1705 8.46185 66.5872C9.62774 66.004 10.5605 66.4706 11.3766 67.2872C12.3093 68.3371 13.0088 69.6203 13.4752 71.0201C15.1074 75.5697 16.7397 80.1193 19.3046 84.3189C19.5378 84.7855 19.6544 85.2521 20.0042 85.6021C20.5871 86.302 21.2866 86.4187 21.9862 85.4854C22.1028 84.6688 21.6364 83.9689 21.17 83.3856C18.6051 79.186 16.8563 74.7531 15.3406 70.0869C14.8742 68.4537 14.1747 67.0539 13.0088 65.7707C11.8429 64.7208 11.4932 63.3209 11.4932 61.8044C11.6098 59.9379 13.1254 59.1213 14.8742 59.9379C16.1567 60.5212 16.6231 61.6877 17.0894 62.8543C19.5378 68.8037 21.9862 74.6365 24.4345 80.5859C24.7843 81.2858 25.0175 81.9858 25.4838 82.6857C25.717 83.0357 26.1834 83.1523 26.5331 82.919C26.9995 82.6857 27.3493 82.3357 27.1161 81.7524C26.8829 81.0525 26.6497 80.4692 26.3 79.886C24.2014 74.7531 21.9862 69.7369 19.8876 64.6041C19.6544 64.1375 19.5378 63.6709 19.3046 63.3209C18.9549 62.621 18.7217 61.8044 19.4212 61.2211C20.1207 60.6378 21.6364 60.6378 22.3359 61.3377C22.6857 61.6877 22.9189 62.1543 23.1521 62.5043C27.3493 70.6702 31.6631 78.8361 35.7437 86.8853C35.3939 88.2851 34.228 89.335 34.228 90.9682C35.8603 89.4517 37.0261 87.9352 37.7257 86.0687C38.6584 83.3856 40.0575 80.9359 40.6404 78.1361C40.8736 77.0862 41.3399 76.153 41.9229 75.2197C42.6224 74.0532 43.5551 73.1199 45.0708 72.8866C47.0528 72.6533 47.7523 73.2366 47.5192 75.3364C46.703 81.1692 45.7703 87.0019 44.8376 92.8347C44.2547 96.3344 43.5551 99.9507 43.4385 103.45C43.4385 104.85 42.8556 106.133 42.2727 107.3C41.6897 108.817 41.6897 110.216 42.0395 111.85C42.739 114.999 43.7883 118.032 43.4385 121.882C46.3533 118.849 46.2367 115.932 45.1874 112.783C49.0348 112.899 53.3486 118.382 54.9808 124.915C57.5458 135.064 52.9988 142.18 46.4699 145.796C37.9589 150.462 28.9815 148.363 24.0848 143.113C18.7217 137.514 15.5738 127.015 21.17 119.432ZM23.1521 152.796C22.6857 151.629 22.5691 150.462 21.9862 148.479C27.1161 151.396 31.7796 153.379 37.2593 153.262C42.6224 153.146 47.286 151.512 51.5998 148.479C56.0301 145.33 58.7117 141.013 60.2273 135.531C62.0928 137.514 62.5591 140.08 62.9089 142.413C63.4918 146.496 63.0255 150.579 61.5098 154.545C58.7117 162.361 49.1514 168.894 39.1247 166.561C31.3133 164.928 26.0668 160.028 23.1521 152.796ZM38.5418 171.46C46.3533 172.51 53.3486 170.877 59.178 165.744C65.1241 160.612 67.689 153.846 67.689 145.33C75.7337 153.496 75.1507 166.328 66.6397 173.677C56.6131 182.309 44.3713 178.926 38.5418 171.46ZM64.5411 187.092C60.9269 186.859 57.5458 185.692 54.0481 183.709C74.1014 181.843 84.4778 161.311 73.9848 145.213C75.0341 144.513 76.0834 145.096 76.8996 145.68C83.8949 149.763 87.6258 155.829 87.8589 163.878C88.0921 170.177 86.2267 175.66 81.9129 180.326C77.2493 185.459 71.5365 187.559 64.5411 187.092ZM96.8363 187.559C92.0561 191.759 86.3433 193.975 79.9309 193.858C78.4152 193.858 76.8996 193.625 75.3839 193.275C73.9848 192.925 72.7024 192.342 70.9535 191.759C82.3792 189.075 89.4912 182.076 91.9395 171.111C94.5045 160.145 91.4732 150.696 82.4958 143.347C85.1774 142.763 87.8589 143.58 90.3073 144.63C98.4685 147.896 103.715 153.845 105.58 162.595C107.679 172.51 104.531 180.91 96.8363 187.559ZM194.071 194.442C186.377 195.491 178.565 195.258 170.87 194.792C162.826 194.208 154.898 193.042 147.086 191.525C135.077 189.192 123.069 186.626 111.76 181.726C110.71 181.26 109.544 181.143 108.495 180.093C112.926 168.544 111.293 157.695 103.365 147.896C105.814 146.963 108.495 147.079 111.06 146.73C113.742 146.38 116.423 146.496 119.221 146.263C122.836 145.913 125.867 146.963 128.548 149.179C129.598 149.996 130.764 150.696 131.813 151.396C132.512 151.862 133.212 152.096 134.028 151.746C133.795 150.579 132.629 150.113 132.163 149.179C131.813 148.479 131.347 147.779 131.93 147.079C132.396 146.496 133.212 146.613 133.795 146.73C135.544 147.079 137.409 147.429 139.158 147.896C139.624 147.896 140.441 148.596 140.324 147.429C135.544 145.913 130.88 144.163 126.683 141.363C119.221 136.347 115.84 126.315 120.037 117.916C121.786 114.299 124.351 111.266 128.315 109.866C129.131 109.633 129.948 109.4 130.53 108.467C129.948 107.767 129.015 108.117 128.432 107.417C128.432 107.183 128.199 106.95 128.315 106.717C128.782 102.167 130.764 98.2009 133.562 94.7012C137.642 89.5684 142.772 85.952 149.301 84.5522C150.117 84.4355 151.05 84.5522 151.633 83.7356C151.75 82.4524 150.234 83.269 150.001 82.4524C154.548 78.0195 162.359 78.7194 165.391 83.9689C165.041 84.3189 164.808 84.6688 164.225 85.2521C168.305 86.5353 171.686 88.7518 174.485 91.9015C177.399 95.1678 179.031 99.0174 179.848 103.334C180.547 107.417 181.363 111.5 179.498 115.816C181.363 118.149 183.229 120.832 184.045 124.098C185.211 128.998 185.211 133.664 182.762 138.214C181.247 140.897 179.148 142.997 176.467 144.513C173.319 146.263 169.938 147.429 166.556 148.479C166.207 148.596 165.857 148.829 165.507 148.946C165.507 148.946 165.507 149.179 165.507 149.413C167.139 150.346 169.121 149.996 170.987 150.462C172.153 153.146 169.588 153.962 168.422 155.595C170.52 155.362 172.619 155.362 174.368 156.412C178.449 158.628 182.646 160.961 186.26 163.995C190.457 167.494 194.188 171.46 197.103 176.01C198.735 178.576 199.901 181.26 200.834 184.176C201.183 185.342 201.3 186.509 201.3 187.559C201.183 191.409 198.618 193.858 194.071 194.442ZM205.73 209.024C205.847 204.124 204.448 200.041 202.116 196.308C202.233 195.258 203.049 194.908 203.515 194.325C205.497 191.992 206.197 189.192 205.964 186.276C205.73 181.959 204.098 178.11 201.766 174.377C200.95 173.094 200.134 171.694 199.318 170.411C203.748 170.644 210.277 177.293 212.376 183.826C215.524 192.808 213.075 203.191 205.73 209.024Z" fill="white"/>
<path d="M140.324 147.429C140.907 147.429 141.49 147.313 141.49 148.246C140.674 148.363 139.858 148.713 139.158 147.896C139.508 147.779 140.091 148.013 140.324 147.429Z" fill="white"/>
<path d="M141.49 124.565C141.14 124.798 140.674 124.915 140.324 125.148C139.508 125.148 139.158 126.081 138.225 126.431C137.759 124.798 138.692 123.982 139.741 123.398C140.557 122.932 141.606 122.232 142.423 123.632C142.306 123.982 141.606 123.982 141.49 124.565Z" fill="white"/>
<path d="M156.064 103.917C154.781 99.7171 150.118 98.2006 147.669 99.6005C146.154 100.534 144.988 101.7 144.288 103.333C142.773 106.716 142.306 110.216 143.355 113.716C144.172 116.399 146.037 117.799 148.835 118.149C151.517 118.499 153.499 117.449 154.781 115.116C156.064 113.016 156.53 110.683 156.647 107.766C156.763 106.716 156.413 105.2 156.064 103.917ZM153.732 114.066C153.266 114.532 153.032 115.116 152.333 115.349C152.683 114.649 153.032 114.066 153.149 113.366C153.382 112.083 153.499 110.916 153.382 109.866C153.382 109.05 153.149 108 152.916 107.066C152.1 104.383 149.185 103.45 146.737 105.55C147.319 106.25 148.136 106.716 148.019 107.883C147.902 109.283 147.436 109.75 145.804 109.516C145.454 109.516 144.988 109.4 144.871 109.866C144.405 112.199 144.638 112.666 144.871 113.832C144.405 112.783 143.589 109.4 144.521 106.716C144.755 105.9 144.988 105.083 145.454 104.383C146.387 102.4 148.019 101.467 150.118 101.584C152.449 101.7 154.082 102.867 154.781 105.2C155.83 108.35 155.131 111.149 153.732 114.066Z" fill="white"/>
<path d="M175.301 106.483C174.718 103.917 173.086 102.4 170.637 101.934C168.422 101.467 165.857 102.517 164.458 104.85C162.826 107.65 161.893 110.8 162.126 114.183C162.359 116.166 162.942 118.266 164.575 119.549C166.906 121.532 171.22 120.715 173.086 118.266C174.951 115.816 175.534 112.899 175.651 109.4C176 108.7 175.534 107.65 175.301 106.483ZM172.036 117.449C172.153 115.466 172.619 114.183 172.619 112.783C172.619 111.616 172.386 110.45 171.92 109.4C170.987 107.067 169.005 106.483 166.557 107.883C166.557 108.7 167.023 108.933 167.256 109.283C167.956 110.1 167.723 110.916 167.14 111.733C166.557 112.549 165.741 112.666 164.924 111.966C164.691 111.733 164.575 111.849 164.341 111.966C163.759 113.716 163.759 115.816 163.875 116.749C163.292 115.466 163.292 112.199 163.759 110.216C163.992 108.933 164.341 107.767 165.041 106.6C166.207 104.85 168.422 103.8 170.288 104.267C172.386 104.733 173.785 106.133 174.135 108.466C174.485 111.383 174.485 114.299 172.036 117.449Z" fill="white"/>
<path d="M172.503 126.665C170.637 127.948 168.772 128.531 166.79 128.765C157.929 129.931 149.535 128.415 141.607 124.448C140.907 124.098 140.674 124.565 140.441 125.032C140.324 126.432 141.49 126.898 142.423 127.131C145.221 127.831 147.086 129.815 149.068 131.564C153.499 135.647 160.028 137.047 165.741 132.848C167.956 131.214 169.938 129.348 172.969 129.231C173.435 129.231 173.669 128.765 173.785 128.181C173.669 127.248 173.086 126.781 172.503 126.665ZM149.535 129.698C154.781 131.098 159.561 131.214 164.458 131.098C160.96 134.714 155.131 134.247 149.535 129.698Z" fill="white"/>
</svg>
