<svg width="876" height="281" viewBox="0 0 876 281" fill="none" xmlns="http://www.w3.org/2000/svg">
<g clip-path="url(#clip0_50_564)">
<path d="M146.114 151.428H0V185.832H37.8125V265.98H108.029V185.836H146.114V151.428" fill="white"/>
<path d="M145.753 151.429L211.921 215.845V265.981H281.869V215.845L348.037 151.429H269.178L255.403 169.121C252.434 173.017 249.726 177.075 247.298 181.293C245.14 177.565 242.708 173.986 240.277 170.414L225.431 151.429H145.749H145.753ZM349.397 151.429V265.981H414.754V223.96L450.135 265.985H524.131L477.949 220.076C483.891 218.774 488.213 217.633 493.345 215.524C501.991 211.8 513.338 204.493 513.338 189.564C513.338 177.726 505.763 170.744 500.908 167.016C487.133 156.141 467.152 152.57 445.276 151.754C439.595 151.433 433.933 151.433 428.264 151.433H349.397V151.429ZM414.754 182.422H423.943C426.639 182.422 445.549 181.45 445.549 191.834C445.549 194.759 443.924 196.691 442.837 197.671C438.516 201.576 431.221 201.729 424.216 201.729H414.754V182.422ZM825.669 159.226C817.018 156.792 801.354 151.593 777.324 149.328C771.128 148.726 764.908 148.403 758.682 148.359C729.793 148.359 700.347 155.008 686.841 171.555C684.418 174.476 679.823 180.803 679.823 189.729C679.823 210.165 704.941 217.139 716.288 219.581C723.851 221.044 736.269 222.663 744.374 223.466C749.506 224.113 758.145 224.772 758.145 229.48C758.145 233.039 751.926 236.45 740.049 236.45C723.037 236.45 706.558 229.637 693.325 224.117L671.189 255.596C684.149 259.646 710.891 268.572 749.506 268.572C772.192 268.572 790.561 265.491 807.573 256.412C827.286 245.533 829.713 233.529 829.713 227.206C829.713 219.413 826.207 204.007 794.34 196.534C786.235 194.759 772.192 192.806 763.814 191.67C758.418 191.023 749.506 190.376 749.506 185.832C749.506 182.265 754.638 180.144 765.17 179.987C780.297 179.987 792.715 184.374 805.398 188.914L825.669 159.226ZM531.109 151.429V265.981H661.009V234.019H595.917V223.309H654.261V192.806H595.917V183.39H659.116V151.429H531.109V151.429ZM29.9844 59.9957V116.836H0.0561523V33.0359H93.9937C110.196 33.0359 117.338 34.7834 125.687 41.2311C133.901 47.5703 136.248 57.8826 136.477 66.2868C136.485 66.4997 136.541 116.836 136.477 116.78H106.552V87.755C106.32 78.7684 108.113 68.1708 103.68 63.4385C98.9851 58.4089 91.4178 60.3211 81.9726 59.9957C81.7319 59.9877 30.0446 59.9957 29.9844 59.9957V59.9957ZM469.483 116.8H499.407V32.9997H469.483V116.8V116.8ZM572.208 58.8387C542.295 58.8387 539.062 67.0299 539.062 76.5509C539.062 85.2723 545.517 92.1459 570.739 92.1459L639.226 92.2543L619.044 117.161C619.104 117.222 553.679 117.001 553.442 116.993C520.93 116 510.016 97.1674 509.956 74.3775C509.904 53.0218 524.396 33.4537 566.647 33.1363L680.594 33.301L680.417 116.936L650.665 117.101V59.0115C650.738 59.0637 572.456 58.8387 572.208 58.8387V58.8387ZM723.245 59.827V116.671H693.317V32.8671H787.258C803.46 32.8671 810.602 34.6147 818.948 41.0624C827.153 47.4096 829.517 57.7139 829.741 66.122C829.741 66.335 829.802 116.671 829.741 116.607H799.813V87.5903C799.581 78.6037 801.378 68.0061 796.944 63.2698C792.242 58.2442 784.683 60.1564 775.229 59.827H723.245V59.827ZM214.838 58.208C192.156 58.208 173.768 58.5455 173.768 74.7592C173.768 90.9648 192.156 91.7803 214.838 91.7803H266.425C289.115 91.7803 307.504 90.9648 307.504 74.7592C307.504 58.5455 289.115 58.208 266.425 58.208H214.838ZM203.788 32.831H277.487C309.891 32.831 336.164 51.5996 336.164 74.7592C336.164 97.9147 309.891 116.691 277.487 116.691H203.788C171.388 116.691 145.111 97.9147 145.111 74.7592C145.111 51.5996 171.388 32.831 203.788 32.831V32.831ZM374.554 116.8H344.622V16.6053H374.554V116.796V116.8ZM377.126 67.6727L422.574 33.1283L465.146 33.301L414.678 68.203L464.712 116.852H424.224L377.122 67.6687L377.126 67.6727ZM854.129 23.0731C853.045 23.0731 852.082 23.2538 851.484 23.5551V33.072C851.906 33.1925 852.684 33.3131 853.41 33.3131C857.198 33.3131 859.12 31.445 859.12 28.1308C859.12 24.8206 857.499 23.0731 854.129 23.0731V23.0731ZM859.184 45.8429L851.601 34.1567H851.484V45.8429H848.054V22.2937C849.378 21.5706 851.545 21.0283 854.189 21.0283C859.782 21.0283 862.551 23.7359 862.551 27.954C862.551 31.7463 859.782 34.462 855.449 34.6388L863.213 45.8429H859.184V45.8429ZM854.67 15.4242C844.563 15.4242 836.803 23.7962 836.803 33.9116C836.803 44.0311 844.563 52.3991 854.67 52.3991C864.777 52.3991 872.533 44.0311 872.533 33.9116C872.533 23.7962 864.773 15.4242 854.67 15.4242V15.4242ZM854.67 55.3518C851.865 55.3565 849.086 54.8067 846.494 53.7339C843.901 52.6611 841.545 51.0864 839.562 49.1001C837.578 47.1138 836.006 44.755 834.935 42.1589C833.864 39.5629 833.315 36.7807 833.32 33.9719C833.32 29.7419 834.572 25.6066 836.919 22.0893C839.266 18.5719 842.602 15.8305 846.505 14.2117C850.408 12.593 854.703 12.1696 858.847 12.9953C862.991 13.8209 866.797 15.8584 869.783 18.85C872.77 21.8417 874.804 25.653 875.627 29.802C876.45 33.951 876.026 38.2511 874.407 42.1586C872.789 46.066 870.05 49.4051 866.536 51.7535C863.022 54.1019 858.891 55.3541 854.666 55.3518" fill="white"/>
</g>
<defs>
<clipPath id="clip0_50_564">
<rect width="876" height="256" fill="white" transform="translate(0 12.5718)"/>
</clipPath>
</defs>
</svg>
