<svg width="970" height="280" viewBox="0 0 970 280" fill="none" xmlns="http://www.w3.org/2000/svg">
<mask id="mask0_111_311" style="mask-type:alpha" maskUnits="userSpaceOnUse" x="0" y="37" width="970" height="206">
<path d="M608.63 95.3873C649.675 95.3873 680.862 127.459 680.862 169.194C680.862 211.134 649.675 243 608.63 243C567.987 243 536.398 211.134 536.398 169.194C536.398 127.459 567.987 95.3873 608.63 95.3873ZM443.355 97.443C486.815 97.443 516.794 127.459 516.794 169.605C516.794 211.339 486.211 242.589 442.952 242.589C431.635 242.589 421.611 241.505 412.557 241.369L410.759 241.355H396.273L396.072 241.15C396.072 241.15 397.041 231.439 397.077 214.546L397.078 125.197C397.078 108.041 396.108 98.0174 396.073 97.6586L396.072 97.6487L396.273 97.443H443.355ZM41.2469 97.443C68.8114 97.443 92.755 113.479 92.755 141.85C92.755 171.044 69.0127 188.313 41.2469 188.313C38.5579 188.313 30.919 187.939 27.0803 187.547L26.5587 187.491L26.3574 187.697L26.3584 214.547C26.393 231.126 27.3278 240.787 27.3624 241.14L27.3634 241.15L27.1626 241.355H0.200809L0 241.15C0 241.15 0.969728 231.439 1.00499 214.547L1.00598 213.601V125.198C1.00598 108.041 0.0362484 98.0175 0.00098557 97.6587L0 97.6487L0.200809 97.443H41.2469ZM165.542 97.443L165.742 97.6487C165.742 97.6487 166.687 101.701 169.489 108.495L169.766 109.161L219.866 225.936C224.182 235.558 227.733 240.88 227.908 241.14L227.915 241.15V241.355H200.149L199.947 241.15L199.929 241.103C199.736 240.62 198.068 236.407 195.382 228.931L195.118 228.197L185.863 206.2H124.697L116.045 228.197C112.723 236.585 112.058 240.123 112.023 241.073L112.021 241.15L111.82 241.355H84.0539V241.15C84.0539 241.15 87.8793 236.068 91.8003 226.668L92.102 225.936L139.586 109.161C142.51 102.191 143.357 97.9213 143.407 97.6613L143.409 97.6487L143.61 97.443H165.542ZM266.699 97.443L342.754 197.565H342.955L342.954 124.252C342.919 107.673 341.984 98.0108 341.95 97.6587L341.949 97.6487L342.15 97.443H366.697L366.898 97.6487C366.898 97.6487 365.929 107.36 365.893 124.252V214.547C365.928 231.126 366.863 240.787 366.897 241.14L366.898 241.15L366.697 241.355H343.76L267.302 139.794H267.101V213.601C267.101 230.758 268.071 240.781 268.106 241.14L268.107 241.15L267.906 241.355H243.359L243.158 241.15C243.158 241.15 244.128 231.439 244.163 214.547L244.164 111.834C244.164 108.879 242.685 104.602 239.906 98.4604L239.536 97.6487L239.737 97.443H266.699ZM750.287 97.443C777.852 97.443 795.759 118.413 795.759 142.261C795.759 159.476 782.483 176.69 768.046 180.344L767.389 180.501V180.707C772.411 182.088 777.433 186.312 780.853 191.74L781.272 192.425L794.954 215.451C803.89 230.537 811.701 240.448 812.229 241.114L812.258 241.15V241.355H780.065L779.864 241.15C779.864 241.15 775.98 231.426 766.876 216.268L766.383 215.451L754.915 196.537C750.189 188.891 745.077 186.168 732.223 186.056L731.374 186.052V213.601C731.374 230.758 732.344 240.781 732.379 241.14L732.38 241.15L732.178 241.355H705.217L705.016 241.15C705.016 241.15 705.986 231.439 706.022 214.546V124.252C705.987 107.673 705.051 98.0108 705.017 97.6586L705.016 97.6487L705.217 97.443H750.287ZM907.626 97.443L907.828 97.6487C907.828 97.6487 908.834 101.966 911.852 109.161L961.952 225.936C966.378 235.804 970 241.15 970 241.15V241.355H942.234L942.032 241.15C942.032 241.15 940.222 236.627 937.203 228.197L927.948 206.2H866.783L858.131 228.197C854.71 236.832 854.106 240.327 854.106 241.15L853.906 241.355H826.139V241.15C826.139 241.15 830.163 235.804 834.187 225.936L881.672 109.161C884.689 101.966 885.494 97.6487 885.494 97.6487L885.695 97.443H907.626ZM608.63 119.03C582.473 119.03 562.152 140.822 562.152 169.194C562.152 197.565 582.473 219.357 608.63 219.357C634.988 219.357 655.309 197.565 655.309 169.194C655.309 140.822 634.988 119.03 608.63 119.03ZM441.141 120.88H422.429V212.367C422.429 216.273 422.832 217.096 425.045 217.713C428.667 218.74 434.904 218.946 441.745 218.946C471.523 218.946 491.04 197.565 491.04 169.81C491.04 141.85 471.523 120.88 441.141 120.88ZM154.274 131.776H154.073L134.154 182.557H175.803L154.274 131.776ZM896.36 131.776H896.158L876.239 182.557H917.888L896.36 131.776ZM42.0514 121.086H26.3574V163.643C29.577 164.26 36.8201 164.671 40.0396 164.671C57.3429 164.671 67.0009 156.447 67.0009 141.85C67.0009 126.842 55.9344 121.086 42.0514 121.086ZM746.866 120.88H731.374V162.409C735.197 163.231 740.83 163.231 744.049 163.231C761.755 163.231 770.005 153.363 770.005 142.467C770.005 130.954 761.957 120.88 746.866 120.88ZM622.111 78.94C624.525 78.94 626.738 80.9962 626.738 83.6688C626.738 86.5472 624.525 88.6028 622.111 88.6028C619.495 88.6028 617.281 86.5472 617.281 83.6688C617.281 80.9962 619.495 78.94 622.111 78.94ZM595.149 78.94C597.564 78.94 599.777 80.9962 599.777 83.6688C599.777 86.5471 597.564 88.6029 595.149 88.6029C592.534 88.6029 590.32 86.5471 590.32 83.6688C590.32 80.9962 592.534 78.94 595.149 78.94ZM608.63 77.5012C611.044 77.5012 613.258 79.557 613.258 82.2296C613.258 85.108 611.044 87.1637 608.63 87.1637C606.014 87.1637 603.801 85.108 603.801 82.2296C603.801 79.557 606.014 77.5012 608.63 77.5012ZM632.975 42.7566L633.981 42.9623L634.183 43.168L628.348 74.8286L628.146 75.0338L620.098 73.1838L619.897 72.9782L632.774 42.9623L632.975 42.7566ZM584.284 42.7566L584.486 42.9623L597.363 72.9782L597.161 73.1838L589.113 75.0338L588.912 74.8286L583.077 43.168L583.278 42.9623L584.284 42.7566ZM609.234 37L609.435 37.2057L612.855 72.5667L612.654 72.7725H604.606L604.404 72.5667L608.026 37.2057L608.227 37H609.234Z" fill="white"/>
</mask>
<g mask="url(#mask0_111_311)">
<path d="M608.63 95.3873C649.675 95.3873 680.862 127.459 680.862 169.194C680.862 211.134 649.675 243 608.63 243C567.987 243 536.398 211.134 536.398 169.194C536.398 127.459 567.987 95.3873 608.63 95.3873ZM443.355 97.443C486.815 97.443 516.794 127.459 516.794 169.605C516.794 211.339 486.211 242.589 442.952 242.589C431.635 242.589 421.611 241.505 412.557 241.369L410.759 241.355H396.273L396.072 241.15C396.072 241.15 397.041 231.439 397.077 214.546L397.078 125.197C397.078 108.041 396.108 98.0174 396.073 97.6586L396.072 97.6487L396.273 97.443H443.355ZM41.2469 97.443C68.8114 97.443 92.755 113.479 92.755 141.85C92.755 171.044 69.0127 188.313 41.2469 188.313C38.5579 188.313 30.919 187.939 27.0803 187.547L26.5587 187.491L26.3574 187.697L26.3584 214.547C26.393 231.126 27.3278 240.787 27.3624 241.14L27.3634 241.15L27.1626 241.355H0.200809L0 241.15C0 241.15 0.969728 231.439 1.00499 214.547L1.00598 213.601V125.198C1.00598 108.041 0.0362484 98.0175 0.00098557 97.6587L0 97.6487L0.200809 97.443H41.2469ZM165.542 97.443L165.742 97.6487C165.742 97.6487 166.687 101.701 169.489 108.495L169.766 109.161L219.866 225.936C224.182 235.558 227.733 240.88 227.908 241.14L227.915 241.15V241.355H200.149L199.947 241.15L199.929 241.103C199.736 240.62 198.068 236.407 195.382 228.931L195.118 228.197L185.863 206.2H124.697L116.045 228.197C112.723 236.585 112.058 240.123 112.023 241.073L112.021 241.15L111.82 241.355H84.0539V241.15C84.0539 241.15 87.8793 236.068 91.8003 226.668L92.102 225.936L139.586 109.161C142.51 102.191 143.357 97.9213 143.407 97.6613L143.409 97.6487L143.61 97.443H165.542ZM266.699 97.443L342.754 197.565H342.955L342.954 124.252C342.919 107.673 341.984 98.0108 341.95 97.6587L341.949 97.6487L342.15 97.443H366.697L366.898 97.6487C366.898 97.6487 365.929 107.36 365.893 124.252V214.547C365.928 231.126 366.863 240.787 366.897 241.14L366.898 241.15L366.697 241.355H343.76L267.302 139.794H267.101V213.601C267.101 230.758 268.071 240.781 268.106 241.14L268.107 241.15L267.906 241.355H243.359L243.158 241.15C243.158 241.15 244.128 231.439 244.163 214.547L244.164 111.834C244.164 108.879 242.685 104.602 239.906 98.4604L239.536 97.6487L239.737 97.443H266.699ZM750.287 97.443C777.852 97.443 795.759 118.413 795.759 142.261C795.759 159.476 782.483 176.69 768.046 180.344L767.389 180.501V180.707C772.411 182.088 777.433 186.312 780.853 191.74L781.272 192.425L794.954 215.451C803.89 230.537 811.701 240.448 812.229 241.114L812.258 241.15V241.355H780.065L779.864 241.15C779.864 241.15 775.98 231.426 766.876 216.268L766.383 215.451L754.915 196.537C750.189 188.891 745.077 186.168 732.223 186.056L731.374 186.052V213.601C731.374 230.758 732.344 240.781 732.379 241.14L732.38 241.15L732.178 241.355H705.217L705.016 241.15C705.016 241.15 705.986 231.439 706.022 214.546V124.252C705.987 107.673 705.051 98.0108 705.017 97.6586L705.016 97.6487L705.217 97.443H750.287ZM907.626 97.443L907.828 97.6487C907.828 97.6487 908.834 101.966 911.852 109.161L961.952 225.936C966.378 235.804 970 241.15 970 241.15V241.355H942.234L942.032 241.15C942.032 241.15 940.222 236.627 937.203 228.197L927.948 206.2H866.783L858.131 228.197C854.71 236.832 854.106 240.327 854.106 241.15L853.906 241.355H826.139V241.15C826.139 241.15 830.163 235.804 834.187 225.936L881.672 109.161C884.689 101.966 885.494 97.6487 885.494 97.6487L885.695 97.443H907.626ZM608.63 119.03C582.473 119.03 562.152 140.822 562.152 169.194C562.152 197.565 582.473 219.357 608.63 219.357C634.988 219.357 655.309 197.565 655.309 169.194C655.309 140.822 634.988 119.03 608.63 119.03ZM441.141 120.88H422.429V212.367C422.429 216.273 422.832 217.096 425.045 217.713C428.667 218.74 434.904 218.946 441.745 218.946C471.523 218.946 491.04 197.565 491.04 169.81C491.04 141.85 471.523 120.88 441.141 120.88ZM154.274 131.776H154.073L134.154 182.557H175.803L154.274 131.776ZM896.36 131.776H896.158L876.239 182.557H917.888L896.36 131.776ZM42.0514 121.086H26.3574V163.643C29.577 164.26 36.8201 164.671 40.0396 164.671C57.3429 164.671 67.0009 156.447 67.0009 141.85C67.0009 126.842 55.9344 121.086 42.0514 121.086ZM746.866 120.88H731.374V162.409C735.197 163.231 740.83 163.231 744.049 163.231C761.755 163.231 770.005 153.363 770.005 142.467C770.005 130.954 761.957 120.88 746.866 120.88ZM622.111 78.94C624.525 78.94 626.738 80.9962 626.738 83.6688C626.738 86.5472 624.525 88.6028 622.111 88.6028C619.495 88.6028 617.281 86.5472 617.281 83.6688C617.281 80.9962 619.495 78.94 622.111 78.94ZM595.149 78.94C597.564 78.94 599.777 80.9962 599.777 83.6688C599.777 86.5471 597.564 88.6029 595.149 88.6029C592.534 88.6029 590.32 86.5471 590.32 83.6688C590.32 80.9962 592.534 78.94 595.149 78.94ZM608.63 77.5012C611.044 77.5012 613.258 79.557 613.258 82.2296C613.258 85.108 611.044 87.1637 608.63 87.1637C606.014 87.1637 603.801 85.108 603.801 82.2296C603.801 79.557 606.014 77.5012 608.63 77.5012ZM632.975 42.7566L633.981 42.9623L634.183 43.168L628.348 74.8286L628.146 75.0338L620.098 73.1838L619.897 72.9782L632.774 42.9623L632.975 42.7566ZM584.284 42.7566L584.486 42.9623L597.363 72.9782L597.161 73.1838L589.113 75.0338L588.912 74.8286L583.077 43.168L583.278 42.9623L584.284 42.7566ZM609.234 37L609.435 37.2057L612.855 72.5667L612.654 72.7725H604.606L604.404 72.5667L608.026 37.2057L608.227 37H609.234Z" fill="white"/>
</g>
</svg>
