<svg width="1185" height="280" viewBox="0 0 1185 280" fill="none" xmlns="http://www.w3.org/2000/svg">
<g clip-path="url(#clip0_50_271)">
<path fill-rule="evenodd" clip-rule="evenodd" d="M1 21.2419V134.362H22.0854V40.2124H77.6103L76.9075 134.362H98.6957V21.2419H1Z" fill="white"/>
<path fill-rule="evenodd" clip-rule="evenodd" d="M178.318 35.9966C200.106 35.9966 217.677 52.1567 217.677 76.748C217.677 98.529 200.809 116.797 178.318 116.797C155.827 116.797 138.958 97.1237 138.958 76.748C138.958 59.1828 151.61 35.9966 178.318 35.9966ZM178.318 17.0261C137.553 17.0261 117.873 49.3462 117.873 76.748C117.873 106.96 139.661 135.767 178.318 135.767C193.781 135.767 208.54 128.741 216.974 115.392H217.677V132.957H238.763V19.8366H217.677V35.9966H216.974C208.54 23.3496 193.781 17.0261 178.318 17.0261Z" fill="white"/>
<path fill-rule="evenodd" clip-rule="evenodd" d="M358.95 19.8364H337.865V62.6957H283.042V19.8364H261.957V132.957H283.042V82.3688H337.865V132.957H358.95V19.8364Z" fill="white"/>
<path fill-rule="evenodd" clip-rule="evenodd" d="M467.188 19.8364H373.006V40.2121H409.554V132.957H430.64V40.2121H467.188V19.8364Z" fill="white"/>
<path fill-rule="evenodd" clip-rule="evenodd" d="M533.256 116.797C510.062 116.797 493.194 97.1237 493.194 76.748C493.194 56.3723 509.359 36.6992 533.256 36.6992C557.153 36.6992 573.318 56.3723 573.318 76.748C574.021 97.1237 557.153 116.797 533.256 116.797ZM533.256 17.0261C498.114 17.0261 472.108 45.1306 472.108 76.0454C472.108 104.852 495.302 136.47 533.256 136.47C571.21 136.47 594.404 104.15 594.404 76.748C595.107 43.7253 567.696 17.0261 533.256 17.0261Z" fill="white"/>
<path fill-rule="evenodd" clip-rule="evenodd" d="M635.871 114.689V83.774H662.579C678.745 83.774 680.15 95.0158 680.15 99.9341C680.15 105.555 677.339 115.392 662.579 115.392H635.871V114.689ZM635.871 66.2088V38.1043H661.174C672.419 38.1043 675.933 45.833 675.933 51.4539C675.933 60.5879 668.202 64.8035 661.174 64.8035L635.871 66.2088ZM664.688 20.5391H614.786V133.659H663.282C689.287 133.659 701.939 117.499 701.939 99.9341C701.939 87.2871 694.207 76.0453 680.853 73.2349C690.693 69.7218 697.722 60.5879 697.722 50.0487C697.722 35.9965 687.882 20.5391 664.688 20.5391Z" fill="white"/>
<path fill-rule="evenodd" clip-rule="evenodd" d="M822.126 10L743.407 92.9081V19.8365H722.322V143.496L801.041 61.2906V132.957H822.126V10Z" fill="white"/>
<path fill-rule="evenodd" clip-rule="evenodd" d="M920.525 19.8364H845.32V132.957H867.109V38.8069H920.525V19.8364Z" fill="white"/>
<path fill-rule="evenodd" clip-rule="evenodd" d="M983.078 35.9966C1004.87 35.9966 1022.44 52.1567 1022.44 76.748C1022.44 98.529 1005.57 116.797 983.078 116.797C960.587 116.797 943.718 97.1237 943.718 76.748C943.016 59.1828 956.37 35.9966 983.078 35.9966ZM982.375 17.0261C941.61 17.0261 921.93 49.3462 921.93 76.748C921.93 106.96 943.718 135.767 982.375 135.767C997.838 135.767 1012.6 128.741 1021.03 115.392H1021.73V132.957H1042.82V19.8366H1021.73V35.9966H1021.03C1012.6 23.3496 998.54 17.0261 982.375 17.0261Z" fill="white"/>
<path fill-rule="evenodd" clip-rule="evenodd" d="M1125.76 116.797C1104.67 116.797 1087.1 99.2316 1087.1 76.748C1087.1 55.6697 1102.56 36.6992 1125.05 36.6992C1148.25 36.6992 1164.41 57.0749 1164.41 76.748C1164.41 100.637 1145.43 116.797 1125.76 116.797ZM1126.46 17.0261C1112.4 17.0261 1096.94 22.647 1086.4 37.4018H1085.69V19.8366H1066.01V170.898H1087.1V116.797H1087.8C1092.02 123.823 1103.97 135.767 1127.86 135.767C1163.71 135.767 1185.5 106.258 1185.5 77.4506C1185.5 47.2384 1165.11 17.0261 1126.46 17.0261Z" fill="white"/>
<path d="M1 267.885V196.219H25.5996C30.5196 196.219 35.4395 196.921 39.6566 197.624C43.8737 198.327 46.6851 199.732 48.7936 201.84C50.9021 203.947 53.0107 205.353 53.7135 208.163C55.1192 210.271 55.1192 212.379 55.1192 214.487V217.297C55.1192 219.405 55.1192 221.513 54.4164 222.215C54.4164 222.918 53.7135 224.323 52.3078 225.026C50.9021 227.134 48.0907 228.539 43.8737 229.944C48.0907 231.349 50.9021 232.755 52.3078 234.862C53.7135 236.97 55.1192 240.483 55.1192 243.996V248.212C55.1192 254.535 53.0107 259.454 47.3879 262.264C42.468 265.777 34.0338 267.182 23.4911 267.182L1 267.885ZM17.8683 205.353V225.026H25.5996C31.2224 225.026 34.7367 223.621 36.8452 222.215C38.2509 220.81 39.6566 218 39.6566 214.487C39.6566 210.974 38.2509 209.568 36.1423 207.461C34.0338 205.353 29.8167 205.353 24.1939 205.353H17.8683ZM17.8683 234.862V258.049H25.5996C29.1139 258.049 31.9253 257.346 33.331 256.643C34.7367 255.941 36.8452 255.238 37.548 253.833C38.9537 252.428 38.9537 251.725 38.9537 249.617C38.9537 247.509 39.6566 246.104 39.6566 244.699C39.6566 243.294 39.6566 241.186 38.9537 239.781C38.9537 239.078 38.2509 237.673 37.548 236.97C36.8452 235.565 34.7367 235.565 33.331 234.862C31.2224 234.16 28.411 234.16 25.5996 234.16L17.8683 234.862Z" fill="white"/>
<path d="M60.7422 267.885L87.4504 196.219H101.507L127.513 268.588H110.644L105.724 253.13H82.5304L77.6105 268.588L60.7422 267.885ZM102.913 243.294L95.1817 217.297H94.4788L86.7475 243.294H102.913Z" fill="white"/>
<path d="M152.815 196.219V258.751H169.683V196.219H186.551V258.751H203.42V196.219H220.288V268.588H135.946V196.219H152.815Z" fill="white"/>
<path d="M275.813 267.885V220.81H275.11L253.322 267.885H237.157V196.219H253.322V243.294H254.025L276.516 196.219H293.385V268.588H275.813V267.885Z" fill="white"/>
<path d="M339.772 267.885V196.219H364.372C369.292 196.219 374.212 196.921 378.429 197.624C382.646 199.029 385.458 199.732 387.566 201.84C389.675 203.245 391.783 205.353 392.486 208.163C393.892 210.271 393.892 212.379 393.892 214.487V217.297C393.892 219.405 393.892 221.513 393.189 222.215C392.486 223.621 391.783 225.026 391.08 225.728C389.675 227.134 386.16 229.241 382.646 230.647C386.863 232.052 389.675 233.457 391.08 235.565C392.486 237.673 393.892 241.186 393.892 244.699V248.915C393.892 255.238 391.783 260.156 386.16 262.967C381.24 266.48 372.806 267.885 362.264 267.885H339.772ZM356.641 205.353V225.026H364.372C369.995 225.026 373.509 223.621 375.618 222.215C377.023 220.81 378.429 218 378.429 214.487C378.429 210.974 377.023 208.866 374.915 207.461C372.806 206.055 368.589 205.353 363.669 205.353H356.641V205.353ZM356.641 234.862V258.049H364.372C367.886 258.049 370.698 257.346 372.103 256.643C373.509 255.941 375.618 255.238 377.023 253.833C378.429 252.428 378.429 251.725 378.429 249.617C378.429 247.509 379.132 246.104 379.132 244.699C379.132 243.294 379.132 241.186 378.429 239.781C377.726 238.375 377.023 236.97 377.023 236.268C375.618 234.862 374.212 234.862 372.103 234.16C370.698 233.457 367.183 233.457 364.372 233.457L356.641 234.862Z" fill="white"/>
<path d="M409.354 213.082C409.354 210.271 410.057 207.461 411.463 205.353C412.868 203.245 415.68 201.84 418.491 199.732C421.302 198.327 424.114 196.922 427.628 196.219C431.142 195.516 434.657 194.814 438.171 194.814C441.685 194.814 445.199 195.516 448.713 196.219C452.228 196.922 455.039 198.327 457.85 199.732C460.662 201.137 462.77 203.245 464.176 205.353C465.582 207.461 466.285 210.271 466.285 213.082V251.023C466.285 254.536 465.582 256.643 464.176 258.751C462.77 260.859 459.959 262.967 457.85 264.372C455.039 265.777 452.228 267.183 448.713 267.885C445.199 268.588 441.685 269.29 438.171 269.29C434.657 269.29 431.142 268.588 427.628 267.885C424.114 267.183 421.302 266.48 418.491 264.372C415.68 262.967 413.571 260.859 411.463 258.751C410.057 256.643 409.354 253.833 409.354 251.023C409.354 251.023 409.354 213.082 409.354 213.082ZM426.222 250.32C426.222 253.13 427.628 254.536 429.737 255.941C431.845 257.346 434.656 257.346 437.468 257.346C440.279 257.346 443.091 256.643 445.199 255.941C447.308 254.536 448.713 253.13 448.713 250.32V212.379C448.713 209.569 447.308 208.163 445.199 206.758C443.091 205.353 440.279 205.353 437.468 205.353C434.656 205.353 431.845 206.055 429.737 206.758C427.628 208.163 426.222 209.569 426.222 212.379V250.32Z" fill="white"/>
<path d="M505.644 204.65V225.728C505.644 227.134 505.644 228.539 505.644 231.349C505.644 234.16 504.941 236.97 504.941 239.781C504.238 243.294 503.535 246.104 503.535 248.915C502.13 252.428 501.427 254.535 500.021 256.643C497.21 260.156 493.696 262.967 489.478 265.075C485.261 267.182 480.341 267.885 474.719 267.885H473.313V257.346C476.827 257.346 478.936 256.643 481.044 255.941C482.45 254.535 484.559 253.833 485.964 251.725C487.37 250.32 487.37 248.212 488.073 246.807C488.776 244.699 489.478 242.591 489.478 240.483C490.181 238.375 490.181 236.268 490.181 233.457C490.181 231.349 490.181 228.539 490.181 226.431V195.516H539.381V267.885H522.512V204.65C522.512 204.65 505.644 204.65 505.644 204.65Z" fill="white"/>
<path d="M554.844 213.082C554.844 210.271 555.547 207.461 556.952 205.353C558.358 203.245 561.169 201.84 563.981 199.732C566.792 198.327 569.604 196.922 573.118 196.219C576.632 195.516 580.146 194.814 583.66 194.814C587.175 194.814 590.689 195.516 594.203 196.219C597.717 196.922 600.529 197.624 603.34 199.732C606.152 201.137 608.26 203.245 609.666 205.353C611.071 207.461 611.774 210.271 611.774 213.082V251.023C611.774 254.536 611.071 256.643 609.666 258.751C608.26 260.859 605.449 262.967 603.34 264.372C600.529 265.777 597.717 267.183 594.203 267.885C590.689 268.588 587.175 269.29 583.66 269.29C580.146 269.29 576.632 268.588 573.118 267.885C569.604 267.183 566.792 266.48 563.981 264.372C561.169 262.967 559.061 260.859 556.952 258.751C555.547 256.643 554.844 253.833 554.844 251.023V213.082ZM571.712 250.32C571.712 253.13 573.118 254.536 575.226 255.941C577.335 257.346 580.146 257.346 582.958 257.346C585.769 257.346 588.58 256.643 590.689 255.941C592.797 254.536 594.203 253.13 594.203 250.32V212.379C594.203 209.569 592.797 208.163 590.689 206.758C588.58 205.353 585.769 205.353 582.958 205.353C580.146 205.353 577.335 206.055 574.523 206.758C572.415 208.163 571.009 209.569 571.009 212.379L571.712 250.32Z" fill="white"/>
<path d="M679.95 247.51V251.725C679.95 253.833 679.247 255.941 677.842 258.049C676.436 260.157 674.328 262.264 672.219 263.67C670.11 265.075 667.299 266.48 663.785 267.183C660.271 268.588 656.756 268.588 653.242 268.588C649.728 268.588 646.916 268.588 643.402 267.885C639.888 267.183 637.077 266.48 634.265 265.075C631.454 263.67 629.345 261.562 627.94 260.157C626.534 258.049 625.831 255.238 625.831 251.725V212.379C625.831 210.271 626.534 208.163 627.237 206.056C627.94 203.948 630.751 202.542 632.86 200.435C634.968 198.327 637.779 197.624 641.294 196.922C644.808 195.516 648.322 195.516 652.539 195.516C660.271 195.516 666.596 196.922 672.219 200.435C674.328 201.84 677.139 203.948 677.842 206.056C678.545 208.163 679.95 210.271 679.95 213.082V216.595H663.082V213.784C663.082 211.676 661.676 210.271 660.271 208.163C658.865 206.758 655.351 206.056 652.539 206.056C648.322 206.056 645.511 206.758 644.105 208.163C642.699 209.569 641.997 211.676 641.997 214.487V251.725C641.997 253.833 642.699 255.941 644.105 257.346C645.511 258.751 648.322 259.454 651.836 259.454C653.242 259.454 653.945 259.454 655.351 258.751C656.756 258.751 657.459 258.049 658.865 257.346C660.271 256.643 661.676 255.941 662.379 255.238C663.082 253.833 663.785 253.13 663.785 251.725V248.212L679.95 247.51Z" fill="white"/>
<path d="M693.304 196.219H710.173V225.728H716.498C722.121 225.728 727.744 226.431 731.258 227.134C735.475 228.539 738.286 229.241 741.098 231.349C743.206 232.755 745.315 235.565 746.018 237.673C746.721 239.781 747.423 241.888 747.423 244.699V248.915C747.423 255.238 745.315 260.156 739.692 262.967C734.772 266.48 726.338 267.885 715.795 267.885H694.007L693.304 196.219ZM710.875 234.862V258.048H716.498C720.012 258.048 722.824 257.346 724.229 256.643C725.635 255.941 727.744 255.238 729.149 253.833C730.555 252.428 730.555 251.725 730.555 249.617C730.555 247.509 731.258 246.104 731.258 244.699C731.258 243.294 731.258 241.186 730.555 240.483C729.852 239.078 729.149 238.375 729.149 236.97C727.744 235.565 726.338 235.565 724.229 234.862C722.824 234.862 720.012 234.862 717.201 234.862H710.875V234.862ZM755.858 267.885V196.219H772.726V268.588L755.858 267.885Z" fill="white"/>
<path d="M819.113 267.885V196.219H844.416C849.336 196.219 852.85 196.921 856.364 197.624C859.878 198.327 863.393 199.732 866.204 201.84C869.015 203.245 871.124 205.353 871.827 208.163C872.53 210.974 873.232 214.487 873.232 218.702C873.232 222.215 872.53 225.026 871.827 227.134C871.124 229.241 870.421 231.349 867.61 233.457C865.501 235.565 862.69 237.673 858.473 239.078C854.256 240.483 849.336 241.186 843.01 241.186H834.576V269.29L819.113 267.885ZM836.684 205.353V229.944H844.416C847.93 229.944 850.741 229.241 852.147 228.539C853.553 227.836 855.661 227.134 856.364 225.728C857.77 224.323 857.77 223.621 857.77 221.513C857.77 220.108 857.77 218 857.77 216.594C857.77 215.189 857.77 213.081 857.77 211.676C857.77 210.271 857.067 208.866 856.364 208.163C854.958 206.758 854.256 206.055 852.147 205.353C850.039 204.65 847.227 203.947 844.416 203.947H835.982L836.684 205.353Z" fill="white"/>
<path d="M873.233 267.885L899.941 195.516H913.998L940.706 267.885H923.838L918.918 252.428H895.724L890.804 267.885H873.233ZM915.404 243.294L907.672 217.297H906.97L899.238 243.294H915.404Z" fill="white"/>
<path d="M1001.85 247.509V251.725C1001.85 253.833 1001.15 255.941 999.746 258.048C998.34 260.156 996.231 262.264 994.123 263.669C992.014 265.075 989.203 266.48 985.689 267.182C982.174 268.588 978.66 268.588 975.146 268.588C971.632 268.588 968.82 268.588 965.306 267.885C961.792 267.182 958.98 266.48 956.169 265.075C953.358 263.669 951.249 261.562 949.843 260.156C948.438 258.048 947.735 255.238 947.735 251.725V212.379C947.735 210.271 948.438 208.163 949.141 206.055C949.843 203.947 952.655 202.542 954.763 200.434C956.872 198.327 959.683 197.624 963.197 196.921C966.712 195.516 970.226 195.516 974.443 195.516C982.174 195.516 988.5 196.921 994.123 200.434C996.231 201.84 999.043 203.947 999.746 206.055C1000.45 208.163 1001.85 210.271 1001.85 213.081V216.594H984.986V213.784C984.986 211.676 983.58 210.271 982.174 208.163C980.769 206.758 977.254 206.055 974.443 206.055C970.226 206.055 967.415 206.758 966.009 208.163C964.603 209.568 963.9 211.676 963.9 214.487V251.725C963.9 253.833 964.603 255.941 966.009 257.346C967.415 258.751 970.226 259.454 973.74 259.454C975.146 259.454 975.849 259.454 977.254 258.751C978.66 258.751 979.363 258.048 980.769 257.346C982.174 256.643 982.174 255.941 982.877 255.238C983.58 253.833 984.283 253.13 984.283 251.725V248.212L1001.85 247.509Z" fill="white"/>
<path d="M1025.05 267.885V205.353H1006.07V195.516H1062.3V205.353H1042.62V267.885H1025.05Z" fill="white"/>
<path d="M1071.44 258.751C1072.84 258.751 1074.95 258.751 1076.36 258.049C1077.76 258.049 1079.87 257.346 1081.28 256.643C1082.68 255.941 1082.68 255.238 1084.09 253.833C1085.49 252.428 1086.2 251.022 1086.9 248.915L1088.3 245.402L1063 196.219H1080.57L1096.74 229.944H1097.44L1110.09 196.219H1127.66L1103.06 251.022C1101.66 254.535 1099.55 257.346 1098.14 260.156C1096.74 262.967 1093.93 264.372 1090.41 266.48C1087.6 267.885 1085.49 268.588 1081.98 268.588C1079.17 269.29 1075.65 269.29 1072.14 269.29H1070.03V258.049L1071.44 258.751Z" fill="white"/>
<path d="M1149.45 267.885V205.353H1129.77V195.516H1186V205.353H1165.62V267.885H1149.45Z" fill="white"/>
</g>
<defs>
<clipPath id="clip0_50_271">
<rect width="1185" height="280" fill="white"/>
</clipPath>
</defs>
</svg>
