<svg width="876" height="281" viewBox="0 0 876 281" fill="none" xmlns="http://www.w3.org/2000/svg">
<path fill-rule="evenodd" clip-rule="evenodd" d="M824.473 90.7711C840.161 90.7711 856.586 94.1678 868.179 98.667V68.1908C856.446 64.3813 840.161 60.5718 819.018 60.5718C778.78 60.5718 751.5 75.5101 751.5 106.835C751.5 160.811 829.248 149.888 829.248 174.949C829.248 184.586 820.11 190.096 801.696 190.096C785.328 190.096 765.861 189.544 750.857 182.477V212.953C765.861 218.096 787.646 220.572 804.014 220.572C845.616 220.572 876 208.047 876 169.492C876 118.087 797.786 132.953 797.786 102.477C797.786 91.048 810.153 90.7711 824.473 90.7711ZM660.476 178.833H646.571V220.572H597.905V60.5718C599.017 60.5718 636.569 61.337 653.524 60.5718C703.621 61.337 736.952 77.3516 736.952 116.224C736.952 161.814 704.309 178.831 660.476 178.833ZM653.524 88.3979C651.105 88.4658 649.311 88.3129 646.571 88.3979V151.007H653.524C678.022 151.007 688.286 143.571 688.286 116.224C688.286 99.2854 676.736 88.4658 653.524 88.3979ZM521.429 60.5718H570.095V220.572H521.429V60.5718ZM403.238 220.572V60.5718H451.905V185.789H500.571L493.619 220.572H403.238ZM326.762 60.5718H375.429V220.572H326.762V60.5718ZM250.286 157.963H201.619V220.572H152.952V60.5718H201.619V123.18H250.286V60.5718H298.952V220.572H250.286V157.963ZM62.5714 178.833H48.6667V220.572H0V60.5718C1.11244 60.5718 38.6641 61.337 55.619 60.5718C105.716 61.337 139.048 77.3516 139.048 116.224C139.048 161.814 106.405 178.831 62.5714 178.833ZM55.619 88.3979C53.1996 88.4658 51.4059 88.3129 48.6667 88.3979V151.007H55.619C80.1123 151.007 90.381 143.571 90.381 116.224C90.381 99.2854 78.833 88.4658 55.619 88.3979Z" fill="white"/>
</svg>
