<svg width="590" height="591" viewBox="0 0 590 591" fill="none" xmlns="http://www.w3.org/2000/svg">
<g clip-path="url(#clip0_50_528)">
<path d="M25.4002 379.272C4.30024 393.272 11.4002 419.972 56.3002 432.672C103.3 448.372 153.4 452.172 202.3 443.872C205.1 443.872 207.9 442.472 209.3 442.472V394.672L161.6 410.172C143.4 415.772 125.1 417.172 106.8 412.972C92.8002 408.772 95.6002 400.372 112.4 393.272L209.3 359.572V307.572L74.5002 353.872C56.9002 359.772 40.4002 368.372 25.4002 379.272ZM351.1 168.672V304.872C408.7 332.972 453.6 304.872 453.6 231.872C453.6 157.472 426.9 123.772 349.7 97.0717C309 83.0717 266.8 70.3717 224.7 61.9717V467.772L323 497.272V155.972C323 140.472 323 129.272 334.2 133.472C349.7 137.772 351.1 153.172 351.1 168.672ZM533.7 346.972C493 332.972 449.5 327.272 407.3 331.472C384.8 332.872 363.8 338.472 344.1 345.472L339.9 346.872V401.672L431.2 367.972C449.4 362.372 467.7 360.972 486 365.172C500 369.372 497.2 377.772 480.4 384.872L340 436.872V490.272L533.7 418.572C547.7 412.972 560.4 405.972 571.6 394.672C581.4 380.672 577.2 360.972 533.7 346.972Z" fill="white"/>
</g>
<defs>
<clipPath id="clip0_50_528">
<rect width="590" height="590" fill="white" transform="translate(0 0.571777)"/>
</clipPath>
</defs>
</svg>
