<svg width="970" height="280" viewBox="0 0 970 280" fill="none" xmlns="http://www.w3.org/2000/svg">
<path d="M17.5969 214.975H3.97898C2.84274 214.975 0 214.975 0 213.278C0 212.155 0.57025 211.582 2.27249 211.014C14.7712 207.049 17.5926 200.264 17.5926 190.659V89.3406C17.5926 80.2828 14.7499 73.4938 2.27249 68.9861C0.57025 68.9861 0 67.8539 0 67.2899C0 65.0297 2.84274 65.5937 3.97898 65.5937H116.416C141.971 65.5937 162.989 85.9482 162.989 111.429C162.989 136.911 141.971 157.24 116.416 157.24H59.6252V191.762C60.1954 200.815 63.0297 207.028 74.9454 211.001C76.6476 211.569 77.2136 212.138 77.2136 213.266C77.2136 214.962 74.3751 214.962 73.2389 214.962H17.5969V214.975ZM855.865 160.081H882.556L855.865 114.805L853.018 110.276L829.186 160.081H855.865ZM855.865 65.0127H874.04L950.135 198.589C952.412 201.982 955.242 205.374 958.646 207.07C961.484 209.339 964.889 209.911 967.727 211.035C968.868 211.608 970 212.176 970 213.304C970 215 967.161 215 966.021 215H898.442C897.31 215 893.893 215 893.893 213.304C893.893 212.176 895.033 211.608 896.178 211.035C899.583 209.911 901.846 208.211 902.987 204.819C904.128 200.849 902.987 198.598 900.149 193.492C896.293 185.325 892.321 177.214 888.233 169.16H824.624L824.063 170.288C823.488 172.557 818.956 180.465 815.552 188.967C811.015 198.021 809.309 200.281 810.445 204.81C811.019 208.202 813.849 209.899 817.254 211.031C818.398 211.603 818.956 212.172 818.956 213.295C818.956 214.992 816.109 214.992 814.977 214.992H783.737C782.605 214.992 779.758 214.992 779.758 213.295C779.758 212.172 780.332 211.599 782.03 211.031C784.877 209.903 788.273 209.335 791.116 207.066C794.52 205.37 797.367 201.977 799.627 198.585L803.606 190.104L846.771 100.095L840.515 89.3406C834.846 80.2828 829.161 74.626 822.914 71.2293C820.075 69.5331 817.232 69.5331 814.402 68.4009C812.7 67.8327 812.126 67.2644 812.7 66.1322C812.7 65 813.832 65.5682 814.402 65H855.869L855.865 65.0127ZM686.066 214.402H688.339C792.844 214.402 791.712 65.5597 688.339 65.5597H602.584C600.882 65.5597 598.048 64.9915 598.048 67.256C598.048 67.8199 599.18 68.9522 600.312 68.9522C612.806 72.9128 615.632 79.7061 616.211 88.1999V191.792C615.649 200.841 612.806 207.057 600.312 211.027C599.18 211.599 598.048 212.167 598.048 213.295C598.048 214.992 600.886 214.992 602.584 214.992H657.673V214.419H686.066V214.402ZM686.066 76.3222C693.74 76.3523 701.091 79.4023 706.518 84.8079C711.945 90.2135 715.009 97.5369 715.043 105.183V174.227C715.01 181.874 711.947 189.198 706.519 194.604C701.092 200.01 693.74 203.059 686.066 203.088H657.652V76.3222H686.066ZM469.673 160.081H496.365L469.673 114.805L466.831 110.276L442.999 160.081H469.673ZM469.673 65.0127H488.398L564.501 198.589C566.203 201.982 569.046 205.374 572.455 207.07C575.289 209.339 578.706 209.911 582.111 211.035C583.243 211.608 584.375 212.176 584.375 213.304C584.375 215 580.97 215 579.838 215H512.281C511.14 215 508.301 215 508.301 213.304C508.301 212.176 508.863 211.608 510.565 211.035C513.412 209.911 516.242 208.211 516.817 204.819C517.949 200.849 516.817 198.598 514.544 193.492C510.565 185.011 506.033 177.081 502.059 169.16H438.433L437.867 170.288C437.301 172.557 433.322 180.465 429.356 188.967C425.381 198.021 423.113 200.281 424.249 204.81C425.385 208.202 427.654 209.899 431.058 211.031C432.19 211.603 433.326 212.172 433.326 213.295C433.326 214.992 430.488 214.992 428.79 214.992H398.111C396.975 214.992 393.566 214.992 393.566 213.295C393.566 212.172 394.703 211.599 395.839 211.031C399.243 209.903 402.086 209.335 405.499 207.066C408.333 205.37 411.746 201.977 413.444 198.585L417.419 190.104L461.154 100.095L454.915 89.3406C449.238 80.2828 442.999 74.626 437.31 71.2293C433.905 69.5331 431.628 69.5331 428.22 68.4009C427.079 67.8327 425.943 67.2644 426.517 66.1322C427.092 65 428.22 65.5682 428.794 65H469.682L469.673 65.0127ZM282.253 164.046C295.317 168.566 311.22 169.694 323.711 165.742L373.127 208.19L377.101 211.582C377.318 211.804 377.483 212.072 377.582 212.365C377.682 212.659 377.714 212.971 377.676 213.278C377.676 214.975 374.833 214.975 373.693 214.975H321.447L282.261 182.717L250.451 157.244V192.339C251.025 200.82 254.429 207.049 266.354 210.997C267.49 211.569 268.056 212.133 268.056 213.261C268.056 214.958 265.213 214.958 264.073 214.958H195.358C193.655 214.958 190.813 214.958 190.813 213.261C190.813 212.133 191.953 211.565 193.081 210.997C206.699 206.477 208.401 199.683 208.984 188.946V91.0368C208.414 80.8596 206.711 73.4938 193.081 68.9861C191.945 68.9861 190.813 67.8539 190.813 67.2899C190.813 65.0297 193.655 65.5937 195.358 65.5937H306.105C312.121 65.568 318.083 66.7234 323.651 68.9938C329.219 71.2643 334.283 74.6054 338.555 78.8262C342.827 83.0471 346.222 88.0651 348.548 93.5937C350.873 99.1223 352.083 105.053 352.108 111.048V111.429C352.151 123.53 347.371 135.152 338.818 143.742C330.266 152.332 318.64 157.187 306.497 157.24H270.324C272.026 160.632 276.001 161.769 279.406 163.469C280.546 163.469 281.108 164.046 282.248 164.046H282.253ZM282.253 146.503H286.819C301.582 146.503 314.08 130.652 314.08 110.276C314.055 90.4686 301.56 74.626 286.819 74.626H250.446V146.503H282.253ZM91.9933 74.6302H59.6252V146.507H97.1128C112.433 146.507 124.349 130.656 124.349 110.28C124.349 90.4771 112.433 74.6302 97.1128 74.6302H91.9933Z" fill="white"/>
</svg>
