<svg width="590" height="591" viewBox="0 0 590 591" fill="none" xmlns="http://www.w3.org/2000/svg">
<g clip-path="url(#clip0_50_532)">
<path d="M279.072 17.2341C273.422 27.735 197.8 169.106 165.117 229.855C163.987 231.938 164.074 233.5 165.204 235.496C197.192 295.03 261.861 415.747 262.557 416.875C263.252 415.747 327.922 295.03 359.909 235.496C361.039 233.413 361.126 231.938 359.996 229.855C341.743 195.923 323.576 161.903 305.235 127.971C304.019 125.801 304.019 124.152 305.235 121.983C310.277 112.957 315.058 103.758 320.186 94.2984C320.881 95.5134 369.384 185.769 393.113 230.029C394.07 231.851 394.156 233.24 393.2 235.236C355.65 305.271 318.1 375.392 280.55 445.427C279.593 447.336 278.55 448.117 276.29 448.117C266.99 447.944 257.689 448.031 248.475 448.117C246.737 448.117 245.868 447.597 244.999 446.034C207.274 375.566 169.637 305.184 131.826 234.715C131.044 233.24 130.957 232.198 131.739 230.636C169.463 160.168 207.188 89.7856 244.999 19.4037C245.52 18.5359 246.563 17.4077 247.432 17.4077C257.776 17.1473 268.12 17.2341 279.072 17.2341Z" fill="white"/>
<path d="M322.011 60.3656C304.714 92.4757 257.081 181.343 231.091 229.768C229.961 231.851 229.874 233.326 231.004 235.409C249.258 269.342 267.425 303.361 285.678 337.294C286.895 339.463 286.895 341.112 285.678 343.282C280.637 352.307 275.856 361.507 270.728 370.966C270.032 369.838 221.617 279.496 197.8 235.236C196.844 233.413 196.757 232.025 197.713 230.115C235.263 160.081 272.814 89.959 310.277 19.9242C311.32 18.0149 312.276 17.2339 314.536 17.2339C323.837 17.4075 333.137 17.3207 342.351 17.2339C344.09 17.2339 344.959 17.7546 345.828 19.3167C383.726 89.6986 421.45 160.167 459.261 230.549C460.043 232.025 460.13 233.153 459.261 234.628C421.537 305.01 383.813 375.479 346.002 445.861C345.567 446.729 344.437 447.857 343.568 447.857C333.224 448.03 322.881 447.944 312.015 447.944C312.711 446.555 388.42 305.097 425.883 235.322C427.013 233.24 426.926 231.677 425.796 229.681C393.809 170.148 329.139 49.4308 328.444 48.3026C328.357 48.563 325.923 52.989 322.011 60.3656Z" fill="white"/>
<path d="M55.1611 573.521H39.4283V505.395C39.4283 504.527 39.3414 504.006 39.1675 503.659C38.9937 503.312 38.4721 503.052 37.6898 502.791L33.4307 501.143L34.7345 494.287H74.3709C84.6276 494.287 91.9291 496.196 96.449 500.101C100.969 504.006 103.142 510.255 103.142 518.933C103.142 525.789 101.751 531.083 98.9697 534.728C96.1882 538.46 91.8422 540.803 85.9315 541.931L105.315 573.521H87.9307L70.3725 543.667H55.1611V573.521ZM55.1611 531.951H72.6324C78.0216 531.951 81.9331 530.996 84.2799 529C86.6268 527.004 87.7568 523.706 87.7568 518.933C87.7568 514.334 86.6268 511.036 84.2799 509.04C81.9331 507.044 78.1085 506.089 72.6324 506.089H55.1611V531.951Z" fill="white"/>
<path d="M176.07 494.374V506.437H134.521V527.525H167.551V539.067H134.521V561.631H177.026V573.694H118.788V505.569C118.788 504.701 118.701 504.18 118.527 503.833C118.354 503.573 117.832 503.226 117.05 502.965L112.791 501.316L114.094 494.46L176.07 494.374Z" fill="white"/>
<path d="M189.977 505.395C189.977 504.527 189.89 504.006 189.716 503.659C189.542 503.399 189.021 503.052 188.239 502.791L183.979 501.143L185.283 494.287H203.015C204.232 494.287 204.928 494.46 205.275 494.721C205.623 494.981 206.231 495.762 207.188 496.977L247.954 551.998V494.373H262.47V573.607H247.259L204.493 515.809V573.607H189.977V505.395Z" fill="white"/>
<path d="M318.621 494.374C320.186 497.237 321.924 500.622 323.663 504.614C325.488 508.606 327.314 512.859 329.313 517.545C331.225 522.231 333.137 527.004 335.05 532.038C336.962 537.071 338.7 542.018 340.439 546.965C342.177 551.911 343.655 556.685 345.133 561.197C346.61 565.71 347.74 569.876 348.696 573.607H332.877C332.007 570.396 331.138 567.272 330.182 564.148C329.226 561.111 328.357 558.073 327.487 555.036H292.545C291.589 557.986 290.72 561.024 289.763 564.148C288.807 567.272 287.938 570.396 287.069 573.607H271.249C272.205 569.876 273.335 565.797 274.813 561.197C276.29 556.598 277.768 551.911 279.507 546.965C281.245 542.018 282.983 536.985 284.896 532.038C286.808 527.091 288.72 522.144 290.633 517.545C292.545 512.945 294.457 508.606 296.282 504.614C298.108 500.622 299.759 497.237 301.324 494.374H318.621ZM309.842 508.259C304.801 519.541 300.281 531.344 296.109 543.493H323.489C319.317 531.344 314.71 519.541 309.842 508.259Z" fill="white"/>
<path d="M356.519 505.395C356.519 504.527 356.432 504.006 356.258 503.659C356.084 503.399 355.563 503.052 354.781 502.791L350.521 501.143L351.825 494.287H371.209C371.904 494.287 372.252 494.721 372.252 495.502V541.324C372.252 548.874 373.903 554.254 377.12 557.639C380.336 560.937 385.551 562.586 392.852 562.586C400.154 562.586 405.456 560.937 408.585 557.639C411.714 554.341 413.366 548.961 413.366 541.324V494.373H429.099V542.625C429.099 548.353 428.403 553.3 427.013 557.379C425.622 561.458 423.536 564.842 420.581 567.446C417.625 570.049 413.888 571.958 409.281 573.26C404.674 574.475 399.198 575.083 392.766 575.083C386.42 575.083 380.944 574.475 376.25 573.26C371.557 572.045 367.906 570.136 364.951 567.446C361.995 564.842 359.909 561.458 358.518 557.379C357.128 553.3 356.432 548.353 356.432 542.625L356.519 505.395Z" fill="white"/>
<path d="M447.179 505.395C447.179 504.527 447.092 504.006 446.918 503.659C446.744 503.312 446.223 503.052 445.44 502.791L441.181 501.143L442.485 494.287H461.869C462.564 494.287 462.912 494.721 462.912 495.502V561.544H499.158V573.607H447.179V505.395Z" fill="white"/>
<path d="M516.108 506.35H490.379V494.374H557.57V506.437H531.841V573.607H516.108V506.35Z" fill="white"/>
</g>
<defs>
<clipPath id="clip0_50_532">
<rect width="590" height="590" fill="white" transform="translate(0 0.571777)"/>
</clipPath>
</defs>
</svg>
