<svg width="750" height="280" viewBox="0 0 750 280" fill="none" xmlns="http://www.w3.org/2000/svg">
<path fill-rule="evenodd" clip-rule="evenodd" d="M411.272 136.079C411.272 136.079 403.975 131.559 399.463 129.81C399.463 129.81 385.497 123.326 382.726 120.241C382.726 120.241 377.282 115.103 380.47 109.134C380.47 109.134 381.804 105.229 387.556 105.229C387.556 105.229 395.045 105.642 395.045 111.807V120.504H421.883L421.836 107.695C421.836 107.695 423.9 86.7192 390.224 85.7956C390.224 85.7956 363.737 84.0515 356.141 98.3418C356.141 98.3418 353.159 101.53 353.159 112.632V120.654C353.159 120.654 352.855 129.909 357.573 135.872C357.573 135.872 360.241 139.783 366.812 144.096C366.812 144.096 380.156 151.293 388.165 155.414C388.165 155.414 396.248 160.037 395.185 167.393C395.185 167.393 394.525 174.946 386.718 174.636C386.718 174.636 379.581 174.317 379.581 166.91V158.217H350.983V170.843C350.983 170.843 350.182 194.989 386.929 194.989C386.929 194.989 422.042 195.701 423.68 170.21V159.929C423.676 159.929 424.921 144.307 411.272 136.079V136.079ZM273.872 88.8009L264.885 145.212H262.783L254.199 89.3072H209.37L207.123 191.463H233.666L233.984 114.493H236.072L250.141 191.449H278.065L291.962 114.521H293.81L294.452 191.463H321.135L318.261 88.8009H273.872V88.8009ZM115.867 89.2275L98.2077 191.346H126.782L137.243 112.168H139.593L150.049 191.346H178.619L160.964 89.2275H115.867V89.2275ZM715.449 134.672V149.736H722.778V165.906C722.778 173.811 716.034 173.956 716.034 173.956C707.833 173.956 708.142 166.446 708.142 166.446V110.513C708.142 104.751 715.42 104.441 715.42 104.441C722.404 104.441 722.451 111.315 722.451 111.315V119.819H749.354C750.234 103.218 746.93 99.1998 746.93 99.1998C740.255 84.1875 715.009 85.008 715.009 85.008C676.212 85.008 680.518 114.826 680.518 114.826V168.907C681.351 196.873 719.581 194.032 720.227 194.009C737.232 192.124 742.366 186.709 742.366 186.709C747.093 183.193 748.31 178.321 748.31 178.321C749.663 175.485 750 166.446 750 166.446V134.672H715.449V134.672ZM626.271 151.293H625.101L597.8 88.829H565.134V191.472H591.72L590.128 129.018H591.317L619.601 191.472H651.274V88.8196H624.352L626.271 151.293V151.293ZM500.239 165.897C500.239 165.897 500.623 174.322 492.825 174.322C492.825 174.322 484.625 174.763 484.625 166.108L484.541 88.8899H455.381V165.494C455.381 165.494 452.39 194.487 493.237 194.487C493.237 194.487 528.734 194.909 528.734 166.825V88.8946H500.239V165.897V165.897ZM60.2769 136.079C60.2769 136.079 52.9893 131.559 48.4727 129.815C48.4727 129.815 34.5154 123.336 31.7446 120.246C31.7446 120.246 26.3011 115.098 29.4932 109.144C29.4932 109.144 30.8225 105.238 36.5701 105.238C36.5701 105.238 44.0636 105.646 44.0636 111.812V120.509H70.911L70.8595 107.695C70.8595 107.695 72.9095 86.7192 39.2474 85.8003C39.2474 85.8003 36.7106 85.6362 32.9896 85.8237C32.9896 85.8237 12.5966 86.9208 5.30441 98.1261C5.26228 98.2105 5.20144 98.2715 5.15931 98.3465C5.15931 98.3465 2.18251 101.53 2.18251 112.637V120.659C2.18251 120.659 1.8736 129.914 6.59622 135.877C6.59622 135.877 9.26411 139.787 15.8355 144.101C15.8355 144.101 29.175 151.297 37.1833 155.418C37.1833 155.418 45.2759 160.032 44.204 167.397C44.204 167.397 43.5441 174.95 35.7417 174.641C35.7417 174.641 28.6039 174.322 28.6039 166.914V158.217H0.0013946V170.853C0.0013946 170.853 -0.798968 194.998 35.9476 194.998C35.9476 194.998 71.0514 195.711 72.7036 170.22V159.947C72.7036 159.938 73.9299 144.307 60.2769 136.079V136.079Z" fill="white"/>
</svg>
