<?xml version="1.0" encoding="utf-8"?>
<!-- Generator: Adobe Illustrator 25.4.1, SVG Export Plug-In . SVG Version: 6.00 Build 0)  -->
<svg version="1.1" id="Layer_1" xmlns="http://www.w3.org/2000/svg" xmlns:xlink="http://www.w3.org/1999/xlink" x="0px" y="0px"
	 viewBox="0 0 1440 800" style="enable-background:new 0 0 1440 800;" xml:space="preserve">
<style type="text/css">
	
		.st0{clip-path:url(#SVGID_00000105418879992194319130000005658851255859041200_);fill:#FFFFFF;stroke:#FFFFFF;stroke-width:200;stroke-miterlimit:10;}
	
		.st1{clip-path:url(#SVGID_00000042719441860958982770000008827356595565951916_);fill:#FFFFFF;stroke:#FFFFFF;stroke-width:60;stroke-linecap:round;stroke-miterlimit:10;}
	
		.st2{clip-path:url(#SVGID_00000098200761638722954210000003583576814578763182_);fill:#FFFFFF;stroke:#FFFFFF;stroke-width:80;stroke-linecap:round;stroke-miterlimit:10;}
	
		.st3{clip-path:url(#SVGID_00000018942658889998108310000014885904504161751681_);fill:#FFFFFF;stroke:#FFFFFF;stroke-width:80;stroke-linecap:round;stroke-miterlimit:10;}
	
		.st4{clip-path:url(#SVGID_00000160876947653617451770000011115734097173879434_);fill:#FFFFFF;stroke:#FFFFFF;stroke-width:60;stroke-linecap:round;stroke-miterlimit:10;}
	
		.st5{clip-path:url(#SVGID_00000181781416060912836770000015776748352785021329_);fill:#FFFFFF;stroke:#FFFFFF;stroke-width:60;stroke-miterlimit:10;}
</style>
<g>
	<g>
		<defs>
			<path id="SVGID_1_" d="M387.6,10.4c8.4,2.8,18,1.6,27.1,2.2c3.1,0.2,6.2,0.5,9.3,2.6c-5.3,1.8-10.6,3.5-15.9,5.5
				c-9.9,3.8-16.8,15.3-15.8,25.8c2,21.7,4.1,43.4,6,65.1c0.4,4,0.1,8,0.1,11.7c-13.3,3.3-21.4,12.1-30.3,19.6
				c-6.6,5.6-9.6,12-6.5,20.7c1.6,4.4,0.5,8.5-1.9,12.6c-5,8.7-8.1,18-6.8,28.4c0.3,2.3,0.1,5.2-1.1,7c-5.2,8.2-8.1,17.6-13.3,25.8
				c-0.9,1.4-1.8,3.2-1.6,4.6c0.9,6.6-2,12-4.8,17.5c-4.6,8.8-6.4,18.1-7,28.1c-0.3,5.6-3.2,11.1-1.2,16.8c2,5.7,3.8,11.8,7.2,16.6
				c6.9,9.7,15.4,18.2,22.4,27.9c5.4,7.4,9.9,15.5,13.8,23.8c4.9,10.3,8.8,21,13,31.6c0.6,1.6,1.3,3.3,1.3,4.9
				c-0.1,10.1,3.3,19.3,6.8,28.4c7,18.6,7.1,37.7,4.2,56.7c-1.4,8.8-5.2,17.6-12.3,24.1c-0.7,0.7-1.4,1.6-1.7,2.5
				c-3.9,11.7-11.5,20.7-20.2,29.1c-3.3,3.2-5.5,6.7-10.8,6.3c-1.4-0.1-3.3,1.1-4.4,2.3c-4.8,5.7-9.3,11.5-13.9,17.3
				c-1.9,2.4-3.8,4.7-5.6,7.2c-1.4,1.9-3.7,4.1-3.5,5.9c0.8,5.5-3.1,8.6-4.9,12.8c-3.1,7.4-8,11.5-15.4,13.5
				c-1.5,0.4-3.2,1.4-4.2,2.6c-8.2,9.4-16.8,18.4-27.7,24.7c-1.4,0.8-2.4,2.4-3.5,3.7c-1.6,1.8-2.9,4-4.8,5.3
				c-9.9,6.6-17.2,16-25.7,24.1c-9.5,9-19.7,17-27.9,27.5c-5.7,7.4-12.8,14-21.4,18.5c-4.8,2.5-9.1,6.1-13.7,9
				c-8.4,5.3-16.7,10.9-25.5,15.6c-5,2.7-10.4,4.5-16.6,3.2c-10.4-2.3-19,0.8-26.8,8.5c-6,5.8-13.7,9.9-21,15c-2.6-1-5.4-2-7.9-2.9
				c-7.3,7.1-14,14.1-21.2,20.6c-3.8,3.4-9.1,4.7-13.5,7.6c-4.4,2.9-11.2,1.8-16.4-1.8c-4.4-3.1-8.7-6.4-13.2-9.7
				c0.2-3.2,0.3-6.2,0.5-9.3c-2.9-1.4-5.6-2.7-8.1-3.8C1,766.9,0.2,760.5,0,754c-0.1-2.9,0.5-6.2,2-8.6c6.2-9.4,12.6-18.7,19.4-27.7
				c15.4-20.5,33.6-38.6,52.2-56.1c2-1.8,3.4-4.2,5.1-6.4c12.7-16.9,24.4-34.7,38.3-50.5c23-26.1,47.5-50.9,71.3-76.3
				c10.8-11.5,18-25.5,26.7-38.5c17-25.3,26.9-53.5,34.9-82.6c6-21.8,1.2-41.8-7.7-61.4c-1.7-3.8-4.5-5-8.2-2.5
				c-1.7,1.1-3.5,2.2-5.2,3.2c-3.5,2.1-7.8,1.5-9-1.6c-2.1-5.4-6.8-4.7-11.4-6.5c-0.5-15.1-4.5-27.8-13.1-39.8
				c-5.4-7.5-5.2-17.9-6-27.4c-0.6-7.1-1.9-14.1-3.3-21.1c-0.3-1.4-2-2.7-3.3-3.7c-15.7-10.8-16-26.7-11.8-42.4
				c4-15,9.8-29.7,16.8-43.5c14.7-29.3,35.5-54.2,58.8-76.9c6.1-5.9,11.8-12.3,18.2-17.9c13.7-11.9,29.6-20.3,46-28
				c7.4-3.5,14.1-8.2,21.3-12.1c10.1-5.5,20-11.9,30.8-15.9C370.4,7.1,378.9,7.5,387.6,10.4z"/>
		</defs>
		<use xlink:href="#SVGID_1_"  style="overflow:visible;fill:#FFFFFF;"/>
		<clipPath id="SVGID_00000127761852194512807200000002561940564997662105_">
			<use xlink:href="#SVGID_1_"  style="overflow:visible;"/>
		</clipPath>
		
			<path id="logo_path_1" style="clip-path:url(#SVGID_00000127761852194512807200000002561940564997662105_);fill:#FFFFFF;stroke:#FFFFFF;stroke-width:200;stroke-miterlimit:10;" d="
			M461-13c-22.1,8.4-159,63.2-194,194c-4.2,15.7-12.6,46-7,84c7.4,50.7,30.9,56.8,46,106c15.3,49.9,14.3,119.1-20,167
			c-13.7,19.1-18.1,14.4-66,60c-34.6,32.9-56.4,58.3-67,70c-30.1,33.3-83.5,83-186,152"/>
	</g>
</g>
<g>
	<g>
		<defs>
			<path id="SVGID_00000176726190873929608980000014987702065801484447_" d="M489.4,112.4c0.8,0,2.1,0.7,2.1,1.1
				c0,5.1,4.7,4.6,7.5,5.8c4.6,2,7.4,5.9,9.8,9.5c3.2,4.8,5.5,10.5,6.9,16.1c0.7,2.8-0.8,6.6-2.4,9.4c-2.1,3.8-3.1,7.1-0.4,11.1
				c0.8,1.2,0.8,3.2,0.5,4.8c-1.1,6-2.2,11.8,0.4,17.8c1.3,3,1.3,6.6,1.4,9.9c0.3,8.3,0.4,16.6,0.6,24.9c0.2,7.4,0.6,14.7,0.4,22
				c-0.2,8.2-1.2,16.3-1.7,24.4c-0.2,3.5,0,7.1-0.1,10.6c-0.2,4.8-0.8,9.5-0.8,14.3c0,12.2,0,24.4,0.5,36.5
				c0.2,6.5,1.4,12.9,2.2,19.3c0.5,0.2,0.9,0.4,1.4,0.6c2-3.1,4.4-6,6.1-9.3c6.5-12.5,17-20.8,28.7-27.6c6.1-3.5,12.8-6.3,19.6-8.3
				c4.5-1.3,9.5-1.1,14.3-0.8c3.9,0.2,7.8,1.2,11.7,2.1c3,0.7,6,1.7,9,2.6c2,0.6,3.9,1.7,5.9,2.1c8.4,1.4,16.1,4.3,22.4,10.3
				c2.6,2.4,5.8,4.2,6.5,8.1c0.2,1.2,1.1,2.3,1.9,3.2c4.8,5.1,6.1,11.6,6.1,18c0,6-1.2,12-2.3,18c-2.6,13.9-2.9,27.9-1.3,41.9
				c0.6,5.2,0.1,10.5,0.1,15.7c0,8.8-0.3,17.7,0.3,26.5c0.5,7.5,1.9,14.9,3,22.3c0.7,4.5,1.4,4.9,5.8,3.7c2.8-0.8,5.5-1.4,8.9-2.3
				c0.1,5.6,2.2,9.4,5.8,12.6c2.7,2.4,1.6,5.9,1.2,9c-0.4,2.9-1.1,5.7-1.4,8.6c-0.5,4.8-2.4,6.6-7.2,6.7
				c-15.4,0.6-27.5-6.2-37.7-17.1c-4.3-4.6-9.2-8.6-13.2-13.4c-8.4-10.3-13.4-22.2-15-35.4c-0.3-2.7-1.3-5.3-1.7-8
				c-1.2-8.4-3.2-16.8-1.9-25.5c0.4-3.1,0.2-6.3-3.1-8.3c-1.2-0.7-2.1-2.1-2.7-3.4c-5.7-11.8-8.4-24.1-6.3-37.3
				c1.1-6.7,1.6-13.5,2.4-21.1c-1.7,0.7-3.4,0.9-4.5,1.8c-3.8,3.2-8.1,5.6-11.1,10c-3.2,4.8-8,8.5-12,12.8c-1,1-1.6,2.3-2.4,3.5
				c-0.4,0.7-0.5,2-1,2.2c-3.9,1.8-4.6,5.7-6.5,8.8c-2.6,4.1-5.5,7.8-7.2,12.7c-1.1,3.4-4,6.3-6.4,9.3c-4,4.9-6.7,10.1-7.2,16.7
				c-0.3,4.3-2.1,9.2-4.8,12.5c-3.2,3.8-3.8,8-4.2,12.1c-0.5,6.2,0,12.5,0.1,18.8c0.2,10.5,1.2,21-1.1,31.4c-0.2,0.8-0.4,1.9,0,2.4
				c3.1,3.7,1.2,7.6,0.4,11.4c-0.7,3.5-1.1,7.1-2.4,10.4c-2,4.9-6.2,9.6-12,5.3c-5.4-3.9-10.4-8.4-16-12c-7.1-4.6-10.3-11.8-14-18.8
				c-3.5-6.7-8.6-11.8-15-15.6c-5.1-3.1-7.5-7.9-8.1-13.5c-0.5-4.2-0.7-8.5-0.1-12.6c1.2-7.2-0.5-14.5,1.8-21.8
				c1.3-4.1-0.5-9.2-0.4-13.8c0.2-8.8,0.7-17.6,1.2-26.4c0.2-3.7,0.8-7.4,0.7-11.1c-0.3-6.2,0.9-12.2,0.2-18.4
				c-0.4-3.9,0.7-7.9,0.9-11.8c0.1-2.5-0.3-5-0.1-7.5c0.5-6.2,0.7-12.6,1.8-18.7c1.6-8.5,0.8-16.7-1-25c-1.2-5.7-1.9-11.6-2.2-17.5
				c-0.8-13.6-1.4-27.3-1.8-40.9c-0.1-5.6,0.6-11.2,0.9-16.9c0-0.8,0.3-1.7,0.1-2.5c-2.5-11.7-0.5-23.3,1.7-34.8
				c1.1-5.7,2-11.5,3.5-17.2c2.4-8.9,4.9-17.8,7.9-26.5c2.4-6.9,5.6-13.5,8.5-20.3c0.5-1.2,0.9-2.4,1.6-3.4c1.6-2.4,3-5.9,5.3-6.8
				C482.1,111.5,485.9,112.3,489.4,112.4z"/>
		</defs>
		<use xlink:href="#SVGID_00000176726190873929608980000014987702065801484447_"  style="overflow:visible;fill:#FFFFFF;"/>
		<clipPath id="SVGID_00000152951135700906819000000014353436718773846170_">
			<use xlink:href="#SVGID_00000176726190873929608980000014987702065801484447_"  style="overflow:visible;"/>
		</clipPath>
		
			<path id="logo_path_2" style="clip-path:url(#SVGID_00000152951135700906819000000014353436718773846170_);fill:#FFFFFF;stroke:#FFFFFF;stroke-width:60;stroke-linecap:round;stroke-miterlimit:10;" d="
			M493,89c-4.9,38.9-10.5,98.2-10,172c0.1,19.2,0.5,20.3,1,44c-8,111,23,239-3,239c-15,0-17.6-29.8-15-60
			c6.2-72.7,58.9-118.3,87-142c7-5.9,17.7-14,32-14c2,0,19.8,0.2,29,13c5.1,7.1,5.1,14.8,5,29c-0.1,14.1-2.3,24.4-3,28
			c-6.7,35.5,13,70.3,14,72c15.5,26.6,39.9,39,52,44"/>
	</g>
</g>
<g>
	<g>
		<defs>
			<path id="SVGID_00000141448303930966251380000011626329869259477379_" d="M901.9,442.1c-1.9-4.3-4.4-8.4-2.4-13.5
				c0.8-2.1-1-3.5-3.2-2.9c-1,0.3-1.8,1-2.8,1.3c-6.3,2-12.6,4.2-19.4,2.9c-0.6-1.9-1.1-3.6-1.6-5.4c-2.4-7.8-2.8-15.3,1.8-22.6
				c1-1.7,1.2-3.9,1.6-5.9c1.7-8.9,3.2-17.8,5-26.7c1.2-6.1,3.4-11.9,6.8-17.2c2-3.1,4-6.3,5.6-9.6c1.7-3.4,3-7.1,4.5-10.7
				c1.3-3.2,2.9-6.7,0.5-9.9c-3.7-5-9-8.1-14.9-9.6c-4.1-1.1-8.2-1.2-10.5-5.5c-0.6-1-2.4-1.6-3.7-2c-7.4-2.6-14.7-5.6-22.3-7.5
				c-4.5-1.2-9.7-1.7-14.1-0.8c-5.8,1.2-11.2,4.3-16.7,6.6c-0.9,0.4-1.8,1.5-2.7,1.4c-8.9-1-16.6,3.3-24.7,5.3
				c-2.4,0.6-5.3,0.1-7.7-0.6c-6.5-2-13.1-3.3-19.4-0.1c-7.2,3.7-14.5,7.4-20.9,12.4c-6.8,5.3-12.9,11.5-18.9,17.7l-1.9,2
				c-6,6.2-10.1,13.9-12.1,22.1c-1.9,7.8-2.1,15.9-3.2,23.9c-1.7,12.8,0.8,24.6,7.8,35.5c2.5,3.8,5.9,7.2,7.7,11.3
				c3.8,8.5,9.7,15,16.4,21.4c10.4,9.9,22.9,16.2,35.7,22c5.8,2.6,12.7,4,19.3,1.1c7.4-3.3,14.2-7.2,14.5-16.7
				c0-0.7,0.4-1.7,0.9-2.2c3.6-3,7.2-6.2,11.1-8.7c5.9-3.6,10.9-8.1,15-13.6c2.3-3.1,4-3.5,6.3-0.5c7.3,9.4,16.3,16.8,26.8,22.5
				c1.3,0.7,2.6,1.2,3.9,1.9c7.5,3.9,15.1,0.5,22.6-0.1c0.8-0.1,1.6-1.2,2.2-2c2.9-3.4,5.9-6.8,9.2-10.6
				C903.4,446.7,902.9,444.3,901.9,442.1z M746.6,417.1c-4.4-9.2-0.9-15.7,5.6-22.3C750.2,402.5,748.5,409.5,746.6,417.1z
				 M821.2,388.6c0.5,2.8,0.5,5.7,0.9,8.6c0.6,5.1,0.9,10.3,2,15.3c0.7,3.5,0.2,6.2-1.9,9.2c-6.2,8.7-13.5,16.2-21.7,23
				c-2.6,2.2-4.8,1.6-6.6-0.1c-4.9-4.7-10.6-5.8-17.2-4.8c-4.8,0.7-8.5-2.4-10.9-6.5c-3.4-6-3.2-12.7-3.4-19
				c-0.2-7.4,4.3-13.7,8.7-19.2c5.5-7,12.1-13,17.9-19.7c2.7-3.1,4.6-6.8,6.7-10.3c0.5-0.8,1-2.1,0.7-2.9c-1.5-4,0.1-7.4,1.4-11.1
				c1.2-3.4,2.8-5.2,6.1-6.1c6.4-1.8,12.8-3.3,20.2-3.2c0.4,4.9,0.6,8.8-0.7,12.9C819.9,365.6,819,377,821.2,388.6z"/>
		</defs>
		<use xlink:href="#SVGID_00000141448303930966251380000011626329869259477379_"  style="overflow:visible;fill:#FFFFFF;"/>
		<clipPath id="SVGID_00000179608578697143431170000017069089045431651745_">
			<use xlink:href="#SVGID_00000141448303930966251380000011626329869259477379_"  style="overflow:visible;"/>
		</clipPath>
		
			<path id="logo_path_3" style="clip-path:url(#SVGID_00000179608578697143431170000017069089045431651745_);fill:#FFFFFF;stroke:#FFFFFF;stroke-width:80;stroke-linecap:round;stroke-miterlimit:10;" d="
			M817,442c-0.7,2-20,22-38,21c-21-6.8-32.2-30.3-34-34c-11.8-24.9-4.3-54.6,10-74c15.4-20.8,36.6-27,47-30c3.9-1.2,45.6-12.9,57,4
			c4.5,6.7,2.8,15.6,0,30c-3.6,18.8-9.1,20.3-10,34c-0.3,4.7-0.7,19.9,9,34c3.7,5.4,10.8,15.6,24,18c13.9,2.5,24.8-5.3,27-7"/>
	</g>
</g>
<g>
	<g>
		<defs>
			<path id="SVGID_00000005949089271970835440000011736973506817824440_" d="M1008.3,272c1.9,2.5,3.8,4.9,5.9,7.5
				c1.6-1.3,2.8-2.4,4.1-3.2c3.4-1.8,6.8-2.8,10.5-0.7c1.6,0.9,3.5,1.3,5.1,2.2c7,3.7,14.7,5,22.3,6.6c11.9,2.5,21.5,9.2,29.1,18.6
				c5.1,6.3,9.4,13.2,14.1,19.8c1.9,2.7,4.8,5,5.8,8c2,6.5,3,13.4,4.5,20.1c1.2,5.2,0.6,10.6,2.8,15.6c0.4,0.9,0.1,2.1,0.3,3.1
				c1.9,10.8,1.5,21.8,2.4,32.6c0.8,9.8,2.5,19.5,3.6,29.3c0.4,3.5-0.1,7.1,0.1,10.7c0.3,11.2,1,22.5,1.1,33.7
				c0.1,5.4-0.8,10.9-1,16.3c-0.2,5.5,0,11-0.4,16.4c-0.6,8.5-1.5,17.1-2.5,25.6s-2.3,17-3.5,25.5c-0.3,2.3-0.8,4.5-1.2,6.8
				c-0.9,4.9-2.2,9.8-2.7,14.8c-0.7,6.9-4,12.7-6.3,18.9c-2.4,6.7-5.1,13.2-9,19.3c-1.8,2.7-3.1,6-3.7,9.2
				c-1.5,7.4-7.1,9.2-12.9,9.9c-2.8,0.4-4.7,1.2-6.1,3.3c-3.2,4.5-8.1,7.7-9,13.8c-0.1,0.6-0.5,1.2-1,1.6
				c-6.6,5.5-9.2,13.8-13.4,20.9c-3.7,6.3-7.4,12.6-11,19c-1.3,2.3-2.2,4.8-3.4,7.2c-0.7,1.5-1.4,3.1-2.5,4.3
				c-3.6,4.2-7.7,8.1-11.1,12.5c-4.8,6.2-9.3,12.7-13.8,19.2c-1.8,2.5-3.3,5.3-5.2,7.7c-2.2,2.6-4.7,4.8-8.5,3
				c-1-0.5-2.4-0.5-3.6-0.3c-3.4,0.6-5.9-1-8.4-2.9c-3.4-2.6-7.1-5-10.4-7.7c-6.4-5.3-11.1-11.9-12.7-20.3
				c-2.2-11.4-6.2-22.2-10.6-32.8c-0.9-2.1-1.6-4.4-1.7-6.7c-0.8-15.2-0.8-30.4,2.5-45.3c2.4-11.1,6.5-21.6,12.7-31.1
				c3.8-5.7,6.7-12,10.2-17.9c2.6-4.6,5.4-9.1,8.1-13.7c9.7-16.3,24.1-26.4,40.6-34.4c9.2-4.5,18-9.8,25.3-17.5
				c3.2-3.4,6.7-6.7,10.3-9.7c2.7-2.3,4-5.4,4.3-8.7c1.1-14.1,4.1-27.9,7.6-41.5c1.8-7.1,1.3-14.2,1.3-21.4c0-3.3,0.7-6.6,0.7-10
				c0-6-0.1-12-0.6-18c-0.6-9-2-17.9-2.3-26.8c-0.2-6.5-1.2-12.7-4.8-18c-5.5-8.2-7.8-17.3-8.5-27.1c-0.3-4.6-1.3-9.1-2-13.5
				c-2.9-1.2-4.6,0.1-6.2,1.8c-2.6,2.9-5.8,3.6-9.5,2.8c-4-0.9-8-1.6-12.1-2.2c-2.2-0.4-4.4-0.5-7-0.8c-3.4,8.1-7.4,15.5-9.8,23.8
				c-5.1,17.5-5.8,35.7-10.6,53.2c1.4,0.4,2.3,0.7,3,0.9c1.9-1.7,3.5-3.3,5.2-4.9c2.1-2,4.3-3.9,6.4-5.9c8.2-7.7,16.2-15.4,24.5-23
				c2.7-2.5,5.7-4.8,8.8-6.9c3.1-2.2,6.4-1.2,7.3,2.5c1.6,7.1,3,14.3,4,21.6c0.3,2.3-0.4,5.1-1.3,7.3c-2.8,6.2-2.1,13.6-6.3,19.4
				c-0.9,1.2-0.5,3.2-0.9,4.8c-1.3,4.7-1.2,10.1-5.8,13.3c0.2,6.7-5,10.2-8.3,14.7s-7.8,8.1-10.9,12.8c-4.1,6.2-9.9,9-16.5,10.9
				c-7.1,2-10.8,0.8-14.4-5.8c-3.5-6.4-6.5-13.1-9.6-19.8c-1.2-2.6-1.9-5.6-5.3-7c-0.8,1.9-2.4,3.8-2.3,5.6c0.2,2.6-0.8,3.8-2.4,5.3
				c-1.4,1.2-2.4,2.9-3.6,4.3c-2.7,3.3-5,3-6.9-0.9c-0.5-1.1-0.7-2.4-1.2-3.6c-1.8-4.2-3.6-8.5-5.5-12.7c-2.2-5.1-4.3-10.3-6.7-15.4
				c-2.4-5.3-4.8-10.7-7.6-15.8c-1.9-3.3-2.1-6.8-2.1-10.3c0-5.7,0.6-11.3,0.8-17c0.2-4.3,0.5-8.5,4.2-11.5c-3-4.7-1.1-9.4,0.3-13.4
				c6.6-18.6,15.2-36.3,25.2-53.2c3.7-6.2,9.2-11.3,13.9-16.8c1.9-2.2,3.9-4.3,6-6.3c1-1,2.1-2.3,3.4-2.5
				C996,274,1002.2,273.1,1008.3,272z"/>
		</defs>
		<use xlink:href="#SVGID_00000005949089271970835440000011736973506817824440_"  style="overflow:visible;fill:#FFFFFF;"/>
		<clipPath id="SVGID_00000176764978732930155930000015527479795237041587_">
			<use xlink:href="#SVGID_00000005949089271970835440000011736973506817824440_"  style="overflow:visible;"/>
		</clipPath>
		
			<path id="logo_path_4" style="clip-path:url(#SVGID_00000176764978732930155930000015527479795237041587_);fill:#FFFFFF;stroke:#FFFFFF;stroke-width:80;stroke-linecap:round;stroke-miterlimit:10;" d="
			M1053,364l-19,41c0,0-33,29-39,26s-27-17-29-31s1-53,6-63s31-32,40-32s40-1,52,10s22,41,24,54s15,82,13,105s-16,112-21,126
			s-45,84-45,84s-28,43-39,41s-30-23-31-31s0-43,5-55s30-57,35-63s25-29,39-36s30-31,33-35s12-73,11-86s-13-62-13-62"/>
	</g>
</g>
<g>
	<g>
		<defs>
			<path id="SVGID_00000116919950520461800920000016703347763645089462_" d="M1327.7,423.9c-1.5-7.1-3.8-14.1-4.5-21.2
				c-0.8-7.2-2.4-14.1-4.9-20.8c-4.1-10.9-8.3-21.8-12.9-32.5c-2.9-6.6-6.5-12.9-10-19.3c-3.4-6.3-7.1-12.4-10.2-18.7
				c-1.5-3.1-2.9-6.7-3-10.1c-0.1-4.7-1.5-8.9-3.3-13.1c-0.7-1.5-1.4-3.1-1.8-4.7c-1.2-4.2-3.2-7.5-7.3-9.7c-4.1-2.2-5.6-5.9-5-10.6
				c0.2-1.5,0-3.3-0.7-4.7c-3.1-6.4-7.1-7.5-14.4-4.2c-2.3-2-4.6-4-7.2-6.3c-3.2,1.9-5.5,3.8-8.2,4.8c-12.4,4.8-20.7,14.4-26.9,25.3
				c-7,12.3-12.5,25.4-18.7,38.2c-1.3,2.6-2.8,5.1-4.1,7.7c-6.1,11.6-12.1,23.2-18.1,34.8c-1.3,2.6-2.6,5.3-3.6,8
				c-1.9,5.1-4.1,10.1-5.5,15.3c-1.9,7.4-5.9,14.3-5.1,22.4c0.7,7,1.1,14,1.2,21.1c0.1,5,2.7,8.6,5.7,12.2c2.5,3,4.6,3.1,7-0.1
				c1.9-2.5,3.2-5.4,5.2-8.7c1,1.5,2.2,2.9,3,4.4c1.2,2.3,2.5,4.6,5.5,4.4c3.4-0.2,4-3.2,5-5.7c1.4-3.5,2.8-7,4.5-10.3
				c0.8-1.6,2.3-3.4,3.9-3.8c1.3-0.4,3.1,1,5.3,1.9c1.8-4.2,4-8.2,5.4-12.6c1.7-5.3,5-9,10.5-9.6c10-1.3,20-2.2,30.1-2.9
				c6.4-0.5,12.9-0.3,19.4-0.7c3.1-0.2,5,0.3,6.4,3.5c4.3,10.4,12.2,17.9,21.4,24.1c6.1,4.1,13.2,4.8,20.3,6.5
				c0.4-1.3,0.6-2.1,0.9-2.8c1.3-3.9,2.2-4.3,5.7-2.1c1.8,1.1,3.4,2.5,5,3.8c1.4,1.2,2.9,2.4,4.3,0.8
				C1328.3,427.1,1328,425.2,1327.7,423.9z M1245.3,354.8c-4.6,0.3-9.1,1.7-13.5,2.9c-2.9,0.8-5.3,0.4-8-1.7
				c3.5-10.4,10.3-18.9,16.1-29.1c6.6,8.3,14.6,14.5,15.3,25.5C1251.8,353.8,1248.8,354.5,1245.3,354.8z"/>
		</defs>
		<use xlink:href="#SVGID_00000116919950520461800920000016703347763645089462_"  style="overflow:visible;fill:#FFFFFF;"/>
		<clipPath id="SVGID_00000067219182511386420200000009719425743362143661_">
			<use xlink:href="#SVGID_00000116919950520461800920000016703347763645089462_"  style="overflow:visible;"/>
		</clipPath>
		
			<path id="logo_path_5" style="clip-path:url(#SVGID_00000067219182511386420200000009719425743362143661_);fill:#FFFFFF;stroke:#FFFFFF;stroke-width:60;stroke-linecap:round;stroke-miterlimit:10;" d="
			M1159,458c17.4-43.7,28.7-78.1,36-102c3.4-11.2,15.4-50.9,38-62c2.5-1.2,9.7-4.7,16-2c8.3,3.6,22.3,15.6,23,19
			c6.3,32.4,36,95,52,110c19.2-0.8,5.8-61.3-18-55c-32.2,8.6-96,17-171,8"/>
	</g>
</g>
<g>
	<g>
		<defs>
			<path id="SVGID_00000109016516845688426770000003817547095674480055_" d="M1432,42.4c-0.9-2.2-3.4-3.6-4.5-5.8
				c-2.3-4.4-4.2-9.2-6.3-13.7c-0.6-1.3-1.4-2.7-2.5-3.5c-5-3.7-10.4-6.9-16.9-6.4c-3,0.2-4.6-1.1-5.6-3.8c-0.3-0.7-0.9-1.3-1.2-1.8
				c-1.9,0.4-3.3,0.7-5.5,1.2c1.2-3,2.1-5.4,3.4-8.7c-7.6,2.9-14.4,5.7-17.7,12.2c-4.4,8.6-8.2,17.6-11,26.9
				c-3.2,10.6-4.9,21.7-7.2,32.6c-0.6,2.9-0.7,6-2,8.5c-4.2,8-5.7,16.9-6.5,25.6c-1.7,18.3-2.7,36.7,0.3,55.1
				c0.1,0.8-0.1,1.7-0.3,2.5c-1.9,9.9-4,19.7-5.8,29.6c-0.8,4.3-0.7,8.9-1.8,13.1c-2.7,10.7-4,21.5-4.6,32.5
				c-0.6,10.6,0.4,21.1,1.1,31.6c0.4,5.8,2.2,11.6,3.7,17.3c2.1,7.7,4.8,15.3,6.9,23c2.6,10,7.5,19.2,8.6,29.7
				c1.6,16.1,7.1,30.8,14.5,45c2,3.9,3.4,8.2,4.5,12.5c1.6,6.8,4.4,13.1,8.1,18.9c4.2,6.5,10.2,10.8,16.2,15.4
				c9.1,6.9,18.6,10.2,28.5,6.3c2.9-4.9,5.4-9.1,7.8-13.2l1-1.7c0.2-2.1-0.8-4.9-1.5-7.7c-0.6-2.2-0.5-4.6-1.4-6.5
				c-3.2-6.8-7.6-13.1-9-20.7c-0.7-3.7-1.9-6.5-5.7-5.7c-1.2-5.9-1.8-11.5-3.6-16.7c-4.6-13.5-10-26.8-14.6-40.3
				c-2.4-7.2-4-14.6-5.8-22c-0.9-3.5-0.9-7.3-2.1-10.6c-4-10.9-3.1-22.6-4.8-33.8c-0.3-1.8,0.7-4.3,1.9-5.6c1.9-2.1,4.6-3.4,6.7-5.3
				c7.8-7.1,17-12.8,21.8-23c2.8-5.9,7.5-11.2,8.9-17.4c2.8-12.1,4.2-24.5,5.6-36.9c1-8.6-0.2-17.3,1.6-25.9
				c0.9-4.3,1.1-8.8,1.6-13.2c0.4-3.9,0.6-7.9,1-11.9c0.3-3.1,1.1-6.2,1.2-9.4c0.3-9.3-0.3-18.6,0.8-27.7
				C1441.3,68.5,1437.3,55.4,1432,42.4z M1402.3,82.7c-0.2,9.5-2.2,18.9-2.9,28.4c-0.5,6.8-3,13.1-3.8,19.8
				c-0.3,2.6,0.1,5.2,0.3,8.4c-3.5,3.9-2.5,10.1-4.1,15.5c-2.2,7.8-4.7,15.4-7.7,22.9c-0.6-0.1-1.1-0.1-1.7-0.2
				c-0.8-9.7-1.9-19.4-2.2-29.2c-0.2-5.8,0.6-11.7,1.1-17.6c0.6-6.7,1.4-13.4,1.8-20.1c0.4-6.6-0.1-13.2,1.2-19.9
				c1.2-6.3,0.4-13,0.3-19.6c-0.1-3.6-0.8-7.1-0.8-10.7c0-4,0-8.1,0.8-12c1.5-7.2,3.4-14.4,2.5-21.9c-0.1-0.9,0.4-1.9,0.6-2.9
				c0.5-0.1,1.1-0.3,1.6-0.4c3.2,6.4,6.7,12.6,9.4,19.1c1.5,3.8,5.1,7.4,2.5,12.2C1405.2,63.8,1402.5,73.4,1402.3,82.7z"/>
		</defs>
		<use xlink:href="#SVGID_00000109016516845688426770000003817547095674480055_"  style="overflow:visible;fill:#FFFFFF;"/>
		<clipPath id="SVGID_00000161616575817541465320000016670783195031062181_">
			<use xlink:href="#SVGID_00000109016516845688426770000003817547095674480055_"  style="overflow:visible;"/>
		</clipPath>
		
			<path id="logo_path_6" style="clip-path:url(#SVGID_00000161616575817541465320000016670783195031062181_);fill:#FFFFFF;stroke:#FFFFFF;stroke-width:60;stroke-miterlimit:10;" d="
			M1445,451c-19.7-19.8-42.2-48.4-57-87c-6.1-16-9.1-28.9-13-46c-2.3-10.3-11.1-49.8-13-104c-1.8-52,5.4-39.3,5-102
			c0,0-0.2-30.2,12-72c2.3-8,6.4-20.5,13-21c2.8-0.2,5.9,1.8,12,10c2.4,3.2,14.1,19.3,18,33c15.1,53.4-32,155-32,155
			c-10.4,22.4-26.7,54.1-51,90"/>
	</g>
</g>
</svg>
