<svg width="750" height="280" viewBox="0 0 750 280" fill="none" xmlns="http://www.w3.org/2000/svg">
<path d="M159.44 120.855C168.75 110.869 179.371 103.904 192.745 101.802C199.432 100.751 206.25 100.751 212.806 102.59C221.46 105.087 227.36 110.474 230.638 118.884C231.031 119.935 231.425 120.855 231.818 121.907C231.818 122.038 231.949 122.038 232.211 122.432C235.227 119.147 238.374 116.125 241.914 113.365C253.846 103.641 267.614 99.6994 282.823 101.539C295.935 103.116 304.458 111.788 307.211 125.717C308.26 131.236 308.654 136.755 308.654 142.405C308.654 163.036 308.654 183.535 308.654 204.165C308.654 210.472 308.916 216.648 309.703 222.824C309.965 225.321 309.309 225.715 307.08 225.715C301.704 225.584 296.329 225.715 291.084 225.715C284.921 225.715 281.643 222.956 280.463 216.78C279.939 213.889 279.808 210.866 279.808 207.976C279.808 186.688 279.808 165.532 279.677 144.245C279.677 138.858 279.021 133.601 277.185 128.477C274.301 120.855 268.663 117.045 260.533 117.439C251.748 117.833 244.012 120.724 236.67 125.586C234.703 126.9 233.785 128.345 233.785 130.973C233.916 157.123 233.785 183.272 233.916 209.421C233.916 214.02 234.44 218.619 234.965 223.087C235.227 225.189 234.703 225.584 232.605 225.584C223.82 225.452 214.904 225.452 206.119 225.584C204.545 225.584 204.021 225.321 204.152 223.481C205.988 196.543 204.808 169.474 204.939 142.405C204.939 137.543 204.152 132.813 202.447 128.214C199.563 120.724 193.663 116.782 185.664 117.307C176.748 117.833 168.619 120.855 161.407 126.111C159.965 127.163 159.309 128.214 159.309 130.054C159.44 156.728 159.309 183.403 159.44 210.078C159.44 214.414 159.965 218.751 160.489 223.087C160.752 224.927 160.096 225.452 158.26 225.452C149.475 225.321 140.559 225.321 131.774 225.452C130.201 225.452 129.545 225.189 129.677 223.35C131.643 188.528 130.201 153.575 130.594 118.621C130.594 114.285 130.07 109.949 129.677 105.481C129.545 103.904 130.07 103.379 131.643 103.379C137.15 103.51 142.788 103.247 148.295 103.51C154.589 103.641 157.605 106.532 158.654 112.708C159.047 115.336 159.178 117.833 159.44 120.855Z" fill="white"/>
<path d="M49.9561 228.212C35.2708 227.686 19.7988 224.927 5.2446 218.225C2.75334 217.042 2.22886 216.123 3.93341 213.757C7.21138 209.29 11.0138 208.238 16.1275 210.866C28.7149 217.305 42.089 220.459 56.2498 219.145C67.0016 218.094 76.0488 213.757 80.2446 203.245C84.5715 192.47 82.4736 182.221 75.5243 173.022C70.5418 166.452 63.9859 161.722 57.2988 157.254C46.0226 149.764 33.9596 143.457 23.2079 135.31C15.2096 129.134 7.86697 122.301 3.93341 112.84C-4.06484 93.1292 1.31103 65.9288 32.124 56.862C55.4631 50.029 78.6712 51.6058 101.486 60.4099C103.846 61.3297 103.715 62.1181 102.666 63.8263C99.388 69.4767 95.8477 70.7907 89.8163 68.0312C78.6712 63.0379 67.1327 60.5413 54.8075 61.9867C45.4981 63.0379 37.7621 66.8486 33.9596 76.0468C30.1572 85.245 31.4684 94.0491 37.4998 102.065C43.2691 109.686 51.1362 114.942 59.1345 119.804C70.9352 127.163 83.2603 133.601 94.0121 142.274C102.666 149.238 109.877 157.385 112.762 168.423C118.269 190.236 110.271 214.02 81.5558 223.35C71.7219 226.766 61.4946 227.817 49.9561 228.212Z" fill="white"/>
<path d="M428.628 120.724C435.97 113.365 444.1 107.846 453.409 104.43C461.932 101.276 470.586 100.356 479.502 101.67C492.22 103.51 500.481 111.788 503.365 124.929C504.676 130.711 504.939 136.624 504.939 142.537C504.939 164.481 504.939 186.294 504.939 208.238C504.939 213.232 505.463 218.225 505.988 223.35C506.119 225.189 505.594 225.715 503.759 225.715C497.989 225.584 492.22 225.715 486.451 225.715C481.6 225.715 478.715 223.481 477.273 218.882C476.224 215.597 476.093 212.18 476.093 208.764C476.093 186.688 475.961 164.613 475.961 142.405C475.961 137.675 475.175 133.076 473.601 128.608C470.848 120.987 465.734 117.439 457.736 117.439C447.509 117.439 438.461 120.724 430.332 126.768C429.283 127.557 428.759 128.345 428.759 129.791C428.759 157.254 428.759 184.717 428.89 212.18C428.89 215.991 429.414 219.802 429.808 223.613C430.07 225.321 429.676 225.846 427.841 225.846C418.925 225.715 409.878 225.846 400.961 225.846C399.781 225.846 398.601 226.109 398.864 224.007C400.568 209.421 399.781 194.704 399.913 180.118C400.044 161.722 399.913 143.325 400.044 124.929C400.044 118.753 399.65 112.708 399.126 106.532C398.864 104.167 399.519 103.773 401.617 103.773C406.731 103.904 411.844 103.773 416.958 103.773C424.038 103.904 427.316 106.927 428.103 113.891C428.234 115.862 428.365 117.964 428.628 120.724Z" fill="white"/>
<path d="M747.64 225.452C738.724 225.452 730.463 225.584 722.072 225.452C718.007 225.452 714.467 223.875 711.844 220.59C708.304 216.123 705.682 211.129 702.666 206.267C696.11 195.624 688.768 185.374 681.425 174.862C677.229 181.169 673.164 187.345 669.231 193.521C662.937 203.114 656.643 212.575 650.35 222.298C648.776 224.664 646.941 225.715 644.187 225.584C639.991 225.452 635.796 225.584 630.813 225.584C634.615 220.984 638.025 216.78 641.434 212.575C652.841 198.777 664.117 184.849 675.656 171.183C677.229 169.343 676.967 168.292 675.787 166.452C662.15 146.742 648.514 126.9 634.878 107.058C634.222 106.138 633.566 105.087 632.649 103.641C642.483 103.904 651.53 103.247 660.708 104.036C664.379 104.43 666.871 106.795 668.706 109.686C672.64 115.599 676.311 121.644 680.245 127.557C684.965 134.653 689.816 141.617 694.537 148.713C695.979 148.318 696.241 147.004 696.897 146.085C705.288 133.207 713.68 120.198 721.809 107.189C723.514 104.561 725.35 103.379 728.496 103.641C732.43 103.904 736.495 103.641 741.084 103.641C736.888 108.635 733.217 113.234 729.546 117.702C719.974 129.396 710.271 141.223 700.568 152.918C699.126 154.757 699.126 155.808 700.437 157.648C715.778 179.592 730.988 201.537 746.329 223.481C746.722 224.007 746.984 224.532 747.64 225.452Z" fill="white"/>
<path d="M368.313 165.532C368.313 178.541 368.444 191.55 368.313 204.559C368.182 210.866 368.837 217.174 369.362 223.481C369.493 224.927 369.231 225.321 367.788 225.321C358.61 225.321 349.432 225.189 340.254 225.321C338.418 225.321 338.418 224.532 338.549 223.218C340.909 188.397 339.073 153.443 339.598 118.621C339.598 114.285 338.942 109.949 338.549 105.613C338.418 104.036 338.811 103.51 340.385 103.51C346.416 103.642 352.448 103.51 358.348 103.773C363.986 104.036 366.74 106.664 367.788 112.314C368.182 114.679 368.444 117.045 368.444 119.541C368.313 134.915 368.313 150.29 368.313 165.532Z" fill="white"/>
<path d="M352.709 84.0624C344.187 84.0624 336.975 76.8352 337.106 68.294C337.237 59.8842 344.056 52.7884 352.578 52.7884C361.101 52.657 368.313 59.7528 368.313 68.294C368.444 76.9666 361.363 84.0624 352.709 84.0624Z" fill="white"/>
<path d="M630.55 139.252C627.666 123.352 619.798 111.263 604.326 105.087C594.493 101.145 584.265 100.356 573.776 101.408C552.01 103.642 536.931 115.074 528.933 135.441C521.984 153.181 522.115 171.446 527.36 189.448C532.998 208.895 545.454 222.036 565.778 226.372C579.938 229.394 593.968 228.212 607.736 223.613C614.029 221.51 620.061 218.751 625.174 214.283C626.879 212.706 627.928 210.998 627.535 208.501C627.01 205.216 625.961 204.691 623.208 206.662C613.111 214.152 601.835 217.437 589.51 216.78C573.12 215.86 564.466 209.027 559.484 193.39C556.468 183.666 555.55 173.679 555.157 163.693C555.026 161.59 555.55 160.933 557.779 160.933C569.449 161.065 581.118 160.933 592.788 160.933C604.326 160.933 615.996 160.802 627.535 161.065C630.288 161.065 631.075 160.013 631.337 157.517C631.861 151.472 631.73 145.296 630.55 139.252ZM599.213 151.866C585.183 152.786 571.153 153.838 557.124 154.889C555.944 155.02 554.632 155.414 554.764 153.312C555.681 141.354 556.599 129.265 563.024 118.621C568.4 109.817 576.923 106.138 586.757 108.503C592.919 109.949 596.722 114.154 599.082 119.804C600.131 122.169 600.917 124.666 601.573 127.294C602.753 132.55 603.278 137.806 603.409 143.194C603.409 144.639 603.146 146.085 603.409 147.399C604.064 151.078 602.36 151.735 599.213 151.866Z" fill="white"/>
</svg>
