<svg width="970" height="384" viewBox="0 0 970 384" fill="none" xmlns="http://www.w3.org/2000/svg">
<path d="M456.049 66.1866C455.853 66.1866 455.853 65.9908 455.656 65.9908C456.049 66.1866 455.853 65.9908 456.049 66.1866ZM415.419 329.367L415.615 329.171H415.223C415.223 329.562 415.026 329.171 415.419 329.367ZM516.11 59.9204L515.914 59.7246C515.914 59.7246 515.914 59.9205 515.718 60.1163C515.914 59.9205 516.11 59.9204 516.11 59.9204ZM376.948 88.7058C377.145 88.7058 377.145 88.5099 377.341 88.5099H377.145L376.948 88.7058ZM411.297 319.184C411.297 319.184 411.493 319.184 411.493 319.38L411.69 319.184L411.493 318.988L411.297 319.184ZM340.44 86.1601C340.44 86.1601 340.244 86.1601 340.244 85.9643C340.048 86.5518 340.048 86.9434 339.851 87.5309V87.7267H340.048C340.244 87.1392 340.244 86.7476 340.44 86.1601ZM411.69 315.855C411.886 316.051 411.69 316.051 411.886 315.855H411.69ZM412.671 331.716H413.064C412.867 331.521 412.867 331.521 412.475 331.521C412.671 331.521 412.671 331.716 412.671 331.716ZM334.944 102.021C334.944 102.021 334.944 102.217 334.748 102.217L335.141 102.609C335.337 102.021 335.337 102.217 334.944 102.021ZM333.767 139.227C333.571 139.619 333.571 140.01 333.571 140.402L371.06 226.954C371.256 227.345 371.649 227.737 372.041 227.737L386.958 227.345C387.351 227.345 387.744 227.149 387.94 226.758L426.411 137.856C426.607 137.465 426.607 137.073 426.214 136.681C426.018 136.29 425.625 136.094 425.233 136.094L407.96 136.681C407.568 136.681 407.175 137.073 406.979 137.465L381.855 195.427L357.517 138.835C357.32 138.444 356.928 138.248 356.339 138.052L334.552 138.639C334.356 138.639 333.963 138.835 333.767 139.227ZM500.015 56.1999C499.819 56.1999 499.819 56.1999 499.819 56.3957C499.819 56.5915 499.819 56.5915 499.623 56.7873C500.212 56.7873 500.604 56.9832 501.193 56.9832C500.997 56.7873 500.8 56.5915 500.604 56.3957C500.408 56.1999 500.212 56.1999 500.015 56.1999ZM511.4 54.0459C511.4 54.0459 511.596 54.0459 511.596 53.8501V53.6543C511.4 53.6543 511.203 53.6543 511.007 53.4584C511.203 53.8501 511.4 53.8501 511.4 54.0459ZM511.203 53.4584L511.4 53.2626H511.203V53.4584ZM514.54 57.179C514.54 57.3748 514.54 57.3748 514.344 57.5706H515.129C515.129 57.179 515.129 57.3748 514.54 57.179ZM512.381 51.1086C512.381 51.3044 512.381 51.3044 512.185 51.5003C512.577 51.3044 512.381 51.5002 512.577 51.1086H512.381ZM460.171 65.795C459.974 65.795 459.778 65.9908 459.582 65.9908V66.1866C459.974 66.1866 460.367 66.1866 460.563 66.3825V66.1866C460.367 65.795 460.563 65.795 460.171 65.795ZM462.133 66.7741C461.937 66.5783 461.937 66.5783 461.545 66.5783C461.545 66.5783 461.545 66.7741 461.348 66.7741C461.545 66.7741 461.741 66.9699 461.937 66.9699H462.133V66.7741ZM468.022 60.1163C468.022 60.5079 468.022 60.3121 468.218 60.7037L468.414 60.5079C468.218 60.3121 468.218 60.1163 468.022 60.1163ZM468.611 60.7037L468.807 60.5079H468.611V60.7037ZM499.23 58.7455C500.997 59.1372 508.063 60.7037 508.652 61.2912H508.259C509.044 61.6828 509.633 61.8786 510.418 62.0745C510.614 61.8786 510.614 61.8786 510.614 61.487C511.007 61.6828 511.596 61.8786 511.988 62.0745C511.203 62.4661 510.222 62.6619 508.652 62.6619C508.652 62.8577 508.652 62.8577 508.455 63.0536C510.614 63.8368 512.577 62.8577 514.344 62.2703C514.54 62.4661 514.736 62.6619 514.736 62.8577C514.736 63.641 514.147 64.0326 513.755 64.4243C513.951 64.8159 513.755 64.8159 514.147 65.0117C514.736 64.8159 515.129 64.6201 515.718 64.6201C515.521 65.0117 515.521 65.2075 515.325 65.795C515.914 65.9908 516.307 65.9908 516.895 66.1866C517.681 65.795 517.877 65.0117 518.662 64.4243C518.662 64.2285 518.662 63.8368 518.466 63.641C517.877 63.4452 517.877 64.0326 516.895 64.0326V63.641C517.288 63.2494 517.484 62.8577 518.073 62.6619C518.073 62.6619 518.073 62.4661 518.269 62.4661L518.073 62.2703C516.699 62.2703 516.503 62.6619 515.718 63.2494C515.718 63.0535 515.521 62.8577 515.521 62.8577C515.325 62.8577 515.521 63.0535 515.129 62.6619C515.914 62.0745 517.288 61.6828 517.681 61.2912L517.877 61.0954C517.484 60.7037 516.307 60.7037 515.521 60.7037C515.718 60.1163 515.521 60.5079 515.325 59.7246C515.914 59.5288 516.11 59.5288 516.503 59.1372C515.718 58.5497 514.736 57.9623 513.755 57.9623C513.362 57.5706 513.755 57.3748 512.97 56.9832C512.577 57.179 512.97 57.179 512.577 57.179C512.577 57.3748 512.381 57.3748 512.774 57.5706H512.185C511.596 57.5706 511.792 57.5706 511.792 56.9832C511.203 56.9832 511.4 56.9832 511.4 57.179C511.007 56.9832 510.811 56.7873 510.418 56.7873C510.418 56.5915 510.614 56.5915 510.614 56.3957C510.222 56.1999 510.418 56.1999 510.026 56.3957L509.829 56.1999V55.8083H511.007V55.6124C510.418 55.2208 509.633 55.2208 509.044 54.6334C508.455 54.8292 507.867 55.2208 507.081 55.4166C507.474 54.4375 509.241 53.4584 510.222 53.2626C510.418 53.0668 510.614 52.871 510.614 52.6752C510.222 52.4794 510.222 52.2835 509.829 52.2835V52.0877V51.8919C510.418 52.0877 510.811 52.2835 511.4 52.0877L511.596 51.8919C511.596 51.6961 511.596 51.6961 511.792 51.5003C511.203 51.3044 510.614 51.1086 510.026 50.9128H508.063C507.67 50.9128 506.493 51.6961 505.904 51.8919C504.726 52.4793 504.334 53.8501 502.763 54.2417C502.567 54.6334 502.567 54.6333 502.763 55.025V55.2208C502.371 55.2208 502.371 55.2208 502.174 55.025C501.586 55.2208 501.193 55.6124 500.801 56.0041C500.997 56.1999 501.193 56.3957 501.389 56.5915C500.408 56.3957 499.427 56.9832 498.445 57.179C499.034 57.9623 499.034 58.3539 499.23 58.7455ZM475.088 59.9204H474.695C474.499 60.1163 474.499 60.1163 474.303 60.3121C474.303 60.3121 474.499 60.3121 474.499 60.5079C474.892 60.1163 474.892 60.3121 475.088 59.9204ZM438.58 136.29C438.384 136.485 438.187 136.877 438.187 137.073L438.776 224.8C438.776 225.387 439.365 225.974 439.954 225.974H510.811C511.203 225.974 511.4 225.779 511.596 225.583C511.792 225.387 511.988 225.191 511.988 224.8V207.568C511.988 206.98 511.4 206.393 510.811 206.393H461.152V189.944H494.127C494.52 189.944 494.716 189.748 494.912 189.552C495.108 189.356 495.305 188.965 495.305 188.769V171.537C495.305 170.95 494.716 170.362 494.127 170.362H461.152V155.088H510.222C510.614 155.088 510.811 154.892 511.007 154.697C511.203 154.501 511.4 154.109 511.4 153.913V136.877C511.4 136.29 510.811 135.702 510.222 135.702H439.758C439.169 135.898 438.776 136.094 438.58 136.29ZM644.673 112.4C644.87 112.596 644.87 112.596 645.066 112.791V112.4C644.87 112.204 644.673 112.204 644.477 112.008C644.673 112.008 644.673 112.204 644.673 112.4ZM648.795 117.491L648.991 117.295C648.795 117.099 648.599 116.904 648.599 116.904C648.599 117.099 648.795 117.295 648.795 117.491ZM644.477 105.742C644.673 105.546 644.673 105.546 644.87 105.546C644.673 105.35 644.477 105.155 644.281 104.959C644.281 105.155 644.477 105.35 644.477 105.546C644.281 105.35 644.281 105.35 644.084 105.155C644.281 105.35 644.477 105.546 644.477 105.742ZM644.281 111.421C644.477 111.421 644.477 111.421 644.673 111.617V111.421C644.477 111.029 644.281 110.637 643.888 110.246V111.029C644.084 111.225 644.084 111.225 644.281 111.421ZM642.318 107.113C642.122 106.917 642.122 106.721 641.925 106.525C641.925 106.721 642.122 106.917 642.318 107.113ZM344.17 63.0536C343.973 63.641 343.777 64.0326 343.384 64.6201C342.992 65.0117 342.599 65.4034 342.207 65.9908C342.011 66.5783 340.048 71.2779 340.048 71.4737H341.029C340.833 72.8445 341.618 72.8445 341.422 74.6068C340.833 77.1525 339.066 80.0898 338.281 83.027C338.085 83.6145 337.496 84.9852 337.692 85.7685C337.889 86.7476 338.281 87.9225 337.889 89.0974C337.496 89.6849 337.104 90.4681 336.711 91.2514C336.122 91.2514 336.122 91.4472 335.533 91.2514C335.337 92.6221 335.926 93.6012 335.926 94.7761C336.318 94.7761 336.122 94.7761 336.318 94.5803C337.104 96.7343 336.711 99.0841 335.141 100.651C335.533 102.805 336.711 103.784 336.318 107.113V107.309H336.515C338.477 105.35 337.889 105.546 338.085 103.001C338.085 102.805 337.889 102.609 337.889 102.217C337.692 102.413 337.496 102.609 337.496 102.805H337.3C337.104 101.238 338.674 97.126 339.066 95.3636C339.263 94.1887 338.674 92.2305 338.87 91.0556C339.655 87.9225 339.851 81.2647 342.599 79.3065C342.796 79.5023 342.796 79.6981 342.992 79.8939C343.188 79.8939 343.188 79.6981 343.384 79.6981C343.973 81.4605 341.618 84.2019 342.011 86.7476C341.422 87.1392 341.225 87.5309 340.833 88.1183C340.833 88.1183 341.029 88.3141 341.225 88.3141C341.422 88.1183 341.618 87.9225 341.814 87.7267C341.814 88.3141 341.422 90.2723 342.011 90.8598C342.207 91.0556 342.011 91.0556 342.403 90.8598L342.599 91.0556C342.207 91.8389 342.011 92.0347 342.011 93.2096C342.207 93.4054 342.207 93.4054 342.599 93.4054C342.403 93.7971 342.403 94.1887 342.207 94.7761H342.796C342.796 96.1469 342.207 96.5385 341.618 97.5176C341.814 98.6925 342.403 99.0841 342.992 100.063C342.599 100.455 342.599 100.847 342.403 101.434C343.384 102.805 344.758 112.008 342.796 113.379C342.403 113.966 342.403 113.966 342.599 114.554C342.207 114.945 342.011 114.945 341.618 115.141C340.244 118.666 343.384 119.645 343.384 122.582C343.581 122.778 343.777 122.974 344.17 122.974C344.17 122.974 355.946 122.582 362.816 122.387C363.012 122.387 362.227 122.191 362.031 121.799C361.638 121.603 360.461 114.358 360.657 113.379C360.853 112.987 361.246 112.596 361.442 112.204C360.461 110.05 362.031 107.7 362.816 105.742C363.601 103.98 364.19 102.217 364.975 100.455C365.564 99.6716 366.938 99.8674 367.331 98.3009C367.527 97.3218 367.134 96.3427 367.723 95.1678C368.116 93.9929 369.49 93.6012 369.293 92.2305C369.882 92.2305 371.06 91.8389 371.256 91.2514C371.452 91.0556 371.452 90.8598 371.649 90.664C371.649 91.0556 371.649 90.8598 371.452 91.2514C372.041 91.0556 371.845 90.8598 372.041 91.0556C372.238 90.8598 372.238 90.664 372.434 90.4681C372.238 90.2723 372.238 90.0765 372.041 90.0765C373.808 90.2723 375.182 89.489 376.752 88.7058C377.733 88.9016 377.341 88.3141 377.341 87.7267C377.537 87.5309 377.733 87.335 378.126 87.1392V87.335C377.93 87.5308 377.93 87.7267 377.733 87.7267C377.93 87.7267 377.93 87.9225 378.126 87.9225C378.518 88.3141 380.285 87.335 381.266 87.5309C382.248 87.7267 384.407 88.5099 384.996 88.9016H385.388V88.5099H384.603C384.603 88.3141 384.603 88.3141 384.407 88.1183C384.799 88.1183 384.996 87.9225 385.192 87.9225C385.192 88.3141 385.781 88.9016 386.173 89.2932C386.173 89.2932 385.977 89.2932 385.977 89.489C385.977 89.6849 385.781 89.6849 385.781 89.8807C386.173 90.0765 386.37 90.4681 386.762 90.664C387.351 90.4681 387.744 90.2723 388.136 90.0765C388.136 90.2723 388.332 90.4681 388.332 90.8598C389.118 90.6639 389.118 90.2723 389.51 89.8807C389.903 90.2723 390.295 91.0556 390.884 91.2514C391.08 91.2514 391.08 91.4472 391.277 91.4472H391.473C391.669 91.2514 391.669 91.0556 391.865 90.8598C391.473 90.4681 391.08 90.2723 390.884 89.8807L390.688 89.6849C391.08 89.2932 391.277 89.2932 391.865 89.0974C392.062 88.7058 392.062 88.7058 392.062 88.1183C391.865 88.3141 391.473 88.5099 391.277 88.5099H391.08C391.08 88.3141 390.884 88.3141 390.884 88.1183C392.454 87.1392 394.417 87.335 396.184 87.7267C396.38 87.5309 396.38 87.1392 396.576 86.9434C396.772 86.9434 396.772 86.7476 396.969 86.7476V88.1183C399.324 88.3141 401.091 87.5308 402.857 89.2932C403.25 89.6849 403.25 90.4681 403.446 90.664C404.231 91.2514 406.39 90.0765 407.568 90.0765C407.96 90.6639 409.138 93.2096 409.727 93.4054C410.512 95.3636 408.157 96.3427 408.353 97.9092H408.549C408.942 97.5176 408.942 97.5176 408.746 97.1259C408.746 97.1259 408.942 97.126 408.942 96.9301C409.138 97.5176 408.942 97.3218 409.531 97.5176C409.138 97.9092 408.745 98.105 408.353 98.4967C408.157 98.8883 408.549 99.8674 408.549 100.847C408.746 101.042 408.942 101.042 409.138 101.042C409.138 100.846 409.334 100.651 409.334 100.651C409.334 100.651 409.334 100.847 409.531 100.847C409.138 101.434 409.138 101.63 408.746 102.021C408.942 102.021 408.942 102.021 409.138 101.826C409.334 102.217 409.531 102.413 409.334 103.001C409.334 104.567 411.101 104.567 410.316 106.329C410.905 107.113 412.867 106.721 413.26 106.721C413.26 105.35 414.83 103.98 415.419 102.805C416.204 101.238 415.419 98.8883 415.419 96.9301C415.615 96.9301 415.812 96.7343 416.008 96.7343C415.812 95.3636 415.419 93.797 415.223 92.2305C415.812 86.5518 420.326 85.181 424.84 83.8103C426.999 83.2229 426.214 81.2647 430.14 82.0479C431.121 80.2856 434.458 80.4814 436.421 80.0898C436.421 80.0898 436.421 79.8939 436.617 79.8939C436.225 79.6981 436.225 79.6981 436.028 79.3065V79.1107C436.617 78.719 438.187 78.5232 438.776 78.5232C438.973 78.1316 439.169 77.9358 439.365 77.7399C438.973 77.1525 438.187 76.9567 437.402 76.9567V76.7608C438.187 76.9567 438.776 76.9567 439.365 77.1525V77.9358C439.365 77.9358 439.758 75.7817 439.758 74.6068C439.561 74.6068 439.365 74.411 439.169 74.411C438.776 74.2152 439.169 74.411 439.169 73.8236C439.169 73.4319 439.954 72.257 440.346 71.8654C439.954 71.6696 440.346 69.9072 440.346 69.3197C440.935 68.9281 441.328 68.5365 441.917 67.949C440.739 69.7114 441.328 69.7114 440.935 71.6696C441.328 71.6696 441.524 71.8654 441.917 72.0612C441.328 72.6487 440.739 72.8445 440.346 73.6277C440.346 73.6277 440.346 73.8236 440.15 73.8236C440.346 74.0194 440.346 74.0194 440.739 74.0194C441.328 72.8445 443.879 71.8654 444.861 70.103C444.272 69.3197 444.468 68.9281 444.272 68.1448C444.665 68.5365 444.861 68.9281 445.646 69.1239C445.45 69.3197 445.253 69.5155 445.253 69.7114C446.824 69.9072 449.179 67.7532 449.768 66.7741C449.572 66.3825 449.768 66.5783 449.375 66.3825V66.1866C451.338 65.9908 454.086 66.5783 456.049 66.3825C455.853 66.1866 455.656 65.9908 455.46 65.795C453.89 65.9908 452.516 65.4034 450.946 65.795C452.908 64.2284 458.6 66.3825 461.152 65.4034C461.348 65.9908 461.937 65.9908 463.311 65.9908C463.507 65.795 463.507 65.5992 463.704 65.4034C463.704 65.2076 463.507 65.0117 463.311 64.8159C463.115 65.4034 463.311 65.4034 462.722 65.4034C462.526 65.4034 462.133 65.4034 461.937 65.2076C461.741 64.6201 461.937 63.641 460.956 63.4452V63.2494C461.545 63.0535 461.937 63.0535 462.526 62.8577C462.33 62.6619 462.133 62.4661 462.133 62.2703C462.919 61.2912 464.293 60.8995 465.078 60.3121C466.648 60.7037 467.826 60.7037 469.396 59.7246C469.592 60.1163 469.592 59.9205 469.592 60.3121C471.555 60.1163 473.518 60.3121 475.677 59.7246C475.48 59.5288 475.48 59.333 475.284 59.1372C475.48 59.1372 476.658 59.5288 477.051 59.5288C478.621 59.9205 481.761 59.5288 483.135 59.1372L483.332 59.333C482.743 59.5288 482.35 59.5288 481.761 59.7246C481.761 59.7246 481.761 59.9204 481.565 59.9204C482.154 60.1163 482.743 60.1163 483.332 60.3121C481.369 60.7037 479.21 60.8995 477.247 61.2912C477.247 61.2912 477.247 61.487 477.051 61.487C477.247 61.487 477.443 61.2912 477.836 61.2912C477.64 61.2912 477.443 61.487 477.443 61.487C476.854 62.0745 476.854 62.0745 476.854 63.2494H477.443C477.836 63.8368 477.64 64.2285 478.425 64.2285C479.799 64.2285 481.369 63.2494 482.939 63.2494C483.135 62.8577 482.939 62.6619 483.528 62.4661C483.724 62.6619 483.724 62.6619 483.724 62.8577C483.92 62.6619 483.92 62.6619 484.117 62.4661C484.313 63.0535 484.509 63.0535 485.098 63.2494C486.08 62.2703 491.575 63.4452 493.342 63.0536H493.538C493.146 62.6619 492.949 62.6619 492.164 62.6619C492.361 62.4661 492.557 62.4661 492.753 62.2703C494.127 62.6619 495.501 62.4661 497.267 62.4661V62.0745C497.464 61.487 496.482 60.8995 495.697 60.8995V60.7037C495.893 60.3121 496.286 60.1163 496.482 59.7246C496.286 59.333 496.286 59.5288 496.286 59.1372C496.09 59.1372 495.893 58.9414 495.697 58.9414C494.716 59.5288 492.164 60.1163 492.164 61.487C491.379 61.6828 490.987 61.487 490.987 60.7037C488.631 60.8995 487.65 59.7246 485.491 59.5288C485.294 59.333 485.098 59.1372 485.098 58.9414H485.491C485.491 58.9414 485.491 58.7455 485.687 58.7455C485.098 58.5497 484.313 58.1581 483.724 57.9623C483.332 57.7664 483.135 56.7874 482.743 56.1999C482.939 56.0041 483.135 56.0041 483.332 55.8083C483.135 55.6124 482.743 55.4166 482.154 55.4166V55.2208C483.332 55.025 483.724 54.4375 484.902 54.0459C484.902 53.8501 485.098 53.8501 485.098 53.6543V53.4584C483.92 53.8501 483.135 53.6543 481.565 53.6543C481.369 52.871 480.78 52.6752 479.995 52.4794C479.995 52.4794 479.995 52.2835 479.799 52.2835C481.173 52.4794 481.761 53.0668 482.939 53.2626C484.117 53.0668 485.098 53.0668 486.276 52.871V52.4794C486.668 52.2835 486.276 52.2835 486.08 51.8919C486.276 51.8919 486.472 52.0877 486.472 52.0877V51.8919C483.92 48.3672 474.695 49.7379 470.77 50.3254C469.2 50.717 468.022 52.0877 466.059 52.0877C467.04 51.3044 472.536 49.1504 474.303 48.563C474.303 48.563 477.836 48.7588 478.032 48.7588C478.425 48.3672 478.621 47.9755 479.013 47.7797C480.387 46.9964 482.547 47.3881 484.509 47.7797C487.061 48.563 489.22 48.7588 491.772 49.5421C493.342 50.1295 497.856 51.8919 499.427 51.6961C500.604 51.5003 501.782 51.1086 502.763 50.717C505.315 49.7379 510.418 52.2835 512.185 50.3254C512.381 49.9337 512.185 50.3253 511.988 49.7379C511.988 49.7379 512.185 49.7379 512.185 49.9337C512.577 49.3462 512.185 47.7797 512.577 47.1922C511.988 46.9964 511.4 46.8006 510.811 46.409C510.811 46.0173 510.811 46.409 511.007 46.0173C509.829 46.0173 509.829 45.6257 509.044 45.6257C508.848 44.4508 507.67 44.0592 506.493 43.8633V43.6675C507.474 43.8633 508.259 43.8633 509.241 44.0592C508.652 43.2759 507.474 43.2759 507.474 42.4926C506.689 42.2968 505.904 42.4926 505.119 41.9052C504.726 41.7093 504.922 41.7093 504.726 41.3177C504.334 40.9261 503.156 41.1219 502.763 40.7302C502.371 40.3386 502.174 39.947 501.586 39.5553C501.389 39.1637 501.389 39.3595 501.782 38.9679C501.782 38.7721 499.819 37.4013 499.034 37.2055C499.427 36.8139 499.23 37.0097 499.623 37.0097C499.623 36.8139 499.623 36.2264 499.819 35.4431C499.623 35.2473 499.427 35.2473 499.034 35.0515C499.034 35.0515 499.23 34.4641 499.23 33.8766C498.249 33.485 497.267 33.0933 497.267 31.9184H496.679C496.09 30.9393 493.538 27.8062 493.734 26.8271C491.183 27.6104 487.846 31.7226 484.313 28.7853C483.724 28.7853 483.332 28.002 482.154 27.8062C482.154 27.4146 482.154 27.2188 481.958 26.8271C481.761 26.8271 481.565 26.8271 481.173 26.6313C481.565 25.848 481.761 25.6522 481.761 24.4773C482.154 24.2815 482.547 24.2815 482.939 24.0857C482.939 23.8899 482.743 23.694 482.547 23.694C482.154 23.8898 481.958 23.8899 481.565 24.0857C480.78 23.3024 479.406 22.9108 478.032 22.7149V22.5191V22.3233C478.228 22.1275 478.228 22.1275 478.621 22.1275V21.9317C477.836 21.1484 476.069 19.9735 475.088 19.5818H472.536C470.377 18.7986 468.218 18.0153 466.059 18.0153C465.863 18.2111 465.666 18.4069 465.47 18.6028C465.47 18.7986 465.47 18.7986 465.274 18.9944C465.47 19.1902 465.47 19.1902 465.863 19.386C465.47 19.9735 464.881 20.1693 463.9 20.3651C464.685 21.3442 464.096 21.3442 464.685 22.1275C464.293 22.5191 461.741 23.4982 460.76 23.4982C460.563 23.694 460.563 23.8899 460.367 24.0857C461.741 24.4773 462.919 25.4564 462.919 27.2188C461.741 29.5686 459.189 29.9602 456.245 30.5477C455.067 30.5477 454.086 30.5477 452.908 30.7435H452.712C452.712 31.1351 452.712 31.7226 453.301 32.1142C452.712 33.2891 451.534 34.4641 452.32 35.639C451.731 36.0306 450.946 36.6181 450.357 36.6181V37.5972C450.16 37.5972 450.16 37.5971 449.964 37.793C449.964 37.4013 449.768 37.4013 449.572 37.0097C448.786 37.2055 448.198 37.4013 447.609 37.793C447.216 37.5971 446.824 37.4013 446.627 37.2055C446.235 35.639 445.253 34.4641 444.468 33.0933C445.057 32.5059 445.45 32.1142 445.842 31.5268C445.842 31.3309 445.842 30.9393 445.646 30.7435C446.235 30.156 446.824 29.7644 447.413 28.9811C445.253 28.7853 438.973 26.8271 437.795 25.6522C437.402 25.2606 437.206 24.2815 436.617 23.8899C435.636 23.4982 434.654 22.9108 433.673 22.5191H430.336H430.14C430.925 21.7358 431.318 20.5609 432.103 19.5818C431.514 19.386 430.729 19.1902 429.944 19.386V18.9944C432.103 16.6446 438.58 14.0989 441.524 14.2948C441.328 14.0989 441.132 13.9031 441.132 13.9031C442.113 13.9031 443.291 14.0989 444.468 13.9031C444.861 13.5115 444.861 13.3157 444.468 13.1198H444.861C447.02 13.3157 451.534 13.1198 453.693 12.1407C453.89 11.9449 453.89 11.9449 453.693 11.9449C455.264 11.7491 456.638 11.5533 458.208 11.5533C458.208 11.5533 458.208 11.7491 458.012 11.7491C456.049 11.5533 453.89 12.5324 453.301 13.9031C452.319 13.9031 451.338 13.9031 450.946 14.2948C451.534 14.6864 452.908 14.4906 453.693 14.6864C453.497 14.6864 453.301 14.8822 453.301 15.078C453.105 15.2738 453.105 15.4697 452.908 15.6655C454.479 15.8613 456.834 15.4697 458.012 14.8822C458.6 15.078 459.189 15.2738 459.778 15.4697C459.582 15.4697 459.386 15.6655 459.189 15.6655C460.171 16.4487 461.937 16.4488 463.9 16.4488C463.704 16.2529 463.704 16.0571 463.507 15.8613C462.919 15.6655 462.33 15.4697 461.545 15.4697C461.741 15.2738 461.741 14.8822 461.937 14.6864C461.152 14.0989 459.386 13.7073 458.993 12.924C458.6 12.5324 458.993 12.1407 458.6 11.9449H459.189C459.778 12.3366 460.563 12.924 460.956 13.1198L461.152 12.924L461.348 12.7282C461.152 12.7282 461.152 12.7282 460.956 12.924C460.76 12.5324 460.759 12.5324 460.171 12.1407V11.9449C460.563 12.1407 460.956 12.3366 461.152 12.3366V11.7491H461.545C461.741 11.9449 462.133 12.1407 462.33 12.3366V12.1407C463.9 11.7491 465.47 11.7491 466.844 11.3575C469.985 11.1617 473.321 10.9658 476.658 10.9658C477.247 11.1617 479.013 11.1617 479.406 11.1617C479.406 11.1617 479.406 11.3575 479.602 11.3575C479.21 11.5533 479.013 11.1617 478.621 11.3575H477.247C477.64 12.1407 478.228 11.9449 478.817 11.7491C479.013 11.9449 479.013 12.3366 479.21 12.5324C478.817 12.3366 478.425 12.3366 477.836 12.3366C478.032 13.1198 479.406 13.1198 480.191 13.3157C480.191 13.1198 480.191 12.924 480.387 12.924C479.995 12.924 479.602 12.7282 479.406 12.7282C479.406 12.5324 479.406 12.3366 479.602 12.1407C480.191 12.3366 480.584 12.7282 481.369 12.924C481.565 13.5115 481.761 13.9031 481.958 14.4906C480.387 14.6864 478.621 14.8822 477.051 15.078C477.051 15.078 477.051 15.2738 476.854 15.2738C477.247 15.6655 477.64 15.8613 477.836 16.2529V16.4488C476.658 16.0571 475.48 16.4488 474.303 16.2529C471.947 15.8613 470.181 14.6864 468.022 16.0571C468.022 16.2529 468.022 16.2529 468.218 16.4488C468.807 17.6237 470.966 17.232 472.144 17.4278C473.518 17.6237 475.284 17.8195 476.658 18.4069C478.032 18.9944 478.425 19.9735 479.995 20.1693C479.602 20.3651 479.406 20.3651 479.013 20.1693C479.406 20.7568 479.799 21.1484 480.78 21.3442C480.584 21.3442 480.584 21.54 480.387 21.54C480.78 21.9317 480.976 22.1275 481.565 22.5191H481.958C481.761 22.1275 481.958 22.1275 481.565 21.9317C484.509 22.9108 487.453 25.0648 490.987 25.6522C491.183 25.2606 490.987 25.4564 491.379 25.2606V25.0648C490.398 23.694 487.846 22.3233 486.276 21.54C486.276 21.3442 486.276 21.3442 486.08 21.1484C486.668 21.54 487.453 21.9317 488.042 22.1275V21.7359C490.005 22.9108 492.164 24.2815 493.931 25.2606H494.716V25.0648C494.127 24.6731 493.734 24.6731 493.342 24.0857C493.734 24.2815 493.931 24.2815 494.127 24.4773H494.323C494.323 24.0857 494.323 24.0857 493.931 23.694C493.931 23.694 493.931 23.4982 494.127 23.4982C494.323 23.694 494.323 23.4982 494.52 23.8899C495.108 23.8899 494.912 23.694 495.305 23.4982C495.501 23.8899 495.501 23.8899 495.894 24.0857H496.09C496.09 23.8899 495.894 23.8898 495.894 23.694H496.679V23.4982C496.09 23.1066 495.501 22.7149 494.716 22.5191C494.716 22.5191 494.716 22.3233 494.52 22.3233H495.108V21.3442C494.52 20.7568 492.753 19.386 491.379 19.5818C491.379 18.9944 490.987 18.2111 490.398 18.0153H491.183C491.183 18.0153 491.183 17.8195 491.379 17.8195C491.183 17.6237 491.183 17.6237 490.987 17.4278C492.36 17.6237 493.538 18.6028 494.716 18.6028C494.323 19.9735 497.071 20.3651 497.856 21.1484C498.641 20.9526 498.445 20.7568 499.034 20.7568C498.838 20.7568 498.838 20.5609 498.641 20.5609C498.838 20.1693 498.641 20.3651 499.034 20.1693C499.623 20.3651 500.015 20.5609 500.604 20.3651V20.7568H501.389C501.389 20.5609 501.193 20.5609 500.997 20.3651C501.389 20.1693 500.997 20.3651 501.389 20.3651H501.782C501.586 20.1693 501.586 19.9735 501.389 19.7777C502.371 19.9735 502.763 19.9735 503.548 19.7777C503.352 18.9944 502.174 18.6028 500.997 18.6028C500.801 18.4069 500.997 18.4069 501.389 18.4069H500.408C500.015 18.2111 499.819 17.6237 498.641 17.6237C498.838 17.4278 498.641 17.4278 499.034 17.4278C498.641 17.0362 497.66 16.6446 497.071 16.6446L496.875 16.4488C497.071 16.4488 497.071 16.2529 497.267 16.2529C496.09 16.0571 495.894 15.6655 495.108 16.0571C494.52 15.4697 494.52 15.2738 493.538 15.078C493.538 14.8822 493.734 14.8822 493.734 14.6864C492.949 14.4906 492.164 14.2947 491.183 14.0989V13.9031C491.379 13.9031 491.575 13.9031 491.772 13.7073C491.772 13.3157 491.772 13.5115 491.575 13.1198L493.931 13.7073L494.127 13.5115C493.734 13.1198 492.949 12.7282 492.164 12.7282V12.3366C492.557 12.5324 492.949 12.5324 493.342 12.7282H493.538V12.3366C492.557 11.5533 492.36 11.5533 490.987 11.7491C491.379 11.3575 491.379 11.3575 491.968 11.3575V11.1617C491.968 11.1617 491.772 11.1617 491.772 10.9658C494.716 11.1617 497.66 11.3575 500.604 11.7491V11.9449C502.174 12.3366 503.548 12.924 505.707 12.7282V12.5324C505.707 12.5324 505.511 12.5324 505.511 12.3366H506.296C506.493 12.5324 506.885 12.7282 507.081 12.7282C507.278 12.5324 507.278 12.5324 507.474 12.5324C507.081 13.1198 506.689 13.3157 506.885 13.9031C504.726 13.5115 502.96 12.7282 502.174 15.2738C502.371 15.4697 502.763 15.6655 502.96 15.8613C502.763 15.8613 502.567 16.0571 502.371 16.0571C502.371 16.2529 502.371 16.4488 502.174 16.6446C503.156 17.4278 503.548 17.8195 504.726 18.4069C504.726 18.7986 504.922 19.1902 504.922 19.7777C505.119 19.9735 505.119 19.9735 505.511 19.9735C505.904 20.3651 505.707 20.7568 505.904 21.1484C506.493 21.9317 508.848 23.1066 509.437 23.8899C509.633 24.0857 509.437 24.4773 509.829 24.869C510.614 25.4564 511.596 25.848 512.381 26.4355C512.577 26.6313 512.381 26.4355 512.381 26.6313C513.951 27.4146 516.503 27.4146 517.877 28.1979C518.073 28.3937 518.073 28.3937 518.073 28.7853C519.447 29.177 521.017 29.5686 522.391 29.9602H522.784C522.98 29.5686 522.784 29.5686 522.784 29.177C523.569 28.7853 523.765 27.8062 524.55 27.023C524.158 26.4355 524.158 26.4355 524.158 25.6522C525.335 25.4564 525.728 24.8689 526.709 24.6731C526.513 24.0857 526.709 23.8898 526.121 23.694C526.317 23.4982 526.317 23.4982 526.709 23.694L527.102 23.3024C526.709 23.1066 526.513 22.7149 526.121 22.5191H525.924V22.3233C526.513 22.5191 527.102 22.5191 527.691 22.5191C527.691 22.5191 527.887 22.5191 527.887 22.3233C527.691 22.1275 527.691 21.9317 527.495 21.7359V21.54C528.28 21.9317 528.868 21.9317 530.046 22.1275C530.046 21.9317 530.242 21.54 530.242 21.3442H530.831C530.635 21.54 530.439 21.9317 530.242 22.1275C530.242 22.1275 530.242 22.3233 530.439 22.3233C532.99 22.9108 534.561 21.9317 536.916 21.54V20.9526C538.682 20.3651 541.038 20.9526 543.001 21.3442C549.674 23.4982 555.955 26.0439 562.236 28.9811C561.451 28.7853 560.666 28.3937 559.881 28.1979L559.684 28.3937C559.684 28.5895 559.881 28.7853 559.881 28.7853C559.292 28.3937 558.899 28.002 558.114 27.8062V28.002C558.31 28.1979 558.507 28.3937 558.703 28.5895V28.7853C558.114 28.5895 558.31 28.5895 557.918 28.7853C556.74 27.8062 555.759 26.4355 553.796 26.2397C553.992 26.4355 554.188 26.6313 554.385 26.8271C553.992 26.6313 553.796 26.6313 553.6 26.4355C553.403 26.6313 553.011 26.8271 552.815 27.2188C552.815 27.2188 552.814 27.4146 552.618 27.4146C553.992 27.8062 555.366 28.1979 556.74 28.3937C556.151 28.9811 555.366 28.7853 554.188 28.3937C554.188 28.3937 554.188 28.5895 553.992 28.5895C553.992 28.5895 553.992 28.7853 554.188 28.7853C556.151 29.177 556.936 29.7644 558.114 30.3519C558.114 30.3519 558.114 30.5477 558.31 30.5477C557.918 30.3519 557.525 30.3519 557.329 30.3519L557.133 30.5477C557.133 30.7435 557.329 30.9393 557.329 30.9393C560.273 31.7226 567.143 35.0515 569.498 32.5059C576.761 36.2264 583.63 40.3386 590.304 44.6466C590.304 44.6466 590.108 44.6466 589.911 44.8424C589.911 45.4299 589.911 45.4299 590.108 45.8215C589.715 46.0173 589.519 46.0173 589.126 46.2132C589.519 46.8006 590.108 47.1923 590.304 47.5839C590.304 47.9755 590.5 48.3672 590.5 48.7588C591.482 50.1295 593.444 50.9128 594.229 52.6752C594.818 52.871 594.622 52.6752 595.015 52.4794C595.211 52.871 595.407 53.2626 595.407 53.8501C595.996 54.4375 598.744 56.0041 599.725 55.4166C600.118 55.2208 600.314 54.4375 600.118 53.8501C600.314 53.6543 600.51 53.6543 600.707 53.4584C600.707 53.2626 600.51 53.0668 600.51 53.0668V52.6752C603.455 54.0459 604.829 57.7664 607.969 58.9414C608.165 59.333 608.362 59.7246 608.362 60.1163C607.969 60.3121 607.773 60.7037 607.576 60.8995C608.165 61.6828 608.754 62.2703 609.736 62.6619C609.539 63.0535 609.539 62.8577 608.95 62.6619V62.8577C609.147 63.2494 609.343 63.4452 609.736 63.641H610.324V62.8577C610.128 62.4661 609.736 61.8786 609.147 61.6828C609.147 61.2912 609.147 61.6828 609.343 61.2912C609.147 61.0954 608.95 60.7037 608.754 60.5079C609.343 60.8995 609.736 61.2912 609.932 61.8786H611.306V61.487C610.913 61.0954 610.717 60.7037 610.521 60.5079C610.521 60.3121 610.717 60.3121 610.717 60.3121C612.287 61.6828 613.857 63.0535 615.231 64.4243V64.8159C615.035 64.8159 614.839 65.0117 614.642 65.0117C613.857 65.795 613.661 65.0117 612.876 65.0117C612.483 64.6201 612.68 64.8159 612.68 64.4243C612.287 64.2285 612.091 63.8368 611.698 63.641V64.2285C611.502 64.2285 611.306 64.2285 611.109 64.0326C611.306 64.6201 610.913 64.4243 610.717 65.2076C610.521 65.2076 610.324 65.2076 610.128 65.0117C609.932 64.8159 609.736 64.2285 609.736 64.0326C609.539 63.8368 609.539 63.8368 609.147 63.641C609.147 63.8368 609.343 63.8368 609.343 64.0326C608.558 64.0326 607.773 63.2494 607.184 62.8577C606.988 62.8577 607.184 62.8577 607.184 62.6619C606.988 62.4661 606.791 62.2703 606.203 62.2703V62.0745V61.8786C606.988 62.2703 607.576 62.6619 608.362 63.0536C607.969 62.0745 606.988 60.7037 605.81 61.0954C605.614 60.7037 605.417 60.1163 605.221 59.5288C605.417 59.7246 605.417 59.7246 605.614 59.7246V59.333C604.632 58.1581 603.258 57.5706 602.669 56.0041C602.473 56.1999 602.277 56.1999 602.081 56.3957C602.081 56.5915 602.277 56.9832 602.277 57.179H601.884C601.688 57.3748 601.492 57.3748 601.296 57.3748C601.688 59.333 605.417 62.0745 605.221 62.8577C605.417 62.8577 605.81 63.0536 606.006 63.0536C606.399 63.8368 606.988 64.2285 607.38 65.0117C606.988 65.2076 607.184 65.0117 607.184 65.5992C606.595 65.4034 606.399 65.2076 605.614 65.4034V65.9908C605.221 65.9908 604.632 66.1866 604.24 66.1866C604.24 66.3825 604.043 66.5783 604.043 66.5783C604.24 66.7741 604.24 66.9699 604.436 67.3616C604.829 67.5574 604.829 67.5574 605.221 67.3616C605.417 67.949 605.81 68.1448 605.614 68.5365C605.221 68.9281 605.614 68.7323 605.025 68.5365H604.829C605.025 69.3197 604.829 69.3197 605.221 69.9072C605.025 69.9072 604.632 69.7114 604.436 69.7114C604.043 68.7323 603.651 67.5574 603.455 66.5783C603.455 66.5783 603.258 66.5783 603.258 66.3825C603.651 67.7532 604.829 69.9072 603.847 70.6905C603.258 71.2779 602.277 71.2779 601.688 71.8654C602.081 72.4528 602.277 73.2361 602.473 73.8236C602.081 74.2152 601.884 74.2152 601.296 74.411C601.099 74.8027 600.707 74.9985 601.296 75.3901C601.296 75.5859 601.099 75.5859 600.903 75.7817C599.529 75.9776 598.155 74.9985 597.174 74.6068L596.977 74.8027C597.566 75.5859 598.351 76.1734 598.744 77.3483C598.94 77.3483 598.94 77.5441 599.136 77.7399V77.9358C598.351 77.7399 597.762 77.7399 597.174 78.1316C596.781 77.7399 596.389 77.5441 595.996 77.1525C595.211 77.5441 594.229 77.3483 593.641 77.9358H593.444C593.641 78.9148 594.229 78.719 594.818 79.1107C594.622 79.1107 594.426 79.1107 594.229 79.3065C595.407 80.2856 596.977 80.0898 598.548 80.6772C598.548 80.6772 603.455 85.3769 603.651 85.5727C603.455 85.3769 603.258 85.3768 603.062 85.181L602.866 85.3768C604.043 87.1392 605.417 89.6849 605.417 92.8179C603.651 93.4054 599.333 92.2305 596.977 92.0347C596.388 92.0347 594.818 92.6221 593.837 92.4263C593.444 92.2305 593.248 91.8389 592.463 92.0347C591.874 91.8389 591.678 92.6221 591.874 93.0138C591.285 93.2096 590.696 93.2096 590.5 93.6012C590.304 93.6012 590.108 93.797 590.108 93.797C590.108 94.7761 590.696 94.7761 590.893 95.5594C591.285 95.5594 591.089 95.5594 591.482 95.3636C591.678 97.126 592.855 98.4967 593.444 100.063C594.033 101.63 593.641 105.938 593.444 107.504C593.837 107.896 594.229 108.288 594.622 108.679C594.818 108.483 595.015 108.483 595.211 108.288C595.8 109.658 596.192 111.225 595.996 113.379C596.977 112.987 598.155 113.575 598.744 113.379C599.136 113.183 599.333 112.791 599.922 112.596C601.688 111.812 602.669 116.12 604.632 116.512C605.025 116.12 606.595 114.75 606.595 114.358C607.969 114.358 608.95 114.162 610.128 114.554C610.128 114.358 610.324 114.162 610.324 114.162C610.913 114.162 610.913 114.358 611.306 114.554C611.698 113.771 611.895 112.596 612.091 112.008C612.483 111.812 612.68 111.812 613.269 111.812C613.269 111.225 612.876 110.246 613.269 109.267C613.465 108.679 613.857 108.679 614.054 107.896C610.913 105.742 613.661 103.001 612.876 101.238C613.465 100.455 614.054 100.651 614.839 100.063C615.231 99.6716 615.82 98.6925 616.213 98.3009C616.016 97.126 614.25 95.5594 614.642 94.1887C614.839 93.797 615.231 93.6012 615.428 93.2096C616.998 93.797 617.979 94.3845 619.353 94.972C619.942 94.3845 619.942 93.2096 621.12 92.8179C621.12 92.4263 621.316 91.8389 621.512 91.4472V91.2514C624.26 91.643 626.027 95.5594 627.401 97.5176C627.401 97.5176 631.326 101.238 631.523 101.434C631.719 101.434 632.111 101.238 632.504 101.63C632.7 102.021 632.896 102.413 633.289 102.805C636.233 105.546 637.215 106.525 638.589 110.833C638.196 111.029 637.607 111.029 637.411 111.617C636.43 111.617 636.43 111.421 635.644 111.029C635.448 111.225 635.448 111.225 635.448 111.617C635.252 111.421 635.252 111.421 635.056 111.225H634.859C634.859 111.617 634.663 112.204 635.056 112.596C635.252 112.987 638.981 115.925 639.57 116.12H639.766C639.57 114.554 638.785 113.771 638.785 111.812C638.981 112.008 639.177 112.204 639.374 112.204C639.57 111.421 639.374 110.442 639.177 109.658C639.177 109.071 639.177 109.267 639.57 109.071C639.177 107.7 638.589 107.504 638 106.721C637.803 105.938 637.607 105.155 637.411 104.371L637.607 104.175C638 104.763 639.177 106.134 639.963 106.525C639.374 104.175 637.215 102.217 635.252 101.434C635.056 101.042 634.859 100.651 635.056 100.063C634.467 99.6716 633.878 100.063 633.289 99.4758C631.719 98.3009 631.13 96.3427 629.952 94.7761C628.971 93.4054 627.008 93.0138 626.419 91.0556C626.419 90.8598 626.616 90.6639 626.616 90.2723C626.419 89.6848 625.83 89.489 625.634 88.9016C626.223 88.7058 626.223 88.7058 626.419 88.3141H626.812C627.204 88.9016 627.99 90.2723 628.186 90.8598C628.186 90.8598 628.382 90.8598 628.382 91.0556C628.382 90.8598 628.382 90.4681 628.578 90.2723C628.775 90.6639 628.971 91.0556 629.167 91.4472C629.363 91.4472 629.363 91.643 629.56 91.643C629.363 91.2514 629.363 91.0556 629.167 90.664C630.149 91.0556 630.541 92.6221 630.934 93.2096C631.719 94.1887 632.897 94.5803 633.485 95.3636C633.289 95.3636 633.289 95.3636 633.093 95.1678C633.289 95.7552 633.485 95.7552 633.878 96.1469H634.467C634.27 95.951 634.074 95.7552 633.878 95.7552H634.074C634.27 95.951 634.467 96.1469 634.663 96.1469V96.3427C634.467 96.3427 634.27 96.5385 634.074 96.5385C634.467 96.9301 634.467 96.5385 635.056 96.9301C636.233 97.5176 638 99.4758 638.785 100.455C639.374 102.021 639.963 103.588 640.551 104.959C641.336 106.329 642.907 107.7 643.496 109.071H643.888C643.888 109.267 643.692 109.658 643.888 110.05C644.281 110.442 644.87 111.029 645.458 111.225C645.262 111.812 645.262 111.617 645.262 112.4C646.047 113.379 646.636 114.358 647.029 115.729C647.225 115.729 647.225 115.925 647.421 115.925H647.617C647.617 115.729 647.421 115.337 647.421 115.141H647.617C647.814 115.729 648.01 116.12 648.403 116.708C648.403 116.708 648.599 116.708 648.599 116.904C648.599 116.708 648.403 116.316 648.403 116.12C648.599 116.316 648.795 116.708 648.991 116.904H649.188C648.599 115.925 648.206 114.75 647.617 113.575C647.814 113.771 647.814 113.966 648.01 113.966C648.01 113.966 648.206 113.966 648.206 114.162V113.966C648.403 113.379 647.617 112.791 647.421 112.4H647.617C647.814 112.596 648.01 112.791 648.403 113.183C648.206 112.791 648.01 112.4 647.814 111.812C648.206 112.204 648.599 112.596 648.991 112.987C648.403 111.812 647.029 109.463 645.851 108.875C646.047 108.483 645.851 108.679 646.243 108.679C645.851 107.309 643.888 106.134 643.692 104.175H643.888C644.084 105.35 644.87 104.959 645.262 105.546H645.458C645.066 104.959 644.673 104.371 644.281 103.784C644.477 103.588 644.673 103.392 644.87 103.392C645.458 103.001 645.655 104.175 646.44 104.175C646.44 104.567 646.636 104.763 646.636 105.155C646.832 103.98 646.636 102.217 646.44 101.826C645.851 101.238 645.458 100.259 645.066 99.4758C644.084 98.1051 643.496 96.7343 642.71 95.3636C647.814 102.413 652.524 109.463 656.45 116.708C627.204 48.1713 559.095 0 479.799 0C400.502 0 332.393 47.9755 303.147 116.512C312.176 98.4967 326.112 79.8939 344.17 63.0536ZM633.485 95.951C633.289 95.5594 633.485 95.7552 633.289 95.5594V95.951H633.485ZM414.438 335.241C414.438 335.241 414.438 335.437 414.241 335.437H414.438V335.241ZM645.262 104.371C645.262 103.98 645.458 104.175 645.066 103.98C645.066 103.98 645.262 104.175 645.262 104.371ZM645.458 105.742C645.655 105.938 645.655 105.938 645.851 106.134V105.742C645.655 105.742 645.458 105.546 645.458 105.546V105.742ZM644.084 103.588C644.281 103.588 644.281 103.784 644.477 103.784C644.281 103.392 644.477 103.392 644.084 103.196V103.588ZM647.029 109.267C646.832 109.071 646.832 108.875 646.636 108.679V109.071C646.636 109.071 646.832 109.267 647.029 109.267ZM438.58 357.956C438.58 357.956 438.58 357.76 438.776 357.76C438.384 357.76 437.795 357.565 437.402 357.565C437.402 357.956 437.991 357.956 438.58 357.956ZM493.342 295.686H493.931C493.734 295.49 493.734 295.49 493.538 295.294C493.538 295.294 493.342 295.49 493.146 295.49L493.342 295.686ZM413.26 334.066H413.652C413.456 333.87 413.456 333.87 413.26 333.675V334.066ZM434.458 358.544C434.066 358.152 433.869 357.956 433.28 357.76C433.673 358.348 433.869 358.544 434.458 358.544ZM494.52 295.294H494.323V295.49L494.52 295.294ZM626.616 95.7552H626.419V96.1469H627.008C626.812 95.951 626.812 95.951 626.616 95.7552ZM626.616 99.8674L626.812 100.063C626.812 98.4967 626.027 95.7552 625.045 95.1678C625.242 95.3636 625.242 95.7552 625.438 95.951C625.242 96.1469 625.045 96.1469 624.849 96.3427C624.849 97.7134 625.83 99.4758 626.616 99.8674ZM500.408 296.273C500.212 294.707 502.371 295.294 503.548 294.707C504.333 294.119 504.334 292.161 505.707 291.574C507.67 290.595 507.67 290.007 509.044 289.028C509.633 288.636 510.222 288.636 510.614 288.049C511.988 285.699 511.007 284.72 513.951 283.741C514.344 282.174 514.736 280.999 515.718 279.825C516.11 279.237 516.699 278.845 517.092 278.258C517.681 276.887 517.288 275.712 517.877 274.342C518.466 272.971 519.643 271.992 519.84 270.229C521.214 269.642 522.195 269.838 523.569 268.859C525.335 267.292 527.102 265.726 528.868 264.159C529.457 263.963 530.046 263.963 530.831 263.767C531.616 263.18 532.401 262.593 533.187 261.809C536.131 259.851 538.486 258.285 539.664 254.564C539.664 253.781 539.664 253.193 539.86 252.41C540.253 251.039 541.823 242.423 541.627 242.423C460.171 242.227 399.913 243.207 399.913 243.207C401.091 245.361 402.268 248.102 404.035 249.864C407.372 253.389 413.064 255.151 415.223 259.655C416.204 260.634 417.185 261.613 418.363 262.593C418.363 263.18 418.167 263.572 418.167 263.963C418.363 265.334 418.952 267.292 418.756 268.859C418.756 269.446 418.363 270.425 418.559 271.209C418.756 271.6 418.756 272.188 418.952 272.579C418.756 273.95 418.167 275.517 418.167 277.279C417.774 277.475 417.971 277.279 417.382 277.279V278.845H417.971C417.774 279.825 417.774 280.804 417.578 281.587C417.774 282.566 417.774 283.545 417.971 284.328C417.774 284.72 417.185 284.916 417.185 285.503C417.185 285.895 417.382 286.287 417.382 286.482C417.186 288.441 416.793 290.007 416.204 291.182C415.615 292.357 416.204 293.532 415.223 294.119C415.419 295.686 415.812 296.469 415.812 298.036C415.419 298.232 415.615 298.232 415.026 298.232C414.83 301.756 416.597 303.714 415.419 306.26C415.615 306.26 416.008 307.435 415.812 307.827C415.026 310.176 413.849 312.33 413.652 315.072C413.456 315.072 413.456 314.876 413.26 314.876V316.247C412.867 316.051 412.671 316.051 412.279 315.855L412.082 316.051C412.279 318.009 413.26 320.163 414.045 321.73C414.045 323.884 412.671 324.667 414.241 327.213V327.604C414.045 327.408 413.849 327.408 413.652 327.213C413.26 328.192 413.849 329.367 413.652 330.542C414.045 330.933 414.438 331.129 415.026 331.325C415.026 331.325 415.223 331.325 415.419 331.129C415.615 329.954 415.615 328.583 415.026 327.8L415.223 327.604C415.419 327.8 415.812 327.8 416.008 327.996H416.204C416.204 327.604 416.4 327.604 416.008 327.604C416.008 327.408 416.204 327.408 416.204 327.213L416.793 327.8C416.597 327.996 416.597 327.996 416.4 328.192C416.989 328.583 417.185 329.758 416.597 329.954C416.793 330.15 416.989 330.346 417.185 330.346C416.793 332.108 417.185 333.479 417.185 335.241H416.989C416.793 334.654 416.4 333.087 416.597 332.891C416.204 332.304 415.812 331.912 415.026 331.716C414.634 332.108 414.438 332.891 414.438 333.675L415.223 334.458C415.223 335.045 415.223 335.437 415.026 336.024H414.241C414.438 336.22 414.438 336.416 414.634 336.612C414.438 336.808 414.045 337.004 413.849 337.199V337.591C414.045 337.787 414.438 337.787 414.634 337.983L415.026 337.591C415.419 337.983 416.4 338.178 416.989 338.57C416.793 338.57 416.793 338.57 416.597 338.374C416.793 338.766 416.793 338.57 416.989 338.766C416.793 339.158 416.793 339.549 416.597 339.745C416.204 339.549 416.204 339.353 415.615 339.353V339.549L416.008 339.941C415.812 340.137 415.615 340.137 415.419 340.332C416.008 341.312 416.204 342.878 416.793 343.857C417.382 344.053 417.774 344.445 418.167 344.64C417.971 344.445 417.578 344.445 417.382 344.445V344.64C417.578 345.032 417.578 345.424 417.774 345.815C417.971 345.815 418.167 346.011 418.363 346.011C418.559 345.62 418.559 345.424 418.756 345.032C418.952 345.228 418.952 345.62 419.148 345.815H418.756V346.011C419.148 346.599 419.345 346.99 419.345 347.774C419.737 347.578 420.13 347.578 420.522 347.382C420.719 347.578 420.719 347.578 421.111 347.774L420.915 348.165C420.522 347.969 420.13 347.969 419.933 347.774V347.969C420.326 348.557 420.915 349.144 421.504 349.536C421.504 349.34 421.307 349.144 421.307 349.144C421.896 349.732 422.485 350.123 423.074 350.711V350.907C422.485 350.711 421.896 350.515 421.307 350.123C422.092 351.102 422.681 351.298 423.466 351.494C423.466 351.69 423.466 351.494 423.27 351.886C424.055 352.669 427.392 355.019 428.373 354.627C428.373 355.019 428.373 354.823 428.177 355.019C429.159 355.998 432.299 357.173 433.869 357.565V357.369C433.673 357.173 433.28 356.781 433.084 356.585C433.869 356.781 434.458 356.781 435.047 356.977C435.047 357.369 435.047 357.173 435.439 357.173L435.243 356.977C435.439 356.977 435.636 357.173 435.832 357.369V356.977C436.225 356.977 436.813 357.173 437.206 357.173H437.402C437.402 357.173 437.402 356.977 437.599 356.977V356.585C434.654 356.194 433.869 353.648 431.514 353.061L431.906 352.669C431.318 351.886 430.336 352.082 429.747 351.298C429.747 351.298 429.551 351.298 429.551 351.102C429.747 351.102 429.747 350.907 429.944 350.907C430.532 351.103 430.925 351.298 431.514 351.494C430.729 350.515 429.355 349.732 429.159 347.969C429.159 347.969 429.159 347.774 429.355 347.774C429.747 347.578 430.336 347.578 430.729 347.382C431.121 346.99 430.925 346.403 430.925 345.62C431.514 345.228 433.084 344.836 433.477 344.249C433.673 344.053 433.673 343.27 433.477 342.682C431.71 341.507 429.159 341.116 429.747 338.766C430.533 338.178 431.71 337.983 432.692 338.374H433.084C432.888 337.983 433.084 338.178 432.692 337.983C432.888 337.591 433.084 337.591 433.477 337.395C433.477 336.808 433.28 336.22 433.084 335.633C433.477 335.045 433.869 334.654 435.047 334.654C434.851 334.066 434.065 334.066 433.869 333.675C433.869 333.675 433.673 333.675 433.673 333.479C433.869 333.283 434.066 333.283 434.458 333.087C435.047 333.479 435.243 333.675 435.439 334.262C435.636 334.262 436.028 334.262 436.225 334.458C436.225 334.262 436.421 334.262 436.617 334.066C436.617 333.479 436.617 333.087 436.225 332.891C436.225 332.891 436.028 332.696 436.028 332.5C435.636 332.5 435.243 332.5 434.851 332.696C435.047 332.891 435.243 332.891 435.439 333.087V333.283C435.243 333.283 435.047 333.087 434.654 333.087C434.262 332.891 434.262 332.5 433.673 332.304C433.28 331.716 433.28 330.346 433.084 329.562C433.869 328.583 435.636 330.542 436.813 330.933C437.599 330.933 438.384 330.933 439.365 330.737C439.561 330.346 439.758 329.954 439.954 329.562C439.758 329.562 439.758 329.758 439.561 329.758C439.365 329.562 439.169 329.562 439.169 329.367C439.758 328.583 440.346 327.8 439.954 326.821C440.15 326.821 440.346 327.017 440.346 327.017H440.543C440.543 326.821 440.346 326.625 440.346 326.429C441.917 327.017 448.59 327.996 450.357 327.017C450.749 326.821 452.32 324.863 452.908 324.471V322.905C451.927 322.513 451.534 322.513 451.534 321.338L452.32 320.555C451.927 318.792 449.964 318.401 449.179 317.03C449.375 316.834 449.572 316.638 449.572 316.443C449.768 316.443 449.768 316.443 449.964 316.247C450.16 316.638 450.553 316.834 450.749 317.422C451.338 317.618 452.123 317.618 452.712 317.813C453.301 318.205 454.086 319.38 454.871 319.576C455.46 319.772 456.049 319.38 456.638 319.576C457.226 319.772 457.423 320.359 458.404 320.359C460.563 320.163 460.956 319.184 462.133 318.205C462.919 317.813 463.507 317.618 464.293 317.226C464.881 316.443 465.47 315.855 465.863 315.072C467.237 314.484 468.611 313.897 469.985 313.31C471.555 312.135 472.536 310.176 474.106 309.001C476.069 307.435 478.425 307.239 479.21 304.498H478.817C479.21 303.519 479.21 302.148 479.799 300.581C480.191 299.406 487.65 295.686 489.613 296.273C490.005 296.665 490.398 296.861 490.79 297.252C490.79 297.057 490.987 296.861 490.987 296.469C490.79 296.469 490.79 296.469 490.594 296.273V296.078C491.575 295.882 492.557 294.511 493.342 294.707C493.734 294.315 493.734 294.511 493.342 294.119V293.728C495.305 293.728 499.034 294.511 500.997 295.294C500.015 296.273 500.015 296.273 500.408 296.273ZM630.149 107.309C629.756 104.959 628.775 102.413 627.401 100.651C627.401 100.651 627.204 100.455 627.008 100.455C627.008 100.847 626.812 101.042 626.812 101.434C626.419 101.63 626.615 101.63 626.027 101.434C626.027 102.609 627.401 103.784 627.793 104.763C628.186 105.546 627.99 106.525 628.186 107.113C628.578 107.309 628.775 107.7 629.56 107.896C629.56 107.7 629.56 107.309 629.363 107.113C629.56 107.113 629.756 107.113 630.149 107.309ZM566.554 194.252L553.992 193.86L554.188 225.779C554.188 226.17 553.992 226.366 553.796 226.562C553.6 226.758 553.207 226.954 553.011 226.954L533.775 226.366C533.187 226.366 532.598 225.779 532.598 225.191L532.205 137.269C532.205 136.877 532.401 136.681 532.598 136.485C532.794 136.29 533.187 136.094 533.383 136.094L581.668 137.465C597.762 138.052 606.988 148.235 606.988 165.467C606.988 182.111 598.155 189.161 589.911 191.902L610.324 226.758C610.521 227.149 610.521 227.541 610.324 227.933C610.128 228.324 609.736 228.52 609.343 228.52L586.575 227.737C586.182 227.737 585.789 227.541 585.593 227.149L566.554 194.252ZM569.498 175.062H571.461C577.153 175.062 580.49 174.278 582.453 172.32C583.827 170.95 584.612 168.6 584.612 164.879C584.612 160.767 583.827 156.851 574.209 156.655L553.796 156.067V174.474L569.498 175.062ZM467.629 16.4488V16.8404H468.414C468.022 16.6446 467.826 16.6446 467.629 16.4488ZM466.452 17.8195C466.844 17.8195 467.04 17.8195 467.433 18.0153V17.8195V17.4278C466.844 17.232 466.255 17.0362 465.667 17.0362C465.667 17.0362 465.666 17.232 465.47 17.232C465.863 17.4278 466.059 17.6237 466.452 17.8195ZM476.854 12.7282C477.051 12.5324 477.247 12.3366 477.443 12.1407V11.7491C476.462 11.5533 475.677 11.1617 474.303 11.1617C473.91 11.3575 473.321 11.5533 472.929 11.5533C472.929 11.7491 472.929 11.9449 472.733 12.1407V12.3366C473.518 12.7282 475.873 13.3157 476.854 12.7282ZM461.545 18.2111C461.152 18.4069 460.76 18.4069 460.563 18.6028C460.563 18.7986 460.367 18.7986 460.367 18.9944C460.563 19.1902 460.563 19.386 460.76 19.5818C461.545 19.7777 461.937 19.1902 462.722 18.9944C462.919 18.7986 462.919 18.7986 463.115 18.6028C462.33 18.4069 462.133 18.2111 461.545 18.2111ZM462.722 21.3442C462.526 21.1484 462.133 21.1484 461.937 21.1484L462.133 21.3442H462.722ZM453.89 16.8404V17.6237C455.46 17.4278 457.03 17.6237 458.404 17.232C458.404 17.232 458.404 17.0362 458.6 17.0362C457.619 16.8404 456.638 16.6446 455.656 16.6446C455.067 16.6446 454.479 16.6446 453.89 16.8404ZM491.183 25.2606C490.987 25.0648 490.987 25.0648 490.594 24.869C490.79 25.0648 490.79 25.0648 491.183 25.2606ZM483.92 26.0439L483.724 26.2397C484.117 26.4355 484.706 26.4355 485.294 26.4355C485.294 26.4355 485.294 26.2397 485.491 26.2397C485.294 26.2397 485.098 26.0439 484.902 25.848C484.706 25.848 484.509 25.848 484.313 25.6522C484.117 25.848 484.117 26.0439 483.92 26.0439ZM469.003 18.0153H469.396C469.396 18.0153 469.396 17.8195 469.592 17.8195C469.396 17.6237 469.396 17.6237 469.2 17.4278C468.807 17.4278 468.414 17.232 468.218 17.232C468.218 17.6237 468.611 17.8195 469.003 18.0153ZM514.54 62.4661H514.147C513.951 62.4661 513.755 62.6619 513.755 62.6619C513.755 62.8577 513.755 62.8577 513.559 63.0536H513.951C514.147 63.0536 514.344 62.8577 514.54 62.8577V62.4661ZM477.836 18.9944C477.64 18.7986 477.64 18.7986 477.443 18.7986V18.9944H477.836ZM480.976 24.2815H480.78V24.4773C480.976 24.4773 480.976 24.2815 480.976 24.2815ZM660.179 173.299C656.646 171.929 653.31 170.362 650.758 168.991C646.44 166.641 644.281 164.488 644.281 162.334C644.281 161.746 644.477 160.767 645.458 159.788C646.44 158.809 648.795 157.438 653.506 157.83C666.656 158.613 680.985 167.229 685.107 169.97C685.499 170.166 685.892 170.166 686.284 169.97C686.677 169.775 686.873 169.383 686.873 168.991L686.677 149.409C686.677 149.018 686.481 148.626 686.088 148.43C679.415 144.514 665.283 138.444 653.506 137.856C643.496 137.269 634.467 140.206 628.775 145.885C624.456 150.193 622.297 156.067 622.297 162.921C622.297 183.678 641.14 191.315 654.88 196.993C658.216 198.364 661.161 199.539 663.712 200.91C668.03 203.064 670.19 205.022 670.19 206.98C670.19 208.742 669.797 209.917 668.619 210.896C666.46 213.05 662.338 213.834 656.057 213.638C649.384 213.246 637.607 207.959 625.242 199.735C624.849 199.539 624.456 199.539 624.064 199.735C623.671 199.931 623.475 200.322 623.475 200.714L623.671 221.079C623.671 221.471 623.868 221.862 624.26 222.058C628.186 224.604 642.514 233.22 656.057 233.807C657.235 233.807 658.609 234.003 659.787 234.003C670.975 234.003 679.611 231.066 685.107 225.583C690.014 220.687 692.369 214.03 692.369 205.805C692.173 186.615 673.723 178.978 660.179 173.299ZM478.817 370.684C394.417 370.684 322.579 320.555 296.081 250.648C321.401 325.646 384.603 384 478.621 384C567.339 384 637.215 324.863 662.142 249.081C636.233 319.772 564.002 370.684 478.817 370.684ZM781.087 237.724C781.284 238.115 781.284 238.507 780.891 238.703C780.695 239.094 780.302 239.094 779.91 239.094L760.871 237.724C760.478 237.724 760.086 237.332 759.889 236.94L753.412 219.317L722.596 216.967L716.119 233.611C715.923 234.003 715.53 234.395 714.941 234.395L699.043 233.22C698.65 233.22 698.258 233.024 698.061 232.632C697.865 232.241 697.865 231.849 698.061 231.653L732.214 145.493C732.41 145.101 732.803 144.71 733.391 144.71L746.738 145.689C747.131 145.689 747.524 146.081 747.72 146.472L781.087 237.724ZM746.15 199.343L738.298 177.803L730.251 198.168L746.15 199.343ZM849 226.954C849 226.366 848.607 225.779 848.019 225.779L810.726 222.45L810.333 151.955C810.333 151.368 809.94 150.78 809.352 150.78L792.864 149.214C792.471 149.214 792.275 149.214 791.883 149.605C791.686 149.801 791.49 150.193 791.49 150.389L792.079 239.29C792.079 239.878 792.472 240.465 793.06 240.465L847.626 245.556H847.822C848.019 245.556 848.411 245.556 848.607 245.165C848.804 244.969 849 244.577 849 244.381V226.954ZM444.076 33.6808C444.468 34.2682 446.039 34.8557 446.627 35.0515C446.824 34.6599 446.627 34.4641 446.627 34.0724C446.039 33.6808 445.253 33.6808 444.468 33.485C444.468 33.485 444.272 33.485 444.076 33.6808ZM279.79 141.577C279.594 141.381 279.201 141.185 279.005 141.185L264.676 142.164C264.088 142.164 263.695 142.752 263.695 143.339L263.891 195.035L226.009 145.493C225.813 145.101 225.421 145.101 225.028 145.101L207.167 146.276C206.578 146.276 206.185 146.864 206.185 147.451L206.578 235.374C206.578 235.765 206.774 235.961 206.97 236.157C207.167 236.353 207.559 236.549 207.755 236.549L222.084 235.57C222.673 235.57 223.065 234.982 223.065 234.395L222.869 178.391L263.499 232.241C263.695 232.437 264.088 232.632 264.48 232.632L279.201 231.653C279.79 231.653 280.183 231.066 280.183 230.478L279.79 142.556C280.183 142.164 279.986 141.968 279.79 141.577ZM485.687 49.5421C488.042 51.1086 489.809 52.2835 492.949 53.2626H493.146V52.871C491.575 51.5003 488.631 49.5421 485.883 49.3463C485.687 49.3463 485.687 49.5421 485.687 49.5421ZM487.257 59.5288C487.454 59.9205 487.65 59.9205 488.042 60.1163C489.024 59.9205 488.827 59.333 490.201 59.5288L490.398 59.333V59.1372C489.613 58.9414 485.294 57.9623 485.294 57.9623C484.902 57.7664 485.098 57.9623 484.902 57.3748C484.313 56.9832 484.706 57.179 484.706 56.3957C484.509 56.3957 484.509 56.3957 484.313 56.1999C483.92 56.3957 483.528 56.5915 483.135 56.7873C483.135 56.7873 483.135 56.9832 482.939 56.9832C484.117 57.9623 485.098 58.5497 486.668 59.1372C487.454 59.5288 487.061 59.333 487.257 59.5288ZM189.109 148.235C188.913 148.039 188.52 147.843 188.128 148.039L171.444 149.605C170.855 149.605 170.462 150.193 170.462 150.78L170.659 203.455C170.659 216.184 165.555 223.037 155.349 224.016C154.564 224.212 153.975 224.212 153.19 224.212C144.554 224.212 140.039 218.338 140.039 206.784L139.843 154.109C139.843 153.717 139.647 153.522 139.45 153.326C139.254 153.13 138.861 152.934 138.665 152.934L121.981 154.501C121.393 154.501 121 155.088 121 155.676L121.196 208.938C121.393 232.045 131.403 244.381 150.638 244.381C152.208 244.381 153.779 244.381 155.545 244.186C185.38 241.248 189.698 216.967 189.698 202.672L189.501 149.409C189.501 148.822 189.501 148.43 189.109 148.235ZM462.33 64.4243H462.133V64.6201C462.133 64.6201 462.33 64.6201 462.33 64.4243ZM300.792 230.283C300.988 230.478 301.381 230.674 301.577 230.674L320.616 229.695C321.205 229.695 321.794 229.108 321.794 228.52L321.401 140.793C321.401 140.402 321.205 140.206 321.009 140.01C320.812 139.814 320.42 139.619 320.224 139.619L300.988 140.598C300.399 140.598 300.007 141.185 300.007 141.773L300.596 229.499C300.399 229.695 300.596 229.891 300.792 230.283ZM473.91 20.1693C473.714 19.9735 473.125 19.7777 472.733 19.7777C472.929 20.1693 473.125 20.1693 473.518 20.1693H473.91ZM581.471 58.9414L581.275 59.1372C581.275 59.1372 581.471 59.1372 581.471 59.333L581.668 59.1372C581.471 59.1372 581.471 59.1372 581.471 58.9414ZM580.097 57.9623V57.5706H579.901H579.705V57.7664C579.901 57.9623 580.097 57.9623 580.097 57.9623ZM582.06 60.3121C582.453 60.1163 582.453 59.333 582.06 58.9414C581.864 59.333 581.668 59.5288 581.275 59.7246C581.471 60.1163 581.668 60.1163 582.06 60.3121ZM580.294 56.9832C580.097 56.9832 579.901 56.7873 579.901 56.7873C579.901 56.9832 580.097 56.9832 580.294 56.9832C580.097 57.179 580.097 56.9832 580.294 56.9832ZM579.508 57.9623V58.3539H579.705C579.705 57.9623 579.901 58.1581 579.508 57.9623ZM586.771 63.641C586.771 63.641 586.771 63.8368 586.967 63.8368C587.163 63.8368 587.36 63.8368 587.556 63.641C587.556 63.4452 587.556 63.4452 587.752 63.2494C587.556 63.0535 587.36 62.8577 587.163 62.6619C586.967 63.2494 586.967 63.4452 586.771 63.641ZM507.278 62.0745C507.278 62.2703 507.474 62.2703 507.474 62.4661C507.474 62.2703 507.67 62.2703 507.67 62.2703C507.67 62.2703 507.474 62.0745 507.278 62.0745ZM507.278 62.6619C507.474 62.6619 507.474 62.6619 507.67 62.8577C507.67 62.8577 507.867 62.8577 507.867 62.6619C507.67 62.6619 507.67 62.4661 507.474 62.4661L507.278 62.6619ZM579.116 55.2208C578.92 55.6124 578.92 55.4166 578.723 55.8083C579.312 56.3957 580.49 56.7873 581.079 56.7873C581.079 56.9832 581.275 56.9832 581.275 57.179C581.079 57.3748 580.882 57.3748 580.686 57.5706C580.882 58.1581 581.079 58.1581 581.079 58.7455C581.471 58.7455 581.864 58.5497 582.06 58.5497C582.06 58.3539 582.06 58.1581 582.256 57.9623V57.7664H582.453C582.649 58.9414 583.238 59.7246 583.63 60.8995H584.023C584.023 60.8995 584.023 60.7037 584.219 60.7037C584.219 60.5079 584.023 60.3121 584.023 60.1163C584.219 60.3121 584.415 60.3121 584.612 60.5079C584.415 60.1163 584.415 59.7246 584.219 59.5288C584.612 59.7246 584.808 59.9205 585.004 60.1163C585.201 60.5079 585.201 61.0954 585.004 61.6828C585.397 61.8786 585.593 62.2703 585.986 62.4661H586.182C585.986 62.2703 585.986 62.2703 585.986 62.0745C586.378 62.2703 586.575 62.2703 586.967 62.4661V62.0745C587.752 62.2703 587.948 62.2703 588.537 61.6828C589.322 62.4661 588.93 64.0326 590.696 63.641C590.696 64.4243 590.893 64.8159 591.285 65.4034C590.5 65.9908 589.715 65.5992 588.734 65.4034C588.93 65.9908 589.126 65.9908 589.519 66.3825C589.322 66.5783 589.126 66.7741 589.126 66.9699C589.126 66.9699 589.126 67.1657 589.322 67.1657C589.519 66.9699 589.911 66.9699 590.108 66.7741C590.5 67.1657 590.696 67.5574 590.893 67.949C590.696 68.5365 590.304 68.9281 589.519 68.9281C589.322 69.1239 589.322 69.1239 589.126 69.3197C589.519 69.7114 589.911 69.9072 590.304 70.2988C591.482 69.7114 592.463 70.4947 593.641 70.8863C593.837 70.6905 594.229 70.4946 594.426 70.4946C594.229 70.8863 594.229 70.8863 594.229 71.2779H592.07C592.07 72.257 591.482 73.2361 590.696 74.0194V74.2152C591.285 74.2152 591.285 74.2152 591.874 74.411C592.07 74.0194 592.07 73.6277 592.855 73.4319C593.444 73.2361 594.033 73.6278 594.622 73.8236C594.622 73.4319 594.622 72.8445 594.818 72.6486C594.818 72.6486 598.155 72.8445 598.351 73.0403H598.744C598.744 72.8445 598.548 72.6487 598.548 72.4528C600.118 72.4528 600.903 72.4528 602.277 71.8654C602.277 71.8654 602.277 71.6696 602.473 71.6696C602.473 71.4737 602.277 71.2779 602.277 71.0821C601.688 71.0821 601.296 71.0821 600.903 70.8863C601.099 70.4947 601.688 69.7114 601.492 69.1239C601.295 68.1448 599.333 65.9908 598.155 67.3616C598.155 67.3616 597.959 67.3616 597.762 67.1657C597.174 65.795 596.192 64.2285 594.426 63.2494C593.837 63.0535 593.052 62.6619 592.463 62.4661C590.696 60.8995 589.911 59.5288 587.36 59.5288C587.556 59.333 587.949 59.1372 588.145 58.9414C587.949 58.7455 587.752 58.5497 587.556 58.5497C587.948 57.7664 587.556 56.9832 587.556 56.1999C586.575 55.2208 584.808 55.4166 583.63 55.8083C583.63 55.2208 583.827 55.4166 583.238 55.2208C583.434 54.8292 583.63 54.4375 584.023 54.2417C584.023 54.0459 583.827 53.8501 583.827 53.4584C582.649 53.2626 581.668 53.6543 580.686 53.4584C580.49 53.6543 580.49 53.8501 580.686 54.2417C580.49 54.6334 580.49 54.6334 580.882 55.2208C580.882 55.2208 580.686 55.2208 580.686 55.4166C580.294 55.4166 580.49 55.2208 580.294 55.6124C580.49 56.0041 580.686 56.3957 580.882 56.5915C579.901 56.0041 579.508 55.6124 579.116 55.2208ZM438.187 79.5023H438.58L438.384 79.3065C438.384 79.3065 438.384 79.5023 438.187 79.5023ZM507.867 62.8577V63.0536L508.063 62.8577H507.867ZM499.23 37.4013C499.427 37.4013 499.427 37.2055 499.427 37.2055C499.23 37.2055 499.034 37.2055 498.838 37.0097C499.034 37.4013 498.838 37.0097 499.23 37.4013ZM577.742 53.4584C577.546 53.6543 577.153 54.0459 576.957 54.2417C577.349 54.6334 577.546 54.8292 577.546 55.025C577.742 55.025 577.742 55.2208 577.938 55.2208C578.135 55.025 578.527 54.8292 578.723 54.6334C578.723 54.2417 578.527 53.8501 578.527 53.6543C578.135 53.6543 577.938 53.4584 577.742 53.4584ZM612.091 62.2703C612.091 62.4661 612.287 62.6619 612.287 62.8577C612.483 63.0535 612.876 63.0536 613.072 63.0536C612.68 62.4661 612.483 62.4661 612.091 62.2703ZM491.575 25.4564C491.772 25.848 492.36 26.2397 492.949 26.4355C493.146 26.2397 493.342 26.2397 493.538 26.0439C493.538 25.848 493.342 25.6522 493.146 25.4564C492.753 25.2606 492.557 25.2606 492.36 25.2606C492.164 25.4564 492.164 25.4564 491.575 25.4564ZM494.52 15.4697C494.323 15.2738 494.52 15.2738 494.52 15.4697C494.323 15.2738 494.323 15.4697 494.323 15.4697H494.52ZM604.632 57.3748C604.436 56.9832 604.632 57.179 604.24 56.9832C604.436 57.179 604.632 57.3748 604.632 57.3748ZM504.53 42.2968C504.726 42.2968 504.726 42.2968 504.53 42.2968C504.53 42.101 504.334 42.101 504.334 41.9052C504.53 42.101 504.53 42.101 504.53 42.2968ZM577.938 56.9832V57.179C577.938 57.179 578.135 57.179 578.331 56.9832V56.7873L577.938 56.9832ZM605.025 67.7532V67.949H605.221C605.221 67.7532 605.221 67.949 605.025 67.7532ZM577.938 55.4166C577.742 55.4166 577.742 55.2208 577.546 55.2208C577.349 55.2208 577.153 55.4166 577.153 55.4166C577.546 55.8083 577.742 56.1999 578.135 56.5915H578.527C578.135 56.3957 577.938 56.0041 577.938 55.4166ZM576.957 64.2285C576.761 64.2285 576.761 64.2285 576.564 64.4243C576.957 64.8159 577.349 64.8159 577.938 64.8159C577.546 65.2075 577.546 65.2075 577.153 65.5992C577.938 66.7741 578.723 65.9908 579.901 66.3825C579.116 66.7741 579.312 66.9699 579.312 67.5574C578.92 67.949 578.92 67.7532 579.312 68.1448C579.116 68.5365 579.116 68.3406 579.116 68.9281H578.331C578.135 69.1239 578.135 69.3197 578.135 69.5155C578.527 69.5155 578.92 69.3197 579.312 69.3197C579.116 69.5156 578.723 69.7114 578.527 69.7114C579.705 72.8445 584.219 68.9281 586.182 68.9281C586.182 67.5574 585.593 65.4034 584.023 64.6201C584.023 64.6201 584.023 64.4243 583.827 64.4243C584.415 64.2285 584.415 63.8368 584.808 63.641V63.0536C584.023 62.2703 583.434 62.2703 582.649 61.2912C581.864 60.8995 581.275 61.0954 580.686 61.487C580.686 61.2912 580.686 61.2912 580.882 61.0954C580.49 60.8996 580.294 60.8995 579.901 60.7037C579.705 61.0954 579.116 61.2912 578.331 61.2912C578.135 62.0745 578.331 62.0745 577.938 62.4661C578.331 62.8577 578.723 62.6619 579.312 62.6619C579.116 63.2494 578.92 63.0535 578.92 63.4452H575.975C576.564 64.2285 576.564 63.8368 576.957 64.2285Z" fill="white"/>
</svg>
