<svg width="750" height="280" viewBox="0 0 750 280" fill="none" xmlns="http://www.w3.org/2000/svg">
<path fill-rule="evenodd" clip-rule="evenodd" d="M0 93.3969V107.055H22.5L66.375 189.381H120.469L164.437 106.962L186.937 106.775V93.3969H119.813V106.868H137.625L106.594 165.338L73.0313 107.055L97.5937 106.962L97.5 93.3969H0Z" fill="white"/>
<path fill-rule="evenodd" clip-rule="evenodd" d="M433.5 93.3969V107.055H456L499.875 189.381H553.969L597.938 106.962L620.438 106.775V93.3969H553.313V106.868H571.125L540.094 165.338L506.531 107.055L531.094 106.962L531 93.3969H433.5Z" fill="white"/>
<path fill-rule="evenodd" clip-rule="evenodd" d="M322.969 93.3969V107.055H345.469V174.225H321.75V189.193L345.469 189.287H457.594V144.663H442.969C442.125 168.332 421.594 174.225 412.969 174.225C405 174.225 389.625 174.225 389.625 174.225V107.055L411.75 106.962V93.3969H322.969Z" fill="white"/>
<path fill-rule="evenodd" clip-rule="evenodd" d="M246.375 177.032C232.875 177.032 222 160.941 222 141.108C222 121.275 232.875 105.184 246.375 105.184C259.875 105.184 270.75 121.275 270.75 141.108C270.75 160.941 259.875 177.032 246.375 177.032ZM247.406 90.6839C209.25 90.6839 178.312 113.323 178.312 141.295C178.312 169.267 209.25 191.906 247.406 191.906C285.563 191.906 316.5 169.267 316.5 141.295C316.5 113.323 285.563 90.6839 247.406 90.6839Z" fill="white"/>
<path fill-rule="evenodd" clip-rule="evenodd" d="M679.875 176.845C666.375 176.845 655.5 160.473 655.5 140.266C655.5 120.059 666.375 103.781 679.875 103.781C693.375 103.781 704.25 120.153 704.25 140.266C704.25 160.473 693.375 176.845 679.875 176.845ZM680.906 89C642.75 89 611.812 112.014 611.812 140.453C611.812 168.893 642.75 191.906 680.906 191.906C719.062 191.906 750 168.893 750 140.453C750 112.014 719.062 89 680.906 89Z" fill="white"/>
</svg>
