<svg width="970" height="280" viewBox="0 0 970 280" fill="none" xmlns="http://www.w3.org/2000/svg">
<path d="M766.636 0.499763L873.422 0C899.035 0.0027045 923.598 10.3118 941.709 28.6601C959.821 47.0083 969.996 71.8931 969.999 97.8414V182.169C969.999 195.017 967.501 207.739 962.647 219.61C957.794 231.48 950.68 242.265 941.712 251.35C932.744 260.434 922.097 267.64 910.38 272.556C898.662 277.472 886.104 280.001 873.422 280H767.251C754.569 280.001 742.011 277.471 730.295 272.555C718.578 267.639 707.932 260.433 698.964 251.349C689.997 242.264 682.885 231.479 678.032 219.609C673.18 207.739 670.683 195.016 670.684 182.169V97.8414C670.684 43.7956 713.299 0.499763 766.636 0.499763Z" fill="white"/>
<path d="M792.571 158.313V153.56H764.311V132.407H819.4V157.569C819.4 197.172 800.735 220.182 765.409 220.182C728.995 220.182 707.833 191.114 707.833 139.863C707.833 89.8863 730.928 59.2886 773.271 59.2886C789.279 59.2886 803.071 63.5825 810.612 69.1716V90.947C799.778 84.146 787.305 80.5006 774.56 80.4112C746.784 80.4112 735.015 99.5144 735.015 139.863C735.015 178.997 744.76 199.018 765.912 199.018C786.128 199.12 792.571 183.281 792.571 158.313ZM933.666 161.291C933.666 199.314 913.431 220.274 884.336 220.274C855.241 220.274 835.005 199.314 835.005 161.577C835.005 123.554 855.231 102.595 884.336 102.595C913.441 102.595 933.666 123.462 933.666 161.291ZM906.353 161.291C906.353 135.202 898.994 123.748 884.376 123.748C869.758 123.748 862.389 135.202 862.389 161.577C862.389 187.667 869.748 199.13 884.376 199.13C899.004 199.13 906.353 187.575 906.353 161.291Z" fill="black"/>
<path d="M75.7878 82.7465H63.7069C41.7598 82.7465 30.2024 94.0167 30.2024 110.703C30.2024 129.612 38.1959 138.373 54.6663 149.643L68.1869 158.874L29.0949 218.029H0L35.0448 165.105C14.8092 150.49 3.49341 136.323 3.49341 112.192C3.49341 82.002 24.1619 61.5933 63.425 61.5933H102.507V218.04H75.6972V82.7465H75.7878ZM213.017 104.828V218.04H186.62V170.797H151.294V218.04H124.897V104.828H151.294V149.643H186.62V104.828H213.017ZM332.307 243.854H307.843V217.948H248.515V243.854H224.051V196.846H232.327C241.619 177.936 243.461 142.147 243.461 114.476V104.787H320.528V196.846H332.307V243.854ZM294.131 125.981H266.173V129.337C266.173 148.899 264.16 179.741 256.791 196.886H294.131V125.981ZM391.624 220.181C357.878 220.181 338.74 201.078 338.74 161.668C338.74 127.47 354.103 102.513 386.298 102.513C412.695 102.513 429.8 117.414 429.8 156.742V170.899H366.063C367.16 189.818 374.519 199.038 393.839 199.038C406.715 199.038 420.508 194.102 428.692 188.421V210.309C420.971 215.714 408.547 220.181 391.624 220.181ZM366.063 151.143H402.94V148.909C402.94 134.752 398.913 123.758 385.825 123.758C373.231 123.656 366.798 133.151 366.063 151.143ZM474.036 162.413V218.04H447.549V104.828H474.036V157.007L511.427 104.828H538.105L500.765 157.007L543.159 217.948H513.128L474.036 162.413ZM541.639 161.485C541.639 127.001 559.207 102.502 592.983 102.502C606.071 102.502 615.887 104.736 621.404 107.908V130.642C616.068 127.287 606.041 123.656 595.832 123.656C578.536 123.656 568.972 136.231 568.972 160.832C568.972 184.219 576.795 199.13 595.651 199.13C606.776 199.13 614.779 196.234 621.404 191.481V213.287C614.96 218.04 606.302 220.273 594.08 220.273C558.744 220.181 541.629 199.314 541.629 161.485H541.639Z" fill="white"/>
</svg>
