<svg id="Isolation_Mode" data-name="Isolation Mode" xmlns="http://www.w3.org/2000/svg" viewBox="0 0 753.67 275.51"><defs><style>.cls-1{fill:#f1dcb8;}</style></defs><path class="cls-1" d="M60.31,17.81c-1.21,9.31-3.24,28.87-4.18,39.12-1.22,15-.68,25.23-.68,41.41-.13,2.7,1.22,7.56-4.31,7.56-3.38,0-2.7-4.05-3.11-8.9-.27-11.88.95-35.35.68-39.67-2.56.41-18.35,2.7-26.17,4.19-.68,4.85-.81,9.3-1.49,14.84-.4,6.74-.54,16.45-1.08,21.85-.4,4.18-1.48,6.34-4,6.34s-3.92-2.7-3.65-6.88c.41-5.8,2.3-19.43,3.11-35.21a56.72,56.72,0,0,1-9.58.94c-4.45,0-5.94-.8-5.8-3.77S2.71,56,5.4,55.85c4.32-.67,8.37-.81,10.93-1.62a64.57,64.57,0,0,0,1.35-9.17c.13-4.18,3.1-27.79,3.37-33.86C21.32,5.4,22.4,0,26.85,0c3.78.41,2.7,5.8,2.43,9.17-2,10-3,20.51-4.18,29.28-.81,5-1.35,12.68-1.62,14.57,12.82-1.08,17-3,26-3.51.27-1.35.67-6.07,1.35-9.31C51.81,29.68,53.16,10,55.05,6.07c.94-2.83,2.56-4.32,4.59-4.32a3.43,3.43,0,0,1,3.23,3.78C62.74,8.36,61.52,10.79,60.31,17.81Z"/><path class="cls-1" d="M104.29,60.17c-3.64.81-6.75,1.08-13.49,2.29L76.23,64.89c-.27,3.37-.41,6.34-.41,9.58,0,3.5-.94,22.39,10,22.39,5.66,0,8.77-4.59,14.16-10.66,1.76-1.89,3.92-6.47,5.4-6.47a3.35,3.35,0,0,1,2.7,2c0,2.29-1.08,5.13-4,8.5-5.67,6.34-12.41,12.82-19.7,12.82-10.65,0-13.62-14.71-14.3-20.91A82.89,82.89,0,0,1,69.48,72c0-1.49.14-4.45.14-5.94-1.62.14-4.05,0-4.05-3s2.7-3.77,5.53-3.91c2.57-6.74,12-29.14,20.24-29.14,3.51,0,10.12,2.16,14.57,7.15,2.83,3.51,3.64,8.23,3.78,14.44C109.82,55.58,107.93,59.49,104.29,60.17Zm-3.78-19.83a12.85,12.85,0,0,0-9-3.65c-4.45,0-12,16.06-13.49,21.86,1.22-.27,8-1.35,12.68-2,5.27-.81,7.15-1.07,11.2-2,2.56-.67,2.16-2.7,2-5.93A10.46,10.46,0,0,0,100.51,40.34Z"/><path class="cls-1" d="M154.48,68.26a238.83,238.83,0,0,0-3.24,29.14c-.14,3.51-1.49,6.75-4.05,6.75s-2.83-4.19-2.7-7.56c.41-8.09.41-8.5,3-27.79.94-6.47,3.37-19,3.51-25.9.13-3.51-1.08-4-2.16-4-1.75,0-7.29,8.77-11.33,14.84A149.43,149.43,0,0,0,128,70.42c-5.66,11.47-8,23.2-9.44,27.52-.81,2.7-1.89,4.18-5.13,4.18-1.88,0-3-2-2.42-4.72,1.35-8.63,3-27,4-33.46,1.35-8.76,2.43-19.69,3.78-27.38.54-3.64,2-5.67,4.32-5.67,3,0,3.37,3.24,3.37,4.86,0,.67-1.62,9.58-3.37,18.75-1.35,7.15-2.43,14-3.24,20,2.83-5.4,8.23-17.27,14.57-26.71,5.4-8.1,12.14-17.95,17.67-17.95,4.45,0,5.26,5.4,5,11.74C156.9,53.42,156.23,57.6,154.48,68.26Z"/><path class="cls-1" d="M201.83,38.31c-4.18-.13-6.07.41-11.87.54.94,2.43,7.15,5.67,7.15,23.34,0,9.85-4.73,39.53-18.35,39.53-10.66,0-13.09-16.6-13.09-27.12,0-10,3.38-35.75,20.1-43.84,2.43-1.35,5.81.81,6.61.81,0,0,6.61.54,9.45.4s4.45,1.22,4.32,3C205.87,38,203.18,38.31,201.83,38.31Zm-19,3c-5,4.18-11.33,20.37-10.8,37.5.14,7.83,3.11,17.14,7.42,17.14,6.88,0,11.74-21.45,11.74-31.17S189.15,47,182.81,41.28Z"/><path class="cls-1" d="M244.19,55.31l-9.71,63.4c-3,19.7-15,21.46-27.25,21.46-7.69,0-20.64-4.86-20.64-8.1,0,0,1.21-1.62,2.42-1.75,2.7-.27,8,3.37,18,3.37,9.44,0,18.48,1.62,21.44-16.73,1.89-11.6,6.88-44.79,8.23-53-5.66,8.5-21.31,38.18-29.4,38.18-4.59,0-3.65-7.69-3.65-9.71,0-8.1,2.84-18.48,6.34-27.93,1.62-4.31,7.83-16.86,16.73-24.82,5.4-4.85,15.11-7,15.11-7,3.1,0,4.45,3.1,4.32,5.12C245.67,41.42,245.81,45.73,244.19,55.31Zm-21.05-1.62c-7.42,11.2-9.17,16.86-12.95,30.62-.94,3.38-1.08,9.85.27,10,1.62.13,19.43-24.42,25.1-37.91,2.83-6.61,1.75-7.69,3.5-15.11C233,41,228,46.41,223.14,53.69Z"/><path class="cls-1" d="M289.65,55.31l-9.71,63.4c-3,19.7-15,21.46-27.25,21.46-7.69,0-20.64-4.86-20.64-8.1,0,0,1.21-1.62,2.43-1.75,2.7-.27,8,3.37,17.94,3.37,9.44,0,18.48,1.62,21.45-16.73,1.89-11.6,6.88-44.79,8.23-53-5.67,8.5-21.32,38.18-29.41,38.18-4.59,0-3.64-7.69-3.64-9.71,0-8.1,2.83-18.48,6.34-27.93,1.62-4.31,7.82-16.86,16.72-24.82,5.4-4.85,15.11-7,15.11-7,3.11,0,4.46,3.1,4.32,5.12C291.14,41.42,291.27,45.73,289.65,55.31Zm-21-1.62c-7.42,11.2-9.18,16.86-13,30.62-.95,3.38-1.08,9.85.27,10,1.62.13,19.42-24.42,25.09-37.91,2.83-6.61,1.75-7.69,3.51-15.11C278.46,41,273.46,46.41,268.61,53.69Z"/><path class="cls-1" d="M331.61,60.17c-3.64.81-6.75,1.08-13.49,2.29l-14.57,2.43c-.27,3.37-.41,6.34-.41,9.58,0,3.5-.94,22.39,10,22.39,5.66,0,8.77-4.59,14.16-10.66,1.76-1.89,3.91-6.47,5.4-6.47a3.35,3.35,0,0,1,2.7,2c0,2.29-1.08,5.13-4.05,8.5-5.67,6.34-12.41,12.82-19.7,12.82-10.65,0-13.62-14.71-14.3-20.91A82.89,82.89,0,0,1,296.8,72c0-1.49.14-4.45.14-5.94-1.62.14-4.05,0-4.05-3s2.7-3.77,5.53-3.91c2.57-6.74,12-29.14,20.24-29.14,3.51,0,10.12,2.16,14.57,7.15,2.83,3.51,3.64,8.23,3.78,14.44C337.14,55.58,335.25,59.49,331.61,60.17Zm-3.78-19.83a12.85,12.85,0,0,0-9-3.65c-4.45,0-12,16.06-13.49,21.86,1.22-.27,8-1.35,12.68-2,5.26-.81,7.15-1.07,11.2-2,2.56-.67,2.16-2.7,2-5.93A10.46,10.46,0,0,0,327.83,40.34Z"/><path class="cls-1" d="M374.38,103.61c-3.38,0-3.51-2.7-3.92-5.81-.67-5.53-1.35-13.62-2.15-21.31-.54-5.53-1.08-31.84-3.51-31.84-1.76,0-7.42,16.33-10.39,24.15C351,78,345.78,89.31,342.27,96.86c-1.22,2.83-3.1,6.34-5.8,6.61-1.62.14-2.43-2.56-2.57-3.37-.13-1.49,1.22-2.56,3.78-8.1,3.24-7,7-15.51,10.52-24.68,5.54-14.57,10.12-24.69,13.76-32.78,1.76-4.19,3.65-4.59,5.81-4.46,2.42.14,3.64,2.3,3.64,5.26,0,6.62,1.08,14,1.62,21.32,1.35,18.75,3.5,38.18,3.64,40.88C376.8,99.56,378,103.61,374.38,103.61Z"/><path class="cls-1" d="M415.12,76.63c0,10.79-1.62,12.81-6.34,18.88s-10,10.39-16.6,10.39c-4.58,0-5.26-7.15-5.39-12,0-1.75-.14-2.7-.14-3.64a96.61,96.61,0,0,1,1-10.25c.94-8.1,3.23-20.78,3.23-21-1.88-.13-3.23-1.08-2.83-2.83.14-2.29,1.62-3.37,3.37-4.45.81-5.53,3.24-17.54,3.51-19.56s.95-3.38,3.91-3.38c2.16,0,2.16.95,2.16,3.24s-2,13.9-3.1,19.83C400.41,53,405.54,56,408.78,60,413.23,65.43,415.12,69.07,415.12,76.63Zm-12-14.44a15.9,15.9,0,0,0-6.34-4c-.54,3.38-1.21,8.1-2.83,22-1.35,12.55-1.35,17.27.94,17.54,3,.41,5.8-2.83,8.5-5.67,4.05-4.31,5.8-8,5.94-14A22.46,22.46,0,0,0,403.11,62.19Z"/><path class="cls-1" d="M464.09,63.54a27.22,27.22,0,0,1,.27,3.24,2.41,2.41,0,0,1-.95,2.43,224.25,224.25,0,0,0-3.1,28.19c-.14,3.51-1.48,6.75-4.05,6.75s-2.83-4.19-2.7-7.56c.41-7.82.27-9.31,2.57-26.3-4.86.26-7.83,1.07-16.19,1.07-2.56,0-4.32-.27-6.88-.13a49.78,49.78,0,0,0-.95,7,152.67,152.67,0,0,1-2,18.62c-.4,2.7-1.08,5.26-4.32,5.26-1.88,0-3-2-2.42-4.72.94-6.34,2-17.54,3.1-25.77-3.1.27-4.59-.54-4.59-3.1,0-2.29,1.89-3,5.4-3.51,1.75-11.19,2.56-20.5,3.91-28.46.54-3.64,2-5.67,4.32-5.67,3,0,3.37,3.24,3.37,4.86,0,.67-1.62,9.58-3.37,18.75-.68,3.91-1.22,7.15-1.89,10.52l7-.27c6.21-.13,9.58-.4,16.73-.4,1.08-6.75,2.56-16,2.7-21.45.13-3.51-.54-11.87,2.16-11.87,4.45,0,4.32,4.18,4.05,10.52A128.52,128.52,0,0,1,464.09,63.54Z"/><path class="cls-1" d="M510.09,38.31c-4.18-.13-6.07.41-11.87.54.94,2.43,7.15,5.67,7.15,23.34,0,9.85-4.72,39.53-18.35,39.53-10.66,0-13.08-16.6-13.08-27.12,0-10,3.37-35.75,20.1-43.84,2.42-1.35,5.8.81,6.61.81,0,0,6.61.54,9.44.4s4.45,1.22,4.32,3C514.14,38,511.44,38.31,510.09,38.31Zm-19,3c-5,4.18-11.33,20.37-10.79,37.5.13,7.83,3.1,17.14,7.42,17.14,6.88,0,11.73-21.45,11.73-31.17S497.41,47,491.07,41.28Z"/><path class="cls-1" d="M548.94,60.17c-3.64.81-6.74,1.08-13.49,2.29l-14.57,2.43c-.27,3.37-.4,6.34-.4,9.58,0,3.5-1,22.39,10,22.39,5.67,0,8.77-4.59,14.17-10.66,1.75-1.89,3.91-6.47,5.39-6.47a3.33,3.33,0,0,1,2.7,2c0,2.29-1.08,5.13-4.05,8.5C543,96.59,536.26,103.07,529,103.07c-10.66,0-13.63-14.71-14.3-20.91A80.94,80.94,0,0,1,514.14,72c0-1.49.13-4.45.13-5.94-1.62.14-4,0-4-3s2.69-3.77,5.53-3.91c2.56-6.74,12-29.14,20.23-29.14,3.51,0,10.12,2.16,14.57,7.15,2.83,3.51,3.65,8.23,3.78,14.44C554.47,55.58,552.59,59.49,548.94,60.17Zm-3.77-19.83a12.89,12.89,0,0,0-9-3.65c-4.45,0-12,16.06-13.49,21.86,1.21-.27,8-1.35,12.68-2,5.26-.81,7.15-1.07,11.2-2,2.56-.67,2.15-2.7,2-5.93A10.49,10.49,0,0,0,545.17,40.34Z"/><path class="cls-1" d="M254.64,235.41l-3.24,19.16c-1.08,6.61-4.72,21.72-23.34,20.91-7.68-.27-15.24-2.56-15.24-5.8,0,0,1.21-1.62,2.43-1.76,2.7-.27,6.48,1.89,12.55,1.49,5.26-.41,13.35,1.48,17.13-14.17.94-3.91,2.16-11.06,3.64-20.1,3.51-22.53,8.5-45.33,8.5-49.91-.14.13-6.21,12.54-13.36,26l-9.57,18c-2.16,3.5-4.86,9.71-9.45,9.71s-3.5-6.48-3.1-10.25c.54-5.94,3.78-20.78,5.53-34.13,1.08-8.77.94-14,2.7-22.67.67-4.58,1.08-5.53,3.51-5.53,3.37,0,4.18,3.1,3.91,5-1.49,13.36-2.3,14.17-4.32,24.56-1.62,9.17-2.16,13.22-3.78,22.52-.81,2.3-2.15,8.91-1.21,9.31,1.35.14,3.24-3.91,6.34-9,4.32-7.69,9.44-18.34,11.33-22.26,3.11-5.93,5.4-10.11,7.83-15.78,5-11.06,5.26-14.16,8.36-14.16,2.43,0,4,2.43,4.18,6.47C265.84,178.75,258.55,210.72,254.64,235.41Z"/><path class="cls-1" d="M311.44,190.22l-9.72,63.4c-3,19.7-15,21.45-27.25,21.45-7.69,0-20.64-4.85-20.64-8.09,0,0,1.22-1.62,2.43-1.75,2.7-.27,8,3.37,17.94,3.37,9.45,0,18.48,1.62,21.45-16.73,1.89-11.6,6.88-44.79,8.23-53-5.66,8.5-21.31,38.18-29.41,38.18-4.58,0-3.64-7.69-3.64-9.71,0-8.1,2.83-18.48,6.34-27.93,1.62-4.31,7.82-16.86,16.73-24.82,5.39-4.86,15.11-7,15.11-7,3.1,0,4.45,3.1,4.31,5.12C312.92,176.32,313.05,180.64,311.44,190.22Zm-21.05-1.62c-7.42,11.2-9.17,16.86-12.95,30.62-.94,3.38-1.08,9.85.27,10,1.62.13,19.43-24.42,25.09-37.91,2.84-6.61,1.76-7.69,3.51-15.11C300.24,175.92,295.25,181.32,290.39,188.6Z"/><path class="cls-1" d="M354.47,173.22c-4.18-.13-6.07.41-11.87.54.95,2.43,7.15,5.67,7.15,23.34,0,9.85-4.72,39.53-18.35,39.53-10.65,0-13.08-16.6-13.08-27.12,0-10,3.37-35.75,20.1-43.84,2.43-1.35,5.8.81,6.61.81,0,0,6.61.54,9.44.4s4.45,1.22,4.32,3C358.52,173,355.82,173.22,354.47,173.22Zm-19,3c-5,4.18-11.33,20.37-10.79,37.5.13,7.83,3.1,17.14,7.42,17.14,6.88,0,11.73-21.45,11.73-31.17S341.79,181.86,335.45,176.19Z"/><path class="cls-1" d="M391.71,184.82c-2.16.54-8.37,1.35-12.68,3,4.31,1.89,6.2,8.63,6.2,13.76-.13,12.82-9.58,35.35-21.31,35.75-4.59.14-5.8-6.07-5.8-10.52a338.7,338.7,0,0,1,2.56-35.35c-1.75,1.49-2.43.54-3.51.68-1.75.27-2.16-1.08-2.16-2.43,0-3.91,3.11-5.13,7.69-9.17,3-14.57,3.24-22.53,5.67-37.37,1.48-8.64,3.37-11.2,6.74-14.17a13,13,0,0,1,8.37-2.69c3.64.27,7.42,1.61,7.55,11.6.14,13.35-9.85,27.79-23.2,48.83-1.35,7.29-4.45,35.62-4.32,40.47.14,2.43,0,3.65,2.43,3.51,5-.4,12.95-19.7,13.22-27.25.14-5.4-.81-11.33-5.67-11.2-1.48,0-4,.14-4-4.18,0-2.43,3.91-3.51,6.74-5.13,4.32-2.42,14.57-3.64,16.46-3.64,2.16,0,2.83,0,2.83,2.43C395.48,183.61,393.33,184.42,391.71,184.82Zm-9.18-52.07c-2.56,0-7,3.64-8.23,10.52-2.42,14.17-2.83,23.21-4.45,29.95,7.69-11.06,16.06-26.84,15.92-34.53C385.77,136.39,384.56,132.75,382.53,132.75Z"/><path class="cls-1" d="M431.5,173.22c-4.18-.13-6.07.41-11.87.54.95,2.43,7.15,5.67,7.15,23.34,0,9.85-4.72,39.53-18.34,39.53-10.66,0-13.09-16.6-13.09-27.12,0-10,3.37-35.75,20.1-43.84,2.43-1.35,5.8.81,6.61.81,0,0,6.61.54,9.44.4s4.46,1.22,4.32,3C435.55,173,432.85,173.22,431.5,173.22Zm-19,3c-5,4.18-11.33,20.37-10.79,37.5.14,7.83,3.1,17.14,7.42,17.14,6.88,0,11.74-21.45,11.74-31.17S418.82,181.86,412.48,176.19Z"/><path class="cls-1" d="M468.47,238.51c-3.37,0-3.51-2.69-3.91-5.8-.68-5.53-1.35-13.62-2.16-21.31-.54-5.53-1.08-31.84-3.51-31.84-1.75,0-7.42,16.33-10.39,24.15-3.37,9.17-8.63,20.5-12.14,28.06-1.21,2.83-3.1,6.34-5.8,6.61-1.62.13-2.43-2.56-2.56-3.37-.14-1.49,1.21-2.57,3.78-8.1,3.23-7,7-15.51,10.52-24.68,5.53-14.57,10.12-24.69,13.76-32.79,1.75-4.18,3.64-4.58,5.8-4.45,2.43.14,3.64,2.3,3.64,5.26,0,6.61,1.08,14,1.62,21.32,1.35,18.75,3.51,38.18,3.64,40.87C470.9,234.47,472.11,238.51,468.47,238.51Z"/><path class="cls-1" d="M509.21,211.53c0,10.8-1.62,12.82-6.34,18.89s-10,10.39-16.59,10.39c-4.59,0-5.26-7.15-5.4-12,0-1.75-.13-2.7-.13-3.64a95,95,0,0,1,.94-10.25c.94-8.1,3.24-20.78,3.24-21-1.89-.13-3.24-1.08-2.83-2.83.13-2.29,1.61-3.37,3.37-4.45.81-5.53,3.24-17.54,3.51-19.56s.94-3.38,3.91-3.38c2.16,0,2.16,1,2.16,3.24s-2,13.9-3.11,19.83c2.57,1.22,7.69,4.18,10.93,8.23C507.32,200.34,509.21,204,509.21,211.53Zm-12-14.43a15.86,15.86,0,0,0-6.35-4c-.54,3.37-1.21,8.1-2.83,22-1.35,12.55-1.35,17.27,1,17.54,3,.4,5.8-2.83,8.49-5.67,4-4.31,5.81-8,5.94-14A22.49,22.49,0,0,0,497.21,197.1Z"/><path class="cls-1" d="M544.55,228.67c-5.53,5.26-8.09,8.63-17.4,8.77-7.42.13-11.6-8.91-11.6-19.43a92.23,92.23,0,0,1,4.59-26.17c2.43-7.69,13.76-24.15,22.26-24.15,2.83,0,8.36,1.75,9.57,7.56.27,1.75-1.61,3.64-3.5,3.64-3,0-2.43-4.59-6.48-4-2,.14-9.17,4.86-14.84,16-3.1,6.34-5.12,13.09-5.12,24.42,0,.81-.95,15.65,6.2,15.65,5.26,0,7.69-2.56,12.55-6.88,5.12-4.32,7.55-9.31,9-9.58S552,215.72,552,218C552,219.63,548.47,224.89,544.55,228.67Z"/><path class="cls-1" d="M617.27,186.71c-.54,5.67-.81,6.61-1.21,13.63-.81,9.71-2.43,20.91-2.43,28.06.13,4.45,1.62,10.52-3.65,10.52-3.37,0-3.5-7.42-3.37-10.79.14-9,1.76-15.52,2.43-28.6.81-11.47,2.16-22,.67-22.53-2.29-.41-10.25,13.35-15,24.15-4.45,11.19-8,22.26-8.63,29.68-.27,2.69-2.3,5.39-4.45,5.39-2.43,0-2.43-3.1-2.43-5.13.54-8,2.15-17.94,3.23-28.19.95-7.69,1.22-12.14,2.16-19.83.27-2.43,1-6.48-.67-6.48-1.22,0-5,6.48-6.48,9-4.85,8-7.69,17.27-9.71,22.67-3.64,10-4.86,20.77-5.26,25.36-.27,2.56-1,4.45-4.18,4.32-3-.14-3-3.11-2.84-5,.81-9.44,2.16-20.77,3.38-31.83.94-10,2-13.9,2.43-25.77,0-4,.13-9,4.18-9.31,2.7-.4,3.24,2.84,3.37,5.8.13,1.76-.81,10.12-1.48,16.46-.41,3.24-1.22,8.5-1.35,10.25.94-1.75,4-9,8.77-17.53,4.31-7.29,9.57-13.9,12.81-13.9,1.62,0,4,.81,4,6.34-.14,13.76-1.49,20.37-1.89,26.85,1.35-2.43,5.53-12.28,11.2-20.51,4.58-7,10.25-12.81,13.89-12.81,2.43,0,3.64,3.1,3.37,5.12C617.81,179.43,617.54,183.74,617.27,186.71Z"/><path class="cls-1" d="M659.5,184.82c-2.16.54-8.37,1.35-12.68,3,4.31,1.89,6.2,8.63,6.2,13.76-.13,12.82-9.58,35.35-21.31,35.75-4.59.14-5.8-6.07-5.8-10.52a338.7,338.7,0,0,1,2.56-35.35c-1.76,1.49-2.43.54-3.51.68-1.75.27-2.16-1.08-2.16-2.43,0-3.91,3.11-5.13,7.69-9.17,3-14.57,3.24-22.53,5.67-37.37,1.48-8.64,3.37-11.2,6.74-14.17a13,13,0,0,1,8.37-2.69c3.64.27,7.42,1.61,7.55,11.6.14,13.35-9.85,27.79-23.2,48.83-1.35,7.29-4.45,35.62-4.32,40.47.14,2.43,0,3.65,2.43,3.51,5-.4,12.95-19.7,13.22-27.25.14-5.4-.81-11.33-5.66-11.2-1.49,0-4,.14-4-4.18,0-2.43,3.91-3.51,6.74-5.13,4.32-2.42,14.57-3.64,16.46-3.64,2.16,0,2.83,0,2.83,2.43C663.27,183.61,661.12,184.42,659.5,184.82Zm-9.18-52.07c-2.56,0-7,3.64-8.23,10.52-2.42,14.17-2.83,23.21-4.45,29.95,7.69-11.06,16.06-26.84,15.92-34.53C653.56,136.39,652.35,132.75,650.32,132.75Z"/><path class="cls-1" d="M700.91,206.41c-.54,8.09-1.48,19.56-1.48,26.17,0,3,1.48,7.42-2.7,7.15-4.85-.27-4.32-5.67-2.83-21.45,1.21-13.36,2.16-18.21,3-25.9-5.13,8-12.15,27.11-19.57,36.83-2.15,2.83-5.26,7.55-9.3,7.55a3.86,3.86,0,0,1-4-3.1c-.67-3.24-.27-10.79-.14-17.81.41-10.12,1.49-16.32,3.11-26.71,1.35-8.09,1.62-13.35,4.18-20.51.68-2.42,1.89-3.77,3.64-3.77,1.35,0,2.7,1.48,2.7,4.45-.27,4.32-3.91,17-5.13,27.92-1.61,11.88-3.23,29.68-1.61,30.36,1.61.4,7.42-10.12,14.43-23.88,2.7-5.67,7.42-15.65,10-21.45s3.51-8.5,4.45-10.93c1-1.75,2.43-3.5,4.73-2.83,2.29.41,3,2.43,2.56,4.32C705.37,185.9,702,192.92,700.91,206.41Z"/><path class="cls-1" d="M748.27,195.08c-3.65.81-6.75,1.08-13.49,2.29l-14.57,2.43c-.27,3.37-.41,6.34-.41,9.58,0,3.5-.94,22.39,10,22.39,5.66,0,8.76-4.59,14.16-10.66,1.75-1.89,3.91-6.47,5.4-6.47a3.33,3.33,0,0,1,2.69,2c0,2.29-1.08,5.13-4,8.5C742.33,231.5,735.59,238,728.3,238c-10.66,0-13.62-14.71-14.3-20.91a82.89,82.89,0,0,1-.54-10.12c0-1.49.14-4.45.14-5.94-1.62.14-4.05,0-4.05-3s2.7-3.77,5.53-3.91c2.56-6.74,12-29.14,20.24-29.14,3.5,0,10.11,2.16,14.56,7.15,2.84,3.51,3.65,8.23,3.78,14.44C753.8,190.49,751.91,194.4,748.27,195.08Zm-3.78-19.83a12.87,12.87,0,0,0-9-3.65c-4.45,0-12,16.06-13.49,21.86,1.21-.27,8-1.35,12.68-2,5.26-.81,7.15-1.08,11.2-2,2.56-.67,2.16-2.7,2-5.94A10.48,10.48,0,0,0,744.49,175.25Z"/></svg>