<svg id="Isolation_Mode" data-name="Isolation Mode" xmlns="http://www.w3.org/2000/svg" viewBox="0 0 645.63 121.51"><defs><style>.cls-1{fill:#fff;}</style></defs><path class="cls-1" d="M25.6,40V23.65h-15V40H0V1.13H10.62V15.21h15V1.13H36.22V40Z"/><path class="cls-1" d="M69.8,40a11.8,11.8,0,0,1-.75-3.77,17.64,17.64,0,0,1-12.57,4.89c-8.59,0-13.86-4.44-13.86-11.74C42.62,19.2,51.88,18,59.56,17c6.93-.91,9.49-1.51,9.49-4.67,0-3.54-2.26-5.2-7-5.2-4.9,0-6.93,1.51-7.68,5.95h-10C45,4.44,51.13,0,62.35,0c7.83,0,16.94,1.81,16.94,12.65V29.44c0,3.54-.07,7.23,1.36,10.55ZM61.45,23.12c-3.69.6-7.84,1.05-7.84,5.8,0,3.23,2.19,5.19,5.88,5.19C65.06,34.11,69,31,69,25.45V21.08C66.49,22.52,64.16,22.67,61.45,23.12Z"/><path class="cls-1" d="M134.41,40V9.34h-15V40H108.81V1.13H145V40Z"/><path class="cls-1" d="M172.29,41.19c-12.12,0-20.11-8.21-20.11-20.63S160.24,0,172.44,0c12,0,19.88,8.21,19.88,20.56C192.32,33.06,184.41,41.19,172.29,41.19Zm-.15-33.06c-5.72,0-9.26,4.67-9.26,12.43,0,8,3.46,12.57,9.41,12.57s9.34-4.67,9.34-12.65C181.63,12.73,178.09,8.13,172.14,8.13Z"/><path class="cls-1" d="M230.05,51.43V40H204.44V51.43h-10V31.78h4.67C201.36,27.33,204,16.94,204,7.91V1.13h31V31.78h5V51.43ZM224.4,9H213.93v1a63,63,0,0,1-4.37,21.76H224.4Z"/><path class="cls-1" d="M263.71,41c-12,0-19.81-8-19.81-20.1,0-12.58,7.91-20.86,20-20.86,10.39,0,17.32,5.65,18.22,14.68H271.61c-.75-4.29-3.54-6.7-7.68-6.7-5.8,0-9.26,4.67-9.26,12.65,0,7.76,3.31,12.2,9,12.2,4.59,0,7.45-2.71,8.28-7.83h10.32C281,35.09,274,41,263.71,41Z"/><path class="cls-1" d="M307.46,41.19c-12.13,0-20.11-8.21-20.11-20.63S295.41,0,307.61,0c12,0,19.88,8.21,19.88,20.56C327.49,33.06,319.58,41.19,307.46,41.19Zm-.15-33.06c-5.73,0-9.27,4.67-9.27,12.43,0,8,3.47,12.57,9.42,12.57s9.33-4.67,9.33-12.65C316.79,12.73,313.25,8.13,307.31,8.13Z"/><path class="cls-1" d="M358.66,40V9.34H348.42L348,23c-.3,8.06-.75,18.15-12.5,18.15a23.09,23.09,0,0,1-5.8-.75V31.93a15.62,15.62,0,0,0,3,.37c3.09,0,4.67-2.48,4.82-8l.6-23.12h31.18V40Z"/><path class="cls-1" d="M403.54,40V23.65h-15V40H377.94V1.13h10.62V15.21h15V1.13h10.62V40Z"/><path class="cls-1" d="M440.74,41.11c-12,0-19.88-8.13-19.88-20.33S429.07,0,440.36,0c11.75,0,19.21,8.58,19.21,22.21v1.06H431.7c.15,6.7,3.39,10.31,9.12,10.31,3.91,0,6.32-1.73,7.9-5.64H459C456.55,36.37,449.55,41.11,440.74,41.11Zm-.38-33.35c-4.74,0-8.05,3.31-8.66,8.73h17C448.27,11.75,445.71,7.76,440.36,7.76Z"/><path class="cls-1" d="M490.06,1.13h10.62V40H490.06V24.7a56.39,56.39,0,0,1-12.42,1.73c-8.59,0-13-5.19-13-13.48V1.13h10.62v9.64c0,5.65,1.2,7.6,5.95,7.6a46.64,46.64,0,0,0,8.88-1.13Z"/><path class="cls-1" d="M534.64,40V23.65h-15V40H509V1.13h10.62V15.21h15V1.13h10.62V40Z"/><path class="cls-1" d="M572.52,41.19c-12.13,0-20.11-8.21-20.11-20.63S560.47,0,572.67,0c12,0,19.88,8.21,19.88,20.56C592.55,33.06,584.64,41.19,572.52,41.19Zm-.15-33.06c-5.73,0-9.27,4.67-9.27,12.43,0,8,3.47,12.57,9.42,12.57s9.33-4.67,9.33-12.65C581.85,12.73,578.32,8.13,572.37,8.13Z"/><path class="cls-1" d="M635.54,40V10.47h-.22L627.71,40H617.62L610,10.47h-.23V40H599.7V1.13h15.51l7.31,28.24h.3l7.3-28.24h15.51V40Z"/><path class="cls-1" d="M35.84,120.31V90.79h-.22L28,120.31H17.92l-7.6-29.52h-.23v29.52H0V81.45H15.51l7.31,28.24h.3l7.3-28.24H45.93v38.86Z"/><path class="cls-1" d="M79.52,120.31a11.48,11.48,0,0,1-.75-3.77,17.63,17.63,0,0,1-12.58,4.9c-8.58,0-13.86-4.45-13.86-11.75,0-10.17,9.27-11.37,17-12.35,6.93-.9,9.49-1.51,9.49-4.67,0-3.54-2.26-5.19-7-5.19s-6.93,1.5-7.68,6h-10c.6-8.66,6.77-13.11,18-13.11,7.83,0,17,1.81,17,12.65v16.8c0,3.54-.08,7.22,1.35,10.54Zm-8.36-16.87c-3.69.6-7.83,1-7.83,5.8,0,3.24,2.18,5.19,5.87,5.19,5.57,0,9.49-3.08,9.49-8.66v-4.36C76.21,102.84,73.87,103,71.16,103.44Z"/><path class="cls-1" d="M115.89,121.29c-12,0-19.81-8-19.81-20.11,0-12.57,7.91-20.86,20-20.86,10.39,0,17.32,5.65,18.22,14.69H123.79c-.75-4.3-3.53-6.71-7.68-6.71-5.79,0-9.26,4.67-9.26,12.66,0,7.75,3.32,12.19,9,12.19,4.59,0,7.45-2.71,8.28-7.83h10.32C133.13,115.41,126.21,121.29,115.89,121.29Z"/><path class="cls-1" d="M164.83,120.31V89.66H154.59l-.45,13.71c-.3,8-.75,18.14-12.5,18.14a23.15,23.15,0,0,1-5.8-.75v-8.51a15.76,15.76,0,0,0,3,.38c3.08,0,4.66-2.49,4.81-8.06l.61-23.12h31.17v38.86Z"/><path class="cls-1" d="M202.26,121.44c-12,0-19.88-8.13-19.88-20.33,0-12,8.21-20.79,19.5-20.79,11.75,0,19.2,8.59,19.2,22.22v1H193.22c.15,6.7,3.39,10.32,9.11,10.32,3.92,0,6.33-1.73,7.91-5.65h10.24C218.07,116.69,211.07,121.44,202.26,121.44Zm-.38-33.36c-4.74,0-8,3.31-8.66,8.73h17C209.79,92.07,207.23,88.08,201.88,88.08Z"/></svg>