<svg id="Isolation_Mode" data-name="Isolation Mode" xmlns="http://www.w3.org/2000/svg" viewBox="0 0 183.06 183.06"><defs><style>.cls-1{fill:#fff;fill-rule:evenodd;}</style></defs><path class="cls-1" d="M82.63,143a2.79,2.79,0,0,1-2.18-4.17A30.32,30.32,0,0,1,91.26,127c2.48-2.67,6.26-4.16,9.89-5a11.54,11.54,0,0,1,5.13-1.55,2.47,2.47,0,0,1,1.85.69,8,8,0,0,1,2.52.37,6.84,6.84,0,0,1,5,6,5.61,5.61,0,0,1-.06,1.09,9,9,0,0,1,.39,4.76,12.65,12.65,0,0,1-4.5,7.44c-2.21,1.72-5,2.19-7.67,2.49-6.32.59-12.67.79-19,.79A2.54,2.54,0,0,1,82.63,143Zm64.87,15.42-5.43-5-.66-.89-1.79-2.32c-1.55-1.88-3.7-4.36-6-6.75s-4.73-4.73-6.61-6.45l-3.21-2.87,0-.4a8.06,8.06,0,0,1,4.77-5.49c.19-.07.19-.07.26,0s1.46,1.22,3.37,3,4.44,4.17,6.85,6.68,4.7,5.13,6.35,7.14l2,2.52.73,1s1,1.92,1.85,3.93a15.44,15.44,0,0,1,1.29,3.87c.39,1.79.29,3.38-.3,3.87a.78.78,0,0,1-.5.2C149.81,160.46,148.85,159.87,147.5,158.45ZM48.92,108.2c-2.58-.46-6.94-.36-7.8-3.44s1.88-4.6,4.2-5.76c2.38-5.26,7.44-8.83,12.86-10.55A38.6,38.6,0,0,1,68,86.86c2.94-.16,6.12-.26,8.86,1.06,5.16,2.55,5.56,9.2,3.28,13.83-2.42,4.93-7.68,7.57-12.93,8.27C61.1,110.85,54.91,109.29,48.92,108.2ZM121,121.7a14.44,14.44,0,0,1-5-4.37,8.47,8.47,0,0,1-1.78-7c.49-2.35,2-4.63,3.11-6.78,5.82-12.07,10.45-18.42,13.56-18.22,5.06.39,5.75,8.23,6.35,12.3.4,2.68.76,5.39,1,8.11a25.29,25.29,0,0,1,.07,7.11c-.93,4.93-5.52,7.31-9.79,8.93A9.19,9.19,0,0,1,121,121.7ZM60.9,44c1-8,6.15-14.55,11.11-20.67,1.13-1.39,3.54-.86,4.33.56,4.47,7.84,8,16.51,6.72,25.74-.56,3.67-2,7.87-4.73,10.48a7.1,7.1,0,0,1-5.86,2l-.09,0C63.08,63.15,60,51.07,60.9,44ZM38.83,82.43a94.72,94.72,0,0,1-15.15-7.81,2.8,2.8,0,0,1,0-4.79c6.32-4,13.7-7.35,21.11-8.54,7-1.12,14.65.86,17.36,8.08a2.35,2.35,0,0,1-.33,2.18l.07.33c.53,4.7-2.38,9.53-6.48,11.74C50.08,86.5,44.06,84.58,38.83,82.43Zm50,.27a13,13,0,0,1-6.52-2.49,7.17,7.17,0,0,1-3-5.12A5.36,5.36,0,0,1,79.88,72a13.55,13.55,0,0,0,1.06-2c.6-1.92.93-3.87,1.69-5.79a43.52,43.52,0,0,1,2.75-5.92A107.2,107.2,0,0,1,92,47.93c.86-1.22,2.75-3.8,4.14-3,.07,0,3.67-.79,4.37,2.28.82,3.84,1.55,8.24,2,12.14.43,3.64-.49,7.45.4,11a10.94,10.94,0,0,1,.46,5.75,8.61,8.61,0,0,1-2.64,4.1c-2.91,2.49-6.69,2.82-10.36,3A2.82,2.82,0,0,1,88.85,82.7ZM29.7,151c2-1.49,4-3.34,6.16-5s4.26-3.27,6-4.86l6.32-5.26c1.26-.83,2.38-1.79,3.57-2.68l3.9-3c2.42-1.82,4.67-3.77,7-5.69s4.6-3.8,6.82-5.82c9-7.91,17.43-16.44,25.67-25.21C111.61,76,126.69,57.06,141.44,37.84l9.4-12.27a1.74,1.74,0,0,1,.72-.36c6.16-1.46,9.37,5.92,9.17,8.36a.85.85,0,0,1-.17.63l-9.43,12.31c-14.58,19-29.57,37.81-46,55.44-8.2,8.83-16.73,17.43-25.8,25.47-2.21,2-4.5,4-6.85,6s-4.59,3.94-7,5.82L57,145.71s-5.63,3.57-11.22,6.85-11.28,6.18-10.91,5.75C25.11,162.61,16.14,161.06,29.7,151ZM39.83,55a8.44,8.44,0,0,1-5-1.92,13,13,0,0,1-2.75-4.7,59.41,59.41,0,0,1-4.79-22.95,2.79,2.79,0,0,1,4.16-2.38,68.71,68.71,0,0,1,13.4,8.73A18.52,18.52,0,0,1,51.37,42.9l.5,3.41a7.09,7.09,0,0,1,.06,3.11l-.13.33a2.68,2.68,0,0,1-1.12,3.37A22,22,0,0,1,39.83,55Zm106,128.05a37.25,37.25,0,0,0,37.25-37.25V37.25A37.25,37.25,0,0,0,145.81,0H37.25A37.24,37.24,0,0,0,0,37.25V145.81a37.25,37.25,0,0,0,37.25,37.25Z"/></svg>