<svg id="Isolation_Mode" data-name="Isolation Mode" xmlns="http://www.w3.org/2000/svg" viewBox="0 0 191.22 191.22"><defs><style>.cls-1{fill:#fff;fill-rule:evenodd;}</style></defs><path class="cls-1" d="M152.32,0H38.91A38.91,38.91,0,0,0,0,38.91V152.32a38.9,38.9,0,0,0,38.91,38.9H152.32a38.89,38.89,0,0,0,38.9-38.9V38.91A38.9,38.9,0,0,0,152.32,0Zm-72,46.86c.62-13.17,14-32.66,22.11-33.94,3.77-.58,7.12,28.93,11.09,35.42,11.62-16.83,38.91-20.35,40-13.92-8.23,7.18-8.74,34.79-23.33,40.08-5.11-6.84-13.33-12.16-22.39-15V59l-.76.32a48.64,48.64,0,0,0-13.85-2.08,32.24,32.24,0,0,0-8.88,1.25,9.52,9.52,0,0,1-2.49-3,16.18,16.18,0,0,1-1.35,4.35A35.08,35.08,0,0,0,66.27,71c-15.44,0-23-24.22-30.13-39.28C46.23,26.68,72.74,32.9,80.34,46.86Zm10,104.56c-6.53,11.92-24,17.58-31.76,19.17-10,2.08-.34-16.86,1.59-29,.49-2.93,1.63-5.7,2.25-8.95-13,9.06-27.19,10.13-38.29,6-8-3,8.68-27.89,22.71-36.18-17-.14-37.08-15-31.38-19.08,11.4-8.67,21.35-16.2,38.87-13.06,4.12.73,6.36,4.22,7.23,8.5a48.62,48.62,0,0,0-4.53,20.6c0,18.69,17.93,31.55,36.83,34.9A45.72,45.72,0,0,0,90.36,151.42Zm29.72,22c-4.74,0-10.09-1.1-14.14-4.84-22-20.45,5.84-43.88,7.64-59,1.69-7,1.45-11,3.39-12.93s6.22,0,6.73,8.68c1.73,17,17,19.83,19.87,43.84C145.09,162,132.65,173.46,120.08,173.46Zm30.06-32.31c-.45-9.57-6.6-17.1-10.44-22.56-2.73-3.9-5.46-8.09-6.46-12.13,14.51-1.17,32.86,17.59,38.81,23C179,136,160.64,144.37,150.14,141.15Zm22.29-48.61c-10.75,7.56-29.55,17.17-38.43,8.67l1.35-6.91a24.94,24.94,0,0,0-3.66-17.73c9-10.43,32.79,0,43.5,5.88C177.3,83.59,178.61,88.18,172.43,92.54Z"/></svg>