<svg id="Isolation_Mode" data-name="Isolation Mode" xmlns="http://www.w3.org/2000/svg" viewBox="0 0 428.11 86.57"><defs><style>.cls-1{fill:#fff;}</style></defs><path class="cls-1" d="M18.13,14.88l6.14,8.37L20.46,26,14,17.3,7.9,26,3.81,23.25l6-8.37L0,11.34,1.58,6.79l10,3.72V0h5V10.51l9.86-3.72,1.86,4.55Z"/><path class="cls-1" d="M88.43,67.23H79.69v-31h-35v31H36V1h8.74V28.64h35V1h8.74Z"/><path class="cls-1" d="M117.53,68.62c-11.53,0-19.06-7-20.73-17.76h8C106.28,58,110.93,62,117.72,62c8.37,0,13.67-6.23,14.23-16.64H111.86V39h19.9c-1.3-9-6.69-14.5-14.6-14.5-6,0-10,3.06-11.62,8.74H97.17c1.77-9.86,9-15.35,20.08-15.35,14.14,0,23.07,10,23.07,26C140.32,58.49,132.41,68.62,117.53,68.62Z"/><path class="cls-1" d="M177.14,67.23V46c-1.68.46-10,2.14-14.88,2.14-9.58,0-15.62-4.47-15.62-13.76V19.25h7.9V33.1c0,6.14,3.35,8.37,9.21,8.37a59.62,59.62,0,0,0,13.39-2.14V19.25H185v48Z"/><path class="cls-1" d="M214.24,73.37c-2.61,6.78-5.3,13.2-13.86,13.2a24.45,24.45,0,0,1-5.85-.84V78.67a17.34,17.34,0,0,0,5.11,1,6.16,6.16,0,0,0,5.58-4L208.94,67l-19.06-47.7h8.92L213,57.47l13.48-38.22h8.28Z"/><path class="cls-1" d="M247.16,26c3.72-6,9.11-8.28,16.18-8.28,13.39,0,21.85,9.67,21.85,25.2s-8.37,25.48-21.48,25.48c-7.07,0-12-2.33-16.09-7.91v25.2h-7.9V19.25h7.44Zm.18,17c0,11.63,5.77,18.69,15.07,18.69,9,0,14.59-7.16,14.59-18.69s-5.57-18.69-14.87-18.69S247.34,31.43,247.34,43.05Z"/><path class="cls-1" d="M335.49,67a15.29,15.29,0,0,1-5.39.93c-4.46,0-6.88-2.51-7-7.06-4.75,5.3-10,7.62-17.39,7.62-9.49,0-15.35-5.21-15.35-13.57,0-8.56,5.68-13.58,17-15s15.34-1.11,15.34-7.62c0-5.11-3.81-7.9-10.88-7.9-7.34,0-11.16,2.69-11.9,9.76h-7.72C292.53,24,300,18,312.34,18c6.41,0,11.9,1.67,15.06,4.65,3.35,3.25,3.26,8.18,3.26,12.46,0,7.16-.37,14.22-.37,21.38,0,3.54.83,4.75,3.25,4.75a7.84,7.84,0,0,0,1.95-.28ZM312.15,45.19c-5.76.75-13.57,1.4-13.57,9.11,0,4.93,3.62,8,9.57,8,7.44,0,14.6-5.11,14.6-11.25V42.31C319.78,44.54,315.69,44.73,312.15,45.19Z"/><path class="cls-1" d="M381.05,67.23h-7.9v-41H356l-.65,21.2c-.46,15.72-6.6,20.83-13.3,20.83a15.94,15.94,0,0,1-5.67-1V60.81a10.9,10.9,0,0,0,4.19.65c3.16,0,6.69-2.79,7-13.2l.84-29h32.63Z"/><path class="cls-1" d="M408.49,17.85c9.85,0,18,4,18,12.93a10.2,10.2,0,0,1-7.72,10.13v.19c4.46.84,9.3,4.46,9.3,11.9,0,10.42-9.77,15.72-19.9,15.72-12.56,0-20.27-6-20.83-16.46h8c.46,6.88,5.67,10,12.73,10,7.54,0,11.81-4.18,11.81-9.11s-2.88-7.81-10.23-7.81h-6.6V39h5.3c5.58,0,10.14-2.14,10.14-7.81,0-3.53-3.63-6.88-10.14-6.88-5.67,0-11.53,2.32-12.18,8.83h-8C389,21.29,398.82,17.85,408.49,17.85Z"/></svg>