<svg id="Isolation_Mode" data-name="Isolation Mode" xmlns="http://www.w3.org/2000/svg" viewBox="0 0 1298.37 79.7"><defs><style>.cls-1{fill:#fff;}</style></defs><path class="cls-1" d="M16.69,13.7l5.65,7.7L18.83,24l-5.9-8L7.28,24,3.51,21.4l5.56-7.7L0,10.44,1.46,6.25l9.16,3.42V0h4.62V9.67l9.07-3.42L26,10.44Z"/><path class="cls-1" d="M59.15.94c10.1,0,19.43,4,19.43,15.24a13.66,13.66,0,0,1-9,13.1C77.13,31,81.32,36.64,81.32,44.69c0,14-11.47,17.21-23.11,17.21H33.13V.94ZM41,27.05H55.47c6.85,0,15.07-.51,15.07-9.67s-7.11-9.59-14.3-9.59H41Zm0,28.08H57.1c8.13,0,16.09-.51,16.09-11.21S63.86,33.39,55.73,33.39H41Z"/><path class="cls-1" d="M127.89,61.72a14.09,14.09,0,0,1-5,.86c-4.1,0-6.33-2.31-6.42-6.51-4.36,4.88-9.16,7-16,7-8.74,0-14.13-4.79-14.13-12.5,0-7.87,5.22-12.49,15.67-13.78s14.12-1,14.12-7c0-4.71-3.51-7.27-10-7.27-6.76,0-10.27,2.48-11,9H88.08c.26-9.41,7.11-15,18.49-15,5.91,0,11,1.54,13.87,4.28,3.08,3,3,7.54,3,11.47,0,6.6-.34,13.1-.34,19.69,0,3.26.77,4.37,3,4.37a7,7,0,0,0,1.8-.26ZM106.4,41.61c-5.31.68-12.5,1.28-12.5,8.39,0,4.53,3.34,7.36,8.82,7.36,6.85,0,13.44-4.71,13.44-10.36V39C113.42,41,109.65,41.18,106.4,41.61Z"/><path class="cls-1" d="M139.87,24c3.42-5.48,8.39-7.62,14.9-7.62,12.32,0,20.11,8.9,20.11,23.2S167.18,63,155.11,63c-6.51,0-11.05-2.14-14.81-7.28v23.2H133V17.72h6.85ZM140,39.64c0,10.7,5.31,17.2,13.87,17.2,8.3,0,13.44-6.59,13.44-17.2s-5.14-17.21-13.7-17.21S140,28.94,140,39.64Z"/><path class="cls-1" d="M182.07,61.9V17.72h7.28v36h.17l19.86-36h9.33V61.9h-7.28v-36h-.17L191.4,61.9Z"/><path class="cls-1" d="M267.07,61.72a14.08,14.08,0,0,1-5,.86c-4.11,0-6.34-2.31-6.42-6.51-4.37,4.88-9.16,7-16,7-8.73,0-14.13-4.79-14.13-12.5,0-7.87,5.23-12.49,15.67-13.78s14.13-1,14.13-7c0-4.71-3.51-7.27-10-7.27-6.76,0-10.27,2.48-11,9h-7.1c.25-9.41,7.1-15,18.49-15,5.91,0,10.95,1.54,13.87,4.28,3.08,3,3,7.54,3,11.47,0,6.6-.34,13.1-.34,19.69,0,3.26.77,4.37,3,4.37a7,7,0,0,0,1.79-.26ZM245.59,41.61c-5.31.68-12.5,1.28-12.5,8.39,0,4.53,3.34,7.36,8.82,7.36,6.84,0,13.44-4.71,13.44-10.36V39C252.61,41,248.84,41.18,245.59,41.61Z"/><path class="cls-1" d="M272.21,61.9V17.72h7.27V35.27h22.09V17.72h7.28V61.9h-7.28V41.69H279.48V61.9Z"/><path class="cls-1" d="M336.06,24.14V61.9h-7.27V24.14H313V17.72H351.9v6.42Z"/><path class="cls-1" d="M396.84,63.18c-13.7,0-21-9.33-21-22.77,0-14.73,8.22-24,21.23-24,10.78,0,17.55,5.65,18.75,15.66h-7.54c-1.28-6.25-5.13-9.58-11.13-9.58-8.39,0-13.69,6.67-13.69,17.29,0,10.78,5,17.29,13.18,17.29,6.59,0,11-4,12.07-11.3h7.36C414.82,56.33,407.8,63.18,396.84,63.18Z"/><path class="cls-1" d="M440.84,63.35c-13,0-20.8-8.56-20.8-22.94s8.3-24,20.54-24c14.56,0,20,11.55,20,24.31v1H427.4l-.09.51c0,9.42,5.23,15.07,13.79,15.07,6.33,0,9.84-2.74,11.9-9.42h7.1C457.88,58.13,451.28,63.35,440.84,63.35Zm-.43-40.92c-7.1,0-12.07,5.14-13,13.44h25.68C452.4,27.48,447.69,22.43,440.41,22.43Z"/><path class="cls-1" d="M473.45,24c3.42-5.48,8.39-7.62,14.9-7.62,12.32,0,20.11,8.9,20.11,23.2S500.76,63,488.69,63c-6.51,0-11.05-2.14-14.81-7.28v23.2H466.6V17.72h6.85Zm.17,15.67c0,10.7,5.31,17.2,13.87,17.2,8.3,0,13.44-6.59,13.44-17.2s-5.14-17.21-13.7-17.21S473.62,28.94,473.62,39.64Z"/><path class="cls-1" d="M515.48,17.72h20.46c7.7,0,15.15,1.71,15.15,10.7,0,4.71-2.4,7.62-6.5,9.5V38c5.13,1,8.38,5,8.38,10.87,0,7.54-5.56,13-13.44,13h-24Zm28.08,11.9c0-3.68-2-5.65-8.39-5.65H522.58V35.53h12.59C541.42,35.53,543.56,33.39,543.56,29.62Zm-21,26h15.59c4.62,0,7.27-3.17,7.27-7.37,0-4-2.57-6.59-8.56-6.59h-14.3Z"/><path class="cls-1" d="M559.9,61.9V17.72h7.28v36h.17l19.86-36h9.34V61.9h-7.28v-36h-.17L569.24,61.9Z"/><path class="cls-1" d="M612.63,24c3.43-5.48,8.39-7.62,14.9-7.62,12.33,0,20.12,8.9,20.12,23.2S639.94,63,627.87,63c-6.5,0-11-2.14-14.81-7.28v23.2h-7.27V17.72h6.84Zm.18,15.67c0,10.7,5.3,17.2,13.86,17.2,8.31,0,13.44-6.59,13.44-17.2S635,22.43,626.42,22.43,612.81,28.94,612.81,39.64Z"/><path class="cls-1" d="M695.33,39.55c0,15-7.79,23.71-21.23,23.71S652.52,54.53,652.52,40s8.31-23.54,21.66-23.54S695.33,24.91,695.33,39.55Zm-35.27.26c0,10.87,5.22,17.29,14.12,17.29,8.56,0,13.7-6.51,13.7-17.38,0-10.53-5.31-17.2-13.87-17.2S660.06,29.28,660.06,39.81Z"/><path class="cls-1" d="M702.09,17.72h20.46c7.7,0,15.15,1.71,15.15,10.7,0,4.71-2.4,7.62-6.51,9.5V38c5.14,1,8.39,5,8.39,10.87,0,7.54-5.56,13-13.44,13h-24Zm28.07,11.9c0-3.68-2-5.65-8.39-5.65H709.19V35.53h12.58C728,35.53,730.16,33.39,730.16,29.62Zm-21,26h15.58c4.62,0,7.28-3.17,7.28-7.37,0-4-2.57-6.59-8.56-6.59h-14.3Z"/><path class="cls-1" d="M776.81,61.9,760.72,40.15l-6.93,6.76v15h-7.28V17.72h7.28V38.78L774,17.72h9.76L765.94,35.1l20.12,26.8Z"/><path class="cls-1" d="M789.22,61.9V17.72h7.28v36h.17l19.86-36h9.34V61.9h-7.28v-36h-.17L798.56,61.9Z"/><path class="cls-1" d="M846.23,61.9h-9.5V52.39h9.5Z"/><path class="cls-1" d="M892.54,13.7l5.65,7.7L894.68,24l-5.9-8-5.65,8-3.77-2.57,5.56-7.7-9.07-3.26,1.46-4.19,9.16,3.42V0h4.62V9.67l9.07-3.42,1.72,4.19Z"/><path class="cls-1" d="M921,13.7l5.65,7.7L923.1,24l-5.9-8-5.65,8-3.77-2.57,5.56-7.7-9.07-3.26,1.46-4.19,9.15,3.42V0h4.63V9.67l9.07-3.42,1.72,4.19Z"/><path class="cls-1" d="M985.68,61.9h-8V33.39H945.44V61.9h-8V.94h8V26.37h32.19V.94h8Z"/><path class="cls-1" d="M1012.47,63.18c-10.62,0-17.55-6.42-19.09-16.35h7.36c1.37,6.59,5.65,10.27,11.9,10.27,7.7,0,12.58-5.73,13.1-15.32h-18.49V35.87h18.32c-1.2-8.3-6.17-13.35-13.44-13.35-5.48,0-9.17,2.82-10.71,8h-7.7c1.63-9.07,8.3-14.12,18.49-14.12,13,0,21.23,9.24,21.23,24C1033.44,53.85,1026.17,63.18,1012.47,63.18Z"/><path class="cls-1" d="M1067.34,61.9V42.38a75.48,75.48,0,0,1-13.7,2c-8.82,0-14.38-4.1-14.38-12.66v-14h7.28V30.48c0,5.65,3.08,7.7,8.47,7.7a54.68,54.68,0,0,0,12.33-2V17.72h7.27V61.9Z"/><path class="cls-1" d="M1101.49,67.55c-2.4,6.24-4.88,12.15-12.76,12.15a22.69,22.69,0,0,1-5.39-.77v-6.5a16.09,16.09,0,0,0,4.71.94,5.68,5.68,0,0,0,5.14-3.68l3.42-8-17.55-43.92h8.22l13.1,35.19,12.41-35.19h7.62Z"/><path class="cls-1" d="M1131.79,24c3.43-5.48,8.39-7.62,14.9-7.62,12.33,0,20.12,8.9,20.12,23.2S1159.1,63,1147,63c-6.51,0-11-2.14-14.81-7.28v23.2h-7.28V17.72h6.85Zm.17,15.67c0,10.7,5.31,17.2,13.87,17.2,8.31,0,13.44-6.59,13.44-17.2s-5.13-17.21-13.69-17.21S1132,28.94,1132,39.64Z"/><path class="cls-1" d="M1213.11,61.72a14,14,0,0,1-5,.86c-4.11,0-6.34-2.31-6.42-6.51-4.37,4.88-9.16,7-16,7-8.73,0-14.13-4.79-14.13-12.5,0-7.87,5.23-12.49,15.67-13.78s14.13-1,14.13-7c0-4.71-3.51-7.27-10-7.27-6.76,0-10.27,2.48-11,9h-7.1c.25-9.41,7.1-15,18.49-15,5.91,0,11,1.54,13.87,4.28,3.08,3,3,7.54,3,11.47,0,6.6-.34,13.1-.34,19.69,0,3.26.77,4.37,3,4.37a7,7,0,0,0,1.79-.26Zm-21.48-20.11c-5.31.68-12.5,1.28-12.5,8.39,0,4.53,3.34,7.36,8.82,7.36,6.84,0,13.44-4.71,13.44-10.36V39C1198.65,41,1194.88,41.18,1191.63,41.61Z"/><path class="cls-1" d="M1255.06,61.9h-7.28V24.14H1232l-.6,19.52c-.43,14.47-6.08,19.18-12.24,19.18a14.74,14.74,0,0,1-5.22-.94V56a10.14,10.14,0,0,0,3.85.6c2.91,0,6.16-2.57,6.42-12.16l.77-26.71h30Z"/><path class="cls-1" d="M1280.31,16.44c9.07,0,16.61,3.68,16.61,11.9a9.39,9.39,0,0,1-7.11,9.33v.17c4.11.77,8.56,4.11,8.56,11,0,9.59-9,14.46-18.32,14.46-11.56,0-18.66-5.56-19.18-15.15h7.37c.42,6.34,5.22,9.25,11.72,9.25,6.94,0,10.88-3.85,10.88-8.39s-2.66-7.19-9.42-7.19h-6.08V35.87h4.88c5.14,0,9.33-2,9.33-7.19,0-3.25-3.34-6.34-9.33-6.34-5.22,0-10.61,2.14-11.21,8.14h-7.37C1262.33,19.6,1271.4,16.44,1280.31,16.44Z"/></svg>