<svg xmlns="http://www.w3.org/2000/svg" xmlns:xlink="http://www.w3.org/1999/xlink" viewBox="0 0 88.14 52.94"><defs><style>.cls-1{fill:#009f3d;}.cls-2{fill:#fff;}.cls-3{clip-path:url(#clip-path);}.cls-4{clip-path:url(#clip-path-2);}</style><clipPath id="clip-path"><path class="cls-1" d="M43.18,1.23C28.47,2.35,13.79,3.48,0,.84V34.92c29.13,12.84,56.42,2.88,88.14,18v-51A101.17,101.17,0,0,0,67.19,0c-7.92,0-16,.61-24,1.23"></path></clipPath><clipPath id="clip-path-2"><path class="cls-2" d="M13.21,15.58V20H8.57v-4.4H6.05V27H8.57V22.1h4.64V27h2.53V15.58Zm18.25,6.36h2.75c1.09,0,1.81.46,1.81,1.63s-.88,1.51-1.86,1.51h-2.7Zm0-4.4h2.36c.9,0,1.74.24,1.74,1.31s-.65,1.37-1.55,1.37H31.46Zm-2.52-2V27H34.5c2.07,0,4-1,4-3.32a2.79,2.79,0,0,0-2.1-2.91A2.5,2.5,0,0,0,38,18.42c0-2.14-1.48-2.84-3.66-2.84Zm17.53,0-4.4,7.72h0V15.58H39.5V27h2.71l4.4-7.74h0V27h2.52V15.58Zm11.37,0V20H53.2v-4.4H50.68V27H53.2V22.1h4.64V27h2.53V15.58ZM78,18.4h0l1.44,4.21h-3Zm-1.26-2.82L72.4,27,67.54,20.1,72,15.58H68.87l-4.48,4.75V15.58H61.87V27h2.52V23.35l1.44-1.46L69.29,27h5.64l.89-2.55h4.29L81,27H83.6L79.31,15.58Zm-57.5,5.78c0-2,.85-3.94,3.11-3.94s3.12,1.93,3.12,3.94-.85,3.84-3.12,3.84-3.11-1.93-3.11-3.84m-2.53,0c0,3.31,2.11,6,5.64,6s5.64-2.65,5.64-6-2.1-6.06-5.64-6.06S16.69,18,16.69,21.36"></path></clipPath></defs><g id="Layer_2" data-name="Layer 2"><g id="&#x421;&#x43B;&#x43E;&#x439;_5" data-name="&#x421;&#x43B;&#x43E;&#x439; 5"><path class="cls-1" d="M43.18,1.23C28.47,2.35,13.79,3.48,0,.84V34.92c29.13,12.84,56.42,2.88,88.14,18v-51A101.17,101.17,0,0,0,67.19,0c-7.92,0-16,.61-24,1.23"></path><g class="cls-3"><rect class="cls-1" width="88.14" height="52.94"></rect></g><path class="cls-2" d="M13.21,15.58V20H8.57v-4.4H6.05V27H8.57V22.1h4.64V27h2.53V15.58Zm18.25,6.36h2.75c1.09,0,1.81.46,1.81,1.63s-.88,1.51-1.86,1.51h-2.7Zm0-4.4h2.36c.9,0,1.74.24,1.74,1.31s-.65,1.37-1.55,1.37H31.46Zm-2.52-2V27H34.5c2.07,0,4-1,4-3.32a2.79,2.79,0,0,0-2.1-2.91A2.5,2.5,0,0,0,38,18.42c0-2.14-1.48-2.84-3.66-2.84Zm17.53,0-4.4,7.72h0V15.58H39.5V27h2.71l4.4-7.74h0V27h2.52V15.58Zm11.37,0V20H53.2v-4.4H50.68V27H53.2V22.1h4.64V27h2.53V15.58ZM78,18.4h0l1.44,4.21h-3Zm-1.26-2.82L72.4,27,67.54,20.1,72,15.58H68.87l-4.48,4.75V15.58H61.87V27h2.52V23.35l1.44-1.46L69.29,27h5.64l.89-2.55h4.29L81,27H83.6L79.31,15.58Zm-57.5,5.78c0-2,.85-3.94,3.11-3.94s3.12,1.93,3.12,3.94-.85,3.84-3.12,3.84-3.11-1.93-3.11-3.84m-2.53,0c0,3.31,2.11,6,5.64,6s5.64-2.65,5.64-6-2.1-6.06-5.64-6.06S16.69,18,16.69,21.36"></path><g class="cls-4"><rect class="cls-2" x="6.05" y="15.3" width="77.55" height="12.01"></rect></g></g></g></svg>