<svg xmlns="http://www.w3.org/2000/svg" xmlns:xlink="http://www.w3.org/1999/xlink" width="569px" height="97px" viewBox="0 0 569 97"><title>Group 71</title><defs><polygon id="path-1" points="8.1314117e-14 95.4790209 566.565379 95.4790209 566.565379 0.456214925 8.1314117e-14 0.456214925"></polygon></defs><g id="Page-1" stroke="none" stroke-width="1" fill="none" fill-rule="evenodd"><g id="Pantoprovit-Copy-2" transform="translate(-660.000000, -1967.000000)"><g id="Group-71" transform="translate(660.000000, 1967.000000)"><g id="Group-2" transform="translate(0.726669, 0.000000)"><polygon id="Fill-1" fill="#6B7A83" points="-5.83174683e-13 74.8938985 -5.83174683e-13 91.2697791 3.74503087 91.2697791 3.74503087 77.953003 10.7329895 77.953003 10.7329895 91.2697791 14.4780204 91.2697791 14.4780204 74.8938985"></polygon><path d="M21.5370746,82.5526925 L24.8744149,82.5526925 C26.5552443,82.5526925 27.8040648,82.0239761 27.8040648,80.2071403 C27.8040648,78.4590806 26.5552443,77.8372299 24.8987333,77.8372299 L21.5370746,77.8372299 L21.5370746,82.5526925 Z M25.1876929,74.8941851 C28.8855175,74.8941851 31.4546831,76.5505433 31.4546831,80.1612896 C31.4546831,83.7261851 28.8125624,85.3825433 25.379379,85.3825433 L21.5370746,85.3825433 L21.5370746,91.2700657 L17.8149316,91.2700657 L17.8149316,74.8941851 L25.1876929,74.8941851 Z" id="Fill-2" fill="#6B7A83"></path><path d="M38.5842606,78.895809 L36.3026241,84.9910925 L40.8415786,84.9910925 L38.5842606,78.895809 Z M47.0356137,91.2697791 L43.0974662,91.2697791 L41.7542332,87.6131821 L35.3914,87.6131821 L33.9980998,91.2697791 L30.1557954,91.2697791 L36.6631084,74.8709731 L40.5283007,74.8709731 L47.0356137,91.2697791 Z" id="Fill-4" fill="#6B7A83"></path><path d="M52.1012757,88.4177194 L55.8720555,88.4177194 C57.4799297,88.4177194 59.0405976,88.1196896 59.0405976,86.186794 C59.0405976,84.2080478 57.3597683,83.9558687 55.6789389,83.9558687 L52.1012757,83.9558687 L52.1012757,88.4177194 Z M52.1012757,81.5186149 L55.5115712,81.5186149 C56.8805531,81.5186149 58.3439475,81.265003 58.3439475,79.6086448 C58.3439475,77.9522866 56.9520777,77.6771821 55.5115712,77.6771821 L52.1012757,77.6771821 L52.1012757,81.5186149 Z M56.5429567,74.8946149 C59.5441312,74.8946149 61.9945658,76.1125254 61.9945658,79.0111522 C61.9945658,80.5973015 61.0575929,81.7937194 59.6642926,82.3912119 C61.440965,82.8755104 62.787059,84.1177791 62.787059,86.3945552 C62.787059,89.5912119 60.2178934,91.2704955 56.999284,91.2704955 L48.4520879,91.2704955 L48.4520879,74.8946149 L56.5429567,74.8946149 Z" id="Fill-6" fill="#6B7A83"></path><polygon id="Fill-8" fill="#6B7A83" points="79.857562 91.2700657 76.1125311 91.2700657 76.1125311 79.9076776 76.039576 79.9076776 69.6052181 91.2700657 65.3795416 91.2700657 65.3795416 74.8941851 69.1245725 74.8941851 69.1245725 86.2322149 69.1975276 86.2322149 75.6318855 74.8941851 79.857562 74.8941851"></polygon><path d="M97.2650892,91.2700657 L93.5200583,91.2700657 L93.5200583,77.9532896 L88.9338975,77.9532896 L88.6935747,84.8996776 C88.526207,89.5449313 86.8682655,91.5924537 83.9400462,91.5924537 C83.2677145,91.5924537 82.3307415,91.4778269 81.8257774,91.3159164 L81.8257774,88.4172896 C82.114737,88.5562746 82.6669074,88.6938269 83.147553,88.6938269 C84.1560507,88.6938269 84.9714317,88.2109612 85.0687052,84.852394 L85.3562343,74.8941851 L97.2650892,74.8941851 L97.2650892,91.2700657 Z" id="Fill-10" fill="#6B7A83"></path><path d="M107.708833,83.6112716 L104.179807,83.6112716 L104.179807,88.3267343 L107.733151,88.3267343 C109.532712,88.3267343 110.638483,87.7048836 110.638483,85.9568239 C110.638483,84.2316896 109.389662,83.6112716 107.708833,83.6112716 M108.022111,91.2697791 L100.459094,91.2697791 L100.459094,74.8938985 L104.179807,74.8938985 L104.179807,80.7814209 L108.213797,80.7814209 C111.64698,80.7814209 114.289101,82.4377791 114.289101,86.0026746 C114.289101,89.6134209 111.718505,91.2697791 108.022111,91.2697791" id="Fill-12" fill="#6B7A83"></path><polygon id="Fill-14" fill="#6B7A83" points="130.99912 91.2700657 127.254089 91.2700657 127.254089 84.2090507 120.26613 84.2090507 120.26613 91.2700657 116.5211 91.2700657 116.5211 74.8941851 120.26613 74.8941851 120.26613 81.0582448 127.254089 81.0582448 127.254089 74.8941851 130.99912 74.8941851"></polygon><path d="M137.362239,83.0361313 C137.362239,86.5551761 139.138912,88.6714746 142.042813,88.6944 C144.876619,88.6944 146.630404,86.5322507 146.630404,83.0361313 C146.630404,79.5858627 144.852301,77.4466388 141.995606,77.4466388 C139.16323,77.4466388 137.362239,79.6317134 137.362239,83.0361313 M150.424072,83.1049075 C150.424072,88.2115343 147.038094,91.661803 142.019925,91.661803 C136.954549,91.661803 133.568572,88.2344597 133.568572,83.1049075 C133.568572,77.9065791 136.9288,74.5021612 142.042813,74.5021612 C147.038094,74.5021612 150.424072,77.9753552 150.424072,83.1049075" id="Fill-16" fill="#6B7A83"></path><polygon id="Fill-18" fill="#6B7A83" points="165.814317 77.8379463 156.714951 77.8379463 156.714951 81.4028418 165.06903 81.4028418 165.06903 84.2312597 156.714951 84.2312597 156.714951 88.2560955 165.981685 88.2560955 165.981685 91.2707821 152.992808 91.2707821 152.992808 74.8934687 165.814317 74.8934687"></polygon><polygon id="Fill-20" fill="#6B7A83" points="189.703838 91.2700657 185.958807 91.2700657 185.958807 77.9532896 178.970848 77.9532896 178.970848 91.2700657 175.225817 91.2700657 175.225817 74.8941851 189.703838 74.8941851"></polygon><polygon id="Fill-22" fill="#6B7A83" points="207.495595 91.2700657 203.750565 91.2700657 203.750565 79.9076776 203.677609 79.9076776 197.243252 91.2700657 193.017575 91.2700657 193.017575 74.8941851 196.762606 74.8941851 196.762606 86.2322149 196.835561 86.2322149 203.269919 74.8941851 207.495595 74.8941851"></polygon><polygon id="Fill-24" fill="#6B7A83" points="223.510395 77.9527164 218.372063 77.9527164 218.372063 91.2694925 214.602714 91.2694925 214.602714 77.9527164 209.464383 77.9527164 209.464383 74.8936119 223.510395 74.8936119"></polygon><path d="M230.257744,78.895809 L227.976108,84.9910925 L232.515062,84.9910925 L230.257744,78.895809 Z M238.709097,91.2697791 L234.77095,91.2697791 L233.427717,87.6131821 L227.064884,87.6131821 L225.671583,91.2697791 L221.829279,91.2697791 L228.336592,74.8709731 L232.201784,74.8709731 L238.709097,91.2697791 Z" id="Fill-26" fill="#6B7A83"></path><polygon id="Fill-28" fill="#6B7A83" points="254.627767 91.2700657 250.882736 91.2700657 250.882736 84.2090507 243.894778 84.2090507 243.894778 91.2700657 240.149747 91.2700657 240.149747 74.8941851 243.894778 74.8941851 243.894778 81.0582448 250.882736 81.0582448 250.882736 74.8941851 254.627767 74.8941851"></polygon><polygon id="Fill-30" fill="#6B7A83" points="272.419525 91.2700657 268.674494 91.2700657 268.674494 79.9076776 268.601539 79.9076776 262.167181 91.2700657 257.941505 91.2700657 257.941505 74.8941851 261.686535 74.8941851 261.686535 86.2322149 261.759491 86.2322149 268.193848 74.8941851 272.419525 74.8941851"></polygon><polygon id="Fill-32" fill="#6B7A83" points="288.554486 77.8379463 279.455119 77.8379463 279.455119 81.4028418 287.809199 81.4028418 287.809199 84.2312597 279.455119 84.2312597 279.455119 88.2560955 288.721853 88.2560955 288.721853 91.2707821 275.732976 91.2707821 275.732976 74.8934687 288.554486 74.8934687"></polygon><path d="M308.962758,77.8148776 L304.256436,77.8148776 L304.256436,78.0914149 C304.256436,82.576191 303.488261,85.5665194 301.974799,88.2115343 L308.962758,88.2115343 L308.962758,77.8148776 Z M310.979753,95.4788776 L310.979753,91.2706388 L300.126602,91.2706388 L300.126602,95.4788776 L296.500302,95.4788776 L296.500302,88.2115343 L297.79776,88.2115343 C299.813324,85.6352955 300.534293,82.2079522 300.534293,77.3778627 L300.534293,74.8933254 L312.707789,74.8933254 L312.707789,88.2115343 L314.604623,88.2115343 L314.604623,95.4788776 L310.979753,95.4788776 Z" id="Fill-34" fill="#6B7A83"></path><path d="M330.740012,91.2700657 L326.994982,91.2700657 L326.994982,77.9532896 L322.408821,77.9532896 L322.168498,84.8996776 C322.00113,89.5449313 320.343189,91.5924537 317.414969,91.5924537 C316.742638,91.5924537 315.805665,91.4778269 315.300701,91.3159164 L315.300701,88.4172896 C315.58966,88.5562746 316.141831,88.6938269 316.622476,88.6938269 C317.630974,88.6938269 318.446355,88.2109612 318.543628,84.852394 L318.831158,74.8941851 L330.740012,74.8941851 L330.740012,91.2700657 Z" id="Fill-36" fill="#6B7A83"></path><path d="M344.329697,77.7231761 L340.607554,77.7231761 C339.022567,77.7231761 337.461899,78.0455642 337.461899,79.9311761 C337.461899,81.9557731 339.022567,82.253803 340.776352,82.253803 L344.329697,82.253803 L344.329697,77.7231761 Z M337.101415,91.2706388 L332.396523,91.2706388 L337.702222,84.6466388 C335.444904,84.0935642 333.788393,82.5289075 333.788393,79.9082507 C333.788393,76.4121313 336.526357,74.8933254 339.670581,74.8933254 L348.05184,74.8933254 L348.05184,91.2706388 L344.329697,91.2706388 L344.329697,84.8529672 L342.095266,84.8529672 L337.101415,91.2706388 Z" id="Fill-38" fill="#6B7A83"></path><polygon id="Fill-40" fill="#6B7A83" points="369.89976 77.9527164 361.735936 77.9527164 361.735936 91.2694925 357.990905 91.2694925 357.990905 74.8936119 369.89976 74.8936119"></polygon><path d="M372.563768,88.1651104 C373.020095,88.3485134 373.668108,88.5333493 374.364758,88.5333493 C375.516305,88.5333493 376.094224,87.8670806 376.094224,87.130603 C376.094224,86.4170507 375.636467,85.6805731 375.300301,85.0143045 L370.282131,74.8941851 L374.437714,74.8941851 L378.302906,83.5184239 L382.096573,74.8941851 L386.106246,74.8941851 L380.342789,86.9457672 C378.759233,90.281409 377.41457,91.5680955 374.652287,91.5680955 C373.739633,91.5680955 372.924252,91.3388418 372.563768,91.2012896 L372.563768,88.1651104 Z" id="Fill-42" fill="#6B7A83"></path><path d="M394.964145,91.6610866 C389.994612,91.6610866 386.705908,88.2337433 386.705908,83.0597731 C386.705908,78.2984597 389.87445,74.5028776 395.110055,74.5028776 C399.21557,74.5028776 402.215314,76.9874149 402.504274,80.3674746 L398.830768,80.3674746 C398.447395,78.5735642 397.054095,77.5161313 395.0371,77.5161313 C391.746966,77.5161313 390.473827,80.3445493 390.473827,83.0826985 C390.473827,86.4627582 392.227611,88.6249075 394.989894,88.6249075 C397.245781,88.6249075 398.590445,87.3367881 398.902292,84.9453851 L402.623005,84.9453851 C402.239633,88.9472955 399.646149,91.6610866 394.964145,91.6610866" id="Fill-44" fill="#6B7A83"></path><polygon id="Fill-46" fill="#6B7A83" points="417.414875 77.9527164 412.276544 77.9527164 412.276544 91.2694925 408.507195 91.2694925 408.507195 77.9527164 403.368864 77.9527164 403.368864 74.8936119 417.414875 74.8936119"></polygon><path d="M422.001036,83.0361313 C422.001036,86.5551761 423.777708,88.6714746 426.681609,88.6944 C429.515416,88.6944 431.269201,86.5322507 431.269201,83.0361313 C431.269201,79.5858627 429.491098,77.4466388 426.634403,77.4466388 C423.802027,77.4466388 422.001036,79.6317134 422.001036,83.0361313 M435.062868,83.1049075 C435.062868,88.2115343 431.676891,91.661803 426.658722,91.661803 C421.593346,91.661803 418.207368,88.2344597 418.207368,83.1049075 C418.207368,77.9065791 421.567597,74.5021612 426.681609,74.5021612 C431.676891,74.5021612 435.062868,77.9753552 435.062868,83.1049075" id="Fill-48" fill="#6B7A83"></path><polygon id="Fill-50" fill="#6B7A83" points="449.90123 77.9527164 444.762899 77.9527164 444.762899 91.2694925 440.99355 91.2694925 440.99355 77.9527164 435.855218 77.9527164 435.855218 74.8936119 449.90123 74.8936119"></polygon><mask id="mask-2" fill="white"><use xlink:href="#path-1"></use></mask><g id="Clip-53"></g><path d="M466.612536,91.2693493 L470.357567,91.2693493 L470.357567,74.8934687 L466.612536,74.8934687 L466.612536,91.2693493 Z M458.206959,83.6108418 L455.590587,83.6108418 L455.590587,88.3263045 L458.232708,88.3263045 C460.033699,88.3263045 461.136609,87.7044537 461.136609,85.956394 C461.136609,84.2312597 459.889219,83.6108418 458.206959,83.6108418 L458.206959,83.6108418 Z M458.520237,91.2693493 L451.869875,91.2693493 L451.869875,74.8934687 L455.590587,74.8934687 L455.590587,80.7824239 L458.711923,80.7824239 C462.145106,80.7824239 464.787227,82.4373493 464.787227,86.0036776 C464.787227,89.6144239 462.218061,91.2693493 458.520237,91.2693493 L458.520237,91.2693493 Z" id="Fill-52" fill="#6B7A83" mask="url(#mask-2)"></path><path d="M483.946679,88.4177194 L487.717459,88.4177194 C489.325333,88.4177194 490.886001,88.1196896 490.886001,86.186794 C490.886001,84.2080478 489.205172,83.9558687 487.524342,83.9558687 L483.946679,83.9558687 L483.946679,88.4177194 Z M483.946679,81.5186149 L487.356975,81.5186149 C488.725956,81.5186149 490.189351,81.265003 490.189351,79.6086448 C490.189351,77.9522866 488.797481,77.6771821 487.356975,77.6771821 L483.946679,77.6771821 L483.946679,81.5186149 Z M488.38836,74.8946149 C491.389535,74.8946149 493.838539,76.1125254 493.838539,79.0111522 C493.838539,80.5973015 492.902996,81.7937194 491.509696,82.3912119 C493.286368,82.8755104 494.632462,84.1177791 494.632462,86.3945552 C494.632462,89.5912119 492.063297,91.2704955 488.846118,91.2704955 L480.297491,91.2704955 L480.297491,74.8946149 L488.38836,74.8946149 Z" id="Fill-54" fill="#6B7A83" mask="url(#mask-2)"></path><path d="M500.27447,83.0361313 C500.27447,86.5551761 502.051142,88.6714746 504.955043,88.6944 C507.78885,88.6944 509.542635,86.5322507 509.542635,83.0361313 C509.542635,79.5858627 507.764532,77.4466388 504.907837,77.4466388 C502.075461,77.4466388 500.27447,79.6317134 500.27447,83.0361313 M513.336302,83.1049075 C513.336302,88.2115343 509.950325,91.661803 504.932156,91.661803 C499.86678,91.661803 496.480802,88.2344597 496.480802,83.1049075 C496.480802,77.9065791 499.841031,74.5021612 504.955043,74.5021612 C509.950325,74.5021612 513.336302,77.9753552 513.336302,83.1049075" id="Fill-55" fill="#6B7A83" mask="url(#mask-2)"></path><path d="M529.374705,91.2700657 L525.629674,91.2700657 L525.629674,77.9532896 L521.043513,77.9532896 L520.80319,84.8996776 C520.635822,89.5449313 518.977881,91.5924537 516.049662,91.5924537 C515.37733,91.5924537 514.440357,91.4778269 513.935393,91.3159164 L513.935393,88.4172896 C514.224352,88.5562746 514.776523,88.6938269 515.257168,88.6938269 C516.265666,88.6938269 517.081047,88.2109612 517.178321,84.852394 L517.46585,74.8941851 L529.374705,74.8941851 L529.374705,91.2700657 Z" id="Fill-56" fill="#6B7A83" mask="url(#mask-2)"></path><path d="M535.665155,83.0361313 C535.665155,86.5551761 537.441827,88.6714746 540.345728,88.6944 C543.179535,88.6944 544.933319,86.5322507 544.933319,83.0361313 C544.933319,79.5858627 543.155217,77.4466388 540.298522,77.4466388 C537.466146,77.4466388 535.665155,79.6317134 535.665155,83.0361313 M548.726987,83.1049075 C548.726987,88.2115343 545.34101,91.661803 540.32284,91.661803 C535.257464,91.661803 531.871487,88.2344597 531.871487,83.1049075 C531.871487,77.9065791 535.231715,74.5021612 540.345728,74.5021612 C545.34101,74.5021612 548.726987,77.9753552 548.726987,83.1049075" id="Fill-57" fill="#6B7A83" mask="url(#mask-2)"></path><path d="M558.906519,91.6610866 C553.936986,91.6610866 550.648282,88.2337433 550.648282,83.0597731 C550.648282,78.2984597 553.816825,74.5028776 559.052429,74.5028776 C563.157944,74.5028776 566.157688,76.9874149 566.446648,80.3674746 L562.773142,80.3674746 C562.38977,78.5735642 560.996469,77.5161313 558.979474,77.5161313 C555.68934,77.5161313 554.416201,80.3445493 554.416201,83.0826985 C554.416201,86.4627582 556.169986,88.6249075 558.932268,88.6249075 C561.188155,88.6249075 562.532819,87.3367881 562.844666,84.9453851 L566.565379,84.9453851 C566.182007,88.9472955 563.588523,91.6610866 558.906519,91.6610866" id="Fill-58" fill="#6B7A83" mask="url(#mask-2)"></path><polygon id="Fill-59" fill="#009f3d" mask="url(#mask-2)" points="0.829829033 1.85079403 42.3813614 1.85079403 42.3813614 57.3087045 31.2664302 57.3087045 31.2664302 11.7287642 11.9833835 11.7287642 11.9833835 57.3087045 0.829829033 57.3087045"></polygon><path d="M78.8474909,16.5541254 L71.0956489,35.5922149 L86.5521266,35.5922149 L78.8474909,16.5541254 Z M73.2013347,1.85036418 L84.3548892,1.85036418 L106.574738,57.3082746 L95.1450985,57.3082746 L90.6247403,45.8842746 L67.051645,45.8842746 L62.3524752,57.3082746 L50.9228355,57.3082746 L73.2013347,1.85036418 Z" id="Fill-60" fill="#009f3d" mask="url(#mask-2)"></path><polygon id="Fill-61" fill="#009f3d" mask="url(#mask-2)" points="115.037392 1.85079403 126.190947 1.85079403 126.190947 22.7744955 145.473993 22.7744955 145.473993 1.85079403 156.588924 1.85079403 156.588924 57.3087045 145.473993 57.3087045 145.473993 32.9906149 126.190947 32.9906149 126.190947 57.3087045 115.037392 57.3087045"></polygon><polygon id="Fill-62" fill="#009f3d" mask="url(#mask-2)" points="164.09043 1.85079403 196.019036 1.85079403 196.019036 12.2560478 185.494898 12.2560478 185.494898 57.3087045 174.341344 57.3087045 174.341344 12.2560478 164.09043 12.2560478"></polygon><path d="M230.72008,10.7856716 C225.372897,10.7856716 220.876857,12.5709851 217.233391,16.1387463 C213.589925,19.7093731 211.768907,24.2457313 211.768907,29.7492537 C211.768907,35.881791 214.061988,40.7319403 218.649579,44.3011343 C222.212937,47.0908657 226.302717,48.4864478 230.916057,48.4864478 C236.131635,48.4864478 240.574746,46.6767761 244.242531,43.0574328 C247.911745,39.4380896 249.747068,34.9776716 249.747068,29.6733134 C249.747068,24.3961791 247.900301,19.928597 244.203907,16.272 C240.507513,12.6139701 236.011474,10.7856716 230.72008,10.7856716 M230.83738,0.456358209 C239.009787,0.456358209 246.03923,3.29623881 251.919987,8.976 C257.802175,14.657194 260.743268,21.5806567 260.743268,29.7492537 C260.743268,37.8419104 257.840798,44.6922985 252.037287,50.2961194 C246.235208,55.9013731 239.194321,58.7025672 230.916057,58.7025672 C222.242978,58.7025672 215.037584,55.8254328 209.301307,50.0697313 C203.563599,44.3140299 200.69403,37.4779701 200.69403,29.5615522 C200.69403,24.257194 202.02868,19.3812537 204.703702,14.9337313 C207.374433,10.4847761 211.0508,6.96 215.725651,4.35797015 C220.401933,1.7559403 225.44013,0.456358209 230.83738,0.456358209" id="Fill-63" fill="#009f3d" mask="url(#mask-2)"></path><polygon id="Fill-64" fill="#009f3d" mask="url(#mask-2)" points="271.072859 1.85079403 312.624391 1.85079403 312.624391 57.3087045 301.50946 57.3087045 301.50946 11.7287642 282.226413 11.7287642 282.226413 57.3087045 271.072859 57.3087045"></polygon><path d="M336.777695,23.5287403 L340.272389,23.5287403 C343.021797,23.5287403 344.932936,23.339606 346.005805,22.9613373 C347.078675,22.5830687 347.922666,21.9597851 348.540639,21.0886209 C349.154321,20.2188896 349.461877,19.1671881 349.461877,17.9306507 C349.461877,15.7871284 348.599289,14.2239045 346.869823,13.2395463 C345.61242,12.5088 343.282147,12.1434269 339.879004,12.1434269 L336.777695,12.1434269 L336.777695,23.5287403 Z M325.781494,1.85136716 L337.445735,1.85136716 C343.754209,1.85136716 348.303177,2.41017313 351.091208,3.52921791 C353.879239,4.64682985 356.080768,6.45650149 357.690073,8.95823284 C359.299378,11.4585313 360.104745,14.4560239 360.104745,17.9492776 C360.104745,21.8193672 359.050472,25.0360836 356.944786,27.5994269 C354.834809,30.164203 351.976683,31.9480836 348.361827,32.9539343 C346.240406,33.5313672 342.379505,33.8208 336.777695,33.8208 L336.777695,57.3078448 L325.781494,57.3078448 L325.781494,1.85136716 Z" id="Fill-65" fill="#009f3d" mask="url(#mask-2)"></path><path d="M398.02354,10.7856716 C392.676357,10.7856716 388.180317,12.5709851 384.539713,16.1387463 C380.896247,19.7093731 379.075229,24.2457313 379.075229,29.7492537 C379.075229,35.881791 381.365448,40.7319403 385.95304,44.3011343 C389.519259,47.0908657 393.606178,48.4864478 398.219518,48.4864478 C403.435096,48.4864478 407.878207,46.6767761 411.545991,43.0574328 C415.218067,39.4380896 417.05339,34.9776716 417.05339,29.6733134 C417.05339,24.3961791 415.203762,19.928597 411.507368,16.272 C407.813835,12.6139701 403.317795,10.7856716 398.02354,10.7856716 M398.140841,0.456358209 C406.316109,0.456358209 413.342691,3.29623881 419.226309,8.976 C425.108496,14.657194 428.04959,21.5806567 428.04959,29.7492537 C428.04959,37.8419104 425.147119,44.6922985 419.343609,50.2961194 C413.541529,55.9013731 406.500642,58.7025672 398.219518,58.7025672 C389.546438,58.7025672 382.343906,55.8254328 376.604767,50.0697313 C370.86706,44.3140299 368.000352,37.4779701 368.000352,29.5615522 C368.000352,24.257194 369.335002,19.3812537 372.007163,14.9337313 C374.680754,10.4847761 378.354261,6.96 383.031973,4.35797015 C387.708255,1.7559403 392.74359,0.456358209 398.140841,0.456358209" id="Fill-66" fill="#009f3d" mask="url(#mask-2)"></path><path d="M449.412287,33.0288716 L449.412287,47.2411701 L452.170278,47.2411701 C456.737842,47.2411701 459.816264,46.6895284 461.404111,45.5833791 C462.993389,44.4772299 463.787312,42.8681552 463.787312,40.7575881 C463.787312,38.3704836 462.8532,36.4848716 460.990698,35.1021851 C459.126766,33.7209313 456.028318,33.0288716 451.698215,33.0288716 L449.412287,33.0288716 Z M449.412287,11.9174687 L449.412287,23.6036776 L451.818377,23.6036776 C454.49769,23.6036776 456.488937,23.0634985 457.790685,21.9831403 C459.091004,20.9027821 459.741878,19.4326925 459.741878,17.5714388 C459.741878,15.8377075 459.123905,14.4621851 457.889389,13.4434388 C456.653443,12.4261254 454.773775,11.9174687 452.250386,11.9174687 L449.412287,11.9174687 Z M438.416087,57.3082746 L438.416087,1.85036418 L447.498288,1.85036418 C452.768224,1.85036418 456.623403,2.17705075 459.059533,2.83042388 C462.521326,3.71161791 465.273595,5.34505075 467.3192,7.73215522 C469.363374,10.1206925 470.386177,12.9347821 470.386177,16.1772896 C470.386177,18.2878567 469.919836,20.204991 468.992877,21.9258269 C468.061626,23.6480955 466.549594,25.2629015 464.455353,26.7702448 C467.964352,28.3535284 470.529226,30.3337075 472.151405,32.7079164 C473.775015,35.0835582 474.588966,37.8919164 474.588966,41.1344239 C474.588966,44.2522746 473.747836,47.0907224 472.071298,49.6554985 C470.391899,52.2188418 468.231854,54.1345433 465.584012,55.4040358 C462.937599,56.6735284 459.279829,57.3082746 454.614991,57.3082746 L438.416087,57.3082746 Z" id="Fill-67" fill="#009f3d" mask="url(#mask-2)"></path><polygon id="Fill-68" fill="#009f3d" mask="url(#mask-2)" points="527.136698 1.85079403 527.136698 57.3087045 516.140498 57.3087045 516.140498 22.586794 494.592981 57.3087045 485.034426 57.3087045 485.034426 1.85079403 496.032057 1.85079403 496.032057 37.7032119 517.867103 1.85079403"></polygon><polygon id="Fill-69" fill="#009f3d" mask="url(#mask-2)" points="534.557381 1.85079403 566.485986 1.85079403 566.485986 12.2560478 555.961849 12.2560478 555.961849 57.3087045 544.805433 57.3087045 544.805433 12.2560478 534.557381 12.2560478"></polygon></g><g id="Group-70" transform="translate(0.726669, 0.000000)"></g></g></g></g></svg>