<?xml version="1.0" encoding="UTF-8" standalone="no"?>
<svg
   xmlns:dc="http://purl.org/dc/elements/1.1/"
   xmlns:cc="http://creativecommons.org/ns#"
   xmlns:rdf="http://www.w3.org/1999/02/22-rdf-syntax-ns#"
   xmlns:svg="http://www.w3.org/2000/svg"
   xmlns="http://www.w3.org/2000/svg"
   xmlns:sodipodi="http://sodipodi.sourceforge.net/DTD/sodipodi-0.dtd"
   xmlns:inkscape="http://www.inkscape.org/namespaces/inkscape"
   version="1.1"
   id="svg2"
   xml:space="preserve"
   width="545.74268"
   height="441.15866"
   viewBox="0 0 545.74268 441.15866"
   sodipodi:docname="Fiksiki.ai"><metadata
     id="metadata8"><rdf:RDF><cc:Work
         rdf:about=""><dc:format>image/svg+xml</dc:format><dc:type
           rdf:resource="http://purl.org/dc/dcmitype/StillImage" /></cc:Work></rdf:RDF></metadata><defs
     id="defs6"><clipPath
       clipPathUnits="userSpaceOnUse"
       id="clipPath18"><path
         d="M 0,330.869 H 409.307 V 0 H 0 Z"
         id="path16" /></clipPath></defs><sodipodi:namedview
     pagecolor="#ffffff"
     bordercolor="#666666"
     borderopacity="1"
     objecttolerance="10"
     gridtolerance="10"
     guidetolerance="10"
     inkscape:pageopacity="0"
     inkscape:pageshadow="2"
     inkscape:window-width="640"
     inkscape:window-height="480"
     id="namedview4" /><g
     id="g10"
     inkscape:groupmode="layer"
     inkscape:label="Fiksiki"
     transform="matrix(1.3333333,0,0,-1.3333333,0,441.15867)"><g
       id="g12"><g
         id="g14"
         clip-path="url(#clipPath18)"><g
           id="g20"
           transform="translate(185.1787,19.8792)"><path
             d="M 0,0 C -1.481,-0.9 -2.658,0.073 -0.668,2.808 -0.336,3.267 0.006,3.714 0.348,4.155 0.687,3.121 1.041,2.058 1.394,1.017 0.935,0.642 0.466,0.296 0,0 M 2.649,12.975 C 2.281,12.558 1.932,12.188 1.591,11.831 1.506,12.14 1.425,12.425 1.365,12.666 0.242,16.925 5.117,15.763 2.649,12.975 M 5.214,4.579 C 4.875,4.282 4.515,3.95 4.149,3.594 3.736,4.857 3.327,6.146 2.943,7.361 c 1.152,1.404 2.253,2.795 3.203,4.258 3.913,6.104 -3.829,9.623 -7.168,5.656 -1.784,-2.111 -1.337,-4.186 -0.85,-5.963 0.158,-0.551 0.384,-1.343 0.678,-2.288 -0.955,-0.966 -2.102,-2.195 -3.618,-3.955 -3.78,-4.398 -2.752,-10.1 1.301,-11.359 2.465,-0.769 4.77,0.345 6.757,2.111 0.099,-0.26 0.199,-0.508 0.289,-0.738 1.056,-2.649 4.337,-1.851 3.085,1.354 -0.214,0.551 -0.489,1.301 -0.792,2.172 0.645,0.81 1.228,1.639 1.748,2.408 2.414,3.581 0.085,5.679 -2.362,3.562 m 5.459,60.945 C 7.836,58.036 3.89,48.201 -0.614,36.601 c 2.831,0.326 4.368,0.434 4.368,0.434 4.07,0.502 4.823,-1.53 3.68,-3.696 -0.913,-1.723 -2.008,-0.579 -5.819,-6.247 -2.141,-3.194 -5.64,-4.04 -7.584,-4.464 -4.685,-12.399 -9.699,-26.232 -14.575,-40.967 -0.713,-2.146 -2.782,-1.675 -3.408,-0.804 -2.289,3.2 -3.974,3.302 -5.752,5.891 -0.211,0.417 -0.632,0.986 -0.378,2.015 1.306,5.335 4.769,16.295 10.041,30.725 -6.642,-1.438 -13.827,-2.988 -16.794,-3.671 -3.559,-9.412 -7.028,-18.846 -10.316,-28.173 -2.044,-5.79 -7.352,-4.669 -5.489,0.803 2.967,8.704 6.242,17.747 9.533,26.517 -3.681,0.393 -4.923,2.994 -6.98,5.159 -0.793,0.848 -2.529,0.727 -3.375,1.9 -1.525,2.112 -1.37,3.054 2.147,4.071 4.851,1.396 9.484,2.625 13.857,3.695 5.952,15.352 11.326,28.525 14.196,35.56 2.204,5.42 7.903,4.912 5.74,-0.43 -4.397,-10.862 -8.907,-22.144 -13.352,-33.582 6.218,1.398 11.785,2.463 16.542,3.285 3.723,9.557 8.015,20.038 12.808,31.047 0.311,0.72 1.222,1.736 2.175,1.894 2.991,0.513 7.854,3.138 9.537,2.74 1.574,-0.382 1.449,-2.239 0.485,-4.779 m 31.062,2.075 c 4.966,2.449 7.427,2.129 7.476,-0.352 0.073,-3.211 -0.405,-7.476 -0.738,-10.571 -1.851,-16.804 -4.936,-30.528 -5.165,-47.779 8.111,21.001 14.915,35.602 23.685,53.59 2.783,5.722 4.555,4.659 6.836,5.674 8.902,3.961 9.241,1.525 8.08,-3.308 -4.318,-17.958 -15.363,-74.476 -17.057,-83.18 -0.483,-2.516 -3.217,-1.444 -3.937,-0.46 -3.163,4.381 -6.738,4.446 -6.333,7.361 1.983,14.505 9.133,50.911 10.996,59.494 C 56.07,28.579 46.211,4.217 41.155,-9.599 c -1.078,-2.926 -3.037,-2.71 -4.247,-0.568 -1.718,3.019 -5.032,4.555 -5.576,8.111 C 29.587,9.272 33.31,30.866 33.83,44.523 28.652,29.602 19.964,0.636 16.159,-12.454 c -1.573,-5.412 -6.803,-4.524 -5.407,0.75 5.785,21.963 18.242,60.807 23.634,74.778 1.27,3.284 4.591,3.169 7.349,4.525"
             style="fill:#e50010;fill-opacity:1;fill-rule:nonzero;stroke:none"
             id="path22" /></g><g
           id="g24"
           transform="translate(208.1162,146.1234)"><path
             d="M 0,0 14.914,14.836 11.53,18.456 -3.384,3.384 -18.378,18.456 -21.84,14.914 -6.926,0 l -14.993,-14.914 3.541,-3.621 14.836,15.151 15.072,-15.151 3.463,3.542 z"
             style="fill:#000000;fill-opacity:1;fill-rule:nonzero;stroke:none"
             id="path26" /></g><g
           id="g28"
           transform="translate(408.5967,330.8677)"><path
             d="m 0,0 -408.597,-17.716 25.07,-111.206 384.238,40.384 z"
             style="fill:#e92928;fill-opacity:1;fill-rule:nonzero;stroke:none"
             id="path30" /></g><g
           id="g32"
           transform="translate(109.422,220.7655)"><path
             d="M 0,0 -76.868,-11.866 -102.477,84.125 2.548,92.198 Z"
             style="fill:#ffffff;fill-opacity:1;fill-rule:nonzero;stroke:none"
             id="path34" /></g><g
           id="g36"
           transform="translate(67.9822,247.8634)"><path
             d="m 0,0 c -0.257,0.096 -0.596,0.217 -0.934,0.335 -0.006,0.003 -0.017,0.008 -0.03,0.016 -0.846,0.308 -3.548,1.228 -6.941,2.198 -2.671,0.78 -5.567,1.557 -8.168,2.145 -0.816,0.177 -1.693,0.29 -2.58,0.294 -0.057,0.007 -0.111,0.012 -0.167,0.023 0.016,-0.011 0.03,-0.016 0.056,-0.023 -2.691,-0.055 -5.298,-1.294 -5.562,-5.613 -0.184,-2.738 -0.221,-6.125 3.701,-8.06 4.566,-2.254 16.437,-1.923 18.091,-1.919 C 3.749,-10.608 5.346,-2.016 0,0"
             style="fill:#e92928;fill-opacity:1;fill-rule:nonzero;stroke:none"
             id="path38" /></g><g
           id="g40"
           transform="translate(23.2364,265.1738)"><path
             d="m 0,0 c 1.76,-1.181 18.512,-8.884 25.674,-12.191 4.881,0.527 17.68,-1.688 20.136,-2.803 2.504,-1.123 6.44,-3.121 5.804,-8.448 C 50.945,-29.135 46.496,-30 46.496,-30 c 0,0 3.779,-2.173 2.41,-5.831 -0.77,-2.055 -2.627,-2.851 -4.522,-3.104 2.511,-1.501 8.529,-4.929 18.413,-0.055 7.212,3.79 12.531,9.793 13.415,17.586 0.679,5.903 -0.369,9.53 -0.737,12.535 -0.589,4.779 1.429,15.321 6.248,20.196 6.625,6.717 -1.84,13.462 -9.645,9.045 C 65.544,16.684 63.988,6.83 63.02,3.654 61.873,-0.125 56.236,-2.964 53.505,0.89 52.233,2.685 39.598,28.627 37.325,32.224 35.066,35.839 29.624,38.639 24.948,35.586 20.596,32.733 21.718,28.605 23.773,25.914 24.854,24.521 31.602,13.901 35.086,7.739 37.258,3.9 38.323,0.647 37.061,-0.863 36.181,-1.912 32.041,-1.377 27.9,1.237 21.427,5.354 9.435,12.798 7.045,14.094 3.838,15.856 -0.804,17.123 -3.415,12.264 -5.734,7.945 -3.164,2.132 0,0"
             style="fill:#e92928;fill-opacity:1;fill-rule:nonzero;stroke:none"
             id="path42" /></g><g
           id="g44"
           transform="translate(69.4986,230.9489)"><path
             d="m 0,0 c 0.09,2.499 -2.514,3.472 -4.148,3.996 -1.639,0.516 -7.851,1.539 -9.559,1.792 -3.44,0.491 -6.881,-0.319 -7.019,-3.895 -0.133,-3.083 1.33,-6.527 4.703,-7.141 2.839,-0.503 8.766,0.741 11.936,0.972 C -3.112,-4.2 -0.131,-3.519 0,0"
             style="fill:#e92928;fill-opacity:1;fill-rule:nonzero;stroke:none"
             id="path46" /></g><g
           id="g48"
           transform="translate(144.5727,277.8059)"><path
             d="m 0,0 c -0.073,0.017 -0.161,-0.025 -0.288,-0.025 0.264,-4.18 1.107,-14.6 1.319,-16.143 3.697,1.256 6.527,3.141 6.823,6.854 C 8.244,-4.501 4.696,-0.755 0,0 m 78.642,-20.455 -11.827,10.335 1.258,-10.97 -11.831,1.088 -2.643,18.867 -3.331,15.554 11.954,2.973 0.571,-6.17 1.588,-8.585 7.429,14.992 10.015,-1.233 c -2.232,-5.302 -7.46,-16.83 -7.46,-16.83 L 88.288,-16.157 Z M 41.627,-24.443 40.9,-8.424 30.613,-23.961 22.507,-21.912 23.258,-6.94 22.666,7.338 31.593,8.883 30.933,-7.453 41.627,10.161 48.569,6.885 48.95,-7.028 50.588,-22.483 Z M 18.024,-13.487 C 16.434,-24.943 2.988,-27.158 2.988,-27.158 c 0.297,-1.934 1.614,-8.224 1.614,-8.224 l -11.856,-3.406 -1.522,9.613 c 0,0 -17.612,2.527 -20.19,18.992 -3.05,19.458 16.378,20.815 16.378,20.815 l -0.689,5.007 11.405,-1.195 0.249,-3.894 c 0,0 22.951,-0.273 19.647,-24.037 m -36.813,2.398 c 1.117,-4.199 4.57,-5.657 8.679,-5.189 l -1.918,16.479 c -4.747,-1.893 -8.05,-6.452 -6.761,-11.29"
             style="fill:#ffffff;fill-opacity:1;fill-rule:nonzero;stroke:none"
             id="path50" /></g><g
           id="g52"
           transform="translate(257.7747,281.2705)"><path
             d="M 0,0 C 0.506,2.63 2.617,5.406 3.907,5.417 2.455,3.819 1.715,1.915 1.321,-0.6 -0.009,-9.014 5.403,-14.265 7.823,-15.422 3.984,-14.815 -2.032,-7.88 0,0 m 3.563,-14.993 c -3.838,0.62 -9.921,7.757 -7.979,15.653 0.395,1.46 1.733,4.142 3.555,4.442 C -2.232,3.725 -2.904,2.133 -3.189,0.304 -4.496,-8.105 1.143,-13.828 3.563,-14.993 M 22.102,-37.563 -15.63,-31.828 -29.9,0.556 -7.131,32.879 30.855,28.247 36.13,15.519 19.919,7.539 C 16.324,11.803 11.916,13.794 5.9,12.974 -3.379,11.696 -8.443,5.186 -7.192,-3.945 c 1.249,-9.121 7.869,-14.059 17.15,-12.789 9.235,1.266 14.273,7.711 13.115,16.771 l 17.168,5.112 5.36,-11.572 z"
             style="fill:#ffffff;fill-opacity:1;fill-rule:nonzero;stroke:none"
             id="path54" /></g><g
           id="g56"
           transform="translate(394.2079,277.1498)"><path
             d="m 0,0 -0.928,16.321 -10.732,-15.95 -8.976,2.558 1.057,14.728 -0.756,14.546 9.423,1.674 -0.554,-16.659 11.152,18.075 7.38,-3.264 L 7.58,17.845 9.443,2.099 Z m -68.133,-6.204 -1.818,15.502 -9.305,-15.933 -8.283,1.332 -0.234,14.622 -1.569,13.815 8.868,2.237 0.434,-15.931 8.408,17.967 8.387,-2.602 1.304,-13.481 2.674,-14.899 z"
             style="fill:#ffffff;fill-opacity:1;fill-rule:nonzero;stroke:none"
             id="path58" /></g><g
           id="g60"
           transform="translate(361.5913,270.1744)"><path
             d="m 0,0 -10.757,13.277 0.401,-10.731 -12.171,2.071 -1.182,18.503 -2.17,15.346 12.636,1.855 0.084,-6.029 0.936,-8.455 9.401,13.549 8.857,-1.472 C 3.293,32.956 -2.691,20.169 -2.691,20.169 L 11.279,6.201 Z"
             style="fill:#ffffff;fill-opacity:1;fill-rule:nonzero;stroke:none"
             id="path62" /></g><g
           id="g64"
           transform="translate(84.463,297.1603)"><path
             d="M 0,0 0.837,0.076 C 1.808,0.161 2.561,0.55 2.494,1.333 2.44,2.023 1.884,2.448 0.78,2.343 0.315,2.307 0,2.236 -0.187,2.167 Z M 0.328,-4.248 -1.436,-4.393 -2.082,3.123 C -1.396,3.322 -0.441,3.547 0.803,3.652 2.239,3.774 2.909,3.595 3.487,3.275 3.939,2.992 4.311,2.421 4.371,1.72 4.445,0.849 3.856,0.154 2.955,-0.209 L 2.966,-0.3 C 3.722,-0.465 4.194,-1.031 4.512,-2.028 4.834,-3.163 5.011,-3.613 5.225,-3.823 L 3.327,-3.987 C 3.069,-3.732 2.878,-3.098 2.57,-2.239 2.36,-1.417 1.868,-1.089 0.893,-1.178 L 0.07,-1.245 Z M 0.619,5.817 C -2.708,5.537 -4.973,2.596 -4.679,-0.725 -4.388,-4.095 -1.66,-6.555 1.754,-6.26 5.085,-6.026 7.3,-3.094 7.008,0.287 6.718,3.601 4.04,6.117 0.666,5.83 Z M 0.58,7.348 C 4.924,7.724 8.582,4.646 8.95,0.452 9.321,-3.843 6.236,-7.457 1.844,-7.837 c -4.334,-0.375 -8.092,2.653 -8.465,6.943 -0.361,4.2 2.815,7.862 7.15,8.239 z"
             style="fill:#e92928;fill-opacity:1;fill-rule:nonzero;stroke:none"
             id="path66" /></g></g></g></g></svg>
