<svg id="Слой_1" data-name="Слой 1" xmlns="http://www.w3.org/2000/svg" viewBox="0 0 144 30"><rect width="144" height="30" style="fill:#dd2c01"/><path d="M15.55566,17.051,11.60107,9.73267h1.93311l2.95117,5.57714,2.74414-5.57714h1.874l-5.356,10.53515H13.84375Z" transform="translate(0)" style="fill:#fff"/><path d="M21.728,19.86938l.38379-1.416a6.28676,6.28676,0,0,0,2.61132.60449c1.26905,0,2.19874-.5459,2.19874-1.78515,0-1.32813-1.04786-1.69727-2.43458-1.69727h-.98876V14.17407H24.5166c1.31348,0,2.13965-.45752,2.13965-1.66748,0-1.0625-.78223-1.54931-1.918-1.54931a6.28116,6.28116,0,0,0-2.376.48681L22.023,10.08667A8.26307,8.26307,0,0,1,24.915,9.55542c1.874,0,3.46777.87061,3.46777,2.80371a2.36275,2.36275,0,0,1-1.82959,2.41943v.03028A2.41781,2.41781,0,0,1,28.61865,17.302c0,2.125-1.69677,3.14258-3.85107,3.14258A7.89451,7.89451,0,0,1,21.728,19.86938Z" transform="translate(0)" style="fill:#fff"/><path d="M30.55566,9.73267h1.72657v4.42627h4.54443V9.73267h1.72656V20.26782H36.82666V15.57544H32.28223v4.69238H30.55566Z" transform="translate(0)" style="fill:#fff"/><path d="M41.65674,20.26782H39.812L43.72217,9.73267h2.34619l3.89551,10.53515H48.10449l-1.07715-2.8623H42.7041Zm1.47558-4.27929h3.46729l-1.72656-4.92774Z" transform="translate(0)" style="fill:#fff"/><path d="M52.13721,11.13452H49.14209V9.73267h7.64307v1.40185H53.86377v9.1333H52.13721Z" transform="translate(0)" style="fill:#fff"/><path d="M58.19092,9.73267h1.71191V13.864h2.06543c1.96289,0,3.64453.84131,3.64453,3.17237,0,2.46386-1.68164,3.23144-3.64453,3.23144H58.19092Zm3.48242,9.13379c1.26855,0,2.21289-.33985,2.21289-1.83008,0-1.37207-.94434-1.77051-2.09473-1.77051H59.90283v3.60059Z" transform="translate(0)" style="fill:#fff"/><path d="M71.24072,9.73267H77.895v1.40185H72.95264v2.90674h2.15429c1.96192,0,3.59961.82617,3.59961,3.084,0,2.36036-1.63769,3.14258-3.59961,3.14258H71.24072Zm3.55567,9.13379c1.26953,0,2.18457-.3545,2.18457-1.72657,0-1.31347-.915-1.69726-2.06641-1.69726H72.95264v3.42383Z" transform="translate(0)" style="fill:#fff"/><path d="M85.0708,20.44458c-3.084,0-4.82519-2.27246-4.82519-5.42969,0-3.17236,1.71191-5.45947,4.82519-5.45947s4.81055,2.28711,4.81055,5.45947C89.88135,18.17212,88.15479,20.44458,85.0708,20.44458Zm0-9.4873c-2.11035,0-3.09863,1.82959-3.09863,4.05761,0,2.21289.98828,4.02832,3.09863,4.02832s3.084-1.81543,3.084-4.02832C88.15479,12.78687,87.16553,10.95728,85.0708,10.95728Z" transform="translate(0)" style="fill:#fff"/><path d="M90.31494,20.26782v-1.417a3.27883,3.27883,0,0,0,.53125.04492c2.09473,0,2.05078-2.53808,2.19824-9.16308h6.63965V20.26782H97.9585v-9.1333H94.69678c-.0586,6.47705-.38282,9.20752-3.42285,9.20752A5.40245,5.40245,0,0,1,90.31494,20.26782Z" transform="translate(0)" style="fill:#fff"/><path d="M102.13818,9.73267h1.71192V13.864h2.06543c1.96289,0,3.64453.84131,3.64453,3.17237,0,2.46386-1.68164,3.23144-3.64453,3.23144h-3.77735Zm3.48243,9.13379c1.26855,0,2.21289-.33985,2.21289-1.83008,0-1.37207-.94434-1.77051-2.09473-1.77051H103.8501v3.60059Z" transform="translate(0)" style="fill:#fff"/><path d="M111.3501,9.73267H113.062v9.13379h3.61524V9.73267h1.72558v9.13379h3.61524V9.73267h1.72656V20.26782H111.3501Z" transform="translate(0)" style="fill:#fff"/><path d="M126.20166,9.73267h6.06445v1.40185h-4.33789v3.02442h3.999v1.4165h-3.999v3.291h4.47071v1.40136h-6.19727Z" transform="translate(0)" style="fill:#fff"/></svg>