<svg id="Слой_1" data-name="Слой 1" xmlns="http://www.w3.org/2000/svg" viewBox="0 0 222 46"><path d="M209,2a11.01245,11.01245,0,0,1,11,11V33a11.01245,11.01245,0,0,1-11,11H13A11.01245,11.01245,0,0,1,2,33V13A11.01245,11.01245,0,0,1,13,2H209m0-2H13A13,13,0,0,0,0,13V33A13,13,0,0,0,13,46H209a13,13,0,0,0,13-13V13A13,13,0,0,0,209,0Z" style="fill:#cc982a"/><path d="M21.21045,29.52173l.93994-1.84082a3.29327,3.29327,0,0,0,1.7207.44043,2.74382,2.74382,0,0,0,2.2002-1.52051L20.23,15.99878h2.76074l4.36084,8.1416,3.84082-8.1416H33.853L28.3916,26.94067c-1.18017,2.38086-2.62012,3.28125-4.44092,3.28125A5.51338,5.51338,0,0,1,21.21045,29.52173Z" style="fill:#efde9a"/><path d="M45.252,19.51929A3.41384,3.41384,0,0,1,42.87158,22.78a3.43427,3.43427,0,0,1,2.74024,3.36084c0,2.32031-2.02,4.10059-5.14063,4.10059a8.03157,8.03157,0,0,1-6.06152-2.30079L35.75,26.241a6.46216,6.46216,0,0,0,4.66113,1.85986c1.48,0,2.74024-.7793,2.74024-2.1001,0-1.43994-1.38037-2.04052-3.20069-2.04052H38.37061v-2.04h1.56005c1.78077,0,2.88086-.72022,2.88086-2.04053,0-1.18018-1.08007-1.96045-2.64062-1.96045A5.2895,5.2895,0,0,0,36.25,19.47925l-1.32031-1.6001a7.24234,7.24234,0,0,1,5.40136-2.12061C43.23145,15.75854,45.252,17.33911,45.252,19.51929Z" style="fill:#efde9a"/><path d="M48.48975,15.99878H50.9502v5.82129h6.68164V15.99878h2.46045V30.00122H57.63184V24.10034H50.9502v5.90088H48.48975Z" style="fill:#efde9a"/><path d="M68.65039,15.89868h2.28076l6.16114,14.10254H74.4917l-1.41992-3.38086H66.4502l-1.44043,3.38086H62.48926Zm3.521,8.542L69.751,18.83911,67.3501,24.44067Z" style="fill:#efde9a"/><path d="M81.13037,18.27905H76.68945V15.99878H88.05176v2.28027H83.61084V30.00122H81.13037Z" style="fill:#efde9a"/><path d="M90.64941,15.99878h2.44043v5.041h3.22071c3.14062,0,5.26123,1.56055,5.26123,4.38086,0,2.82081-2.04053,4.58057-5.28125,4.58057H90.64941ZM96.25049,27.801c1.8208,0,2.88086-.81934,2.88086-2.4004,0-1.44042-1.06006-2.22021-2.9209-2.22021H93.08984V27.801Z" style="fill:#efde9a"/><path d="M110.14893,15.99878h10.44238V18.219h-8.00195V21.4397h3.90136c3.08008,0,5.08106,1.54052,5.08106,4.24121,0,2.80078-2.001,4.32031-5.20117,4.32031h-6.22168ZM115.83057,27.801c2.12011,0,3.28027-.5,3.28027-2.22022,0-1.36035-1.02051-2.06055-2.84082-2.06055h-3.68066V27.801Z" style="fill:#efde9a"/><path d="M123.73,23.00024a7.32173,7.32173,0,1,1,7.30078,7.24122A7.17417,7.17417,0,0,1,123.73,23.00024Zm12.0625,0a4.79781,4.79781,0,0,0-4.76172-4.98095,4.74186,4.74186,0,0,0-4.7207,4.981,4.798,4.798,0,0,0,4.76074,4.98145A4.74247,4.74247,0,0,0,135.79248,23.00024Z" style="fill:#efde9a"/><path d="M138.84814,29.94165l.24024-2.02051a2.79866,2.79866,0,0,0,.80078.12012c1.41992,0,2.74023-.90039,2.74023-9.28174V15.99878H152.231V30.00122h-2.46V18.219h-4.84082v1.26026c0,8.90283-1.6211,10.68213-4.38086,10.68213A8.1526,8.1526,0,0,1,138.84814,29.94165Z" style="fill:#efde9a"/><path d="M155.84912,15.99878h2.44043v5.041h3.2207c3.14063,0,5.26075,1.56055,5.26075,4.38086,0,2.82081-2.04,4.58057-5.28125,4.58057h-5.64063ZM161.44971,27.801c1.82031,0,2.88086-.81934,2.88086-2.4004,0-1.44042-1.06055-2.22021-2.9209-2.22021h-3.12012V27.801Z" style="fill:#efde9a"/><path d="M169.34912,15.99878h2.44043V27.801h5.501V15.99878h2.46V27.801h5.50195V15.99878h2.44043V30.00122H169.34912Z" style="fill:#efde9a"/><path d="M191.28857,15.99878h10.38184V18.199h-7.92187v3.64112H200.77v2.20019h-7.02148V27.801H201.77v2.20019H191.28857Z" style="fill:#efde9a"/></svg>