<svg id="Layer_1" data-name="Layer 1" xmlns="http://www.w3.org/2000/svg" xmlns:xlink="http://www.w3.org/1999/xlink" viewBox="0 0 427.69389 227.73029"><defs><clipPath id="clip-path" transform="translate(-83.791 -323.56519)"><rect x="-9" y="8.27557" width="614" height="614" style="fill:none"/></clipPath></defs><g style="clip-path:url(#clip-path)"><rect x="0.108" y="0.108" width="427.47789" height="227.51429" style="fill:#e3000f"/><rect x="0.108" y="0.108" width="427.47789" height="227.51429" style="fill:none;stroke:#b4b4b4;stroke-miterlimit:22.9255847930908;stroke-width:0.216000005602837px;stroke-dasharray:2.4000000953674316,2.4000000953674316"/><path d="M365.2019,463.87448h0a10.29639,10.29639,0,0,1-8.144,3.58379c-4.56039,0-7.056-4.2352-7.056-12.3823q0-14.97795,8.1431-14.98019a26.44467,26.44467,0,0,1,7.05691.7605Zm-6.73089-37.245c-16.83161,0-26.05982,10.3167-26.05982,29.10051,0,17.59259,6.51261,25.194,19.1081,25.194,7.71142,0,13.03091-2.6064,15.9627-6.8403l.8703,5.7527h13.788V429.88927C376.60309,428.15277,370.30219,426.62947,358.471,426.62947Zm-46.81082,47.45421,1.08682,5.7527h13.68228v-52.1201h-16.9404v36.1582a10.37184,10.37184,0,0,1-7.05768,3.58379c-4.67041,0-7.2763-2.71669-7.2763-7.60109v-32.1409H278.3237v36.1582a11.19351,11.19351,0,0,1-7.5986,3.58379c-4.3447,0-6.73169-2.71669-6.73169-7.60109v-32.1409H247.1618v34.4236c0,12.5932,5.4309,18.7841,16.83161,18.7841,8.25329,0,13.0289-3.04181,16.82959-7.06311,2.60809,4.67351,7.38681,7.06311,14.33191,7.06311C303.41031,480.924,307.96841,477.99037,311.66019,474.08368Zm-88.81739-57.3528h0a3.78238,3.78238,0,0,1,4.5873-.5811,2.02826,2.02826,0,0,0-.53709-.07681,2.13706,2.13706,0,1,0,2.13389,2.135,1.84626,1.84626,0,0,0-.0318-.3123,3.79209,3.79209,0,1,1-6.1523-1.1648Zm4.9011,30.00609c6.4528-10.4229,8.7035-26.9812,8.7035-26.9812l7.0705-3.26329a.45553.45553,0,0,0-.21691-.87111H235.6835c-1.1962-2.2853-5.3289-5.98279-11.4214-5.98279a17.14222,17.14222,0,0,0-9.61929,2.8208,122.86239,122.86239,0,0,0-10.15322,8.0096l-18.413,15.3875a8.17732,8.17732,0,0,1-5.5482,1.9577H157.35629c-.65368,0-.43829.5448-.32829.87019,1.6308,5.00681,5.98309,9.4646,13.60069,9.4646l-5.43969,5.54851a.43923.43923,0,0,0,.3262.764H186.186c14.9437,0,24.1274-6.49339,30.16069-15.6062.51221-.7719.99952-1.56529,1.46631-2.372a.39978.39978,0,0,1,.1409.57c-1.525,3.6987-5.3305,11.2082-12.29271,15.66661a33.29729,33.29729,0,0,1-6.52879,3.15349c-.2412.0984-.32761.3257-.21851.6551l8.36051,23.39011h4.78351l-7.66971-21.43451C209.3734,458.48407,221.29111,457.15918,227.7439,446.737Zm-17.84459,14.9035,6.52958,18.27811h4.78661l-6.8539-19.1472A41.22827,41.22827,0,0,1,209.89931,461.64047Zm-25.99881-28.6118,10.4451-8.5952c2.17559-5.9825,4.45919-12.077,6.851-17.1893,1.19822,2.7198,2.30741,5.4456,3.50731,8.38321,5.7368-4.70581,9.2489-7.5175,13.9879-8.86171-2.937-6.4173-4.9819-10.83569-5.9601-12.79419H189.5584c-1.957,4.13579-9.3583,19.4746-17.9529,40.25229h8.3781A5.46075,5.46075,0,0,0,183.9005,433.02867Zm-27.99469,46.88991H176.5766l6.9953-21.8699H163.4462C161.05321,464.57718,158.51759,471.75928,155.90581,479.91858Zm62.35769-20.59371,7.3221,20.59371h20.43331c-4.24122-12.62071-8.81041-24.4792-13.0533-35.35831C229.4306,451.86487,226.08031,455.53467,218.2635,459.32487Zm204.27791,20.51151h16.829v-52.1201h-16.829v19.11339h-15.8511V427.71628H389.749v52.1201h16.94132V460.184h15.8511Z" transform="translate(-83.791 -323.56519)" style="fill:#fff"/></g></svg>