<svg xmlns="http://www.w3.org/2000/svg" viewBox="0 0 700 387.4"><defs><style>.cls-1{fill:#fff;}</style></defs><g id="Слой_2" data-name="Слой 2"><g id="Layer_1" data-name="Layer 1"><path class="cls-1" d="M512.7,157.1c-1.43-.61-2.32,0-3.12.89a4.67,4.67,0,0,1-4.76,1.35c-2-.43-4-.76-6-1.08-1.09-.18-2.19-.26-3.47-.4-1.71,3.93-3.68,7.49-4.9,11.55-2.54,8.47-2.91,17.31-5.31,25.83l1.48.45,2.6-2.38c1.07-.95,2.16-1.88,3.22-2.84,4.07-3.72,8.11-7.49,12.22-11.17A44.39,44.39,0,0,1,509,176c1.54-1.06,3.22-.57,3.63,1.2.82,3.45,1.51,7,2,10.46a6.64,6.64,0,0,1-.66,3.53c-1.39,3-1,6.62-3.17,9.4-.44.57-.24,1.58-.46,2.35-.65,2.28-.57,4.9-2.89,6.43.13,3.25-2.51,4.95-4.16,7.15s-3.9,4-5.45,6.19c-2.07,3-4.93,4.38-8.25,5.28-3.55,1-5.42.36-7.19-2.83s-3.22-6.37-4.79-9.58c-.61-1.27-.93-2.72-2.63-3.39-.42.93-1.21,1.85-1.15,2.72a2.7,2.7,0,0,1-1.22,2.55,17.19,17.19,0,0,0-1.78,2.09c-1.36,1.6-2.52,1.47-3.44-.43-.26-.55-.34-1.18-.59-1.75-.89-2.05-1.81-4.09-2.72-6.14-1.11-2.5-2.17-5-3.33-7.48s-2.39-5.22-3.82-7.69a9.6,9.6,0,0,1-1-5c0-2.74.28-5.49.38-8.24.08-2.08.25-4.1,2.12-5.58-1.49-2.28-.56-4.54.16-6.51a144,144,0,0,1,12.6-25.81c1.83-3,4.58-5.46,6.94-8.14.94-1.06,2-2.07,3-3a4.12,4.12,0,0,1,1.68-1.22c3.08-.61,6.18-1.08,9.26-1.6l2.93,3.63a19.44,19.44,0,0,1,2.07-1.55c1.68-.89,3.41-1.34,5.26-.33.8.44,1.73.64,2.54,1.07,3.5,1.8,7.34,2.42,11.12,3.2a25.32,25.32,0,0,1,14.53,9c2.55,3,4.71,6.41,7.06,9.62,1,1.3,2.42,2.43,2.88,3.89,1,3.17,1.52,6.5,2.27,9.76.58,2.5.28,5.16,1.42,7.57a6.6,6.6,0,0,1,.16,1.51c.94,5.24.77,10.56,1.19,15.83.38,4.75,1.25,9.46,1.78,14.2.19,1.7,0,3.45,0,5.17.18,5.45.48,10.9.55,16.34,0,2.64-.4,5.27-.52,7.91s0,5.32-.2,8c-.32,4.15-.75,8.29-1.25,12.42s-1.13,8.26-1.73,12.39c-.16,1.1-.38,2.18-.59,3.27-.47,2.4-1.11,4.77-1.37,7.18-.35,3.33-2,6.17-3.16,9.19a45.85,45.85,0,0,1-4.49,9.34,13.24,13.24,0,0,0-1.87,4.47c-.77,3.58-3.54,4.46-6.46,4.82a4,4,0,0,0-3.07,1.61c-1.57,2.18-4.07,3.75-4.49,6.71a1.37,1.37,0,0,1-.49.77c-3.28,2.68-4.57,6.68-6.69,10.12q-2.81,4.58-5.48,9.24c-.64,1.11-1.09,2.34-1.68,3.5a10,10,0,0,1-1.25,2.09c-1.82,2.06-3.83,3.94-5.55,6.08-2.41,3-4.64,6.18-6.91,9.3-.9,1.23-1.63,2.59-2.6,3.75s-2.33,2.33-4.25,1.47a3.22,3.22,0,0,0-1.77-.16,5.31,5.31,0,0,1-4.22-1.41c-1.72-1.27-3.54-2.42-5.22-3.75a16.68,16.68,0,0,1-6.34-9.83,79,79,0,0,0-5.29-15.91,9.72,9.72,0,0,1-.85-3.23c-.41-7.38-.39-14.77,1.26-22a44.17,44.17,0,0,1,6.36-15.1c1.87-2.77,3.37-5.8,5.08-8.69,1.32-2.23,2.7-4.42,4.06-6.63,4.84-7.89,12.05-12.81,20.26-16.68a42.09,42.09,0,0,0,12.61-8.48,65.34,65.34,0,0,1,5.12-4.72,5.85,5.85,0,0,0,2.14-4.23,114.92,114.92,0,0,1,3.79-20.15c.9-3.43.63-6.9.64-10.37,0-1.61.37-3.23.37-4.84,0-2.91-.07-5.83-.29-8.74-.32-4.34-1-8.67-1.14-13-.11-3.16-.62-6.16-2.4-8.72a25.2,25.2,0,0,1-4.22-13.14C513.53,161.42,513,159.22,512.7,157.1Zm.59,107.8a47.67,47.67,0,0,0-4.94,4.8c-1.94,2.48-3.52,5.24-5.25,7.89-1.44,2.22-3,4.35-4.25,6.69-1.44,2.8-2.52,5.79-3.78,8.68a113.39,113.39,0,0,0-5.61,14.8c-.24.88-.39,1.79-.64,2.67a6.86,6.86,0,0,1-.83,2.26c-1.27,1.61-1.58,3.47-1.94,5.39-.5,2.68-1.42,5.3-1.72,8s-1,5.33-.37,8.54c4.52-1.4,8.76-2.7,13-4,.26-.08.45-.39.66-.61,1.47-1.56,3-3.11,4.41-4.69s2.5-3.16,1.78-5.5a6.11,6.11,0,0,1,.2-3c.62-2.67,1.84-5.31,1.93-8a64,64,0,0,1,1.82-13.92c.92-3.54,1.31-7.22,2.16-10.78,1.26-5.26,2.73-10.46,4.08-15.69C514.29,267.24,514.77,266,513.29,264.9Z"/><path class="cls-1" d="M101.26,164.43a33.13,33.13,0,0,0-6.38-19.22c-2.6-3.61-2.53-8.64-2.9-13.22a95.59,95.59,0,0,0-1.58-10.2c-.14-.67-1-1.32-1.61-1.76-7.62-5.23-7.75-12.91-5.71-20.47a110.35,110.35,0,0,1,8.14-21c7.16-14.14,17.25-26.17,28.58-37.18,3-2.88,5.73-6,8.84-8.64C135.32,27,143,22.87,151,19.15c3.58-1.67,6.85-4,10.33-5.85,4.93-2.68,9.73-5.77,14.95-7.67a18.07,18.07,0,0,1,12.06.23c4.06,1.34,8.75.78,13.16,1.07A8.42,8.42,0,0,1,206,8.2c-2.57.88-5.17,1.69-7.71,2.66a12.65,12.65,0,0,0-7.67,12.49c1,10.48,2,21,2.9,31.44.17,1.93,0,3.88,0,5.65-6.46,1.57-10.37,5.85-14.72,9.5-3.19,2.67-4.67,5.81-3.16,10,.77,2.14.24,4.11-.91,6.09-2.45,4.23-3.94,8.72-3.32,13.75a5.49,5.49,0,0,1-.53,3.37c-2.54,4-3.92,8.51-6.44,12.47a3.82,3.82,0,0,0-.77,2.25c.45,3.19-1,5.79-2.35,8.44a33,33,0,0,0-3.4,13.55c-.16,2.69-1.56,5.38-.57,8.14s1.83,5.71,3.5,8c3.37,4.67,7.48,8.8,10.87,13.46A73.47,73.47,0,0,1,178.47,181c2.37,5,4.26,10.16,6.32,15.27a6.35,6.35,0,0,1,.64,2.37c-.08,4.87,1.62,9.34,3.28,13.74,3.4,9,3.47,18.2,2,27.4a19.68,19.68,0,0,1-6,11.65,3.05,3.05,0,0,0-.83,1.21c-1.91,5.65-5.59,10-9.82,14.07-1.59,1.53-2.7,3.23-5.24,3a3,3,0,0,0-2.11,1.11c-2.31,2.73-4.51,5.57-6.74,8.37-.92,1.16-1.87,2.29-2.73,3.48-.66.91-1.82,2-1.7,2.85.36,2.64-1.52,4.13-2.37,6.16a10.46,10.46,0,0,1-7.48,6.51,4.41,4.41,0,0,0-2.06,1.26c-4,4.55-8.15,8.88-13.47,11.94a8.54,8.54,0,0,0-1.71,1.78,14,14,0,0,1-2.32,2.57c-4.82,3.2-8.35,7.74-12.5,11.65-4.6,4.33-9.58,8.21-13.54,13.29a32.69,32.69,0,0,1-10.38,9c-2.33,1.22-4.4,2.93-6.64,4.34-4.1,2.56-8.13,5.25-12.39,7.52a11.34,11.34,0,0,1-8,1.53c-5-1.11-9.22.4-13,4.12C46.8,370,43.06,372,39.51,374.44L35.67,373c-3.53,3.43-6.79,6.82-10.3,9.94-1.86,1.64-4.42,2.27-6.56,3.65s-5.46.88-7.95-.87c-2.14-1.51-4.23-3.1-6.41-4.7l.25-4.51L.77,374.66C.49,371.4.08,368.3,0,365.2a7.59,7.59,0,0,1,1-4.14c3-4.55,6.14-9,9.42-13.37,7.49-9.93,16.3-18.64,25.35-27.12a23.17,23.17,0,0,0,2.46-3.09c6.18-8.16,11.86-16.76,18.63-24.39C68,280.48,79.91,268.49,91.5,256.24c5.26-5.56,8.76-12.34,13-18.62,8.25-12.21,13.05-25.84,17-39.93,2.91-10.51.58-20.17-3.73-29.67-.83-1.83-2.16-2.42-4-1.2-.83.54-1.69,1.05-2.55,1.55-1.69,1-3.77.73-4.36-.78C105.78,165,103.48,165.29,101.26,164.43Z"/><path class="cls-1" d="M252.58,169.35a49.79,49.79,0,0,0,3-4.5c3.14-6.07,8.26-10.11,14-13.42a44.35,44.35,0,0,1,9.54-4.05,21.25,21.25,0,0,1,7-.41,32.83,32.83,0,0,1,5.68,1c1.48.33,2.93.8,4.38,1.26a22.82,22.82,0,0,0,2.87,1,20.3,20.3,0,0,1,10.89,5c1.25,1.16,2.81,2,3.16,3.94a3.45,3.45,0,0,0,.93,1.56c2.36,2.47,2.95,5.62,2.95,8.76a46.47,46.47,0,0,1-1.11,8.74,67,67,0,0,0-.61,20.39,69.13,69.13,0,0,1,.05,7.62c0,4.29-.14,8.59.14,12.87.23,3.64.93,7.25,1.48,10.86.33,2.2.68,2.38,2.82,1.78,1.33-.37,2.68-.69,4.31-1.11a7.78,7.78,0,0,0,2.82,6.14c1.33,1.16.76,2.86.57,4.36s-.53,2.77-.68,4.17c-.27,2.33-1.15,3.19-3.49,3.27-7.49.27-13.35-3-18.33-8.32-2.09-2.22-4.5-4.16-6.41-6.51a33,33,0,0,1-7.31-17.22c-.15-1.31-.62-2.58-.81-3.88-.58-4.11-1.53-8.17-.94-12.39.22-1.5.08-3.05-1.49-4.05a4.21,4.21,0,0,1-1.32-1.65,29.47,29.47,0,0,1-3.05-18.13c.54-3.26.76-6.58,1.17-10.27a8.24,8.24,0,0,0-2.18.88c-1.84,1.55-3.95,2.7-5.4,4.86-1.56,2.33-3.86,4.15-5.81,6.23a10,10,0,0,0-1.15,1.7c-.21.35-.23,1-.5,1.08-1.91.87-2.22,2.75-3.18,4.3-1.25,2-2.69,3.8-3.48,6.16-.56,1.67-2,3.08-3.12,4.5a14,14,0,0,0-3.48,8.14,11.17,11.17,0,0,1-2.34,6.06,9.82,9.82,0,0,0-2,5.91c-.24,3,0,6.1.06,9.15.08,5.1.6,10.22-.53,15.28-.08.39-.2,1,0,1.18,1.51,1.82.59,3.68.21,5.54a29.49,29.49,0,0,1-1.15,5.06c-1,2.4-3,4.66-5.83,2.6-2.62-1.91-5.07-4.08-7.79-5.84-3.45-2.25-5-5.74-6.8-9.16a19.2,19.2,0,0,0-7.3-7.6,8.23,8.23,0,0,1-4-6.55,23.66,23.66,0,0,1,0-6.12c.56-3.52-.22-7.08.89-10.62.64-2-.23-4.46-.17-6.7.1-4.28.36-8.57.58-12.85.09-1.81.41-3.62.32-5.42-.15-3,.43-5.95.12-9-.19-1.88.33-3.83.43-5.75.06-1.21-.16-2.44-.07-3.64a78.19,78.19,0,0,1,.89-9.08,30.31,30.31,0,0,0-.46-12.15,57.84,57.84,0,0,1-1.1-8.49c-.39-6.62-.69-13.25-.86-19.88-.07-2.73.29-5.47.45-8.2a5,5,0,0,0,.05-1.21c-1.21-5.71-.23-11.31.82-16.9.53-2.79,1-5.61,1.72-8.35,1.16-4.32,2.37-8.64,3.84-12.87,1.16-3.36,2.73-6.58,4.13-9.86a9.42,9.42,0,0,1,.8-1.66c.8-1.17,1.45-2.85,2.57-3.29,1.46-.57,3.31-.18,5-.13.37,0,1,.34,1,.52,0,2.49,2.29,2.22,3.63,2.81a11.56,11.56,0,0,1,4.76,4.63,26.17,26.17,0,0,1,3.36,7.83c.35,1.36-.41,3.22-1.16,4.59-1,1.87-1.52,3.46-.18,5.38a3.39,3.39,0,0,1,.22,2.31c-.54,2.92-1.05,5.74.2,8.68a14,14,0,0,1,.69,4.82c.17,4,.21,8.09.3,12.13.08,3.57.31,7.15.2,10.72-.11,4-.57,7.91-.81,11.88-.11,1.71,0,3.44-.07,5.15-.1,2.32-.4,4.63-.4,6.94,0,5.92,0,11.85.23,17.77.12,3.14.69,6.26,1.06,9.4Z"/><path class="cls-1" d="M689.72,184.41c1.89-.39,2.49,1,2.84,2.75.72,3.67,2.9,6.69,4.5,10a18.63,18.63,0,0,1,.7,3.14,12.71,12.71,0,0,1,.74,3.71l-4.36,7.18c-4.94,1.87-9.67.26-14.19-3-3-2.18-6-4.25-8.08-7.41a28.9,28.9,0,0,1-4-9.12,26.64,26.64,0,0,0-2.23-6c-3.65-6.83-6.39-13.94-7.19-21.69-.53-5-3-9.5-4.28-14.31-1-3.73-2.37-7.36-3.42-11.08a42.44,42.44,0,0,1-1.84-8.32,116.66,116.66,0,0,1-.55-15.2,81.08,81.08,0,0,1,2.31-15.67c.53-2,.48-4.23.88-6.32.91-4.77,1.93-9.52,2.89-14.27a3.63,3.63,0,0,0,.13-1.21c-1.49-8.84-1-17.71-.14-26.53.41-4.19,1.14-8.45,3.23-12.32a15.57,15.57,0,0,0,1-4.1c1.17-5.25,2-10.59,3.6-15.71A75.4,75.4,0,0,1,667.68,5.9c1.67-3.17,5-4.52,8.83-5.9-.64,1.6-1.09,2.74-1.67,4.18l2.73-.58a3.93,3.93,0,0,1,.58.85A2.47,2.47,0,0,0,681,6.28c3.24-.21,5.9,1.31,8.42,3.09a4.41,4.41,0,0,1,1.23,1.69c1.08,2.18,2,4.45,3.16,6.59.56,1,1.81,1.73,2.26,2.78C698.68,26.67,700.65,33,699.8,40c-.53,4.4-.23,8.91-.4,13.37-.06,1.51-.45,3-.61,4.52-.21,1.9-.32,3.81-.52,5.71A56.23,56.23,0,0,1,697.5,70c-.92,4.14-.33,8.35-.82,12.48a155.82,155.82,0,0,1-2.79,17.78c-.7,3-3,5.52-4.41,8.37-2.39,4.93-7,7.65-10.84,11.08-1,.94-2.41,1.55-3.34,2.57a3.75,3.75,0,0,0-.93,2.7c.83,5.42.35,11,2.37,16.3.61,1.59.61,3.41,1,5.09.9,3.55,1.68,7.16,2.9,10.6,2.3,6.52,5,12.9,7.28,19.41A65.38,65.38,0,0,1,689.72,184.41ZM674.78,11.17l-.8.19a4.47,4.47,0,0,0-.28,1.4c.42,3.62-.51,7-1.26,10.54a27.83,27.83,0,0,0-.4,5.78c0,1.72.36,3.44.39,5.15.06,3.15.45,6.39-.14,9.43-.64,3.23-.38,6.4-.58,9.6s-.64,6.47-.91,9.7a67.35,67.35,0,0,0-.55,8.49c.18,4.69.72,9.36,1.11,14l.83.1a108.71,108.71,0,0,0,3.83-11c.75-2.59.25-5.56,2-7.46a25,25,0,0,1-.13-4.06c.4-3.21,1.63-6.25,1.88-9.53.35-4.57,1.36-9.11,1.46-13.67s1.44-9.14-.58-13.58c1.31-2.31-.46-4.07-1.23-5.89C678.09,17.23,676.35,14.24,674.78,11.17Z"/><path class="cls-1" d="M423.87,209.06c3.35.67,6.43-.42,9.52-1.42.48-.16.89-.53,1.38-.66,1.09-.3,2,.39,1.56,1.44-1,2.53.26,4.54,1.2,6.68a29.17,29.17,0,0,1,1.05,3.17c-1.63,1.9-3.05,3.58-4.5,5.24-.33.38-.71,1-1.1,1-3.69.27-7.39,2-11.09,0-.63-.32-1.28-.59-1.9-.93a41.73,41.73,0,0,1-13.14-11.12c-1.13-1.46-2-1.29-3.1.24a26.72,26.72,0,0,1-7.37,6.72,54.58,54.58,0,0,0-5.47,4.29,1.62,1.62,0,0,0-.46,1.08c-.15,4.69-3.48,6.64-7.13,8.25-3.21,1.42-6.6.76-9.46-.54-6.28-2.83-12.41-5.94-17.53-10.86-3.29-3.17-6.17-6.4-8-10.61-.89-2-2.56-3.67-3.77-5.56a25.35,25.35,0,0,1-3.84-17.55c.52-3.94.63-8,1.55-11.81a23.61,23.61,0,0,1,5.91-10.94,102.9,102.9,0,0,1,10.21-9.72,62.08,62.08,0,0,1,10.24-6.13c3.08-1.59,6.32-1,9.53,0a7.29,7.29,0,0,0,3.8.31c4-1,7.77-3.13,12.13-2.64.41.05.85-.5,1.31-.69,2.72-1.14,5.36-2.63,8.2-3.25a15.57,15.57,0,0,1,6.94.37c3.72,1,7.32,2.44,10.95,3.74.66.23,1.54.48,1.83,1,1.17,2.11,3.18,2.17,5.17,2.7a13,13,0,0,1,7.3,4.74c1.19,1.6.4,3.3-.24,4.9-.7,1.77-1.35,3.58-2.19,5.28a52.31,52.31,0,0,1-2.77,4.74,25,25,0,0,0-3.35,8.5c-.86,4.4-1.61,8.81-2.44,13.21a8.74,8.74,0,0,1-.78,2.94c-2.27,3.6-2.05,7.33-.9,11.17C423.35,207.26,423.6,208.13,423.87,209.06Zm-24.48-43.69a33.43,33.43,0,0,0-9.9,1.59,4.05,4.05,0,0,0-3,3c-.64,1.86-1.41,3.51-.67,5.51a2,2,0,0,1-.35,1.45,37.73,37.73,0,0,1-3.29,5.11c-2.84,3.32-6.1,6.31-8.79,9.75-2.14,2.77-4.36,5.88-4.27,9.52.08,3.14,0,6.44,1.66,9.42,1.14,2.06,3,3.57,5.33,3.22,3.24-.48,6,0,8.42,2.36a2.17,2.17,0,0,0,3.25.06A60.28,60.28,0,0,0,398.42,205a5.29,5.29,0,0,0,.92-4.55c-.52-2.48-.69-5-1-7.56-.17-1.41-.18-2.86-.44-4.25a34.69,34.69,0,0,1,1.11-16.9A16.37,16.37,0,0,0,399.39,165.37Zm-35.32,26.34c-3.2,3.27-4.94,6.52-2.76,11C362.25,199,363.12,195.53,364.07,191.71Z"/><path class="cls-1" d="M602.62,117.58l3.52,3.08c3.56-1.62,5.48-1.08,7,2.06a4.29,4.29,0,0,1,.34,2.32,4.61,4.61,0,0,0,2.41,5.17,7.15,7.15,0,0,1,3.56,4.73,17.63,17.63,0,0,0,.89,2.28,16.72,16.72,0,0,1,1.62,6.42,12.38,12.38,0,0,0,1.47,4.92c1.53,3.12,3.33,6.1,5,9.17s3.44,6.21,4.83,9.45c2.25,5.23,4.3,10.54,6.28,15.87a42.24,42.24,0,0,1,2.36,10.18c.39,3.49,1.48,6.91,2.21,10.37.13.63.27,1.54-.06,1.92-.7.79-1.44.18-2.1-.39a22.06,22.06,0,0,0-2.42-1.88c-1.69-1.09-2.15-.89-2.77,1-.12.36-.22.74-.42,1.38-3.43-.87-6.9-1.21-9.84-3.2-4.47-3-8.3-6.67-10.38-11.77-.64-1.57-1.61-1.81-3.09-1.73-3.13.18-6.28.09-9.4.32-4.87.37-9.75.8-14.6,1.43-2.66.34-4.24,2.11-5.08,4.72-.68,2.11-1.73,4.11-2.61,6.14-1-.41-1.93-1.11-2.55-.92a3.8,3.8,0,0,0-1.88,1.87,51.29,51.29,0,0,0-2.21,5c-.49,1.24-.79,2.68-2.45,2.78-1.46.09-2.06-1-2.66-2.17A24,24,0,0,0,568.1,206a45.63,45.63,0,0,1-2.51,4.25c-1.19,1.57-2.19,1.54-3.4.06-1.42-1.74-2.72-3.48-2.75-5.94,0-3.44-.22-6.89-.58-10.31-.42-4,1.52-7.35,2.46-11a72.28,72.28,0,0,1,2.65-7.48,39.22,39.22,0,0,1,1.76-3.91c2.91-5.69,5.86-11.35,8.79-17,.66-1.26,1.38-2.48,2-3.76,3-6.23,5.64-12.66,9.05-18.66,3-5.32,7-10,13-12.35A31.5,31.5,0,0,0,602.62,117.58Zm-1.17,38.56c-2.82,5-6.1,9.13-7.8,14.24a3.94,3.94,0,0,0,3.89.84,35.69,35.69,0,0,1,6.57-1.43,13.94,13.94,0,0,0,4.78-1.19C608.55,163.21,604.67,160.2,601.45,156.14Z"/></g></g></svg>