<?xml version="1.0" encoding="UTF-8"?>
<svg width="472px" height="62px" viewBox="0 0 472 62" version="1.1" xmlns="http://www.w3.org/2000/svg" xmlns:xlink="http://www.w3.org/1999/xlink">
    <!-- Generator: Sketch 51.3 (57544) - http://www.bohemiancoding.com/sketch -->
    <title>Estee_Lauder</title>
    <desc>Created with Sketch.</desc>
    <defs></defs>
    <g id="Page-1" stroke="none" stroke-width="1" fill="none" fill-rule="evenodd">
        <g id="Estee_Lauder" fill="#1A1919">
            <path d="M86.3307873,12.1146687 L86.3307873,60.6553962 L92.8196614,60.6553962 L92.8196614,12.1146687 L108.716394,12.1146687 L108.716394,8.97284836 L70.3634138,8.97284836 L70.3634138,12.1146687 L86.3307873,12.1146687 Z M115.34655,2.99094945 L144.35979,2.99094945 L144.35979,0 L115.34655,0 L115.34655,2.99094945 Z M115.558473,60.6553962 L144.715517,60.6553962 L144.715517,57.3653518 L122.047347,57.3653518 L122.047347,34.1788764 L142.64927,34.1788764 L142.64927,31.111168 L122.047347,31.111168 L122.047347,12.1146687 L144.35979,12.1146687 L144.35979,8.97284836 L115.558473,8.97284836 L115.558473,60.6553962 Z M153.911453,60.6553962 L183.212302,60.6553962 L183.212302,57.3653518 L160.470968,57.3653518 L160.470968,34.1788764 L181.143532,34.1788764 L181.143532,31.111168 L160.470968,31.111168 L160.470968,12.1146687 L182.854052,12.1146687 L182.854052,8.97284836 L153.911453,8.97284836 L153.911453,60.6553962 Z M0,60.6553962 L29.2302084,60.6553962 L29.2302084,57.3653518 L6.48887416,57.3653518 L6.48887416,34.1788764 L27.0907973,34.1788764 L27.0907973,31.111168 L6.48887416,31.111168 L6.48887416,12.1146687 L28.9451218,12.1146687 L28.9451218,8.97284836 L0,8.97284836 L0,60.6553962 Z M395.079594,60.6553962 L424.30728,60.6553962 L424.30728,57.3653518 L401.639109,57.3653518 L401.639109,34.1788764 L422.241032,34.1788764 L422.241032,31.111168 L401.639109,31.111168 L401.639109,12.0405567 L423.951552,12.0405567 L423.951552,8.97284836 L395.079594,8.97284836 L395.079594,60.6553962 Z M212.296183,60.6553962 L241.241305,60.6553962 L241.241305,57.2885929 L218.714416,57.2885929 L218.714416,8.97284836 L212.296183,8.97284836 L212.296183,60.6553962 Z M35.4314731,58.4108607 C39.6371314,60.8036202 44.7712134,62 49.6883268,62 C59.9539679,62 69.2230673,55.7931182 69.2230673,45.3221482 C69.2230673,27.6728996 41.1332054,33.6547985 41.1332054,20.0420082 C41.1332054,15.0315061 45.6264732,10.619194 52.3979111,10.619194 C59.3131538,10.619194 63.8038987,14.3592042 65.6582232,15.928791 L65.6582232,11.2173839 C63.0899207,9.87278005 58.1728073,7.77646858 52.1128245,7.77646858 C43.4164212,7.77646858 35.4314731,13.1628245 35.4314731,21.8365779 C35.4314731,40.3116462 63.3043664,33.6547985 63.3043664,47.4925717 C63.3043664,53.1753757 58.2434482,58.8581796 49.6883268,58.8581796 C43.0581708,58.8581796 37.8559708,55.2690403 35.4314731,53.6994536 L35.4314731,58.4108607 Z M243.592639,60.6553962 L264.409008,8.45141735 L269.54309,8.45141735 L277.66932,28.5701844 L290.785827,60.6553962 L283.371052,60.6553962 L275.673713,40.9098361 L255.712604,40.9098361 L248.083384,60.6553962 L243.592639,60.6553962 Z M274.533367,37.8421277 C272.320792,32.3075478 268.899753,23.6337944 265.693159,14.9573941 C262.34276,23.9328893 257.993297,35.3011441 256.923592,37.8421277 L274.533367,37.8421277 Z M294.206866,43.5275786 C294.206866,55.1208163 300.69574,61.7776639 313.95353,61.7776639 C328.069102,61.7776639 333.629552,53.1753757 333.629552,43.9007855 L333.629552,8.97284836 L329.779621,8.97284836 L329.779621,43.9007855 C329.779621,53.4003586 323.722161,58.8581796 314.667508,58.8581796 C306.682559,58.8581796 300.622577,54.5226264 300.622577,44.7980704 L300.622577,8.97284836 L294.206866,8.97284836 L294.206866,43.5275786 Z M433.576379,8.97284836 L451.398077,8.97284836 C460.737817,8.7505123 468.50832,12.6387466 468.50832,22.2124317 C468.50832,31.7093579 458.169515,34.7029542 455.959463,35.1502732 L472,60.6553962 L464.72903,60.6553962 L449.616916,35.973446 L440.133371,35.973446 L440.133371,60.6553962 L433.576379,60.6553962 L433.576379,8.97284836 Z M447.833233,33.0566086 C455.959463,33.2048327 462.16325,29.9147883 462.16325,22.2124317 C462.16325,15.40736 458.242679,11.7414617 450.971708,11.8155738 L440.133371,11.8155738 L440.133371,33.0566086 L447.833233,33.0566086 Z M343.395661,60.6553962 L343.395661,8.97284836 L362.287064,8.97284836 C377.971874,8.67375342 387.097169,18.0251025 387.097169,34.1788764 C387.097169,53.4003586 374.550835,60.8803791 359.791926,60.6553962 L343.395661,60.6553962 Z M349.955176,57.5876878 L358.580938,57.5876878 C371.982532,57.8126708 380.467013,51.679901 380.467013,35.0020492 C380.467013,19.5946892 373.478606,11.7414617 361.431804,11.9664447 L349.955176,11.9664447 L349.955176,57.5876878 Z" id="Fill-2"></path>
        </g>
    </g>
</svg>