<svg xmlns="http://www.w3.org/2000/svg" width="364.69" height="72.088" viewBox="0 0 364.69 72.088"><g transform="translate(0 0)"><path d="M72.691,0H85.448V70.67H72.691V65.2A23.326,23.326,0,0,1,65.2,70.265a21.405,21.405,0,0,1-8.1,1.62A22.348,22.348,0,0,1,40.09,64.19,26.614,26.614,0,0,1,32.8,45.156c0-7.9,2.227-14.377,6.885-19.439a22.153,22.153,0,0,1,17.009-7.492A21.665,21.665,0,0,1,65.4,20.047a22.991,22.991,0,0,1,7.492,5.265V0ZM59.124,30.171A12.868,12.868,0,0,0,49.2,34.424a15.2,15.2,0,0,0-3.847,10.732A15.5,15.5,0,0,0,49.4,56.091a12.868,12.868,0,0,0,9.922,4.252,12.868,12.868,0,0,0,9.922-4.252A15.5,15.5,0,0,0,73.3,45.156a14.669,14.669,0,0,0-4.05-10.732,13.3,13.3,0,0,0-10.125-4.252" transform="translate(33.618)" fill="#c1321a"/><path d="M74.2,10.315H86.957V15.58a30.041,30.041,0,0,1,7.9-5.062,18.676,18.676,0,0,1,7.29-1.417,18.218,18.218,0,0,1,12.96,5.265c3.037,3.037,4.455,7.492,4.455,13.365V61.343H106.8V39.069c0-6.075-.2-10.125-.81-12.15a9.1,9.1,0,0,0-2.835-4.657,8.4,8.4,0,0,0-5.062-1.62,9,9,0,0,0-6.682,2.632,13.322,13.322,0,0,0-3.847,7.29q-.607,2.43-.607,10.327V61.343H74.2V10.315Z" transform="translate(76.05 9.327)" fill="#c1321a"/><path d="M139.191,0h12.757V70.67H139.191V65.2a23.326,23.326,0,0,1-7.492,5.062,21.405,21.405,0,0,1-8.1,1.62A22.348,22.348,0,0,1,106.59,64.19,26.614,26.614,0,0,1,99.3,45.156c0-7.9,2.227-14.377,6.885-19.439a22.153,22.153,0,0,1,17.009-7.492,21.665,21.665,0,0,1,8.707,1.822,22.991,22.991,0,0,1,7.492,5.265V0ZM125.827,30.171a12.868,12.868,0,0,0-9.922,4.252,15.2,15.2,0,0,0-3.847,10.732,15.5,15.5,0,0,0,4.05,10.935,13.7,13.7,0,0,0,19.844,0A15.5,15.5,0,0,0,140,45.156a14.669,14.669,0,0,0-4.05-10.732,13.3,13.3,0,0,0-10.125-4.252" transform="translate(101.776)" fill="#c1321a"/><path d="M181.858,39.474H140.752a13.936,13.936,0,0,0,4.86,8.707c2.632,2.227,5.872,3.24,9.922,3.24a16.654,16.654,0,0,0,12.352-5.062l10.732,5.062a24.347,24.347,0,0,1-9.72,8.5,30.9,30.9,0,0,1-13.365,2.835c-8.1,0-14.579-2.43-19.642-7.492S128.4,43.929,128.4,36.234s2.43-14.175,7.492-19.439A25.658,25.658,0,0,1,154.724,9.1c8.1,0,14.579,2.632,19.642,7.695s7.492,11.947,7.492,20.452ZM169.1,29.552a12.153,12.153,0,0,0-5.062-6.885,14.3,14.3,0,0,0-8.707-2.632,14.7,14.7,0,0,0-9.315,3.037c-1.62,1.215-3.24,3.442-4.657,6.682H169.1Z" transform="translate(131.601 9.327)" fill="#c1321a"/><path d="M155.422,9.7H170.2l10.125,13.972L190.251,9.7h14.579L187.619,33.8l19.642,26.932H192.276l-12.15-16.6-11.947,16.6H153.6L172.837,34Z" transform="translate(157.429 9.942)" fill="#c1321a"/><path d="M26.527.9H39.891L66.418,69.95H52.851L47.383,55.776H19.237L13.567,69.95H0Zm6.885,18.224L24.1,42.816H42.524Z" transform="translate(0 0.922)" fill="#c1321a"/><path d="M63.3,0V11.745H76.057L63.3,18.427V70.67H76.26V0Z" transform="translate(64.878)" fill="#c1321a"/></g></svg>