<?xml version="1.0" encoding="UTF-8"?> <svg xmlns="http://www.w3.org/2000/svg" width="345" height="218" viewBox="0 0 345 218" fill="none"> <path fill-rule="evenodd" clip-rule="evenodd" d="M73.1501 123.379C68.138 120.596 64.2397 116.885 61.2696 112.06C58.4851 107.236 57 101.854 57 95.7309C57 89.6074 58.4851 84.2261 61.2696 79.4016C64.0541 74.577 68.138 70.8658 73.1501 68.0823C78.1622 65.2989 83.9169 64 90.0428 64C95.2405 64 100.067 64.9278 104.337 66.7834C108.606 68.639 112.133 71.2369 115.103 74.7625L106.007 83.1128C101.923 78.2882 96.7256 76.0615 90.5997 76.0615C86.887 76.0615 83.5456 76.8037 80.5755 78.4738C77.6053 80.1438 75.3777 82.3705 73.707 85.3395C72.0363 88.3085 71.2938 91.6486 71.2938 95.3598C71.2938 99.071 72.0363 102.411 73.707 105.38C75.3777 108.349 77.6053 110.576 80.5755 112.246C83.5456 113.916 86.887 114.658 90.5997 114.658C96.7256 114.658 101.738 112.246 106.007 107.421L115.103 115.771C112.133 119.297 108.606 122.081 104.337 123.936C100.067 125.792 95.2405 126.72 90.0428 126.72C83.7312 127.462 78.1622 126.163 73.1501 123.379ZM163.554 113.359H135.337L129.954 126.348H115.475L142.577 65.2989H156.5L183.788 126.348H168.937L163.554 113.359ZM159.098 102.597L149.446 79.216L139.793 102.597H159.098ZM199.752 76.9893V126.534H213.86V76.9893H233.352V65.4845H180.261V76.9893H199.752V76.9893ZM246.532 125.606C242.077 124.307 238.364 122.637 235.765 120.596L240.592 110.019C243.19 111.875 246.346 113.545 249.873 114.658C253.4 115.771 257.113 116.328 260.64 116.328C264.724 116.328 267.694 115.771 269.55 114.473C271.407 113.359 272.521 111.689 272.521 109.648C272.521 108.163 271.964 107.05 270.85 106.122C269.736 105.195 268.251 104.452 266.58 103.896C264.724 103.339 262.496 102.597 259.341 102.04C254.7 100.927 250.801 99.8133 248.017 98.6999C245.047 97.5865 242.448 95.9165 240.406 93.3186C238.364 90.9063 237.25 87.5662 237.25 83.4839C237.25 79.9582 238.178 76.8037 240.035 73.8347C241.891 71.0513 244.861 68.639 248.76 66.969C252.658 65.2989 257.299 64.3711 262.868 64.3711C266.766 64.3711 270.479 64.9278 274.191 65.8556C277.904 66.7834 281.245 68.0823 284.03 69.938L279.76 80.7005C274.191 77.5459 268.437 75.8759 262.868 75.8759C258.969 75.8759 255.999 76.4326 254.143 77.7315C252.287 79.0304 251.358 80.7005 251.358 82.7416C251.358 84.7828 252.472 86.4529 254.7 87.3807C256.927 88.3085 260.269 89.4218 264.724 90.3497C269.365 91.463 273.263 92.5764 276.233 93.6897C279.203 94.8031 281.802 96.4732 283.844 98.8855C285.886 101.298 287 104.452 287 108.535C287 112.06 286.072 115.215 284.03 117.998C282.174 120.782 279.203 123.194 275.305 124.864C271.407 126.534 266.766 127.462 261.011 127.462C255.628 127.462 250.987 126.905 246.532 125.606Z" fill="white"></path> <path d="M71.4794 144.164H73.707V153.813H71.4794V144.164Z" fill="white"></path> <path d="M88.372 144.164V153.813H86.5156L81.6892 148.061V153.813H79.4615V144.164H81.3179L86.1444 149.916V144.164H88.372Z" fill="white"></path> <path d="M93.7555 147.875H97.6538V149.545H93.7555V147.875Z" fill="white"></path> <path d="M103.037 144.164H105.265V153.813H103.037V144.164Z" fill="white"></path> <path d="M119.744 153.63V147.877L116.96 152.702H116.031L113.247 148.063V153.63H111.205V143.98H113.061L116.588 149.918L120.115 143.98H121.972V153.63H119.744Z" fill="white"></path> <path d="M133.852 151.588H129.397L128.469 153.63H126.241L130.511 143.98H132.739L137.008 153.63H134.595L133.852 151.588ZM133.295 149.918L131.81 146.207L130.325 149.918H133.295Z" fill="white"></path> <path d="M147.96 148.805H150.002V152.702C149.446 153.073 148.889 153.444 148.146 153.63C147.404 153.815 146.847 154.001 146.104 154.001C145.176 154.001 144.248 153.815 143.505 153.444C142.763 153.073 142.02 152.516 141.649 151.588C141.278 150.846 140.906 149.918 140.906 148.991C140.906 148.063 141.092 147.135 141.649 146.393C142.02 145.651 142.763 145.094 143.505 144.537C144.248 144.166 145.176 143.98 146.29 143.98C147.218 143.98 147.96 144.166 148.517 144.352C149.26 144.723 149.817 145.094 150.188 145.651L148.703 146.949C147.96 146.207 147.218 145.836 146.29 145.836C145.733 145.836 145.176 146.022 144.619 146.207C144.062 146.393 143.691 146.764 143.505 147.321C143.32 147.877 143.134 148.248 143.134 148.991C143.134 149.547 143.32 150.104 143.505 150.661C143.691 151.217 144.062 151.403 144.619 151.774C145.176 151.96 145.547 152.145 146.29 152.145C146.847 152.145 147.589 151.96 147.96 151.774V148.805V148.805Z" fill="white"></path> <path d="M162.997 151.958V153.813H155.571V144.164H162.811V146.02H157.799V148.061H162.254V149.731H157.799V151.958H162.997Z" fill="white"></path> <path d="M184.344 144.164V153.813H182.488L177.662 148.061V153.813H175.434V144.164H177.29L182.117 149.916V144.164H184.344Z" fill="white"></path> <path d="M197.525 151.958V153.813H190.099V144.164H197.339V146.02H192.327V148.061H196.782V149.731H192.327V151.958H197.525Z" fill="white"></path> <path d="M204.764 145.836H201.609V143.98H209.962V145.836H206.806V153.63H204.579V145.836H204.764Z" fill="white"></path> <path d="M228.897 144.164L225.741 153.813H223.328L221.286 147.319L219.058 153.813H216.645L213.489 144.164H215.717L217.944 150.844L220.172 144.164H222.214L224.442 151.03L226.669 144.164H228.897Z" fill="white"></path> <path d="M235.579 153.257C234.837 152.885 234.094 152.329 233.723 151.401C233.352 150.659 232.981 149.731 232.981 148.803C232.981 147.875 233.166 146.947 233.723 146.205C234.094 145.463 234.837 144.906 235.579 144.35C236.322 143.979 237.25 143.793 238.364 143.793C239.478 143.793 240.22 143.979 240.963 144.35C241.705 144.721 242.448 145.277 242.819 146.205C243.19 146.947 243.562 147.875 243.562 148.803C243.562 149.731 243.376 150.659 242.819 151.401C242.448 152.143 241.705 152.7 240.963 153.257C240.22 153.628 239.292 153.813 238.364 153.813C237.436 153.813 236.322 153.628 235.579 153.257ZM239.849 151.587C240.22 151.401 240.592 151.03 240.963 150.473C241.334 149.916 241.334 149.545 241.334 148.803C241.334 148.061 241.148 147.69 240.963 147.133C240.777 146.576 240.406 146.391 239.849 146.02C239.478 145.834 238.921 145.649 238.364 145.649C237.807 145.649 237.25 145.834 236.879 146.02C236.508 146.205 236.136 146.576 235.765 147.133C235.579 147.69 235.394 148.061 235.394 148.803C235.394 149.545 235.579 149.916 235.765 150.473C235.951 151.03 236.322 151.215 236.879 151.587C237.25 151.772 237.807 151.958 238.364 151.958C238.921 151.958 239.292 151.772 239.849 151.587Z" fill="white"></path> <path d="M254.7 153.63L252.843 151.032H250.987V153.63H248.759V143.98H252.843C253.771 143.98 254.514 144.166 255.071 144.352C255.628 144.537 256.185 145.094 256.556 145.465C256.927 145.836 257.113 146.578 257.113 147.321C257.113 148.063 256.927 148.619 256.556 149.176C256.185 149.733 255.813 150.104 255.071 150.29L257.299 153.444H254.7V153.63ZM254.143 146.393C253.771 146.022 253.215 146.022 252.658 146.022H250.801V149.362H252.658C253.4 149.362 253.771 149.176 254.143 148.991C254.514 148.619 254.7 148.248 254.7 147.692C254.7 146.949 254.514 146.578 254.143 146.393Z" fill="white"></path> <path d="M265.652 149.918L264.353 151.217V153.63H262.125V143.98H264.353V148.434L268.622 143.98H271.035L267.137 148.248L271.407 153.63H268.808L265.652 149.918Z" fill="white"></path> </svg> 