<?xml version="1.0" encoding="UTF-8"?> <svg xmlns="http://www.w3.org/2000/svg" width="135" height="42" viewBox="0 0 135 42" fill="none"> <path fill-rule="evenodd" clip-rule="evenodd" d="M7.29818 32.8801C8.18572 32.8964 9.04882 32.5475 9.65137 31.9066C10.2783 31.2657 10.5878 30.2029 10.5878 28.7345C10.5878 26.0005 9.43152 24.6294 7.12719 24.6294C6.06052 24.6294 5.2137 24.9783 4.62744 25.6922C4.04118 26.3899 3.72363 27.3472 3.72363 28.5155C3.72363 29.8378 4.04118 30.8844 4.68444 31.6713C5.3277 32.4988 6.1908 32.8801 7.29818 32.8801ZM2.14398 39.0783C2.43711 38.4374 2.9338 38.2183 3.61777 38.4374C4.53788 38.7862 5.51498 38.9647 6.49208 38.9647C7.67274 38.9647 8.6417 38.6889 9.38266 38.1372C10.1155 37.5855 10.5063 36.7094 10.5063 35.533V34.4783L10.5633 33.7644H10.5063C9.70022 35.176 8.38928 35.8737 6.62236 35.8737C4.6193 35.8737 3.0478 35.1923 1.89157 33.8212C0.73533 32.4502 0.181641 30.7384 0.181641 28.6858C0.181641 26.6495 0.73533 24.9621 1.859 23.6397C2.98266 22.3173 4.54602 21.6602 6.58979 21.6602C7.15976 21.6602 7.72974 21.7332 8.28343 21.8792C8.72312 21.9928 9.13025 22.1713 9.51294 22.4309C9.78979 22.6175 10.0259 22.8365 10.2702 23.0718C10.433 23.234 10.5878 23.4206 10.6936 23.6235L10.8076 23.8425H10.8809C10.8646 23.7127 10.8402 23.6072 10.8646 23.4774V22.942C10.8646 22.6824 10.9542 22.4309 11.1577 22.2605C11.3939 22.0739 11.6951 21.9847 12.0045 22.0009H12.9409C13.6982 22.0009 14.0809 22.3903 14.0809 23.1772V35.314C14.0809 37.5531 13.3481 39.2162 11.8906 40.3358C10.433 41.4391 8.70684 42.007 6.72007 41.9827C5.11599 41.9827 3.73991 41.7231 2.58368 41.2282C1.88342 40.9361 1.67986 40.4412 1.97299 39.7273L2.14398 39.0783Z" fill="#3361B4"></path> <path fill-rule="evenodd" clip-rule="evenodd" d="M17.0938 31.0881V23.1457C17.0938 22.375 17.4846 21.9693 18.2744 21.9693H19.4714C20.2449 21.9693 20.652 22.3588 20.652 23.1457V30.3742C20.652 31.3072 20.8149 32.0455 21.1324 32.5241C21.45 33.0028 22.0362 33.2543 22.8423 33.2543C24.0719 33.2543 25.0327 32.7918 25.7492 31.8589C26.4658 30.9421 26.8159 29.8063 26.8159 28.4677V23.1295C26.8159 22.3588 27.1986 21.9531 27.9965 21.9531H29.1935C29.967 21.9531 30.3741 22.3344 30.3741 23.1295V34.958C30.3741 35.7287 29.9833 36.1343 29.1935 36.1343H28.1105C27.3533 36.1343 26.9706 35.753 26.9706 34.958V34.1304L27.0276 33.4895H26.9706C26.5472 34.3495 25.8876 35.0634 25.0734 35.5826C24.1696 36.1668 23.1192 36.4832 22.0362 36.4832C18.7304 36.475 17.0938 34.6821 17.0938 31.0881Z" fill="#3361B4"></path> <path fill-rule="evenodd" clip-rule="evenodd" d="M33.5415 34.9736V23.1451C33.5415 22.3744 33.9323 21.9687 34.6815 21.9687H35.7644C36.5217 21.9687 36.9044 22.3582 36.9044 23.1451V24.0051L36.8474 24.646H36.9044C37.3278 23.8022 37.971 23.0883 38.7608 22.5529C39.5669 21.9687 40.544 21.6523 41.5619 21.6523C43.7359 21.6523 45.112 22.6259 45.7064 24.5648H45.7634C46.2275 23.7211 46.887 23.0072 47.6931 22.5123C48.5562 21.9444 49.5741 21.6523 50.6 21.6523C53.7104 21.6523 55.2575 23.4453 55.2575 27.0474V34.9898C55.2575 35.7605 54.8667 36.1662 54.0769 36.1662H52.8799C52.1064 36.1662 51.6992 35.7767 51.6992 34.9898V27.7045C51.6992 26.7878 51.569 26.0738 51.2921 25.5952C51.0153 25.1165 50.5023 24.8812 49.745 24.8812C48.6214 24.8812 47.7176 25.3599 47.0743 26.3497C46.4148 27.38 46.0809 28.5888 46.1135 29.8138V35.006C46.1135 35.7767 45.7308 36.1824 44.9736 36.1824H43.7766C43.0031 36.1824 42.5959 35.8011 42.5959 35.006V27.7288C42.5959 26.8283 42.4657 26.1144 42.2295 25.6357C41.9934 25.1571 41.4723 24.9056 40.7232 24.9056C39.6158 24.865 38.5898 25.4329 37.9954 26.374C37.3359 27.4043 37.0021 28.6131 37.0346 29.8219V35.0141C37.0346 35.7849 36.6438 36.1905 35.8947 36.1905H34.6652C33.9323 36.1256 33.5415 35.7443 33.5415 34.9736Z" fill="#3361B4"></path> <path fill-rule="evenodd" clip-rule="evenodd" d="M64.6133 32.8802C65.5008 32.8964 66.3639 32.5475 66.9665 31.9066C67.5934 31.2657 67.9028 30.2029 67.9028 28.7345C67.9028 26.0005 66.7629 24.6294 64.4423 24.6294C63.3756 24.6294 62.5288 24.9783 61.9344 25.6922C61.3481 26.3899 61.0306 27.3472 61.0469 28.5155C61.0469 29.8379 61.3563 30.8844 61.9833 31.6714C62.6265 32.4989 63.5141 32.8802 64.6133 32.8802ZM59.4591 39.0783C59.7522 38.4374 60.2489 38.2184 60.9329 38.4374C61.853 38.7863 62.8301 38.9648 63.8072 38.9648C64.9878 38.9648 65.9568 38.6889 66.6978 38.1373C67.4306 37.5856 67.8214 36.7094 67.8214 35.5331V34.4784L67.8784 33.7645H67.8214C67.0153 35.1761 65.7044 35.8738 63.9212 35.8738C61.9181 35.8738 60.3548 35.1923 59.1904 33.8212C58.0504 32.4502 57.4805 30.7384 57.4805 28.6858C57.4805 26.6495 58.0342 24.9621 59.1578 23.6397C60.2815 22.3173 61.8448 21.6602 63.8886 21.6602C64.4586 21.6602 65.0285 21.7332 65.5822 21.8792C66.0219 21.9928 66.4291 22.1713 66.8118 22.4146C67.0886 22.6012 67.3247 22.8203 67.569 23.0556C67.7319 23.2178 67.8784 23.4044 67.9924 23.591L68.1064 23.81H68.1634C68.1471 23.6802 68.1227 23.5748 68.1471 23.445V22.9095C68.1471 22.6499 68.2367 22.3984 68.4403 22.2281C68.6764 22.0415 68.9939 21.9522 69.2871 21.9684H70.2235C70.9807 21.9684 71.3634 22.3579 71.3634 23.1448V35.2816C71.3634 37.5207 70.6306 39.1919 69.1731 40.3034C67.7237 41.4229 65.9894 41.9746 64.0026 41.9746C62.3985 41.9746 61.0224 41.715 59.8581 41.2201C59.1578 40.9281 58.9543 40.4332 59.2474 39.7193L59.4591 39.0783Z" fill="#3361B4"></path> <path fill-rule="evenodd" clip-rule="evenodd" d="M74.3926 31.0881V23.1457C74.3926 22.375 74.7834 21.9693 75.5732 21.9693H76.7702C77.5437 21.9693 77.9508 22.3588 77.9508 23.1457V30.3742C77.9508 31.3072 78.1137 32.0455 78.4475 32.5241C78.7814 33.019 79.3513 33.2543 80.1575 33.2543C81.387 33.2543 82.3478 32.7918 83.0643 31.8589C83.7809 30.9421 84.131 29.8063 84.131 28.4677V23.1295C84.131 22.3588 84.5218 21.9531 85.3116 21.9531H86.5249C87.2984 21.9531 87.7055 22.3344 87.7055 23.1295V34.958C87.7055 35.7287 87.3228 36.1343 86.5249 36.1343H85.4419C84.6847 36.1343 84.302 35.753 84.302 34.958V34.1304L84.359 33.4895H84.302C83.8786 34.3495 83.219 35.0634 82.4048 35.5826C81.501 36.1668 80.4506 36.4832 79.3676 36.4832C76.0455 36.475 74.3926 34.6821 74.3926 31.0881Z" fill="#3361B4"></path> <path fill-rule="evenodd" clip-rule="evenodd" d="M90.8647 34.9736V23.1451C90.8647 22.3744 91.2556 21.9687 92.0047 21.9687H93.0876C93.8449 21.9687 94.2275 22.3582 94.2275 23.1451V24.0051L94.1706 24.646H94.2275C94.651 23.8022 95.2942 23.0883 96.084 22.5529C96.8901 21.9687 97.8672 21.6523 98.885 21.6523C101.059 21.6523 102.435 22.6259 103.029 24.5648H103.086C103.542 23.7211 104.21 23.0072 105.016 22.5123C105.879 21.9444 106.897 21.6523 107.923 21.6523C111.033 21.6523 112.581 23.4453 112.581 27.0474V34.9898C112.581 35.7605 112.19 36.1662 111.4 36.1662H110.203C109.429 36.1662 109.022 35.7767 109.022 34.9898V27.7045C109.022 26.7878 108.892 26.0738 108.615 25.5952C108.338 25.1165 107.825 24.8812 107.068 24.8812C105.928 24.8812 105.041 25.3599 104.397 26.3497C103.738 27.38 103.404 28.5888 103.437 29.8138V35.006C103.437 35.7767 103.046 36.1824 102.297 36.1824H101.067C100.294 36.1824 99.8865 35.8011 99.8865 35.006V27.7288C99.8865 26.8283 99.7562 26.1144 99.5201 25.6357C99.284 25.1571 98.7629 24.9056 98.0138 24.9056C96.9064 24.865 95.8805 25.4329 95.2861 26.374C94.6265 27.4043 94.2927 28.5969 94.309 29.8219V35.0141C94.309 35.7849 93.9181 36.1905 93.169 36.1905H91.9395C91.2474 36.1256 90.8647 35.7443 90.8647 34.9736Z" fill="#3361B4"></path> <path fill-rule="evenodd" clip-rule="evenodd" d="M118.842 15.8605C118.842 15.9741 118.826 16.0796 118.826 16.1769V19.3085C118.826 19.4707 118.696 19.6005 118.533 19.6005H115.365C115.203 19.6005 115.072 19.4707 115.072 19.3085V16.1526C115.072 15.9903 115.203 15.8605 115.365 15.8605H118.459C118.549 15.8849 118.696 15.8849 118.842 15.8605ZM131.74 4.4945V11.504C131.74 12.2341 131.129 12.8426 130.396 12.8426H122.205C122.132 12.8426 122.058 12.8426 121.985 12.8426C121.985 12.7696 121.985 12.7128 121.985 12.6398V4.47827C121.985 3.72378 122.596 3.13966 123.329 3.13966H130.364C131.121 3.15588 131.74 3.75623 131.74 4.4945ZM130.38 0H123.345C120.845 0 118.834 2.02009 118.818 4.51072V12.6316C118.818 12.6722 118.818 12.6884 118.818 12.7047C118.761 12.7209 118.687 12.7209 118.63 12.7209H115.357C113.444 12.7209 111.88 14.2785 111.88 16.185V19.3247C111.88 21.2312 113.427 22.7889 115.357 22.7889H118.525C120.438 22.7889 122.001 21.2312 122.001 19.3247V16.1526C122.001 16.112 122.018 16.0796 122.018 16.039C122.075 16.0228 122.148 16.0228 122.205 16.0228H130.38C132.888 16.0228 134.907 14.0027 134.907 11.5121V4.51072C134.907 2.02009 132.888 0 130.38 0Z" fill="#3361B4"></path> </svg> 