<?xml version="1.0" encoding="UTF-8"?> <svg xmlns="http://www.w3.org/2000/svg" width="81" height="20" viewBox="0 0 81 20" fill="none"> <path fill-rule="evenodd" clip-rule="evenodd" d="M74.7176 16.8518C75.1665 16.8518 75.5677 16.7428 75.9146 16.5111C76.275 16.2658 76.5538 15.8501 76.7443 15.2641C76.9483 14.678 77.0503 13.8603 77.0503 12.8177C77.0503 11.6184 76.9415 10.7394 76.717 10.167C76.5062 9.59455 76.2206 9.21976 75.8601 9.0494C75.4929 8.8586 75.1189 8.7632 74.7176 8.7632C74.2007 8.7632 73.7111 8.85179 73.2622 9.02215C72.8134 9.17888 72.4257 9.34923 72.0993 9.54003V16.1704C72.4053 16.3407 72.7793 16.4974 73.2146 16.6405C73.6431 16.7836 74.1463 16.8518 74.7176 16.8518ZM76.1458 20C75.2277 20 74.4524 19.8501 73.8063 19.5571C73.1874 19.2641 72.6161 18.9165 72.0993 18.5145L71.4736 19.8433H68.2568V0H72.0993V6.84157C72.6501 6.54855 73.2758 6.27598 73.9627 6.03748C74.6768 5.79216 75.3433 5.67632 75.9622 5.67632C77.744 5.67632 79.0089 6.24872 79.7502 7.39353C80.5119 8.51789 80.8928 10.3918 80.8928 13.0085C80.8928 15.3663 80.5051 17.1244 79.723 18.2896C78.9681 19.4276 77.7712 20 76.1458 20ZM58.892 17.3152C59.1844 17.3152 59.5245 17.2743 59.9053 17.1857C60.2998 17.0835 60.6602 16.9813 60.973 16.8722C61.2995 16.7496 61.4899 16.6746 61.5443 16.6405V13.3901L59.2116 13.5468C57.899 13.6491 57.2394 14.2215 57.2394 15.2641V15.8365C57.2394 16.3884 57.3958 16.7836 57.7086 17.0085C58.0215 17.2129 58.4227 17.3152 58.892 17.3152ZM56.9401 20C55.886 20 55.0291 19.6865 54.3694 19.0664C53.7097 18.4395 53.3833 17.5741 53.3833 16.4634V15.2164C53.3833 14.1601 53.7573 13.2947 54.4986 12.6133C55.2399 11.9182 56.4029 11.5707 57.9739 11.5707H61.5307V10.6099C61.5307 10.1738 61.4559 9.81942 61.2995 9.54685C61.1635 9.25383 60.8778 9.04259 60.4426 8.91993C60.0073 8.78365 59.3612 8.7155 58.4975 8.7155H54.3218V6.47359C55.0155 6.26235 55.8044 6.08518 56.6817 5.92845C57.5658 5.77172 58.6335 5.69676 59.8985 5.69676C61.0547 5.69676 62.0408 5.83305 62.8569 6.11244C63.6662 6.39182 64.2919 6.86882 64.7271 7.54344C65.1556 8.21806 65.3732 9.15162 65.3732 10.3509V19.8433H62.3332L61.7143 18.3578C61.5579 18.5281 61.2451 18.7462 60.7826 19.0051C60.3134 19.2504 59.7421 19.4753 59.0688 19.6797C58.4159 19.891 57.7018 20 56.9401 20ZM44.821 19.8433C43.318 19.8433 42.1822 19.4957 41.4205 18.8007C40.6588 18.1056 40.278 16.9336 40.278 15.2913V0.599659H44.1205V14.6644C44.1205 15.3049 44.2769 15.7479 44.5897 15.9932C44.9162 16.2385 45.331 16.3543 45.8343 16.3543H51.9075V19.8365H44.821V19.8433ZM24.0919 20C23.1058 20 22.0517 19.9455 20.9295 19.8433C19.821 19.7206 18.8689 19.5571 18.0732 19.3458V16.3066C18.8349 16.3748 19.753 16.4361 20.8275 16.4906C21.9156 16.5247 22.9494 16.5451 23.9151 16.5451C24.9012 16.5451 25.6765 16.4157 26.2478 16.1567C26.8191 15.8773 27.1047 15.3595 27.1047 14.5963V13.8944C27.1047 13.322 26.9347 12.8859 26.5878 12.5928C26.241 12.2794 25.7649 12.1227 25.1597 12.1227H23.5275C21.6912 12.1227 20.2834 11.7206 19.2973 10.9233C18.3248 10.1056 17.8419 8.72913 17.8419 6.78705V5.85349C17.8419 3.97956 18.3724 2.60988 19.4265 1.74446C20.4943 0.872232 22.0313 0.44293 24.0375 0.44293C25.0917 0.44293 26.139 0.511073 27.1795 0.654174C28.2337 0.79046 29.1246 0.940375 29.8523 1.0971V4.13629C29.0566 4.08177 28.1656 4.03407 27.1795 3.97956C26.207 3.92504 25.3093 3.9046 24.4796 3.9046C23.5819 3.9046 22.8542 4.04089 22.2965 4.32027C21.7592 4.59966 21.494 5.17206 21.494 6.03748V6.55537C21.494 7.22998 21.6844 7.7138 22.0653 8.01363C22.4461 8.30664 23.0106 8.45656 23.7519 8.45656H25.6493C27.3631 8.45656 28.6417 8.92675 29.4918 9.86031C30.3419 10.7939 30.7636 11.9727 30.7636 13.3969V14.4872C30.7636 15.9932 30.4779 17.1516 29.9067 17.9489C29.3558 18.7462 28.5737 19.2913 27.574 19.5843C26.581 19.8569 25.4249 20 24.0919 20ZM0.159668 19.8433V0.599659H3.24726L11.2927 13.2879V0.599659H15.1352V19.8433H12.0476L4.02936 7.14821V19.8365H0.159668V19.8433Z" fill="url(#paint0_linear_2007_404)"></path> <defs> <linearGradient id="paint0_linear_2007_404" x1="1.5" y1="10.5" x2="81.5" y2="10.5" gradientUnits="userSpaceOnUse"> <stop stop-color="#4398BA"></stop> <stop offset="1" stop-color="#76CCBD"></stop> </linearGradient> </defs> </svg> 