<?xml version="1.0" encoding="UTF-8"?> <svg xmlns="http://www.w3.org/2000/svg" width="135" height="42" viewBox="0 0 135 42" fill="none"> <path fill-rule="evenodd" clip-rule="evenodd" d="M118.833 16.0309C118.837 15.9763 118.842 15.9195 118.842 15.8605C118.695 15.8849 118.549 15.8849 118.459 15.8605H115.365C115.202 15.8605 115.072 15.9903 115.072 16.1526V19.3085C115.072 19.4707 115.202 19.6005 115.365 19.6005H118.532C118.695 19.6005 118.825 19.4707 118.825 19.3085V16.1769C118.825 16.1301 118.829 16.0815 118.833 16.0309ZM131.739 11.504V4.49449C131.739 3.75623 131.121 3.15588 130.363 3.13966H123.328C122.595 3.13966 121.985 3.72378 121.985 4.47827V12.6398V12.8426H122.205H130.396C131.129 12.8426 131.739 12.2341 131.739 11.504ZM123.344 0H130.38C132.887 0 134.907 2.02009 134.907 4.51072V11.5121C134.907 14.0027 132.887 16.0228 130.38 16.0228H122.205C122.148 16.0228 122.074 16.0228 122.017 16.039C122.017 16.0593 122.013 16.0776 122.009 16.0958C122.005 16.1141 122.001 16.1323 122.001 16.1526V19.3247C122.001 21.2312 120.438 22.7889 118.524 22.7889H115.357C113.427 22.7889 111.88 21.2312 111.88 19.3247V16.185C111.88 14.2785 113.443 12.7209 115.357 12.7209H118.63C118.687 12.7209 118.76 12.7209 118.817 12.7047V12.6316V4.51072C118.834 2.02009 120.845 0 123.344 0ZM7.2977 32.8762C8.18523 32.8925 9.04833 32.5436 9.65088 31.9027C10.2778 31.2618 10.5873 30.199 10.5873 28.7306C10.5873 25.9966 9.43103 24.6255 7.1267 24.6255C6.06004 24.6255 5.21322 24.9744 4.62696 25.6883C4.0407 26.386 3.72314 27.3433 3.72314 28.5115C3.72314 29.8339 4.0407 30.8805 4.68395 31.6674C5.32721 32.4949 6.19032 32.8762 7.2977 32.8762ZM2.14349 39.0744C2.43662 38.4335 2.93332 38.2144 3.61729 38.4335C4.53739 38.7823 5.51449 38.9608 6.49159 38.9608C7.67225 38.9608 8.64121 38.685 9.38217 38.1333C10.115 37.5816 10.5058 36.7055 10.5058 35.5291V34.4744L10.5628 33.7605H10.5058C9.69973 35.1721 8.38879 35.8698 6.62187 35.8698C4.61881 35.8698 3.04731 35.1884 1.89108 33.8173C0.734842 32.4462 0.181152 30.7345 0.181152 28.6819C0.181152 26.6456 0.734842 24.9582 1.85851 23.6358C2.98217 22.3134 4.54553 21.6562 6.5893 21.6562C7.15927 21.6562 7.72925 21.7293 8.28294 21.8753C8.72263 21.9889 9.12976 22.1674 9.51245 22.427C9.7893 22.6136 10.0254 22.8326 10.2697 23.0679C10.4326 23.2301 10.5873 23.4167 10.6931 23.6195L10.8071 23.8386H10.8804C10.8774 23.815 10.8742 23.7923 10.8711 23.7701C10.8569 23.6697 10.8441 23.5798 10.8641 23.4735V22.9381C10.8641 22.6785 10.9537 22.427 11.1572 22.2566C11.3934 22.07 11.6946 21.9808 12.0041 21.997H12.9404C13.6977 21.997 14.0804 22.3864 14.0804 23.1733V35.3101C14.0804 37.5492 13.3476 39.2123 11.8901 40.3319C10.4326 41.4352 8.70635 42.0031 6.71958 41.9788C5.11551 41.9788 3.73942 41.7192 2.58319 41.2243C1.88293 40.9322 1.67937 40.4373 1.9725 39.7234L2.14349 39.0744ZM17.0928 31.0881V23.1457C17.0928 22.375 17.4836 21.9693 18.2734 21.9693H19.4704C20.2439 21.9693 20.651 22.3588 20.651 23.1457V30.3742C20.651 31.3072 20.8139 32.0455 21.1314 32.5241C21.449 33.0028 22.0353 33.2543 22.8414 33.2543C24.0709 33.2543 25.0317 32.7918 25.7482 31.8589C26.4648 30.9421 26.8149 29.8063 26.8149 28.4677V23.1295C26.8149 22.3588 27.1976 21.9531 27.9956 21.9531H29.1925C29.966 21.9531 30.3732 22.3344 30.3732 23.1295V34.958C30.3732 35.7287 29.9823 36.1343 29.1925 36.1343H28.1096C27.3523 36.1343 26.9696 35.753 26.9696 34.958V34.1304L27.0266 33.4895H26.9696C26.5462 34.3495 25.8867 35.0634 25.0724 35.5826C24.1686 36.1668 23.1182 36.4832 22.0353 36.4832C18.7294 36.475 17.0928 34.6821 17.0928 31.0881ZM33.541 23.149V34.9775C33.541 35.7482 33.9319 36.1295 34.6647 36.1944H35.8942C36.6433 36.1944 37.0341 35.7888 37.0341 35.018V29.8258C37.0016 28.617 37.3354 27.4082 37.995 26.3779C38.5894 25.4368 39.6153 24.8689 40.7227 24.9095C41.4718 24.9095 41.9929 25.161 42.229 25.6396C42.4652 26.1183 42.5955 26.8322 42.5955 27.7327V35.0099C42.5955 35.805 43.0026 36.1863 43.7761 36.1863H44.9731C45.7303 36.1863 46.113 35.7806 46.113 35.0099V29.8177C46.0804 28.5927 46.4143 27.3839 47.0738 26.3536C47.7171 25.3638 48.6209 24.8851 49.7446 24.8851C50.5018 24.8851 51.0148 25.1204 51.2916 25.5991C51.5685 26.0777 51.6988 26.7917 51.6988 27.7084V34.9937C51.6988 35.7806 52.1059 36.1701 52.8794 36.1701H54.0764C54.8662 36.1701 55.257 35.7644 55.257 34.9937V27.0513C55.257 23.4492 53.71 21.6562 50.5995 21.6562C49.5736 21.6562 48.5558 21.9483 47.6927 22.5162C46.8865 23.0111 46.227 23.725 45.7629 24.5687H45.7059C45.1115 22.6298 43.7354 21.6562 41.5614 21.6562C40.5436 21.6562 39.5665 21.9727 38.7603 22.5568C37.9705 23.0922 37.3273 23.8061 36.9039 24.6499H36.8469L36.9039 24.009V23.149C36.9039 22.3621 36.5212 21.9726 35.7639 21.9726H34.681C33.9319 21.9726 33.541 22.3783 33.541 23.149ZM64.6128 32.8763C65.5003 32.8925 66.3634 32.5436 66.966 31.9027C67.5929 31.2618 67.9024 30.199 67.9024 28.7306C67.9024 25.9966 66.7624 24.6255 64.4418 24.6255C63.3751 24.6255 62.5283 24.9744 61.9339 25.6883C61.3477 26.386 61.0301 27.3433 61.0464 28.5116C61.0464 29.834 61.3558 30.8805 61.9828 31.6674C62.626 32.495 63.5136 32.8763 64.6128 32.8763ZM59.4586 39.0744C59.7517 38.4335 60.2484 38.2145 60.9324 38.4335C61.8525 38.7824 62.8296 38.9609 63.8067 38.9609C64.9874 38.9609 65.9563 38.685 66.6973 38.1334C67.4301 37.5817 67.8209 36.7055 67.8209 35.5291V34.4745L67.8779 33.7606H67.8209C67.0148 35.1722 65.7039 35.8699 63.9207 35.8699C61.9176 35.8699 60.3543 35.1884 59.1899 33.8173C58.05 32.4463 57.48 30.7345 57.48 28.6819C57.48 26.6456 58.0337 24.9582 59.1573 23.6358C60.281 22.3134 61.8444 21.6562 63.8881 21.6562C64.4581 21.6562 65.0281 21.7293 65.5817 21.8753C66.0214 21.9889 66.4286 22.1674 66.8113 22.4107C67.0881 22.5973 67.3242 22.8164 67.5685 23.0517C67.7314 23.2139 67.8779 23.4005 67.9919 23.5871L68.1059 23.8061H68.1629C68.1612 23.7921 68.1593 23.7783 68.1574 23.7647L68.1536 23.7376C68.1394 23.6373 68.1266 23.5473 68.1466 23.4411V22.9056C68.1466 22.646 68.2362 22.3945 68.4398 22.2241C68.6759 22.0376 68.9934 21.9483 69.2866 21.9645H70.223C70.9802 21.9645 71.3629 22.354 71.3629 23.1409V35.2776C71.3629 37.5168 70.6301 39.188 69.1726 40.2995C67.7232 41.419 65.9889 41.9707 64.0021 41.9707C62.398 41.9707 61.022 41.7111 59.8576 41.2162C59.1573 40.9242 58.9538 40.4293 59.2469 39.7154L59.4586 39.0744ZM74.3918 23.1457V31.0881C74.3918 34.6821 76.0448 36.475 79.3669 36.4832C80.4499 36.4832 81.5002 36.1668 82.4041 35.5826C83.2183 35.0634 83.8778 34.3495 84.3012 33.4895H84.3582L84.3012 34.1304V34.958C84.3012 35.753 84.6839 36.1343 85.4412 36.1343H86.5241C87.3221 36.1343 87.7048 35.7287 87.7048 34.958V23.1295C87.7048 22.3344 87.2977 21.9531 86.5241 21.9531H85.3109C84.5211 21.9531 84.1303 22.3588 84.1303 23.1295V28.4677C84.1303 29.8063 83.7801 30.9421 83.0636 31.8589C82.3471 32.7918 81.3862 33.2543 80.1567 33.2543C79.3506 33.2543 78.7806 33.019 78.4468 32.5241C78.113 32.0455 77.9501 31.3072 77.9501 30.3742V23.1457C77.9501 22.3588 77.543 21.9693 76.7695 21.9693H75.5725C74.7827 21.9693 74.3918 22.375 74.3918 23.1457ZM90.8643 34.9775V23.149C90.8643 22.3783 91.2551 21.9726 92.0042 21.9726H93.0871C93.8444 21.9726 94.2271 22.3621 94.2271 23.149V24.009L94.1701 24.6499H94.2271C94.6505 23.8061 95.2937 23.0922 96.0835 22.5568C96.8896 21.9727 97.8667 21.6562 98.8845 21.6562C101.059 21.6562 102.435 22.6298 103.029 24.5687H103.086C103.542 23.725 104.21 23.0111 105.016 22.5162C105.879 21.9483 106.897 21.6562 107.923 21.6562C111.033 21.6562 112.58 23.4492 112.58 27.0513V34.9937C112.58 35.7644 112.189 36.1701 111.399 36.1701H110.202C109.429 36.1701 109.022 35.7806 109.022 34.9937V27.7084C109.022 26.7917 108.892 26.0777 108.615 25.5991C108.338 25.1204 107.825 24.8851 107.068 24.8851C105.928 24.8851 105.04 25.3638 104.397 26.3536C103.737 27.3839 103.404 28.5927 103.436 29.8177V35.0099C103.436 35.7806 103.045 36.1863 102.296 36.1863H101.067C100.293 36.1863 99.886 35.805 99.886 35.0099V27.7327C99.886 26.8322 99.7557 26.1183 99.5196 25.6396C99.2835 25.161 98.7624 24.9095 98.0133 24.9095C96.9059 24.8689 95.88 25.4368 95.2856 26.3779C94.626 27.4082 94.2922 28.6008 94.3085 29.8258V35.018C94.3085 35.7888 93.9176 36.1944 93.1685 36.1944H91.939C91.2469 36.1295 90.8643 35.7482 90.8643 34.9775Z" fill="url(#paint0_linear_2007_403)"></path> <defs> <linearGradient id="paint0_linear_2007_403" x1="-0.5" y1="28" x2="136" y2="28" gradientUnits="userSpaceOnUse"> <stop stop-color="#449CBD"></stop> <stop offset="1" stop-color="#74CABB"></stop> </linearGradient> </defs> </svg> 