<?xml version="1.0" encoding="UTF-8"?> <svg xmlns="http://www.w3.org/2000/svg" width="80" height="30" viewBox="0 0 80 30" fill="none"> <path fill-rule="evenodd" clip-rule="evenodd" d="M11.4983 20.7887C17.0766 20.7887 21.3443 16.8342 21.8686 11.1663L21.9105 10.7878H8.17436V13.2781H18.7124C17.7477 16.2564 14.8642 18.3084 11.5717 18.3483C6.57007 18.3483 3.46633 14.1945 3.46633 10.3495C3.46633 7.18192 5.60539 2.46038 11.4878 2.46038H11.687C14.2455 2.46038 16.5943 3.81509 17.7582 5.97664L17.8631 6.1659H20.9144L20.6942 5.6778C19.2367 2.24124 15.7345 0 11.8338 0C11.7185 0 11.5927 0 11.4773 0.00996106C5.40617 0 0.813477 4.41275 0.813477 10.2997C0.813477 15.3898 4.56732 20.7887 11.4983 20.7887ZM78.5433 27.2734H1.63135V30.0028H78.5433V27.2734ZM30.5505 2.78148H26.7652V10.1925H30.5505C34.514 10.1925 34.8181 7.37352 34.8181 6.50691C34.8181 5.38131 34.4092 2.78148 30.5505 2.78148ZM30.519 12.6529H26.7652L26.7337 20.4524H24.1123V0.28125H30.519C36.8209 0.28125 37.471 4.63423 37.471 6.49695C37.471 9.47531 35.636 12.6529 30.519 12.6529ZM41.9591 4.71315L48.3448 20.4417H50.3791L56.7648 4.71315V20.4417H59.3338V0.320312H55.884L49.3619 16.258L42.8399 0.320312H39.3901V20.4417H41.9591V4.71315ZM68.0263 2.77503H65.0798L65.0589 18.0155H68.1416C74.4645 18.0155 76.7084 13.8717 76.7084 10.3554C76.7084 6.68973 74.4225 2.77503 68.0263 2.77503ZM68.0263 0.304688C78.5329 0.304688 79.3508 7.99463 79.3508 10.3554C79.3508 15.0072 76.4253 20.446 68.1312 20.446H62.4165V0.304688H68.0263Z" fill="#F2807E"></path> </svg> 