<?xml version="1.0" encoding="UTF-8"?> <svg xmlns="http://www.w3.org/2000/svg" width="207" height="23" viewBox="0 0 207 23" fill="none"> <path fill-rule="evenodd" clip-rule="evenodd" d="M30.885 14.2706C30.421 16.847 29.0177 18.8016 27.0146 18.8016C25.5321 18.8016 24.9097 17.68 25.2718 15.5477L27.207 4.99748H20.3037C20.0434 4.99748 19.8397 5.19737 19.8397 5.4528C19.8397 5.59717 19.9076 5.73044 20.0208 5.80818L20.9375 6.82988C21.1185 7.04089 21.2317 7.30742 21.2317 7.58506C21.2317 7.65169 21.2204 7.71832 21.2091 7.78496L19.7945 15.6699C19.0702 19.6901 20.8469 21.6224 23.9251 21.6224C27.1731 21.6224 29.1761 19.6234 30.4889 16.5028L30.421 16.8915C29.6967 20.7895 32.2543 21.6224 33.8274 21.6224C34.2914 21.6224 34.8119 21.478 35.208 21.3337L38.0033 4.99748H32.5259L30.885 14.2706ZM53.7677 5.91923C52.2513 5.21959 49.9539 4.58657 47.8377 4.58657C44.4879 4.58657 40.2667 6.19687 40.2667 10.317C40.2667 12.7602 41.7718 13.8597 43.8428 14.9147L45.8799 15.7809C47.0342 16.3251 47.7132 17.1025 47.7132 18.3241C47.7132 19.8344 46.8644 20.9339 45.0198 20.9339C44.6576 20.9339 44.2276 20.8561 43.8768 20.6784C43.7183 20.6007 43.5825 20.4674 43.492 20.312L40.3233 15.1479C40.244 15.0257 40.1082 14.948 39.9611 14.948C39.7574 14.948 39.5877 15.0924 39.5424 15.2923L38.7389 19.5013C38.7276 19.5346 38.7276 19.579 38.7276 19.6123C38.7276 19.8566 38.8747 20.0676 39.0897 20.1676C40.7307 20.9117 42.4622 21.6446 45.1103 21.6446C48.2903 21.6446 52.9869 20.523 52.9869 16.0141C52.9869 13.6376 51.6741 12.5381 49.5465 11.5053L47.3171 10.5391C46.0043 9.92832 45.348 9.11762 45.348 8.02928C45.348 6.92983 46.0043 5.19737 48.0414 5.19737C48.4148 5.19737 48.7317 5.28622 48.9807 5.38617C49.1731 5.46391 49.3428 5.60828 49.4447 5.78597L52.5681 10.8168C52.6473 10.95 52.7945 11.0278 52.9529 11.0278C53.1679 11.0278 53.349 10.8723 53.3943 10.6613L54.1299 6.58556C54.1412 6.55225 54.1412 6.50782 54.1412 6.47451C54.1185 6.24129 53.9827 6.01918 53.7677 5.91923ZM62.7533 18.8682C61.5085 18.8682 60.886 17.8688 61.1463 16.3584L63.0815 5.6416H67.0311H67.0424C67.2235 5.6416 67.3706 5.49722 67.3706 5.31954C67.3706 5.14185 67.2235 4.99748 67.0424 4.99748H67.0311H63.2173L63.9189 1.02171C63.9189 1.0106 63.9218 0.996719 63.9246 0.982837C63.9274 0.968955 63.9303 0.955073 63.9303 0.943968C63.9303 0.699647 63.7266 0.510853 63.4889 0.510853C63.3871 0.510853 63.2852 0.54417 63.206 0.610803L56.2687 4.91974C56.1669 4.97527 56.099 5.08632 56.0764 5.19737C56.0764 5.20847 56.0735 5.21956 56.0707 5.23065L56.0707 5.23069L56.0707 5.23074C56.0679 5.24183 56.065 5.25292 56.065 5.26401C56.065 5.47501 56.2235 5.6416 56.4385 5.6527L56.5177 5.66381C57.0383 5.78597 57.4117 6.24129 57.4117 6.77436C57.4117 6.80767 57.4089 6.84099 57.4061 6.87431C57.4033 6.90762 57.4004 6.94094 57.4004 6.97426L55.7708 16.1363C55.1144 19.7345 57.1175 21.6335 60.0033 21.6335C62.3233 21.6335 64.1566 20.3009 65.2543 18.3463C65.3109 18.3019 65.3449 18.2352 65.3449 18.1686C65.3449 18.0353 65.243 17.9354 65.1072 17.9354C65.0167 17.9354 64.9375 17.9798 64.9035 18.0575C64.1566 18.6128 63.4663 18.8682 62.7533 18.8682ZM79.3099 0H69.0794C68.8078 0 68.5815 0.22211 68.5815 0.488642C68.5815 0.599697 68.6268 0.721858 68.706 0.799596L69.6453 1.86572C69.8716 2.12115 69.9735 2.47653 69.9169 2.80969L66.6463 21.1782H74.1041C74.3531 21.1782 74.5568 20.9783 74.5568 20.734C74.5568 20.5896 74.4889 20.4563 74.3757 20.3786L73.0743 19.2903C72.814 19.0793 72.6669 18.7572 72.6669 18.4351C72.6669 18.3685 72.6782 18.3019 72.6895 18.2352L75.8243 0.633014H77.4652C79.7286 0.633014 81.3356 2.96517 81.3356 6.11913C81.3356 10.0505 79.8757 13.7597 76.1978 13.7819C75.8583 13.7819 75.4056 13.7819 74.9529 13.7153C74.7718 13.6931 74.5908 13.7042 74.5568 13.8819C74.5342 14.004 74.6021 14.1151 74.7039 14.1706C75.2019 14.4705 76.1185 14.5815 76.5712 14.6148C83.7801 15.1701 86.813 11.0056 86.813 6.69662C86.8243 2.95406 83.4406 0 79.3099 0ZM100.427 4.70873C97.2472 4.70873 95.2441 6.82988 94.2255 9.79505H94.1916L95.0517 4.99748H88.2163C87.9334 4.99748 87.707 5.21959 87.707 5.49722C87.707 5.61938 87.7523 5.74154 87.8315 5.83039L88.8048 6.90762C89.0424 7.16305 89.1443 7.51843 89.0764 7.8627L86.6772 21.1893H92.1206L93.5692 13.1156C94.1237 10.6724 95.3459 8.37355 96.5681 7.52953C96.9982 7.24079 97.5867 7.34074 97.8922 7.75164L100.099 10.7279C100.359 11.0833 100.936 10.9833 101.061 10.5613L102.691 5.00858C102.125 4.842 101.31 4.70873 100.427 4.70873ZM117.323 16.1918C117.21 16.1141 117.052 16.1474 116.972 16.2585C115.558 18.002 114.132 18.7794 112.366 18.7794C109.481 18.7794 107.84 16.9803 107.546 13.9485C112.106 13.9485 118.534 12.9823 118.534 8.83998C118.534 6.00808 115.841 4.59768 112.366 4.59768C106.561 4.59768 101.514 8.61787 101.514 14.1484C101.514 18.6239 104.796 21.6446 109.379 21.6446C112.955 21.6446 115.637 19.8344 117.425 16.5472C117.493 16.4139 117.436 16.2696 117.323 16.1918ZM107.478 12.7824C107.478 9.0843 109.277 5.09743 112.197 5.09743C113.408 5.09743 114.166 5.77486 114.166 7.11863C114.166 10.6946 110.522 13.1378 107.512 13.5487C107.478 13.3044 107.478 13.0491 107.478 12.7826V12.7824ZM142.594 4.58657C139.448 4.58657 137.807 6.48561 136.494 9.73952C136.89 6.23019 135.215 4.58657 132.431 4.58657C129.082 4.58657 127.542 6.67441 126.264 9.99495L127.146 5.00858H120.311C120.028 5.00858 119.802 5.23069 119.802 5.50833C119.802 5.63049 119.847 5.75265 119.926 5.84149L120.899 6.91873C121.137 7.17415 121.239 7.52953 121.171 7.8738L118.772 21.1893H124.215L125.404 14.6037C125.404 14.6037 125.969 11.7496 126.071 11.3498C126.728 8.85108 127.848 7.39626 129.466 7.39626C130.745 7.39626 131.266 8.4846 130.937 10.4836L129.036 21.2004H134.514L136.155 11.7052C136.811 9.00656 137.954 7.39626 139.629 7.39626C140.908 7.39626 141.496 8.4846 141.111 10.4836L139.968 16.9137C139.244 20.8117 141.802 21.6446 143.375 21.6446C143.827 21.6446 144.348 21.5114 144.778 21.3559L146.577 10.3503C147.121 6.38566 145.582 4.58657 142.594 4.58657ZM149.259 5.39727C149.226 5.55275 149.271 5.70823 149.384 5.83039L150.369 6.87431C150.618 7.14084 150.719 7.49621 150.663 7.85159L149.146 16.9137C148.422 20.8117 150.867 21.6446 152.44 21.6446C152.96 21.6446 153.379 21.5225 153.854 21.3559L156.627 4.99748H149.757C149.508 4.99748 149.305 5.16406 149.259 5.39727ZM1.59681 13.1829C0.872531 14.1269 0.499074 15.1708 0.612243 16.6367C0.793313 18.8912 2.43426 20.1794 3.33961 20.7458C3.45278 20.8124 3.57726 20.6791 3.49805 20.5792C3.21512 20.2349 3.0001 19.8351 2.8643 19.402C2.63796 18.7135 2.96615 17.7362 3.7357 17.3586C4.03698 17.2108 4.361 17.115 4.68363 17.0197C4.91848 16.9503 5.15258 16.8811 5.37665 16.7922C6.96101 16.1703 7.45895 14.6044 6.53097 13.1829C5.45586 11.5615 2.73982 11.6726 1.59681 13.1829ZM18.4703 0.367188H11.6236C11.3972 0.367188 11.1822 0.53377 11.1369 0.75588C11.103 0.922463 11.1596 1.11126 11.2954 1.22231L12.0762 2.11075C12.4723 2.47723 12.5289 2.92145 12.461 3.32125L9.98262 16.7367C9.96127 16.8267 9.93992 16.918 9.9183 17.0105C9.74516 17.7512 9.55514 18.564 9.21307 19.3243C9.21307 19.3243 9.22439 19.3243 9.22439 19.3132C8.85093 20.1572 8.2964 20.9124 7.40237 21.4343C7.19866 21.5565 6.96101 21.6342 6.70072 21.712C6.57624 21.7453 6.59887 21.9119 6.72336 21.9341C7.09681 21.9896 7.66266 22.0118 7.92294 22.0118C12.8684 22.0118 15.0752 19.2354 15.9466 14.6155L18.4703 0.367188ZM166.337 19.0933C168.34 19.0933 169.743 17.1277 170.207 14.5512L171.826 5.27809H177.303L174.519 21.6254C174.123 21.7698 173.591 21.9141 173.138 21.9141C171.565 21.9141 169.008 21.0812 169.732 17.1832L169.8 16.7945C168.498 19.9151 166.495 21.9141 163.247 21.9141C160.169 21.9141 158.392 19.9818 159.117 15.9616L160.531 8.06557C160.588 7.73241 160.497 7.37703 160.26 7.1216L159.343 6.0999C159.241 5.99995 159.162 5.88889 159.162 5.74452C159.162 5.4891 159.366 5.2892 159.626 5.2892H166.529L164.594 15.8394C164.232 17.9717 164.854 19.0933 166.337 19.0933ZM195.976 10.0201C197.289 6.76623 198.93 4.86719 202.076 4.86719C205.063 4.86719 206.602 6.66628 206.07 10.6309L204.26 21.6365C203.818 21.792 203.298 21.9252 202.845 21.9252C201.272 21.9252 198.714 21.0923 199.439 17.1943L200.582 10.7642C200.978 8.77632 200.389 7.67688 199.111 7.67688C197.436 7.67688 196.293 9.28718 195.636 11.9858L193.995 21.481H188.518L190.419 10.7642C190.747 8.77632 190.227 7.67688 188.948 7.67688C187.069 7.67688 185.859 9.63145 185.27 12.9187H185.236L183.697 21.481H178.254L180.653 8.15442C180.721 7.81014 180.619 7.46587 180.381 7.19934L179.408 6.12211C179.329 6.03326 179.283 5.9111 179.283 5.78894C179.283 5.51131 179.51 5.2892 179.793 5.2892H186.628L185.745 10.2756C187.024 6.95502 188.563 4.86719 191.913 4.86719C194.697 4.86719 196.372 6.5108 195.976 10.0201Z" fill="url(#paint0_linear_2007_421)"></path> <defs> <linearGradient id="paint0_linear_2007_421" x1="9" y1="11" x2="206" y2="15" gradientUnits="userSpaceOnUse"> <stop stop-color="#3F93B4"></stop> <stop offset="1" stop-color="#75CBBC"></stop> </linearGradient> </defs> </svg> 