<?xml version="1.0" encoding="UTF-8"?> <svg xmlns="http://www.w3.org/2000/svg" width="82" height="20" viewBox="0 0 82 20" fill="none"> <path fill-rule="evenodd" clip-rule="evenodd" d="M74.9627 16.8518C75.4116 16.8518 75.8128 16.7428 76.1597 16.5111C76.5201 16.2658 76.7989 15.8501 76.9894 15.2641C77.1934 14.678 77.2954 13.8603 77.2954 12.8177C77.2954 11.6184 77.1866 10.7394 76.9622 10.167C76.7513 9.59455 76.4657 9.21976 76.1053 9.0494C75.738 8.8586 75.364 8.7632 74.9627 8.7632C74.4459 8.7632 73.9562 8.85179 73.5073 9.02215C73.0585 9.17888 72.6708 9.34923 72.3444 9.54003V16.1704C72.6504 16.3407 73.0245 16.4974 73.4597 16.6405C73.8882 16.7836 74.3914 16.8518 74.9627 16.8518ZM76.3909 20C75.4728 20 74.6975 19.8501 74.0514 19.5571C73.4325 19.2641 72.8612 18.9165 72.3444 18.5145L71.7187 19.8433H68.5019V0H72.3444V6.84157C72.8953 6.54855 73.5209 6.27598 74.2078 6.03748C74.9219 5.79216 75.5884 5.67632 76.2073 5.67632C77.9891 5.67632 79.2541 6.24872 79.9954 7.39353C80.7571 8.51789 81.1379 10.3918 81.1379 13.0085C81.1379 15.3663 80.7503 17.1244 79.9682 18.2896C79.2133 19.4276 78.0163 20 76.3909 20ZM59.1371 17.3152C59.4295 17.3152 59.7696 17.2743 60.1504 17.1857C60.5449 17.0835 60.9053 16.9813 61.2182 16.8722C61.5446 16.7496 61.735 16.6746 61.7894 16.6405V13.3901L59.4567 13.5468C58.1442 13.6491 57.4845 14.2215 57.4845 15.2641V15.8365C57.4845 16.3884 57.6409 16.7836 57.9537 17.0085C58.2666 17.2129 58.6678 17.3152 59.1371 17.3152ZM57.1852 20C56.1311 20 55.2742 19.6865 54.6145 19.0664C53.9548 18.4395 53.6284 17.5741 53.6284 16.4634V15.2164C53.6284 14.1601 54.0024 13.2947 54.7437 12.6133C55.485 11.9182 56.648 11.5707 58.219 11.5707H61.7758V10.6099C61.7758 10.1738 61.701 9.81942 61.5446 9.54685C61.4086 9.25383 61.1229 9.04259 60.6877 8.91993C60.2524 8.78365 59.6063 8.7155 58.7426 8.7155H54.5669V6.47359C55.2606 6.26235 56.0495 6.08518 56.9268 5.92845C57.8109 5.77172 58.8787 5.69676 60.1436 5.69676C61.2998 5.69676 62.2859 5.83305 63.102 6.11244C63.9113 6.39182 64.537 6.86882 64.9722 7.54344C65.4007 8.21806 65.6183 9.15162 65.6183 10.3509V19.8433H62.5783L61.9594 18.3578C61.803 18.5281 61.4902 18.7462 61.0277 19.0051C60.5585 19.2504 59.9872 19.4753 59.3139 19.6797C58.661 19.891 57.9469 20 57.1852 20ZM45.0661 19.8433C43.5631 19.8433 42.4274 19.4957 41.6657 18.8007C40.904 18.1056 40.5231 16.9336 40.5231 15.2913V0.599659H44.3656V14.6644C44.3656 15.3049 44.522 15.7479 44.8349 15.9932C45.1613 16.2385 45.5762 16.3543 46.0794 16.3543H52.1526V19.8365H45.0661V19.8433ZM24.337 20C23.3509 20 22.2968 19.9455 21.1746 19.8433C20.0661 19.7206 19.114 19.5571 18.3183 19.3458V16.3066C19.08 16.3748 19.9981 16.4361 21.0726 16.4906C22.1608 16.5247 23.1945 16.5451 24.1602 16.5451C25.1463 16.5451 25.9216 16.4157 26.4929 16.1567C27.0642 15.8773 27.3498 15.3595 27.3498 14.5963V13.8944C27.3498 13.322 27.1798 12.8859 26.833 12.5928C26.4861 12.2794 26.0101 12.1227 25.4048 12.1227H23.7726C21.9363 12.1227 20.5286 11.7206 19.5424 10.9233C18.5699 10.1056 18.087 8.72913 18.087 6.78705V5.85349C18.087 3.97956 18.6175 2.60988 19.6716 1.74446C20.7394 0.872232 22.2764 0.44293 24.2826 0.44293C25.3368 0.44293 26.3841 0.511073 27.4246 0.654174C28.4788 0.79046 29.3697 0.940375 30.0974 1.0971V4.13629C29.3017 4.08177 28.4108 4.03407 27.4246 3.97956C26.4521 3.92504 25.5544 3.9046 24.7247 3.9046C23.827 3.9046 23.0993 4.04089 22.5416 4.32027C22.0043 4.59966 21.7391 5.17206 21.7391 6.03748V6.55537C21.7391 7.22998 21.9295 7.7138 22.3104 8.01363C22.6912 8.30664 23.2557 8.45656 23.997 8.45656H25.8944C27.6083 8.45656 28.8868 8.92675 29.7369 9.86031C30.587 10.7939 31.0087 11.9727 31.0087 13.3969V14.4872C31.0087 15.9932 30.7231 17.1516 30.1518 17.9489C29.6009 18.7462 28.8188 19.2913 27.8191 19.5843C26.8262 19.8569 25.67 20 24.337 20ZM0.404785 19.8433V0.599659H3.49238L11.5378 13.2879V0.599659H15.3803V19.8433H12.2927L4.27448 7.14821V19.8365H0.404785V19.8433Z" fill="#BE96FF"></path> </svg> 