<?xml version="1.0" encoding="UTF-8"?> <svg xmlns="http://www.w3.org/2000/svg" width="207" height="22" viewBox="0 0 207 22" fill="none"> <g clip-path="url(#clip0_217_270)"> <path fill-rule="evenodd" clip-rule="evenodd" d="M30.8855 14.2706C30.4215 16.847 29.0182 18.8016 27.0151 18.8016C25.5326 18.8016 24.9102 17.68 25.2723 15.5477L27.2075 4.99748H20.3042C20.0439 4.99748 19.8402 5.19737 19.8402 5.4528C19.8402 5.59717 19.9081 5.73044 20.0213 5.80818L20.9379 6.82988C21.119 7.04089 21.2322 7.30742 21.2322 7.58506C21.2322 7.65169 21.2209 7.71832 21.2096 7.78496L19.7949 15.6699C19.0707 19.6901 20.8474 21.6224 23.9256 21.6224C27.1735 21.6224 29.1766 19.6234 30.4894 16.5028L30.4215 16.8915C29.6972 20.7895 32.2548 21.6224 33.8279 21.6224C34.2919 21.6224 34.8124 21.478 35.2085 21.3337L38.0038 4.99748H32.5264L30.8855 14.2706ZM53.7682 5.91923C52.2517 5.21959 49.9544 4.58657 47.8382 4.58657C44.4884 4.58657 40.2672 6.19687 40.2672 10.317C40.2672 12.7602 41.7723 13.8597 43.8433 14.9147L45.8803 15.7809C47.0347 16.3251 47.7137 17.1025 47.7137 18.3241C47.7137 19.8344 46.8649 20.9339 45.0203 20.9339C44.6581 20.9339 44.2281 20.8561 43.8773 20.6784C43.7188 20.6007 43.583 20.4674 43.4925 20.312L40.3238 15.1479C40.2445 15.0257 40.1087 14.948 39.9616 14.948C39.7579 14.948 39.5882 15.0924 39.5429 15.2923L38.7394 19.5013C38.7281 19.5346 38.7281 19.579 38.7281 19.6123C38.7281 19.8566 38.8752 20.0676 39.0902 20.1676C40.7312 20.9117 42.4626 21.6446 45.1108 21.6446C48.2908 21.6446 52.9873 20.523 52.9873 16.0141C52.9873 13.6376 51.6746 12.5381 49.547 11.5053L47.3176 10.5391C46.0048 9.92832 45.3484 9.11762 45.3484 8.02928C45.3484 6.92983 46.0048 5.19738 48.0419 5.19738C48.4153 5.19738 48.7322 5.28622 48.9812 5.38617C49.1736 5.46391 49.3433 5.60828 49.4452 5.78597L52.5686 10.8168C52.6478 10.95 52.795 11.0278 52.9534 11.0278C53.1684 11.0278 53.3495 10.8723 53.3947 10.6613L54.1303 6.58556C54.1417 6.55225 54.1417 6.50782 54.1417 6.47451C54.119 6.24129 53.9832 6.01918 53.7682 5.91923ZM62.7538 18.8682C61.5089 18.8682 60.8865 17.8688 61.1468 16.3584L63.082 5.6416H67.0316H67.0429C67.224 5.6416 67.3711 5.49722 67.3711 5.31954C67.3711 5.14185 67.224 4.99748 67.0429 4.99748C67.0316 4.99748 67.0316 4.99748 67.0316 4.99748H63.2178L63.9194 1.02171C63.9194 0.999495 63.9308 0.966179 63.9308 0.943968C63.9308 0.699647 63.7271 0.510853 63.4894 0.510853C63.3875 0.510853 63.2857 0.54417 63.2065 0.610803L56.2692 4.91974C56.1674 4.97526 56.0995 5.08632 56.0768 5.19738C56.0768 5.21959 56.0655 5.2418 56.0655 5.26401C56.0655 5.47501 56.224 5.6416 56.439 5.6527L56.5182 5.66381C57.0388 5.78597 57.4122 6.24129 57.4122 6.77436C57.4122 6.84099 57.4009 6.90762 57.4009 6.97426L55.7713 16.1363C55.1149 19.7345 57.118 21.6335 60.0038 21.6335C62.3238 21.6335 64.1571 20.3009 65.2548 18.3463C65.3114 18.3019 65.3454 18.2352 65.3454 18.1686C65.3454 18.0353 65.2435 17.9354 65.1077 17.9354C65.0172 17.9354 64.938 17.9798 64.904 18.0575C64.1571 18.6128 63.4668 18.8682 62.7538 18.8682ZM79.3104 0H69.0799C68.8083 0 68.582 0.22211 68.582 0.488642C68.582 0.599697 68.6273 0.721858 68.7065 0.799596L69.6458 1.86572C69.8721 2.12115 69.974 2.47653 69.9174 2.80969L66.6468 21.1782H74.1046C74.3536 21.1782 74.5573 20.9783 74.5573 20.734C74.5573 20.5896 74.4894 20.4563 74.3762 20.3786L73.0748 19.2903C72.8145 19.0793 72.6674 18.7572 72.6674 18.4351C72.6674 18.3685 72.6787 18.3019 72.69 18.2352L75.8248 0.633014H77.4657C79.7291 0.633014 81.3361 2.96517 81.3361 6.11913C81.3361 10.0505 79.8762 13.7597 76.1982 13.7819C75.8587 13.7819 75.4061 13.7819 74.9534 13.7153C74.7723 13.6931 74.5912 13.7042 74.5573 13.8819C74.5347 14.004 74.6026 14.1151 74.7044 14.1706C75.2024 14.4705 76.119 14.5815 76.5717 14.6148C83.7806 15.1701 86.8135 11.0056 86.8135 6.69662C86.8248 2.95406 83.441 0 79.3104 0ZM100.428 4.70873C97.2476 4.70873 95.2446 6.82988 94.226 9.79505H94.1921L95.0522 4.99748H88.2168C87.9338 4.99748 87.7075 5.21959 87.7075 5.49722C87.7075 5.61938 87.7528 5.74154 87.832 5.83039L88.8052 6.90762C89.0429 7.16305 89.1448 7.51843 89.0769 7.8627L86.6777 21.1893H92.1211L93.5697 13.1156C94.1242 10.6724 95.3464 8.37355 96.5686 7.52953C96.9987 7.24079 97.5871 7.34074 97.8927 7.75164L100.099 10.7279C100.36 11.0833 100.937 10.9833 101.061 10.5613L102.691 5.00858C102.125 4.842 101.31 4.70873 100.428 4.70873ZM117.324 16.1918C117.211 16.1141 117.052 16.1474 116.973 16.2585C115.558 18.002 114.132 18.7794 112.367 18.7794C109.481 18.7794 107.84 16.9803 107.546 13.9485C112.107 13.9485 118.535 12.9823 118.535 8.83998C118.535 6.00808 115.841 4.59768 112.367 4.59768C106.561 4.59768 101.514 8.61787 101.514 14.1484C101.514 18.6239 104.796 21.6446 109.379 21.6446C112.955 21.6446 115.638 19.8344 117.426 16.5472C117.494 16.4139 117.437 16.2696 117.324 16.1918ZM107.478 12.7824C107.478 9.0843 109.277 5.09743 112.197 5.09743C113.408 5.09743 114.166 5.77486 114.166 7.11863C114.166 10.6946 110.522 13.1378 107.512 13.5487C107.478 13.3044 107.478 13.049 107.478 12.7824ZM142.594 4.58657C139.448 4.58657 137.807 6.48561 136.495 9.73953C136.891 6.23019 135.216 4.58657 132.432 4.58657C129.082 4.58657 127.543 6.67441 126.264 9.99495L127.147 5.00858H120.311C120.029 5.00858 119.802 5.23069 119.802 5.50833C119.802 5.63049 119.847 5.75265 119.927 5.84149L120.9 6.91873C121.138 7.17415 121.239 7.52953 121.172 7.8738L118.772 21.1893H124.216L125.404 14.6037C125.404 14.6037 125.97 11.7496 126.072 11.3498C126.728 8.85109 127.848 7.39626 129.467 7.39626C130.746 7.39626 131.266 8.4846 130.938 10.4836L129.037 21.2004H134.514L136.155 11.7052C136.811 9.00656 137.954 7.39626 139.629 7.39626C140.908 7.39626 141.497 8.4846 141.112 10.4836L139.969 16.9137C139.245 20.8117 141.802 21.6446 143.375 21.6446C143.828 21.6446 144.348 21.5114 144.779 21.3559L146.578 10.3503C147.121 6.38566 145.582 4.58657 142.594 4.58657ZM149.26 5.39727C149.226 5.55275 149.271 5.70823 149.384 5.83039L150.369 6.87431C150.618 7.14084 150.72 7.49621 150.663 7.85159L149.147 16.9137C148.423 20.8117 150.867 21.6446 152.44 21.6446C152.961 21.6446 153.379 21.5225 153.855 21.3559L156.627 4.99748H149.758C149.509 4.99748 149.305 5.16406 149.26 5.39727Z" fill="#3361B4"></path> <path fill-rule="evenodd" clip-rule="evenodd" d="M1.5973 13.1829C0.873019 14.1269 0.499562 15.1708 0.612731 16.6367C0.793801 18.8912 2.43475 20.1794 3.3401 20.7458C3.45327 20.8124 3.57775 20.6791 3.49853 20.5792C3.21561 20.2349 3.00059 19.8351 2.86479 19.402C2.63845 18.7135 2.96664 17.7362 3.73619 17.3586C4.25676 17.1032 4.84524 17.0032 5.37714 16.7922C6.9615 16.1703 7.45944 14.6044 6.53146 13.1829C5.45635 11.5615 2.7403 11.6726 1.5973 13.1829ZM18.4708 0.367188H11.6241C11.3977 0.367188 11.1827 0.53377 11.1374 0.75588C11.1035 0.922463 11.1601 1.11126 11.2959 1.22231L12.0767 2.11075C12.4728 2.47723 12.5294 2.92145 12.4615 3.32125L9.9831 16.7367C9.79072 17.5474 9.59833 18.4692 9.21356 19.3243C9.21356 19.3243 9.22487 19.3243 9.22487 19.3132C8.85142 20.1572 8.29689 20.9124 7.40286 21.4343C7.19915 21.5565 6.9615 21.6342 6.70121 21.712C6.57672 21.7453 6.59936 21.9119 6.72384 21.9341C7.0973 21.9896 7.66314 22.0118 7.92343 22.0118C12.8689 22.0118 15.0757 19.2354 15.9471 14.6155L18.4708 0.367188Z" fill="#3361B4"></path> <path fill-rule="evenodd" clip-rule="evenodd" d="M170.208 14.5473C169.744 17.1238 168.34 19.0894 166.337 19.0894C164.855 19.0894 164.232 17.9678 164.595 15.8355L166.53 5.28529H159.626C159.366 5.28529 159.162 5.48519 159.162 5.74062C159.162 5.88499 159.242 5.99604 159.344 6.09599L160.26 7.1177C160.498 7.37312 160.588 7.7285 160.532 8.06166L159.117 15.9577C158.393 19.9779 160.17 21.9102 163.248 21.9102C166.496 21.9102 168.499 19.9112 169.8 16.7906L169.732 17.1793C169.008 21.0773 171.566 21.9102 173.139 21.9102C173.591 21.9102 174.123 21.7659 174.519 21.6215L177.303 5.27418H171.826L170.208 14.5473ZM202.076 4.86328C198.93 4.86328 197.289 6.76232 195.976 10.0162C196.372 6.50689 194.697 4.86328 191.914 4.86328C188.564 4.86328 187.025 6.95112 185.746 10.2717L186.629 5.28529H179.793C179.51 5.28529 179.284 5.5074 179.284 5.78504C179.284 5.9072 179.329 6.02936 179.408 6.1182L180.382 7.19544C180.619 7.46197 180.721 7.80624 180.653 8.15051L178.254 21.4771H183.697L185.237 12.9148H185.271C185.859 9.62754 187.07 7.67297 188.949 7.67297C190.227 7.67297 190.748 8.77242 190.42 10.7603L188.518 21.4771H193.996L195.637 11.9819C196.293 9.28327 197.436 7.67297 199.111 7.67297C200.39 7.67297 200.978 8.77242 200.582 10.7603L199.439 17.1904C198.715 21.0884 201.273 21.9213 202.846 21.9213C203.298 21.9213 203.819 21.7881 204.26 21.6326L206.071 10.627C206.603 6.66237 205.064 4.86328 202.076 4.86328Z" fill="#3361B4"></path> </g> <defs> <clipPath id="clip0_217_270"> <rect width="205.594" height="22" fill="white" transform="translate(0.590332)"></rect> </clipPath> </defs> </svg> 