<svg width="76" height="52" viewBox="0 0 76 52" fill="none" xmlns="http://www.w3.org/2000/svg">
<path fill-rule="evenodd" clip-rule="evenodd" d="M60.8707 0.713908L59.2018 0.567728C58.0455 0.466935 56.8965 0.828576 56.0065 1.57341C55.1163 2.31824 54.5579 3.38551 54.4534 4.54137L51.8075 35.6338C51.7101 36.7911 52.0741 37.94 52.8203 38.83C53.5666 39.72 54.6344 40.2787 55.7909 40.3847L57.4549 40.5333C58.6115 40.6341 59.7607 40.2721 60.6509 39.5268C61.5411 38.7813 62.0993 37.7135 62.2033 36.5572L64.8468 5.46474C64.9442 4.30861 64.5812 3.16073 63.8364 2.27097C63.0919 1.38121 62.0257 0.821587 60.8707 0.713908Z" fill="#60A4FA"/>
<path fill-rule="evenodd" clip-rule="evenodd" d="M47.3685 0.908727L45.7045 0.760111C44.5482 0.659318 43.3992 1.02096 42.5092 1.76579C41.6192 2.51062 41.0606 3.57788 40.9561 4.73375L38.3419 35.9188C38.1372 38.3186 39.9547 40.0727 42.3545 40.2847L44.0185 40.4333C46.4183 40.6452 48.5258 39.2419 48.7304 36.8421L51.3446 5.65712C51.4455 4.50054 51.0834 3.35118 50.3381 2.46107C49.5926 1.57095 48.5248 1.0127 47.3685 0.908727Z" fill="#60A4FA"/>
<path fill-rule="evenodd" clip-rule="evenodd" d="M21.2065 0.484806C18.49 -0.0584944 15.5006 0.126667 14.4627 3.16478L0.256502 45.1038C-1.70718 50.9169 8.18675 54.1694 10.1309 48.4659L24.3372 6.53666C25.112 4.25626 23.5697 0.937964 21.2065 0.484806Z" fill="#60A4FA"/>
<path fill-rule="evenodd" clip-rule="evenodd" d="M34.0765 0.433724L32.4027 0.287544C31.2462 0.186071 30.0965 0.547401 29.206 1.2923C28.3153 2.0372 27.7564 3.10486 27.6519 4.26119L24.9013 35.9335C24.8038 37.0912 25.1683 38.2404 25.915 39.1304C26.6617 40.0204 27.7301 40.5791 28.8871 40.6843L30.5511 40.8329C31.7076 40.9338 32.8571 40.5718 33.7471 39.8265C34.6373 39.081 35.1955 38.0131 35.2995 36.8568L37.8723 5.44281C38.0769 3.04303 36.4738 0.648121 34.0765 0.433724Z" fill="#60A4FA"/>
<path fill-rule="evenodd" clip-rule="evenodd" d="M15.8172 47.55H14.9645L15.3884 46.3903L15.8172 47.55ZM16.9769 48.7877L15.727 45.6594H15.0619L13.8438 48.7877H14.5137L14.772 48.0787H16.0218L16.2923 48.7877H16.9769ZM18.7578 47.6377H19.4887V48.0349C19.2824 48.2039 19.0246 48.2977 18.7578 48.3004C18.6288 48.3085 18.4998 48.2846 18.3821 48.231C18.2644 48.1776 18.1617 48.096 18.083 47.9935C17.9176 47.7537 17.837 47.4655 17.8539 47.1748C17.8539 46.4829 18.1536 46.137 18.753 46.137C18.9093 46.1197 19.0667 46.1596 19.196 46.249C19.3254 46.3387 19.4181 46.4717 19.4571 46.6242L20.0832 46.5073C19.95 45.8965 19.5066 45.5905 18.753 45.5888C18.3494 45.5783 17.9568 45.7211 17.6542 45.9884C17.4959 46.144 17.3735 46.3324 17.2956 46.5402C17.2177 46.7482 17.1863 46.9704 17.2034 47.1919C17.1865 47.6195 17.3308 48.0378 17.6079 48.3638C17.7594 48.5216 17.9438 48.6442 18.148 48.7229C18.3522 48.8018 18.5712 48.8347 18.7895 48.8194C19.2808 48.8357 19.7594 48.661 20.1246 48.3321V47.0871H18.7578V47.6134V47.6377ZM20.7069 48.7877H23.0847V48.2614H21.3355V47.4087H22.8996V46.8825H21.3355V46.1906H23.0214V45.6594H20.7069V48.7877ZM23.6305 48.7877H24.2176V46.7485L25.4772 48.7877H26.1082V45.6594H25.5235V47.7498L24.2444 45.6619H23.6305V48.7901V48.7877ZM28.7736 47.6377C28.6713 48.0787 28.4398 48.3004 28.0792 48.3004C27.5676 48.3004 27.3118 47.9357 27.3118 47.2065C27.3118 46.4773 27.5717 46.1241 28.0914 46.1467C28.2476 46.1333 28.4028 46.1801 28.5256 46.2775C28.6483 46.3748 28.7292 46.5153 28.7517 46.6705L29.3753 46.5243C29.3152 46.2451 29.1549 45.9979 28.9244 45.829C28.6942 45.6602 28.4098 45.5815 28.1255 45.6083C27.9238 45.5973 27.7223 45.6319 27.5359 45.7096C27.3495 45.7871 27.1829 45.9058 27.0487 46.0566C26.778 46.3938 26.6411 46.8187 26.6637 47.2504C26.6564 47.6475 26.7777 48.0363 27.0097 48.3589C27.1727 48.548 27.3836 48.6893 27.6205 48.7677C27.8573 48.8464 28.1109 48.8593 28.3545 48.8055C28.5982 48.7514 28.8228 48.6325 29.0041 48.4612C29.1856 48.29 29.3171 48.0726 29.3851 47.8327L28.7736 47.6377ZM30.7446 48.7877H31.3731V47.477L32.5207 45.6594H31.7898L31.071 46.8995L30.3401 45.6594H29.6092L30.7543 47.4696V48.7877H30.7446ZM34.0117 48.7877H34.594V46.327L35.2104 48.7877H35.8121L36.4334 46.327V48.7877H37.0303V45.6594H36.0826L35.5222 47.7937L34.957 45.6594H34.0141V48.7877H34.0117ZM37.654 48.7877H40.0319V48.2614H38.285V47.4087H39.854V46.8825H38.285V46.1906H39.9539V45.6594H37.6369V48.7877H37.654ZM41.1964 46.1906H41.4815C41.6929 46.1798 41.9049 46.2013 42.11 46.2539C42.2448 46.3063 42.3532 46.4096 42.4121 46.5414C42.505 46.757 42.5459 46.9916 42.5315 47.226C42.5315 47.6377 42.4682 47.9131 42.3391 48.0519C42.2472 48.1311 42.1403 48.1906 42.0245 48.2266C41.909 48.2627 41.787 48.2744 41.6666 48.2614H41.1964V46.1906ZM40.5654 45.6594V48.7877H41.7519C42.7069 48.7877 43.1845 48.2768 43.1845 47.2552C43.1949 46.9293 43.1309 46.605 42.9969 46.3075C42.9019 46.0829 42.7286 45.9004 42.5096 45.7934C42.2582 45.696 41.9897 45.6504 41.7202 45.6594H40.5654ZM43.6961 48.7877H44.3295V45.6594H43.6961V48.7877ZM46.5831 47.55H45.7304L46.1544 46.3903L46.5831 47.55ZM47.7453 48.7877L46.493 45.6594H45.8279L44.6097 48.7877H45.2797L45.538 48.0787H46.7756L47.046 48.7877H47.7453ZM49.2534 48.7877H49.8381V46.327L50.4545 48.7877H51.0636L51.6848 46.327V48.7877H52.2695V45.6594H51.3242L50.7614 47.7937L50.1865 45.6594H49.2436V48.7877H49.2534ZM54.5524 47.55H53.6997L54.1236 46.3903L54.5524 47.55ZM55.7145 48.7877L54.4622 45.6594H53.7971L52.579 48.7877H53.2489L53.5072 48.0787H54.757L55.0275 48.7877H55.7145ZM56.689 46.9848V46.1906H57.1763C57.3953 46.1718 57.6161 46.1984 57.8244 46.2685C57.8697 46.3092 57.9053 46.3596 57.9286 46.4157C57.9523 46.472 57.963 46.5326 57.9601 46.5933C57.9574 46.6542 57.9411 46.7136 57.9126 46.7675C57.8841 46.8211 57.8439 46.8679 57.7951 46.9044C57.5878 46.9721 57.3695 46.9994 57.1519 46.9848H56.689ZM56.0605 48.7877H56.689V47.4794H56.8157C56.9505 47.4701 57.0854 47.4952 57.208 47.5525C57.2989 47.609 57.3761 47.6845 57.4346 47.7742L58.1119 48.7877H58.8671L58.47 48.1762C58.3055 47.867 58.0668 47.6034 57.7756 47.4087C58.3263 47.3291 58.6016 47.0384 58.6016 46.5365C58.6179 46.4045 58.5981 46.2705 58.5441 46.1491C58.49 46.0276 58.4037 45.9231 58.2946 45.847C58.0098 45.7038 57.6918 45.639 57.3736 45.6594H56.0337V48.7877H56.0605ZM59.2277 48.7877H59.8563V47.8424L60.3703 47.321L61.2279 48.7828H62.0441L60.804 46.8752L61.9807 45.657H61.1012L59.827 47.0457V45.657H59.2009V48.7853L59.2277 48.7877ZM62.3681 48.7877H64.7435V48.2614H62.9991V47.4087H64.5681V46.8825H62.9991V46.1906H64.6851V45.6594H62.3681V48.7877ZM65.9836 48.7877H66.6146V46.1906H67.538V45.6594H65.0286V46.1906H65.9544V48.7877H65.9836ZM67.9327 48.7877H68.5661V45.6594H67.9327V48.7877ZM69.1679 48.7877H69.7575V46.7485L71.0171 48.7877H71.6262V45.6594H71.039V47.7498L69.7599 45.6619H69.146V48.7901L69.1679 48.7877ZM73.7653 47.6377H74.4962V48.0349C74.2896 48.2032 74.0318 48.297 73.7653 48.3004C73.6388 48.3072 73.5124 48.2839 73.3967 48.2322C73.2812 48.1806 73.1793 48.1021 73.1002 48.0032C72.9347 47.7635 72.8543 47.4752 72.8711 47.1846C72.8711 46.4927 73.1715 46.1467 73.7726 46.1467C73.929 46.1299 74.0859 46.1701 74.2153 46.2595C74.3444 46.3489 74.4372 46.4817 74.4767 46.634L75.1028 46.517C74.9696 45.9062 74.5261 45.6002 73.7726 45.5985C73.3682 45.5881 72.9749 45.7308 72.6714 45.9981C72.514 46.1543 72.3922 46.3428 72.3149 46.5507C72.2375 46.7585 72.206 46.9804 72.2231 47.2016C72.206 47.6292 72.3505 48.0475 72.6275 48.3735C72.7786 48.5314 72.9625 48.6539 73.1664 48.7326C73.3701 48.8113 73.5886 48.8445 73.8067 48.8291C74.2988 48.8459 74.7783 48.6712 75.1442 48.3418V47.0969H73.7823L73.7653 47.6377Z" fill="black"/>
<path fill-rule="evenodd" clip-rule="evenodd" d="M34.8743 35.188C37.1182 41.1034 27.0025 44.4217 24.9999 38.5501L14.414 6.53675C13.9268 5.07496 14.1704 3.15026 15.106 1.90773C17.228 -0.930596 22.9558 -0.733254 24.3616 3.38902L34.8743 35.188Z" fill="#1379F9"/>
<path fill-rule="evenodd" clip-rule="evenodd" d="M48.3039 35.1879C50.5428 41.1228 40.3736 44.2534 38.4294 38.55L27.8436 6.5366C27.4625 5.39158 27.491 4.1498 27.924 3.02342C29.2493 -0.874715 36.2245 -1.21093 37.7935 3.38887L48.3039 35.1879Z" fill="#1379F9"/>
<path fill-rule="evenodd" clip-rule="evenodd" d="M61.6925 35.1879C63.9169 41.0594 53.7623 44.2534 51.8181 38.55L41.2322 6.5366C40.8512 5.39158 40.8797 4.1498 41.3126 3.02342C42.638 -0.874715 49.6132 -1.21093 51.1798 3.38887L61.6925 35.1879Z" fill="#1379F9"/>
<path fill-rule="evenodd" clip-rule="evenodd" d="M75.1613 35.1879C77.1298 41.0083 67.231 44.2534 65.2868 38.55L54.701 6.5366C54.3199 5.39158 54.3484 4.1498 54.7814 3.02342C56.1067 -0.874715 63.082 -1.21093 64.6509 3.38887L75.1613 35.1879Z" fill="#F3C444"/>
</svg>
