<svg width="139" height="28" viewBox="0 0 139 28" fill="none" xmlns="http://www.w3.org/2000/svg">
<path d="M4.0418 1.15991C3.4825 2.05478 -0.264765 17.2116 0.014882 17.4354C0.574176 17.9947 1.91648 16.932 2.08427 15.7575C2.25206 14.583 2.58763 14.4711 5.9434 14.3033C9.63474 14.1355 9.69067 14.1355 10.25 15.8693C10.5855 16.7642 11.2567 17.5472 11.7041 17.5472C12.7668 17.5472 12.7668 17.2116 12.0956 14.9745C11.2008 12.178 9.29916 5.63426 8.68394 3.11744C8.12464 0.936195 7.95685 0.768408 6.16711 0.768408C5.10446 0.768408 4.15366 0.936195 4.0418 1.15991ZM7.90093 7.25622C8.62801 9.66118 9.24323 11.8424 9.24323 12.0661C9.24323 12.3458 7.845 12.5136 6.16711 12.5136C4.48923 12.5136 3.091 12.4017 3.091 12.2339C3.091 10.6679 5.60782 2.44629 6.05526 2.61408C6.39083 2.72594 7.22977 4.79532 7.90093 7.25622Z" fill="black"/>
<path d="M24.4555 9.21379L24.6233 17.1558L28.7061 17.0998C30.9992 17.0998 32.9568 16.932 33.1245 16.7643C33.9076 15.9812 32.3415 15.3101 29.601 15.3101H26.5808V8.31892C26.5808 1.66332 26.5249 1.32775 25.4622 1.32775C24.3436 1.32775 24.3436 1.60739 24.4555 9.21379Z" fill="black"/>
<path d="M44.4785 3.84451C44.4785 5.96982 44.6463 6.36133 45.5412 6.36133C46.492 6.36133 46.6038 5.96982 46.5479 3.84451C46.436 1.83105 46.2123 1.32768 45.4852 1.32768C44.6463 1.32768 44.4785 1.83105 44.4785 3.84451Z" fill="black"/>
<path d="M59.5801 9.10189C59.5801 14.0237 59.8038 17.0439 60.1953 17.2676C61.1461 17.8828 61.4257 17.2116 61.4817 14.0796L61.5376 11.1153H63.7748C65.9001 11.1153 66.0679 11.2272 67.4102 13.9118C69.2559 17.5472 69.8152 17.9947 71.3252 16.9879C72.0523 16.4846 71.9964 16.3168 71.1015 15.5897C70.4863 15.1423 69.5914 13.8559 69.0881 12.6814C68.1932 10.612 68.1932 10.5001 69.5355 8.59852C70.4863 7.20029 70.766 6.19356 70.5422 4.96311C69.9829 2.16664 68.4169 1.3277 63.7189 1.3277H59.5801V9.10189ZM67.8576 3.67674C68.2491 4.06824 68.5288 5.01904 68.5288 5.80205C68.5288 7.92737 67.5221 8.59852 64.3341 8.59852H61.4817L61.5935 5.91391C61.6495 4.45975 61.7054 3.2293 61.7613 3.11744C61.985 2.67001 67.2983 3.11744 67.8576 3.67674Z" fill="black"/>
<path d="M83.6289 9.4933C83.6289 16.7082 83.7408 17.6031 84.5238 17.3234C85.0271 17.1556 87.2643 16.9878 89.5574 16.9878C92.8573 16.9878 93.6962 16.82 93.6962 16.1489C93.6962 15.4777 92.8573 15.31 89.4456 15.31H85.2509L85.4186 12.6253L85.5864 9.99666L88.9981 9.94073C90.8997 9.8848 92.7454 9.71701 93.081 9.4933C94.5911 8.5425 93.3606 8.03913 89.5015 8.03913H85.3068V5.52231V3.00549H89.5015C92.8573 3.00549 93.6962 2.8377 93.6962 2.16655C93.6962 1.49539 92.7454 1.32761 88.6626 1.32761H83.6289V9.4933Z" fill="black"/>
<path d="M106.56 2.16664C106.56 2.83779 107.287 3.00558 109.915 3.00558C111.761 3.00558 113.271 3.17336 113.271 3.34115C113.271 3.56487 111.761 6.19355 109.915 9.26967C108.07 12.2899 106.56 15.31 106.56 15.8693C106.56 17.0439 106.727 17.0439 114.781 17.2116C115.844 17.2676 116.403 16.932 116.515 16.2608C116.683 15.31 116.347 15.2541 113.047 15.366C111.034 15.4219 109.244 15.366 109.076 15.2541C108.965 15.0863 110.475 12.2339 112.432 8.87816C114.446 5.5224 116.068 2.44628 116.068 2.05478C116.068 1.49548 114.837 1.32769 111.314 1.32769C107.454 1.32769 106.56 1.49548 106.56 2.16664Z" fill="black"/>
<path d="M128.932 9.32561V17.2676H133.797C137.992 17.2676 138.719 17.1557 138.887 16.2608C139.055 15.4219 138.551 15.31 134.86 15.31H130.61V12.5136V9.71711H134.525C137.657 9.71711 138.44 9.54932 138.44 8.87817C138.44 8.20702 137.657 8.03923 134.525 8.03923H130.61V5.52241V3.00559H134.804C138.16 3.00559 138.999 2.8378 138.999 2.16665C138.999 1.49549 138.048 1.3277 133.965 1.3277H128.932V9.32561Z" fill="black"/>
<path d="M45.0385 24.2587C43.0251 24.4824 39.6693 24.7062 37.4881 24.7621C35.3627 24.818 33.0137 24.9858 32.3426 25.1536C28.4834 26.2163 32.9019 26.4959 50.5196 26.384C61.2021 26.3281 68.0255 26.1603 65.7324 25.9366C63.4393 25.7129 62.1529 25.5451 62.9359 25.4332C63.7189 25.3773 65.7883 25.2095 67.634 25.0417C69.5356 24.818 71.0457 24.9299 71.2694 25.2655C71.4931 25.601 71.8846 25.4892 72.3321 25.0417C72.9473 24.3706 72.1083 24.2587 66.6832 24.2587C63.1596 24.2587 57.6786 24.1469 54.4906 24.035C51.3026 23.9232 47.052 23.9791 45.0385 24.2587Z" fill="black"/>
<path d="M73.5615 24.8179C73.5615 25.0976 73.8412 25.3772 74.1208 25.3772C74.4564 25.3772 74.6801 25.0976 74.6801 24.8179C74.6801 24.4823 74.4564 24.2586 74.1208 24.2586C73.8412 24.2586 73.5615 24.4823 73.5615 24.8179Z" fill="black"/>
<path d="M75.2393 25.0976C75.2393 25.545 75.3511 25.9365 75.463 25.9365C75.5748 25.9365 75.7986 25.545 76.0223 25.0976C76.1901 24.6501 76.0782 24.2586 75.7986 24.2586C75.463 24.2586 75.2393 24.6501 75.2393 25.0976Z" fill="black"/>
<path d="M77.8685 25.1536C78.0363 25.657 78.3718 25.7689 78.5396 25.4892C78.9311 24.874 80.8327 24.9299 81.8954 25.657C82.3987 25.9367 82.5665 25.8807 82.2869 25.4892C82.1191 25.2096 82.2869 24.8181 82.6225 24.6503C83.014 24.5384 82.0632 24.3706 80.4412 24.3706C78.0363 24.3147 77.5888 24.4825 77.8685 25.1536Z" fill="black"/>
<path d="M84.748 24.8179C84.748 25.0976 85.0277 25.3772 85.3073 25.3772C85.6429 25.3772 85.8666 25.0976 85.8666 24.8179C85.8666 24.4823 85.6429 24.2586 85.3073 24.2586C85.0277 24.2586 84.748 24.4823 84.748 24.8179Z" fill="black"/>
<path d="M104.603 25.9366C104.771 26.2162 106.561 26.4958 108.574 26.4958C110.867 26.4958 112.098 26.2721 111.874 25.9366C111.706 25.601 109.916 25.3773 107.903 25.3773C105.61 25.3773 104.379 25.601 104.603 25.9366Z" fill="black"/>
<path d="M12.0397 26.3281C10.9771 26.384 8.46025 26.6637 6.44679 26.8315C3.65032 27.1111 3.09103 27.2789 4.04183 27.6704C4.71298 27.8941 6.72644 27.8941 8.51618 27.6145C10.3059 27.3348 15.6192 26.9993 20.3173 26.8874C25.0154 26.7196 29.0423 26.4959 29.2101 26.2722C29.5456 25.9366 15.6751 25.9366 12.0397 26.3281Z" fill="black"/>
<path d="M114.391 26.4959C114.391 26.7755 114.67 27.0552 114.95 27.0552C115.285 27.0552 115.509 26.7755 115.509 26.4959C115.509 26.1603 115.285 25.9366 114.95 25.9366C114.67 25.9366 114.391 26.1603 114.391 26.4959Z" fill="black"/>
<path d="M116.852 26.5519C116.74 26.7756 120.599 27.1111 125.465 27.3349C130.275 27.5026 134.526 27.7264 134.805 27.7264C137.042 27.8382 138.441 27.5026 138.441 26.8874C138.441 26.3841 135.924 26.2163 127.758 26.2163C121.886 26.2163 116.964 26.3841 116.852 26.5519Z" fill="black"/>
</svg>
