<svg width="145" height="48" viewBox="0 0 145 48" fill="none" xmlns="http://www.w3.org/2000/svg">
<path d="M5.88852 42.9575L4.53901 38.958L3.20577 42.9575L2.60418 44.7386L2.11641 46.1959C1.97008 46.6331 1.54734 46.9407 1.09208 46.9407C0.327908 46.9407 -0.192383 46.1959 0.0677622 45.4834L3.15699 37.2255C3.36836 36.6588 3.92117 36.2701 4.53901 36.2701C5.15686 36.2701 5.70967 36.6588 5.92103 37.2255L9.02652 45.4834C9.28666 46.1959 8.76637 46.9407 8.0022 46.9407C7.53068 46.9407 7.12421 46.6493 6.97787 46.2121L6.4901 44.7548L5.88852 42.9575Z" fill="black"/>
<path d="M24.8788 42.9575L23.5292 38.958L22.196 42.9575L21.5944 44.7386L21.1066 46.1959C20.9603 46.6331 20.5376 46.9407 20.0823 46.9407C19.3181 46.9407 18.7979 46.1959 19.058 45.4834L22.1472 37.2255C22.3586 36.6588 22.9114 36.2701 23.5292 36.2701C24.1471 36.2701 24.6999 36.6588 24.9113 37.2255L28.0168 45.4834C28.2769 46.1959 27.7566 46.9407 26.9924 46.9407C26.5209 46.9407 26.1144 46.6493 25.9681 46.2121L25.4803 44.7548L24.8788 42.9575Z" fill="black"/>
<path d="M41.9198 42.9252L40.5703 38.9258L39.237 42.9252L38.6354 44.7064L38.1477 46.1637C38.0013 46.6009 37.5786 46.9085 37.1233 46.9085C36.3592 46.9085 35.8389 46.1637 36.099 45.4512L39.1882 37.1932C39.3996 36.6265 39.9524 36.2379 40.5703 36.2379C41.1881 36.2379 41.7409 36.6265 41.9523 37.1932L45.0578 45.4512C45.3179 46.1637 44.7976 46.9085 44.0334 46.9085C43.5619 46.9085 43.1554 46.617 43.0091 46.1799L42.5213 44.7226L41.9198 42.9252Z" fill="black"/>
<path d="M79.3944 42.9575L78.0449 38.958L76.7116 42.9575L76.11 44.7386L75.6223 46.1959C75.4759 46.6331 75.0532 46.9407 74.5979 46.9407C73.8338 46.9407 73.3135 46.1959 73.5736 45.4834L76.6628 37.2255C76.8742 36.6588 77.427 36.2701 78.0449 36.2701C78.6627 36.2701 79.2155 36.6588 79.4269 37.2255L82.5324 45.4834C82.7925 46.1959 82.2722 46.9407 81.5081 46.9407C81.0365 46.9407 80.6301 46.6493 80.4837 46.2121L79.996 44.7548L79.3944 42.9575Z" fill="black"/>
<path d="M13.9713 44.2854L16.1501 37.0638C16.2964 36.578 16.7354 36.2542 17.2394 36.2542C18.0198 36.2542 18.5727 37.0314 18.3125 37.76L15.4834 45.8399C15.2558 46.4875 14.638 46.9247 13.9551 46.9247C13.2722 46.9247 12.6543 46.4875 12.4267 45.8399L9.6139 37.76C9.35375 37.0152 9.90656 36.2542 10.687 36.2542C11.191 36.2542 11.63 36.578 11.7764 37.0638L13.9713 44.2854Z" fill="black"/>
<path d="M35.7548 38.0351H33.3648V46.0502C33.3648 46.5359 32.9583 46.9407 32.4705 46.9407H32.0478C31.56 46.9407 31.1535 46.5359 31.1535 46.0502V38.0513H28.8122C28.3244 38.0513 27.918 37.6465 27.918 37.1607C27.918 36.6749 28.3244 36.2701 28.8122 36.2701H35.7548C36.2426 36.2701 36.6491 36.6749 36.6491 37.1607C36.6491 37.6465 36.2589 38.0351 35.7548 38.0351Z" fill="black"/>
<path d="M51.1541 43.0224H49.3981V45.8399C49.3981 46.439 48.9103 46.9247 48.3087 46.9247H48.2925C47.6909 46.9247 47.2031 46.439 47.2031 45.8399V37.3876C47.2031 36.7561 47.7072 36.2542 48.3413 36.2542H51.1866C52.4548 36.2542 53.4304 36.5294 54.1132 37.0961C54.7961 37.6629 55.1376 38.4563 55.1376 39.4764C55.1376 40.205 54.975 40.8041 54.6661 41.2899C54.3409 41.7756 53.8694 42.1643 53.219 42.4557C53.723 43.4434 54.2433 44.4311 54.7636 45.4189C55.1213 46.0989 54.6173 46.9247 53.8368 46.9247C53.4304 46.9247 53.0564 46.698 52.8613 46.3418L51.1541 43.0224ZM49.3818 41.2413H51.1703C51.7232 41.2413 52.1459 41.0956 52.4548 40.8203C52.7637 40.5451 52.9101 40.1564 52.9101 39.6545C52.9101 39.1525 52.7637 38.7639 52.4873 38.4725C52.1947 38.181 51.7557 38.0353 51.1703 38.0353H49.3981V41.2413H49.3818Z" fill="black"/>
<path d="M87.8998 43.0224H86.1438V45.8399C86.1438 46.439 85.6561 46.9247 85.0545 46.9247H85.022C84.4204 46.9247 83.9326 46.439 83.9326 45.8399V37.3876C83.9326 36.7561 84.4529 36.2542 85.0708 36.2542H87.9161C89.1843 36.2542 90.1598 36.5294 90.8427 37.0961C91.5256 37.6629 91.867 38.4563 91.867 39.4764C91.867 40.205 91.7044 40.8041 91.3955 41.2899C91.0703 41.7756 90.5988 42.1643 89.9647 42.4557C90.485 43.4434 90.989 44.4311 91.5093 45.4189C91.867 46.0989 91.363 46.9247 90.5826 46.9247C90.1761 46.9247 89.8021 46.698 89.607 46.3418L87.8998 43.0224ZM86.1438 41.2413H87.9323C88.4851 41.2413 88.9079 41.0956 89.2168 40.8203C89.5257 40.5451 89.6721 40.1564 89.6721 39.6545C89.6721 39.1525 89.5257 38.7639 89.2331 38.4725C88.9404 38.181 88.5014 38.0353 87.9161 38.0353H86.1438V41.2413V41.2413Z" fill="black"/>
<path d="M63.8368 37.3874L66.1943 44.01L68.5357 37.4036C68.7795 36.7235 69.4136 36.2701 70.129 36.2701C71.0721 36.2701 71.8362 37.0312 71.8362 37.9703V45.8558C71.8362 46.4711 71.3485 46.9569 70.7306 46.9569C70.1128 46.9569 69.625 46.4711 69.625 45.8558V44.0423L69.8526 39.0066L67.2187 46.2606C67.0561 46.6816 66.6496 46.9731 66.2106 46.9731C65.7716 46.9731 65.3489 46.6816 65.2025 46.2606L62.5686 39.0228L62.7962 44.0585V45.872C62.7962 46.4873 62.3084 46.9731 61.6906 46.9731C61.0727 46.9731 60.585 46.4873 60.585 45.872V37.9865C60.585 37.0636 61.3491 36.3025 62.2759 36.3025C62.9588 36.2539 63.6092 36.7073 63.8368 37.3874Z" fill="black"/>
<path d="M97.0385 42.65L95.8841 43.8806V45.8237C95.8841 46.439 95.3963 46.9247 94.7785 46.9247C94.1606 46.9247 93.6729 46.439 93.6729 45.8237V37.3552C93.6729 36.7399 94.1606 36.2542 94.7785 36.2542C95.3963 36.2542 95.8841 36.7399 95.8841 37.3552V41.0956L96.8596 39.7678L99.266 36.659C99.4611 36.3999 99.77 36.2542 100.095 36.2542C100.989 36.2542 101.477 37.2743 100.924 37.9705L98.4855 40.9984L101.282 45.2407C101.754 45.9694 101.233 46.9247 100.372 46.9247C99.9976 46.9247 99.6562 46.7304 99.4448 46.4228L97.0385 42.65Z" fill="black"/>
<path d="M108.826 42.3098H105.444V45.1758H109.557C110.029 45.1758 110.419 45.5644 110.419 46.034V46.0825C110.419 46.5521 110.029 46.9407 109.557 46.9407H104.094C103.623 46.9407 103.232 46.5521 103.232 46.0825V37.1283C103.232 36.6587 103.623 36.2701 104.094 36.2701H109.541C110.012 36.2701 110.403 36.6587 110.403 37.1283V37.1931C110.403 37.6627 110.012 38.0513 109.541 38.0513H105.444V40.5934H108.826C109.297 40.5934 109.687 40.982 109.687 41.4516C109.687 41.9212 109.313 42.3098 108.826 42.3098Z" fill="black"/>
<path d="M119.052 38.0351H116.662V46.0502C116.662 46.5359 116.255 46.9407 115.767 46.9407H115.345C114.857 46.9407 114.45 46.5359 114.45 46.0502V38.0513H112.109C111.621 38.0513 111.215 37.6465 111.215 37.1607C111.215 36.6749 111.621 36.2701 112.109 36.2701H119.052C119.54 36.2701 119.946 36.6749 119.946 37.1607C119.946 37.6465 119.54 38.0351 119.052 38.0351Z" fill="black"/>
<path d="M122.451 46.9407C121.833 46.9407 121.346 46.455 121.346 45.8397V37.3712C121.346 36.7559 121.833 36.2701 122.451 36.2701C123.069 36.2701 123.557 36.7559 123.557 37.3712V45.8397C123.557 46.4388 123.053 46.9407 122.451 46.9407Z" fill="black"/>
<path d="M132.904 46.9409C132.416 46.9409 131.961 46.6818 131.701 46.2608L127.815 39.9136V45.8399C127.815 46.439 127.327 46.9409 126.709 46.9409C126.108 46.9409 125.604 46.4552 125.604 45.8399V37.6629C125.604 36.8856 126.238 36.2542 127.018 36.2542C127.506 36.2542 127.961 36.5132 128.221 36.9342L132.123 43.2977V37.3552C132.123 36.7561 132.611 36.2542 133.229 36.2542C133.847 36.2542 134.335 36.7399 134.335 37.3552V45.5322C134.318 46.3094 133.684 46.9409 132.904 46.9409Z" fill="black"/>
<path d="M144.723 45.5806C144.317 46.0502 143.764 46.4226 143.032 46.6817C142.3 46.9408 141.504 47.0703 140.626 47.0703C139.699 47.0703 138.886 46.876 138.187 46.4712C137.488 46.0664 136.951 45.4835 136.561 44.7063C136.187 43.9452 135.992 43.0385 135.976 42.0022V41.2735C135.976 40.2049 136.154 39.2819 136.512 38.5047C136.87 37.7275 137.39 37.1284 138.073 36.7236C138.756 36.3188 139.553 36.1083 140.463 36.1083C141.731 36.1083 142.723 36.4159 143.439 37.015C143.812 37.3227 144.105 37.7275 144.317 38.1809C144.642 38.8609 144.121 39.6543 143.357 39.6543C142.934 39.6543 142.544 39.4115 142.398 39.0228C142.284 38.7314 142.122 38.4885 141.91 38.3104C141.569 38.0189 141.113 37.8894 140.528 37.8894C139.78 37.8894 139.211 38.1647 138.821 38.7314C138.431 39.2981 138.236 40.1239 138.219 41.2412V41.9212C138.219 43.0385 138.431 43.8805 138.853 44.4634C139.276 45.0463 139.91 45.3216 140.723 45.3216C141.552 45.3216 142.138 45.1435 142.496 44.7872V42.9413H141.292C140.837 42.9413 140.479 42.5851 140.479 42.1317C140.479 41.6783 140.837 41.3221 141.292 41.3221H144.707L144.723 45.5806Z" fill="black"/>
<path d="M85.8314 13.3583C85.8314 20.7419 79.8318 26.7168 72.4176 26.7168C65.0035 26.7168 59.0039 20.7419 59.0039 13.3583C59.0039 5.97476 65.0035 -0.00012207 72.4176 -0.00012207C79.8318 -0.00012207 85.8314 5.99095 85.8314 13.3583Z" fill="#0075F5"/>
<path d="M64.6776 6.18518C65.5231 5.79657 66.6124 6.12041 67.1327 7.01097L70.3032 13.3421L71.1162 14.9289C71.3926 15.4632 71.8966 15.7223 72.4169 15.7223C72.9372 15.7223 73.4412 15.447 73.7177 14.9289L74.5306 13.3421L77.7011 6.99478C78.2214 6.12041 79.2945 5.78037 80.1562 6.16898C81.0993 6.60617 81.522 7.83677 80.9692 8.84068L77.7987 14.9775L73.7989 22.9764C73.5225 23.5431 72.9535 23.8184 72.4169 23.786C71.8641 23.8022 71.3113 23.5431 71.0349 22.9764L67.0352 14.9775L63.8647 8.84068C63.3118 7.85296 63.7346 6.62236 64.6776 6.18518Z" fill="#E8ECF5"/>
<path d="M64.6815 6.18507C63.7385 6.62226 63.3157 7.85286 63.8686 8.85676L71.0388 14.7831L67.1204 6.99467C66.7464 6.36318 66.0798 6.00696 65.4294 6.00696C65.1693 6.02315 64.9091 6.07173 64.6815 6.18507Z" fill="url(#paint0_linear_161_636)"/>
<path d="M77.7046 6.99484L73.7861 14.7832L80.9726 8.85693C81.5255 7.85302 81.1027 6.62242 80.1597 6.18524C79.9158 6.07189 79.6719 6.02332 79.3955 6.02332C78.7451 6.02332 78.0785 6.36335 77.7046 6.99484Z" fill="url(#paint1_linear_161_636)"/>
<defs>
<linearGradient id="paint0_linear_161_636" x1="67.331" y1="6.30726" x2="67.331" y2="14.5221" gradientUnits="userSpaceOnUse">
<stop stop-color="#F1F3EE"/>
<stop offset="0.1911" stop-color="#E4EAEF"/>
<stop offset="0.7077" stop-color="#C6D5F0"/>
<stop offset="1" stop-color="#BBCDF1"/>
</linearGradient>
<linearGradient id="paint1_linear_161_636" x1="77.5057" y1="6.29639" x2="77.5057" y2="14.5025" gradientUnits="userSpaceOnUse">
<stop stop-color="#F1F3EE"/>
<stop offset="0.1911" stop-color="#E4EAEF"/>
<stop offset="0.7077" stop-color="#C6D5F0"/>
<stop offset="1" stop-color="#BBCDF1"/>
</linearGradient>
</defs>
</svg>
