<svg width="101" height="41" viewBox="0 0 101 41" fill="none" xmlns="http://www.w3.org/2000/svg">
<path fill-rule="evenodd" clip-rule="evenodd" d="M82.5221 27.8001C80.5823 27.2144 78.964 26.4566 77.8334 25.5379L79.9284 20.7611C81.07 21.5993 82.4334 22.3457 83.9741 22.8509C85.5148 23.3562 87.122 23.6088 88.6627 23.6088C90.4362 23.6088 91.7331 23.3562 92.5422 22.7706C93.3514 22.2653 93.8391 21.5189 93.8391 20.5888C93.8391 19.9228 93.5952 19.4176 93.1075 18.9927C92.6198 18.5793 91.9769 18.2348 91.2454 17.9822C90.4362 17.7296 89.4719 17.3966 88.0974 17.1439C86.0801 16.6387 84.3731 16.1335 83.165 15.6397C81.8681 15.1344 80.7375 14.3881 79.8508 13.2168C78.964 12.1259 78.4763 10.6217 78.4763 8.78441C78.4763 7.18828 78.8864 5.76441 79.6956 4.43239C80.4937 3.18076 81.7905 2.08988 83.4864 1.33201C85.1823 0.574144 87.2107 0.16076 89.6271 0.16076C91.334 0.16076 92.9412 0.413384 94.5595 0.826768C96.1778 1.24015 97.6299 1.83726 98.8491 2.66403L96.987 7.53277C94.5595 6.10889 92.0545 5.35102 89.6271 5.35102C87.9312 5.35102 86.6454 5.60365 85.8363 6.18927C85.0271 6.7749 84.617 7.53277 84.617 8.4514C84.617 9.37003 85.1047 10.1279 86.0801 10.5413C87.0444 10.9547 88.4965 11.4599 90.4362 11.8848C92.4646 12.39 94.1605 12.8953 95.4463 13.389C96.7431 13.8943 97.8737 14.6407 98.7605 15.7316C99.6472 16.8224 100.135 18.2463 100.135 20.0836C100.135 21.6797 99.7359 23.1036 98.8491 24.3552C98.04 25.6068 96.7431 26.6977 95.0472 27.4556C93.3514 28.2134 91.334 28.6268 88.8179 28.6268C86.4791 28.6383 84.4618 28.3857 82.5221 27.8001ZM62.1493 5.85627V28.2134H68.301V5.85627H76.7804V0.666007H53.6698V5.85627H62.1493ZM44.4478 17.4081L40.2468 6.85528L36.0348 17.4081H44.4478ZM46.3875 22.2653H34.1062L31.7563 28.1216H25.4494L37.2541 0.585627H43.3172L55.1995 28.1331H48.7374L46.3875 22.2653ZM7.0274 26.7896C4.84381 25.5379 3.14792 23.8614 1.85107 21.6797C0.642885 19.5094 0 17.075 0 14.3192C0 11.5518 0.642885 9.12889 1.86215 6.94714C3.07033 4.77688 4.85489 3.10038 7.0274 1.83726C9.21099 0.585627 11.716 0 14.3873 0C16.6485 0 18.7545 0.413384 20.6056 1.25163C22.4677 2.08988 23.9974 3.26114 25.2942 4.85726L21.3371 8.62364C19.5637 6.4419 17.2914 5.44289 14.6312 5.44289C13.0129 5.44289 11.5608 5.77589 10.264 6.53376C8.96714 7.29163 8.00281 8.29064 7.27125 9.63414C6.53969 10.9776 6.21825 12.4819 6.21825 14.1584C6.21825 15.8349 6.53969 17.3392 7.27125 18.6827C8.00281 20.0261 8.96714 21.0252 10.264 21.783C11.5608 22.5409 13.0129 22.8739 14.6312 22.8739C17.3025 22.8739 19.4861 21.783 21.3371 19.6128L25.2942 23.3792C23.9974 24.9753 22.4677 26.2269 20.6056 27.0652C18.7434 27.9034 16.6485 28.3168 14.3873 28.3168C11.6384 28.6383 9.21099 28.0412 7.0274 26.7896Z" fill="black"/>
<path d="M7.27097 36.1709H6.30664V40.5229H7.27097V36.1709Z" fill="black"/>
<path fill-rule="evenodd" clip-rule="evenodd" d="M13.6558 36.1709V40.5229H12.8467L10.7518 37.9278V40.5229H9.77637V36.1709H10.5855L12.6915 38.766V36.1709H13.6558Z" fill="black"/>
<path d="M17.7017 37.8474H16.0059V38.6053H17.7017V37.8474Z" fill="black"/>
<path d="M21.0155 36.1709H20.04V40.5229H21.0155V36.1709Z" fill="black"/>
<path fill-rule="evenodd" clip-rule="evenodd" d="M27.3109 40.443V37.8478L26.1027 40.0181H25.7036L24.4844 37.9282V40.443H23.5977V36.0795H24.4068L25.9364 38.7665L27.4771 36.0795H28.2863V40.443H27.3109Z" fill="black"/>
<path fill-rule="evenodd" clip-rule="evenodd" d="M33.2197 38.7665L32.5769 37.09L31.934 38.7665H33.2197ZM33.4636 39.5129H31.5239L31.1248 40.4315H30.1494L32.0116 36.0795H32.987L34.8491 40.4315H33.7961L33.4636 39.5129Z" fill="black"/>
<path fill-rule="evenodd" clip-rule="evenodd" d="M39.6045 38.2612H40.4912V40.0181C40.2585 40.1903 40.0146 40.3511 39.6821 40.4315C39.3607 40.5119 39.1168 40.6037 38.7954 40.6037C38.3963 40.6037 37.9862 40.5233 37.6648 40.3511C37.3433 40.1789 37.0219 39.9377 36.8556 39.5129C36.6894 39.1798 36.5342 38.755 36.5342 38.3416C36.5342 37.9282 36.6118 37.5033 36.8556 37.1703C37.0219 36.8373 37.3433 36.5847 37.6648 36.3321C37.9862 36.1598 38.3963 36.0795 38.873 36.0795C39.272 36.0795 39.5934 36.1598 39.8373 36.2517C40.1587 36.424 40.4026 36.5847 40.5688 36.8373L39.9149 37.423C39.5934 37.09 39.272 36.9177 38.873 36.9177C38.6291 36.9177 38.3852 36.9981 38.1414 37.09C37.8975 37.1703 37.7424 37.3426 37.6537 37.5952C37.5761 37.8478 37.4874 38.0086 37.4874 38.3531C37.4874 38.6057 37.565 38.8583 37.6537 39.1109C37.7313 39.3636 37.8975 39.444 38.1414 39.6162C38.3852 39.6966 38.5515 39.7884 38.873 39.7884C39.1168 39.7884 39.4382 39.7081 39.5934 39.6162V38.2612H39.6045Z" fill="black"/>
<path fill-rule="evenodd" clip-rule="evenodd" d="M46.1555 39.6847V40.5229H42.9189V36.1709H46.0558V37.0091H43.8944V37.9278H45.8341V38.6742H43.8944V39.6847H46.1555Z" fill="black"/>
<path fill-rule="evenodd" clip-rule="evenodd" d="M55.4439 36.1709V40.5229H54.6348L52.5399 37.9278V40.5229H51.5645V36.1709H52.3736L54.4796 38.766V36.1709H55.4439Z" fill="black"/>
<path fill-rule="evenodd" clip-rule="evenodd" d="M61.1848 39.6847V40.5229H57.9482V36.1709H61.1072V37.0091H58.9126V37.9278H60.8523V38.6742H58.9126V39.6847H61.1848Z" fill="black"/>
<path fill-rule="evenodd" clip-rule="evenodd" d="M64.3334 36.9177H62.959V36.0795H66.5946V36.9177H65.2202V40.443H64.2558V36.9177H64.3334Z" fill="black"/>
<path fill-rule="evenodd" clip-rule="evenodd" d="M74.8398 36.1709L73.4653 40.5229H72.4123L71.5256 37.5948L70.5502 40.5229H69.4971L68.1338 36.1709H69.0981L70.0735 39.1794L71.0379 36.1709H71.9357L72.9 39.2598L73.8754 36.1709H74.8398Z" fill="black"/>
<path fill-rule="evenodd" clip-rule="evenodd" d="M79.6076 39.5125C79.7739 39.4322 79.9291 39.2599 80.0953 39.0073C80.2616 38.7547 80.2616 38.5939 80.2616 38.2494C80.2616 37.9164 80.1729 37.7442 80.0953 37.4916C80.0178 37.2389 79.8515 37.1586 79.6076 36.9863C79.4525 36.9059 79.2086 36.8141 78.9648 36.8141C78.7209 36.8141 78.477 36.8944 78.3219 36.9863C78.1556 37.0667 77.9893 37.2389 77.8342 37.4916C77.7566 37.7442 77.6679 37.9049 77.6679 38.2494C77.6679 38.5824 77.7566 38.7547 77.8342 39.0073C77.9118 39.2599 78.078 39.3403 78.3219 39.5125C78.477 39.5929 78.7209 39.6848 78.9648 39.6848C79.1975 39.6848 79.3638 39.6044 79.6076 39.5125ZM77.7566 40.2704C77.424 40.0982 77.1026 39.857 76.9474 39.4322C76.7812 39.0992 76.626 38.6743 76.626 38.2609C76.626 37.8475 76.7036 37.4227 76.9474 37.0897C77.1026 36.7567 77.424 36.504 77.7566 36.2514C78.078 36.0792 78.477 35.9988 78.9648 35.9988C79.4525 35.9988 79.7739 36.0792 80.0953 36.2514C80.4168 36.4236 80.7382 36.6648 80.9045 37.0897C81.0708 37.4227 81.2259 37.8475 81.2259 38.2609C81.2259 38.6743 81.1483 39.0992 80.9045 39.4322C80.7382 39.7652 80.4168 40.0178 80.0953 40.2704C79.7739 40.4427 79.3638 40.523 78.9648 40.523C78.5657 40.523 78.078 40.4427 77.7566 40.2704Z" fill="black"/>
<path fill-rule="evenodd" clip-rule="evenodd" d="M85.8352 37.1703C85.6689 36.9981 85.4251 36.9981 85.1812 36.9981H84.3721V38.5023H85.1812C85.5138 38.5023 85.6689 38.422 85.8352 38.3301C85.9904 38.1579 86.0791 37.9971 86.0791 37.7445C86.068 37.423 85.9904 37.2507 85.8352 37.1703ZM86.068 40.443L85.2588 39.2717H84.4608V40.443H83.4854V36.0909H85.2699C85.6689 36.0909 85.9904 36.1713 86.2342 36.2632C86.4781 36.3436 86.7219 36.5962 86.8771 36.7684C87.0434 36.9407 87.121 37.2737 87.121 37.6067C87.121 37.9397 87.0434 38.1923 86.8771 38.4449C86.7219 38.6976 86.5557 38.8698 86.2342 38.9502L87.2096 40.3741H86.0791V40.443H86.068Z" fill="black"/>
<path fill-rule="evenodd" clip-rule="evenodd" d="M90.8353 38.7665L90.2811 39.3521V40.443H89.3057V36.0795H90.2811V38.089L92.1321 36.0795H93.1851L91.4893 38.0086L93.3514 40.443H92.2208L90.8353 38.7665Z" fill="black"/>
</svg>
