<svg width="168" height="42" viewBox="0 0 168 42" fill="none" xmlns="http://www.w3.org/2000/svg">
<path fill-rule="evenodd" clip-rule="evenodd" d="M35.9136 27.5319L32.8582 20.78L37.5403 13.568L35.7989 0L24.4533 10.0797C23.5357 9.89778 21.3458 9.52326 18.9683 9.57677H18.5825C16.184 9.53397 14.0046 9.89778 13.087 10.0797L1.74145 0L0 13.568L4.68211 20.78L1.61632 27.5319L2.69039 27.6924C2.69039 27.6924 2.69039 27.6924 2.70082 27.6924L2.30456 29.169L3.00323 29.4258C10.3549 32.1544 17.8942 40.7788 17.9672 40.8644L18.2071 41.1426H19.3333L19.5731 40.8644C19.6461 40.7788 27.1854 32.1544 34.5371 29.4258L35.2358 29.169L34.8395 27.6924L35.9136 27.5319ZM27.2584 29.811L31.0542 28.8694C26.9352 31.0309 23.1186 34.4336 20.5429 37.023H16.9974C14.4217 34.4336 10.6051 31.0309 6.48613 28.8694L10.2819 29.811L7.07009 27.4142C6.95539 27.3286 5.90217 26.5688 4.31714 26.1408L9.52064 14.6701L5.3495 18.3831L2.07515 13.3433L2.72167 8.34623L5.03666 10.3044L6.6217 7.0622L5.51634 5.61766L12.7846 12.0699L13.1704 11.9843C13.1913 11.9736 15.7357 11.3851 18.572 11.4493H18.9787C21.7734 11.3958 24.3386 11.9843 24.3699 11.9843L24.7558 12.0699L32.024 5.61766L30.9291 7.0729L32.5141 10.3151L34.8186 8.34623L35.4652 13.3433L32.1908 18.3831L28.0197 14.6701L33.2232 26.1408C31.6381 26.5688 30.5849 27.3286 30.4702 27.4142L27.2584 29.811Z" fill="black"/>
<path fill-rule="evenodd" clip-rule="evenodd" d="M23.3279 25.2432C23.2744 26.201 23.0607 27.2762 23.0286 27.3935L22.8896 28.0484L25.4762 27.1003L25.5403 26.9537C25.7541 26.4552 26.9298 24.6372 27.5924 23.6304L28.3834 22.438L23.3386 25.0379L23.3279 25.2432Z" fill="black"/>
<path fill-rule="evenodd" clip-rule="evenodd" d="M14.2009 25.2383L14.1903 25.0425L9.15527 22.438L9.95533 23.6325C10.6167 24.6312 11.7901 26.4622 12.0035 26.9517L12.0675 27.0986L14.649 28.0484L14.5103 27.3923C14.4676 27.2749 14.2543 26.1978 14.2009 25.2383Z" fill="black"/>
<path fill-rule="evenodd" clip-rule="evenodd" d="M43.9492 31.7909V18.7001H54.0209V21.8815H47.4302V24.1033H53.3889V27.1178H47.4302V31.7909H43.9492Z" fill="black"/>
<path fill-rule="evenodd" clip-rule="evenodd" d="M55.8525 25.2405C55.8525 24.3477 56.0255 23.5051 56.3816 22.7026C56.7376 21.9001 57.2158 21.1979 57.816 20.616C58.4163 20.0342 59.1488 19.5628 60.0034 19.2217C60.8579 18.8806 61.7634 18.7001 62.7401 18.7001C63.7167 18.7001 64.612 18.8706 65.4666 19.2117C66.3212 19.5527 67.0435 20.0142 67.6437 20.596C68.244 21.1778 68.7221 21.87 69.068 22.6825C69.4139 23.485 69.5869 24.3377 69.5869 25.2405C69.5869 26.1333 69.4139 26.9759 69.0579 27.7884C68.7018 28.5909 68.2236 29.2931 67.6234 29.8749C67.0231 30.4567 66.2906 30.9282 65.4361 31.2693C64.5815 31.6103 63.676 31.7909 62.7095 31.7909C61.4175 31.7909 60.2475 31.5 59.1996 30.9182C58.1518 30.3364 57.3277 29.5439 56.7376 28.5508C56.1476 27.5477 55.8525 26.4442 55.8525 25.2405ZM59.4743 25.2405C59.4743 26.1734 59.7795 26.9759 60.4001 27.6379C61.0207 28.31 61.7939 28.6411 62.7401 28.6411C63.6964 28.6411 64.4797 28.31 65.08 27.648C65.6904 26.9859 65.9854 26.1834 65.9854 25.2304C65.9854 24.2975 65.6802 23.495 65.0596 22.833C64.439 22.1709 63.6557 21.8298 62.6994 21.8298C61.7532 21.8298 60.98 22.1609 60.3798 22.8229C59.7795 23.485 59.4743 24.2875 59.4743 25.2405Z" fill="black"/>
<path fill-rule="evenodd" clip-rule="evenodd" d="M70.5039 31.7909L74.8272 25.136L70.6752 18.7001H74.7062L76.9435 22.3926L79.2008 18.7001H83.1412L78.9791 25.0942L83.3226 31.7909H79.2915L76.8628 27.848L74.4342 31.7909H70.5039Z" fill="black"/>
<path fill-rule="evenodd" clip-rule="evenodd" d="M90.6455 31.7805V18.7001H95.4768C96.5771 18.7001 97.5773 18.8564 98.4676 19.1795C99.3578 19.5026 100.108 19.9508 100.698 20.524C101.298 21.0973 101.748 21.7852 102.068 22.5877C102.389 23.3903 102.549 24.2658 102.549 25.2246C102.549 26.1627 102.389 27.0382 102.068 27.8407C101.748 28.6433 101.278 29.3312 100.678 29.9148C100.078 30.4985 99.3278 30.9571 98.4175 31.2906C97.5173 31.6241 96.507 31.7909 95.3967 31.7909H90.6455V31.7805ZM94.1164 28.6016H95.5368C96.5871 28.6016 97.4373 28.3097 98.0574 27.7156C98.6876 27.1216 98.9977 26.2982 98.9977 25.2351C98.9977 24.1928 98.6876 23.3798 98.0574 22.7857C97.4273 22.1917 96.5871 21.8894 95.5368 21.8894H94.1164V28.6016Z" fill="black"/>
<path d="M108.042 18.7001H104.38V31.7909H108.042V18.7001Z" fill="black"/>
<path fill-rule="evenodd" clip-rule="evenodd" d="M109.873 24.7571C109.873 23.7905 110.051 22.8777 110.406 22.0185C110.762 21.1593 111.253 20.4183 111.87 19.7954C112.497 19.1725 113.24 18.6785 114.118 18.3133C114.996 17.9482 115.927 17.7656 116.931 17.7656C118.039 17.7656 119.022 17.9375 119.869 18.2704C120.716 18.6033 121.51 19.0973 122.242 19.7525L120.109 22.3837C119.618 21.9648 119.126 21.6534 118.624 21.4386C118.123 21.2345 117.568 21.1271 116.941 21.1271C116 21.1271 115.195 21.4815 114.557 22.1903C113.909 22.8992 113.585 23.7691 113.585 24.8001C113.585 25.8955 113.919 26.8084 114.589 27.5172C115.258 28.2367 116.105 28.5911 117.15 28.5911C117.997 28.5911 118.698 28.3978 119.252 28.0112V26.3143H116.648V23.6402H122.692V29.7295C121.05 31.1042 119.158 31.7915 117.004 31.7915C115.655 31.7915 114.442 31.4908 113.355 30.9002C112.267 30.3095 111.42 29.4718 110.793 28.3978C110.176 27.3239 109.873 26.1103 109.873 24.7571Z" fill="black"/>
<path d="M128.186 18.7001H124.523V31.7909H128.186V18.7001Z" fill="black"/>
<path fill-rule="evenodd" clip-rule="evenodd" d="M130.018 21.8815V18.7001H141.005V21.8815H137.243V31.7909H133.78V21.8815H130.018Z" fill="black"/>
<path fill-rule="evenodd" clip-rule="evenodd" d="M141.921 31.7909L147.503 18.7001H150.999L156.571 31.7909H152.679L151.719 29.471H146.669L145.74 31.7909H141.921ZM147.733 26.6644H150.675L149.215 22.967L147.733 26.6644Z" fill="black"/>
<path fill-rule="evenodd" clip-rule="evenodd" d="M157.486 31.7909V18.7001H161.153V28.6095H167.558V31.7909H157.486Z" fill="black"/>
</svg>
