<svg width="124" height="40" viewBox="0 0 124 40" fill="none" xmlns="http://www.w3.org/2000/svg">
<path d="M18.2096 4.97728V17.2384C18.2096 19.6663 19.0593 21.1231 19.9091 21.7301V21.8515H12.5039V21.7301C13.2323 21.2445 14.0821 19.6663 14.0821 17.2384V11.7755H5.82706V16.9956C5.82706 19.5449 6.67684 21.0017 7.40522 21.6087V21.7301H0V21.6087C0.728382 21.1231 1.69956 19.5449 1.69956 16.9956V4.85588C1.69956 2.30654 0.849779 0.849783 0 0.242798V0.364193H7.40522C6.67684 0.849781 5.82706 2.42795 5.82706 4.97728V8.74059H13.9607V4.97728C13.9607 2.42795 13.1109 0.971178 12.3825 0.364193H19.7877C19.0593 0.971178 18.2096 2.42795 18.2096 4.97728Z" fill="black"/>
<path d="M43.5813 21.7298L36.6616 21.8512V21.7298C37.1472 21.3656 37.39 20.0302 36.6616 17.9665L36.4188 17.4809H28.2852L28.1638 17.9665C27.3141 20.1516 27.6783 21.3656 28.0424 21.7298V21.8512H21.6084V21.7298C22.4582 21.0014 23.7935 19.059 24.5219 16.7525L29.135 4.0058C29.742 2.18485 29.135 0.84948 28.528 0.363892H36.6616C36.0546 0.84948 35.4477 2.18485 36.0546 4.0058L40.5463 16.7525C41.3961 19.059 42.7315 21.0014 43.5813 21.7298ZM30.7132 10.9254L29.4992 14.4459H35.5691L34.3551 10.9254C33.6267 8.98308 32.8983 6.79794 32.5341 4.49139H32.4127C32.0485 6.79794 31.3202 8.86168 30.7132 10.9254Z" fill="black"/>
<path d="M86.9198 21.7301L80.0002 21.8515V21.7301C80.4858 21.3659 80.7286 20.0305 80.0002 17.9668L79.7574 17.4812H71.6238V17.9668C70.774 20.1519 71.1382 21.3659 71.5024 21.7301V21.8515H65.0684V21.7301C65.9181 21.0017 67.2535 19.0593 67.9819 16.7528L72.4736 4.0061C73.0806 2.18515 72.4736 0.849781 71.8666 0.364193V0.242798H80.0002V0.364193C79.3932 0.849781 78.7862 2.18515 79.3932 4.0061L83.8849 16.7528C84.7347 19.0593 86.07 21.0017 86.9198 21.7301ZM74.0517 10.9257L72.8378 14.4462H78.9076L77.6937 10.9257C76.9653 8.98338 76.2369 6.79824 75.8727 4.49169H75.7513C75.3871 6.79824 74.6587 8.86198 74.0517 10.9257Z" fill="black"/>
<path d="M64.585 21.2445L58.2724 22.4584C57.9082 21.2445 57.4226 20.1519 56.6942 19.0593L51.9597 10.9257H53.4165C56.0872 10.9257 57.544 9.83316 57.544 7.16242C57.544 4.85588 56.0872 3.52051 53.4165 3.52051H51.2314V17.3598C51.2314 19.7877 52.0811 21.2445 52.8095 21.8515V21.9729H45.4043V21.8515C46.2541 21.3659 47.1039 19.7877 47.1039 17.2384V4.85588C47.1039 2.42794 46.2541 0.971178 45.4043 0.364193V0.242798H54.1449C59.0008 0.242798 61.9143 2.79214 61.9143 6.79824C61.9143 10.076 60.3361 12.0183 57.7868 12.8681L60.5789 17.4812C61.7929 19.5449 63.1283 20.7589 64.585 21.2445Z" fill="black"/>
<path d="M103.793 5.70566C103.065 4.49169 101.608 3.39912 99.7873 3.39912H97.4808V16.8742C97.4808 19.5449 98.3306 21.1231 99.3017 21.7301V21.8515H91.4109V21.7301C92.2607 21.2445 93.2319 19.5449 93.2319 16.8742V3.52051H90.9254C89.1044 3.52051 87.6476 4.61309 86.9192 5.82706H86.7979L87.2834 0.242798C88.7402 0.485592 89.9542 0.485588 91.4109 0.485588H98.8162C100.273 0.485588 101.608 0.364195 102.944 0.242798L103.793 5.70566Z" fill="black"/>
<path d="M110.23 21.0017L109.744 15.7816H109.866C111.686 18.2095 113.629 19.0593 116.178 19.0593C118.606 18.9379 119.699 17.9668 119.699 16.2672C119.699 14.0821 117.878 13.3537 115.693 12.5039C113.022 11.4113 110.108 10.076 110.108 5.82706C110.108 2.79213 112.658 0 117.392 0C118.97 0 120.427 0.242794 122.248 0.606985L122.612 5.70566H122.491C121.155 3.64191 119.456 3.15632 117.635 3.15632C115.328 3.15632 114.114 4.0061 114.114 5.58427C114.114 7.40522 115.814 8.1336 117.756 8.86198C120.427 9.95455 123.705 11.4113 123.705 16.0244C123.705 19.4235 121.155 22.2157 116.178 22.337C113.872 22.337 111.565 21.8515 110.23 21.0017Z" fill="black"/>
<path d="M105.98 5.70536C105.98 5.82676 105.98 6.55514 105.98 6.67653L108.043 6.31235V5.70536L108.286 2.06345C108.408 1.33507 108.408 0.84948 108.529 0.363892H105.494C105.616 0.84948 105.737 1.33507 105.737 2.06345L105.98 5.70536Z" fill="#C48F02"/>
<path d="M1.57715 39.0895V30.4703H2.91252V39.0895H1.57715Z" fill="#C48F02"/>
<path d="M18.2103 39.0895L16.9964 35.569H16.268V39.0895H14.9326V30.4703H17.1178C18.6959 30.4703 19.3029 31.1987 19.3029 33.0197C19.3029 34.1122 19.0601 34.8406 18.3317 35.2048L19.5457 38.9681L18.2103 39.0895ZM17.1178 31.8057H16.268V34.355H17.1178C17.8461 34.355 17.9675 33.7481 17.9675 33.0197C17.9675 32.4127 17.8461 31.8057 17.1178 31.8057Z" fill="#C48F02"/>
<path d="M31.5635 39.0895V30.4703H32.8988V39.0895H31.5635Z" fill="#C48F02"/>
<path d="M48.8007 38.6039C48.4365 38.9681 47.8295 39.2109 47.1012 39.2109C46.3728 39.2109 45.7658 38.9681 45.4016 38.6039C45.1588 38.2397 44.916 37.7542 44.916 36.783H46.2514C46.2514 37.2686 46.2514 37.5114 46.4942 37.7542C46.6156 37.8756 46.8584 37.9969 47.1012 37.9969C47.344 37.9969 47.5867 37.8756 47.7081 37.7542C47.8295 37.5114 47.9509 37.2686 47.9509 36.783C47.9509 35.9332 47.8295 35.6904 47.1012 35.4476L46.13 34.962C45.2802 34.5978 44.916 34.1122 44.916 32.7769C44.916 32.0485 45.1588 31.4415 45.6444 30.9559C46.0086 30.5917 46.4942 30.4703 47.1012 30.4703C47.8295 30.4703 48.3151 30.5917 48.5579 30.9559C49.0435 31.4415 49.1649 32.0485 49.1649 32.7769H47.8295C47.8295 32.4127 47.8295 32.0485 47.5868 31.9271C47.4654 31.8057 47.344 31.6843 46.9798 31.6843C46.737 31.6843 46.4942 31.8057 46.3728 31.9271C46.2514 32.0485 46.13 32.4127 46.13 32.7769C46.13 33.5053 46.2514 33.6267 46.8584 33.9908L47.8295 34.355C48.8007 34.8406 49.1649 35.3262 49.1649 36.783C49.4077 37.6328 49.2863 38.2397 48.8007 38.6039Z" fill="#C48F02"/>
<path d="M64.3406 39.0895V35.3262H62.641V39.0895H61.3057V30.4703H62.641V34.1122H64.3406V30.4703H65.676V39.0895H64.3406Z" fill="#C48F02"/>
<path d="M87.649 35.8116H86.7992V39.2107H85.4639V30.5916H87.649C89.2272 30.5916 89.8342 31.4413 89.8342 33.2623C89.8342 34.9618 89.2272 35.8116 87.649 35.8116ZM87.649 31.8055H86.9206V34.5976H87.649C88.3774 34.5976 88.4988 34.1121 88.4988 33.2623C88.4988 32.2911 88.3774 31.8055 87.649 31.8055Z" fill="#C48F02"/>
<path d="M105.617 38.6038C105.253 39.0893 104.646 39.2107 104.039 39.2107C103.432 39.2107 102.825 38.9679 102.461 38.6038C102.096 38.2396 101.854 37.6326 101.854 37.0256V30.5916H103.189V37.147C103.189 37.754 103.553 38.1182 104.039 38.1182C104.524 38.1182 104.888 37.8754 104.888 37.147V30.5916H106.224V37.0256C106.224 37.6326 105.981 38.2396 105.617 38.6038Z" fill="#C48F02"/>
<path d="M122.005 38.6039C121.641 38.9681 121.156 39.0895 120.306 39.0895H118.242V30.4703H120.306C121.156 30.4703 121.641 30.5917 122.005 30.9559C122.37 31.3201 122.491 31.8057 122.491 32.6555C122.491 33.2625 122.37 33.7481 122.005 34.1122C121.884 34.2336 121.763 34.355 121.52 34.355C121.641 34.4764 121.884 34.5978 122.005 34.5978C122.37 34.962 122.491 35.569 122.491 36.2974C122.612 37.6328 122.491 38.1183 122.005 38.6039ZM120.306 31.8057H119.699V34.1122H120.306C121.034 34.1122 121.277 33.7481 121.277 32.8983C121.277 32.0485 121.034 31.8057 120.306 31.8057ZM120.306 35.2048H119.699V37.8756H120.306C121.034 37.8756 121.277 37.5114 121.277 36.5402C121.277 35.569 121.034 35.2048 120.306 35.2048Z" fill="#C48F02"/>
</svg>
