<svg width="136" height="17" viewBox="0 0 136 17" fill="none" xmlns="http://www.w3.org/2000/svg">
<path fill-rule="evenodd" clip-rule="evenodd" d="M0 0.0663827H5.26221V5.92013H14.665V0.0663827H19.8615V16.4991H14.665V9.58325H5.20254V16.4327H0V0.0663827ZM20.4582 0.0663827H25.5891L30.9826 6.38481L36.3104 0.0663827H41.3757L33.5481 10.1143V16.4991H28.3515V9.64963L20.4582 0.0663827ZM42.038 0.0663827H47.2346V12.7756H55.5873C56.8998 12.7756 57.759 11.448 57.759 10.0479V0.0663827H62.9556V13.1739C62.9556 15.2378 60.6526 16.4327 59.34 16.4327H42.038V0.0663827ZM64.0712 0.0663827H81.3733C83.4137 0.0663827 85.0544 1.32765 85.0544 3.89244V16.4629L79.8579 16.4931V6.52361C79.8579 5.12957 79.3985 4.29677 77.6205 4.29677H69.7929V16.5414H64.0712V0.0663827ZM86.6355 0.0663827H101.76C104.785 0.0663827 107.123 2.52858 107.123 4.4235V11.973C107.088 13.3007 105.25 16.4931 102.947 16.4931H86.6355V0.0663827ZM91.9275 12.842H99.9103C101.062 12.842 101.951 11.9791 101.951 10.9109V6.11928C101.951 4.95456 101.002 4.26056 99.791 4.26056H91.9275V12.842ZM113.537 0H129.753V16.4991H123.966V12.2446H114.003V16.4991H108.15V5.78736C108.006 2.19666 111.169 0 113.537 0ZM113.931 5.85978V8.51509H123.93V4.32091H115.506C114.522 4.32091 113.931 4.92439 113.931 5.85978ZM130.803 0.0362087H136V17H130.803V0.0362087Z" fill="#295BA7"/>
</svg>
