<svg width="153" height="18" viewBox="0 0 153 18" fill="none" xmlns="http://www.w3.org/2000/svg">
<path fill-rule="evenodd" clip-rule="evenodd" d="M152.936 2.59854H147.866V5.07035H147.169V1.90137H153V2.59854H152.936ZM147.105 10.6478V9.82382L148.436 9.31678V6.71822L147.105 6.21118V5.45063L152.936 7.60553V8.49285L147.105 10.6478ZM151.986 8.04919L149.134 7.03512V9.12664L151.986 8.04919ZM150.084 14.6407C149.957 14.8942 149.767 15.1477 149.514 15.2745C149.324 15.4646 149.007 15.4646 148.69 15.4646C148.183 15.4646 147.803 15.2745 147.549 14.9576C147.232 14.6407 147.042 14.2604 147.042 13.7534V11.2816H152.873V13.6266C152.873 14.0703 152.683 14.4505 152.429 14.7674C152.112 15.0843 151.795 15.2745 151.288 15.2745C150.781 15.2745 150.401 15.0209 150.084 14.6407ZM152.176 13.6266V12.1055H150.338V13.6266C150.338 13.8167 150.464 14.0703 150.591 14.197C150.718 14.3238 150.972 14.4505 151.225 14.4505C151.415 14.4505 151.669 14.3238 151.859 14.197C152.112 14.0703 152.176 13.8801 152.176 13.6266ZM147.803 12.1055V13.8801C147.803 14.1336 147.929 14.3872 148.056 14.5139C148.246 14.7041 148.436 14.7674 148.69 14.7674C148.943 14.7674 149.197 14.6407 149.324 14.5139C149.514 14.3238 149.577 14.1336 149.577 13.8801V12.1689H147.803V12.1055Z" fill="black"/>
<path fill-rule="evenodd" clip-rule="evenodd" d="M0 17.4294V0.316898H3.92954V17.366L0 17.4294ZM16.5421 9.6337V0.316898H20.4716V17.366H17.4928L10.8379 8.11259V17.366H6.90838V0.316898H9.88722L16.5421 9.6337ZM33.0842 9.6337V0.316898H37.0137V17.366H34.0349L27.38 8.11259V17.366H23.4505V0.316898H26.4293L33.0842 9.6337ZM54.5699 15.2111C52.7952 16.9224 50.7037 17.7463 48.2319 17.7463C45.6967 17.7463 43.6052 16.859 41.8939 15.2111C40.1193 13.4999 39.2954 11.4083 39.2954 8.87315C39.2954 6.40134 40.1827 4.24644 41.8939 2.53519C43.6052 0.887315 45.6967 0 48.1685 0C50.7037 0 52.7952 0.887315 54.5065 2.53519C56.2811 4.24644 57.105 6.33796 57.105 8.87315C57.1684 11.345 56.2811 13.4999 54.5699 15.2111ZM43.1615 8.87315C43.1615 10.3943 43.6686 11.5985 44.5559 12.5492C45.5066 13.4999 46.7108 13.9435 48.1685 13.9435C49.5629 13.9435 50.7671 13.4365 51.7178 12.5492C52.7318 11.5985 53.1755 10.3943 53.1755 8.87315C53.1755 7.41542 52.6685 6.14782 51.7178 5.19713C50.7671 4.24643 49.6262 3.80278 48.1685 3.80278C46.7742 3.80278 45.57 4.30981 44.5559 5.19713C43.6686 6.14782 43.1615 7.35204 43.1615 8.87315ZM67.8796 17.4294L73.5204 0.380278H69.2105L65.4078 12.9294L61.605 0.380278H57.2952L62.936 17.4294H67.8796ZM89.2385 17.4294H84.9287L84.0414 14.7041H77.64L76.7527 17.4294H72.4429L78.2738 0.380278H83.2808L89.2385 17.4294ZM80.8724 4.81685L78.8443 11.0914H82.9005L80.8724 4.81685ZM88.2878 0.316898V4.0563H92.7244V17.366H96.6539V4.11968H101.09V0.316898H88.2878ZM102.865 17.4294V0.316898H106.795V17.366L102.865 17.4294ZM124.351 15.2111C122.576 16.9224 120.485 17.7463 118.013 17.7463C115.478 17.7463 113.386 16.859 111.675 15.2111C109.9 13.4999 109.076 11.4083 109.076 8.87315C109.076 6.40134 109.964 4.24644 111.675 2.53519C113.386 0.887315 115.478 0 118.013 0C120.548 0 122.64 0.887315 124.351 2.53519C126.125 4.24644 126.949 6.33796 126.949 8.87315C126.949 11.345 126.125 13.4999 124.351 15.2111ZM112.942 8.87315C112.942 10.3943 113.45 11.5985 114.337 12.5492C115.288 13.4999 116.492 13.9435 117.949 13.9435C119.344 13.9435 120.548 13.4365 121.499 12.5492C122.513 11.5985 122.956 10.3943 122.956 8.87315C122.956 7.41542 122.449 6.14782 121.499 5.19713C120.548 4.24643 119.344 3.80278 117.949 3.80278C116.555 3.80278 115.351 4.30981 114.337 5.19713C113.386 6.14782 112.942 7.35204 112.942 8.87315ZM138.801 9.6337V0.316898H142.731V17.366H139.752L133.097 8.11259V17.366H129.168V0.316898H132.147L138.801 9.6337Z" fill="black"/>
</svg>
