<svg width="147" height="32" viewBox="0 0 147 32" fill="none" xmlns="http://www.w3.org/2000/svg">
<path d="M0 30.7118V0H4.55276V26.7764H19.7543V30.6347H0V30.7118Z" fill="black"/>
<path d="M32.0228 31.0977C29.8622 31.0977 28.0102 30.6347 26.4669 29.7859C24.9236 28.8599 23.689 27.6253 22.8401 26.0048C21.9913 24.3843 21.5283 22.378 21.5283 20.1402C21.5283 17.9024 21.9913 15.8961 22.8401 14.2757C23.689 12.6552 24.9236 11.3434 26.4669 10.4946C28.0102 9.56857 29.8622 9.18274 32.0228 9.18274C34.1063 9.18274 35.9582 9.64573 37.5016 10.4946C39.0449 11.4205 40.2795 12.6552 41.1283 14.2757C41.9771 15.8961 42.4401 17.9024 42.4401 20.1402C42.4401 22.378 41.9771 24.3843 41.1283 26.0048C40.2795 27.6253 39.0449 28.9371 37.5016 29.7859C35.9582 30.6347 34.1063 31.0977 32.0228 31.0977ZM32.0228 27.7024C33.7976 27.7024 35.2638 27.0851 36.3441 25.7733C37.4244 24.4615 37.9645 22.6095 37.9645 20.1402C37.9645 17.6709 37.4244 15.819 36.3441 14.5072C35.2638 13.1953 33.7976 12.578 32.0228 12.578C30.1708 12.578 28.7047 13.1953 27.6244 14.5072C26.5441 15.819 26.0039 17.6709 26.0039 20.1402C26.0039 22.6095 26.5441 24.4615 27.6244 25.7733C28.7047 27.0079 30.1708 27.7024 32.0228 27.7024Z" fill="black"/>
<path d="M55.8676 31.0976C53.7069 31.0976 51.7778 30.6346 50.2345 29.7086C48.6912 28.7826 47.4565 27.4708 46.5306 25.8504C45.6817 24.1527 45.2188 22.2236 45.2188 19.9858C45.2188 16.5905 46.1447 13.9669 48.0739 12.0378C50.003 10.1086 52.5495 9.10547 55.7904 9.10547C57.1022 9.10547 58.414 9.33696 59.7258 9.79996C61.0377 10.2629 62.118 10.8803 62.9668 11.7291L61.5778 14.8157C60.729 14.0441 59.8802 13.5039 58.877 13.1181C57.8739 12.7322 56.9479 12.5779 56.0991 12.5779C54.0156 12.5779 52.4723 13.1952 51.3148 14.507C50.2345 15.8189 49.6172 17.6708 49.6172 19.9858C49.6172 22.3779 50.1573 24.2299 51.3148 25.5417C52.3951 26.8535 54.0156 27.548 56.0991 27.548C56.9479 27.548 57.8739 27.3937 58.877 27.0078C59.8802 26.622 60.729 26.0819 61.5778 25.3102L62.9668 28.474C62.118 29.2456 61.0377 29.863 59.7258 30.326C58.4912 30.8661 57.1794 31.0976 55.8676 31.0976Z" fill="black"/>
<path d="M65.9766 30.712V9.4143H70.2207V13.1954C71.301 10.6489 73.6159 9.25997 77.0884 8.95131L78.5545 8.87415L78.8632 12.5781L76.2396 12.9639C72.3813 13.3497 70.4522 15.356 70.4522 18.9056V30.712H65.9766Z" fill="black"/>
<path d="M89.2019 31.0979C84.0318 31.0979 81.4854 28.2428 81.4854 22.5325V9.41443H85.8838V22.5325C85.8838 24.2302 86.2696 25.542 86.9641 26.3136C87.6586 27.1625 88.7389 27.5483 90.2822 27.5483C91.9027 27.5483 93.2917 27.0081 94.2948 25.9278C95.298 24.8475 95.8381 23.3814 95.8381 21.4522V9.41443H100.237V30.7121H95.9924V27.3168C95.298 28.5514 94.372 29.4774 93.2145 30.1719C91.9798 30.7121 90.668 31.0979 89.2019 31.0979Z" fill="black"/>
<path d="M105.33 30.7119V9.41429H109.574V12.8867C110.191 11.6521 111.117 10.7261 112.198 10.0316C113.355 9.33712 114.667 9.02846 116.133 9.02846C119.374 9.02846 121.458 10.4174 122.461 13.2726C123.155 11.9607 124.081 10.8804 125.316 10.1088C126.551 9.33712 128.017 8.95129 129.56 8.95129C134.344 8.95129 136.659 11.8064 136.659 17.5167V30.6348H132.261V17.8253C132.261 16.0505 131.952 14.7387 131.335 13.8899C130.717 13.0411 129.714 12.6552 128.248 12.6552C126.628 12.6552 125.393 13.1954 124.467 14.3529C123.541 15.4332 123.078 16.9765 123.078 18.9056V30.7119H118.757V17.8253C118.757 16.0505 118.448 14.7387 117.831 13.8899C117.214 13.0411 116.21 12.6552 114.821 12.6552C113.201 12.6552 111.966 13.1954 111.04 14.3529C110.114 15.4332 109.651 16.9765 109.651 18.9056V30.7119H105.33Z" fill="black"/>
<path d="M141.83 30.712V25.5419H147V30.712H141.83Z" fill="black"/>
</svg>
