<svg width="155" height="17" viewBox="0 0 155 17" fill="none" xmlns="http://www.w3.org/2000/svg">
<path d="M19.7923 16.4498H16.9981L16.9205 16.1393C16.7652 15.596 16.9981 15.5184 18.24 15.5184C18.8609 15.5184 19.4042 15.4408 19.4818 15.3632C19.5594 15.2856 19.5594 13.4228 19.5594 9.46429V3.64303L18.5504 5.42822C18.0071 6.43724 16.9981 8.45528 16.2219 9.93C15.4458 11.4047 14.592 13.1123 14.2815 13.6556C13.971 14.1989 13.5053 14.9751 13.2725 15.4408C13.0396 15.8289 12.8068 16.217 12.7292 16.2946C12.2635 16.4498 12.1858 16.217 8.61547 9.69714C5.27795 3.56541 5.04509 3.17733 4.96748 3.4878C4.88986 3.72065 4.57939 7.98957 4.42416 11.948C4.34654 13.6556 4.42416 14.4318 4.88986 14.8975C5.04509 15.0527 5.5108 15.2079 6.13173 15.2856C7.3736 15.4408 7.45122 15.5184 7.45122 15.9065V16.217H3.72561C0.0776168 16.217 0 16.217 0 15.9841C0 15.6736 0.388084 15.4408 1.3971 15.0527C2.56136 14.6646 2.71659 14.587 2.87182 13.8108C2.79421 13.578 3.10467 11.4047 3.25991 9.07621C3.41514 6.7477 3.72561 4.49682 3.72561 4.03112C4.03608 1.54738 4.03608 1.46976 2.71659 1.15929C1.62995 0.848824 1.47472 0.771207 1.55234 0.46074C1.62995 -0.00496104 2.17327 -0.0825779 3.57038 0.0726558C4.26893 0.150273 5.27795 0.22789 5.89888 0.22789C6.75267 0.22789 7.06313 0.22789 7.21837 0.46074C7.45122 0.771207 8.92594 3.41018 11.3321 8.14481C12.4187 10.2405 13.3501 12.0257 13.4277 12.1033C13.5053 12.1809 13.6606 12.2585 13.7382 12.1809C13.971 11.948 18.7057 2.63401 19.1714 1.54738C19.4042 1.00406 19.6371 0.46074 19.7147 0.46074C19.7923 0.383123 21.0342 0.383123 22.5865 0.305506C25.3031 0.22789 25.3031 0.22789 25.3807 0.538357C25.3807 0.771207 25.3807 0.848824 24.915 0.926441C23.906 1.08167 23.4403 1.23691 23.2074 1.54738C22.9746 1.78023 22.9746 2.01308 22.9746 8.61051V15.4408L23.3627 15.5184C23.5179 15.5184 24.0612 15.596 24.4493 15.6736C25.3031 15.7513 25.7688 15.9841 25.7688 16.2946C25.7688 16.605 25.4583 16.605 23.9836 16.605C23.1298 16.5274 21.267 16.5274 19.7923 16.4498Z" fill="black"/>
<path d="M37.4894 16.3721C36.8685 16.2945 36.1699 16.0616 36.1699 15.9064C36.1699 15.5959 36.4804 15.4407 36.8685 15.4407C37.3342 15.4407 38.188 15.0526 38.4984 14.7422C38.7313 14.5093 42.7674 5.97145 43.6211 4.03103L43.854 3.4101L43.5435 2.86678C43.3107 2.55631 43.2331 2.32346 43.3107 2.16823C43.3883 2.01299 44.0868 1.70252 44.4749 1.70252C44.7078 1.70252 45.1735 1.23682 45.3287 0.848739C45.3287 0.693505 45.4839 0.538272 45.7168 0.538272C46.1049 0.538272 45.872 -0.0826632 48.7438 7.83426C51.6157 15.5183 51.4604 15.2855 51.7709 15.4407C51.9261 15.5183 52.3142 15.5959 52.7799 15.5959C53.7113 15.5959 54.0218 15.7512 54.0218 16.1393C54.0218 16.3721 53.8666 16.3721 49.8305 16.4497C47.502 16.4497 45.6392 16.4497 45.5616 16.4497C45.3287 16.3721 45.4063 16.0616 45.7168 15.8288C45.872 15.6736 46.2601 15.5959 46.881 15.5959C47.8124 15.5959 48.2781 15.4407 48.2781 15.1302C48.2781 14.8974 47.1139 11.9479 46.881 11.7151C46.7258 11.4822 46.4153 11.4822 44.1645 11.4822C41.9136 11.4822 41.6031 11.4822 41.3702 11.7151C41.1374 11.9479 40.2836 14.1988 40.2836 14.7422C40.2836 15.1302 40.7493 15.3631 41.6807 15.5183C42.1464 15.5183 42.6121 15.6736 42.845 15.7512C43.1554 15.9064 43.2331 16.3721 42.9226 16.3721C42.3793 16.3721 37.8775 16.3721 37.4894 16.3721ZM46.3377 10.7061C46.4153 10.7061 46.5706 10.5508 46.5706 10.3956C46.5706 10.0851 44.6302 5.19528 44.4749 4.96243C44.3973 4.88482 44.2421 4.8072 44.1645 4.88482C43.9316 5.11767 41.9912 9.85229 41.9912 10.1628C41.9912 10.318 41.9912 10.4732 41.9912 10.4732C41.9912 10.4732 42.845 10.5508 43.854 10.5508C44.863 10.5508 45.7944 10.6285 45.9496 10.6285C46.1049 10.6285 46.2601 10.7837 46.3377 10.7061Z" fill="black"/>
<path d="M96.4005 16.3721C95.7796 16.2945 95.0811 16.0616 95.0811 15.9064C95.0811 15.5959 95.3915 15.4407 95.7796 15.4407C96.2453 15.4407 97.0991 15.0526 97.4096 14.7422C97.5648 14.5093 101.678 6.04907 102.532 4.03103L102.765 3.41009L102.455 2.86678C102.222 2.55631 102.144 2.32346 102.222 2.16823C102.299 2.01299 102.998 1.70252 103.386 1.70252C103.619 1.70252 104.085 1.23682 104.24 0.848739C104.317 0.615889 104.473 0.538272 104.706 0.538272C105.094 0.538272 104.861 -0.0826632 107.733 7.83426C110.604 15.5183 110.449 15.2855 110.76 15.4407C110.915 15.5183 111.303 15.5959 111.769 15.5959C112.7 15.5959 113.011 15.7512 113.011 16.1393C113.011 16.4497 113.399 16.4497 108.586 16.3721C106.491 16.3721 104.706 16.3721 104.628 16.3721C104.395 16.3721 104.473 15.984 104.706 15.8288C104.861 15.6736 105.249 15.5959 105.87 15.5959C106.801 15.5959 107.267 15.4407 107.267 15.1302C107.267 14.8974 106.103 11.9479 105.87 11.7151C105.715 11.4822 105.404 11.4822 103.153 11.4822C100.902 11.4822 100.592 11.4822 100.359 11.7151C100.126 11.9479 99.2724 14.1988 99.2724 14.7422C99.2724 15.1302 99.7381 15.3631 100.669 15.5183C101.135 15.5183 101.601 15.6736 101.834 15.7512C102.144 15.9064 102.222 16.3721 101.911 16.3721C101.29 16.3721 96.711 16.3721 96.4005 16.3721ZM105.249 10.7061C105.326 10.7061 105.482 10.5508 105.482 10.3956C105.482 10.0851 103.541 5.19528 103.386 4.96243C103.308 4.88482 103.153 4.8072 103.076 4.88482C102.843 5.11767 100.902 9.85229 100.902 10.1628C100.902 10.318 100.902 10.4732 100.902 10.4732C100.902 10.4732 101.756 10.5508 102.765 10.5508C103.774 10.5508 104.706 10.6285 104.861 10.6285C105.016 10.6285 105.094 10.7837 105.249 10.7061Z" fill="black"/>
<path d="M123.953 16.2949C123.798 16.2172 123.721 16.1396 123.721 15.9844C123.721 15.5963 123.953 15.4411 125.04 15.3635C125.661 15.2858 126.204 15.2082 126.204 15.2082C126.36 15.053 126.36 1.85812 126.204 1.54766C126.127 1.31481 125.972 1.31481 124.962 1.31481C123.643 1.31481 123.41 1.23719 123.41 0.849104C123.41 0.305786 123.488 0.305786 127.99 0.305786H132.181V0.616254C132.258 1.00434 131.87 1.23719 131.017 1.23719C130.706 1.23719 130.24 1.23719 130.085 1.31481L129.697 1.39242V8.06747C129.697 11.7155 129.697 14.8201 129.775 14.9754C129.852 15.1306 130.085 15.2082 131.017 15.2082C131.793 15.2082 132.258 15.2858 132.336 15.3635C132.569 15.5963 132.491 16.062 132.258 16.2172C131.948 16.5277 124.264 16.4501 123.953 16.2949Z" fill="black"/>
<path d="M64.7334 15.9846C64.7334 15.5965 64.811 15.5965 66.2857 15.4413C66.8291 15.4413 67.2948 15.3637 67.3724 15.286C67.5276 15.2084 67.5276 1.78071 67.3724 1.39263C67.2948 1.08216 67.2171 1.08216 66.2081 1.08216C64.9663 1.08216 64.6558 0.926925 64.811 0.461224L64.8886 0.150757H70.5547C76.0655 0.228374 76.2207 0.228374 77.0745 0.461224C78.5492 0.926925 79.4806 1.70309 79.9463 2.86735C80.3344 3.79875 80.3344 5.58394 79.9463 6.43772C79.6358 7.13627 78.6268 7.83483 77.4626 8.37814C77.1521 8.53338 76.8416 8.68861 76.8416 8.68861C76.8416 8.84384 79.7135 12.1814 80.4896 13.0352C81.8091 14.4323 83.2838 15.2084 84.9138 15.5965C85.1466 15.6741 85.2242 15.7517 85.2242 15.9846V16.2951H80.6449C78.1611 16.2951 75.9878 16.2174 75.9102 16.2174C75.8326 16.1398 75.755 15.9846 75.755 15.907C75.755 15.6741 75.9102 15.6741 76.8416 15.5965C77.3849 15.5965 77.9283 15.5189 77.9283 15.4413C78.0059 15.3637 76.8416 13.8889 75.3669 12.1814L72.7279 8.99908L71.7189 8.92146C70.9427 8.84384 70.7099 8.84384 70.6323 8.99908C70.477 9.23193 70.477 13.8889 70.6323 14.5099C70.7875 15.286 71.098 15.5189 72.107 15.5965C72.9608 15.6741 72.9608 15.6741 72.9608 15.9846V16.2951H68.8471H64.7334V15.9846ZM73.3489 7.83483C74.5131 7.52436 75.4445 7.13627 75.755 6.74819C76.4535 5.97202 76.764 4.10922 76.2983 3.02258C75.9102 2.01356 74.746 1.23739 73.3489 0.926925C72.2622 0.694075 71.098 0.771692 70.7875 1.00454C70.477 1.15978 70.477 1.23739 70.477 4.41968C70.477 6.20487 70.5547 7.67959 70.5547 7.75721C70.7875 8.22291 71.9518 8.22291 73.3489 7.83483Z" fill="black"/>
<path d="M146.695 15.9847C144.833 15.3637 143.746 14.51 143.746 13.8114C143.746 13.6562 143.824 13.1905 143.979 12.88C144.134 12.5695 144.289 11.9486 144.445 11.4829C144.677 10.6291 144.91 10.3187 145.221 10.6291C145.298 10.7067 145.376 11.0172 145.376 11.2501C145.376 11.4829 145.454 12.1038 145.609 12.4919C146.307 14.51 147.705 15.519 149.645 15.3637C150.732 15.2861 151.43 14.9757 152.051 14.2771C152.594 13.6562 152.75 13.0352 152.517 12.1038C152.206 10.5515 151.352 10.0082 147.627 8.84393C145.609 8.223 144.677 7.52445 144.057 6.36019C143.591 5.35118 143.513 3.87646 143.979 3.02267C144.677 1.7808 145.919 0.694165 147.316 0.383698C148.791 -0.00438632 150.732 0.383698 151.896 1.23748C152.517 1.70318 152.75 1.70318 153.06 1.39272C153.681 0.771782 153.914 1.3151 153.603 2.78982C153.138 4.96309 152.827 5.73926 152.439 5.19594C152.362 5.04071 152.206 4.73024 152.206 4.49739C152.051 3.56599 151.741 2.86744 151.12 2.2465C150.266 1.39272 149.878 1.15987 148.636 1.15987C147.705 1.15987 147.549 1.15987 147.084 1.54795C146.075 2.2465 145.764 3.72122 146.307 4.65262C146.773 5.35118 147.705 5.89449 149.723 6.51543C152.129 7.2916 153.138 7.83491 153.914 8.6887C154.69 9.54249 155 10.3187 155 11.6381C155 12.8024 154.768 13.4233 153.836 14.5876C152.905 15.7518 151.12 16.4504 148.946 16.4504C147.937 16.2952 147.549 16.2175 146.695 15.9847Z" fill="black"/>
</svg>
