<svg xmlns="http://www.w3.org/2000/svg" width="184.85" height="50" viewBox="0 0 184.85 50"><path d="M60,31.09V21.17l3.37-.91v1.15a4.51,4.51,0,0,1,3.33-1.5,3.69,3.69,0,0,1,3.21,1.5,5.19,5.19,0,0,1,3.45-1.5c3.25,0,4,2.61,4,4.2v6.94H73.59V24.47a1.15,1.15,0,0,0-1-1.27h-.21a2.26,2.26,0,0,0-1.58.71v7.18H66.93V24.47a1.15,1.15,0,0,0-1-1.27H65.7a2.42,2.42,0,0,0-1.82.95v6.94Z" fill="#572a6b"/><path d="M84.73,19.91c4.64,0,6.07,3.6,5.28,6.89h-7.1c.44,1.19,1.9,1.67,3.45,1.67A9,9,0,0,0,89.49,28v2.86a12.05,12.05,0,0,1-4,.59c-3.57,0-6.43-2-6.43-5.75a5.53,5.53,0,0,1,5.24-5.79Zm.12,2.81a1.82,1.82,0,0,0-1.94,1.7v.12h3.65a1.62,1.62,0,0,0-1.71-1.82Z" fill="#572a6b"/><path d="M103.73,15.31V31.13h-3.37V29.66a4.13,4.13,0,0,1-3.69,1.82c-3.65,0-5.23-3-5.23-5.75S93,20,96.67,20a4.3,4.3,0,0,1,3.21,1.22v-5Zm-6,7.77a2.37,2.37,0,0,0-2.35,2.39,1.21,1.21,0,0,0,0,.19,2.34,2.34,0,0,0,2.1,2.56h.24a2.43,2.43,0,0,0,2.18-1.35V24.39a2.46,2.46,0,0,0-2.21-1.31Z" fill="#572a6b"/><path d="M108,19.23a2,2,0,0,1-2.18-1.81,1.82,1.82,0,0,1,0-.33,2.18,2.18,0,0,1,4.36,0,2,2,0,0,1-1.85,2.14Zm-1.9,11.86V21.17l3.84-.91V31.09Z" fill="#572a6b"/><path d="M123.24,28.67a2,2,0,0,0,.43-.08V31a5.85,5.85,0,0,1-1.94.36,3,3,0,0,1-2.58-1.19,6,6,0,0,1-3.77,1.3c-2.06,0-3.76-1.22-3.76-3.33,0-2.73,2.57-3.56,4.68-3.56a10.8,10.8,0,0,1,2.34.23v-.39c0-.76-.72-1.35-2.26-1.35a10.23,10.23,0,0,0-3.81.83V20.66a15.34,15.34,0,0,1,4.2-.71c3.45,0,5.67,1.19,5.67,5.07v3C122.48,28.51,122.84,28.67,123.24,28.67Zm-6.39.16a2.75,2.75,0,0,0,1.79-.56V26.81a4.67,4.67,0,0,0-1.39-.2c-.92,0-1.71.31-1.71,1.19C115.54,28.35,116.06,28.83,116.85,28.83Z" fill="#572a6b"/><path d="M128.83,16.3v4h2.93v3.18h-2.93V27c0,.88.43,1.35,1.42,1.35A5,5,0,0,0,132,28v3a9.43,9.43,0,0,1-2.94.43c-2.1,0-4-.87-4-3.72V17.21Z" fill="#572a6b"/><path d="M139.21,19.91c3.26,0,6.11,1.9,6.11,5.74s-2.85,5.75-6.11,5.75-6.1-1.9-6.1-5.75S136,19.91,139.21,19.91Zm0,3.41a2.09,2.09,0,0,0-2.16,2,2.3,2.3,0,0,0,0,.37c0,1.23.56,2.38,2.14,2.38a2.09,2.09,0,0,0,2.15-2.38,2.1,2.1,0,0,0-1.81-2.35A1.94,1.94,0,0,0,139.21,23.32Z" fill="#572a6b"/><path d="M158.8,15.31V31.13h-3.37V29.66a4.13,4.13,0,0,1-3.69,1.82c-3.64,0-5.23-3-5.23-5.75S148.1,20,151.74,20A4.33,4.33,0,0,1,155,21.21v-5Zm-6,7.77a2.37,2.37,0,0,0-2.35,2.39,1.21,1.21,0,0,0,0,.19,2.35,2.35,0,0,0,2.12,2.56h.22a2.43,2.43,0,0,0,2.2-1.35V24.39a2.48,2.48,0,0,0-2.23-1.31Z" fill="#572a6b"/><path d="M172.13,28.67a2,2,0,0,0,.43-.08V31a5.6,5.6,0,0,1-1.94.36A3,3,0,0,1,168,30.14a6,6,0,0,1-3.77,1.3c-2.06,0-3.76-1.22-3.76-3.33,0-2.73,2.58-3.56,4.68-3.56a10.8,10.8,0,0,1,2.34.23v-.39c0-.76-.72-1.35-2.26-1.35a10.23,10.23,0,0,0-3.81.83V20.66a15.34,15.34,0,0,1,4.2-.71c3.45,0,5.67,1.19,5.67,5.07v3A.75.75,0,0,0,172.13,28.67Zm-6.39.16a2.75,2.75,0,0,0,1.79-.56V26.81a4.67,4.67,0,0,0-1.39-.2c-.91,0-1.71.31-1.71,1.19A1.2,1.2,0,0,0,165.74,28.83Z" fill="#572a6b"/><path d="M180.85,20.26h4l-4.56,12c-1.23,3.25-3.13,4.12-4.95,4.12a7.91,7.91,0,0,1-2-.28V32.91a5.59,5.59,0,0,0,1.46.2A2.46,2.46,0,0,0,177,31.4l-5.11-11.1h4l2.66,6.47Z" fill="#572a6b"/><path d="M0,0V50H50.08V0ZM18.52,19.94a3.74,3.74,0,0,1,3.21,1.51,5.16,5.16,0,0,1,3.45-1.51c3.25,0,4,2.62,4,4.21v7h-3.8V24.5a1.15,1.15,0,0,0-1-1.26h-.2a2.3,2.3,0,0,0-1.59.71v7.18H18.72V24.5a1.15,1.15,0,0,0-1-1.26h-.2a2.43,2.43,0,0,0-1.83,1v6.94H11.82v-10l3.37-.91v1.15A4.5,4.5,0,0,1,18.52,19.94ZM38.3,31a9.72,9.72,0,0,1-2.93.43c-2.1,0-4-.87-4-3.72V17.21l3.85-.91v4H38.1v3.17h-3V27c0,.87.44,1.35,1.43,1.35A5.07,5.07,0,0,0,38.3,28Z" fill="#572a6b"/></svg>