<svg width="74" height="56" viewBox="0 0 74 56" fill="none" xmlns="http://www.w3.org/2000/svg">
<path d="M1.28906 51.2289C1.28906 50.5843 1.37314 49.9958 1.56931 49.4353C1.76548 48.8748 2.07375 48.3704 2.52214 47.894C2.97053 47.4176 3.503 47.0533 4.11954 46.801C4.73608 46.5488 5.46471 46.4087 6.2494 46.4087C7.70667 46.4087 8.8837 46.801 9.75246 47.6137C10.6212 48.3984 11.0416 49.4914 11.0416 50.8646C11.0416 51.8454 10.8174 52.7142 10.397 53.4709C9.97666 54.2275 9.36012 54.8441 8.57543 55.2644C7.79075 55.6848 6.89396 55.909 5.91311 55.909C5.21249 55.909 4.56793 55.7969 3.97941 55.5447C3.3909 55.3205 2.88646 54.9562 2.46609 54.5078C2.04572 54.0594 1.76548 53.4989 1.56931 52.9104C1.37314 52.2658 1.28906 51.7333 1.28906 51.2289ZM2.63424 50.8085C2.63424 51.341 2.71831 51.9015 2.88646 52.49C3.05461 53.1065 3.30683 53.611 3.64312 54.0314C3.97942 54.4517 4.37176 54.788 4.82015 54.9842C5.26854 55.2084 5.77298 55.2925 6.33347 55.2925C7.00606 55.2925 7.59458 55.1523 8.09902 54.8441C8.63148 54.5358 9.02383 54.0594 9.27605 53.4148C9.55629 52.7703 9.66839 52.0416 9.66839 51.2569C9.66839 50.3882 9.50024 49.6035 9.19197 48.9029C8.8837 48.2023 8.43531 47.6978 7.87482 47.3895C7.31433 47.0813 6.66977 46.9131 5.96915 46.9131C4.93225 46.9131 4.11954 47.2494 3.503 47.894C2.91448 48.5666 2.63424 49.5194 2.63424 50.8085Z" fill="black"/>
<path d="M12.8354 46.5488C13.9284 46.5769 14.601 46.6049 14.9092 46.6049C15.3016 46.6049 15.778 46.6049 16.2544 46.5769C16.7869 46.5488 17.1232 46.5488 17.2353 46.5488C17.8238 46.5488 18.3282 46.6049 18.7206 46.745C19.1129 46.8571 19.4492 47.1093 19.7014 47.4176C19.9537 47.7539 20.0938 48.1462 20.0938 48.6226C20.0938 49.015 20.0097 49.3793 19.8135 49.7436C19.6174 50.1079 19.3932 50.4162 19.0569 50.6684C18.7486 50.9207 18.4123 51.0888 18.076 51.2009C17.7397 51.313 17.4034 51.369 17.0391 51.369C16.7869 51.369 16.4786 51.341 16.1423 51.285L16.0302 50.8926L16.0863 50.8366C16.3945 50.9207 16.6748 50.9487 16.871 50.9487C17.4315 50.9487 17.8798 50.7525 18.2161 50.3882C18.5524 50.0239 18.7206 49.5474 18.7206 48.9589C18.7206 48.3704 18.5524 47.922 18.1881 47.5577C17.8238 47.2214 17.2913 47.0252 16.5907 47.0252C16.1984 47.0252 15.778 47.1093 15.3016 47.2494C15.2736 47.5857 15.2455 48.3704 15.2455 49.6315V52.6021V53.8632C15.2455 54.3396 15.2736 54.6479 15.2736 54.8161C15.3016 54.9562 15.3296 55.0403 15.3576 55.0963C15.3857 55.1524 15.4697 55.1804 15.5818 55.2084C15.6939 55.2364 15.9742 55.2644 16.4506 55.2925L16.5066 55.3205V55.6288L16.4506 55.6848C15.3576 55.6568 14.7411 55.6288 14.601 55.6288C14.4609 55.6288 13.8443 55.6568 12.7514 55.6848L12.6953 55.6288V55.3205L12.7514 55.2925C13.1437 55.2644 13.4239 55.2645 13.536 55.2364C13.6762 55.2084 13.7602 55.1804 13.8163 55.1243C13.8723 55.0963 13.9004 54.9842 13.9284 54.8721C13.9564 54.732 13.9844 54.4517 13.9844 53.9753V52.6301V49.6595V48.3984C13.9844 47.922 13.9564 47.5857 13.9564 47.4456C13.9284 47.3055 13.9004 47.2214 13.8723 47.1654C13.8443 47.1093 13.7602 47.0813 13.6481 47.0533C13.536 47.0252 13.2558 46.9972 12.7794 46.9692L12.7233 46.9131V46.6049L12.8354 46.5488Z" fill="black"/>
<path d="M29.285 46.5488L29.341 46.6049C29.313 46.9972 29.285 47.6698 29.285 48.6226L29.2289 48.6787H28.9207L28.8646 48.6226L28.7805 48.0341C28.7525 47.7259 28.7245 47.5297 28.6965 47.4456C28.6684 47.3615 28.6404 47.3335 28.6124 47.2775C28.5563 47.2494 28.4162 47.2214 28.192 47.1934C27.9678 47.1654 27.6876 47.1654 27.4073 47.1654H26.2023C26.1743 48.1462 26.1462 48.7067 26.1462 48.8468V52.6021V53.8632C26.1462 54.3396 26.1743 54.6479 26.1743 54.8161C26.2023 54.9562 26.2303 55.0403 26.2583 55.0963C26.2864 55.1524 26.3704 55.1804 26.4825 55.2084C26.5946 55.2364 26.8749 55.2644 27.3513 55.2925L27.4073 55.3205V55.6288L27.3513 55.6848C26.2583 55.6568 25.6418 55.6288 25.5017 55.6288C25.3615 55.6288 24.745 55.6568 23.6801 55.6848L23.624 55.6288V55.3205L23.6801 55.2925C24.0724 55.2644 24.3527 55.2645 24.4928 55.2364C24.6329 55.2084 24.717 55.1804 24.745 55.1243C24.8011 55.0963 24.8291 54.9842 24.8571 54.8721C24.8851 54.732 24.9132 54.4517 24.9132 53.9753V52.6301V48.8749C24.9132 48.8188 24.8851 48.2583 24.8571 47.1934H23.9043C23.5119 47.1934 23.1756 47.1934 22.8954 47.2214C22.6151 47.2494 22.447 47.2775 22.391 47.3615C22.3349 47.4456 22.3069 47.6698 22.2789 48.0621L22.2228 48.6507L22.1668 48.7067H21.8865L21.8305 48.6507C21.8305 47.6138 21.8024 46.9412 21.7744 46.6329L21.8305 46.5769C22.5871 46.6049 23.8202 46.6329 25.5577 46.6329C27.3233 46.6049 28.5844 46.6049 29.285 46.5488Z" fill="black"/>
<path d="M31.1071 46.5488L31.9198 46.5769C32.4523 46.6049 32.7886 46.6049 32.9567 46.6049C33.0969 46.6049 33.7134 46.5769 34.8064 46.5488L34.8624 46.6049V46.9131L34.8064 46.9692C34.4981 46.9692 34.2739 46.9972 34.1338 46.9972C33.9656 47.0252 33.8535 47.0533 33.7695 47.0813C33.6854 47.1373 33.6574 47.2494 33.6293 47.4176C33.6013 47.5857 33.6013 47.838 33.6013 48.1462V49.6315V52.6021V53.8632C33.6013 54.3396 33.6293 54.6479 33.6293 54.8161C33.6574 54.9562 33.6854 55.0403 33.7134 55.0963C33.7414 55.1524 33.8255 55.1804 33.9376 55.2084C34.0497 55.2364 34.3299 55.2644 34.8064 55.2925L34.8624 55.3205V55.6288L34.8064 55.6848C34.7783 55.6848 34.414 55.6848 33.6854 55.6568C33.3771 55.6568 33.1529 55.6568 32.9848 55.6568C32.8446 55.6568 32.2281 55.6848 31.1351 55.7128L31.0791 55.6568V55.3485L31.1351 55.3205C31.5275 55.2925 31.8077 55.2925 31.9198 55.2644C32.06 55.2364 32.144 55.2084 32.2001 55.1524C32.2561 55.1243 32.2842 55.0122 32.3122 54.9001C32.3402 54.76 32.3682 54.4798 32.3682 54.0033V52.6582V49.6876V48.4265C32.3682 47.9501 32.3402 47.6138 32.3402 47.4736C32.3122 47.3335 32.2842 47.2494 32.2561 47.1934C32.2281 47.1373 32.144 47.1093 32.0319 47.0813C31.9198 47.0533 31.6396 47.0252 31.1632 46.9972L31.1071 46.9412V46.6049V46.5488Z" fill="black"/>
<path d="M48.3703 46.5769L48.4263 46.633V46.9412L48.3703 46.9973C47.8939 46.9973 47.6136 47.0253 47.5015 47.0813C47.3894 47.1094 47.3054 47.1654 47.2493 47.2495C47.1933 47.3336 47.1652 47.4737 47.1652 47.7259C47.1652 47.9501 47.1372 48.6227 47.1372 49.6876V52.6582C47.1372 53.0786 47.1372 53.583 47.1652 54.1155C47.1933 54.648 47.1933 54.9562 47.2493 55.0683C47.3054 55.1804 47.3614 55.2085 47.4735 55.2645C47.5856 55.2925 47.8939 55.3206 48.3983 55.3486L48.4544 55.4046V55.7129L48.3983 55.7689C47.6977 55.7409 47.0812 55.7129 46.5767 55.7129C46.2124 55.7129 45.6239 55.7409 44.7831 55.7689L44.7271 55.7129V55.4046L44.7831 55.3486C45.2596 55.3486 45.5398 55.3205 45.6519 55.2645C45.764 55.2365 45.8481 55.1804 45.9041 55.0964C45.9602 55.0123 45.9882 54.8722 45.9882 54.6199C45.9882 54.3957 46.0162 53.7232 46.0162 52.6582V47.9501L43.8023 52.6022C43.2418 53.7512 42.7654 54.8441 42.345 55.881H42.0928C41.8406 55.3206 41.6444 54.9002 41.5043 54.5639L38.4216 48.1743V52.6582C38.4216 53.0786 38.4216 53.555 38.4496 54.1155C38.4496 54.676 38.4776 54.9843 38.5337 55.0683C38.5897 55.1524 38.6458 55.2085 38.7579 55.2645C38.87 55.3205 39.1782 55.3206 39.6827 55.3486L39.7387 55.4046V55.7129L39.6827 55.7689L39.2623 55.7409C38.842 55.7129 38.4776 55.7129 38.1694 55.7129C38.0292 55.7129 37.5248 55.7409 36.628 55.7689L36.572 55.7129V55.4046L36.628 55.3486C37.1044 55.3486 37.3847 55.3206 37.4968 55.2925C37.6089 55.2645 37.693 55.2085 37.749 55.1244C37.805 55.0403 37.8331 54.9002 37.8331 54.676C37.8331 54.4518 37.8611 53.8072 37.8611 52.7143V49.7717C37.8611 49.3794 37.8611 48.9029 37.8331 48.3424C37.8331 47.782 37.805 47.4457 37.749 47.3616C37.721 47.2775 37.6369 47.2215 37.5248 47.1654C37.4127 47.1094 37.1044 47.1094 36.6 47.0813L36.5439 47.0253V46.717L36.6 46.661C36.9083 46.689 37.3006 46.689 37.805 46.689C38.2815 46.689 38.7018 46.689 39.0381 46.661C39.4024 47.5017 39.7387 48.2584 40.075 48.931L42.5132 53.9474L44.6991 49.3513C45.2876 48.1183 45.708 47.2215 45.9041 46.689C46.3245 46.717 46.7168 46.717 47.1092 46.717C47.4455 46.6049 47.8939 46.6049 48.3703 46.5769Z" fill="black"/>
<path d="M50.1361 55.7127L50.0801 55.6567V55.3204L50.1361 55.2643C50.4444 55.2643 50.6406 55.2363 50.7527 55.2083C50.8648 55.1803 50.9208 55.1242 51.0049 55.0401C51.089 54.9561 51.2291 54.6758 51.4253 54.2274L52.0978 52.7702L53.8354 48.8187C54.1717 48.034 54.4799 47.2774 54.8162 46.4927H55.2366L57.983 52.9383L58.3473 53.8071C58.4594 54.0593 58.5715 54.3115 58.7116 54.5918C58.8517 54.872 58.9358 55.0401 58.9919 55.0962C59.0479 55.1522 59.104 55.1803 59.188 55.2083C59.2721 55.2363 59.4403 55.2643 59.7205 55.2643L59.7766 55.3204V55.6567L59.7205 55.7127C59.2721 55.6847 58.8517 55.6567 58.4874 55.6567C57.7868 55.6847 57.0582 55.6847 56.3576 55.7127L56.3015 55.6567V55.3204L56.3576 55.2643C56.834 55.2643 57.1423 55.2363 57.2544 55.2083C57.3665 55.1803 57.4225 55.0962 57.4225 54.9841C57.4225 54.9 57.3945 54.7599 57.3384 54.6198L56.5537 52.6581H52.8265L52.1259 54.3115C52.0138 54.6198 51.9297 54.816 51.9297 54.9561C51.9297 55.0682 51.9857 55.1522 52.0978 55.1803C52.2099 55.2083 52.5182 55.2643 52.9666 55.2643L53.0227 55.3204V55.6567L52.9666 55.7127C52.4061 55.6847 51.9297 55.6567 51.5093 55.6567C51.089 55.6567 50.6125 55.6567 50.1361 55.7127ZM53.0787 52.0976H56.3295L54.7041 48.2302L53.0787 52.0976Z" fill="black"/>
<path d="M61.4297 55.6287V55.3204L61.4857 55.2643C61.766 55.2643 61.9621 55.2363 62.0742 55.1803C62.1863 55.1242 62.2984 55.0121 62.4666 54.816C62.6347 54.6198 62.915 54.1994 63.3634 53.5829L65.1289 51.1447L63.9799 49.2111C63.8958 49.0709 63.6997 48.7907 63.4194 48.3703C63.1392 47.9499 62.915 47.6697 62.7468 47.5016C62.5787 47.3334 62.4666 47.2493 62.3825 47.2213C62.2984 47.1933 62.0743 47.1933 61.7099 47.1933L61.6539 47.1372V46.857L61.7099 46.8009L63.5315 46.4927C63.6997 46.6048 63.8678 46.7729 64.036 46.9971C64.2321 47.2213 64.4844 47.6417 64.8207 48.2582L65.9136 50.1359L68.3798 46.5487C68.7441 46.5487 68.9683 46.5767 69.0523 46.5767C69.0804 46.5767 69.2765 46.5767 69.6409 46.5487L69.6969 46.6048V46.885L69.6409 46.9411C69.3606 46.9411 69.1925 46.9691 69.1084 47.0251C69.0243 47.0812 68.9122 47.1653 68.7721 47.3054C68.632 47.4455 68.3517 47.8098 67.9314 48.3983L66.7263 50.0238L66.2499 50.6683L68.4358 54.1994C68.632 54.5357 68.8001 54.7879 68.9403 54.9561C69.0804 55.1242 69.1644 55.2083 69.2485 55.2643C69.3326 55.2924 69.5007 55.3204 69.781 55.3204L69.837 55.3764V55.6847L69.781 55.7408C69.3606 55.7127 69.0804 55.7127 68.9122 55.7127C68.688 55.7127 68.3517 55.7127 67.9314 55.7408C67.6791 55.3484 67.4269 54.9841 67.2308 54.5918L65.5493 51.7052L65.0729 52.3498C64.4563 53.1905 63.7277 54.3115 62.887 55.7127C62.6067 55.6847 62.3825 55.6847 62.2424 55.6847C62.0742 55.6847 61.8501 55.6847 61.5978 55.7127L61.4297 55.6287Z" fill="black"/>
<path d="M46.9408 0.840735C49.5191 0.840735 51.8171 1.17703 52.9941 1.3732C52.0973 5.52083 52.6298 9.10796 53.3024 14.0123C53.5266 15.5536 53.7508 17.151 53.947 18.9446C54.8437 26.5953 46.6886 31.4715 42.7932 33.7976C39.9347 35.5071 37.973 37.0764 36.7119 38.6458C35.4508 37.0484 33.4891 35.479 30.6306 33.7976C26.7071 31.4715 18.58 26.5953 19.4768 18.9446C19.673 17.151 19.8972 15.5536 20.1214 14.0123C20.794 9.13599 21.3264 5.52083 20.4296 1.3732C21.6067 1.17703 23.8767 0.840735 26.4829 0.840735C30.6586 0.840735 33.9375 1.65344 36.2355 3.22282L36.7119 3.55911L37.1883 3.22282C39.4583 1.62542 42.7652 0.840735 46.9408 0.840735ZM22.0831 18.0758H23.0359H36.0113H36.5157V18.6923V33.3772V35.0867L37.8609 34.0498C38.8978 33.2371 40.0748 32.4524 41.476 31.6397C43.8301 30.2384 46.4924 28.557 48.5662 26.3711C49.9675 24.8858 51.8171 22.5317 51.4247 19.2528C51.3967 19.0567 51.3687 18.8325 51.3407 18.6363L51.2566 17.9077H50.4999H37.3284H36.824V17.2911V7.2023V6.75391L36.4597 6.50169L34.7502 5.32466C32.9005 4.06355 30.014 3.39097 26.3989 3.39097C25.6422 3.39097 24.8575 3.41899 24.0728 3.47504L23.2321 3.53109L23.2881 4.37182C23.4843 7.59464 23.0359 10.7334 22.5315 14.3766C22.4194 15.2453 22.2793 16.1982 22.1391 17.151L22.0831 18.0758ZM46.9408 0C43.5499 0 39.6264 0.532465 36.7119 2.5222C33.7973 0.532465 29.8459 0 26.4829 0C22.5875 0 19.4208 0.700613 19.4208 0.700613C20.878 6.33354 19.5889 10.8175 18.6361 18.8325C17.7113 26.8195 25.7263 31.8358 30.2102 34.4982C34.0496 36.7962 35.8151 38.5897 36.7119 40.1031C37.6087 38.5897 39.3742 36.7682 43.2136 34.4982C47.6975 31.8358 55.7125 26.8195 54.7877 18.8325C53.8629 10.8455 52.5738 6.33354 54.003 0.700613C54.003 0.700613 50.8362 0 46.9408 0ZM23.0359 17.2351C23.1761 16.2822 23.2881 15.3574 23.4283 14.4606C23.9607 10.7614 24.4091 7.59464 24.1849 4.28775C24.8855 4.2317 25.6422 4.20367 26.4549 4.20367C29.9019 4.20367 32.6203 4.82021 34.3298 5.99724L36.0393 7.17427V17.2631L23.0359 17.2351ZM37.3564 33.3772V18.6923H50.528C50.556 18.8885 50.584 19.0847 50.612 19.3089C50.9483 22.2515 49.2669 24.4093 47.9777 25.7545C45.988 27.8564 43.3537 29.5098 41.0557 30.883C39.6264 31.7237 38.4214 32.5365 37.3564 33.3772Z" fill="black"/>
<path d="M59.1034 24.4655C62.2982 21.635 61.0931 19.5332 61.0931 19.5332C63.6714 19.6733 63.223 21.4669 63.223 21.4669C65.2127 19.0007 63.5873 17.2072 63.5873 17.2072C65.6892 17.7116 66.1095 18.8046 66.2496 19.7854C66.8382 24.2693 56.8334 27.8845 52.1533 29.1176C55.0959 26.9597 58.8231 24.7177 59.1034 24.4655Z" fill="black"/>
<path d="M54.7318 33.1531L57.7865 33.097C57.7865 33.097 56.0209 37.7771 52.9102 36.0116C52.9102 36.0116 54.0873 37.7491 51.537 38.8981C51.537 38.8981 51.9013 40.4675 49.3231 40.2153C47.2773 40.0191 44.615 40.7197 42.0928 41.7566C42.0928 41.7566 46.4646 33.2652 54.7318 33.1531ZM53.3866 34.8626C53.3866 34.8626 53.8631 34.8065 54.0592 34.4422C54.0592 34.4422 51.1727 34.134 45.6799 38.8421C45.7079 38.8701 49.2951 35.9836 53.3866 34.8626Z" fill="black"/>
<path d="M64.4006 29.8183C63.0554 30.0705 58.6275 28.6133 51.8176 31.2195C54.0876 29.6782 57.8709 28.305 62.0465 28.6133C63.4197 28.7253 66.026 28.5572 67.4272 27.8005C67.4272 27.8005 67.3712 31.6119 63.9522 32.2004L61.2899 31.5278C59.7765 31.0234 57.4505 31.0514 55.685 31.3877C52.8545 31.9201 49.7998 33.1252 48.875 33.7417C55.0404 28.9215 61.0376 30.7431 64.4006 29.8183Z" fill="black"/>
<path d="M66.7541 14.0404C62.6345 12.9194 60.953 16.1423 60.953 16.1423C59.6919 15.2735 59.7479 13.564 60.2243 13.2557C58.4868 13.6201 57.1416 11.3221 57.1416 11.3221C57.8983 10.7616 58.4308 10.5374 59.2435 10.4253C57.1416 10.173 56.2168 8.7438 55.8525 7.28652C55.4322 5.63308 55.5162 4.76432 55.7124 3.95161C55.9926 2.66248 56.7493 2.46631 57.1697 2.77458C57.4499 2.97075 57.3658 3.58729 56.9175 3.81149C56.441 4.09173 56.385 4.48407 56.357 4.93247C56.2449 6.50184 57.8142 8.04318 59.0753 8.26738C59.0753 8.26738 57.0576 6.95023 57.1977 5.01654C57.562 5.52098 58.3467 5.7732 59.4116 5.6611C62.3542 5.32481 63.7554 6.81011 63.7554 6.81011C62.6625 5.80122 62.7185 3.95161 62.7185 3.95161C69.3884 3.95161 72.4991 6.19357 73.1997 15.2735C72.443 12.1067 71.1819 9.36034 68.0152 6.72603C68.0152 6.72603 72.3309 11.3501 72.7793 17.1511C72.6112 17.5995 72.443 18.0199 72.1908 18.4403C72.2188 13.0315 68.2394 8.04318 64.2879 7.1464C64.2879 7.1464 68.3515 8.77182 70.3412 13.6481C72.7793 19.7014 70.2851 23.1764 64.428 26.0069L64.0637 25.7266C72.1628 21.6631 70.5374 15.0773 66.7541 14.0404Z" fill="black"/>
<path d="M14.0959 24.4655C10.9011 21.635 12.1062 19.5332 12.1062 19.5332C9.52793 19.6733 9.97633 21.4669 9.97633 21.4669C7.98659 19.0007 9.61201 17.2072 9.61201 17.2072C7.51017 17.7116 7.0898 18.8046 6.94968 19.7854C6.36116 24.2693 16.3659 27.8845 21.046 29.1176C18.1034 26.9597 14.3762 24.7177 14.0959 24.4655Z" fill="black"/>
<path d="M31.1351 41.7566C28.6129 40.7197 25.9506 39.9911 23.9048 40.2153C21.3266 40.4675 21.6909 38.8981 21.6909 38.8981C19.1406 37.7491 20.3177 36.0116 20.3177 36.0116C17.1789 37.7771 15.4414 33.097 15.4414 33.097L18.4961 33.1531C26.7353 33.2652 31.1351 41.7566 31.1351 41.7566ZM27.52 38.8701C22.0272 34.162 19.1406 34.4702 19.1406 34.4702C19.3368 34.8346 19.8132 34.8906 19.8132 34.8906C23.9048 35.9836 27.52 38.8701 27.52 38.8701Z" fill="black"/>
<path d="M8.79911 29.8183C10.1443 30.0705 14.5722 28.6133 21.3821 31.2195C19.1121 29.6782 15.3288 28.305 11.1532 28.6133C9.77996 28.7253 7.17369 28.5572 5.77246 27.8005C5.77246 27.8005 5.82851 31.6119 9.2475 32.2004L11.9098 31.5278C13.4232 31.0234 15.7492 31.0514 17.5147 31.3877C20.3452 31.9201 23.3999 33.1252 24.3247 33.7417C18.1593 28.9215 12.162 30.7431 8.79911 29.8183Z" fill="black"/>
<path d="M6.44564 14.0404C10.5652 12.9194 12.2467 16.1423 12.2467 16.1423C13.5078 15.2735 13.4518 13.564 12.9753 13.2557C14.7129 13.6201 16.058 11.3221 16.058 11.3221C15.3014 10.7616 14.7689 10.5374 13.9562 10.4253C16.058 10.173 16.9828 8.7438 17.3472 7.28652C17.7675 5.63308 17.6835 4.76432 17.4873 3.95161C17.207 2.66248 16.4504 2.46631 16.03 2.77458C15.7498 2.97075 15.8338 3.58729 16.2822 3.81149C16.7587 4.09173 16.8147 4.48407 16.8427 4.93247C16.9548 6.50184 15.3855 8.04318 14.1244 8.26738C14.1244 8.26738 16.1421 6.95023 16.002 5.01654C15.6377 5.52098 14.853 5.7732 13.7881 5.6611C10.8735 5.29678 9.44426 6.81011 9.44426 6.81011C10.5372 5.80122 10.4812 3.95161 10.4812 3.95161C3.81133 3.95161 0.700613 6.19357 0 15.2735C0.756662 12.1067 2.01776 9.36034 5.18453 6.72603C5.18453 6.72603 0.86876 11.3501 0.420368 17.1511C0.588515 17.5995 0.756661 18.0199 1.00888 18.4403C0.980857 13.0315 4.96034 8.04318 8.91179 7.1464C8.91179 7.1464 4.84824 8.77182 2.8585 13.6481C0.420367 19.7014 2.91455 23.1764 8.77167 26.0069L9.13599 25.7266C1.03691 21.6631 2.66233 15.0773 6.44564 14.0404Z" fill="black"/>
<path d="M39.8516 11.4902C39.8516 10.9858 39.9356 10.5374 40.0758 10.1171C40.2159 9.69668 40.4681 9.30434 40.8044 8.94002C41.1407 8.5757 41.5611 8.29546 42.0375 8.09928C42.5139 7.90311 43.0464 7.79102 43.6629 7.79102C44.7839 7.79102 45.6807 8.09929 46.3252 8.71583C46.9698 9.33236 47.3341 10.1451 47.3341 11.21C47.3341 11.9386 47.166 12.6112 46.8577 13.1997C46.5494 13.7883 46.073 14.2647 45.4565 14.5729C44.8399 14.8812 44.1673 15.0774 43.4107 15.0774C42.8782 15.0774 42.3738 14.9933 41.9254 14.7971C41.477 14.601 41.0846 14.3487 40.7764 13.9844C40.4681 13.6201 40.2159 13.2278 40.0758 12.7514C39.9356 12.2749 39.8516 11.8546 39.8516 11.4902ZM40.8885 11.154C40.8885 11.5463 40.9445 11.9947 41.0846 12.4431C41.2248 12.8915 41.4209 13.3118 41.6732 13.6201C41.9254 13.9284 42.2336 14.2086 42.5699 14.3488C42.9062 14.4889 43.2986 14.601 43.7189 14.601C44.2234 14.601 44.6718 14.4889 45.0921 14.2647C45.5125 14.0405 45.7928 13.6762 45.9889 13.1717C46.1851 12.6673 46.2972 12.1348 46.2972 11.5183C46.2972 10.8457 46.1851 10.2572 45.9329 9.72471C45.6807 9.19224 45.3724 8.7999 44.924 8.54768C44.4756 8.29546 43.9992 8.18336 43.4667 8.18336C42.682 8.18336 42.0375 8.43558 41.5891 8.94002C41.1407 9.44446 40.8885 10.1731 40.8885 11.154Z" fill="black"/>
<path d="M33.8821 20.8225L33.9381 20.8505V21.1028L33.9101 21.1308C33.5458 21.1308 33.3216 21.1588 33.2375 21.1868C33.1534 21.2149 33.0974 21.2429 33.0413 21.327C32.9853 21.411 32.9853 21.4951 32.9853 21.6913C32.9853 21.8874 32.9853 22.3639 32.9573 23.2046V25.4746C32.9573 25.8109 32.9573 26.1752 32.9853 26.5956C33.0133 27.0159 33.0133 27.2401 33.0413 27.3242C33.0694 27.4083 33.1254 27.4363 33.2095 27.4643C33.2936 27.4923 33.5178 27.5204 33.9101 27.5204L33.9381 27.5484V27.8006L33.8821 27.8286C33.3496 27.8006 32.8732 27.7726 32.4809 27.7726C32.2006 27.7726 31.7522 27.8006 31.1077 27.8286L31.0516 27.8006V27.5484L31.0796 27.5204C31.444 27.5204 31.6681 27.4923 31.7522 27.4643C31.8363 27.4363 31.8923 27.4083 31.9484 27.3242C32.0044 27.2401 32.0044 27.156 32.0044 26.9599C32.0044 26.7637 32.0325 26.2873 32.0325 25.4746V21.8594L30.323 25.4185C29.9026 26.3153 29.5103 27.156 29.202 27.9407H29.0058C28.8096 27.5204 28.6695 27.1841 28.5574 26.9319L26.2034 22.0276V25.4746C26.2034 25.7828 26.2034 26.1752 26.2034 26.5956C26.2034 27.0159 26.2314 27.2681 26.2594 27.3242C26.2874 27.3802 26.3435 27.4363 26.4276 27.4643C26.5116 27.4923 26.7358 27.5204 27.1282 27.5204L27.1562 27.5484V27.7726L27.1002 27.8286L26.7919 27.8006C26.4556 27.7726 26.1753 27.7726 25.9511 27.7726C25.8391 27.7726 25.4467 27.7726 24.7741 27.8006L24.7461 27.7726V27.5484L24.7741 27.4923C25.1384 27.4923 25.3626 27.4643 25.4467 27.4363C25.5308 27.4083 25.5868 27.3522 25.6429 27.2962C25.6989 27.2401 25.6989 27.128 25.6989 26.9599C25.6989 26.7917 25.6989 26.2873 25.727 25.4466V23.1766C25.727 22.8683 25.727 22.504 25.727 22.0836C25.727 21.6632 25.6989 21.411 25.6709 21.327C25.6429 21.2429 25.5868 21.2149 25.5028 21.1868C25.4187 21.1588 25.1945 21.1308 24.8021 21.1308L24.7741 21.1028V20.8786L24.8302 20.8225C25.0544 20.8505 25.3626 20.8505 25.755 20.8505C26.1193 20.8505 26.4276 20.8505 26.7078 20.8225C26.9881 21.4671 27.2403 22.0276 27.4925 22.56L29.3701 26.3994L31.0516 22.8963C31.5 21.9435 31.8083 21.2709 31.9764 20.8505C32.2847 20.8786 32.593 20.8786 32.9012 20.8786C33.1815 20.8505 33.4897 20.8505 33.8821 20.8225Z" fill="black"/>
<path fill-rule="evenodd" clip-rule="evenodd" d="M42.9057 20.7944C41.9529 20.9345 41.2242 21.6912 41.1682 22.644C41.1682 22.8121 41.1682 22.8121 41.1402 22.8121C41.1121 22.8121 41.0001 22.8121 40.888 22.7841L40.6638 22.7561L40.6357 22.7841C40.6077 22.8121 40.6077 22.8121 40.5797 23.1484C40.5517 23.9051 40.5517 23.9331 40.5797 23.9611C40.6077 23.9892 40.6357 23.9892 40.6918 24.0172C40.8319 24.0452 41.3363 24.0452 41.5045 24.0452H41.6446L41.7567 24.1573C42.037 24.4095 42.3172 24.5777 42.6535 24.6618C43.3261 24.8299 44.0267 24.6337 44.5311 24.1573C44.8114 23.8771 45.0076 23.5408 45.0916 23.1204C45.1197 22.9523 45.1197 22.5879 45.0916 22.4198L45.0636 22.2797L45.1197 22.1956C45.1477 22.1396 45.2318 22.0555 45.2878 21.9994L45.3999 21.8593L45.512 21.9714C45.568 22.0275 45.6241 22.0835 45.6521 22.0835C45.6801 22.1115 45.7642 22.0835 45.7922 22.0555C45.8203 22.0275 45.8203 21.9994 45.8483 21.495C45.8763 20.8785 45.8763 20.8224 45.8483 20.7944L45.8203 20.7664L45.2598 20.8224C44.9515 20.8504 44.6713 20.9065 44.6713 20.9065C44.6152 20.9345 44.5872 20.9906 44.6152 21.0186C44.6152 21.0466 44.6713 21.1027 44.7553 21.1867L44.8955 21.2988L44.8114 21.3829L44.7273 21.467L44.5872 21.3268C44.3069 21.0466 43.9706 20.8785 43.5783 20.7944C43.3821 20.7944 43.0739 20.7944 42.9057 20.7944ZM43.4942 21.0466C43.5503 21.0466 43.6624 21.0746 43.7184 21.1027C43.8305 21.1307 43.8305 21.1307 43.8025 21.1587C43.6344 21.2147 42.9898 21.2147 42.7095 21.1867C42.6255 21.1867 42.5414 21.1587 42.5414 21.1587C42.5414 21.1587 42.7936 21.0746 42.9337 21.0466C43.0458 21.0186 43.3541 21.0186 43.4942 21.0466ZM45.6801 21.0746C45.6801 21.1026 45.6521 21.2428 45.6521 21.4109C45.6241 21.7752 45.6521 21.7752 45.54 21.6631C45.4559 21.5791 45.3999 21.551 45.3719 21.5791C45.3439 21.5791 45.2037 21.7472 45.0356 21.9434C44.8674 22.1396 44.6993 22.3357 44.6152 22.4198C43.9426 23.0924 43.0739 23.5688 42.1491 23.737C41.7847 23.821 41.6166 23.821 41.1962 23.821C40.972 23.821 40.8039 23.821 40.8039 23.821C40.8039 23.821 40.8039 23.6249 40.8039 23.4287C40.8039 23.2045 40.8319 23.0363 40.8319 23.0363C40.8319 23.0363 41.0281 23.0363 41.2523 23.0363C41.7847 23.0363 42.121 23.0083 42.5694 22.8962C43.4662 22.672 44.2229 22.2517 44.9235 21.6351C45.2037 21.3549 45.2318 21.3549 45.0916 21.2147C45.0356 21.1587 45.0076 21.1307 45.0076 21.1307C45.0076 21.1307 45.6521 21.0466 45.7082 21.0466C45.7082 21.0186 45.7082 21.0186 45.6801 21.0746ZM42.2892 21.3268C42.3172 21.3268 42.3733 21.3549 42.3733 21.3549C42.3733 21.3549 42.3733 21.4109 42.3172 21.467C42.2892 21.523 42.2331 21.6351 42.2331 21.6912C42.2051 21.7472 42.1771 21.8033 42.1771 21.8033C42.1491 21.8313 41.7287 21.7192 41.7287 21.6912C41.7287 21.6631 41.9809 21.4109 42.065 21.3549C42.1771 21.2988 42.2051 21.2988 42.2892 21.3268ZM44.2229 21.3549C44.3069 21.4109 44.5311 21.6351 44.5311 21.6631C44.5311 21.6631 44.2509 21.9154 44.1668 21.9434C44.1668 21.9434 44.1388 21.8873 44.1108 21.8033C44.0827 21.7192 44.0267 21.5791 43.9987 21.523C43.9706 21.4389 43.9426 21.3829 43.9426 21.3829C43.9426 21.3829 44.0827 21.3549 44.1108 21.3549C44.1388 21.2988 44.1668 21.3268 44.2229 21.3549ZM42.9618 21.4109H43.0739V21.6631V21.9154H42.9618C42.7656 21.9154 42.4853 21.8873 42.4573 21.8593C42.4293 21.8593 42.4293 21.8593 42.4573 21.7752C42.4853 21.6912 42.5694 21.523 42.6255 21.4389L42.6535 21.3829H42.7656C42.7936 21.4109 42.9057 21.4109 42.9618 21.4109ZM43.7745 21.551C43.8025 21.6351 43.8586 21.7192 43.8586 21.7752C43.8866 21.8593 43.8866 21.8593 43.8586 21.8593C43.8305 21.8593 43.5503 21.8873 43.3541 21.9154H43.242V21.6631V21.4109H43.3541C43.4102 21.4109 43.4942 21.4109 43.5503 21.4109C43.6904 21.3829 43.6904 21.3829 43.7745 21.551ZM41.7567 21.9434C41.8128 21.9714 41.9249 21.9994 41.9809 21.9994C42.065 22.0275 42.121 22.0275 42.121 22.0275C42.121 22.0275 42.121 22.0835 42.093 22.1676C42.065 22.3077 42.037 22.5599 42.037 22.672C42.037 22.7281 42.037 22.7561 42.0089 22.7561C41.9809 22.7561 41.6446 22.8121 41.4765 22.8121H41.3644V22.7281C41.3644 22.616 41.3924 22.3918 41.4484 22.2517C41.5045 22.1115 41.5886 21.8873 41.6166 21.8873C41.6446 21.9154 41.7007 21.9434 41.7567 21.9434ZM42.6535 22.1115C42.7095 22.1115 42.8216 22.1115 42.8777 22.1115C42.9337 22.1115 42.9898 22.1115 43.0178 22.1115H43.0739V22.2797V22.4478L42.8497 22.5319C42.6535 22.588 42.3733 22.672 42.3172 22.672C42.2892 22.672 42.3452 22.2236 42.3733 22.0835C42.3733 22.0555 42.3733 22.0555 42.4573 22.0555C42.5134 22.1115 42.5975 22.1115 42.6535 22.1115ZM43.9146 22.1115C43.9146 22.1115 43.5783 22.3077 43.4382 22.3638L43.2981 22.4198V22.2797C43.2981 22.1956 43.2981 22.1396 43.2981 22.1396C43.2981 22.1396 43.4102 22.1396 43.5223 22.1115C43.6624 22.1115 43.8025 22.1115 43.9146 22.1115C43.8866 22.0835 43.9146 22.0835 43.9146 22.1115ZM44.8955 22.588V22.672H44.8114H44.7273L44.8114 22.588C44.8674 22.5319 44.8955 22.5039 44.8955 22.5039C44.8955 22.5039 44.8955 22.5319 44.8955 22.588ZM44.8955 22.9803C44.8955 23.0363 44.8674 23.1484 44.8394 23.2045C44.8114 23.3166 44.6993 23.5688 44.6713 23.5968C44.6713 23.5968 44.6152 23.5968 44.5311 23.5688C44.4471 23.5408 44.335 23.5128 44.2789 23.4847C44.2229 23.4567 44.1668 23.4567 44.1668 23.4567C44.1668 23.4567 44.1948 23.2325 44.2229 23.0924C44.2229 23.0644 44.2509 23.0363 44.335 22.9523L44.4471 22.8682H44.6713H44.8955V22.9803ZM43.9707 23.3166C43.9426 23.4567 43.9426 23.4567 43.8586 23.4287C43.6904 23.4007 43.6904 23.4007 43.8305 23.3166C43.9146 23.2605 43.9707 23.2325 43.9707 23.2325C43.9987 23.2325 43.9707 23.2605 43.9707 23.3166ZM43.6624 23.6249C43.7465 23.6249 43.8305 23.6529 43.8586 23.6529H43.9146L43.8586 23.765C43.8025 23.9331 43.6904 24.1293 43.6624 24.1293C43.6624 24.1293 43.5503 24.1293 43.4662 24.1293H43.27V23.8771V23.6249H43.2981C43.3541 23.5968 43.4102 23.5968 43.6624 23.6249ZM44.363 23.737C44.4471 23.765 44.5311 23.793 44.5311 23.793C44.5592 23.793 44.5311 23.821 44.5031 23.8771C44.419 23.9611 44.2509 24.1293 44.1948 24.1853C44.1388 24.2134 44.1388 24.2134 44.0267 24.2134C43.9706 24.2134 43.9146 24.1853 43.9146 24.1853C43.9146 24.1853 43.9426 24.1293 43.9707 24.0732C43.9987 24.0172 44.0547 23.9051 44.0547 23.8491L44.0827 23.737H44.1388C44.1948 23.7089 44.2789 23.737 44.363 23.737ZM43.0458 23.9331V24.1293H42.8497C42.7376 24.1293 42.6535 24.1293 42.6535 24.1293C42.6535 24.1293 42.6255 24.1013 42.5974 24.0452C42.5134 23.9051 42.4854 23.9051 42.7936 23.821C42.9337 23.765 43.0458 23.737 43.0739 23.737C43.0458 23.737 43.0458 23.793 43.0458 23.9331ZM42.4013 24.1853C42.4013 24.1853 42.3452 24.2134 42.2892 24.2134C42.2051 24.2414 42.2051 24.2414 42.1491 24.1853C42.065 24.1293 41.9809 24.0452 41.9809 24.0452C41.9809 24.0452 42.065 24.0172 42.1491 24.0172L42.3172 23.9892L42.3733 24.1013C42.3733 24.1293 42.4013 24.1573 42.4013 24.1853ZM40.1033 24.1013C39.9912 24.1573 39.9071 24.2694 39.9351 24.3815C39.9351 24.4095 40.0192 24.6898 40.1313 25.0541L40.3275 25.6706L40.5517 26.0069L40.7759 26.3432L41.0841 26.5394C41.2523 26.6515 41.3924 26.7356 41.3924 26.7636C41.4204 26.7916 41.4204 26.8477 41.4204 27.0438C41.4204 27.2961 41.4204 27.2961 41.4484 27.3241L41.4765 27.3521H42.0089H42.5414L42.5694 27.3241C42.5974 27.2961 42.5974 27.268 42.5974 27.268C42.5974 27.268 42.5694 27.0438 42.5414 26.7916L42.4854 26.3432L42.3733 26.0069L42.2612 25.6706L41.9809 25.2783C41.8128 25.0541 41.6726 24.886 41.6726 24.886C41.5886 24.8019 41.4204 24.8019 41.3363 24.8579C41.2523 24.886 41.1962 24.97 41.1682 25.0541C41.1402 25.1662 41.1682 25.2223 41.2523 25.3904C41.3083 25.4745 41.3363 25.5585 41.3363 25.5585C41.3083 25.5866 41.2242 25.5025 41.1122 25.3624L40.972 25.1942L40.7198 24.6898C40.5797 24.3815 40.4396 24.1573 40.4396 24.1573C40.3275 24.0732 40.1873 24.0452 40.1033 24.1013ZM46.0164 24.1013C45.9884 24.1013 45.9604 24.1293 45.9324 24.1573C45.9043 24.1853 45.7922 24.4095 45.6521 24.6898L45.3999 25.1942L45.2598 25.3624C45.1197 25.5025 45.0356 25.5585 45.0356 25.5585C45.0356 25.5585 45.0636 25.4745 45.1197 25.3904C45.2318 25.2223 45.2318 25.1382 45.2037 25.0541C45.1757 24.97 45.1197 24.886 45.0356 24.8579C44.9235 24.8019 44.7834 24.8299 44.6993 24.886C44.6713 24.886 44.5311 25.0821 44.391 25.2783L44.1108 25.6706L43.9987 26.0069L43.8866 26.3432L43.8305 26.7916C43.8025 27.0438 43.7745 27.24 43.7745 27.268C43.7745 27.2961 43.8025 27.3241 43.8025 27.3241L43.8305 27.3521H44.363H44.8955L44.9235 27.3241C44.9515 27.2961 44.9515 27.2961 44.9515 27.0438C44.9515 26.8477 44.9515 26.7916 44.9795 26.7636C44.9795 26.7356 45.1197 26.6515 45.2878 26.5394L45.5961 26.3432L45.8203 26.0069L46.0445 25.6706L46.2406 25.0541C46.3527 24.7178 46.4368 24.4095 46.4368 24.3815C46.4368 24.3255 46.4088 24.2414 46.3808 24.1853C46.2406 24.0732 46.1285 24.0452 46.0164 24.1013ZM40.2434 24.2974C40.2434 24.2974 40.3835 24.5497 40.5236 24.8299L40.7759 25.3344L40.944 25.5025L41.1122 25.6706L41.3644 25.7827C41.5045 25.8388 41.6166 25.8948 41.6446 25.8948C41.7007 25.8948 41.7567 25.8388 41.7567 25.7827C41.7567 25.7547 41.6726 25.6146 41.5605 25.4184C41.4484 25.2503 41.3644 25.0821 41.3644 25.0821C41.3644 25.0261 41.4484 24.97 41.5045 24.9981C41.5325 24.9981 41.6446 25.1662 41.8128 25.3624L42.093 25.7267L42.2051 26.035L42.3172 26.3432L42.3452 26.6795C42.3733 26.8477 42.4013 27.0158 42.4013 27.0438V27.0999H42.037H41.6726V26.9037C41.6726 26.5955 41.6726 26.6235 41.2803 26.3713L40.972 26.1751L40.7759 25.8668L40.5797 25.5585L40.4115 24.97C40.2994 24.6337 40.2154 24.3815 40.2154 24.3535C40.1313 24.3255 40.2154 24.2974 40.2434 24.2974ZM46.1566 24.3255C46.1566 24.3255 46.1846 24.3535 46.1846 24.3815C46.1846 24.3815 46.1005 24.6618 45.9884 24.9981L45.8203 25.5866L45.6241 25.8948L45.4279 26.2031L45.1197 26.3993C44.7273 26.6515 44.7273 26.6515 44.7273 26.9317V27.1279H44.3069H43.9426V27.0719C43.9426 27.0438 43.9706 26.8757 43.9987 26.7076L44.0267 26.3713L44.1388 26.063L44.2509 25.7547L44.5311 25.3904C44.6713 25.1942 44.8114 25.0261 44.8394 25.0261C44.8955 24.9981 44.9795 25.0541 44.9795 25.1102C44.9795 25.1382 44.8955 25.2783 44.7834 25.4464C44.6713 25.6426 44.5872 25.7827 44.5872 25.8108C44.5872 25.8668 44.6432 25.9229 44.6993 25.9229C44.7273 25.9229 44.8394 25.8668 44.9795 25.8108L45.2318 25.6987L45.3999 25.5305L45.568 25.3624L45.8203 24.8579C45.9604 24.5777 46.0725 24.3535 46.1005 24.3255C46.1005 24.2974 46.1285 24.2974 46.1566 24.3255ZM43.6063 24.3535C43.8586 24.3815 43.8586 24.3815 43.7184 24.4376C43.5223 24.4936 43.3821 24.5216 43.1579 24.5216C43.0178 24.5216 42.9057 24.5216 42.8216 24.4936C42.7095 24.4656 42.4854 24.4095 42.4854 24.3815C42.4854 24.3815 42.7095 24.3535 42.9057 24.3255C43.1299 24.3255 43.3541 24.3255 43.6063 24.3535Z" fill="black"/>
<path fill-rule="evenodd" clip-rule="evenodd" d="M29.5661 8.40754C29.0336 8.46359 28.5011 8.65976 28.0527 9.02408C27.9406 9.10815 27.6604 9.3884 27.5763 9.5005C27.4082 9.72469 27.24 10.033 27.1279 10.2852C27.0719 10.4253 27.0158 10.7056 26.9878 10.8737C26.9598 11.0699 26.9598 11.4902 26.9878 11.6584C27.0158 11.8265 27.0719 12.1068 27.1279 12.2469C27.212 12.4991 27.3802 12.8074 27.5763 13.0316C27.6604 13.1437 27.9126 13.3959 28.0527 13.508C28.2769 13.7042 28.6132 13.8723 28.8655 13.9564C29.0056 14.0124 29.2858 14.0685 29.454 14.0965C29.6221 14.1245 30.0425 14.1245 30.2106 14.0965C30.7431 14.0124 31.1635 13.8443 31.6119 13.508C31.724 13.4239 32.0042 13.1437 32.0883 13.0316C32.2564 12.8074 32.4526 12.4711 32.5367 12.2189C32.5927 12.0788 32.6488 11.7985 32.6768 11.6304C32.7048 11.5183 32.7048 11.4342 32.7048 11.238C32.7048 11.0418 32.7048 10.9297 32.6768 10.8457C32.6488 10.6775 32.5927 10.3973 32.5367 10.2572C32.4246 10.0049 32.2564 9.66864 32.0883 9.44445C32.0042 9.33235 31.724 9.08013 31.6119 8.96803C31.1915 8.65976 30.7431 8.46359 30.2387 8.37952C30.1266 8.40754 29.7342 8.40754 29.5661 8.40754ZM29.6782 9.19223V9.6126H29.3419C29.0897 9.6126 29.0056 9.6126 29.0056 9.6126C29.0056 9.58457 29.1457 9.33235 29.2018 9.22025C29.2858 9.08013 29.482 8.91198 29.5661 8.85593C29.6221 8.82791 29.6501 8.79988 29.6782 8.79988C29.6782 8.77186 29.6782 8.85593 29.6782 9.19223ZM30.0985 8.79988C30.2387 8.88396 30.4068 9.02408 30.5189 9.19223C30.575 9.30433 30.7151 9.55655 30.7151 9.58457C30.7151 9.58457 30.603 9.58457 30.3788 9.58457H30.0145V9.1642C30.0145 8.88396 30.0145 8.74384 30.0145 8.74384C30.0425 8.77186 30.0705 8.79988 30.0985 8.79988ZM28.9776 8.91198C28.9776 8.91198 28.9495 8.96803 28.8935 9.02408C28.8094 9.13618 28.7253 9.30433 28.6413 9.47247L28.5852 9.58457H28.2489C28.0527 9.58457 27.9126 9.58457 27.9126 9.58457C27.9126 9.55655 28.1088 9.3884 28.2209 9.30433C28.389 9.1642 28.6132 9.0521 28.8094 8.94001C28.9776 8.91198 29.0056 8.88396 28.9776 8.91198ZM30.7991 8.94001C30.9953 9.02408 31.2475 9.1642 31.4437 9.30433C31.5558 9.3884 31.752 9.58457 31.752 9.58457C31.752 9.58457 31.6119 9.58457 31.4157 9.58457H31.0794L31.0233 9.47247C30.9673 9.30433 30.8552 9.13618 30.7711 9.02408C30.6871 8.88396 30.687 8.88396 30.687 8.88396C30.7431 8.91198 30.7711 8.91198 30.7991 8.94001ZM28.5011 9.94889C28.5011 9.94889 28.4731 10.0049 28.4731 10.089C28.4171 10.3693 28.389 10.5374 28.333 11.0418V11.1259H27.8286H27.3241V11.0699C27.3241 10.9858 27.3521 10.8176 27.3802 10.6775C27.4362 10.4533 27.5203 10.2291 27.6324 10.0049L27.6884 9.92086H28.0808C28.333 9.94889 28.5011 9.94889 28.5011 9.94889ZM29.6782 10.5374V11.1259H29.1737H28.6693V11.0418C28.6973 10.6495 28.7253 10.4253 28.8094 10.1451L28.8655 9.94889H29.2858H29.7062L29.6782 10.5374ZM30.8832 10.117C30.9393 10.3973 30.9953 10.6495 31.0233 11.0138V11.0979H30.5189H30.0145V10.5094V9.92086H30.4348H30.8552L30.8832 10.117ZM32.0603 10.033C32.1724 10.2291 32.2284 10.3693 32.2844 10.5654C32.3405 10.7056 32.3685 10.9858 32.3685 11.0699V11.1259H31.8641H31.3596V11.0418C31.3596 11.0138 31.3596 10.9017 31.3316 10.8176C31.3036 10.5654 31.2475 10.1731 31.1915 9.94889V9.92086H31.5838H31.9762L32.0603 10.033ZM28.333 11.5183C28.361 12.0227 28.389 12.2189 28.4731 12.4711C28.5011 12.5552 28.5011 12.6112 28.5011 12.6112C28.5011 12.6112 28.333 12.6112 28.1088 12.6112H27.7165L27.6604 12.4991C27.5483 12.2749 27.4642 12.0788 27.4082 11.8546C27.3802 11.7144 27.3521 11.5183 27.3521 11.4622V11.4062H27.8566H28.361L28.333 11.5183ZM29.6782 12.0507V12.6392H29.2578H28.8374L28.7814 12.4431C28.7253 12.1628 28.6693 11.9386 28.6413 11.5463V11.4622H29.1457H29.6501L29.6782 12.0507ZM31.0233 11.5463C30.9953 11.9667 30.9393 12.2469 30.8552 12.5552L30.8272 12.6392H30.4068H30.0145V12.0507V11.4622H30.5189H31.0233V11.5463ZM32.3685 11.4902C32.3685 11.5463 32.3405 11.7985 32.2844 11.9106C32.2284 12.1068 32.1443 12.3029 32.0322 12.5271L31.9762 12.6392H31.5838H31.1915V12.6112C31.2475 12.415 31.3036 11.9947 31.3316 11.7425C31.3316 11.6584 31.3596 11.5463 31.3596 11.5183V11.4342H31.8641H32.3685V11.4902ZM28.6693 13.0876C28.7253 13.2558 28.8374 13.452 28.9215 13.564C28.9495 13.6201 28.9776 13.6761 28.9776 13.6761C28.9776 13.6761 28.7814 13.5921 28.6693 13.536C28.5292 13.48 28.389 13.3679 28.2769 13.2838C28.1648 13.1997 27.9687 13.0036 27.9687 13.0036C27.9687 13.0036 28.1088 13.0036 28.305 13.0036H28.6413L28.6693 13.0876ZM29.6782 13.3959C29.6782 13.6761 29.6782 13.8163 29.6782 13.8163C29.6501 13.8163 29.5661 13.7602 29.51 13.7322C29.4259 13.6761 29.2858 13.508 29.2018 13.3959C29.1457 13.2838 29.0056 13.0316 29.0056 13.0036C29.0056 13.0036 29.1177 13.0036 29.3419 13.0036H29.6782V13.3959ZM30.7151 12.9755C30.7151 13.0036 30.575 13.2558 30.5189 13.3399C30.4348 13.452 30.2947 13.6201 30.2106 13.6761C30.1546 13.7322 30.0705 13.7602 30.0425 13.7602C30.0425 13.7602 30.0425 13.6201 30.0425 13.3399V12.9755H30.3788C30.603 12.9755 30.7151 12.9755 30.7151 12.9755ZM31.724 13.0036C31.6959 13.0596 31.4157 13.2838 31.2475 13.4239C31.1074 13.536 30.7431 13.7042 30.7151 13.6761C30.7151 13.6761 30.7431 13.6201 30.7711 13.564C30.8552 13.4239 30.9953 13.1717 31.0514 13.0036V12.9755H31.3877C31.724 12.9755 31.752 12.9755 31.724 13.0036Z" fill="black"/>
</svg>
