<svg width="73" height="73" viewBox="0 0 147 147" fill="none" xmlns="http://www.w3.org/2000/svg">
<path d="M29.7674 139.283V124.766C29.7674 123.664 29.5837 123.296 29.5837 123.113C29.5837 122.929 29.2162 122.378 28.6649 122.378C28.1137 122.378 27.7462 122.745 27.5624 123.113C27.5624 123.296 27.3787 123.664 27.3787 124.399V139.283H24.8062V120.356H27.1949V121.643C27.3787 121.275 27.7462 120.908 28.1137 120.54C28.6649 120.173 29.2162 119.989 29.9512 119.989C31.0537 119.989 31.6049 120.54 31.7887 120.908C32.1562 121.459 32.3399 122.378 32.3399 124.399V139.283H29.7674V139.283Z" fill="black"/>
<path d="M7.16625 130.646V134.505C7.16625 134.872 7.16625 135.607 7.35 135.975C7.7175 136.894 8.4525 136.894 9.00375 136.894C9.37125 136.894 9.73875 136.894 10.1063 136.526C10.4738 135.975 10.4737 135.056 10.4737 134.689V133.402C10.4737 131.932 10.1063 130.646 9.37125 129.36L6.9825 125.501C6.43125 124.582 5.88 123.664 5.5125 122.745C5.145 121.642 4.7775 120.172 4.7775 118.886V118.151C4.7775 117.049 4.96125 115.762 5.88 114.66C6.79875 113.557 7.90125 113.19 9.1875 113.19C10.4738 113.19 11.76 113.557 12.6788 114.844C13.5975 116.13 13.4138 117.6 13.4138 118.702V121.275H10.4737V118.335C10.4737 117.232 10.29 116.681 10.1063 116.497C9.9225 115.946 9.37125 115.762 9.00375 115.762C8.4525 115.762 8.26875 115.946 7.90125 116.314C7.7175 116.681 7.53375 117.232 7.53375 117.6V117.967C7.53375 119.437 7.7175 120.907 8.82 122.561L11.2088 126.236C12.1275 127.706 13.23 129.727 13.23 133.219V133.586C13.23 134.872 13.23 136.526 12.3113 137.812C11.3925 139.466 10.29 139.65 9.00375 139.65C8.085 139.65 6.79875 139.466 5.88 138.547C4.59375 137.261 4.59375 135.424 4.59375 133.954V130.646H7.16625V130.646Z" fill="black"/>
<path d="M43.3649 113.374H47.7749C50.1637 113.374 51.0824 114.476 51.4499 115.028C51.8174 115.395 52.1849 116.498 52.1849 119.254V134.138C52.1849 135.24 52.0012 136.71 51.0824 137.996C50.1637 139.099 48.6937 139.466 47.7749 139.466H43.1812V113.374H43.3649ZM47.4074 136.526C47.9587 136.526 48.6937 136.526 49.0612 135.608C49.2449 135.424 49.2449 134.873 49.2449 133.586V119.07C49.2449 118.335 49.2449 117.416 48.8774 116.865C48.5099 116.13 47.5912 116.13 47.2237 116.13H45.9374V136.526H47.4074Z" fill="black"/>
<path d="M61.5563 135.608C61.5563 137.078 61.1888 137.996 60.8213 138.548C60.4538 139.099 59.535 139.834 58.065 139.834C56.595 139.834 55.6763 139.283 55.125 138.548C54.2063 137.445 54.2063 136.159 54.2063 135.056V124.583C54.2063 123.48 54.2063 122.194 55.125 121.091C55.6763 120.356 56.7788 119.989 57.8813 119.989C58.9838 119.989 60.0863 120.54 60.6375 121.091C61.5563 122.194 61.5563 123.296 61.5563 124.583V130.279H56.7788V135.424C56.7788 136.343 56.9625 136.71 56.9625 136.894C57.1463 137.261 57.5138 137.445 57.8813 137.445C58.4325 137.445 58.6163 137.261 58.8 136.894C58.9838 136.71 58.9838 136.343 58.9838 135.424V132.3H61.3726V135.608H61.5563ZM59.1675 124.031C59.1675 123.664 59.1675 123.113 58.9838 122.745C58.8 122.561 58.6163 122.378 58.065 122.378C57.5138 122.378 57.33 122.561 57.1463 122.745C56.9625 123.113 56.9625 123.48 56.9625 124.031V128.258H59.1675V124.031Z" fill="black"/>
<path d="M65.0475 139.282L62.8425 120.356H65.415L66.5175 132.851V134.505H66.7013V132.851L67.8038 120.356H70.3763L67.9875 139.282H65.0475Z" fill="black"/>
<path d="M78.8289 135.608C78.8289 137.078 78.4614 137.996 78.0939 138.548C77.7264 138.915 76.8076 139.65 75.3376 139.65C73.8676 139.65 72.9489 139.099 72.3976 138.364C71.6626 137.445 71.6626 135.975 71.6626 135.056V124.583C71.6626 123.48 71.6626 122.194 72.5813 121.091C73.1326 120.356 74.2351 119.989 75.3376 119.989C76.4401 119.989 77.5426 120.54 78.0939 121.091C79.0126 122.194 79.0126 123.296 79.0126 124.583V130.279H74.2351V135.424C74.2351 136.343 74.4188 136.71 74.4188 136.894C74.6026 137.261 74.9701 137.445 75.3376 137.445C75.8889 137.445 76.0726 137.261 76.2564 136.894C76.4401 136.71 76.4401 136.343 76.4401 135.424V132.3H78.8289V135.608ZM76.2564 124.031C76.2564 123.664 76.2564 123.113 76.0726 122.745C75.8889 122.561 75.7051 122.378 75.1539 122.378C74.6026 122.378 74.4189 122.561 74.2351 122.745C74.0514 123.113 74.0513 123.48 74.0513 124.031V128.258H76.2564V124.031Z" fill="black"/>
<path d="M92.9775 134.689C92.9775 135.791 92.9775 137.261 92.4263 138.364C91.875 138.915 90.9563 139.65 89.1188 139.65C87.465 139.65 86.5463 138.915 85.995 138.18C85.26 137.077 85.4438 135.791 85.4438 134.505V124.399C85.4438 123.664 85.4438 122.377 85.995 121.275C86.3625 120.724 87.2813 119.805 89.1188 119.805C90.9563 119.805 91.875 120.724 92.2425 121.275C92.9775 122.377 92.7938 123.48 92.7938 124.399V134.689H92.9775ZM90.2213 122.929C89.8538 122.377 89.4863 122.377 89.1188 122.377C88.7513 122.377 88.3838 122.377 88.0163 122.929C87.8325 123.296 87.8325 123.664 87.8325 124.031V135.607C87.8325 135.975 87.8325 136.342 88.0163 136.71C88.3838 137.261 88.7513 137.261 89.1188 137.261C89.4863 137.261 89.8538 137.261 90.2213 136.71C90.405 136.342 90.405 135.975 90.405 135.607V124.031C90.405 123.664 90.405 123.296 90.2213 122.929Z" fill="black"/>
<path d="M94.9988 144.795V120.356H97.2038L97.5713 121.275C97.755 120.907 97.9388 120.724 98.3063 120.54C98.6738 120.172 99.225 120.172 99.7763 120.172C101.246 120.172 101.798 121.091 102.165 121.826C102.349 122.377 102.533 123.112 102.533 124.399V135.791C102.533 136.894 102.533 138.18 101.981 139.099C101.43 140.201 100.695 140.385 99.96 140.385C99.225 140.385 98.6738 140.201 98.3063 139.834C97.9388 139.466 97.755 139.282 97.755 138.915V145.162H94.9988V144.795ZM99.5925 122.745C99.4088 122.377 99.225 122.194 98.8575 122.194C98.49 122.194 98.1225 122.377 97.755 122.929C97.5713 123.296 97.5713 123.847 97.5713 124.399V135.056C97.5713 135.424 97.5713 136.159 97.755 136.71C97.9388 137.077 98.1225 137.812 98.8575 137.812C99.4088 137.812 99.5925 137.629 99.5925 137.261C99.5925 137.077 99.7763 136.71 99.7763 135.424V124.215C99.7763 123.664 99.7763 123.112 99.5925 122.745Z" fill="black"/>
<path d="M114.109 139.282V125.134C114.109 123.664 114.109 123.48 113.925 123.296C113.741 122.745 113.19 122.745 113.006 122.745C112.639 122.745 112.271 122.929 112.088 123.296C111.904 123.664 111.904 124.031 111.904 124.95V139.282H109.331V125.134C109.331 124.766 109.331 123.664 109.148 123.48C108.964 122.929 108.596 122.745 108.229 122.745C107.861 122.745 107.494 122.929 107.31 123.296C107.31 123.48 106.943 123.847 106.943 124.766V139.466H104.37V120.356H106.759L107.126 121.275C107.31 121.091 107.494 120.724 107.861 120.356C108.413 119.989 108.964 119.805 109.331 119.805C109.883 119.805 110.434 119.989 110.801 120.356C111.169 120.724 111.536 121.091 111.536 121.275C111.904 120.907 112.088 120.54 112.639 120.356C113.19 119.989 113.558 119.989 114.293 119.989C115.028 119.989 115.763 120.356 116.13 120.907C116.681 121.642 116.681 122.561 116.681 123.296V139.282H114.109Z" fill="black"/>
<path d="M125.869 135.608C125.869 137.078 125.501 137.996 125.134 138.548C124.766 139.099 123.848 139.834 122.378 139.834C120.908 139.834 119.989 139.283 119.438 138.548C118.519 137.445 118.519 136.159 118.519 135.056V124.583C118.519 123.48 118.519 122.194 119.438 121.091C119.989 120.356 121.091 119.989 122.194 119.989C123.296 119.989 124.399 120.54 124.95 121.091C125.869 122.194 125.869 123.296 125.869 124.583V130.279H121.091V135.424C121.091 136.343 121.275 136.71 121.275 136.894C121.459 137.261 121.826 137.445 122.194 137.445C122.745 137.445 122.929 137.261 123.113 136.894C123.296 136.71 123.296 136.343 123.296 135.424V132.3H125.685V135.608H125.869ZM123.296 124.031C123.296 123.664 123.296 123.113 123.113 122.745C122.929 122.561 122.745 122.378 122.194 122.378C121.643 122.378 121.459 122.561 121.275 122.745C121.091 123.113 121.091 123.48 121.091 124.031V128.258H123.296V124.031V124.031Z" fill="black"/>
<path d="M132.851 139.283V124.766C132.851 123.664 132.667 123.296 132.667 123.113C132.667 122.929 132.3 122.378 131.749 122.378C131.197 122.378 130.83 122.745 130.646 123.113C130.646 123.296 130.462 123.664 130.462 124.399V139.283H127.89V120.356H130.279V121.643C130.462 121.275 130.83 120.908 131.197 120.54C131.749 120.173 132.3 119.989 133.035 119.989C134.137 119.989 134.689 120.54 134.872 120.908C135.24 121.459 135.424 122.378 135.424 124.399V139.283H132.851V139.283Z" fill="black"/>
<path d="M20.2125 121.826V135.607C20.2125 136.159 20.2125 136.526 20.0287 136.71C19.845 137.077 19.4775 137.261 18.9262 137.261C18.5587 137.261 18.1912 137.077 18.0075 136.526C17.8237 136.159 17.8237 135.056 17.8237 134.689V120.356L15.2512 121.826V135.24C15.2512 136.71 15.435 137.812 15.9862 138.731C16.5375 139.466 17.0887 139.65 17.8237 139.65C18.375 139.65 18.9262 139.466 19.2937 139.099C19.4775 138.915 19.845 138.731 20.2125 138.18V139.282H22.6012V120.356L20.2125 121.826Z" fill="black"/>
<path d="M80.8501 114.844V139.283H83.4226V113.374L80.8501 114.844Z" fill="black"/>
<path d="M140.936 122.561H142.406V120.356H140.936V113.374L138.364 114.844V120.356H136.894V122.561H138.364V136.343C138.364 136.71 138.364 137.445 138.548 137.813C138.731 138.18 138.915 138.731 139.466 138.915C140.018 139.283 140.569 139.283 141.12 139.283H142.406V137.078H141.488C140.936 137.078 140.936 136.159 140.936 135.791V122.561Z" fill="black"/>
<path d="M107.126 84.7087V82.1362C107.126 81.7687 106.943 81.5849 106.759 81.2174L105.289 79.3799L105.473 79.5637L97.2038 68.5387V40.4249C97.2038 40.0574 97.0201 39.8737 96.8363 39.5062L78.6451 15.2512C78.6451 15.2512 78.6451 15.0674 78.4613 15.0674C78.4613 15.0674 78.4613 15.0674 78.2776 14.8837H78.0938H77.9101H77.7263H77.5426H77.3588C77.3588 14.8837 77.1751 14.8837 77.1751 15.0674C77.1751 15.0674 76.9913 15.0674 76.9913 15.2512L64.6801 31.4212C64.4963 31.6049 64.3126 31.9724 64.3126 32.3399V38.0362L58.8001 31.2374C58.8001 31.2374 58.8001 31.2374 58.6163 31.0537L58.4326 30.8699H58.2488H58.0651H57.8813H57.6976H57.5138C57.5138 30.8699 57.3301 30.8699 57.3301 31.0537C57.3301 31.0537 57.3301 31.2374 57.1463 31.2374L49.4288 41.5274C49.2451 41.7112 49.0613 42.0787 49.0613 42.4462V60.6374V61.1887V62.2912L43.9163 68.9062C43.7326 69.0899 43.5488 69.4574 43.5488 69.8249V102.532L46.3051 100.879V70.1924L56.5951 56.5949V102.532L59.3513 100.879V36.1987L71.4788 52.1849V102.349L74.2351 100.695V51.8174C74.2351 51.4499 74.0513 51.2662 73.8676 50.8987L66.7013 41.5274V32.5237L76.2563 20.0287V102.349L79.0126 100.695V20.2124L94.6313 40.9762V69.2737V102.532L97.3876 100.879V73.3162L102.165 79.7474L104.37 82.6874V84.8924V102.716L107.126 100.695V86.3624V84.7087ZM56.4113 52.0012L51.4501 58.4324V42.8137L56.4113 36.1987V52.0012Z" fill="black"/>
<path d="M108.964 20.0287C99.225 8.63621 85.0762 2.20496 70.1925 2.20496C62.475 2.20496 54.9412 3.85871 47.775 7.34996C35.6475 13.4137 26.46 23.7037 22.05 36.5662C17.64 49.4287 18.5587 63.21 24.4387 75.5212C27.7462 82.1362 32.34 88.0162 38.0362 92.61C38.0362 92.61 38.0362 92.61 38.22 92.61H38.4037V92.4262C35.6475 89.3025 33.2587 85.6275 31.4212 81.7687C25.5412 69.6412 24.6225 55.86 29.0325 43.1812C33.4425 30.5025 42.4462 20.0287 54.5737 14.1487C61.5562 10.6575 69.09 9.00371 76.8075 9.00371C88.3837 9.00371 99.7762 13.0462 108.78 20.3962C108.78 20.3962 108.78 20.3962 108.964 20.3962C108.964 20.2125 108.964 20.2125 108.964 20.0287Z" fill="black"/>
</svg>
