<?xml version="1.0" encoding="utf-8"?>
<!-- Generator: Adobe Illustrator 24.1.2, SVG Export Plug-In . SVG Version: 6.00 Build 0)  -->
<svg version="1.1" id="Isolation_Mode" xmlns="http://www.w3.org/2000/svg" xmlns:xlink="http://www.w3.org/1999/xlink" x="0px"
	 y="0px" viewBox="0 0 623.818 122.683" style="enable-background:new 0 0 623.818 122.683;" xml:space="preserve">
<style type="text/css">
	.st0{opacity:0.8;}
	.st1{clip-path:url(#SVGID_2_);}
	.st2{clip-path:url(#SVGID_4_);fill:#FBE400;}
	.st3{fill:#27509A;}
	.st4{fill:#FFFFFF;}
</style>
<g class="st0">
	<g>
		<defs>
			<rect id="SVGID_1_" x="21.48" y="109.62" width="507.567" height="13.063"/>
		</defs>
		<clipPath id="SVGID_2_">
			<use xlink:href="#SVGID_1_"  style="overflow:visible;"/>
		</clipPath>
		<g class="st1">
			<defs>
				<rect id="SVGID_3_" x="21.48" y="109.62" width="507.564" height="13.063"/>
			</defs>
			<clipPath id="SVGID_4_">
				<use xlink:href="#SVGID_3_"  style="overflow:visible;"/>
			</clipPath>
			<polygon class="st2" points="528.043,110.621 26.507,110.621 22.48,121.683 523.973,121.683 			"/>
		</g>
	</g>
</g>
<path class="st3" d="M605.89,44.249L594.716,74.62c0.153-3.061,0.757-15.137,1.137-22.097c0.152-2.866-0.469-5.052-1.835-6.504
	c-1.673-1.75-3.871-1.77-3.898-1.77h-24.901l-16.274,44.253h18.079l11.546-31.338l-1.366,31.338h30.319l16.295-44.253H605.89z
	 M536.182,88.497l16.28-44.248h-21.441L514.74,88.497H536.182z M511.973,73.8h-20.996l10.868-29.551H481l-16.311,44.253h41.872
	L511.973,73.8z M464.836,55.841l4.301-11.592h-44.688l-16.287,44.253h45.189l4.388-11.939h-24.95l1.824-4.92h23.286l3.994-10.891
	h-23.281l1.778-4.911H464.836z M396.038,88.502l16.316-44.253h-20.383l-5.909,15.937h-10.781l5.87-15.937h-20.447l-16.248,44.253
	h20.372l5.559-14.985h10.803l-5.553,14.985H396.038z M343.309,60.46l6.483-15.547c-11.156-2.751-22.362-1.442-28.177-0.256
	c-12.984,2.658-30.575,12.2-30.389,29.6c0.113,10.04,12.234,15.609,26.145,15.225c7.801-0.211,15.226-1.644,16.166-1.805l5.163-13.4
	c-6.828,1.082-13.387,2.718-18.536,0.659c-9.273-3.709-3.565-13.353,2.99-16.355c2.893-1.324,6.811-2.579,11.547-2.474
	C336.659,56.144,341.451,56.227,343.309,60.46 M275.505,88.497l16.28-44.248h-21.424l-16.303,44.248H275.505z M241.719,88.497
	l16.283-44.248h-30.264l-15.656,23.766c0,0,0.996-12.435,1.248-15.429c0.18-2.28-0.095-8.337-5.648-8.337h-24.838l-16.29,44.248
	h19.42l11.802-32.005l-2.487,32.005h17.264l21.169-31.446l-11.557,31.446H241.719z"/>
<path class="st4" d="M154.719,110.621h-4.199c1.361-1.618,2.469-3.44,3.275-5.405C154.429,106.975,154.736,108.797,154.719,110.621"
	/>
<path class="st4" d="M85.589,65.17c0.021,0.001,1.56,0.11,2.48,0.466c1.557,0.596,4.67,3.575,6.353,3.833
	c0.295,0.034,1.065-0.154,0.228-0.744c-0.233-0.167-2.177-1.897-1.457-2.793c0.009-0.014,0.017-0.02,0.027-0.037
	c0.256-0.359,0.593-0.439,0.953-0.368c2.438,0.604,4.468,0.955,5.166,1.054c0.429,0.06,0.742,0.071,0.917-0.077
	c0.172-0.15,0.045-0.255-0.428-0.391c-3.76-1.011-7.903-2.629-10.816-4.811c-3.901-2.992-5.982-7.708-5.367-12.403
	c0.452-3.454,2.239-6.5,5.059-8.679c1.121-0.825,2.907-1.44,3.42-1.623c1.366-0.493-0.871-0.853-1.036-0.88
	c-0.574-0.093-0.606-0.685-0.136-2.481c2.604-8.358,8.366-12.049,13.147-13.671c0.839-0.255,2.123-0.621,2.994-0.755
	c1.317-0.201,0.828-0.796-0.684-0.972c0,0-0.511-0.03-0.26-0.36c0.044-0.05,0.328-0.382,0.751-0.655
	c1.076-0.684,2.631-1.206,4.332-1.252c3.072-0.081,5.721,1.633,6.033,3.219c0,0,0.11,0.317-0.263,0.329
	c-0.589,0.02-1.066,0.27-0.25,0.672c0.187,0.094,1.007,0.345,2.16,0.874c0.054,0.033,0.11,0.063,0.168,0.091
	c2.318,1.077,9.531,5.462,9.005,17.862c-0.001,0-0.001,0-0.001-0.001c-0.017,0.373-0.05,0.744-0.069,1.115
	c-0.023,0.34-0.071,0.684-0.113,1.026c-0.678-0.08-0.972,0.21-0.488,0.694c0.351,0.349,1.224,1.39,1.726,2.218
	c1.625,2.683,2.43,6.232,2.001,9.497c-0.577,4.426-3.315,7.123-6.055,8.737c-1.227,0.695-4.065,2.104-7.61,2.895
	c-0.723,0.163-0.384,1.106,2.971,1.058c0.283,0.031,0.894,0.063,1.07,0.393c0.391,0.721-0.281,2.135-1.737,2.994
	c-1.256,0.742-0.25,0.896,1.495,0.373c0.51-0.083,1.85,0.458,2.025,0.531c2.837,1.255,9.98,4.944,15.35,12.178
	c3.714,5.335,5.064,9.545,3.903,12.177c-1.13,2.56-4.489,3.032-4.514,3.035c-0.019,0.003-0.038,0.004-0.057,0.007
	c-12.978,2.022-35.486-1.543-51.013-6.11c-2.779-0.815-6.928-2.275-10.417-3.82c3.43-7.422,2.094-16.811-3.53-23.151
	c-0.075-0.084-0.152-0.166-0.228-0.248C78.322,65.28,82.928,65.143,85.589,65.17"/>
<path class="st4" d="M149.096,88.278c2.494,3.724,3.388,8.196,2.519,12.591c-0.732,3.704-2.698,7.031-5.523,9.461
	c0.082-3.07-0.461-6.657-2.727-9.493c0.899-0.713,1.73-1.66,2.294-2.922c1.717-3.841,0.296-9.076-4.224-15.561
	c-0.01-0.014-0.019-0.028-0.029-0.04c-0.097-0.13-0.195-0.256-0.292-0.384C144.353,83.153,147.13,85.343,149.096,88.278"/>
<path class="st4" d="M70.469,68.728c5.182,5.841,6.055,14.737,2.076,21.151c-4.464,7.195-12.466,10.755-19.915,8.857
	c-1.085-0.277-2.101-0.655-3.04-1.115c0.71-0.108,1.41-0.253,2.093-0.439c7.329-1.988,12.802-8.748,13.618-16.822
	c0.515-5.099-0.928-10.207-3.958-14.014c-1.069-1.342-2.296-2.481-3.694-3.437C62.382,62.931,67.202,65.045,70.469,68.728"/>
<path class="st4" d="M58.673,68.472c2.481,3.116,3.659,7.324,3.233,11.544c-0.675,6.678-5.142,12.252-11.116,13.873
	c-5.03,1.365-9.864,0.178-13.167-2.012c7.286-0.141,14.289-5.147,16.632-12.44c1.176-3.662,1.098-7.638-0.219-11.198
	c-0.608-1.642-1.472-3.163-2.543-4.513C54.574,64.703,56.909,66.256,58.673,68.472"/>
<path class="st4" d="M47.273,68.68c0.264-1.389,0.378-2.775,0.353-4.135c3.573,3.442,4.992,8.831,3.38,13.848
	c-2.223,6.918-9.589,11.305-16.419,9.781c-2.88-0.644-6.245-2.424-8.286-5.088c1.237,0.266,2.491,0.402,3.745,0.402
	c2.372,0,4.743-0.481,6.993-1.46C42.294,79.743,46.12,74.753,47.273,68.68"/>
<path class="st4" d="M42.168,57.3c0.007,0.011,0.013,0.015,0.014,0.008c1.824,3.036,2.475,6.857,1.739,10.735
	c-0.942,4.963-4.023,9.021-8.243,10.856c-4.806,2.091-10.323,1.354-14.759-1.971c-3.522-2.64-5.67-6.393-6.08-10.43
	c0.001,0.002-0.001-0.008-0.009-0.026c0.351,0.308,0.712,0.597,1.084,0.863c2.683,1.935,5.971,2.957,9.51,2.957
	c2.408,0,4.176-0.476,4.514-0.573c6.24-1.764,9.3-5.511,10.768-8.344C41.466,59.908,41.909,58.5,42.168,57.3"/>
<path class="st4" d="M3.775,13.681c0.048-0.027,0.093-0.058,0.135-0.097c0.12-0.109,0.261-0.188,0.414-0.237
	c0.048-0.01,0.097-0.018,0.149-0.021c0.184-0.011,0.332-0.019,0.451-0.024c0.105,0.015,0.212,0.039,0.317,0.078
	c0.982,0.358,1.707,1.607,1.939,3.342c0.66,4.978,2.996,8.282,3.095,8.42c0.145,0.202,0.372,0.309,0.602,0.309
	c0.15,0,0.301-0.045,0.431-0.139c0.332-0.238,0.409-0.701,0.17-1.033c-0.022-0.031-2.218-3.137-2.831-7.752
	c-0.31-2.326-1.367-3.98-2.899-4.538c-0.371-0.136-0.752-0.194-1.123-0.181c-0.202-0.463-0.383-0.912-0.438-1.151
	c-0.149-0.638-0.433-1.896,0.975-2.378c0.087-0.03,0.177-0.054,0.268-0.076C5.477,8.207,5.525,8.206,5.574,8.2
	c1.022-0.127,2.364,0.34,3.711,5.132c1.237,4.399,4.047,8.691,4.166,8.872c0.142,0.215,0.378,0.333,0.619,0.333
	c0.139,0,0.281-0.04,0.406-0.123c0.342-0.225,0.436-0.684,0.211-1.025c-0.028-0.043-2.801-4.279-3.977-8.457
	c-0.58-2.065-1.394-4.312-2.784-5.46c-0.199-0.508-0.418-1.074-0.48-1.255C7.209,5.508,6.964,3.942,8.311,3.491
	C8.583,3.4,8.831,3.359,9.055,3.359c1.07,0,1.618,0.921,1.886,1.609c0.039,0.098,0.084,0.202,0.133,0.308l6.092,14.548
	c0.038,0.11,0.104,0.202,0.188,0.266c0.195,0.162,0.455,0.215,0.702,0.121c0.35-0.146,0.523-0.541,0.382-0.895L12.519,5.178
	c0.102-0.268,0.305-0.518,0.672-0.703c0.37-0.188,0.694-0.26,0.974-0.26c0.903,0,1.345,0.744,1.345,0.744s7.867,15.446,9.361,18.114
	c-0.602,1.007-1.089,1.991-1.152,2.236c-0.108,0.394,0.162,0.75,0.35,0.378c0.439-0.65,1.074-1.422,1.614-2.042
	c0.006-0.006,0.011-0.012,0.018-0.02c0-0.001,0.001-0.002,0.002-0.003c0.023-0.021,0.04-0.051,0.053-0.085
	c0.37-0.659,1.528-3.735,1.985-4.701c0.325-1.408,0.929-3.306,1.707-4.547c0.672-1.07,1.622-1.44,2.428-1.44
	c0.891,0,1.606,0.452,1.569,0.911c-0.02,0.207-1.927,12.143-1.927,12.143c-0.5,2.498-0.948,6.067-1.188,8.137
	c-0.016,0.507-0.078,1.014-0.168,1.501c-0.011,0.103-0.017,0.158-0.017,0.158s-0.024,0.112-0.075,0.294
	c-0.399,1.795-1.11,3.215-1.11,3.215l0.62,2.847c0.004-0.002,0.007-0.005,0.011-0.006c0.246,1.201,0.515,2.483,0.622,2.873
	c0.452,1.615-0.128,2.559,0.165,2.881c0.411,0.453,1.415-1.696,1.675-2.814c0.204-0.889-0.134-2.699-0.423-3.958
	c0.861,0.402,2.147,1.133,3.353,2.341c2.064,2.066,2.639,3.671,3.029,4.99c0.391,1.32,1.047,4.164,1.091,5.695
	c0.044,1.531-0.481,9.669-10.106,12.381c0,0-1.471,0.442-3.573,0.442c-2.146,0-4.949-0.46-7.521-2.318
	c-4.656-3.308-6.472-10.549-5.548-14.374c0.435-1.801,1.219-3.257,1.836-4.204c0.452,0.274,0.906,0.485,1.365,0.635l0.278,1.316
	c0.03,0.156,0.782,3.833,2.204,4.952c0.836,0.654,2.209,0.704,2.611,0.704c0.424,0,1.431-0.046,1.611-0.484
	c0.03-0.071,0.078-0.258-0.11-0.446c-0.074-0.078-0.197-0.145-0.445-0.28c-0.686-0.369-1.963-1.058-2.234-2.31
	c-0.153-0.706-0.737-3.185-1.083-4.647c1.431-1.137,1.583-2.389-0.289-1.995c-1.129,0.238-2.177-0.291-2.981-0.928
	c-3.754-3.287-7.692-13.378-8.473-15.165C3.448,19.234,2.784,14.892,3.775,13.681"/>
<path class="st4" d="M54.551,102.539c0.706,0.076,1.413,0.115,2.118,0.115c7.003,0,13.835-3.695,18.178-10.063
	c3.696,1.665,8.092,3.218,11.16,4.117c8.541,2.513,18.313,4.544,27.516,5.72c5.79,0.74,11.099,1.111,15.75,1.111
	c3.459,0,6.555-0.206,9.214-0.618c0.177-0.025,0.875-0.132,1.787-0.439c2.101,2.215,2.515,5.421,2.386,8.139H55.681
	C54.842,108.972,54.11,106.364,54.551,102.539"/>
<path d="M3.775,13.681c0.048-0.027,0.093-0.059,0.136-0.097c0.119-0.109,0.26-0.188,0.413-0.238c0.048-0.01,0.097-0.017,0.149-0.02
	c0.185-0.012,0.332-0.019,0.452-0.024c0.105,0.015,0.211,0.039,0.316,0.078c0.982,0.357,1.707,1.607,1.939,3.342
	c0.66,4.978,2.996,8.282,3.095,8.42c0.145,0.201,0.372,0.309,0.602,0.309c0.15,0,0.301-0.046,0.431-0.139
	c0.333-0.239,0.409-0.701,0.17-1.034c-0.022-0.03-2.218-3.136-2.83-7.751c-0.311-2.326-1.368-3.98-2.899-4.539
	c-0.371-0.135-0.752-0.193-1.124-0.18c-0.201-0.463-0.383-0.913-0.438-1.151c-0.149-0.639-0.433-1.896,0.975-2.378
	c0.087-0.03,0.177-0.055,0.268-0.076c0.048,0.003,0.095,0.002,0.144-0.004c1.023-0.126,2.364,0.34,3.711,5.133
	c1.238,4.399,4.047,8.691,4.166,8.871c0.142,0.216,0.378,0.333,0.619,0.333c0.14,0,0.281-0.04,0.407-0.122
	c0.341-0.225,0.436-0.684,0.21-1.026c-0.027-0.042-2.801-4.278-3.977-8.456c-0.58-2.066-1.393-4.312-2.784-5.46
	C7.727,6.964,7.508,6.398,7.447,6.217C7.209,5.508,6.964,3.941,8.311,3.491c0.273-0.092,0.52-0.132,0.744-0.132
	c1.07,0,1.618,0.921,1.887,1.609c0.038,0.098,0.083,0.202,0.133,0.307l6.092,14.549c0.037,0.11,0.103,0.201,0.187,0.265
	c0.195,0.163,0.456,0.216,0.702,0.122c0.35-0.146,0.523-0.541,0.382-0.895L12.519,5.177c0.102-0.268,0.306-0.517,0.672-0.702
	c0.37-0.188,0.694-0.26,0.974-0.26c0.903,0,1.345,0.744,1.345,0.744s7.868,15.446,9.361,18.113
	c-0.602,1.008-1.089,1.992-1.152,2.236c-0.107,0.394,0.162,0.751,0.351,0.379c0.438-0.651,1.073-1.422,1.613-2.043
	c0.006-0.005,0.012-0.011,0.018-0.02c0.001-0.001,0.002-0.002,0.002-0.003c0.024-0.02,0.04-0.05,0.054-0.085
	c0.37-0.658,1.527-3.734,1.984-4.7c0.325-1.408,0.929-3.306,1.708-4.547c0.671-1.07,1.621-1.44,2.427-1.44
	c0.891,0,1.606,0.452,1.57,0.911c-0.021,0.207-1.928,12.143-1.928,12.143C31.019,28.4,30.57,31.97,30.33,34.04
	c-0.016,0.507-0.078,1.014-0.168,1.501c-0.011,0.103-0.016,0.158-0.016,0.158s-0.025,0.112-0.076,0.294
	c-0.399,1.795-1.11,3.215-1.11,3.215l0.62,2.847c0.004-0.002,0.007-0.005,0.011-0.006c0.246,1.2,0.516,2.483,0.622,2.873
	c0.452,1.615-0.128,2.558,0.165,2.881c0.411,0.452,1.415-1.696,1.675-2.815c0.205-0.888-0.133-2.698-0.423-3.957
	c0.862,0.401,2.148,1.133,3.354,2.341c2.063,2.066,2.638,3.67,3.028,4.99c0.391,1.32,1.047,4.164,1.091,5.694
	c0.044,1.532-0.481,9.67-10.106,12.382c0,0-1.471,0.441-3.573,0.441c-2.145,0-4.948-0.459-7.521-2.317
	c-4.656-3.309-6.471-10.549-5.548-14.374c0.435-1.802,1.22-3.258,1.836-4.204c0.452,0.273,0.906,0.485,1.365,0.634l0.278,1.317
	c0.031,0.156,0.782,3.832,2.204,4.952c0.836,0.654,2.21,0.704,2.611,0.704c0.425,0,1.431-0.046,1.611-0.484
	c0.03-0.072,0.079-0.258-0.11-0.447c-0.074-0.077-0.196-0.144-0.444-0.279c-0.686-0.37-1.963-1.058-2.235-2.311
	c-0.153-0.705-0.737-3.184-1.083-4.646c1.431-1.137,1.583-2.389-0.289-1.996c-1.128,0.238-2.177-0.29-2.98-0.927
	c-3.755-3.287-7.693-13.379-8.474-15.166C3.449,19.233,2.785,14.892,3.775,13.681 M42.168,57.3c0.008,0.011,0.013,0.015,0.014,0.008
	c1.824,3.035,2.476,6.857,1.739,10.735c-0.942,4.963-4.023,9.021-8.242,10.856c-4.806,2.091-10.324,1.354-14.759-1.971
	c-3.523-2.64-5.671-6.393-6.081-10.43c0.002,0.002-0.001-0.008-0.009-0.026c0.352,0.308,0.713,0.597,1.084,0.863
	c2.684,1.935,5.971,2.957,9.51,2.957c2.408,0,4.176-0.476,4.514-0.574c6.24-1.763,9.3-5.51,10.768-8.344
	C41.466,59.908,41.909,58.5,42.168,57.3 M47.274,68.68c0.263-1.389,0.378-2.776,0.353-4.135c3.572,3.442,4.991,8.831,3.38,13.848
	c-2.224,6.917-9.589,11.305-16.419,9.78c-2.88-0.643-6.245-2.424-8.286-5.088c1.237,0.267,2.49,0.403,3.745,0.403
	c2.371,0,4.743-0.481,6.993-1.46C42.295,79.743,46.121,74.752,47.274,68.68 M58.673,68.472c2.481,3.116,3.659,7.324,3.233,11.544
	c-0.675,6.678-5.142,12.252-11.116,13.873c-5.03,1.365-9.864,0.178-13.167-2.012c7.286-0.141,14.289-5.147,16.632-12.44
	c1.176-3.662,1.099-7.638-0.219-11.198c-0.608-1.642-1.472-3.163-2.543-4.512C54.575,64.703,56.909,66.256,58.673,68.472
	 M70.469,68.728c5.182,5.841,6.055,14.737,2.076,21.151c-4.463,7.195-12.466,10.755-19.915,8.856
	c-1.085-0.276-2.101-0.655-3.04-1.114c0.71-0.108,1.41-0.253,2.093-0.439c7.33-1.988,12.802-8.748,13.618-16.823
	c0.515-5.098-0.928-10.206-3.958-14.013c-1.069-1.343-2.295-2.482-3.694-3.437C62.382,62.931,67.202,65.045,70.469,68.728
	 M85.589,65.17c0.021,0.001,1.56,0.11,2.48,0.466c1.557,0.596,4.67,3.575,6.353,3.833c0.296,0.034,1.065-0.155,0.228-0.744
	c-0.233-0.167-2.177-1.898-1.457-2.793c0.009-0.015,0.017-0.021,0.027-0.037c0.256-0.359,0.593-0.439,0.953-0.368
	c2.438,0.604,4.468,0.955,5.166,1.053c0.429,0.06,0.742,0.071,0.917-0.076c0.172-0.15,0.045-0.255-0.428-0.392
	c-3.76-1.01-7.903-2.628-10.816-4.81c-3.901-2.993-5.982-7.709-5.367-12.403c0.452-3.454,2.239-6.501,5.059-8.68
	c1.121-0.824,2.907-1.44,3.42-1.623c1.366-0.493-0.871-0.853-1.036-0.879c-0.574-0.094-0.606-0.685-0.136-2.481
	c2.604-8.358,8.366-12.049,13.147-13.672c0.839-0.254,2.123-0.62,2.994-0.754c1.317-0.201,0.828-0.796-0.684-0.972
	c0,0-0.511-0.03-0.26-0.36c0.044-0.051,0.328-0.383,0.751-0.656c1.076-0.683,2.631-1.205,4.332-1.251
	c3.072-0.081,5.721,1.632,6.033,3.218c0,0,0.11,0.317-0.263,0.33c-0.589,0.02-1.065,0.269-0.25,0.671
	c0.187,0.095,1.007,0.345,2.16,0.874c0.054,0.033,0.11,0.064,0.168,0.091c2.318,1.077,9.531,5.463,9.005,17.863
	c-0.001,0-0.001,0-0.001-0.001c-0.017,0.373-0.05,0.744-0.069,1.114c-0.023,0.341-0.071,0.685-0.113,1.026
	c-0.678-0.079-0.972,0.211-0.488,0.695c0.351,0.349,1.224,1.39,1.726,2.217c1.625,2.684,2.43,6.232,2.001,9.498
	c-0.577,4.426-3.315,7.122-6.055,8.737c-1.227,0.695-4.065,2.104-7.61,2.895c-0.723,0.163-0.384,1.105,2.971,1.057
	c0.283,0.032,0.894,0.063,1.07,0.394c0.391,0.721-0.281,2.134-1.737,2.993c-1.256,0.743-0.25,0.896,1.495,0.374
	c0.51-0.084,1.85,0.457,2.025,0.53c2.837,1.256,9.98,4.944,15.35,12.179c3.714,5.335,5.064,9.545,3.903,12.176
	c-1.13,2.561-4.489,3.032-4.514,3.035c-0.019,0.003-0.038,0.005-0.057,0.008c-12.978,2.022-35.486-1.543-51.013-6.111
	c-2.779-0.814-6.928-2.274-10.417-3.82c3.43-7.421,2.094-16.811-3.53-23.151c-0.075-0.083-0.152-0.165-0.228-0.248
	C78.322,65.28,82.928,65.142,85.589,65.17 M149.096,88.278c2.494,3.725,3.389,8.196,2.519,12.591
	c-0.732,3.704-2.698,7.031-5.523,9.462c0.082-3.071-0.461-6.657-2.727-9.493c0.899-0.714,1.73-1.661,2.294-2.923
	c1.718-3.841,0.296-9.076-4.224-15.561c-0.01-0.013-0.019-0.027-0.029-0.04c-0.097-0.13-0.195-0.256-0.292-0.384
	C144.353,83.153,147.13,85.343,149.096,88.278 M3.52,28.568c0.015,0.038,0.03,0.075,0.047,0.113c0.078,0.179,0.19,0.446,0.332,0.785
	c0.796,1.905,2.454,5.868,4.447,9.417c1.123,2,2.2,3.597,3.263,4.825c-0.823,1.183-1.961,3.154-2.571,5.679
	c-0.631,2.614-0.351,5.997,0.768,9.282c0.466,1.368,1.059,2.651,1.758,3.824c-0.006,0.005-0.012,0.01-0.019,0.015
	c0.007,0.011,0.013,0.023,0.02,0.035c-0.034,0.102-0.059,0.209-0.073,0.32c-0.815,6.441,1.944,12.72,7.381,16.796
	c0.87,0.652,1.776,1.221,2.707,1.709c0.791,2.443,2.439,4.707,4.789,6.563c1.588,1.254,3.44,2.271,5.362,2.957
	c0.012,0.019,0.022,0.039,0.036,0.057c2.044,2.906,5.185,5.024,9.083,6.124c0.978,0.276,1.978,0.477,2.985,0.607
	c0.047,0.06,0.096,0.117,0.153,0.171c1.891,1.833,4.373,3.22,7.206,4.034c-0.472,3.733-0.016,6.598,0.761,8.74h3.726
	c-0.838-1.65-1.571-4.258-1.13-8.082c0.707,0.075,1.414,0.115,2.119,0.115c7.002,0,13.834-3.695,18.178-10.064
	c3.696,1.666,8.091,3.219,11.159,4.118c8.542,2.512,18.314,4.544,27.516,5.719c5.791,0.74,11.099,1.111,15.75,1.111
	c3.46,0,6.556-0.206,9.214-0.618c0.178-0.024,0.875-0.132,1.787-0.439c2.102,2.216,2.516,5.422,2.386,8.14h7.928
	c1.349-1.604,2.447-3.41,3.246-5.357c0.628,1.743,0.933,3.549,0.916,5.357h3.379c0.028-3.489-0.901-6.973-2.801-10.091
	c-0.049-0.082-0.105-0.156-0.165-0.225c0.664-4.889-0.462-9.791-3.231-13.925c-3.001-4.481-7.567-7.526-12.858-8.572
	c-0.535-0.106-1.086-0.191-1.637-0.255c-0.074-0.009-0.147-0.011-0.219-0.01c-5.403-5.249-11.119-7.933-13.144-8.778
	c0.066-0.282,0.122-0.561,0.183-0.818c0.074-0.02,0.146-0.044,0.217-0.074c5.76-2.505,9.185-6.752,9.907-12.281
	c0.574-4.372-0.636-9.215-3.102-12.595c0.012-0.058,0.022-0.116,0.028-0.177c0.589-5.91-0.302-11.066-2.647-15.323
	c-1.912-3.469-4.809-6.238-8.16-7.795c-0.015-0.007-0.031-0.012-0.046-0.019c-0.939-3.17-4.986-5.595-9.312-5.478
	c-3.411,0.092-7.133,1.692-8.533,4.315c-5.194,1.871-13.251,6.71-15.688,18.947c-3.59,2.698-5.947,6.661-6.516,11.008
	c-0.632,4.825,1.001,9.654,4.289,13.272c-3.329,0.012-8.67,0.288-14.963,1.567c-0.064,0.013-0.126,0.03-0.186,0.049
	c-4.851-3.423-11.104-4.731-16.693-3.267c-0.224,0.059-0.426,0.16-0.601,0.293c-1.551-0.469-3.246-0.817-5.111-1.043
	c-0.115-0.015-0.228-0.017-0.339-0.008c-0.812-2.622-2.206-4.997-4.124-6.915c-0.097-0.097-0.318-0.271-0.32-0.283l-0.019,0.019
	c-0.284-1.917-0.829-4.007-1.053-4.765c-0.556-1.876-1.41-3.954-3.887-6.434c-1.577-1.579-3.259-2.533-4.412-3.061
	c0.234-0.628,0.371-1.164,0.44-1.478c0.027-0.124,0.047-0.249,0.061-0.376c0.006-0.059,0.623-5.972,1.325-9.483
	c0.009-0.043,0.017-0.086,0.023-0.129c1.922-12.034,1.94-12.21,1.953-12.338c0.002-0.024,0.005-0.048,0.007-0.072
	c0.084-1.083-0.29-2.135-1.054-2.961c-0.924-0.999-2.332-1.572-3.865-1.572c-2.15,0-4.071,1.098-5.273,3.014
	c-0.704,1.123-1.231,2.476-1.595,3.615c-2.004-3.873-4.618-8.98-6.505-12.684c-0.033-0.065-0.068-0.129-0.105-0.192
	c-0.654-1.101-2.156-2.387-4.232-2.387c-0.623,0-1.244,0.115-1.855,0.342C11.4,0.425,10.281,0,9.055,0
	C8.458,0,7.848,0.103,7.241,0.307c-2.123,0.71-3.357,2.605-3.344,4.858C2.24,5.791,1.11,7.101,0.791,8.782
	c-0.22,1.157,0.013,2.156,0.125,2.637c0.016,0.072,0.041,0.179,0.094,0.348c-0.053,0.073-0.104,0.148-0.152,0.225
	C-0.326,13.85-0.936,17.272,3.52,28.568"/>
<path d="M100.932,48.817c-0.077-0.292-0.452-0.297-0.578-0.295c-0.327-0.005-0.76,0.1-1.079,0.22
	c-0.859,0.304-1.564,1.364-1.521,2.008c0.002,0.094,0.036,0.176,0.101,0.242c0.051,0.055,0.15,0.124,0.316,0.125
	c0,0,0.009,0,0.015-0.002l0.001,0.001l0.003,0.001c0.163-0.004,0.263-0.131,0.277-0.287c0.015-0.161,0.111-0.462,0.342-0.689
	c0.231-0.228,0.617-0.596,1.723-0.832C100.727,49.264,101.008,49.108,100.932,48.817"/>
<path d="M114.499,55.848c-0.947,0.295-1.962,0.352-2.965,0.267c-0.981-0.085-1.955-0.304-2.852-0.726
	c-0.99-0.465-1.811-1.157-2.572-1.919c3.558,0.868,7.319,1.335,10.939,0.949C116.283,55.023,115.457,55.547,114.499,55.848
	 M122.242,51.106c-0.364-0.042-0.461,0.271-0.314,0.392c0.044,0.037,0.094,0.088,0.141,0.148c-0.132,0.068-0.261,0.153-0.382,0.212
	c-0.817,0.389-1.697,0.658-2.586,0.858c-2.167,0.481-4.432,0.542-6.663,0.356c-3.633-0.302-7.3-1.113-10.684-2.534
	c-0.303-0.128-0.596-0.266-0.895-0.401c-0.151-0.065-0.291-0.155-0.447-0.214v-0.004c-0.482-0.152-0.962,0.167-0.984,0.655
	c-0.015,0.37,0.223,0.596,0.533,0.756c0.906,0.469,1.882,0.832,2.845,1.17c0.841,0.372,1.462,1.13,2.082,1.77
	c0.768,0.789,1.596,1.525,2.567,2.079c1.831,1.048,4.126,1.405,6.178,1.087c1.08-0.167,2.101-0.556,3.012-1.122
	c0.67-0.417,1.27-0.922,1.881-1.415c0.364-0.292,0.734-0.584,1.145-0.822c0.24-0.137,1.903-0.803,2.783-1.309
	c0.001,0.31-0.011,0.581,0.195,0.619c0.23,0.042,0.436-0.385,0.516-0.744c0.084-0.36,0.01-0.707-0.085-0.932
	C122.989,51.483,122.605,51.151,122.242,51.106"/>
<path d="M102.078,38.66c0.127-1.385,0.926-5.715,4.392-5.369c2.636,0.264,3.344,2.211,3.538,3.909
	c0.005,0.074,0.007,0.152,0.013,0.23c0.167,1.681-0.146,2.836-0.567,3.926c-0.17,0.428-0.373,0.836-0.608,1.212
	c-0.644,1.016-1.427,1.639-2.101,1.669c-0.059,0.002-0.127,0.003-0.197,0.002c1.171-0.62,2.094-2.186,2.263-4.091
	c0.228-2.559-0.987-4.759-2.721-4.907c-0.824-0.072-1.614,0.337-2.242,1.057c0.616-0.003,1.134,0.625,1.173,1.429
	c0.036,0.822-0.446,1.515-1.083,1.549c-0.516,0.026-0.973-0.391-1.145-0.991c-0.123,0.415-0.21,0.856-0.252,1.32
	c-0.142,1.561,0.258,2.983,0.981,3.893c-0.103-0.086-0.201-0.18-0.288-0.286c-0.541-0.652-0.931-1.675-1.097-2.879
	C102.061,39.785,102.044,39.231,102.078,38.66 M102.482,43.813c0.406,0.491,0.893,0.806,1.431,1.004
	c0.473,0.178,0.984,0.268,1.515,0.309c0,0,0.847,0.087,1.369,0.067c2.129-0.088,4.133-3.356,4.199-6.555
	c0.063-2.918-0.325-5.151-2.429-6.46c-0.215-0.134-0.445-0.245-0.688-0.336c-0.902-0.337-1.954-0.377-2.854-0.131
	c-1.099,0.297-1.939,1.081-2.513,2.046c-0.59,0.985-0.942,2.111-1.182,3.229c-0.243,1.15-0.318,2.298-0.154,3.467
	C101.336,41.618,101.725,42.895,102.482,43.813"/>
<path d="M123.538,41.497c-0.113,0.553-0.269,1.084-0.48,1.59c-0.46,1.112-1.081,1.994-1.75,2.485
	c-0.289,0.211-0.607,0.339-0.965,0.399c1.099-0.657,1.959-2.186,2.126-4.038c0.231-2.557-0.954-4.754-2.648-4.897
	c-0.808-0.07-1.583,0.342-2.2,1.065c0.601-0.005,1.108,0.618,1.146,1.424c0.034,0.823-0.442,1.517-1.065,1.551
	c-0.505,0.028-0.951-0.387-1.119-0.985c-0.121,0.414-0.208,0.856-0.249,1.318c-0.157,1.709,0.321,3.251,1.158,4.135
	c-0.515-0.312-0.976-1.029-1.266-1.998c-0.128-0.421-0.213-0.863-0.262-1.318c-0.118-1.149-0.119-2.337,0.463-3.906
	c0.022-0.075,0.045-0.148,0.069-0.218c0.61-1.581,1.765-3.266,4.294-2.857C124.119,35.785,123.771,40.136,123.538,41.497
	 M124.373,36.688c-0.293-1.071-0.88-2.031-1.83-2.597c-0.783-0.461-1.777-0.687-2.704-0.591c-0.248,0.026-0.491,0.074-0.727,0.147
	c-2.3,0.73-3.224,2.774-3.903,5.59c-0.749,3.081,0.298,6.721,2.266,7.338c0.482,0.153,1.294,0.282,1.294,0.282
	c0.509,0.093,1.009,0.137,1.495,0.085c0.555-0.057,1.088-0.234,1.592-0.605c0.942-0.69,1.627-1.817,2.073-2.895
	c0.446-1.08,0.671-2.196,0.731-3.362C124.719,38.947,124.674,37.778,124.373,36.688"/>
</svg>
