<svg id="Слой_1" data-name="Слой 1" xmlns="http://www.w3.org/2000/svg" viewBox="0 0 292.75 19.07"><defs><style>.cls-1{fill:#404040;}</style></defs><path class="cls-1" d="M0,.18H11.75V2.8h-9V6.45H7.2a6.87,6.87,0,0,1,4.15,1.14,4.24,4.24,0,0,1,1.55,3.63c0,3.35-2.18,5-6.52,5H0ZM6.65,9.06H2.78v4.57H6.52c2.34,0,3.51-.8,3.51-2.39S8.9,9.06,6.65,9.06Z"/><path class="cls-1" d="M27.35,16.24H15.19V.18H27.12V2.8H18v4h8.55V9.36H18v4.27h9.38Z"/><path class="cls-1" d="M42.29,11.66l1.63,1.79a6.63,6.63,0,0,1-2.82,2.22,9.11,9.11,0,0,1-3.7.76,8.11,8.11,0,0,1-6-2.27,8.07,8.07,0,0,1-2.26-5.95A8,8,0,0,1,37.35,0,9.43,9.43,0,0,1,41,.7a6,6,0,0,1,2.7,2.08L41.83,4.52a5.53,5.53,0,0,0-4.34-1.86,5.26,5.26,0,0,0-4,1.55,5.54,5.54,0,0,0-1.48,4,5.43,5.43,0,0,0,1.55,4,5.48,5.48,0,0,0,4,1.54A5.88,5.88,0,0,0,42.29,11.66Z"/><path class="cls-1" d="M59.77,16.24H57V2.8H48.64V16.24H45.87V.18h13.9Z"/><path class="cls-1" d="M76.24,16.24H73.47V2.78H67.34V5c0,.58,0,1.13,0,1.65s-.06,1.18-.14,2-.18,1.55-.31,2.22a14.89,14.89,0,0,1-.57,2.06,7.2,7.2,0,0,1-.9,1.8,4.11,4.11,0,0,1-1.31,1.21,3.27,3.27,0,0,1-1.75.45l-1-.07V13.58a4.13,4.13,0,0,0,1.06-.11,1.7,1.7,0,0,0,.77-.58q1.42-1.71,1.42-9.15V.18H76.24Z"/><path class="cls-1" d="M80.7,16.24H77.83l7-16.06H87l7,16.06H91.11l-1.56-3.55H82.23Zm7.82-5.94L85.88,4.2l-2.64,6.1Z"/><path class="cls-1" d="M97.22,2.8h-5.4V.18h13.56V2.8H100V16.24H97.22Z"/><path class="cls-1" d="M121,16.24h-2.78V9.43h-8.42v6.81H107V.18h2.78V6.81h8.42V.18H121Z"/><path class="cls-1" d="M124.2.18H127V5.85h3a11.18,11.18,0,0,1,2.46.26,7.55,7.55,0,0,1,2.09.83A3.94,3.94,0,0,1,136,8.52a5,5,0,0,1,.55,2.42,5.27,5.27,0,0,1-.56,2.52,4,4,0,0,1-1.55,1.65,7.44,7.44,0,0,1-2.14.86,11.3,11.3,0,0,1-2.56.27H124.2Zm5.69,8.26H127v5.19h2.87a9.76,9.76,0,0,0,1.42-.1,4.92,4.92,0,0,0,1.2-.37,1.93,1.93,0,0,0,.89-.83,2.67,2.67,0,0,0,.32-1.39C133.67,9.28,132.41,8.44,129.89,8.44Zm11,7.8h-2.78V.18h2.78Z"/><path class="cls-1" d="M156.21,16.24H144V.18H156V2.8h-9.16v4h8.56V9.36h-8.56v4.27h9.39Z"/><path class="cls-1" d="M178.16,16.24h-2.77V2.8H167V16.24h-2.77V.18h13.9Z"/><path class="cls-1" d="M193.54,16.24H181.38V.18h11.93V2.8h-9.16v4h8.56V9.36h-8.56v4.27h9.39Z"/><path class="cls-1" d="M199,10.74v5.5h-2.78V.18h6.5a11.27,11.27,0,0,1,2.57.27,6.92,6.92,0,0,1,2.1.85,4,4,0,0,1,1.48,1.64,5.58,5.58,0,0,1,.52,2.52,5.13,5.13,0,0,1-.56,2.46,4.15,4.15,0,0,1-1.54,1.65,7.36,7.36,0,0,1-2.12.88,10.22,10.22,0,0,1-2.48.29Zm3.81-8H199V8.15h3.65c2.57,0,3.85-.91,3.85-2.71S205.22,2.78,202.76,2.78Z"/><path class="cls-1" d="M223.89,16.24H211.73V.18h11.93V2.8h-9.15v4h8.56V9.36h-8.56v4.27h9.38Z"/><path class="cls-1" d="M233.21,16.24h-6.68V.18h6.81a11.18,11.18,0,0,1,2.12.18,6.45,6.45,0,0,1,1.75.59A3,3,0,0,1,238.5,2.2a4.31,4.31,0,0,1,.44,2A3.93,3.93,0,0,1,237,7.8a3.52,3.52,0,0,1,2.47,3.76,4.59,4.59,0,0,1-.54,2.29,3.7,3.7,0,0,1-1.46,1.45,7.31,7.31,0,0,1-2,.73A11.74,11.74,0,0,1,233.21,16.24ZM233,2.8h-3.67v4h4a4,4,0,0,0,2-.46,1.55,1.55,0,0,0,.83-1.49,2.16,2.16,0,0,0-.25-1.1,1.38,1.38,0,0,0-.74-.62,4.47,4.47,0,0,0-1-.25A7.33,7.33,0,0,0,233,2.8Zm.23,6.52h-3.9v4.31H233a9.15,9.15,0,0,0,1.26-.07,5.56,5.56,0,0,0,1.12-.28,1.65,1.65,0,0,0,.89-.67,2.15,2.15,0,0,0,.31-1.21A1.69,1.69,0,0,0,236,10a2.56,2.56,0,0,0-1.24-.6A10.18,10.18,0,0,0,233.21,9.32Z"/><path class="cls-1" d="M243.53,14a8,8,0,0,1-2.36-5.83,7.89,7.89,0,0,1,2.4-5.82,8.38,8.38,0,0,1,11.69,0,8,8,0,0,1,2.34,5.85,7.92,7.92,0,0,1-2.38,5.85,8.37,8.37,0,0,1-11.69,0Zm2-9.75a5.59,5.59,0,0,0-1.5,3.92,5.51,5.51,0,0,0,1.54,3.93,5.31,5.31,0,0,0,7.63,0,5.62,5.62,0,0,0,1.48-4,5.51,5.51,0,0,0-1.53-3.93,5.28,5.28,0,0,0-7.62,0Z"/><path class="cls-1" d="M260.12,19.07h-2.68V13.65h1.72a9.72,9.72,0,0,0,1.4-4.13,50.55,50.55,0,0,0,.39-7V.18H272.3V13.65h1.95v5.42h-2.68V16.24H260.12Zm9.41-16.29h-5.94v1c0,4.69-.52,8-1.54,9.86h7.48Z"/><path class="cls-1" d="M276.09.18h2.78V5.85h3a11.28,11.28,0,0,1,2.47.26,7.61,7.61,0,0,1,2.08.83,4,4,0,0,1,1.51,1.58,5.12,5.12,0,0,1,.55,2.42,5.38,5.38,0,0,1-.56,2.52,4.18,4.18,0,0,1-1.55,1.65,7.62,7.62,0,0,1-2.15.86,11.24,11.24,0,0,1-2.56.27h-5.55Zm5.69,8.26h-2.91v5.19h2.86a10,10,0,0,0,1.43-.1,5,5,0,0,0,1.19-.37,2,2,0,0,0,.9-.83,2.77,2.77,0,0,0,.32-1.39C285.57,9.28,284.3,8.44,281.78,8.44Zm11,7.8H290V.18h2.78Z"/></svg>