<svg id="Слой_1" data-name="Слой 1" xmlns="http://www.w3.org/2000/svg" viewBox="0 0 296.71 18.97"><defs><style>.cls-1{fill:#404040;}.cls-2{fill:#c8102e;}</style></defs><path class="cls-1" d="M2.67,19H0V13.58H1.71A9.5,9.5,0,0,0,3.1,9.47a50,50,0,0,0,.39-7V.18h11.3v13.4h1.94V19H14.06V16.16H2.67ZM12,2.76H6.12v1q0,7-1.53,9.81H12Z"/><path class="cls-1" d="M20,14a7.9,7.9,0,0,1-2.35-5.8A7.89,7.89,0,0,1,20,2.37,7.89,7.89,0,0,1,25.77,0a7.89,7.89,0,0,1,5.85,2.35,8,8,0,0,1,2.32,5.82,8,8,0,0,1-8.17,8.17A7.88,7.88,0,0,1,20,14Zm2-9.7a5.53,5.53,0,0,0-1.49,3.9A5.5,5.5,0,0,0,22,12.08a5,5,0,0,0,3.76,1.62,5,5,0,0,0,3.83-1.59,5.58,5.58,0,0,0,1.47-3.94,5.5,5.5,0,0,0-1.52-3.91,5,5,0,0,0-3.78-1.61A4.94,4.94,0,0,0,22,4.27Z"/><path class="cls-2" d="M41.29,5.68,40.08,2.81,45.34.18h2.23v16H44.15V4.38Z"/><path class="cls-2" d="M49.86,8.17a9.06,9.06,0,0,1,1.82-5.86A6.29,6.29,0,0,1,56.91,0a6.72,6.72,0,0,1,4,1.16,6.46,6.46,0,0,1,2.37,2.94A10.63,10.63,0,0,1,64,8.17,9.1,9.1,0,0,1,62.16,14,6.27,6.27,0,0,1,57,16.32,6.29,6.29,0,0,1,51.66,14,9.19,9.19,0,0,1,49.86,8.17Zm3.65,0a8.23,8.23,0,0,0,.28,2.24,3.75,3.75,0,0,0,1.1,1.75A3,3,0,0,0,57,12.9c2.26,0,3.38-1.58,3.38-4.73s-1.14-4.72-3.42-4.72a2.77,2.77,0,0,0-2.6,1.38A6.48,6.48,0,0,0,53.51,8.17Z"/><path class="cls-2" d="M65.35,8.17a9.06,9.06,0,0,1,1.83-5.86A6.29,6.29,0,0,1,72.41,0a6.74,6.74,0,0,1,4,1.16,6.46,6.46,0,0,1,2.37,2.94,10.63,10.63,0,0,1,.73,4.05A9.1,9.1,0,0,1,77.66,14a6.27,6.27,0,0,1-5.21,2.29A6.29,6.29,0,0,1,67.16,14,9.2,9.2,0,0,1,65.35,8.17Zm3.66,0a8.23,8.23,0,0,0,.28,2.24,3.75,3.75,0,0,0,1.1,1.75,3,3,0,0,0,2.06.74c2.26,0,3.38-1.58,3.38-4.73s-1.14-4.72-3.42-4.72a2.77,2.77,0,0,0-2.6,1.38A6.48,6.48,0,0,0,69,8.17Z"/><path class="cls-2" d="M86.24,8.17a9.06,9.06,0,0,1,1.83-5.86A6.29,6.29,0,0,1,93.3,0a6.74,6.74,0,0,1,4,1.16,6.59,6.59,0,0,1,2.37,2.94,10.63,10.63,0,0,1,.73,4.05A9.15,9.15,0,0,1,98.55,14,7.14,7.14,0,0,1,88,14,9.19,9.19,0,0,1,86.24,8.17Zm3.65,0a8.21,8.21,0,0,0,.29,2.24,3.73,3.73,0,0,0,1.09,1.75,3,3,0,0,0,2.07.74q3.38,0,3.38-4.73T93.3,3.45a2.79,2.79,0,0,0-2.61,1.38A6.58,6.58,0,0,0,89.89,8.17Z"/><path class="cls-2" d="M101.74,8.17a9.06,9.06,0,0,1,1.83-5.86A6.27,6.27,0,0,1,108.79,0a6.75,6.75,0,0,1,4,1.16,6.59,6.59,0,0,1,2.37,2.94,10.63,10.63,0,0,1,.73,4.05A9.1,9.1,0,0,1,114,14a7.13,7.13,0,0,1-10.5,0A9.19,9.19,0,0,1,101.74,8.17Zm3.65,0a8.21,8.21,0,0,0,.29,2.24,3.73,3.73,0,0,0,1.09,1.75,3,3,0,0,0,2.07.74q3.38,0,3.38-4.73t-3.43-4.72a2.78,2.78,0,0,0-2.6,1.38A6.58,6.58,0,0,0,105.39,8.17Z"/><path class="cls-2" d="M117.24,8.17a9.06,9.06,0,0,1,1.83-5.86A6.27,6.27,0,0,1,124.29,0a6.75,6.75,0,0,1,4,1.16,6.59,6.59,0,0,1,2.37,2.94,10.63,10.63,0,0,1,.73,4.05A9.1,9.1,0,0,1,129.54,14,7.13,7.13,0,0,1,119,14,9.19,9.19,0,0,1,117.24,8.17Zm3.65,0a8.21,8.21,0,0,0,.29,2.24,3.73,3.73,0,0,0,1.09,1.75,3,3,0,0,0,2.07.74q3.38,0,3.38-4.73t-3.43-4.72a2.77,2.77,0,0,0-2.6,1.38A6.58,6.58,0,0,0,120.89,8.17Z"/><path class="cls-1" d="M141.8,10.68v5.48H139V.18h6.46a11.18,11.18,0,0,1,2.56.27,6.84,6.84,0,0,1,2.09.84,3.94,3.94,0,0,1,1.47,1.63,5.57,5.57,0,0,1,.52,2.51,5.06,5.06,0,0,1-.56,2.45,4.17,4.17,0,0,1-1.53,1.64,7.3,7.3,0,0,1-2.11.88,10.13,10.13,0,0,1-2.46.28Zm3.79-7.92H141.8V8.1h3.63c2.56,0,3.84-.89,3.84-2.69S148,2.76,145.59,2.76Z"/><path class="cls-1" d="M156.75,15.84l1.08-2.3a1.57,1.57,0,0,0,.52.11c.5,0,1-.53,1.53-1.6L152.28.18h3.4l5.62,9,4.22-9h2.9l-5.91,12.28a14.14,14.14,0,0,1-.71,1.37,8.34,8.34,0,0,1-.86,1.18,3.32,3.32,0,0,1-1.18.91,3.44,3.44,0,0,1-1.48.31A3.22,3.22,0,0,1,156.75,15.84Z"/><path class="cls-1" d="M170,.18H181.7V2.79h-8.92V6.41h4.4a6.81,6.81,0,0,1,4.13,1.15,4.2,4.2,0,0,1,1.54,3.6c0,3.34-2.16,5-6.49,5H170ZM176.64,9h-3.86v4.54h3.72c2.33,0,3.49-.79,3.49-2.37S178.87,9,176.64,9Z"/><path class="cls-1" d="M184.56,14.5a1.49,1.49,0,0,1,.57-1.19,1.94,1.94,0,0,1,1.28-.48,1.87,1.87,0,0,1,1.25.49,1.51,1.51,0,0,1,.57,1.18,1.6,1.6,0,0,1-.54,1.21,1.88,1.88,0,0,1-1.28.5,1.92,1.92,0,0,1-1.29-.49A1.55,1.55,0,0,1,184.56,14.5Z"/><path class="cls-1" d="M201.77,16.16h-6.64V.18h6.78a11.9,11.9,0,0,1,2.1.17,6.64,6.64,0,0,1,1.74.6A2.89,2.89,0,0,1,207,2.19a4.15,4.15,0,0,1,.45,2,3.91,3.91,0,0,1-1.92,3.56q2.46.8,2.46,3.75a4.51,4.51,0,0,1-.53,2.27A3.77,3.77,0,0,1,206,15.23a7.57,7.57,0,0,1-2,.72A11.63,11.63,0,0,1,201.77,16.16Zm-.23-13.37h-3.65v4h4a4.07,4.07,0,0,0,1.95-.46,1.55,1.55,0,0,0,.83-1.48,2.16,2.16,0,0,0-.25-1.1,1.42,1.42,0,0,0-.74-.62,5.24,5.24,0,0,0-1-.25A9.06,9.06,0,0,0,201.54,2.79Zm.23,6.48h-3.88v4.29h3.7a9.09,9.09,0,0,0,1.25-.07,5.58,5.58,0,0,0,1.11-.27,1.7,1.7,0,0,0,.89-.68,2.09,2.09,0,0,0,.31-1.19,1.74,1.74,0,0,0-.58-1.39,2.59,2.59,0,0,0-1.24-.59A10,10,0,0,0,201.77,9.27Z"/><path class="cls-1" d="M218.68,16.16h-2.76V.18h2.44l5.71,7.42,5.5-7.42H232v16h-2.76V5.09l-4.86,6.35h-.71l-5-6.37Z"/><path class="cls-1" d="M247.29,16.16h-12.1V.18h11.87V2.79H238v4h8.51V9.31H238v4.25h9.34Z"/><path class="cls-1" d="M262.15,11.6l1.62,1.78a6.55,6.55,0,0,1-2.8,2.21,9.21,9.21,0,0,1-3.68.75,8,8,0,0,1-6-2.26,8,8,0,0,1-2.25-5.91,7.86,7.86,0,0,1,2.33-5.86A8,8,0,0,1,257.24,0a9.29,9.29,0,0,1,3.58.7,6,6,0,0,1,2.7,2.06L261.69,4.5a5.46,5.46,0,0,0-4.31-1.85,5.2,5.2,0,0,0-4,1.54,5.49,5.49,0,0,0-1.48,4,5.41,5.41,0,0,0,1.54,4,5.46,5.46,0,0,0,4,1.53A5.82,5.82,0,0,0,262.15,11.6Z"/><path class="cls-1" d="M278.29,16.16h-2.77V10.55H272l-4.5,5.61h-3.31l4.95-6.09a5.16,5.16,0,0,1-2.81-1.66,4.54,4.54,0,0,1-1-3A5,5,0,0,1,265.85,3a4.24,4.24,0,0,1,1.48-1.63,7.24,7.24,0,0,1,2.05-.89,9.28,9.28,0,0,1,2.4-.3h6.51ZM271.3,8h4.22V2.76h-3.94q-3.4,0-3.41,2.63a2.14,2.14,0,0,0,.95,1.85A4.18,4.18,0,0,0,271.3,8Z"/><path class="cls-1" d="M294,16.16H281.48V.18h2.76V13.56H292V.18h2.76V13.56h1.94V19H294Z"/></svg>