<svg id="Слой_1" data-name="Слой 1" xmlns="http://www.w3.org/2000/svg" viewBox="0 0 349.16 16.45"><defs><style>.cls-1{fill:#404040;}</style></defs><path class="cls-1" d="M6.93,16.18H0V.27H7.11a7.36,7.36,0,0,1,4,.87,3.7,3.7,0,0,1,1.54,3.2,4.32,4.32,0,0,1-1.54,3.41,3.7,3.7,0,0,1,2.06,3.7,4.19,4.19,0,0,1-.94,2.83,4.66,4.66,0,0,1-2.26,1.5A10.23,10.23,0,0,1,6.93,16.18ZM6.52,3.57h-3V6.48h3.3a3.54,3.54,0,0,0,1.49-.3,1,1,0,0,0,.64-1,1.75,1.75,0,0,0-.19-.87,1.09,1.09,0,0,0-.59-.48,4,4,0,0,0-.75-.18A7.49,7.49,0,0,0,6.52,3.57Zm.23,6.09H3.52v3.22H6.57a8.73,8.73,0,0,0,1,0,6,6,0,0,0,.9-.18,1.33,1.33,0,0,0,.76-.5,1.48,1.48,0,0,0,.26-.91,1.51,1.51,0,0,0-.24-.89,1.27,1.27,0,0,0-.69-.49,3.56,3.56,0,0,0-.83-.18C7.44,9.67,7.13,9.66,6.75,9.66Z"/><path class="cls-1" d="M24.29,16.18H20.77V.27H24l5.09,7.62L34,.27h3.18V16.18H33.63V6.64L29.49,13h-.93L24.29,6.57Z"/><path class="cls-1" d="M39.31,8.23a7.91,7.91,0,0,1,2.4-5.84A7.93,7.93,0,0,1,47.51,0,8.17,8.17,0,0,1,52,1.3a7.51,7.51,0,0,1,3,3.47,9.13,9.13,0,0,1,.72,3.46,7.93,7.93,0,0,1-2.38,5.82,8.23,8.23,0,0,1-11.62,0A7.93,7.93,0,0,1,39.31,8.23Zm4.93-3.41A4.89,4.89,0,0,0,43,8.23a4.84,4.84,0,0,0,1.29,3.4,4.53,4.53,0,0,0,6.54,0A5,5,0,0,0,52,8.23a4.9,4.9,0,0,0-1.3-3.4,4.44,4.44,0,0,0-6.5,0Z"/><path class="cls-1" d="M57.85.27h12v3.3H61.38V6.16h4a6.32,6.32,0,0,1,4.07,1.19,4.48,4.48,0,0,1,1.48,3.72c0,3.41-2.21,5.11-6.61,5.11H57.85Zm6.73,9.18h-3.2v3.43h3.06a7.25,7.25,0,0,0,1-.05,4.59,4.59,0,0,0,.88-.23A1.39,1.39,0,0,0,67,12a1.66,1.66,0,0,0,.25-.95,1.59,1.59,0,0,0-.24-.9,1.3,1.3,0,0,0-.68-.5,4.08,4.08,0,0,0-.83-.19A8.14,8.14,0,0,0,64.58,9.45Z"/><path class="cls-1" d="M83.6,6.48l-7.75,9.7H73V.27h3.53V10L84.19.27h2.93V16.18H83.6Z"/><path class="cls-1" d="M103.64,16.18h-3.52V3.68h-5l-.09,1.84a26.49,26.49,0,0,1-1.18,7.75,4.42,4.42,0,0,1-1.67,2.32,5.39,5.39,0,0,1-2.88.66,6.44,6.44,0,0,1-.9-.07V12.91A5.59,5.59,0,0,0,89,13a1.82,1.82,0,0,0,1.75-1.11,9.63,9.63,0,0,0,.62-2.61,70,70,0,0,0,.34-7.16l0-1.8h11.93Z"/><path class="cls-1" d="M106.59.27h3.55V5.54h3a11.09,11.09,0,0,1,2.55.27,6.86,6.86,0,0,1,2.11.84,4,4,0,0,1,1.49,1.63,5.67,5.67,0,0,1,.53,2.54,5.46,5.46,0,0,1-.56,2.53A4,4,0,0,1,117.71,15a8.11,8.11,0,0,1-2.17.88,11.46,11.46,0,0,1-2.58.28h-6.37Zm6.5,8.57h-3v4H113c2.1,0,3.14-.68,3.14-2.06S115.14,8.84,113.09,8.84Z"/><path class="cls-1" d="M135.63,16.18h-3.52V9.82h-7.06v6.36h-3.53V.27h3.53V6.52h7.06V.27h3.52Z"/><path class="cls-1" d="M137.79,8.23a7.91,7.91,0,0,1,2.4-5.84A7.93,7.93,0,0,1,146,0a8.17,8.17,0,0,1,4.46,1.3,7.51,7.51,0,0,1,3,3.47,9.15,9.15,0,0,1,.73,3.46,7.94,7.94,0,0,1-2.39,5.82,8.23,8.23,0,0,1-11.62,0A7.93,7.93,0,0,1,137.79,8.23Zm4.93-3.41a4.93,4.93,0,0,0-1.27,3.41,4.8,4.8,0,0,0,1.3,3.4,4.52,4.52,0,0,0,6.53,0,5,5,0,0,0,1.24-3.43,4.85,4.85,0,0,0-1.3-3.4A4.17,4.17,0,0,0,146,3.41,4.22,4.22,0,0,0,142.72,4.82Z"/><path class="cls-1" d="M159.86,16.18h-3.53V.27h3.28l5.09,7.62L169.54.27h3.18V16.18H169.2V6.64L165.06,13h-.93l-4.27-6.41Z"/><path class="cls-1" d="M195.12,16.18H191.6V3.57h-7V16.18H181V.27h14.08Z"/><path class="cls-1" d="M201.6,11.18v5h-3.52V.27h6.59a10.46,10.46,0,0,1,3.38.5,5,5,0,0,1,2.41,1.76,5.18,5.18,0,0,1,1,3.22,5,5,0,0,1-1,3.15A5.35,5.35,0,0,1,208,10.67a10,10,0,0,1-3.28.51Zm3.16-7.61H201.6V7.89h3c2.09,0,3.14-.72,3.14-2.16S206.76,3.57,204.76,3.57Z"/><path class="cls-1" d="M224.1,6.48l-7.75,9.7h-2.89V.27H217V10L224.69.27h2.93V16.18H224.1Z"/><path class="cls-1" d="M244.14,16.18h-3.52V3.68h-5l-.09,1.84a26.83,26.83,0,0,1-1.18,7.75,4.42,4.42,0,0,1-1.67,2.32,5.43,5.43,0,0,1-2.88.66,6.59,6.59,0,0,1-.91-.07V12.91c.28,0,.47,0,.57,0a1.82,1.82,0,0,0,1.75-1.11,9.73,9.73,0,0,0,.61-2.61,66.35,66.35,0,0,0,.35-7.16l0-1.8h11.93Z"/><path class="cls-1" d="M246.3,8.23a7.9,7.9,0,0,1,2.39-5.84A8,8,0,0,1,254.5,0,8.17,8.17,0,0,1,259,1.3a7.51,7.51,0,0,1,3,3.47,9,9,0,0,1,.73,3.46,7.94,7.94,0,0,1-2.39,5.82,8.23,8.23,0,0,1-11.62,0A8,8,0,0,1,246.3,8.23Zm4.93-3.41A4.9,4.9,0,0,0,250,8.23a4.84,4.84,0,0,0,1.3,3.4,4.52,4.52,0,0,0,6.53,0A5,5,0,0,0,259,8.23a4.89,4.89,0,0,0-1.29-3.4,4.44,4.44,0,0,0-6.5,0Z"/><path class="cls-1" d="M262.09,16.18,268.38,8,262,.27h4.32l5.27,6.3V.27h3.52V6.61L280.34.27h4.36l-6.36,7.39,6.31,8.52h-4.18l-4.88-6.5-.46.68v5.82h-3.52l0-5.8-.43-.61-5.11,6.41Z"/><path class="cls-1" d="M298.45,16.18H286.08V.27h12.16v3.3h-8.63V6.52h8.06V9.7h-8.06v3.18h8.84Z"/><path class="cls-1" d="M314.94,16.18h-3.52V9.82h-7.07v6.36h-3.52V.27h3.52V6.52h7.07V.27h3.52Z"/><path class="cls-1" d="M328.53,6.48l-7.75,9.7H317.9V.27h3.52V10l7.7-9.75h2.93V16.18h-3.52Z"/><path class="cls-1" d="M345.64,6.48l-7.75,9.7H335V.27h3.52V10l7.7-9.75h2.93V16.18h-3.52Z"/></svg>