<svg width="156" height="156" viewBox="0 0 156 156" fill="none" xmlns="http://www.w3.org/2000/svg">
<g clip-path="url(#clip0)">
<path d="M86.044 155.484C128.862 151.014 159.949 112.679 155.479 69.8613C151.009 27.0434 112.674 -4.04362 69.8563 0.4265C27.0384 4.89662 -4.04861 43.2311 0.421507 86.049C4.89163 128.867 43.2261 159.954 86.044 155.484Z" fill="#C8102E"/>
<path d="M62.65 88.5L58.8 82.66H54.94V88.5H49.94V68.23H58.81C63.81 68.23 67.24 70.98 67.24 75.37C67.2676 76.5967 66.9624 77.8079 66.3567 78.8749C65.751 79.942 64.8674 80.825 63.8 81.43L68.5 88.5H62.65ZM54.94 78.12H58.68C60.62 78.12 62.14 77.04 62.14 75.37C62.14 73.7 60.62 72.68 58.68 72.68H54.94V78.12Z" fill="white"/>
<path d="M76.05 72.62V76.33H85.05V80.63H76.05V84.15H86.35V88.5H71V68.23H86.35V72.62H76.05Z" fill="white"/>
<path d="M108.86 78.33C108.86 84.33 104.29 88.54 97.86 88.54H89.74V68.23H97.9C104.29 68.23 108.86 72.38 108.86 78.33ZM103.75 78.33C103.743 77.5773 103.584 76.8337 103.284 76.1434C102.983 75.4532 102.548 74.8302 102.002 74.3117C101.456 73.7931 100.812 73.3894 100.107 73.1246C99.4028 72.8597 98.6521 72.7392 97.9 72.77H94.79V84H97.9C98.66 84.0255 99.4173 83.8977 100.127 83.6241C100.836 83.3504 101.483 82.9367 102.029 82.4075C102.575 81.8783 103.009 81.2444 103.305 80.5439C103.6 79.8433 103.752 79.0904 103.75 78.33Z" fill="white"/>
<path d="M116.68 68.23V88.5H111.63V68.23H116.68Z" fill="white"/>
<path d="M136.01 72.74H130.19V88.5H125.19V72.74H119.37V68.23H136.03L136.01 72.74Z" fill="white"/>
<path d="M41.67 81.23C41.3057 82.1575 40.6584 82.9465 39.82 83.4851C38.9817 84.0236 37.995 84.2843 37 84.23C35.4969 84.1677 34.076 83.5268 33.0345 82.4412C31.993 81.3556 31.4114 79.9094 31.4114 78.405C31.4114 76.9006 31.993 75.4544 33.0345 74.3688C34.076 73.2832 35.4969 72.6423 37 72.58C37.995 72.5257 38.9817 72.7864 39.82 73.3249C40.6584 73.8635 41.3057 74.6526 41.67 75.58H47.02C46.5347 73.3203 45.2633 71.3062 43.4321 69.8961C41.6009 68.4861 39.3287 67.7716 37.02 67.88C35.6079 67.8365 34.2014 68.0771 32.8841 68.5875C31.5667 69.0978 30.3652 69.8676 29.351 70.8511C28.3367 71.8346 27.5304 73.0118 26.9797 74.3128C26.429 75.6138 26.1452 77.0122 26.1452 78.425C26.1452 79.8378 26.429 81.2362 26.9797 82.5372C27.5304 83.8383 28.3367 85.0154 29.351 85.9989C30.3652 86.9824 31.5667 87.7522 32.8841 88.2626C34.2014 88.7729 35.6079 89.0135 37.02 88.97C39.3287 89.0784 41.6009 88.3639 43.4321 86.9539C45.2633 85.5438 46.5347 83.5297 47.02 81.27L41.67 81.23Z" fill="white"/>
<path d="M45.22 107.97C45.22 111.35 42.5 113.62 37.92 113.62H27.69V93.28H37.32C41.75 93.28 44.32 95.37 44.32 98.7C44.3496 99.6388 44.0967 100.565 43.5939 101.358C43.0911 102.152 42.3616 102.776 41.5 103.15C42.5902 103.383 43.5624 103.996 44.2435 104.878C44.9247 105.761 45.2707 106.856 45.22 107.97ZM32.74 97.41V101.66H36.5C38.42 101.66 39.5 100.66 39.5 99.38C39.5 98.1 38.5 97.38 36.5 97.38L32.74 97.41ZM40.28 107.31C40.28 106.05 39.28 105.31 37.35 105.31H32.74V109.4H37.26C39.36 109.43 40.28 108.5 40.28 107.31Z" fill="white"/>
<path d="M60.83 110.12H52.22L50.87 113.62H45.5L54.14 93.28H58.99L67.6 113.62H62.21L60.83 110.12ZM59.19 105.9L56.5 99.05L53.83 105.9H59.19Z" fill="white"/>
<path d="M87.97 93.28V113.62H84.08L74.33 102.5V113.66H69.33V93.28H73.19L83 104.74V93.28H87.97Z" fill="white"/>
<path d="M100.21 106.03L97.21 109.49V113.62H92.15V93.28H97.21V102.61L105.31 93.28H111.31L103.57 102.2L111.97 113.62H105.66L100.21 106.03Z" fill="white"/>
<path d="M45.81 43.18V63.5H40.81V55.88H32.5V63.5H27.5V43.18H32.5V51.34H40.8V43.18H45.81Z" fill="white"/>
<path d="M103.84 63.5H98.84V53.31L94.33 60.31H91.5L86.96 53.31V63.55H81.96V43.18H85.73L92.92 54.03L100.12 43.18H103.88L103.84 63.5Z" fill="white"/>
<path d="M113.08 47.58V51.28H122.08V55.58H113.08V59.1H123.38V63.5H108.03V43.18H123.38V47.58H113.08Z" fill="white"/>
<path d="M63.87 42.29C55.87 42.29 49.33 48.49 49.33 56.15C49.3177 58.7597 50.0723 61.3155 51.5 63.5H58.5C57.0227 62.3848 55.9333 60.8337 55.3855 59.0657C54.8378 57.2977 54.8594 55.4022 55.4475 53.6472C56.0355 51.8922 57.1602 50.3663 58.6626 49.2853C60.165 48.2042 61.9691 47.6226 63.82 47.6226C65.6709 47.6226 67.475 48.2042 68.9774 49.2853C70.4798 50.3663 71.6045 51.8922 72.1925 53.6472C72.7806 55.4022 72.8022 57.2977 72.2545 59.0657C71.7067 60.8337 70.6173 62.3848 69.14 63.5H76.14C77.58 61.3227 78.3485 58.7704 78.35 56.16C78.41 48.5 71.9 42.29 63.87 42.29Z" fill="white"/>
<path d="M59.1 58.42C59.419 59.4352 60.0537 60.3221 60.9116 60.9518C61.7694 61.5814 62.8059 61.921 63.87 61.921C64.9342 61.921 65.9706 61.5814 66.8285 60.9518C67.6863 60.3221 68.321 59.4352 68.64 58.42H59.1Z" fill="white"/>
</g>
<defs>
<clipPath id="clip0">
<rect width="155.91" height="155.91" fill="white"/>
</clipPath>
</defs>
</svg>
