<svg xmlns="http://www.w3.org/2000/svg" xmlns:xlink="http://www.w3.org/1999/xlink" viewBox="0 0 105 47.76628"><defs><clipPath id="clip-path" transform="translate(-67.5 -26.11686)"><path d="M116.28191,29.0975a2.7836,2.7836,0,0,1,1.29614,2.21811c0,1.00781-.22887,2.37243-2.39414,3.208-2.4064.92928-4.8335.02669-5.10073-2.2715a13.31421,13.31421,0,0,0-3.2672,2.21209l1.8734,7.095H67.5l4.48759,32.324h96.0173L172.5,41.55916H131.31168l1.8837-7.095a14.1547,14.1547,0,0,0-3.26372-2.21209c-.26794,2.29819-2.695,3.20078-5.10048,2.2715-2.16516-.83557-2.39439-2.20019-2.39439-3.208a2.78268,2.78268,0,0,1,1.29594-2.21811l-3.77437-2.98064Z" style="fill:none"/></clipPath><linearGradient id="linear-gradient" x1="178.25474" y1="-74.50996" x2="178.7704" y2="-74.50996" gradientTransform="matrix(241.89079, 0, 0, -241.8908, -43128.29059, -17999.38981)" gradientUnits="userSpaceOnUse"><stop offset="0" stop-color="#d0ab40"/><stop offset="0.09" stop-color="#d0ab40"/><stop offset="0.25" stop-color="#fae9a1"/><stop offset="0.29998" stop-color="#f9e79e"/><stop offset="0.3419" stop-color="#f4e093"/><stop offset="0.38089" stop-color="#edd582"/><stop offset="0.41812" stop-color="#e2c569"/><stop offset="0.45379" stop-color="#d4b14a"/><stop offset="0.4637" stop-color="#d0ab40"/><stop offset="1" stop-color="#d0ab40"/></linearGradient><clipPath id="clip-path-2" transform="translate(-67.5 -26.11686)"><rect x="109.57072" y="36.84871" width="20.77549" height="10.33501" style="fill:none"/></clipPath><clipPath id="clip-path-3" transform="translate(-67.5 -26.11686)"><rect x="109.57072" y="36.84871" width="20.77595" height="10.33501" style="fill:none"/></clipPath><clipPath id="clip-path-4" transform="translate(-67.5 -26.11686)"><rect x="109.56744" y="36.8482" width="20.78175" height="5.46365" style="fill:none"/></clipPath><clipPath id="clip-path-5" transform="translate(-67.5 -26.11686)"><rect x="109.56744" y="36.84871" width="20.78175" height="5.46315" style="fill:none"/></clipPath></defs><g style="isolation:isolate"><g id="Layer_1" data-name="Layer 1"><polygon points="65.694 8.346 52.685 10.091 39.338 8.346 0 8.346 4.487 40.012 100.504 40.012 105 8.346 65.694 8.346" style="fill:#194228"/><g style="clip-path:url(#clip-path)"><rect width="105" height="47.76628" style="fill:url(#linear-gradient)"/></g><path d="M146.47519,57.20415a3.66494,3.66494,0,0,0,3.509-3.7195c0-3.76352-4.9842-3.65476-6.37628-3.65476h-5.791v.032a3.76187,3.76187,0,0,1,.58821,2.35235l-.00146,11.18289a4.03867,4.03867,0,0,1-.58372,2.35v.03174l7.34225.00051c1.76733,0,5.68068-.71217,5.68068-4.32286,0-3.29667-2.73531-3.98366-4.36768-4.25235m-2.46086,6.83106a5.39734,5.39734,0,0,1-1.99044-.35561V51.56446l1.70691-.001c1.12868,0,2.553.45079,2.553,2.19443a2.65165,2.65165,0,0,1-2.49457,2.9434h-.43766l-.3924,1.47338c2.271,0,3.923.659,3.923,3.0894,0,2.34706-1.62277,2.77115-2.86784,2.77115" transform="translate(-67.5 -26.11686)" style="fill:#1d1d1b"/><path d="M90.70037,65.8272V65.798a3.30782,3.30782,0,0,1,.37392-2.39737l.652-1.60617h5.91818L99.301,65.82569l4.55128-.00152V65.793a6.5896,6.5896,0,0,1-1.62354-2.59384l-5.66785-13.368H94.2992L87.5069,65.83674Zm1.71993-5.7321,2.25792-5.48631,2.27095,5.48631Z" transform="translate(-67.5 -26.11686)" style="fill:#1d1d1b"/><path d="M77.383,49.89661v1.65654h4.88619c.00156,2.87536.003,6.49489.003,8.1859,0,5.102-2.74692,7.71951-6.1735,7.75978l-.687.00752.38679,1.42938c.07277-.00146.82325-.00252.89557-.0055,6.12893-.194,9.5324-4.14708,9.5324-10.98242v-8.0512Z" transform="translate(-67.5 -26.11686)" style="fill:#1d1d1b"/><path d="M127.41493,49.51083c-4.623,0-8.3702,2.93078-8.3702,8.32766,0,5.61345,3.74716,8.2617,8.3702,8.2617,4.622,0,8.36869-2.85119,8.36869-8.305,0-5.42162-3.74665-8.28436-8.36869-8.28436m-.011,14.85732c-2.79027,0-4.16121-2.49109-4.16121-6.56539,0-4.04488,1.54223-6.56009,4.18235-6.56009,2.81143,0,4.18236,2.48574,4.18236,6.56009,0,4.04553-1.4742,6.56539-4.2035,6.56539" transform="translate(-67.5 -26.11686)" style="fill:#1d1d1b"/><path d="M164.26122,61.658c.17023-2.08815-.49707-3.55255-4.44671-5.502-2.86481-1.41272-3.66111-1.78291-3.4878-3.26715.09967-.85222.96294-1.62479,2.71416-1.62479a4.78349,4.78349,0,0,1,4.1169,2.05388h.03371l.66331-2.50568a8.96427,8.96427,0,0,0-4.87836-1.24426c-3.1373,0-5.88775,1.70761-5.88775,4.58525,0,2.7449,1.88117,3.6764,4.12189,4.79555,2.12045,1.05868,3.379,1.74364,3.18362,3.43193-.16271,1.40868-1.37452,1.9592-2.73182,1.9592a4.911,4.911,0,0,1-4.14657-2.00155H153.476l-.65069,2.486a8.93117,8.93117,0,0,0,4.90708,1.25465c1.93356,0,6.21665-.58877,6.52885-4.42107" transform="translate(-67.5 -26.11686)" style="fill:#1d1d1b"/><path d="M107.96808,57.82814c0,3.64951,1.785,6.28161,5.07484,6.30124a4.56218,4.56218,0,0,0,3.92017-1.7386h.033l.66311,2.50568a10.13069,10.13069,0,0,1-5.2368,1.23194c-4.53791,0-8.63764-3.00633-8.63764-8.30076,0-5.29463,4.09973-8.272,8.63764-8.272a10.12777,10.12777,0,0,1,5.2368,1.23219l-.66311,2.50543h-.033a4.5464,4.5464,0,0,0-3.92017-1.7386c-3.28986.01912-5.07484,2.624-5.07484,6.27347" transform="translate(-67.5 -26.11686)" style="fill:#1d1d1b"/><path d="M107.96808,57.82814c0,3.64951,1.785,6.28161,5.07484,6.30124a4.56218,4.56218,0,0,0,3.92017-1.7386h.033l.66311,2.50568a10.13069,10.13069,0,0,1-5.2368,1.23194c-4.53791,0-8.63764-3.00633-8.63764-8.30076,0-5.29463,4.09973-8.272,8.63764-8.272a10.12777,10.12777,0,0,1,5.2368,1.23219l-.66311,2.50543h-.033a4.5464,4.5464,0,0,0-3.92017-1.7386c-3.28986.01912-5.07484,2.624-5.07484,6.27347" transform="translate(-67.5 -26.11686)" style="fill:#1d1d1b"/><g style="mix-blend-mode:multiply"><polygon points="68.68 11.273 68.286 11.366 68.182 10.973 68.832 10.786 69.172 10.786 69.172 12.989 68.68 12.989 68.68 11.273" style="fill:#686666"/><path d="M137.35558,38.50524v-.00555a.532.532,0,0,1,.36463-.52856.518.518,0,0,1-.28706-.47824v-.0058c0-.33466.31674-.59957.79473-.59957.479,0,.79529.26238.79529.59957v.0058a.51684.51684,0,0,1-.28758.47824.54261.54261,0,0,1,.36515.51574v.00606c0,.40592-.37125.64363-.87286.64363-.50116,0-.8723-.25-.8723-.63132m1.26363-.037v-.00681c0-.16867-.16473-.26865-.39133-.26865-.22615,0-.39083.1-.39083.26865v.00681c0,.15009.145.27172.39083.27172.24629,0,.39133-.1186.39133-.27172m-.06747-.92166v-.00682c0-.13394-.11987-.25562-.32386-.25562-.20344,0-.32285.11865-.32285.25265v.00676a.28551.28551,0,0,0,.32285.26819c.19794,0,.32386-.112.32386-.26516" transform="translate(-67.5 -26.11686)" style="fill:#686666"/><path d="M139.70409,38.88346l.26188-.36565a.74716.74716,0,0,0,.49409.1879c.27854,0,.42662-.20375.45983-.49712a.70457.70457,0,0,1-.45983.15009c-.49106,0-.80785-.26264-.80785-.70611v-.00631a.78707.78707,0,0,1,.86276-.76531.83523.83523,0,0,1,.65327.23726,1.06349,1.06349,0,0,1,.26845.82521v.00606c0,.70914-.34556,1.19364-.98919,1.19364a1.11272,1.11272,0,0,1-.74341-.25966M140.929,37.634v-.00636c0-.19385-.14908-.33415-.39739-.33415-.24578,0-.38427.13722-.38427.33067v.00626c0,.194.14859.3284.39381.3284.24584,0,.38785-.13778.38785-.32482" transform="translate(-67.5 -26.11686)" style="fill:#686666"/><path d="M141.97559,38.81447l.30014-.34652a.80438.80438,0,0,0,.53992.23776c.23271,0,.37877-.10927.37877-.30322v-.00681c0-.18709-.16569-.2961-.40143-.2961a.998.998,0,0,0-.37776.081l-.28808-.18457.06445-1.07806h1.39062v.42252h-.96345l-.02569.378a1.10155,1.10155,0,0,1,.2966-.03775c.44024,0,.79226.20646.79226.69954v.00656a.761.761,0,0,1-.85973.75623,1.18318,1.18318,0,0,1-.84662-.32865" transform="translate(-67.5 -26.11686)" style="fill:#686666"/><polygon points="28.735 10.802 30.385 10.802 30.385 11.229 29.213 11.229 29.213 11.673 30.244 11.673 30.244 12.101 29.213 12.101 29.213 12.56 30.4 12.56 30.4 12.989 28.735 12.989 28.735 10.802" style="fill:#686666"/><path d="M98.41105,38.78676l.284-.34092a1.00448,1.00448,0,0,0,.65306.26617c.19688,0,.31553-.07837.31553-.20677v-.0058c0-.12213-.07479-.18456-.44044-.278-.44043-.1128-.72453-.23443-.72453-.66887v-.006a.68383.68383,0,0,1,.76531-.65928,1.26241,1.26241,0,0,1,.81189.278l-.24982.36261a1.02445,1.02445,0,0,0-.56888-.2161c-.18406,0-.281.08463-.281.19092v.00606c0,.144.09392.19087.47188.28732.44353.11557.6938.27525.6938.65649v.00606c0,.43444-.33118.6779-.80306.6779a1.39149,1.39149,0,0,1-.92772-.3498" transform="translate(-67.5 -26.11686)" style="fill:#686666"/><polygon points="33.674 11.245 33.009 11.245 33.009 10.802 34.821 10.802 34.821 11.245 34.156 11.245 34.156 12.989 33.674 12.989 33.674 11.245" style="fill:#686666"/><path d="M102.85453,36.91845h.85267a1.09009,1.09009,0,0,1,1.1624,1.0872v.006a1.095,1.095,0,0,1-1.1624,1.094h-.85267Zm.85267,1.75248a.623.623,0,0,0,.659-.653v-.00631a.62806.62806,0,0,0-.659-.65907h-.372v1.31834Z" transform="translate(-67.5 -26.11686)" style="fill:#686666"/></g><g style="mix-blend-mode:multiply"><g style="clip-path:url(#clip-path-2)"><g style="clip-path:url(#clip-path-3)"><path d="M119.95811,36.84845c-5.73664,0-10.38759,2.3136-10.38759,5.16776,0,2.85421,4.65095,5.16776,10.38759,5.16776,5.73785,0,10.3881-2.31355,10.3881-5.16776,0-2.91816-4.65025-5.16776-10.3881-5.16776m9.05744,4.443c-.49807,1.1302-2.85573,3.142-8.51172,1.72376l-1.16628-.29489c-5.036-1.33344-7.12994-.40547-8.1657.39537-.08389.06768-.17927.12789-.26189.08212-.06849-.03781-.0645-.13349-.00929-.25492.49858-1.12939,3.09491-3.249,8.7512-1.83126l1.16976.29034c5.21732,1.32537,6.888.51776,7.923-.28328.08463-.068.17976-.12773.26238-.08186.069.038.0645.13349.00858.25462" transform="translate(-67.5 -26.11686)" style="fill:#dec8a2"/></g></g></g><g style="mix-blend-mode:multiply"><g style="clip-path:url(#clip-path-4)"><g style="clip-path:url(#clip-path-5)"><path d="M120.00162,37.79888c5.49539,0,9.98949,1.7711,10.34055,4.35864a2.07169,2.07169,0,0,0-.004-.37049c-.19946-2.67086-4.57768-4.93858-10.33652-4.93858-5.902,0-10.29615,2.34251-10.43136,5.03452a2.99117,2.99117,0,0,0,.01126.42863c.35136-2.587,4.9248-4.51272,10.4201-4.51272" transform="translate(-67.5 -26.11686)" style="fill:#d7d8d8"/></g></g></g></g></g></svg>