<svg id="Isolation_Mode" data-name="Isolation Mode" xmlns="http://www.w3.org/2000/svg" viewBox="0 0 1010.54 185.74"><defs><style>.cls-1{fill:#ffe7c1;}</style></defs><path class="cls-1" d="M36.91,127.61c-24-.8-35.07-32-36.67-49C-2.32,50,15.77,10.09,46.35,8.65,66.37,8,81.42,31.22,81.1,62.44,80.94,85.66,64.6,128.41,36.91,127.61ZM46.83,16.49c-18.57,0-37.94,28.18-37.94,54.76,0,13,7.68,48.35,29,48.35,17.45,0,33.62-28.5,33.62-59.56C71.49,32.5,58.2,16.49,46.83,16.49Z"/><path class="cls-1" d="M157.79,65.49c-.64,6.72-1,7.84-1.44,16.17-1,11.52-2.88,24.81-2.88,33.3.16,5.28,1.92,12.49-4.33,12.49-4,0-4.16-8.81-4-12.81.16-10.73,2.08-18.41,2.88-33.94,1-13.61,2.57-26.1.8-26.74-2.72-.48-12.16,15.85-17.77,28.66-5.28,13.29-9.44,26.42-10.25,35.22-.32,3.2-2.72,6.41-5.28,6.41-2.88,0-2.88-3.69-2.88-6.09.64-9.45,2.56-21.29,3.84-33.46,1.12-9.13,1.44-14.41,2.56-23.54.32-2.88,1.12-7.68-.8-7.68-1.44,0-5.92,7.68-7.68,10.72-5.77,9.45-9.13,20.5-11.53,26.9-4.32,11.85-5.76,24.66-6.24,30.1-.32,3-1.13,5.29-5,5.13-3.52-.16-3.52-3.69-3.36-5.93,1-11.2,2.56-24.65,4-37.78,1.12-11.85,2.4-16.49,2.88-30.58,0-4.81.16-10.73,5-11,3.2-.48,3.84,3.36,4,6.88.16,2.08-1,12-1.76,19.54-.48,3.84-1.44,10.08-1.6,12.16,1.12-2.08,4.8-10.72,10.41-20.81,5.12-8.65,11.36-16.49,15.21-16.49,1.92,0,4.8,1,4.8,7.52-.16,16.34-1.76,24.18-2.24,31.87,1.6-2.89,6.56-14.57,13.29-24.34,5.44-8.33,12.17-15.21,16.49-15.21,2.88,0,4.32,3.68,4,6.08C158.43,56.84,158.11,62,157.79,65.49Z"/><path class="cls-1" d="M210.15,7.21a194.31,194.31,0,0,0-20.66,4.32c-4.8,1.44-11.21,3.2-11.05,6.24.16,5,5.29,13.45,11.05,23.38C197,54,201.18,62,201.34,76.53c.16,20.66-7,47.88-22.9,48-11,.16-14.73-20.82-14.73-33.31,0-12,8.33-37,19.7-46.27-6.25-10.89-13.13-20.81-13.13-28.5,0-7,9.13-10.25,17-12.17C194.62,2.56,204.7,0,210.15,0c4.32,0,4.8,2.72,4.8,4.32C215.11,6.56,212.87,6.88,210.15,7.21Zm-22.9,43.22c-5.92,5.13-16.33,25.62-15.69,45.8.16,9.12,3.68,21.13,7.69,21.13,8.16,0,15.37-26.1,15.37-37.63A59,59,0,0,0,187.25,50.43Z"/><path class="cls-1" d="M251.13,49.47c-5-.16-7.2.48-14.09.64,1.13,2.89,8.49,6.73,8.49,27.7,0,11.69-5.6,46.92-21.77,46.92-12.65,0-15.53-19.7-15.53-32.19,0-11.84,4-42.43,23.85-52,2.88-1.6,6.89,1,7.85,1,0,0,7.84.64,11.2.48s5.29,1.44,5.13,3.52C255.94,49.15,252.74,49.47,251.13,49.47ZM228.56,53c-5.93,5-13.45,24.17-12.81,44.51.16,9.28,3.68,20.33,8.81,20.33,8.16,0,13.93-25.46,13.93-37S236.08,59.72,228.56,53Z"/><path class="cls-1" d="M296.13,87.74c-6.09,11.85-12,17.29-21.78,26.42a114.77,114.77,0,0,1-15.21,12.17c-.16.8-.16,1.6-.32,2.08-.32,1.92-.48,2.4-.8,5.28-.16,1.44-.32,3.68-.64,7.05-1.28,13.29-1.12,32.34-2.08,40.18-.16,2.41-1.12,4.65-5,4.65-3.68,0-3-1.44-3.2-4.16-.16-2.89,1-26.42,2.56-40,1.29-12,2.25-26.42,3.53-38.11,1.28-14.25,3.2-17.45,6.08-35.7A101.45,101.45,0,0,1,266.83,42c1.28-3,3-4,5-4s4.48,1,3.84,4c-.8,3.84-4.16,8-5.76,13.61L267,67.09C280.44,53.16,284.92,45,292.92,45c5.29,0,11.85,3.36,11.85,12C304.77,69.49,301.89,76.69,296.13,87.74ZM293.88,53c-8.64.32-16,10.24-24.65,24.33-5.29,8.49-5.93,13.45-7.85,23.38-.32,2.88-2.24,17.29-2.24,17.29,6.09-2.72,9-7.2,14.09-12.49,7-7.36,11.37-11.69,16.17-20.81a64.7,64.7,0,0,0,7.37-21.94C297.09,58.92,297.25,52.84,293.88,53Z"/><path class="cls-1" d="M353.12,79.41a31.23,31.23,0,0,1,.32,3.85,2.84,2.84,0,0,1-1.12,2.88,266.9,266.9,0,0,0-3.68,33.46c-.16,4.17-1.76,8-4.8,8-3.2,0-3.36-5-3.2-9,.48-9.28.32-11,3-31.22-5.77.32-9.29,1.28-19.22,1.28-3,0-5.12-.32-8.16-.16a58.35,58.35,0,0,0-1.12,8.33,183.59,183.59,0,0,1-2.4,22.09c-.48,3.2-1.28,6.25-5.13,6.25-2.24,0-3.52-2.41-2.88-5.61,1.12-7.52,2.4-20.81,3.68-30.58-3.68.32-5.44-.64-5.44-3.68,0-2.72,2.24-3.52,6.4-4.16,2.09-13.29,3-24.34,4.65-33.79.64-4.32,2.4-6.72,5.12-6.72,3.52,0,4,3.84,4,5.76,0,.8-1.92,11.37-4,22.26-.8,4.64-1.44,8.48-2.24,12.49l8.32-.32c7.37-.16,11.37-.48,19.86-.48,1.28-8,3-19.06,3.2-25.46.16-4.17-.64-14.09,2.56-14.09,5.29,0,5.13,5,4.81,12.49C355.37,66,354.73,69.17,353.12,79.41Z"/><path class="cls-1" d="M385.79,73.17c3.68,5.6,8,12.81,8,21.78,0,12.8-1.92,15.21-7.52,22.41s-11.85,12.33-19.7,12.33c-5.44,0-6.4-8.33-6.08-14.09v-1.28c0-2.4-.32-3.36-.32-6.25a77.58,77.58,0,0,1,.8-9.76c1-9.61,3.84-20.82,3.84-21.14-2.72-2.56-3.68-4.48-3.2-6.56.16-2.72,1.92-4,4-5.28,1-5.29,3-13.61,4.49-21.3.48-2.72,1.6-5.44,5.44-5.12,4.32.32,1.6,8.16.64,12.17-1.76,7.52-1.6,9-2.88,14.41,2.72.64,4.16,0,6.08,1.92,6.41.32,27.22-14.41,33.31-18.9.64-5,.8-8.32,4.16-8.32,2.56,0,3.84,1.92,3.68,6.56-1,17.29-3.68,25.14-4.8,41.47-1,11.53-1.44,24.66-2.08,30.74-.64,5.61-2.73,9.45-6.41,9.45-1.28,0-3-.8-1.44-10.41,1.44-10.57,2.24-18.57,3-32,.16-4.16,1.44-17.13,2.88-28.18C403.88,63.08,392.83,69.81,385.79,73.17Zm-7.05,4.48c-2.08.48-4.8.8-6.72,0,0,3.21-1.44,5-3.37,21.46-1.6,14.89-1.6,20.49,1.13,20.81,3.52.48,6.88-3.36,10.08-6.72,4.81-5.13,6.89-9.45,7.05-16.65C387.07,89.66,383.38,85.18,378.74,77.65Z"/><path class="cls-1" d="M471.13,88.86c-.64,9.61-1.77,23.22-1.77,31.06,0,3.53,1.77,8.81-3.2,8.49-5.76-.32-5.12-6.73-3.36-25.46,1.44-15.85,2.56-21.61,3.52-30.74-6.08,9.45-14.41,32.18-23.21,43.71-2.57,3.36-6.25,9-11.05,9a4.57,4.57,0,0,1-4.8-3.69c-.8-3.84-.32-12.81-.16-21.13.48-12,1.76-19.37,3.68-31.7,1.6-9.61,1.92-15.85,5-24.34.8-2.88,2.24-4.48,4.32-4.48,1.61,0,3.21,1.76,3.21,5.28C443,50,438.62,65,437.18,78c-1.92,14.09-3.84,35.23-1.92,36,1.92.48,8.81-12,17.13-28.34,3.21-6.73,8.81-18.57,11.85-25.46,3-6.72,4.16-10.09,5.28-13,1.13-2.08,2.89-4.16,5.61-3.36,2.72.48,3.52,2.88,3,5.12C476.41,64.52,472.41,72.85,471.13,88.86ZM482.33,17c-4.16,2.88-14.09,10.89-22.89,10.89-5,0-7.05-2.88-9.93-5.76-1.92-1.93-3.2-4.17-3.2-6.09A2.52,2.52,0,0,1,449,13.29c1.76,0,2.88,1.6,5.28,3.84s4.65,3.68,6.09,3.68c6.72,0,13.29-5.28,18.41-8.32,3.2-1.92,5.93-3.68,8-1.76C487.78,11.69,485.38,14.89,482.33,17Z"/><path class="cls-1" d="M574.88,46.59c0,.8-.32,1.44-2.89,3.68a171,171,0,0,0-13,13.61c-4.49,5.13-16.82,16-23.7,26.58a163.32,163.32,0,0,0,15.85,22.42c5.28,6.72,6.4,9.44,16.33,17.29,1.44,1.44,3.36,4.32,1.92,6.24-1.76,1.93-4,1.44-5.92,0-6.25-5.28-10.57-8.32-18.89-20.33a183.49,183.49,0,0,1-12.17-16.17c-.64,6.08-1,14.73-2.08,21.13-.81,2.89-.81,7-6.09,6.57-3.52-.32-2.56-6.41-2.24-9.45,1.12-8.32,2.88-22.57,4.32-37,1.28-12.49,2.4-25,2.56-32,.16-3.52.48-8.48,4.17-8.64,3.36-.16,4.48,2.56,4.16,8.32-.16,8.17-1.44,19.38-3,31.71l6.72-7.21,16.33-17.45c5.29-5.61,11.69-13,14.73-13,1.61,0,2.89.8,2.89,2.56Z"/><path class="cls-1" d="M620,49.79c-2.25,6.73-3.85,20.82-6.57,35.71-2.24,13.77-3.36,28.82-4.32,35.86-.64,4-2.4,5.45-5.29,5.45-1.12,0-4.16-1.6-3.2-5.77,1.28-6.72,3.2-20.17,5.13-32.66l2.08-14.57c-2.88,5.6-6.41,11.85-13,23.7-6.57,12-15.21,27.22-18.09,27.22-3,0-5.13-.48-5.13-7.37,0-9.29,1-23,9.61-45.79,4.16-10.89,12-24,17.77-27.06,6.73-3.68,9.77-4,19.38-4,4.64,0,8.48,2.56,8.16,6.88C626.43,49.63,623.55,49,620,49.79ZM603.69,52c-8.64,5-16.33,22.89-16.49,23.21-4.8,9.45-7.84,29.62-7.84,29.62,0,.8-.64,4.17,1.12,4.65,1.12.16,13.61-20.82,21.93-37.47l10.25-22.9A19.61,19.61,0,0,0,603.69,52Z"/><path class="cls-1" d="M670.94,87.74c-6.08,11.85-12,17.29-21.77,26.42A115.42,115.42,0,0,1,634,126.33c-.16.8-.16,1.6-.32,2.08-.33,1.92-.49,2.4-.81,5.28-.16,1.44-.32,3.68-.64,7.05-1.28,13.29-1.12,32.34-2.08,40.18-.16,2.41-1.12,4.65-5,4.65-3.68,0-3-1.44-3.2-4.16-.16-2.89,1-26.42,2.56-40,1.28-12,2.24-26.42,3.52-38.11,1.28-14.25,3.2-17.45,6.09-35.7A101.86,101.86,0,0,1,641.64,42c1.28-3,3-4,5-4s4.49,1,3.85,4c-.8,3.84-4.17,8-5.77,13.61L641.8,67.09C655.25,53.16,659.73,45,667.74,45c5.28,0,11.85,3.36,11.85,12C679.59,69.49,676.7,76.69,670.94,87.74ZM668.7,53c-8.65.32-16,10.24-24.66,24.33-5.28,8.49-5.92,13.45-7.84,23.38C635.88,103.59,634,118,634,118c6.08-2.72,9-7.2,14.09-12.49,7-7.36,11.36-11.69,16.17-20.81a64.68,64.68,0,0,0,7.36-21.94C671.9,58.92,672.06,52.84,668.7,53Z"/><path class="cls-1" d="M751.32,65.49c-.64,6.72-1,7.84-1.45,16.17-1,11.52-2.88,24.81-2.88,33.3.16,5.28,1.92,12.49-4.32,12.49-4,0-4.16-8.81-4-12.81.16-10.73,2.08-18.41,2.88-33.94,1-13.61,2.56-26.1.8-26.74-2.72-.48-12.17,15.85-17.77,28.66-5.29,13.29-9.45,26.42-10.25,35.22-.32,3.2-2.72,6.41-5.28,6.41-2.89,0-2.89-3.69-2.89-6.09.65-9.45,2.57-21.29,3.85-33.46,1.12-9.13,1.44-14.41,2.56-23.54.32-2.88,1.12-7.68-.8-7.68-1.44,0-5.93,7.68-7.69,10.72-5.76,9.45-9.12,20.5-11.52,26.9-4.33,11.85-5.77,24.66-6.25,30.1-.32,3-1.12,5.29-5,5.13-3.53-.16-3.53-3.69-3.37-5.93,1-11.2,2.57-24.65,4-37.78,1.12-11.85,2.4-16.49,2.88-30.58,0-4.81.16-10.73,5-11,3.21-.48,3.85,3.36,4,6.88.16,2.08-1,12-1.77,19.54-.48,3.84-1.44,10.08-1.6,12.16,1.12-2.08,4.81-10.72,10.41-20.81,5.12-8.65,11.37-16.49,15.21-16.49,1.92,0,4.81,1,4.81,7.52-.17,16.34-1.77,24.18-2.25,31.87,1.6-2.89,6.57-14.57,13.29-24.34,5.45-8.33,12.17-15.21,16.49-15.21,2.89,0,4.33,3.68,4,6.08C752,56.84,751.64,62,751.32,65.49Z"/><path class="cls-1" d="M800.63,49.47c-5-.16-7.21.48-14.09.64C787.66,53,795,56.84,795,77.81c0,11.69-5.61,46.92-21.78,46.92-12.65,0-15.53-19.7-15.53-32.19,0-11.84,4-42.43,23.86-52,2.88-1.6,6.88,1,7.84,1,0,0,7.85.64,11.21.48,3.2-.16,5.28,1.44,5.12,3.52C805.43,49.15,802.23,49.47,800.63,49.47ZM778.05,53c-5.92,5-13.45,24.17-12.8,44.51.16,9.28,3.68,20.33,8.8,20.33,8.17,0,13.93-25.46,13.93-37S785.58,59.72,778.05,53Z"/><path class="cls-1" d="M835.69,127.29c0,4.32-3.2,45.79-3.2,49.15-.32,3.52.8,9.13-3.52,9.29-4.16.32-4-5.13-4-8.65,0-3.2,3.84-45.31,4-50-22.58-.32-29.14-19.38-29.3-38.91-.16-10.41,2.56-42.11,34.1-44.67,0-3.68,1-27.38,1.92-33.78.8-4.81.8-7.21,4-7.21,3,0,3.68,3,3.68,5.93,0,4-1.76,25.45-2.24,35.06,19.53,2.24,31.38,18.89,31.38,38.59C872.52,96.87,864.51,125.21,835.69,127.29ZM807,86c-.8,27.22,10.57,33,21.78,33.46.16-5.6.8-11.85,1.12-18.89.8-14.25,1.44-22.42,2.56-36.67.32-4,.32-10.56.48-12.64C816.32,52.36,807.68,65,807,86ZM840.5,51.24c-.16,4-.32,7.68-.64,12-1,15.21-1.92,24-2.72,39.23-.33,5.92-1.45,12.33-1.45,17.45,23.38-1.12,29.3-26.1,29.3-38.1C865,64.84,854.43,53.16,840.5,51.24Z"/><path class="cls-1" d="M919.43,75.41c-4.32,1-8,1.28-16,2.72L886.13,81c-.32,4-.48,7.52-.48,11.36,0,4.17-1.12,26.58,11.85,26.58,6.72,0,10.4-5.44,16.81-12.65,2.08-2.24,4.64-7.68,6.4-7.68a4,4,0,0,1,3.2,2.4c0,2.72-1.28,6.08-4.8,10.09-6.72,7.52-14.73,15.21-23.37,15.21-12.65,0-16.18-17.45-17-24.82a97.2,97.2,0,0,1-.64-12c0-1.76.16-5.28.16-7-1.92.16-4.8,0-4.8-3.53,0-3.36,3.2-4.48,6.56-4.64,3.05-8,14.25-34.58,24-34.58,4.16,0,12,2.56,17.29,8.48,3.37,4.17,4.33,9.77,4.49,17.14C926,70,923.75,74.61,919.43,75.41ZM915,51.88a15.25,15.25,0,0,0-10.73-4.33c-5.28,0-14.25,19.06-16,25.94,1.44-.32,9.45-1.6,15-2.4,6.25-1,8.49-1.28,13.29-2.4,3-.8,2.56-3.2,2.4-7C919,57.64,917.67,54.28,915,51.88Z"/><path class="cls-1" d="M966.19,127c-4,0-4.17-3.2-4.65-6.89-.8-6.56-1.6-16.17-2.56-25.29C958.34,88.22,957.7,57,954.82,57c-2.08,0-8.81,19.37-12.33,28.66-4,10.89-10.25,24.34-14.41,33.3-1.44,3.36-3.68,7.53-6.89,7.85-1.92.16-2.88-3-3-4-.16-1.76,1.44-3,4.49-9.6,3.84-8.33,8.32-18.41,12.48-29.3,6.57-17.29,12-29.3,16.34-38.91,2.08-5,4.32-5.44,6.88-5.28,2.88.16,4.32,2.72,4.32,6.24,0,7.85,1.28,16.65,1.92,25.3,1.61,22.25,4.17,45.31,4.33,48.51C969.07,122.16,970.51,127,966.19,127Z"/><path class="cls-1" d="M1010.54,95c0,12.8-1.93,15.21-7.53,22.41s-11.85,12.33-19.69,12.33c-5.45,0-6.25-8.49-6.41-14.25,0-2.08-.16-3.2-.16-4.32,0-1.76.16-4,1.12-12.17,1.12-9.61,3.85-24.66,3.85-25-2.25-.16-3.85-1.28-3.37-3.36.16-2.72,1.92-4,4-5.28,1-6.57,3.84-20.82,4.16-23.22s1.12-4,4.64-4c2.56,0,2.56,1.12,2.56,3.84,0,2.56-2.4,16.49-3.68,23.54,3,1.44,9.13,5,13,9.76C1008.29,81.66,1010.54,86,1010.54,95ZM996.29,77.81a18.79,18.79,0,0,0-7.53-4.8c-.64,4-1.44,9.61-3.36,26.1-1.6,14.89-1.6,20.49,1.12,20.81,3.52.48,6.88-3.36,10.09-6.72,4.8-5.13,6.88-9.45,7-16.65A26.67,26.67,0,0,0,996.29,77.81Z"/></svg>