<svg id="Isolation_Mode" data-name="Isolation Mode" xmlns="http://www.w3.org/2000/svg" viewBox="0 0 768.55 171.27"><defs><style>.cls-1{fill:#f1dcb8;}</style></defs><path class="cls-1" d="M62.38,79.6c-.93,13.47-2.63,37.46-2.17,40.4,1.7,3.71,3.1,6,3.25,7.43-.46,2.47-1.86,4.95-3.71,5.11-3.25,0-6.81-7.12-7.12-12.39-.31-5.88,1.85-46,3.71-59.13,1.55-11.76.93-12.38,1.55-20.12-2.32,4.34-3.87,7.43-8,14.24C41.79,68.61,38.23,75.42,29.72,89.35S16.25,111.64,8.36,124.8c0,3.71-.78,7.74-4.8,7.74C0,132.54,0,130.37,0,123.4c0-19.19,2-43.95,3.56-59.13C6,43.84,9,31.15,10.22,22c.46-3.56,1.54-8.67,3.71-8.67,3.41,0,4.49,2.17,4.64,4.8.16,3.71-3.56,24.61-4.48,30.18C12.69,59,11.61,65.67,10.53,77.59,9.91,86.72,9,102.51,8.36,110.71,14.09,101.12,22,89.35,28.17,78.36,35.45,66,37.77,61,44.73,49.26c4-6.81,10.37-20.9,15.33-28.94.62-6.35,3.25-6.81,6-6.5,2.33.92,2.63,4.79,2,10.68C66.09,45.86,63.93,55.14,62.38,79.6Z"/><path class="cls-1" d="M100.3,121.24c-8,5.41-16.71,7.43-22.29,6.65-3.4-.46-10.37-4.18-10.21-6.19.15-1.39.31-3.09,2.47-3.09,2.79,0,7,3.86,8.83,3.86,4.33.16,9.59-1.85,16.71-6.81,7.28-5.41,11-11.45,11-20.74,0-2-2-6-7.89-6-5.11,0-10.06,1.85-13.16,1.85-2.94,0-4.64-1.54-5-3.25-.46-2.32,2.32-5.26,5-7,5.73-3.56,8.83-4.65,13.16-9.44,3.87-4.34,7.58-7.12,7.58-13.32,0-2.16-.15-5.1-6.5-5.26a20.37,20.37,0,0,0-13.15,4.8c-5.58,4.8-5,7.74-7.43,7.58s-3.41-.15-4-3.4c-.46-2.32,2.94-5.42,6.5-8.82,5-4.34,14.09-7,18.42-7,7.28,0,13.31,5.26,13.31,10.06,0,8.05-3.87,13.47-9.75,19.82-3.09,3.4-6.34,5.41-9.44,7.58,1.08,0,3.1-.46,6.19-.46,6,0,13.16,4.79,13.16,10.83C113.77,106.69,108.35,116,100.3,121.24Z"/><path class="cls-1" d="M142.1,76.81c3.56,5.42,7.74,12.39,7.74,21,0,12.39-1.86,14.71-7.28,21.67s-11.45,11.92-19,11.92c-5.26,0-6.19-8-5.88-13.62v-1.24c0-2.32-.31-3.25-.31-6a76.47,76.47,0,0,1,.77-9.44c.93-9.29,3.72-20.13,3.72-20.44-2.63-2.47-3.56-4.33-3.1-6.34.16-2.63,1.86-3.87,3.87-5.11.93-5.11,2.94-13.16,4.34-20.59.46-2.63,1.55-5.26,5.26-5,4.18.31,1.55,7.89.62,11.76-1.7,7.28-1.55,8.67-2.79,13.93,2.63.62,4,0,5.88,1.86,6.2.31,26.32-13.93,32.2-18.26.62-4.8.77-8,4-8,2.48,0,3.72,1.85,3.56,6.34C174.76,68,172.12,75.58,171,91.36c-.93,11.15-1.39,23.84-2,29.72-.62,5.42-2.63,9.13-6.19,9.13-1.24,0-2.94-.77-1.4-10.06,1.4-10.21,2.17-18,2.95-30.95.15-4,1.39-16.57,2.78-27.25C159.59,67.06,148.91,73.56,142.1,76.81Zm-6.81,4.34c-2,.46-4.65.77-6.51,0,0,3.09-1.39,4.8-3.25,20.74C124,116.28,124,121.7,126.62,122c3.4.46,6.65-3.25,9.75-6.5,4.64-5,6.65-9.13,6.81-16.1C143.33,92.76,139.77,88.42,135.29,81.15Z"/><path class="cls-1" d="M212.68,117.52c-6.35,6-9.29,9.91-20,10.06-8.51.16-13.31-10.21-13.31-22.29,0-7.58,1.7-19,5.26-30,2.79-8.83,15.79-27.71,25.54-27.71,3.25,0,9.6,2,11,8.67.31,2-1.85,4.18-4,4.18-3.41,0-2.79-5.27-7.43-4.65-2.32.16-10.53,5.57-17,18.42-3.56,7.28-5.88,15-5.88,28,0,.93-1.08,18,7.12,18,6,0,8.82-2.94,14.4-7.89,5.88-5,8.66-10.68,10.37-11s2.47,1.39,2.47,4C221.19,107.15,217.17,113.19,212.68,117.52Z"/><path class="cls-1" d="M272,51.12c0,.77-.31,1.39-2.78,3.56a162.12,162.12,0,0,0-12.54,13.16c-4.33,5-16.25,15.47-22.91,25.69a159.36,159.36,0,0,0,15.33,21.67c5.1,6.5,6.19,9.13,15.78,16.72,1.4,1.39,3.25,4.18,1.86,6-1.7,1.86-3.87,1.4-5.73,0-6-5.1-10.21-8-18.26-19.65A179,179,0,0,1,231,102.66c-.62,5.89-.93,14.24-2,20.43-.77,2.79-.77,6.81-5.88,6.35-3.4-.31-2.47-6.19-2.17-9.13,1.09-8,2.79-21.83,4.18-35.76,1.24-12.07,2.33-24.14,2.48-30.95.16-3.41.46-8.21,4-8.36,3.26-.16,4.34,2.47,4,8-.16,7.89-1.39,18.73-2.94,30.64l6.5-7L254.94,60.1c5.11-5.42,11.3-12.54,14.24-12.54,1.55,0,2.78.77,2.78,2.47Z"/><path class="cls-1" d="M315.61,54.21c-2.16,6.51-3.71,20.13-6.34,34.52C307.1,102,306,116.59,305.09,123.4c-.62,3.87-2.32,5.27-5.11,5.27-1.08,0-4-1.55-3.1-5.58,1.24-6.5,3.1-19.5,5-31.57.93-6.5,2-14.09,2-14.09-2.79,5.42-6.19,11.46-12.54,22.91-6.34,11.61-14.7,26.31-17.49,26.31s-4.95-.46-4.95-7.12c0-9,.93-22.28,9.29-44.26,4-10.53,11.6-23.22,17.18-26.16,6.5-3.56,9.44-3.87,18.73-3.87,4.48,0,8.2,2.47,7.89,6.65C321.8,54.06,319,53.44,315.61,54.21Zm-15.78,2.17c-8.36,4.8-15.79,22.14-15.95,22.45-4.64,9.13-7.58,28.63-7.58,28.63,0,.77-.62,4,1.08,4.49,1.08.15,13.16-20.12,21.21-36.22l9.9-22.13A18.93,18.93,0,0,0,299.83,56.38Z"/><path class="cls-1" d="M368.86,82.85a31.11,31.11,0,0,1,.31,3.71,2.77,2.77,0,0,1-1.08,2.79,255.43,255.43,0,0,0-3.56,32.35c-.16,4-1.71,7.74-4.65,7.74s-3.25-4.8-3.09-8.67c.46-9,.31-10.68,2.94-30.18-5.57.31-9,1.24-18.58,1.24-2.94,0-4.95-.31-7.89-.16a56.11,56.11,0,0,0-1.08,8,176.75,176.75,0,0,1-2.33,21.36c-.46,3.1-1.23,6-5,6-2.17,0-3.4-2.32-2.79-5.42,1.09-7.27,2.33-20.12,3.56-29.56-3.56.31-5.26-.62-5.26-3.56,0-2.63,2.17-3.41,6.19-4,2-12.84,2.94-23.53,4.49-32.66.62-4.18,2.32-6.5,5-6.5,3.4,0,3.87,3.72,3.87,5.57,0,.78-1.86,11-3.87,21.52-.78,4.49-1.4,8.2-2.17,12.07l8.05-.31c7.12-.15,11-.46,19.19-.46,1.24-7.74,2.94-18.42,3.1-24.61.15-4-.62-13.62,2.47-13.62,5.11,0,5,4.8,4.65,12.07C371,69.85,370.41,72.94,368.86,82.85Z"/><path class="cls-1" d="M423.34,82.85a29.16,29.16,0,0,1,.31,3.71,2.74,2.74,0,0,1-1.08,2.79A259.2,259.2,0,0,0,419,121.7c-.15,4-1.7,7.74-4.64,7.74-3.1,0-3.25-4.8-3.1-8.67.47-9,.31-10.68,2.94-30.18-5.57.31-9,1.24-18.57,1.24-2.94,0-4.95-.31-7.9-.16a57.59,57.59,0,0,0-1.08,8,177.21,177.21,0,0,1-2.32,21.36c-.47,3.1-1.24,6-4.95,6-2.17,0-3.41-2.32-2.79-5.42,1.08-7.27,2.32-20.12,3.56-29.56-3.56.31-5.26-.62-5.26-3.56,0-2.63,2.16-3.41,6.19-4,2-12.84,2.94-23.53,4.49-32.66.62-4.18,2.32-6.5,4.95-6.5,3.41,0,3.87,3.72,3.87,5.57,0,.78-1.86,11-3.87,21.52-.77,4.49-1.39,8.2-2.17,12.07l8.05-.31c7.12-.15,11-.46,19.2-.46,1.23-7.74,2.94-18.42,3.09-24.61.16-4-.62-13.62,2.48-13.62,5.11,0,4.95,4.8,4.64,12.07C425.51,69.85,424.89,72.94,423.34,82.85Z"/><path class="cls-1" d="M454.92,76.81c3.56,5.42,7.74,12.39,7.74,21,0,12.39-1.86,14.71-7.27,21.67s-11.46,11.92-19,11.92c-5.27,0-6.19-8-5.88-13.62v-1.24c0-2.32-.31-3.25-.31-6a74.46,74.46,0,0,1,.77-9.44c.93-9.29,3.71-20.13,3.71-20.44-2.63-2.47-3.56-4.33-3.09-6.34.15-2.63,1.86-3.87,3.87-5.11.93-5.11,2.94-13.16,4.33-20.59.47-2.63,1.55-5.26,5.27-5,4.17.31,1.54,7.89.61,11.76-1.7,7.28-1.54,8.67-2.78,13.93,2.63.62,4,0,5.88,1.86,6.19.31,26.31-13.93,32.2-18.26.61-4.8.77-8,4-8,2.48,0,3.71,1.85,3.56,6.34C487.58,68,485,75.58,483.87,91.36c-.93,11.15-1.4,23.84-2,29.72-.62,5.42-2.63,9.13-6.19,9.13-1.24,0-2.94-.77-1.39-10.06,1.39-10.21,2.17-18,2.94-30.95.16-4,1.39-16.57,2.79-27.25C472.41,67.06,461.73,73.56,454.92,76.81Zm-6.81,4.34c-2,.46-4.64.77-6.5,0,0,3.09-1.39,4.8-3.25,20.74-1.55,14.39-1.55,19.81,1.08,20.12,3.41.46,6.66-3.25,9.75-6.5,4.65-5,6.66-9.13,6.81-16.1C456.16,92.76,452.6,88.42,448.11,81.15Z"/><path class="cls-1" d="M537.42,92c-.62,9.29-1.7,22.45-1.7,30,0,3.41,1.7,8.51-3.09,8.2-5.58-.31-5-6.5-3.26-24.61,1.4-15.32,2.48-20.89,3.41-29.72C526.9,85,518.85,107,510.34,118.14c-2.48,3.25-6,8.67-10.68,8.67a4.43,4.43,0,0,1-4.65-3.56c-.77-3.72-.31-12.38-.15-20.43.46-11.61,1.7-18.73,3.56-30.65,1.55-9.29,1.85-15.32,4.8-23.53.77-2.78,2.16-4.33,4.18-4.33,1.54,0,3.09,1.7,3.09,5.11-.31,4.95-4.49,19.5-5.88,32-1.86,13.62-3.72,34.05-1.86,34.82,1.86.47,8.51-11.61,16.56-27.39,3.1-6.5,8.52-18,11.46-24.62,2.94-6.5,4-9.75,5.11-12.53,1.08-2,2.78-4,5.41-3.25,2.63.46,3.41,2.78,2.94,4.95C542.53,68.46,538.66,76.5,537.42,92Zm10.84-69.5c-4,2.79-13.62,10.53-22.14,10.53-4.79,0-6.81-2.79-9.59-5.57-1.86-1.86-3.1-4-3.1-5.89a2.44,2.44,0,0,1,2.63-2.63c1.71,0,2.79,1.55,5.11,3.72s4.49,3.56,5.88,3.56c6.5,0,12.85-5.11,17.8-8,3.1-1.86,5.73-3.56,7.74-1.7C553.52,17.38,551.2,20.47,548.26,22.48Z"/><path class="cls-1" d="M626.74,67.22c-2.48.62-9.6,1.54-14.56,3.4,5,2.17,7.13,9.91,7.13,15.79-.16,14.71-11,40.55-24.46,41-5.26.15-6.66-7-6.66-12.07a391.28,391.28,0,0,1,2.94-40.56c-2,1.7-2.78.62-4,.78-2,.3-2.48-1.24-2.48-2.79,0-4.49,3.56-5.88,8.83-10.53,3.4-16.71,3.71-25.85,6.5-42.87,1.7-9.91,3.87-12.85,7.74-16.25A14.84,14.84,0,0,1,617.29,0c4.18.31,8.52,1.86,8.67,13.31.16,15.33-11.3,31.89-26.62,56-1.55,8.36-5.11,40.87-5,46.44.16,2.79,0,4.18,2.79,4,5.73-.46,14.86-22.59,15.17-31.26.16-6.19-.93-13-6.5-12.85-1.7,0-4.64.15-4.64-4.8,0-2.78,4.48-4,7.73-5.88,5-2.79,16.72-4.18,18.89-4.18,2.47,0,3.25,0,3.25,2.79C631.07,65.82,628.59,66.75,626.74,67.22ZM616.21,7.47c-2.94,0-8.05,4.18-9.44,12.07-2.79,16.25-3.25,26.63-5.11,34.36,8.82-12.69,18.42-30.8,18.26-39.62C619.92,11.65,618.53,7.47,616.21,7.47Z"/><path class="cls-1" d="M676.42,51.12c0,.77-.31,1.39-2.78,3.56A162.12,162.12,0,0,0,661.1,67.84c-4.34,5-16.25,15.47-22.91,25.69a159.93,159.93,0,0,0,15.32,21.67c5.11,6.5,6.2,9.13,15.79,16.72,1.4,1.39,3.25,4.18,1.86,6-1.7,1.86-3.87,1.4-5.73,0-6-5.1-10.21-8-18.26-19.65a177,177,0,0,1-11.76-15.64c-.62,5.89-.93,14.24-2,20.43-.77,2.79-.77,6.81-5.88,6.35-3.4-.31-2.48-6.19-2.17-9.13,1.09-8,2.79-21.83,4.18-35.76,1.24-12.07,2.32-24.14,2.48-30.95.15-3.41.46-8.21,4-8.36,3.25-.16,4.34,2.47,4,8-.16,7.89-1.39,18.73-2.94,30.64l6.5-7L659.4,60.1c5.1-5.42,11.3-12.54,14.24-12.54,1.54,0,2.78.77,2.78,2.47Z"/><path class="cls-1" d="M711.56,125.26l-3.72,22c-1.24,7.59-5.41,24.92-26.77,24-8.83-.31-17.49-2.94-17.49-6.65,0,0,1.39-1.86,2.78-2,3.1-.31,7.43,2.17,14.4,1.71,6-.47,15.32,1.7,19.65-16.26,1.09-4.48,2.48-12.69,4.18-23.06,4-25.85,9.75-52,9.75-57.27-.15.16-7.12,14.4-15.32,29.87l-11,20.59c-2.48,4-5.57,11.15-10.83,11.15s-4-7.43-3.56-11.77c.61-6.81,4.33-23.83,6.34-39.16,1.24-10.06,1.09-16.1,3.1-26,.77-5.27,1.24-6.35,4-6.35,3.87,0,4.8,3.56,4.49,5.73-1.7,15.32-2.63,16.25-5,28.17-1.86,10.52-2.48,15.17-4.34,25.85-.92,2.63-2.47,10.21-1.39,10.68,1.55.15,3.72-4.49,7.28-10.37,4.95-8.82,10.83-21,13-25.54,3.56-6.81,6.19-11.61,9-18.11,5.72-12.69,6-16.25,9.59-16.25,2.79,0,4.65,2.78,4.8,7.43C724.41,60.25,716.05,96.94,711.56,125.26Z"/><path class="cls-1" d="M760,117.52c-6.35,6-9.29,9.91-20,10.06-8.51.16-13.31-10.21-13.31-22.29,0-7.58,1.7-19,5.26-30,2.79-8.83,15.79-27.71,25.54-27.71,3.25,0,9.6,2,11,8.67.31,2-1.86,4.18-4,4.18-3.41,0-2.79-5.27-7.43-4.65-2.33.16-10.53,5.57-17,18.42-3.56,7.28-5.88,15-5.88,28,0,.93-1.09,18,7.12,18,6,0,8.82-2.94,14.39-7.89,5.88-5,8.67-10.68,10.37-11,1.86-.31,2.48,1.39,2.48,4C768.52,107.15,764.5,113.19,760,117.52Z"/></svg>