<svg id="Isolation_Mode" data-name="Isolation Mode" xmlns="http://www.w3.org/2000/svg" viewBox="0 0 179.51 179.51"><defs><style>.cls-1{fill:#fff;fill-rule:evenodd;}</style></defs><path class="cls-1" d="M143,0H36.52A36.52,36.52,0,0,0,0,36.52V143a36.52,36.52,0,0,0,36.52,36.53H143A36.52,36.52,0,0,0,179.51,143V36.52A36.52,36.52,0,0,0,143,0ZM21.28,35.1c.71-6,9.92-6.3,9.6,0-.16,3.4-.36,6.84-.42,10.22,4.83-5.19,10.18-10.06,15.15-14.89,2-1.95,4.8.94,3,3-5.87,6.82-11.19,14.73-17.8,20.86a35.76,35.76,0,0,0,1.36,7.43c3.5-4.35,8.17-8,12.42-11.22,6.13-4.61,12.59-10.19,19.33-13.76,2-1.07,4.51,1.14,3.22,3.21-3.8,6.13-10.32,10.51-15.8,15.12S41.42,65.23,36.23,70a23.73,23.73,0,0,0,6.59,5.87c10.25-9.31,21.47-17.48,31.69-26.79a1.83,1.83,0,0,1,2.59,2.59C68,60.82,58.74,69.84,49.6,79l1.1.42a78,78,0,0,0,11.42,2.44c5.12-6.3,11.9-11.55,17.74-17.13,2-2,4.8.94,3,3-4.28,5-8.47,10.38-13.14,15.15,3.54.48,16.54.84,16.54.81.33-12.59.1-23.78-4.12-35.81-5.22-15-21.6-19-35.58-22.32-7.23-1.69-1.17-14.11,6.07-12.62,13.75,2.85,29.22,7.79,37.62,20,4.41,6.36,7,24,5.84,42.82-1.72,1.94-3.4,3.89-5.16,5.77-3.11,3.31-6.74,7.07-10.73,11.06q-9.78-1.85-19.56-3.11C47.94,87.74,36,84.76,27.64,74,18.81,62.54,19.72,48.56,21.28,35.1Zm54,88.49c-2.17,1.81-4.28,3.66-6.49,5.38L61,135s-5.22,3.31-10.41,6.36-10.44,5.7-10.09,5.31c-9.08,4-17.38,2.54-4.83-6.74,1.85-1.36,3.76-3.08,5.71-4.61s4-3.05,5.61-4.51l5.87-4.9c1.14-.74,2.21-1.65,3.31-2.49l3.63-2.79c2.21-1.66,4.32-3.47,6.46-5.26s4.25-3.5,6.29-5.41c8.37-7.3,16.19-15.25,23.84-23.36C111.59,70.36,125.6,52.84,139.25,35L148,23.65a2.81,2.81,0,0,1,.68-.33c5.71-1.36,8.69,5.48,8.5,7.76a.84.84,0,0,1-.16.58l-8.73,11.42c-13.53,17.58-27.41,35-42.66,51.38-7.62,8.2-15.53,16.15-23.9,23.61C79.6,120,77.49,121.84,75.32,123.59Zm23.52,42.85c-13.3-5.87-16.25-22.48-16-39.67l3.73-3.22L94,116.74c-.13,7.72.1,15.54,1.75,23.1,1.88,8.59,6.36,14.6,10.55,22C107.43,163.91,100.78,167.28,98.84,166.44ZM156.28,135c-2.85-3.3-5.41-6.64-8.07-9.82-4.12,5.41-10,9.82-15.41,13.72-7.36,5.32-15,11.32-22.84,15.79-1.94,1.11-4.57-1.2-3.21-3.21,4.64-6.81,11.94-11.51,18.33-16.57s11.68-10.61,17.45-16a48.67,48.67,0,0,0-6.29-5.39l-.46-.32c-10.25,9.27-21.5,17.35-31.69,26.63-1.75,1.59-4.31-.91-2.59-2.6,9.31-9.4,18.91-18.55,28.28-27.93-2.62-1.55-5.32-3-8.07-4.24-5.94,6.71-14.73,10.86-21.25,17a2.14,2.14,0,0,1-3-3c5.42-6,11.81-11.49,18.07-16.74-1.72-.72-3.51-1.36-5.26-2l.78-.85c2.17-2.33,4.25-4.7,6.33-7,22,8.11,40.67,21,44.31,40.36C162,134.39,157.58,136.5,156.28,135Z"/></svg>