<svg id="Isolation_Mode" data-name="Isolation Mode" xmlns="http://www.w3.org/2000/svg" viewBox="0 0 434.23 132.36"><defs><style>.cls-1{fill:#fff;}</style></defs><path class="cls-1" d="M18.2,54.54C4.66,54.54,0,42.45,0,31.46S1.38,6.55,15.15,2.91C19.51,1.75,25.27,2.18,26.29,0h9.83c-1.31,9.47-8.74,10.7-17.48,11.5-9.39.88-12.38,7.65-13.18,15h.22c1.82-5,6.26-10.63,14.85-10.63,9.62,0,17.26,7.58,17.26,19.23S30.29,54.54,18.2,54.54Zm.59-31c-5.1,0-8.45,4.22-8.45,11.58,0,7.57,3.28,11.65,8.59,11.65S27.45,42.6,27.45,35C27.45,27.67,24.17,23.52,18.79,23.52Z"/><path class="cls-1" d="M62.41,54.54c-11.58,0-19.23-7.87-19.23-19.66S51.12,14.78,62,14.78c11.36,0,18.57,8.3,18.57,21.48v1H53.67c.14,6.48,3.27,10,8.81,10,3.78,0,6.11-1.68,7.64-5.46H80C77.7,50,70.92,54.54,62.41,54.54ZM62,22.28c-4.59,0-7.79,3.21-8.37,8.45H70.12C69.69,26.14,67.21,22.28,62,22.28Z"/><path class="cls-1" d="M101.8,54.54c-9.39,0-17.47-3.71-17.62-13.33H94c.36,4.08,3.28,6.27,8,6.27s6.7-2.19,6.7-5c0-3.13-2-5.24-6.48-5.24h-4V30.73h2.7c4.37,0,7.13-1.09,7.13-4.88,0-2.26-1.89-4.22-5.89-4.22-4.16,0-6.56,1.23-7.14,5.17H85.42c.29-8.74,8.37-12,17-12,9.91,0,15.73,3.13,15.73,10.12a8.73,8.73,0,0,1-6.77,8.3v.15c3.57.44,8,2.4,8,9C119.35,50.46,112.29,54.54,101.8,54.54Z"/><path class="cls-1" d="M156.27,23.81V53.45H146V15.87h28.4v7.94Z"/><path class="cls-1" d="M201.13,53.45V23.81h-9.9l-.44,13.25c-.29,7.79-.73,17.55-12.09,17.55a22.21,22.21,0,0,1-5.61-.73V45.66A15.68,15.68,0,0,0,176,46c3,0,4.51-2.4,4.66-7.79l.58-22.36h30.14V53.45Z"/><path class="cls-1" d="M230,37.43v16H219.77V15.87H230V30.15h7.43c1.53-9.4,8.08-15.37,18.13-15.37,11.21,0,18.13,7.94,18.13,19.88,0,12.09-6.92,20-18.28,20-10.63,0-17.26-6.7-18.2-17.18Zm25.27-14.78c-5,0-7.87,4.51-7.87,12,0,7.72,2.84,12.16,8,12.16s7.94-4.51,7.94-12.23C263.39,27.09,260.48,22.65,255.31,22.65Z"/><path class="cls-1" d="M298.64,23.81V53.45H288.37V23.81H276V15.87h35v7.94Z"/><path class="cls-1" d="M332,54.54c-11.58,0-19.22-7.87-19.22-19.66s7.93-20.1,18.86-20.1c11.35,0,18.56,8.3,18.56,21.48v1H323.25c.15,6.48,3.28,10,8.81,10,3.79,0,6.12-1.68,7.65-5.46h9.9C347.28,50,340.51,54.54,332,54.54Zm-.36-32.26c-4.59,0-7.8,3.21-8.38,8.45h16.46C339.27,26.14,336.79,22.28,331.63,22.28Z"/><path class="cls-1" d="M381,53.45V37.65H366.51v15.8H356.24V15.87h10.27V29.49H381V15.87h10.26V53.45Z"/><path class="cls-1" d="M423.74,53.45a11.32,11.32,0,0,1-.73-3.64,17,17,0,0,1-12.16,4.73c-8.3,0-13.39-4.3-13.39-11.36,0-9.83,9-11,16.38-11.94,6.7-.88,9.17-1.46,9.17-4.52,0-3.42-2.18-5-6.77-5s-6.7,1.46-7.42,5.75h-9.69c.58-8.37,6.55-12.67,17.4-12.67,7.58,0,16.39,1.75,16.39,12.23V43.25c0,3.42-.08,7,1.31,10.2Zm-8.08-16.31c-3.57.58-7.57,1-7.57,5.6,0,3.13,2.11,5,5.68,5,5.39,0,9.17-3,9.17-8.38V35.17C420.54,36.55,418.28,36.7,415.66,37.14Z"/><path class="cls-1" d="M25.49,131.12V105.71l-13.4,25.41H.36V93.55h9.91V119l13.4-25.41H35.39v37.57Z"/><path class="cls-1" d="M81.63,132.21c-13.54,0-18.2-12.08-18.2-23.08s1.38-24.9,15.14-28.54c4.37-1.17,10.12-.73,11.14-2.91h9.83c-1.31,9.46-8.74,10.7-17.47,11.5-9.4.87-12.38,7.65-13.18,15h.22c1.82-5,6.26-10.63,14.85-10.63,9.61,0,17.26,7.57,17.26,19.22C101.22,124.57,93.72,132.21,81.63,132.21Zm.58-31c-5.09,0-8.44,4.22-8.44,11.57,0,7.58,3.27,11.65,8.59,11.65s8.52-4.15,8.52-11.72C90.88,105.35,87.6,101.2,82.21,101.2Z"/><path class="cls-1" d="M125.83,132.21c-11.58,0-19.22-7.86-19.22-19.66,0-11.65,7.94-20.09,18.86-20.09,11.36,0,18.57,8.3,18.57,21.48v1H117.09c.15,6.48,3.28,10,8.82,10,3.78,0,6.11-1.67,7.64-5.46h9.9C141.12,127.63,134.35,132.21,125.83,132.21ZM125.47,100c-4.59,0-7.79,3.2-8.38,8.44h16.46C133.11,103.82,130.64,100,125.47,100Z"/><path class="cls-1" d="M165.23,132.21c-9.4,0-17.48-3.71-17.62-13.32h9.83c.36,4.08,3.27,6.26,8,6.26s6.7-2.18,6.7-5c0-3.13-2-5.25-6.48-5.25h-4V108.4h2.69c4.37,0,7.14-1.09,7.14-4.87,0-2.26-1.89-4.23-5.9-4.23s-6.55,1.24-7.13,5.17h-9.62c.3-8.74,8.38-12,17-12,9.9,0,15.73,3.13,15.73,10.12a8.73,8.73,0,0,1-6.77,8.3V111c3.56.43,8,2.4,8,9C182.78,128.14,175.71,132.21,165.23,132.21Z"/><path class="cls-1" d="M246.49,89H221.74v42.16H210.38V79.28h36.11Z"/><path class="cls-1" d="M252.18,79.28h16.23l12.09,35.6,11.8-35.6h15.87v51.84h-10.7V94.28l-12.75,36.84h-8.81L263,94.64v36.48H252.18Z"/><path class="cls-1" d="M367.08,105.27c0,16.17-10.26,27.09-25.48,27.09S316,121.51,316,105.27C316,88.82,326.16,78,341.67,78,356.82,78,367.08,89,367.08,105.27Zm-39.61-.22c0,11.15,5.39,17.84,14.2,17.92,8.59,0,13.91-6.85,13.91-17.92,0-10.92-5.39-17.69-14.05-17.69S327.47,94.28,327.47,105.05Z"/></svg>