<svg id="Isolation_Mode" data-name="Isolation Mode" xmlns="http://www.w3.org/2000/svg" viewBox="0 0 427.46 253.16"><defs><style>.cls-1,.cls-4{fill:#fff;}.cls-2{fill:#006937;}.cls-3{fill:#ce0e2d;}.cls-4{fill-rule:evenodd;}.cls-5{fill:none;}</style></defs><path class="cls-1" d="M408.39,2.62l-6.12,3.77C347.4,40.17,265,55.83,205.59,63A1047,1047,0,0,1,88.24,70.56l-2.92,0L21.78,242.67l5.79.17a946.78,946.78,0,0,0,118.36-5.58c37.9-4.17,72.19-10.45,101.92-18.66,37.38-10.34,67.66-23.8,90-40l.91-.66.45-1c1.95-4.44,47.82-108.95,69.13-165.49L412.66,0ZM404.07,9.3Z"/><path class="cls-2" d="M88.22,74.72S297,76.12,404.46,9.94c-21.84,58-69,165.28-69,165.28C239.19,245,27.69,238.68,27.69,238.68Z"/><path class="cls-1" d="M415.25,28.6,409,32.46c-24,14.78-56.43,25-96.35,30.39-32.16,4.33-69.19,5.55-110.06,3.61A952.5,952.5,0,0,1,74.89,51.52l-3.43-.7L9,203.48l5,1a1066.48,1066.48,0,0,0,137.16,16.37c43.4,2.22,82.08,1,115-3.55,41.47-5.76,73.92-17,96.44-33.29l1.08-.79.44-1.28c.29-.86,29.49-87.23,51-144.41L419.52,26Z"/><path class="cls-3" d="M74.05,55.66S303.7,102.24,411.2,36.05C389.37,94,360.12,180.6,360.12,180.6c-96.23,69.8-345.25,19.75-345.25,19.75Z"/><path class="cls-2" d="M180.36,104.64c1.07.7,4,2.63,4.61,3a2.22,2.22,0,0,1,.81,1.53c.44,2.31.69,5.37-.86,11,3.74-4.26,10.29-12,16.84-13.47.39-1,1.68-2.36,2.22-2,2,1.29,3.33,2.18,4.37,2.86a4.81,4.81,0,0,1,.54.42c.68.62.85,1.34.24,2.63-1.21,2.57-6.31,8.74-8.1,10.42a2.13,2.13,0,0,1-2.71.56,5.84,5.84,0,0,0-2.73-.6c-3,.06-7,3.63-11.11,11.38-2.87,5.44-5.71,13-8.55,22.69-.76,2.61-1.51,3-3.49,4.38-2.85,2-9,3.66-11.3,4a3.89,3.89,0,0,1-2.49-.28l-4.56-3c-.68-.44,5.07-1.55,5.37-2.28,7.9-18.65,12.78-35,12.77-40.9,0-2.35.9-3.21,2.27-4.54a25.58,25.58,0,0,1,4.57-3C179.07,107.85,179.59,104.13,180.36,104.64Z"/><path class="cls-2" d="M108.33,80.62c1,.69,3.9,2.53,4.54,3,1,.69,1.19,2.12.18,4.06-6.76,12.91-22.73,47-25,64.47,12.14-2.67,18.78-3.66,22.75-3.17a3.22,3.22,0,0,1,1.31.43,30.09,30.09,0,0,1,.18-12.86c1.87-8.43,7.74-16.27,10.81-18.84,1.73-1.44,3.16.24,5.86,1.93,2.41,1.51,4.87,1,5.74,2.43l.21.36,0-.84c-.12-6.66,3.23-13.38,8.9-16,1.49-.68,2.94-4,4.63-3.38a27.44,27.44,0,0,1,10.16,7c4.74,5.61,6.79,15.62,3.69,27.09-4.71,17.44-19,28.17-30.69,28.37a22.19,22.19,0,0,1-7.71-1.17,32.37,32.37,0,0,1-11.09-7.12c-.8-.88.76-2.59.32-3.74a10,10,0,0,1-.24,1.16,37.63,37.63,0,0,1-2.66,7.47c-.79,1.41-1.58,3-4.59,2.87a282.3,282.3,0,0,0-31.81.7,4.39,4.39,0,0,1-2.88-.42l-4.55-3c-.3-.2,1.44-1.25,3.1-2.61.83-13.33,17.48-55.32,22.29-66.18,1.29-2.93,2.36-3.77,4.39-4.83a59,59,0,0,1,8.4-3.19C106.09,82.76,107.25,79.9,108.33,80.62Zm26.84,44.14a2.46,2.46,0,0,1-.34.41,30,30,0,0,0-8,16.38c-1.09,9.63,2.67,14.57,7.17,14.49,7.14-.12,15.27-13.18,16.8-26.24,1.07-9.15-1.81-15.91-3.95-15.87-2.57,0-5.44,8.22-4.68,16.31.15,1.5-.76,2.84-2.79,1.75l-.33-.2-4.5-2.95C134.21,128,135.38,125.83,135.17,124.76Z"/><path class="cls-2" d="M302.82,107.4c6.53-1.57,17.68-2.15,26.4-1.61,1.08-1,1.57-2.35,2.07-2l4.57,3c.91.65,1,1.73.73,2.9-.95,4.7-1.9,6.33-4.43,8.77-8.91,8.6-23.58,25.28-27.23,30.41,13-1.3,24.19-1.21,33.05.86,7.25,1.68,12.79,6.93,12.83,7.42.08,1-.24,2.62-1.93,2.11-18.1-5.47-43.08-1-60.34,1.93a5.38,5.38,0,0,1-3.73-.5c-1-.65-3.1-2-4.6-3-.57-.38,3.49-1.44,3.61-2.15a21.9,21.9,0,0,1,3-8.13c4.81-7.47,31-32.22,31-32.22-8.34.77-17.38,3.06-19.94,4.17a1.92,1.92,0,0,1-1.76.05c-.56-.36-3.18-2.11-4.59-3-1-.65,5.49-1.54,6.09-2.83a23,23,0,0,1,1.62-3.05C300.52,108.51,299.91,108.1,302.82,107.4Z"/><path class="cls-2" d="M216.49,138.27a5.21,5.21,0,0,1-2.93-.76l-2.39-1.57a49.38,49.38,0,0,0-2,7.54c-.89,4.85.71,9.25,4.79,9.17,7.65-.13,19.61-9.43,27.91-20.49,2.61-6.78,4.58-12.77,4.57-15.87a4.19,4.19,0,0,1,1.49-3.49,33.93,33.93,0,0,1,7.88-4.56c-.19-1.79-.47-4.09.17-3.66l4.57,3a2.4,2.4,0,0,1,1,1.9c.46,4.68-1.61,11-3.46,16,6.25-7.63,14.93-15.3,21.63-18.26,1.8-.8,1.1-4.37,2.47-4a22.78,22.78,0,0,1,7.21,4.86c2.27,2.78,2.92,8,.48,15.25-3.32,9.79-6.9,17.89-8.06,22.07a13.36,13.36,0,0,0-.13,7.79c.43,1.35.62,2.65-.47,3.45a35.44,35.44,0,0,1-10.34,4.77c-1.31.28-2.17.34-2.93-.16l-4.57-3c-.89-.58,1.29-1.17,2.14-2a21.2,21.2,0,0,1,1.14-9.78c2.36-7.13,7-19,8-21.75,1.16-3.08.39-4.47-2.51-2.4-5.48,3.91-11.59,10.72-16.41,17.2-4.56,6.13-8.05,11.92-9.07,14.49-1.19,3-2,3.81-4.22,5a31.19,31.19,0,0,1-9.32,3.21,3.22,3.22,0,0,1-2.08-.21l-4.6-3c-.55-.37,5-1.44,5.25-2.12.95-2.39,2.09-5.12,3.3-8-7,6.72-17.14,14.26-26.18,14.42a17.48,17.48,0,0,1-5.35-.78A27.39,27.39,0,0,1,193.1,156c-1-1.06.75-3.59.42-5.14a24,24,0,0,1-.12-8.7c2.32-14.62,16.5-31.16,30.24-34.7,1.63-.42,3.1-3.53,4.64-3.1,2.59.74,7.6,3.27,10.08,6.88a10.77,10.77,0,0,1,1.32,9.08C237.39,129,228.27,138.06,216.49,138.27Zm-4.68-4a22,22,0,0,1,4-.2c7.71-3.39,12.68-9.26,14.42-14.07,1-2.85.39-5.26-2.05-5.22-3.17.06-8,4.62-12.08,11A49.85,49.85,0,0,0,211.81,134.23Z"/><path class="cls-1" d="M177.89,104.8c1.87-.66,2.93-.56,3.31,1.39.44,2.31.7,5.37-.86,11,4.12-4.68,11.62-13.58,18.79-13.71,2.76,0,4.3.71,5.19,1.51.68.62.84,1.34.24,2.63-1.21,2.57-6.32,8.74-8.11,10.42a2.1,2.1,0,0,1-2.69.57A5.87,5.87,0,0,0,191,118c-5.15.09-12.92,10.47-19.8,34.1-.76,2.6-1.51,2.95-3.49,4.37-2.85,2-8.92,3.62-11.17,3.93-1.58.2-4.16.19-2.62-3.37,8.45-19.55,13.71-36.91,13.7-43.09,0-2.35.9-3.21,2.27-4.54A32.34,32.34,0,0,1,177.89,104.8Z"/><path class="cls-1" d="M298.25,104.4c8-1.9,22.82-2.35,31.74-1.08,2.12.3,2.34,1.73,2,3.34-.94,4.7-1.89,6.33-4.43,8.77-8.9,8.6-23.48,25.28-27.13,30.41,23.68-2.37,41.09-.1,49.85,10.15.91,1.06.66,2.83-1.11,2-18.26-8.13-46.35-3-65.23.12-3.23.54-5.41-.92-5-3.59a24.66,24.66,0,0,1,3.29-10.2c4.82-7.47,31-32.22,31-32.22-8.35.77-17.39,3.06-19.95,4.17-1.58.68-2.77-.09-1.91-2.1.7-1.62,2.11-4.75,3.3-6.86S296.25,104.88,298.25,104.4Z"/><path class="cls-1" d="M212.31,135.53c-3.45.06-5.63-2.68-2.22-4,8.37-3.29,13.74-9.45,15.57-14.5,1-2.85.38-5.26-2.06-5.22-5.73.1-16.69,14.87-19.21,28.56-.89,4.85.71,9.25,4.79,9.18,7.27-.13,18.59-8.43,26.82-18.75a14.17,14.17,0,0,0,2.17-4c2.15-5.78,3.67-10.73,3.66-13.46a4.16,4.16,0,0,1,1.48-3.49,33.67,33.67,0,0,1,10.16-5.38c1.65-.5,3.22-.1,3.43,2.07.46,4.67-1.6,11-3.46,16,7.93-9.68,19.77-19.42,26.52-19.54,5.53-.09,9,6.41,5.27,17.44-3.31,9.79-7,17.87-8.12,22a13.27,13.27,0,0,0-.13,7.79c.42,1.35.62,2.69-.48,3.49a35,35,0,0,1-10.26,4.75c-1.94.42-2.9.33-4-1.28-1.45-2.16-2.49-6.87-.23-13.66,2.36-7.13,7-19.08,8-21.78,1.16-3.07.39-4.47-2.51-2.4-10.67,7.61-23.29,26.47-25.37,31.75-1.19,3-2,3.81-4.22,5a31.57,31.57,0,0,1-9.39,3.18c-1.87.25-3.46-.09-2.19-3.4,1.08-2.8,2.51-6.24,4.07-10-7,6.72-17.15,14.26-26.19,14.42-10.36.18-17.35-8.72-15.36-21.24,2.59-16.36,20-35.12,35.1-35.39,7.62-.13,13.76,5.5,11.57,13.82C233.22,126.24,224.1,135.33,212.31,135.53Z"/><path class="cls-1" d="M105.54,80.26c3.09-.56,4.63,1.26,3,4.42-6.76,12.91-23,46.89-25.21,64.34,12.14-2.66,19-3.56,22.94-3.07a3.43,3.43,0,0,1,1.31.43,29.93,29.93,0,0,1,.18-12.86c1.86-8.43,7.74-16.28,10.81-18.84a5.4,5.4,0,0,1,6.79-.36,14.25,14.25,0,0,1,4.8,4.72l.22.36c0-.28,0-.55,0-.84-.14-8.41,5.24-16.92,13.84-17.07,10.8-.19,18.4,14.13,13.6,31.9-4.71,17.44-19,28.17-30.69,28.37-9.45.17-15.77-4.81-18.53-12.08-.06.36-.14.74-.25,1.16a37,37,0,0,1-2.66,7.47c-.79,1.41-1.58,3-4.59,2.88a279.75,279.75,0,0,0-31.8.69c-3.26.35-4.3-1-4.37-4.83-.21-11.83,17.36-56.15,22.32-67.36,1.3-2.93,2.36-3.77,4.4-4.83A69.17,69.17,0,0,1,105.54,80.26Zm25.13,41.55a2.46,2.46,0,0,1-.34.41,30.12,30.12,0,0,0-8,16.38c-1.09,9.64,2.68,14.57,7.18,14.49,7.13-.12,15.26-13.17,16.79-26.24,1.07-9.15-1.81-15.91-3.95-15.87-2.57,0-5.44,8.22-4.67,16.32.14,1.5-.77,2.83-2.79,1.74C133.13,128.08,131.39,125.41,130.67,121.81Z"/><path class="cls-1" d="M73.65,174.75a.46.46,0,0,0,.11-.25c0-.3-2.21-1.05-4.35-1-2.6,0-4.94,1.07-4.93,3.56a2.77,2.77,0,0,0,2,2.67c2.3,1.06,4.59,1.2,4.6,2.74,0,1.08-.76,1.6-2,1.61a12.18,12.18,0,0,1-3.73-.74.3.3,0,0,0-.25.17l-.51,1.14a1.19,1.19,0,0,0-.11.28c0,.28,2.41,1,4.7,1,2.84,0,4.85-1.48,4.84-3.68a3.31,3.31,0,0,0-2-2.88c-2-1.11-4.62-1.34-4.62-2.66,0-1,1.07-1.35,2.1-1.36a9,9,0,0,1,3.16.75.32.32,0,0,0,.24-.18Z"/><path class="cls-1" d="M100.27,173.93c0-.31-.09-.36-.47-.36H98.15c-.38,0-.47,0-.47.36l0,5.49c0,.48.08,1.69.08,2.25h0a12.79,12.79,0,0,0-1.34-2.51l-3.74-5.34c-.14-.19-.18-.22-.52-.22H90.3c-.38,0-.47,0-.47.36l.06,11.13c0,.31.09.36.48.36H92c.38,0,.47-.05.47-.37l0-6.22c0-.8-.08-1.68-.08-1.91h0a7.93,7.93,0,0,0,1.3,2.35l4.15,5.88c.13.2.2.24.51.24h1.49c.4,0,.47,0,.47-.36Z"/><path class="cls-1" d="M120.12,182.12l3.87,0,1,2.79c.11.31.16.37.38.36h2.52c.23,0,.45,0,.45-.14a1.22,1.22,0,0,0-.09-.27l-4.47-11.14c-.09-.21-.14-.28-.47-.28H121c-.38,0-.41,0-.5.27l-4.37,11.16a1.32,1.32,0,0,0-.09.3c0,.12.16.15.45.15h2.28c.33,0,.38,0,.47-.37Zm3.3-1.58-3,0,1-3a14.36,14.36,0,0,0,.5-2.43h0a20.31,20.31,0,0,0,.5,2.42Z"/><path class="cls-1" d="M151.63,183c-.09-.12-.15-.17-.24-.17a11.17,11.17,0,0,1-2.52.66c-2.32,0-2.8-1.75-2.81-4.7s.83-4,2.76-4c1.2,0,1.94.81,2.32.8.1,0,.18-.07.27-.17l.83-1a.32.32,0,0,0,.11-.26c0-.33-2-1.27-3.69-1.26-3.89,0-5.82,2.36-5.8,6.34,0,4.15,1.93,6.12,5.86,6.1,2.21,0,3.73-.84,3.73-1.13,0-.09,0-.15-.11-.26Z"/><path class="cls-1" d="M171.3,179.73h0l5.2,5.28a.66.66,0,0,0,.39.22,1.37,1.37,0,0,0,.4-.14l1.79-.7c.14-.06.3-.16.3-.21s-.09-.21-.16-.28l-5.32-5,4.77-4.89c.07-.07.16-.11.16-.28s-.16-.15-.3-.21l-1.53-.57a1.32,1.32,0,0,0-.41-.14.63.63,0,0,0-.38.23l-4.92,5.3h0l0-4.85c0-.31-.09-.36-.47-.36H168.7c-.38,0-.48.06-.48.37l.06,11.12c0,.32.1.37.48.37l2.09,0c.38,0,.47,0,.47-.36Z"/><path class="cls-1" d="M224.94,178.6a28.22,28.22,0,0,0-.5,3.27h-.05a24.91,24.91,0,0,0-.64-3.27l-1.63-5.27c-.11-.36-.14-.52-.5-.51h-1.53c-.54,0-.56.16-.67.53l-1.57,5.28a25.2,25.2,0,0,0-.7,3.27h0c-.1-.88-.29-2.31-.51-3.26l-1.39-5.6c-.09-.35-.22-.35-.33-.35l-.34,0-1.76.25c-.17,0-.42.07-.42.18a3.42,3.42,0,0,0,.09.38l3,11c.07.24.16.31.5.31h1.93c.41,0,.41-.05.5-.31l1.79-5.82a15.3,15.3,0,0,0,.54-3h.05a21.58,21.58,0,0,0,.53,3l1.52,5.81c.07.25.09.31.5.31l1.93,0c.34,0,.4-.07.49-.31l3.23-11a1.9,1.9,0,0,0,.11-.38c0-.11-.25-.14-.43-.17l-1.69-.25a1.51,1.51,0,0,0-.34,0c-.11,0-.24,0-.33.35Z"/><path class="cls-1" d="M249.29,183c-1.68,0-2.41-1.68-2.43-4.38s.7-4.42,2.39-4.43,2.41,1.69,2.43,4.4S251,183,249.29,183Zm5.58-4.42c0-4.19-2.17-6.22-5.63-6.2s-5.59,2.05-5.57,6.25,2.15,6.2,5.63,6.18S254.89,182.73,254.87,178.55Z"/><path class="cls-1" d="M274.1,179.43h1.08l3.06,4.64c.23.32.41.53.52.53a1.63,1.63,0,0,0,.31,0l1.89-.43c.23,0,.45-.11.45-.21a.72.72,0,0,0-.18-.33l-3.38-4.6a3.32,3.32,0,0,0,2.55-3.21c0-3.26-3.53-3.33-5.26-3.32l-3.64,0c-.38,0-.47.06-.47.37l.06,11.12c0,.31.09.36.47.36h2.09c.39,0,.48-.05.47-.37Zm0-1.81,0-3.33h.84c1.16,0,2.45,0,2.45,1.55s-1.22,1.77-2.69,1.78Z"/><path class="cls-1" d="M306.83,182.51a1.11,1.11,0,0,0,0-.23c0-.13-.09-.22-.41-.22l-5.42,0-.05-9.42c0-.31-.09-.36-.47-.36l-2.09,0c-.39,0-.48,0-.47.36l.06,11.13c0,.31.09.36.47.36l7.42,0c.34,0,.41,0,.49-.31Z"/><path class="cls-1" d="M325.68,182.14l0-8.12h.81c2.52,0,3.49.84,3.51,3.94,0,3.31-.93,4.16-3.47,4.17Zm-2.59-10c-.41,0-.49.05-.49.36l.06,11.13c0,.29.09.36.47.36l3.44,0c4,0,6.61-1.05,6.59-6,0-4.79-2.29-5.86-6.58-5.83Z"/><path class="cls-4" d="M353.44,91a10.08,10.08,0,1,1-10.08-10.08A10.08,10.08,0,0,1,353.44,91Zm-13.6-5.36H343a7.11,7.11,0,0,1,2.49.27,2.67,2.67,0,0,1-.18,5.16l2.3,4.87h-1.93l-2.11-4.56h-1.95V96h-1.82V85.66Zm1.82,4.43h1.44a3.47,3.47,0,0,0,1.7-.24,1.43,1.43,0,0,0,.78-1.34,1.41,1.41,0,0,0-1.05-1.44,8.68,8.68,0,0,0-1.68-.13h-1.19v3.15Zm1.7-7.77A8.46,8.46,0,0,0,334.8,91a8.56,8.56,0,1,0,17.11,0,8.46,8.46,0,0,0-8.55-8.68Z"/><path class="cls-1" d="M199.72,180.48c.28,0,.33-.09.33-.43v-1.37c0-.34,0-.42-.34-.42l-7.16.05c-.29,0-.33.08-.33.42v1.37c0,.34.05.42.33.42Z"/><rect class="cls-5" x="9.02" width="410.49" height="250.4"/><rect class="cls-5" x="9.02" width="410.49" height="250.4"/><rect class="cls-5" width="427.46" height="253.16"/></svg>