<svg id="Isolation_Mode" data-name="Isolation Mode" xmlns="http://www.w3.org/2000/svg" viewBox="0 0 1036.21 107.2"><defs><style>.cls-1{fill:#fff;}</style></defs><path class="cls-1" d="M100.94,9.19l3.65,5-2.27,1.66-3.81-5.2-3.66,5.2-2.43-1.66,3.59-5L90.15,7.08l.94-2.71L97,6.59V.33h3V6.59l5.87-2.22L107,7.08Z"/><path class="cls-1" d="M142.78,40.35h-5.2V21.92H116.77V40.35h-5.21V.94h5.21V17.38h20.81V.94h5.2Z"/><path class="cls-1" d="M161.54,41.29c-8.42,0-13.45-5.54-13.45-14.84S153.46,11,161.37,11c9.41,0,12.95,7.47,12.95,15.72v.66H152.85l-.06.33c0,6.09,3.38,9.74,8.91,9.74,4.1,0,6.37-1.77,7.69-6.09H174C172.55,37.91,168.29,41.29,161.54,41.29Zm-.28-26.46c-4.59,0-7.8,3.32-8.41,8.69h16.6C169,18.1,166,14.83,161.26,14.83Z"/><path class="cls-1" d="M210.34,40.35V28.67h-6.25l-9,11.68h-6.25l9.85-11.85a8,8,0,0,1-7.09-8.3c0-5.37,3.43-8.41,9-8.41h14.5V40.35ZM202,15.94c-3.87,0-5.64,1.38-5.64,4.26s1.71,4.32,5.64,4.32h8.3V15.94Z"/><path class="cls-1" d="M221,11.79h13.22c5,0,9.8,1.11,9.8,6.92,0,3-1.55,4.92-4.21,6.14v0c3.32.67,5.43,3.21,5.43,7,0,4.87-3.6,8.42-8.69,8.42H221Zm18.15,7.69c0-2.38-1.27-3.65-5.42-3.65h-8.14V23.3h8.14C237.74,23.3,239.12,21.92,239.12,19.48ZM225.56,36.31h10.07a4.46,4.46,0,0,0,4.71-4.76c0-2.61-1.66-4.27-5.54-4.27h-9.24Z"/><path class="cls-1" d="M272.49,40.35h-4.7V15.94H257.6l-.39,12.62C256.94,37.91,253.29,41,249.3,41a9.65,9.65,0,0,1-3.38-.6V36.53a6.59,6.59,0,0,0,2.5.38c1.88,0,4-1.66,4.15-7.85l.49-17.27h19.43Z"/><path class="cls-1" d="M296.23,40.35V28.67H290l-9,11.68H274.7l9.85-11.85a8,8,0,0,1-7.08-8.3c0-5.37,3.43-8.41,9-8.41h14.5V40.35Zm-8.3-24.41c-3.88,0-5.65,1.38-5.65,4.26s1.72,4.32,5.65,4.32h8.3V15.94Z"/><path class="cls-1" d="M318.92,41.29c-8.42,0-13.45-5.54-13.45-14.84S310.84,11,318.75,11c9.41,0,12.95,7.47,12.95,15.72v.66H310.23l-.06.33c0,6.09,3.38,9.74,8.91,9.74,4.1,0,6.37-1.77,7.7-6.09h4.59C329.93,37.91,325.67,41.29,318.92,41.29Zm-.28-26.46c-4.59,0-7.8,3.32-8.41,8.69h16.6C326.39,18.1,323.34,14.83,318.64,14.83Z"/><path class="cls-1" d="M346.2,15.94V40.35h-4.7V15.94H331.26V11.79h25.18v4.15Z"/><path class="cls-1" d="M370.22,41.18c-8.86,0-13.56-6-13.56-14.73C356.66,16.94,362,11,370.38,11c7,0,11.35,3.65,12.12,10.13h-4.87c-.83-4-3.32-6.2-7.19-6.2-5.43,0-8.86,4.31-8.86,11.18s3.21,11.18,8.53,11.18c4.26,0,7.08-2.6,7.8-7.31h4.76C381.84,36.75,377.3,41.18,370.22,41.18Z"/><path class="cls-1" d="M404.58,40.35V28.67h-6.25l-9,11.68h-6.26L392.9,28.5a8,8,0,0,1-7.08-8.3c0-5.37,3.43-8.41,9-8.41h14.5V40.35Zm-8.3-24.41c-3.87,0-5.64,1.38-5.64,4.26s1.71,4.32,5.64,4.32h8.3V15.94Z"/><path class="cls-1" d="M452.78,49.42V40.35H431v9.07h-4.49V36.19h3.1c1.66-3.15,3.6-11.12,3.6-18.31V11.79h20.37v24.4h3.7V49.42Zm-3.93-33.48H437.78v2.38c0,7.14-1.77,14.83-3.32,17.87h14.39Z"/><path class="cls-1" d="M472.2,41.29c-8.41,0-13.44-5.54-13.44-14.84S464.12,11,472,11C481.45,11,485,18.43,485,26.68v.66H463.52l-.06.33c0,6.09,3.38,9.74,8.91,9.74,4.1,0,6.36-1.77,7.69-6.09h4.6C483.22,37.91,479,41.29,472.2,41.29Zm-.27-26.46c-4.6,0-7.81,3.32-8.41,8.69h16.6C479.68,18.1,476.63,14.83,471.93,14.83Z"/><path class="cls-1" d="M515.09,40.35V17.82h-.16l-8.47,22.53h-4.32l-8.47-22.53h-.16V40.35H488.8V11.79h6.76l8.69,23.13h.11L513,11.79h6.76V40.35Z"/><path class="cls-1" d="M551.84,25.9c0,9.69-5,15.33-13.73,15.33s-13.94-5.64-13.94-15S529.53,11,538.17,11,551.84,16.44,551.84,25.9Zm-22.8.17c0,7,3.37,11.18,9.13,11.18C543.7,37.25,547,33,547,26c0-6.81-3.43-11.12-9-11.12S529,19.26,529,26.07Z"/><path class="cls-1" d="M556.32,40.35V11.79H561V23.13H575.3V11.79H580V40.35h-4.7V27.28H561V40.35Z"/><path class="cls-1" d="M598.1,41.18c-8.86,0-13.56-6-13.56-14.73,0-9.51,5.31-15.49,13.72-15.49,7,0,11.35,3.65,12.12,10.13h-4.87c-.83-4-3.32-6.2-7.19-6.2-5.42,0-8.86,4.31-8.86,11.18s3.21,11.18,8.53,11.18c4.26,0,7.08-2.6,7.8-7.31h4.76C609.72,36.75,605.18,41.18,598.1,41.18Z"/><path class="cls-1" d="M626.21,15.94V40.35h-4.7V15.94H611.27V11.79h25.18v4.15Z"/><path class="cls-1" d="M643.53,15.83c2.21-3.54,5.42-4.93,9.63-4.93,8,0,13,5.76,13,15s-5,15.16-12.79,15.16c-4.21,0-7.14-1.38-9.57-4.7v15H639.1V11.79h4.43ZM643.64,26c0,6.91,3.43,11.12,9,11.12,5.36,0,8.68-4.26,8.68-11.12S658,14.83,652.44,14.83,643.64,19,643.64,26Z"/><path class="cls-1" d="M696.1,40.23a9,9,0,0,1-3.21.56c-2.65,0-4.09-1.5-4.15-4.21a12.69,12.69,0,0,1-10.35,4.54c-5.64,0-9.13-3.1-9.13-8.08s3.38-8.08,10.13-8.91,9.13-.66,9.13-4.54c0-3-2.27-4.7-6.47-4.7-4.38,0-6.64,1.6-7.09,5.81h-4.59c.17-6.09,4.59-9.69,12-9.69,3.82,0,7.09,1,9,2.77,2,1.94,1.94,4.87,1.94,7.42,0,4.26-.23,8.46-.23,12.73,0,2.1.5,2.82,1.94,2.82a4.52,4.52,0,0,0,1.16-.17Zm-13.89-13c-3.43.44-8.08.83-8.08,5.42,0,2.94,2.16,4.76,5.7,4.76,4.43,0,8.69-3,8.69-6.69V25.51C686.75,26.84,684.32,27,682.21,27.23Z"/><path class="cls-1" d="M722.11,40.35H699.42V11.79h4.71v24.4h14V11.79h4.71v24.4h3.7V49.42h-4.48Z"/><path class="cls-1" d="M729.86,40.35V11.79h4.7v23.3h.11l12.84-23.3h6V40.35h-4.7V17.05h-.11l-12.84,23.3Z"/><path class="cls-1" d="M771.47,41.29c-8.41,0-13.45-5.54-13.45-14.84S763.39,11,771.31,11c9.4,0,13,7.47,13,15.72v.66H762.78l0,.33c0,6.09,3.37,9.74,8.91,9.74,4.09,0,6.36-1.77,7.69-6.09h4.59C782.49,37.91,778.22,41.29,771.47,41.29Zm-.27-26.46c-4.6,0-7.81,3.32-8.42,8.69h16.61C778.94,18.1,775.9,14.83,771.2,14.83Z"/><path class="cls-1" d="M788.13,40.35V11.79h4.7v23.3h.11l12.84-23.3h6V40.35h-4.71V17.05H807l-12.84,23.3ZM800,8.58A8.31,8.31,0,0,1,791.61.94h2.83A5.52,5.52,0,0,0,800,5.26c2.88,0,4.65-1.66,5.54-4.32h2.82C807.61,5.37,804.84,8.58,800,8.58Z"/><path class="cls-1" d="M844.19,41.18c-8.86,0-13.56-6-13.56-14.73,0-9.51,5.31-15.49,13.72-15.49,7,0,11.35,3.65,12.12,10.13H851.6c-.83-4-3.32-6.2-7.19-6.2-5.42,0-8.86,4.31-8.86,11.18s3.21,11.18,8.53,11.18c4.26,0,7.08-2.6,7.8-7.31h4.76C855.81,36.75,851.27,41.18,844.19,41.18Z"/><path class="cls-1" d="M860.68,40.35V11.79h23.68V40.35h-4.7V15.94H865.38V40.35Z"/><path class="cls-1" d="M916.52,25.9c0,9.69-5,15.33-13.73,15.33s-13.95-5.64-13.95-15S894.21,11,902.85,11,916.52,16.44,916.52,25.9Zm-22.81.17c0,7,3.38,11.18,9.14,11.18,5.53,0,8.85-4.21,8.85-11.24,0-6.81-3.43-11.12-9-11.12S893.71,19.26,893.71,26.07Z"/><path class="cls-1" d="M933.12,41.18c-8.86,0-13.56-6-13.56-14.73,0-9.51,5.31-15.49,13.72-15.49,7,0,11.35,3.65,12.12,10.13h-4.87c-.83-4-3.32-6.2-7.19-6.2-5.43,0-8.86,4.31-8.86,11.18s3.21,11.18,8.52,11.18c4.27,0,7.09-2.6,7.81-7.31h4.76C944.74,36.75,940.2,41.18,933.12,41.18Z"/><path class="cls-1" d="M975.78,25.9c0,9.69-5,15.33-13.72,15.33s-13.95-5.64-13.95-15S953.48,11,962.11,11,975.78,16.44,975.78,25.9Zm-22.8.17c0,7,3.38,11.18,9.13,11.18C967.65,37.25,971,33,971,26c0-6.81-3.43-11.12-9-11.12S953,19.26,953,26.07Z"/><path class="cls-1" d="M994.21,1.77c3.6-.28,5.81-.33,6.58-1.77h4.71c-1,5.87-7,5.76-12,6.14-6.25.45-9.46,5.26-10.29,12h.17a10.62,10.62,0,0,1,10-6.47c8,0,13,5.31,13,14.61,0,9.52-4.93,15-13.39,15-6.7,0-12.07-4-13.23-11.9a37.6,37.6,0,0,1-.33-5.2c0-5.48.66-12.13,3.43-16.39C985.46,3.87,988.79,2.16,994.21,1.77ZM993.1,37.3c5.26,0,8.53-4,8.53-10.9,0-6.7-3.33-10.79-8.64-10.79s-8.69,4.15-8.69,10.84C984.3,32.87,987.57,37.3,993.1,37.3Z"/><path class="cls-1" d="M1036.21,40.23a9.08,9.08,0,0,1-3.21.56c-2.66,0-4.09-1.5-4.15-4.21a12.69,12.69,0,0,1-10.35,4.54c-5.64,0-9.13-3.1-9.13-8.08s3.38-8.08,10.13-8.91,9.13-.66,9.13-4.54c0-3-2.27-4.7-6.48-4.7-4.37,0-6.64,1.6-7.08,5.81h-4.59c.16-6.09,4.59-9.69,11.95-9.69,3.82,0,7.08,1,9,2.77,2,1.94,1.93,4.87,1.93,7.42,0,4.26-.22,8.46-.22,12.73,0,2.1.5,2.82,1.94,2.82a4.58,4.58,0,0,0,1.16-.17Zm-13.89-13c-3.43.44-8.08.83-8.08,5.42,0,2.94,2.16,4.76,5.7,4.76,4.43,0,8.69-3,8.69-6.69V25.51C1026.86,26.84,1024.42,27,1022.32,27.23Z"/><path class="cls-1" d="M0,95.68V67.13H4.7v23.3h.11l12.84-23.3h6V95.68H19V72.38h-.11L6,95.68Z"/><path class="cls-1" d="M40.12,66.3C46,66.3,50.86,68.68,50.86,74a6.07,6.07,0,0,1-4.59,6v.11a6.76,6.76,0,0,1,5.53,7.09c0,6.2-5.81,9.35-11.84,9.35-7.48,0-12.07-3.6-12.4-9.8h4.76c.28,4.1,3.37,6,7.58,6,4.48,0,7-2.49,7-5.42s-1.72-4.65-6.09-4.65H36.91V78.86h3.16c3.32,0,6-1.27,6-4.65,0-2.1-2.16-4.09-6-4.09-3.38,0-6.87,1.38-7.25,5.25H28.06C28.5,68.34,34.37,66.3,40.12,66.3Z"/><path class="cls-1" d="M61,71.28v24.4H56.33V67.13h19.6v4.15Z"/><path class="cls-1" d="M103.21,81.24c0,9.68-5,15.33-13.73,15.33s-13.94-5.65-13.94-15,5.37-15.22,14-15.22S103.21,71.78,103.21,81.24Zm-22.8.17c0,7,3.37,11.18,9.13,11.18,5.53,0,8.85-4.21,8.85-11.24,0-6.81-3.43-11.12-9-11.12S80.41,74.6,80.41,81.41Z"/><path class="cls-1" d="M118.32,71.28v24.4h-4.71V71.28H103.37V67.13h25.18v4.15Z"/><path class="cls-1" d="M156.39,81.24c0,9.68-5,15.33-13.72,15.33s-13.95-5.65-13.95-15,5.37-15.22,14-15.22S156.39,71.78,156.39,81.24Zm-22.8.17c0,7,3.38,11.18,9.13,11.18,5.54,0,8.86-4.21,8.86-11.24,0-6.81-3.43-11.12-9-11.12S133.59,74.6,133.59,81.41Z"/><path class="cls-1" d="M160.76,67.13H174c5,0,9.79,1.1,9.79,6.92,0,3-1.55,4.92-4.2,6.14v0c3.32.67,5.42,3.21,5.42,7,0,4.87-3.6,8.41-8.69,8.41H160.76Zm18.15,7.69c0-2.38-1.27-3.65-5.42-3.65h-8.14v7.47h8.14C177.53,78.64,178.91,77.26,178.91,74.82ZM165.35,91.64h10.08a4.45,4.45,0,0,0,4.7-4.76c0-2.6-1.66-4.26-5.53-4.26h-9.25Z"/><path class="cls-1" d="M212.28,95.68h-4.7V71.28H197.39L197,83.9c-.28,9.35-3.93,12.39-7.92,12.39a9.33,9.33,0,0,1-3.37-.61V91.87a6.54,6.54,0,0,0,2.49.38c1.88,0,4-1.66,4.15-7.86l.5-17.26h19.42Z"/><path class="cls-1" d="M230.1,96.63c-8.41,0-13.45-5.54-13.45-14.84S222,66.3,229.93,66.3c9.41,0,12.95,7.47,12.95,15.71v.67H221.41l0,.33c0,6.09,3.37,9.74,8.91,9.74,4.09,0,6.36-1.77,7.69-6.09h4.59C241.11,93.25,236.85,96.63,230.1,96.63Zm-.28-26.46c-4.59,0-7.8,3.32-8.41,8.69H238C237.57,73.44,234.53,70.17,229.82,70.17Z"/><path class="cls-1" d="M246.76,95.68V67.13h4.7V78.47h14.28V67.13h4.7V95.68h-4.7V82.62H251.46V95.68Z"/><path class="cls-1" d="M276.42,95.68V67.13h4.7v23.3h.11l12.84-23.3h6V95.68h-4.7V72.38h-.11l-12.84,23.3Z"/><path class="cls-1" d="M324,95.68V84H317.7l-9,11.67h-6.25l9.85-11.84a8,8,0,0,1-7.09-8.3c0-5.37,3.44-8.41,9-8.41h14.5V95.68Zm-8.31-24.4c-3.87,0-5.64,1.38-5.64,4.26s1.71,4.32,5.64,4.32H324V71.28Z"/><path class="cls-1" d="M366.34,95.68V83.07a48.67,48.67,0,0,1-8.85,1.27c-5.7,0-9.3-2.66-9.3-8.19v-9h4.71v8.24c0,3.66,2,5,5.47,5a35.66,35.66,0,0,0,8-1.27v-12h4.71V95.68Z"/><path class="cls-1" d="M377,95.68V67.13h4.71v23.3h.11l12.84-23.3h6V95.68H396V72.38h-.11l-12.84,23.3Z"/><path class="cls-1" d="M406.68,95.68V67.13h23.69V95.68h-4.7V71.28H411.39v24.4Z"/><path class="cls-1" d="M448.47,96.51c-8.86,0-13.56-6-13.56-14.72,0-9.52,5.31-15.49,13.72-15.49,7,0,11.35,3.65,12.12,10.12h-4.87c-.83-4-3.32-6.19-7.19-6.19-5.43,0-8.86,4.31-8.86,11.18s3.21,11.18,8.53,11.18c4.26,0,7.08-2.61,7.8-7.31h4.76C460.09,92.09,455.55,96.51,448.47,96.51Z"/><path class="cls-1" d="M491.13,81.24c0,9.68-5,15.33-13.72,15.33s-14-5.65-14-15,5.37-15.22,14-15.22S491.13,71.78,491.13,81.24Zm-22.8.17c0,7,3.38,11.18,9.13,11.18,5.54,0,8.86-4.21,8.86-11.24,0-6.81-3.43-11.12-9-11.12S468.33,74.6,468.33,81.41Z"/><path class="cls-1" d="M495.5,67.13h13.23c5,0,9.79,1.1,9.79,6.92,0,3-1.55,4.92-4.2,6.14v0c3.32.67,5.42,3.21,5.42,7,0,4.87-3.6,8.41-8.69,8.41H495.5Zm18.15,7.69c0-2.38-1.27-3.65-5.42-3.65h-8.14v7.47h8.14C512.27,78.64,513.65,77.26,513.65,74.82ZM500.09,91.64h10.08a4.45,4.45,0,0,0,4.7-4.76c0-2.6-1.66-4.26-5.53-4.26h-9.25Z"/><path class="cls-1" d="M544.81,56.28l20.81,32v-32h5v39.4h-5.86l-20.7-31.6v31.6h-5V56.28Z"/><path class="cls-1" d="M602.64,95.57a9.08,9.08,0,0,1-3.21.56c-2.66,0-4.1-1.5-4.15-4.21a12.69,12.69,0,0,1-10.35,4.54c-5.65,0-9.13-3.1-9.13-8.08s3.37-8.08,10.12-8.91,9.14-.67,9.14-4.54c0-3-2.27-4.7-6.48-4.7-4.37,0-6.64,1.6-7.08,5.81h-4.6c.17-6.09,4.6-9.69,12-9.69,3.82,0,7.08,1,9,2.77,2,1.94,1.94,4.87,1.94,7.42,0,4.26-.22,8.46-.22,12.72,0,2.11.5,2.83,1.94,2.83a4.58,4.58,0,0,0,1.16-.17Zm-13.89-13c-3.43.44-8.08.83-8.08,5.42,0,2.93,2.16,4.76,5.7,4.76,4.42,0,8.69-3,8.69-6.7v-5.2C593.29,82.18,590.85,82.29,588.75,82.57Z"/><path class="cls-1" d="M618.19,71h-5.7V87.66c0,2.6-.17,4.21,3.15,4.21a20.6,20.6,0,0,0,2.55-.17v4a25.68,25.68,0,0,1-3.6.22c-7.14,0-6.81-3.54-6.81-9.79V71H603V67.13h4.81V58.66h4.71v8.47h5.7Z"/><path class="cls-1" d="M646,95.68h-4.38V91.2a11.17,11.17,0,0,1-9.85,5.26c-6,0-9.52-3.38-9.52-9.69V67.13h4.71V85.5c0,4.1,1.16,6.86,6,6.86,6.19,0,8.35-4.42,8.35-10.29V67.13H646Z"/><path class="cls-1" d="M666.83,71.33a10,10,0,0,0-1.22,0c-7.75,0-9.13,5.92-9.13,12.34V95.68h-4.7V67.13h4.48v6.14c2-4.81,5.48-6.81,10.57-6.81Z"/><path class="cls-1" d="M694.55,95.57a9,9,0,0,1-3.21.56c-2.65,0-4.09-1.5-4.15-4.21a12.69,12.69,0,0,1-10.35,4.54c-5.64,0-9.13-3.1-9.13-8.08s3.38-8.08,10.13-8.91S687,78.8,687,74.93c0-3-2.27-4.7-6.47-4.7-4.37,0-6.64,1.6-7.09,5.81h-4.59c.17-6.09,4.59-9.69,11.95-9.69,3.82,0,7.09,1,9,2.77,2,1.94,1.94,4.87,1.94,7.42,0,4.26-.22,8.46-.22,12.72,0,2.11.49,2.83,1.93,2.83a4.52,4.52,0,0,0,1.16-.17Zm-13.89-13c-3.43.44-8.08.83-8.08,5.42,0,2.93,2.16,4.76,5.7,4.76,4.43,0,8.69-3,8.69-6.7v-5.2C685.2,82.18,682.77,82.29,680.66,82.57Z"/><path class="cls-1" d="M702.85,95.68h-4.76V56.28h4.76Z"/><path class="cls-1" d="M725.54,75.43c-.33-3.76-2.93-5.2-7-5.2-3.6,0-5.81,1.49-5.81,3.87,0,3.21,3.71,3.71,7.58,4.59,4.82,1.11,11.07,2.49,11.07,8.69,0,5.54-4.71,9.19-11.84,9.19-7.75,0-12-3.49-12.29-9.91h4.65c.27,4.32,3.21,6,7.75,6,4.2,0,7-1.89,7-4.76,0-3.16-3.21-3.82-7.2-4.82-4.92-1.22-11.51-1.82-11.51-8.41,0-5.15,4.26-8.41,10.91-8.41,6.42,0,11.4,3.1,11.4,9.13Z"/><path class="cls-1" d="M742.81,95.68h-6.15V89.54h6.15Z"/><path class="cls-1" d="M772.75,64.53l3.65,5-2.27,1.66L770.31,66l-3.65,5.21-2.44-1.66,3.6-5L762,62.42l.94-2.71,5.93,2.21V55.67h3v6.25l5.87-2.21,1.11,2.71Z"/><path class="cls-1" d="M791.12,64.53l3.65,5-2.27,1.66L788.68,66,785,71.17l-2.44-1.66,3.6-5-5.86-2.11.94-2.71,5.92,2.21V55.67h3v6.25L796,59.71l1.11,2.71Z"/><path class="cls-1" d="M833,95.68h-5.21V77.26H806.94V95.68h-5.2V56.28h5.2V72.72h20.81V56.28H833Z"/><path class="cls-1" d="M850.27,96.51c-6.86,0-11.34-4.15-12.34-10.57h4.76c.89,4.27,3.65,6.65,7.69,6.65,5,0,8.14-3.71,8.47-9.91h-12V78.86h11.84c-.77-5.37-4-8.63-8.69-8.63a6.7,6.7,0,0,0-6.92,5.2h-5c1.05-5.87,5.37-9.13,12-9.13,8.41,0,13.72,6,13.72,15.49C863.83,90.48,859.13,96.51,850.27,96.51Z"/><path class="cls-1" d="M885.75,95.68V83.07a48.94,48.94,0,0,1-8.86,1.27c-5.7,0-9.3-2.66-9.3-8.19v-9h4.71v8.24c0,3.66,2,5,5.48,5a35.87,35.87,0,0,0,8-1.27v-12h4.7V95.68Z"/><path class="cls-1" d="M907.82,99.34c-1.54,4-3.15,7.86-8.24,7.86a15.08,15.08,0,0,1-3.49-.5v-4.21a10.46,10.46,0,0,0,3,.61,3.67,3.67,0,0,0,3.32-2.38l2.21-5.2L893.32,67.13h5.32l8.47,22.74,8-22.74h4.93Z"/><path class="cls-1" d="M927.41,71.17c2.22-3.54,5.43-4.93,9.63-4.93,8,0,13,5.76,13,15s-5,15.16-12.79,15.16c-4.2,0-7.13-1.38-9.57-4.7v15H923V67.13h4.42Zm.11,10.13c0,6.91,3.44,11.12,9,11.12,5.37,0,8.69-4.26,8.69-11.12s-3.32-11.13-8.86-11.13S927.52,74.38,927.52,81.3Z"/><path class="cls-1" d="M980,95.57a9.08,9.08,0,0,1-3.21.56c-2.66,0-4.1-1.5-4.15-4.21a12.7,12.7,0,0,1-10.35,4.54c-5.65,0-9.13-3.1-9.13-8.08s3.37-8.08,10.12-8.91,9.14-.67,9.14-4.54c0-3-2.27-4.7-6.48-4.7-4.37,0-6.64,1.6-7.08,5.81h-4.6c.17-6.09,4.6-9.69,12-9.69,3.82,0,7.08,1,9,2.77,2,1.94,1.94,4.87,1.94,7.42,0,4.26-.22,8.46-.22,12.72,0,2.11.5,2.83,1.94,2.83a4.58,4.58,0,0,0,1.16-.17Zm-13.89-13C962.67,83,958,83.4,958,88c0,2.93,2.15,4.76,5.7,4.76,4.42,0,8.69-3,8.69-6.7v-5.2C970.63,82.18,968.2,82.29,966.1,82.57Z"/><path class="cls-1" d="M1007.1,95.68h-4.7V71.28H992.21l-.38,12.62c-.28,9.35-3.93,12.39-7.92,12.39a9.33,9.33,0,0,1-3.37-.61V91.87a6.54,6.54,0,0,0,2.49.38c1.88,0,4-1.66,4.15-7.86l.5-17.26h19.42Z"/><path class="cls-1" d="M1023.43,66.3c5.86,0,10.73,2.38,10.73,7.69a6.07,6.07,0,0,1-4.59,6v.11a6.75,6.75,0,0,1,5.53,7.09c0,6.2-5.81,9.35-11.84,9.35-7.47,0-12.06-3.6-12.4-9.8h4.76c.28,4.1,3.38,6,7.58,6,4.49,0,7-2.49,7-5.42s-1.71-4.65-6.08-4.65h-3.93V78.86h3.15c3.32,0,6-1.27,6-4.65,0-2.1-2.16-4.09-6-4.09-3.38,0-6.86,1.38-7.25,5.25h-4.76C1011.8,68.34,1017.67,66.3,1023.43,66.3Z"/></svg>