<svg version="1.1" xmlns="http://www.w3.org/2000/svg" width="32" height="32" viewBox="0 0 32 32"><path fill="#fff" d="M16 0.3c-8.6 0-15.7 7.1-15.7 15.7s7 15.7 15.7 15.7 15.7-7 15.7-15.7-7.1-15.7-15.7-15.7zM16 30.1c-7.8 0-14.1-6.3-14.1-14.1s6.3-14.1 14.1-14.1 14.1 6.3 14.1 14.1-6.3 14.1-14.1 14.1zM28.2 18.1v1.4h-4.4v-6.9h1.6v5.5h2.8zM7.7 19.4c1.6 0 3-1.1 3.3-2.6l3.9 3 3.9-3v2.6h4.4v-1.4h-2.9v-5.5h-1.6v2.6l-3.7 3-0.8-0.7 1.8-1.4 1.9-1.5-1.1-0.9-3.7 2.9-0.8-0.7 3.7-2.8-1.1-0.9-3.9 3c-0.4-1.5-1.7-2.6-3.3-2.6h-2.8v6.9c0 0 2.8 0 2.8 0zM6.4 18.1v-4.2h1.2c1 0 1.9 0.9 1.9 2.1 0 1.1-0.8 2.1-1.9 2.1 0 0-1.2 0-1.2 0z"></path></svg>