<svg xmlns="http://www.w3.org/2000/svg" viewBox="0 0 622.92 225.77"><defs><style>.cls-1{fill:#f8f8f8;}</style></defs><g id="Слой_2" data-name="Слой 2"><g id="Слой_17_Image" data-name="Слой 17 Image"><path class="cls-1" d="M428.26,143.61c2.12-1.32,3.85-2.25,5.43-3.4,10.47-7.66,19.47-16.91,28.28-26.35a7.22,7.22,0,0,0,1.23-2.66c3.67-10.89,7-21.89,11.1-32.63,1.77-4.68,4.91-8.85,7.46-13.23,1.5-2.56,4.08-2.91,6.69-3.15,4.3-.4,8.6-1.09,12.9-1.13a63.53,63.53,0,0,1,10.81,1.12,2.9,2.9,0,0,1,1.58,2.32A21.76,21.76,0,0,1,512.29,71c-11.08,25.26-17.34,51.92-22.87,78.78-.43,2.11-.6,4.26-1,7,.91-1,1.41-1.44,1.85-2,4.6-5.59,9.23-11.15,13.74-16.82a10.33,10.33,0,0,0,1.61-3.82c2.91-11.52,6.82-22.65,13-32.89a104,104,0,0,1,27.78-30.08c5.3-3.93,11.4-4.42,17.52-4.73a112.9,112.9,0,0,1,12.86.47c2.45.15,3.5,2.16,2.72,5.29a30.11,30.11,0,0,1-1.76,4.26c2.58-.18,5.12-.33,7.65-.54a49.93,49.93,0,0,1,24.15,3.71c9,3.86,13,11.26,13.37,20.79.4,10.22-2.22,19.74-6.66,28.88-9.44,19.44-22.16,36.57-37,52.13-6.37,6.68-13,13.15-21.23,17.69a30.11,30.11,0,0,1-25.86,2.31c-8.08-2.78-14.4-7.64-20.32-13.15s-8.59-12.93-9.31-21.49c-1.59,1.46-2.86,2.81-4.31,3.93a112.89,112.89,0,0,1-10.26,7.48c-7.65,4.59-18.49,1.09-22.59-4.66-3.59-5-6.65-10.62-6.69-17.12s.25-12.77.4-19.16c0-1,.13-2,.22-3.4-2.64,2.22-4.83,4.38-7.33,6.08a128.71,128.71,0,0,1-14.13,8.83c-2.61,1.32-5.92,1.42-8.95,1.67-1.7.14-2.42.48-2.77,2.26-2.75,13.8-5.77,27.55-8.35,41.38-1,5.5-3.52,9.82-8.1,12.74-1.92,1.22-4.61,2.27-6.71,1.93-3.51-.57-6.83-2.32-10.23-3.57a1,1,0,0,1-.21-.14c-8.48-5.22-7.39-4.39-5.6-13.61,3.36-17.32,7.26-34.55,10.86-51.83a5.4,5.4,0,0,0-.38-3.22c-2.15-4.41-2.66-8.9-.07-13.14,2-3.28,4.7-6.14,7-9.24a8,8,0,0,0,1-2.25c4.12-12.58,8-25.25,12.44-37.71,2.88-8,6.66-15.77,10-23.64a5.27,5.27,0,0,1,4.83-3.34c4.22-.36,8.43-1,12.65-1.17a40.84,40.84,0,0,1,8.36.91A2.43,2.43,0,0,1,455,48.74a12.12,12.12,0,0,1-.77,4.11c-10.55,28.74-18.63,58.2-25.52,88C428.55,141.55,428.48,142.27,428.26,143.61ZM560.58,91.29a10,10,0,0,0-.84,1c-6.5,10.87-12.69,21.87-16.23,34.17-4,13.92-7.19,27.92-4.91,42.52.46,2.94,1.66,5.77,2.62,9,1.06-.79,1.54-1.09,2-1.48C560.05,161,573.73,143.11,582.69,122c2.83-6.68,4.48-13.91,6.13-21a16.07,16.07,0,0,0-1.77-12.08c-.9-1.49-2-2.29-3.64-1.82-2.46.71-5.11,1.22-7.24,2.53C571.14,92.65,566.12,94.36,560.58,91.29Z"/><path class="cls-1" d="M95,152.65c2-5.52,4.1-11,6.13-16.56,8.56-23.29,16.6-46.77,27.29-69.22,9.1-19.11,20-37,34-53.08,3.9-4.47,8.15-5.87,13.59-5.08,1.47.22,2.9.77,4.37.94,2.83.32,3.78,2.12,3.27,4.54a88.9,88.9,0,0,1-3.18,12.28A482,482,0,0,0,160,100.52a529.08,529.08,0,0,0-8,60.55c-1,13.43-2.27,26.84-3.38,40.25-.18,2.08-.24,4.16-.27,6.24a4.23,4.23,0,0,0,.37,2.17c2.33,3.89,1.46,7.91-2.33,10.6-1.31.93-2.5,2-3.77,3-3.79,3-7.74,2.86-12.16,1.22s-8-4.55-11.62-7.52a11.48,11.48,0,0,1-4.58-9.76c.26-7,.49-13.95,1.12-20.9a473.49,473.49,0,0,1,11.37-69.32c3.77-15.59,8.42-31,13-46.42-1,2-1.93,4-2.86,6s-2,4.22-2.83,6.4q-12.21,32.21-24.37,64.45c-2.56,6.77-5,13.58-7.7,20.31a14.47,14.47,0,0,1-3.28,5.21c-4.92,4.54-12,3.11-15.48-3.41a38.59,38.59,0,0,1-3.5-10.83,131.67,131.67,0,0,1-1.16-39.33C81,97.3,83.73,75.14,86.29,53.43c-.7,1.38-1.71,3.31-2.67,5.26-15.77,32.17-27.92,65.71-38,100.05-3.85,13.19-7.6,26.4-11.43,39.59-.71,2.46-1.61,4.72-4.18,6.08-1.5.79-2.54,2.43-3.86,3.6-3.33,3-7.35,3-11.6,1.4-5.07-1.89-8.59-5.52-12.3-9.06A6.52,6.52,0,0,1,.42,193c5.71-18.88,11-37.9,16.77-56.75a563.39,563.39,0,0,1,33-83.8c7.15-14.5,14.87-28.71,25.11-41.33a81.47,81.47,0,0,1,8-8.16C86.09.39,89.54-.14,93.14,0c4.63.21,9.3.07,13.89.64a85.06,85.06,0,0,1,12.23,2.77c1.85.51,2,2.35,1.63,4-1.26,5.42-2.42,10.89-4,16.22-9.39,31.82-16.87,64.06-21,97-1.21,9.54-1.21,19.24-1.71,28.86a18.38,18.38,0,0,0,.34,3.12Z"/><path class="cls-1" d="M320.41,170c-1.51,15.53-3.12,20.1-3.12,20.1a44.4,44.4,0,0,1-1.61,5.93,7.37,7.37,0,0,1-6.23,5.14c-5.37.71-10-1.17-14.07-4.48-2.57-2.09-1.92-5.22-2.1-8.09,0-11,.8-10.54,1-13.17a48.79,48.79,0,0,1,1.32-9.52c-.75.6-5.78,5.08-6.47,5.6-9.84,7.54-19.67,15.11-29.54,22.61-6.52,5-13.25,3.63-20,.41-1.65-.8-3.27-1.66-4.83-2.61s-2-2.13-.33-3.68c6.51-6,12.86-12.1,19.37-18.05C267.19,158,280.63,145.87,294,133.67a3,3,0,0,0,.75-2.66c-5.77-15-8.45-30.73-12.18-46.22-1.94-8.08-4.1-16.1-6.35-24.09-1.08-3.84-2.9-7.29-7.08-8.78-.65-.23-1.14-.88-2.07-1.63,1.07-.55,1.79-1.22,2.56-1.27,5.61-.38,11.23-.92,16.84-.86s9.45,3.73,13,7.52c6.13,6.52,9.33,14.69,12.46,22.87,1.54,4,2.95,8.11,4.68,12.88,1.16-4.24,2-7.84,3.13-11.36C322,73,324.24,66,326.67,59a16.76,16.76,0,0,1,2.85-5,11.64,11.64,0,0,1,3.39-2.27,18.64,18.64,0,0,1,4-2,18.11,18.11,0,0,1,5.36-.82c4.69.07,9.38.3,14.07.6,3,.2,3.7,1.71,2.36,4.66-2.9,6.37-5.92,12.68-8.71,19.09S344.48,86.43,341.76,93l.56.4c3.94-3,7.76-6.08,11.85-8.8,8.72-5.79,17.51-11.49,26.44-17,4.45-2.72,9.73-2.61,14.77-3.1a76.89,76.89,0,0,1,8.68-.69,62.74,62.74,0,0,1,9.36,1c2.08.37,1.78,2.07.93,3.28a17.29,17.29,0,0,1-3.49,3.45C396.13,82.91,381.24,94,366.65,105.48c-9.1,7.15-17.77,14.86-26.67,22.26a2.48,2.48,0,0,0-.9,3.36c6.17,15.32,13,30.31,21.51,44.49a128.8,128.8,0,0,0,8.88,13c2.38,3.05.83,6.54-2.18,8.27a43.82,43.82,0,0,0-5.06,4,12.84,12.84,0,0,1-16.39-.15,97.43,97.43,0,0,1-24.47-29.33C321.18,171.05,320.93,170.74,320.41,170Z"/><path class="cls-1" d="M239,65.46A41,41,0,0,1,262.68,67c6.23,2.39,8.13,7.81,8.33,13.85.33,10.68-2.08,21-4.93,31.18a210.57,210.57,0,0,1-31.67,66.63,67.88,67.88,0,0,1-25.91,22.17c-7.09,3.41-14.48,4.5-22,1.62a43,43,0,0,1-15.91-10.83c-4.56-4.77-7.4-10.13-7.85-16.52a108.79,108.79,0,0,1,.05-18.14c2.24-22.55,9.64-43.47,21.3-62.82,5.81-9.65,13.25-18.09,21-26.27,5.93-6.25,12.93-7.61,20.89-6.47,3.24.46,6.48,1,9.66,1.83C236.72,63.44,237.59,64.45,239,65.46ZM197.12,178.53l.74.44c3.22-3.34,6.56-6.57,9.63-10A203.46,203.46,0,0,0,239,120.22c5.6-11.94,10.26-24.23,12.42-37.32.57-3.46.79-6.92-.48-10.44a11.48,11.48,0,0,0-2,.47c-12.91,5.64-24.45,12.51-31.26,26-9.87,19.51-18.66,39.23-20.76,61.32C196.3,166.34,195.74,172.45,197.12,178.53Z"/></g></g></svg>