<svg xmlns="http://www.w3.org/2000/svg" viewBox="0 0 538.58 382.68"><polygon points="305.42 163.763 306.596 163.763 306.655 163.704 305.655 153.591 305.596 153.532 305.302 153.532 305.243 153.591 304.185 163.704 304.244 163.763 305.42 163.763" style="fill:#1a1a18"/><polygon points="311.123 164.41 311.182 164.351 312.887 155.296 312.828 155.237 312.534 155.179 312.476 155.237 308.713 163.822 308.771 163.881 311.123 164.41" style="fill:#1a1a18"/><path d="M309.359,168.291a1.382,1.382,0,1,0-1.411-1.412A1.382,1.382,0,0,0,309.359,168.291Z" style="fill:#1a1a18"/><path d="M305.42,167.879a1.382,1.382,0,1,0-1.411-1.411A1.381,1.381,0,0,0,305.42,167.879Z" style="fill:#1a1a18"/><polygon points="299.716 164.41 302.068 163.881 302.127 163.822 298.364 155.237 298.305 155.179 298.011 155.237 297.953 155.296 299.658 164.351 299.716 164.41" style="fill:#1a1a18"/><path d="M300.069,166.879a1.382,1.382,0,1,0,2.764,0,1.382,1.382,0,0,0-2.764,0Z" style="fill:#1a1a18"/><path d="M139.613,170.819h-12l-.059.059s.294,2.881.294,7.879V204.04c0,5-.294,7.879-.294,7.879l.059.059H135.5l.059-.059s-.294-2.881-.294-7.879v-7.409l.058-.058c1.059.117,3.469.235,4.293.235,8.114,0,15.052-4.939,15.052-13.289C154.665,175.405,147.668,170.819,139.613,170.819Zm-.353,19.227a30.539,30.539,0,0,1-4-.294V177.581h4.586c4.057,0,7.291,1.646,7.291,5.938C147.139,187.694,144.316,190.046,139.26,190.046Z" style="fill:#1a1a18"/><path d="M177.17,174.17a22.681,22.681,0,0,1-1.176-3.292l-.058-.059h-6.409l-.059.059a17.908,17.908,0,0,1-1.117,3.292l-13.877,33.4a20.97,20.97,0,0,1-2.352,4.351v.059h8.114l.059-.059a14.3,14.3,0,0,1,1.176-3.7L164,201.923h17.875l2.705,6.292c.882,2.41,1.411,3.7,1.411,3.7l.059.059h8.114v-.059a31.269,31.269,0,0,1-2.352-4.351Zm-10.407,20.991,5.821-14.523h.059l6.291,14.523Z" style="fill:#1a1a18"/><path d="M234.778,170.878l-.059-.059h-7.173l-.059.059s.294,2.881.294,7.879v20.7h-.058L205.5,170.819h-7.879l-.059.059a11.267,11.267,0,0,1,1.352,4.057v29.1c0,5-.294,7.879-.294,7.879l.059.059h7.174l.058-.059s-.294-2.881-.294-7.879V182.931h.059l22.344,29.047h6.7l.059-.059s-.294-2.881-.294-7.879V178.757C234.484,173.759,234.778,170.878,234.778,170.878Z" style="fill:#1a1a18"/><path d="M257.121,170.819H243.363l-.059.059s.294,2.881.294,7.879V204.04c0,5-.294,7.879-.294,7.879l.059.059H247.6c2.782,0,5.88.352,9.408.352,12.641,0,21.579-8.937,21.579-20.873C278.583,179.4,269.822,170.819,257.121,170.819Zm-.47,34.75a21.73,21.73,0,0,1-4.88-.353c-.647-.177-.765-.412-.765-1.529V177.522h5.469c8.878,0,14.581,6,14.581,13.994C271.056,199.454,265.353,205.569,256.651,205.569Z" style="fill:#1a1a18"/><path d="M305.42,170.231a21.109,21.109,0,1,0,21.108,21.109A20.8,20.8,0,0,0,305.42,170.231Zm0,35.455c-7.644,0-13.582-6.232-13.582-14.346s5.938-14.347,13.582-14.347c7.7,0,13.641,6.232,13.641,14.347S313.123,205.686,305.42,205.686Z" style="fill:#1a1a18"/><path d="M355.871,197.984a7.381,7.381,0,0,0-4.057-3.352v-.059c4.293-.94,8.291-5.938,8.291-10.936,0-6.821-5.233-12.818-13.289-12.818h-13.17l-.059.059s.294,2.881.294,7.879V204.04c0,5-.294,7.879-.294,7.879l.059.059h7.879l.059-.059s-.294-2.881-.294-7.879v-7.879c3.939,0,5.468.764,6.879,3l3.351,5.409a55.613,55.613,0,0,1,3.94,7.35l.059.059h9.407v-.059a70.349,70.349,0,0,1-5.056-7.35Zm-10.877-8.35a20.566,20.566,0,0,1-3.7-.235V177.522h4.527c4.41,0,6.762,2.881,6.762,6.174C352.579,186.812,350.168,189.634,344.994,189.634Z" style="fill:#1a1a18"/><path d="M408.672,207.568l-14.641-33.4a22.681,22.681,0,0,1-1.176-3.292l-.059-.059h-6.409l-.059.059a17.809,17.809,0,0,1-1.117,3.292l-13.876,33.4a20.97,20.97,0,0,1-2.352,4.351v.059H377.1l.059-.059a14.248,14.248,0,0,1,1.176-3.7l2.528-6.292h17.875l2.7,6.292c.883,2.41,1.412,3.7,1.412,3.7l.059.059h8.114v-.059A31.137,31.137,0,0,1,408.672,207.568Zm-25.048-12.407,5.821-14.523h.059l6.291,14.523Z" style="fill:#1a1a18"/></svg>