<svg xmlns="http://www.w3.org/2000/svg" viewBox="0 0 1306.952 452.1"><path d="M-131.628,571.2c4.2-4.961,7.8-10.38,11.7-15.572,3.935-5.243,7.779-10.553,11.665-15.833s7.775-10.556,11.662-15.835,7.768-10.562,11.658-15.838,7.773-10.523,11.711-15.853c6.83-.116,13.5-.049,20.457-.044a30.018,30.018,0,0,1,.509,2.988c.082,1.274.036,2.557.036,3.837q0,51.336,0,102.672c0,2.053-.074,4.107-.112,6.062-3.5.945-14.652,1.1-19.827.339-.982-1.566-.523-3.373-.527-5.075q-.057-29.985-.025-59.972c0-4.318.021-8.636-.019-12.954-.008-.883.336-1.905-.857-2.792-3.729,4.088-6.655,8.8-9.961,13.21-3.355,4.477-6.622,9.022-9.926,13.538s-6.611,9.032-9.912,13.55-6.6,9.041-9.9,13.559-6.6,9.037-9.908,13.553-6.606,9.011-9.777,13.337c-5.132.763-16.333.653-19.981-.206-.077-.839-.218-1.763-.24-2.69-.523-22.418-.239-107.4.4-112.433,2-1.046,4.267-.4,6.431-.515,2.072-.113,4.155-.025,6.234-.025h6.942a23.509,23.509,0,0,1,.555,3.385c.058,4.8.03,9.6.03,14.393q0,27.826,0,55.653v5.229Z" transform="translate(153.476 -307.768)"/><path d="M891.383,527.628c-4.155,3.126-6.65,7.19-9.5,10.971-2.884,3.829-5.674,7.729-8.5,11.6s-5.657,7.742-8.485,11.613-5.654,7.744-8.482,11.615-5.657,7.742-8.486,11.612-5.661,7.739-8.492,11.608-5.654,7.725-8.614,11.77c-6.51.3-12.974.1-19.539.12a18.793,18.793,0,0,1-.373-2.37c-.013-37.707-.012-75.414-.012-112.886.507-.438.73-.8.98-.82,6.2-.485,12.395-.2,18.864-.2a20.506,20.506,0,0,1,.49,2.94c.054,3.835.034,7.672.035,11.508q0,29.97.019,59.941c0,1.524-.408,3.154.486,4.564a4.142,4.142,0,0,0,.645-.12,1.04,1.04,0,0,0,.388-.249c.318-.358.634-.721.918-1.1q28.32-38.381,56.639-76.764a2.72,2.72,0,0,1,.348-.329,109.052,109.052,0,0,1,20.4.044,1.724,1.724,0,0,1,.335.331.98.98,0,0,1,.116.462q.087,55.378.16,110.757c0,.957-.047,1.916-.126,2.869a2.921,2.921,0,0,1-.355.841c-3.769.829-15.366.849-19.677-.039-.353-3.691-.131-7.5-.168-11.294-.037-3.835-.008-7.672-.008-11.508V527.628Z" transform="translate(153.476 -307.768)"/><path d="M614.139,625.93H634.27c3.5,8.078,6.383,16.358,9.572,24.51,3.142,8.03,6.205,16.091,9.294,24.142q4.721,12.3,9.428,24.6,4.629,12.063,9.256,24.079c4.114.937,8.16-.193,12.2.78a23.9,23.9,0,0,1,.357,2.427c.34,7.991.1,29.107-.378,32.738-2.842,1.133-5.887.439-8.852.542-2.838.1-5.685-.054-8.763-.1-.747-3.1-.278-5.965-.412-8.782s.3-5.693-.306-8.485a6.655,6.655,0,0,0-1.572-.474q-39.781-.025-79.562.005a6.868,6.868,0,0,0-1.6.47c-.852,5.471.1,11.066-.578,16.733-2.92,1.237-5.962.532-8.914.634-2.844.1-5.7-.042-8.141-.073a6.322,6.322,0,0,1-.748-.644.888.888,0,0,1-.16-.438c-.075-1.591-.195-3.183-.191-4.774q.033-14.379.133-28.756c0-.278.249-.555.532-1.145,3.571-.671,7.415.042,11.163-.434,1.572-1.179,1.8-3.025,2.413-4.613q16.458-42.942,32.844-85.914C612.189,630.6,613.187,628.27,614.139,625.93ZM651.7,723.224c-.637-1.868-1.1-3.373-1.658-4.838Q638.273,687.73,626.445,657.1c-.536-1.382-.547-3.2-2.314-3.987a10.951,10.951,0,0,0-.71,1.29q-12.878,33.309-25.721,66.63a13.994,13.994,0,0,0-.469,2.22C601.439,723.776,646.948,723.787,651.7,723.224Z" transform="translate(153.476 -307.768)"/><path d="M68.1,590.042H79.923a8.447,8.447,0,0,1,.6,2.026q.03,16.071-.021,32.142a6.549,6.549,0,0,1-.35,1.277c-2.693,1.132-5.737.467-8.681.558-2.855.088-5.716-.053-8.818-.1a26.637,26.637,0,0,1-.515-3.387c-.065-3.358,0-6.717-.048-10.075-.019-1.244-.216-2.486-.343-3.851a21.551,21.551,0,0,0-2.537-.32c-26.523-.016-53.045-.013-79.794-.013a18.548,18.548,0,0,0-.543,2.919c-.06,3.678,0,7.357-.051,11.035-.014,1.081-.221,2.159-.33,3.159-3.652.807-12.139.924-17.572.258a8.4,8.4,0,0,1-.546-2.1q-.055-15.591-.008-31.184a11.11,11.11,0,0,1,.388-1.974c3.849-.814,7.706.017,11.6-.571,1.182-1.339,1.577-3.072,2.194-4.686q16.62-43.431,33.23-86.866c.737-1.926,1.507-3.839,2.213-5.637a125.289,125.289,0,0,1,20.669-.041c6.165,16.079,12.368,32.336,18.632,48.569S61.687,573.68,68.1,590.042ZM20.635,518.53c-.951,2.051-1.465,3.019-1.859,4.033-2.546,6.553-5.062,13.119-7.594,19.678Q2.981,563.484-5.2,584.732c-.6,1.581-1.775,3.09-1.134,5.071a15.491,15.491,0,0,0,1.883.227q24.942.021,49.882,0c.727,0,1.621.224,2.261-1.119C38.945,565.915,29.967,542.7,20.635,518.53Z" transform="translate(153.476 -307.768)"/><path d="M45.537,356.7c7.856-.078,15.005-.056,22.154-.023l31.024,39.959c10.169,13.1,20.312,26.218,30.442,39.209,1.625-.713,1.169-1.817,1.173-2.672.039-8.632.025-17.264.025-25.9,0-8.473.062-16.946-.021-25.417-.06-6.231-.322-12.46-.469-18.69-.045-1.9-.007-3.8-.007-5.953,3.2-1.126,6.555-.427,9.83-.534,3.167-.1,6.342.039,9.232.07.379.419.5.527.589.658a.888.888,0,0,1,.188.413c.031.8.075,1.6.044,2.391-1.216,31.161-.385,62.335-.549,93.5-.031,5.748.354,11.5.542,17.248a1.106,1.106,0,0,1-.067.47,5.21,5.21,0,0,1-.6.716c-5.693.61-11.711.155-17.957.235-1.1-1.337-2.244-2.643-3.3-4.015q-27.631-35.908-55.246-71.83c-1.146-1.489-2.312-2.963-3.649-4.675-1.242,1.392-.885,2.712-.888,3.881q-.047,20.861-.01,41.722c.037,11.345.171,22.689.265,34.32a3.969,3.969,0,0,1-1.444.552c-5.592.044-11.184.03-16.776,0a6.472,6.472,0,0,1-1.613-.54c-.022-.716-.088-1.472-.063-2.225.206-6.227.6-12.454.617-18.682.071-26.056-.025-52.113.083-78.168A29.2,29.2,0,0,0,46.573,359.7C46.24,359,46.059,358.234,45.537,356.7Z" transform="translate(153.476 -307.768)"/><path d="M408.231,418.238c-.345,16.289-7.9,32.895-24.467,44.73-12.487,8.919-26.609,12.041-41.833,10.416a56.892,56.892,0,0,1-28.349-10.757c-15.7-11.624-23.529-27.419-24.062-46.853-.671-24.441,12.709-46.036,34.492-55.679a59.775,59.775,0,0,1,35.647-4.211c20.729,3.795,35.44,15.4,43.949,34.685C406.943,398.127,408.265,406.159,408.231,418.238Zm-97.5-3.522a38.194,38.194,0,0,0,3.294,16.571c6.181,13.838,16.777,22.122,31.947,23.27,15.117,1.144,27.291-4.98,35.088-18.05,8.531-14.3,8.641-29.312.372-43.747-14.465-25.247-50.664-25-65.2.208A41.078,41.078,0,0,0,310.732,414.716Z" transform="translate(153.476 -307.768)"/><path d="M921.6,683.952a75.229,75.229,0,0,1,2.68-18.5,56.8,56.8,0,0,1,48.138-40.974c8.848-1,17.587-.777,26.125,1.607,18.845,5.262,31.859,17.243,38.562,35.554a63.3,63.3,0,0,1-.033,45.072c-8.082,21.374-23.782,33.8-46.532,37.083a65.256,65.256,0,0,1-27.508-1.864,56.488,56.488,0,0,1-39.99-44.67C922.306,692.866,922.068,688.39,921.6,683.952Zm21.276-1.279c-.026,8.375.895,14.131,3.14,19.646,4.242,10.423,11.276,18.16,22.1,21.844a40.3,40.3,0,0,0,24.072.672c12.188-3.351,20.154-11.476,24.583-22.974a48.274,48.274,0,0,0-.048-35.612c-4.449-11.513-12.51-19.538-24.715-22.812a40.893,40.893,0,0,0-21.319-.018c-12.044,3.175-19.852,11.1-24.573,22.33A43.119,43.119,0,0,0,942.876,682.673Z" transform="translate(153.476 -307.768)"/><path d="M563.128,684.281a55.281,55.281,0,0,1-1.733,17.077,56.7,56.7,0,0,1-48.382,42.482,66.467,66.467,0,0,1-26.586-1.684c-19.573-5.614-32.644-18.349-38.985-37.581a63.113,63.113,0,0,1,.09-41.014c7.8-22.544,23.769-35.7,47.559-39.05a61.132,61.132,0,0,1,28.866,2.416c21.06,7.318,33.726,22.219,38.3,44.012a38.134,38.134,0,0,1,.831,5.683C563.235,679.168,563.128,681.727,563.128,684.281Zm-20.749-.114a44,44,0,0,0-3.164-18.244c-4.772-11.409-12.745-19.4-24.953-22.58a40.655,40.655,0,0,0-21.319.173c-12.391,3.407-20.244,11.715-24.689,23.449-3,7.927-3.486,16.188-2.409,24.552a42.472,42.472,0,0,0,5.359,16.27c4.522,7.714,10.773,13.462,19.331,16.334a41.14,41.14,0,0,0,24.075.765c11.09-2.946,18.636-10.126,23.575-20.226A43.657,43.657,0,0,0,542.379,684.167Z" transform="translate(153.476 -307.768)"/><path d="M174.438,471.752c.583-38.105.536-76.125.027-114.495a8.827,8.827,0,0,1,2.3-.56c13.268-.025,26.537-.089,39.8.055a58.258,58.258,0,0,1,25,5.909c17.912,8.69,28.06,23.1,31.078,42.687a59.766,59.766,0,0,1-2.423,28.874c-6.572,19.122-19.961,31.162-39.234,36.81a60.9,60.9,0,0,1-18,2.338c-5.274-.068-10.545-.29-15.818-.436-6.23-.172-12.461-.32-18.69-.518C177.086,472.372,175.582,472.787,174.438,471.752ZM196,376.192c-.072,1.112-.24,2.506-.241,3.9q-.024,33.821,0,67.64c0,1.117.03,2.238.14,3.349a2.4,2.4,0,0,0,1.7,2.115,13.058,13.058,0,0,0,2.779.661c6.216.646,12.457,1.021,18.65-.042,15.518-2.662,26.241-11.2,31.2-26.323a42.03,42.03,0,0,0,1.512-18.483A37.142,37.142,0,0,0,223.377,377c-8.794-2.22-17.742-1.8-26.681-1.359C196.566,375.65,196.446,375.833,196,376.192Z" transform="translate(153.476 -307.768)"/><path d="M405.735,644.013H345.988a17.681,17.681,0,0,0-.583,2.65c-.1,1.432-.035,2.875-.035,4.314v90.651c-3.48,1.414-6.855.6-10.141.729-3.165.122-6.34-.036-9.726-.074a27.415,27.415,0,0,1-.591-2.938c-.1-1.111-.037-2.236-.037-3.354q0-52.029.015-104.058c0-1.876-.348-3.819.621-5.82a20.449,20.449,0,0,1,2.256-.326c13.257-.5,93.617-.167,98.046.435.121.8.319,1.7.375,2.6.07,1.115.025,2.237.025,3.356q0,52.029-.012,104.058c0,1.878.274,3.8-.373,5.566-3.736.747-14.382.832-19.509.142a22.511,22.511,0,0,1-.406-3.042c-.039-7.193-.022-14.386-.022-21.579q0-33.807-.007-67.614C405.884,647.977,405.8,646.247,405.735,644.013Z" transform="translate(153.476 -307.768)"/><path d="M489.549,471.884c-5.247-11.721-12.295-22.4-19.011-33.279-.252-.408-.513-.812-.744-1.232-4.153-7.577-10.888-9.825-19.006-9.209-.122.009-.232.191-.724.624-.384,3.272-.1,6.929-.153,10.565-.05,3.517-.027,7.035-.006,10.553.021,3.677.04,7.355.128,11.03.084,3.513.256,7.023.4,10.737a4.844,4.844,0,0,1-1.63.663c-6.232.05-12.465.04-18.7.016a6.529,6.529,0,0,1-1.527-.434c.6-38.144.6-76.279,0-114.752a16.287,16.287,0,0,1,2.9-.481c11.828-.034,23.663-.27,35.483.053,14.839.4,26.131,7.112,32.484,20.725,8.028,17.2,1.025,32.3-9.78,40.9-2.59,2.06-5.673,3.5-8.657,5.307a9.349,9.349,0,0,0,1.358,1.079,24.311,24.311,0,0,1,9.259,9.481c2.521,4.265,5.154,8.463,7.7,12.715a250.437,250.437,0,0,0,16.438,24.583c-.738.362-1.238.82-1.74.822-7.67.028-15.34,0-23.011-.034A7.67,7.67,0,0,1,489.549,471.884Zm-39.2-63.259a11.377,11.377,0,0,0,2.605.673,103.536,103.536,0,0,0,10.988.008,26.077,26.077,0,0,0,7.4-1.817,15.593,15.593,0,0,0,10.28-14.765,16.694,16.694,0,0,0-10.56-15.7,24.508,24.508,0,0,0-8.893-1.635c-3.031-.052-6.065-.045-9.1,0a20.188,20.188,0,0,0-2.665.378C449.746,379.756,449.711,404.169,450.352,408.625Z" transform="translate(153.476 -307.768)"/><path d="M298.116,608.076c-4.166.6-17.725.665-22.838.147-3.151-6.924-5.394-14.432-8.532-21.434-3.785-.6-46.04-.771-53.26-.214-1.8,3.3-2.884,7.136-4.353,10.8-1.423,3.549-2.779,7.125-4.122,10.581-3.679.765-17.964.856-22.671.166a3.89,3.89,0,0,1,.019-1.334c14.8-38.116,29.834-76.142,44.7-114.014,3.962-.675,18.642-.831,25.385-.313,1.2,1.184,1.569,2.937,2.2,4.539q16.588,42.161,33.154,84.329,4.558,11.6,9.079,23.218C297.278,605.568,297.608,606.618,298.116,608.076Zm-58.081-94.2c-.634,1.225-1.045,1.861-1.307,2.553q-9.249,24.415-18.446,48.852a15.083,15.083,0,0,0-.412,2.958h13.745c4.473,0,8.949.079,13.421-.022,4.382-.1,8.8.449,13.195-.385-.884-4.307-12.808-36.72-18.9-51.456C241.062,515.711,240.675,515.1,240.035,513.873Z" transform="translate(153.476 -307.768)"/><path d="M765.417,626.08q22.258,56.706,44.468,113.313c.278.708.453,1.456.612,1.977a3.559,3.559,0,0,1-.432.678.762.762,0,0,1-.442.164q-9.577.094-19.156.161a23.865,23.865,0,0,1-2.382-.223c-2.063-3.569-3.013-7.481-4.6-11.122s-2.418-7.592-4.567-10.873c-6.88-.579-49.323-.391-53.154.28-2.751,7.083-5.573,14.348-8.329,21.446-3.864.625-17.4.713-22.314.193-1-1.7.289-3.08.825-4.459q9.373-24.114,18.891-48.173,11.478-29.209,22.956-58.417c.638-1.624,1.32-3.23,1.923-4.7C743.527,625.644,758.4,625.5,765.417,626.08Zm7.852,75.418c-2.457-6.571-4.686-12.553-6.93-18.529-2.189-5.829-4.324-11.681-6.61-17.473-2.305-5.839-4.16-11.868-7.079-17.965a16.018,16.018,0,0,0-1.232,2.053q-9.484,25.094-18.912,50.21a6.325,6.325,0,0,0-.146,1.716c3.963.536,28.24.791,38.057.413C771.176,701.894,771.93,701.7,773.269,701.5Z" transform="translate(153.476 -307.768)"/><path d="M563.378,558.057c-.938,1.84-.616,3.626-.619,5.343-.03,13.111-.011,26.222-.024,39.332,0,1.728-.1,3.456-.152,5.091-3.661.925-15.295,1.022-19.854.21-.758-1.754-.422-3.689-.423-5.562q-.034-44.849-.016-89.7c0-5.436-.015-10.872.013-16.308.006-1.239.16-2.477.24-3.631,3.745-.762,13.5-.894,19.423-.3,1.173,1.266.75,2.936.756,4.463.037,10.393.02,20.786.02,31.178,0,2.559-.021,5.117.014,7.675.015,1.1.151,2.195.25,3.545a10.886,10.886,0,0,0,2.283.515q27.573.045,55.146.013a16.887,16.887,0,0,0,2.311-.314c.895-1.834.583-3.617.588-5.332.029-12.152,0-24.3.029-36.454,0-1.714-.263-3.483.407-5.065,3.749-.664,13.938-.78,19.485-.227a25.7,25.7,0,0,1,.5,2.607c.091.951.028,1.917.028,2.876q0,52.284-.006,104.567c0,1.736-.081,3.473-.123,5.123-3.246,1.045-13.518,1.252-19.771.436-.893-1.523-.5-3.318-.51-5.011-.039-13.111-.018-26.222-.026-39.333,0-1.737-.065-3.474-.1-4.955-1.629-1.572-3.313-1.059-4.842-1.064-13.587-.04-27.173-.023-40.76-.023-3.676,0-7.353-.021-11.029.016C565.537,557.78,564.457,557.957,563.378,558.057Z" transform="translate(153.476 -307.768)"/><path d="M113.547,590.064c1.644,1.06,3.453.637,5.169.641q23.976.051,47.952.026c1.738,0,3.477.079,5.221.122,1.262,3.041.544,5.938.669,8.756.12,2.693.026,5.395.026,8.343a18.479,18.479,0,0,1-2.921.575c-2.876.07-5.754.036-8.631.036q-31.169,0-62.337-.006c-1.73,0-3.461-.1-5.459-.158-.16-1.118-.348-2.016-.4-2.922-.067-1.115-.027-2.237-.027-3.356q0-51.8.005-103.6c0-1.891.078-3.782.123-5.86a23.358,23.358,0,0,1,3.03-.426q36.444-.035,72.887-.008c1.077,0,2.153.193,3.444.316.537,5.784.235,11.327.231,16.68-1.548,1.527-3.233,1.026-4.764,1.03-12.787.04-25.574.023-38.361.023-4.156,0-8.312-.015-12.468.014-1.076.008-2.15.158-3.144.236-.722,3.921-.915,21.628-.364,28.979,1.293,1.306,2.981.782,4.506.785,15.823.038,31.647.019,47.471.032,1.728,0,3.456.1,5.074.157,1.024,3.562,1.155,12.619.322,17.339-1.58,1.014-3.388.549-5.095.553q-23.256.061-46.513.024h-5.336a8.291,8.291,0,0,0-.595,1.992q-.048,14.149-.008,28.3A6.652,6.652,0,0,0,113.547,590.064Z" transform="translate(153.476 -307.768)"/><path d="M1059.675,625.97c6.436-.389,12.759-.2,19.124-.121,1.11,1.809.737,3.6.741,5.292.032,14.544.014,29.089.024,43.633,0,1.562.086,3.124.133,4.73,1.668.374,2.105-.88,2.742-1.651q12.2-14.793,24.348-29.631,7.45-9.08,14.9-18.162c1.112-1.354,2.255-2.682,3.587-4.262,7.882-.071,15.845-.018,23.711-.031.883,1.584-.357,2.229-1.009,2.991q-13.872,16.207-27.8,32.367-6.876,8-13.755,15.992c-1.02,1.191-1.966,2.444-3.092,3.851l50.15,60.738a13.556,13.556,0,0,1-2.609.651c-5.911.045-11.829-.125-17.733.1a7.453,7.453,0,0,1-6.888-3.243c-6.832-8.855-13.885-17.539-20.856-26.287q-6.573-8.247-13.155-16.488c-.687-.858-1.441-1.663-2.039-2.348-1.436-.1-1.862.88-2.454,1.553-1.9,2.161-3.651,4.457-5.64,6.528a9.052,9.052,0,0,0-2.594,6.884c.133,9.268.051,18.538.05,27.808v4.814c-3.54,1.306-6.9.569-10.18.683-3.162.11-6.333-.039-9.761-.077a27.844,27.844,0,0,1-.395-3.009c-.046-3.036-.022-6.073-.022-9.11q0-49.146.011-98.292C1059.212,630,1058.955,628.08,1059.675,625.97Z" transform="translate(153.476 -307.768)"/><path d="M667.072,608.327c0-38.161,0-75.705.01-113.248a19.583,19.583,0,0,1,.233-2.2c3.784-.841,15.352-.919,19.7-.183.913,1.615.532,3.412.538,5.135.037,10.71.011,21.42.026,32.131a15.869,15.869,0,0,0,.466,5.413c1.657.083,3.216.223,4.776.227,8.47.024,16.94.009,25.411.016a47.263,47.263,0,0,1,12.784,1.716A34.725,34.725,0,0,1,756,567.059a43.343,43.343,0,0,1-.6,13.832,34.554,34.554,0,0,1-31.227,27.429c-1.907.17-3.83.229-5.746.232q-23.253.027-46.506,0C670.505,608.553,669.094,608.425,667.072,608.327Zm20.983-54.47c-.551,3.915-.819,26.253-.448,34.051a18.218,18.218,0,0,0,.423,2.359,10.379,10.379,0,0,0,1.961.409q12.95.027,25.9-.018a25.066,25.066,0,0,0,3.337-.344c10.281-1.432,16.385-8.861,16.033-19.263a17.169,17.169,0,0,0-12.586-16.29,26.274,26.274,0,0,0-7.074-1.038c-8.152-.123-16.306-.053-24.46-.04C690.208,553.684,689.276,553.785,688.055,553.857Z" transform="translate(153.476 -307.768)"/><path d="M-33.509,356.81H-16.2c.384.364.7.531.813.788,5.91,13.792,11.737,27.62,17.715,41.382q12.024,27.678,24.258,55.265c2.328,5.247,5.017,10.334,7.52,15.5.327.674.531,1.408.81,2.163-3.769.638-16.55.729-21.992.169C10.4,467.825,9.266,462.8,7.13,458.2c-2.08-4.475-3.93-9.056-5.95-13.752-5.714-.521-11.276-.185-16.822-.245-5.431-.058-10.862-.012-16.293-.012H-48.512c-2.5,3.648-7.018,14.715-11.314,27.571-3.418.858-17.58.947-22.062.075.418-.891.793-1.715,1.189-2.53,1.744-3.586,3.68-7.091,5.213-10.765q19.28-46.193,38.424-92.441C-35.846,363.171-34.79,360.173-33.509,356.81Zm25.791,67.967a18.179,18.179,0,0,0-.587-2.1q-7.773-18.021-15.595-36.021a6.466,6.466,0,0,0-1.213-1.39c-3.083,6.043-14.781,35.715-15.517,39.28C-37.219,425.207-15.327,425.4-7.718,424.777Z" transform="translate(153.476 -307.768)"/><path d="M576.943,356.772c5.883-.188,11.759-.179,17.432-.013a5.63,5.63,0,0,1,.781,1.017c6.252,16.441,13.836,32.31,20.806,48.442q10.742,24.865,21.755,49.613c2.07,4.668,4.489,9.181,6.746,13.767.333.678.654,1.363,1.006,2.1-3.553.9-17.087,1.034-22.424.235-1.753-4.393-3.525-8.989-5.417-13.535-1.9-4.569-3.924-9.089-5.945-13.748a13.109,13.109,0,0,0-2.329-.426q-23.261-.024-46.522.013a10.173,10.173,0,0,0-1.212.18c-1.959,2.551-2.746,5.843-4.048,8.877q-1.984,4.624-3.76,9.338c-1.181,3.116-2.249,6.275-3.334,9.324-4.735.723-18.038.64-21.832-.171.307-.74.561-1.44.88-2.108,2.063-4.322,4.337-8.555,6.181-12.968q18.852-45.117,37.541-90.3C574.529,363.315,575.648,360.159,576.943,356.772Zm-7.235,67.868a4.665,4.665,0,0,0,1.119.364q15.063.031,30.125.009a5.431,5.431,0,0,0,1.569-.509c-1.109-3.779-12.765-31.255-16.328-38.521-.1-.211-.463-.3-.7-.439-1.953,2.837-10.04,22.153-15.22,36.434A18.725,18.725,0,0,0,569.708,424.64Z" transform="translate(153.476 -307.768)"/><path d="M843.059,698.927c-.659,5.182-.279,9.8-.344,14.4-.067,4.793-.013,9.588-.016,14.382,0,4.617-.01,9.234-.016,13.934-3.517,1.371-6.875.606-10.143.7a61.161,61.161,0,0,1-9.819-.211,33.591,33.591,0,0,1-.355-3.347c-.032-6.712-.018-13.423-.018-20.135V626.43a14.3,14.3,0,0,1,2.852-.631c16.615-.021,33.23-.059,49.844.072a43.9,43.9,0,0,1,9.483,1.2,34.509,34.509,0,0,1,26.821,30.7,41.037,41.037,0,0,1-1.284,15.671,34.829,34.829,0,0,1-30.71,25.072c-2.383.21-4.787.238-7.182.247-7.987.029-15.976,0-23.964.018C846.634,698.78,845.06,698.866,843.059,698.927Zm.175-18.49a27.125,27.125,0,0,0,3.19.375c7.981.031,15.963.049,23.944-.01a31.412,31.412,0,0,0,5.711-.541,17.545,17.545,0,0,0,14.393-15.8c.946-11.34-5.414-16.915-11.713-19.274a22.429,22.429,0,0,0-7.983-1.349c-8.3.026-16.6,0-24.9.021a23.369,23.369,0,0,0-2.8.35,14.722,14.722,0,0,0-.332,2.1q-.012,16.286.034,32.571A6.616,6.616,0,0,0,843.234,680.437Z" transform="translate(153.476 -307.768)"/><path d="M437.615,608.338c0-38.359,0-76.074.013-113.79a13.991,13.991,0,0,1,.335-2.053c6.476-.612,12.811-.117,18.883-.287,1.532,1.4,1.111,2.923,1.116,4.293.037,11.031.015,22.063.028,33.094,0,1.738.091,3.475.13,4.882,1.232,1.519,2.605,1.1,3.819,1.109,8.791.039,17.584-.082,26.372.074a57,57,0,0,1,10.939,1.113,34.783,34.783,0,0,1,27.4,31.288,41.189,41.189,0,0,1-1.316,15.2,34.608,34.608,0,0,1-30.708,25.058c-2.066.181-4.15.229-6.226.231q-22.776.029-45.553,0C441.288,608.553,439.726,608.429,437.615,608.338ZM458.4,553.885a16.091,16.091,0,0,0-.372,2.244q-.032,16.046.007,32.089a9.347,9.347,0,0,0,.58,2.229c1.006.105,1.786.256,2.566.258,7.98.018,15.961.052,23.941-.017a34.419,34.419,0,0,0,6.184-.619,17.457,17.457,0,0,0,14.469-16.719c.363-9.371-4.471-16.4-13.1-18.721a29.073,29.073,0,0,0-7.08-.913c-7.819-.111-15.641-.05-23.462-.035C461.02,553.684,459.913,553.8,458.4,553.885Z" transform="translate(153.476 -307.768)"/><path d="M424.607,608.1c-3.786.563-17.1.652-22.211.183-1.381-1.045-1.572-2.736-2.119-4.193Q384.8,562.81,369.371,521.505c-.7-1.877-1.151-3.9-2.346-5.529a3.67,3.67,0,0,0-.655.223.81.81,0,0,0-.327.343q-17.19,45.742-34.331,91.4c-3.637.781-18.121.867-22.632.149a4.016,4.016,0,0,1,.019-1.373c14.775-38.113,29.821-76.118,44.678-113.976,3.986-.642,19.08-.78,25.439-.271,1.143,1.181,1.514,2.931,2.142,4.53q18.5,47.055,36.985,94.119c1.811,4.609,3.645,9.21,5.42,13.833A29.992,29.992,0,0,1,424.607,608.1Z" transform="translate(153.476 -307.768)"/><path d="M-151.384,356.923c1.4-.1,2.478-.252,3.56-.254q15.584-.024,31.168,0a49.365,49.365,0,0,1,19.588,3.987,38.108,38.108,0,0,1,10.519,6.581A31.883,31.883,0,0,1-75.6,389.916c1.156,19.127-10.323,31.267-23.471,36.367a50.635,50.635,0,0,1-19.21,3.485c-3.658-.053-7.314-.294-10.808-.443-1.476,1.034-1.075,2.424-1.059,3.629.147,11.187.35,22.374.527,33.561.028,1.729,0,3.459,0,5.392-2.411.906-4.814.428-7.148.5-2.395.079-4.794.036-7.192.012-2.361-.023-4.723-.09-6.756-.132a7.775,7.775,0,0,1-.619-.73.906.906,0,0,1-.141-.436C-150.618,433.255-150.846,395.384-151.384,356.923Zm21.637,52.575c6.273,1.646,15.281,1.64,20.618-.143a27.071,27.071,0,0,0,5.577-2.686,13.418,13.418,0,0,0,5.177-6.133,19.84,19.84,0,0,0,1.05-13.109,13.113,13.113,0,0,0-7.655-9.262,22.947,22.947,0,0,0-7.3-2.076c-5.239-.4-10.516-.334-15.779-.4a5.923,5.923,0,0,0-1.705.5C-130.327,380.366-130.32,405.3-129.747,409.5Z" transform="translate(153.476 -307.768)"/><path d="M787.433,608.5c-6.973.089-13.331.1-19.481,0-1.267-1.758-.885-3.4-.89-4.957-.035-10.231-.018-20.463-.018-30.694q0-37.17.006-74.339c0-1.892.1-3.784.146-5.571,3.593-.894,14.652-1.035,19.977-.3.134.828.348,1.73.409,2.642.075,1.114.024,2.237.024,3.356q0,51.8-.007,103.594C787.6,604.128,787.5,606.015,787.433,608.5Z" transform="translate(153.476 -307.768)"/><path d="M732.067,403.533c-.031,6.614.2,12.953-.139,18.94a4.588,4.588,0,0,1-.575.7.914.914,0,0,1-.456.133c-.951.029-1.9.062-2.854.059q-30.636-.09-61.271-.188c-3.016-.009-6.032,0-9.34,0-1.049-3.076-.4-6.427-.466-9.7a55.489,55.489,0,0,1,.209-9.741c.6-.307.874-.571,1.149-.571q35.9-.064,71.8-.075A11.787,11.787,0,0,1,732.067,403.533Z" transform="translate(153.476 -307.768)"/><path d="M830.755,470.835l7.931-6.661c1.019.985,1.922,1.8,2.755,2.672,8,8.421,17.714,10.158,28.557,7.245a22.368,22.368,0,0,0,10.1-6.186c1.111-1.124,2.18-2.289,3.484-3.664a63.093,63.093,0,0,1,7.94,6.492,15.893,15.893,0,0,1-1.4,2.425c-8.629,10.238-19.829,14.106-32.9,12.944a35.771,35.771,0,0,1-24.8-12.988C831.916,472.524,831.5,471.86,830.755,470.835Z" transform="translate(153.476 -307.768)"/><path d="M349.1,307.768a43.676,43.676,0,0,1,.894,4.587c.541,7.916,1.8,15.777,2.174,23.821-2.147.786-4.012.536-6.158.345a7.939,7.939,0,0,1-.4-2.186c.86-8.246,1.778-16.487,2.7-24.727A11.655,11.655,0,0,1,349.1,307.768Z" transform="translate(153.476 -307.768)"/><path d="M328.346,312.892c2.439,3.452,7.92,15.466,10.824,23.444-1.375,1.964-3.771,1.141-5.671,2.136-.427-.577-1-1.016-1.1-1.546-1.426-7.32-2.793-14.651-4.15-21.984A11.782,11.782,0,0,1,328.346,312.892Z" transform="translate(153.476 -307.768)"/><path d="M364.847,338.52l-6.3-1.528c.245-2.576,1.553-4.439,2.349-6.461.762-1.931,1.668-3.8,2.5-5.706.9-2.049,1.719-4.135,2.7-6.143.879-1.8,1.269-3.9,3.3-5.95a18.17,18.17,0,0,1-.018,2.862C367.851,323.067,366.8,330.64,364.847,338.52Z" transform="translate(153.476 -307.768)"/><path d="M348.822,348.229a3.924,3.924,0,0,1-3.882-4.014,3.826,3.826,0,0,1,3.77-3.6,3.668,3.668,0,0,1,3.8,3.97A3.736,3.736,0,0,1,348.822,348.229Z" transform="translate(153.476 -307.768)"/><path d="M337.646,341.715a3.936,3.936,0,0,1,3.874,3.523,3.8,3.8,0,0,1-3.753,4.08,3.73,3.73,0,0,1-3.848-3.48A3.852,3.852,0,0,1,337.646,341.715Z" transform="translate(153.476 -307.768)"/><path d="M359.657,349.319a3.791,3.791,0,0,1-3.586-4.235,3.937,3.937,0,0,1,4.017-3.369,3.827,3.827,0,0,1,3.574,3.8A3.7,3.7,0,0,1,359.657,349.319Z" transform="translate(153.476 -307.768)"/></svg>