<svg id="Слой_1" data-name="Слой 1" xmlns="http://www.w3.org/2000/svg" viewBox="0 0 202 46"><path d="M54.7605,14.80029v14h-1.02V15.72021h-9.48V28.80029h-1.02v-14Z" style="fill:#fff"/><path d="M60.92993,28.2002a4.89265,4.89265,0,0,1-1.87012-1.89014,5.82244,5.82244,0,0,1,0-5.46,4.89785,4.89785,0,0,1,1.87012-1.88965,5.58117,5.58117,0,0,1,5.34033,0,4.89986,4.89986,0,0,1,1.86963,1.88965,5.81864,5.81864,0,0,1,0,5.46,4.89473,4.89473,0,0,1-1.86963,1.89014A5.58128,5.58128,0,0,1,60.92993,28.2002Zm4.82031-.77979a4.02417,4.02417,0,0,0,1.5-1.56006,5.00248,5.00248,0,0,0,0-4.56006,4.03077,4.03077,0,0,0-1.5-1.56006,4.40741,4.40741,0,0,0-4.30029,0,4.02411,4.02411,0,0,0-1.5,1.56006,5.0026,5.0026,0,0,0,0,4.56006,4.01753,4.01753,0,0,0,1.5,1.56006A4.40741,4.40741,0,0,0,65.75024,27.42041Z" style="fill:#fff"/><path d="M81.85962,27.92041v3.48h-.93994v-2.6001H71.03979v2.6001h-.96v-3.48h.61963q1.05982-.06006,1.4502-1.6499a25.88708,25.88708,0,0,0,.5498-4.47022l.14013-3.43994H80.1794v9.56006Zm-8.64014-2.1001a3.10519,3.10519,0,0,1-1.08008,2.1001h7.04V19.26025H73.7395l-.11963,2.6001A28.1062,28.1062,0,0,1,73.21948,25.82031Z" style="fill:#fff"/><path d="M92.71948,18.96045a4.87179,4.87179,0,0,1,1.8501,1.87988,5.95825,5.95825,0,0,1,0,5.48975,4.78215,4.78215,0,0,1-1.8501,1.88037,5.25287,5.25287,0,0,1-2.64013.66992,4.89146,4.89146,0,0,1-2.5-.6499,4.50054,4.50054,0,0,1-1.73975-1.81006v6.25928h-1V18.36035h.96v2.46a4.55669,4.55669,0,0,1,1.75-1.87011,4.86739,4.86739,0,0,1,2.52979-.66993A5.19563,5.19563,0,0,1,92.71948,18.96045Zm-.54,8.46a3.99369,3.99369,0,0,0,1.50977-1.56006,4.9986,4.9986,0,0,0,0-4.56006,4.00021,4.00021,0,0,0-1.50977-1.56006,4.21,4.21,0,0,0-2.16015-.56005,4.1564,4.1564,0,0,0-2.14991.56005,4.0241,4.0241,0,0,0-1.5,1.56006,5.00254,5.00254,0,0,0,0,4.56006,4.01746,4.01746,0,0,0,1.5,1.56006,4.15157,4.15157,0,0,0,2.14991.56006,4.20518,4.20518,0,0,0,2.16011-.5601Z" style="fill:#fff"/><path d="M99.989,28.2002a4.89256,4.89256,0,0,1-1.87011-1.89014,5.82232,5.82232,0,0,1,0-5.46A4.89792,4.89792,0,0,1,99.989,18.96045a5.58213,5.58213,0,0,1,5.34082,0A4.89872,4.89872,0,0,1,107.199,20.8501a5.82238,5.82238,0,0,1,0,5.46,4.89334,4.89334,0,0,1-1.86914,1.89014,5.58219,5.58219,0,0,1-5.34082,0Zm4.81934-.77979a3.99677,3.99677,0,0,0,1.5-1.56006,4.9946,4.9946,0,0,0,0-4.56006,4.00341,4.00341,0,0,0-1.5-1.56006,4.40461,4.40461,0,0,0-4.29883,0A4.02181,4.02181,0,0,0,99.009,21.30029a5.00254,5.00254,0,0,0,0,4.56006,4.01533,4.01533,0,0,0,1.50049,1.56006,4.40456,4.40456,0,0,0,4.29883,0Z" style="fill:#fff"/><path d="M118.56909,19.17041a4.62391,4.62391,0,0,1,1.77051,1.81006,5.46625,5.46625,0,0,1,.63965,2.67969,5.55589,5.55589,0,0,1-.65039,2.71,4.69569,4.69569,0,0,1-1.81935,1.86035,5.27547,5.27547,0,0,1-2.66992.66992,5.01006,5.01006,0,0,1-2.93065-.84033,5.20275,5.20275,0,0,1-1.83986-2.37988,9.46474,9.46474,0,0,1-.62988-3.6001,11.30285,11.30285,0,0,1,.57031-3.87988,5.32034,5.32034,0,0,1,1.71973-2.42969,7.786,7.786,0,0,1,2.95019-1.33008l4.62012-1.12012.16015.93994-4.40039,1.04a7.3132,7.3132,0,0,0-2.62989,1.10987,4.37617,4.37617,0,0,0-1.50976,1.99023,9.07145,9.07145,0,0,0-.52051,3.21973,4.53092,4.53092,0,0,1,1.74023-2.27,4.92824,4.92824,0,0,1,2.83985-.82959A5.10269,5.10269,0,0,1,118.56909,19.17041Zm-.58984,8.31006a3.849,3.849,0,0,0,1.46-1.55029,4.76357,4.76357,0,0,0,.5205-2.25,4.648,4.648,0,0,0-.5205-2.23,3.70036,3.70036,0,0,0-1.45021-1.5,4.22875,4.22875,0,0,0-2.12988-.52979,4.28153,4.28153,0,0,0-2.13965.52979,3.68043,3.68043,0,0,0-1.46,1.5,4.64814,4.64814,0,0,0-.5205,2.23,4.76357,4.76357,0,0,0,.5205,2.25,3.849,3.849,0,0,0,1.46,1.55029,4.32991,4.32991,0,0,0,4.25978,0Z" style="fill:#fff"/><path d="M124.25952,18.36035h1v4.75977h7.08008V18.36035h1V28.80029h-1v-4.7998h-7.08008v4.7998h-1Z" style="fill:#fff"/><path d="M146.55933,23.82031h-8.9795A4.359,4.359,0,0,0,138.2,25.99023a3.972,3.972,0,0,0,1.56933,1.47022,4.72281,4.72281,0,0,0,2.23047.52,4.78,4.78,0,0,0,1.88963-.37012,3.6797,3.6797,0,0,0,1.4502-1.08984l.58008.65967a4.45536,4.45536,0,0,1-1.71,1.26025A5.954,5.954,0,0,1,139.2,28.2002a4.92906,4.92906,0,0,1-1.91016-1.87989,5.39775,5.39775,0,0,1-.69041-2.74023,5.67657,5.67657,0,0,1,.65039-2.73,4.79852,4.79852,0,0,1,1.79-1.88965,5.17343,5.17343,0,0,1,5.11037-.01025,4.7674,4.7674,0,0,1,1.77929,1.87011,5.61613,5.61613,0,0,1,.65039,2.72022Zm-6.93946-4.16992a3.73367,3.73367,0,0,0-1.41015,1.37988,4.49917,4.49917,0,0,0-.61035,2.01026h8a4.1833,4.1833,0,0,0-.59961-2,3.88315,3.88315,0,0,0-3.40039-1.88037A3.99882,3.99882,0,0,0,139.61987,19.65039Z" style="fill:#fff"/><path d="M158.739,23.82031h-8.97949a4.359,4.359,0,0,0,.62011,2.16992,3.972,3.972,0,0,0,1.56934,1.47022,4.72292,4.72292,0,0,0,2.23047.52,4.7801,4.7801,0,0,0,1.88965-.37012,3.67974,3.67974,0,0,0,1.45019-1.08984l.58008.65967a4.45536,4.45536,0,0,1-1.71,1.26025,5.954,5.954,0,0,1-5.00976-.24023,4.929,4.929,0,0,1-1.91016-1.87989,5.39764,5.39764,0,0,1-.69043-2.74023,5.6768,5.6768,0,0,1,.65039-2.73,4.79861,4.79861,0,0,1,1.79-1.88965,5.17345,5.17345,0,0,1,5.11035-.01025,4.7674,4.7674,0,0,1,1.77929,1.87011,5.61627,5.61627,0,0,1,.65039,2.72022Zm-6.93945-4.16992a3.73377,3.73377,0,0,0-1.41016,1.37988,4.49958,4.49958,0,0,0-.61035,2.01026h8a4.18319,4.18319,0,0,0-.59961-2,3.88314,3.88314,0,0,0-3.40039-1.88037,3.9988,3.9988,0,0,0-1.97948.49023Z" style="fill:#fff"/><path d="M192,2a8.00907,8.00907,0,0,1,8,8V36a8.00907,8.00907,0,0,1-8,8H10a8.00907,8.00907,0,0,1-8-8V10a8.00907,8.00907,0,0,1,8-8H192m0-2H10A10,10,0,0,0,0,10V36A10,10,0,0,0,10,46H192a10,10,0,0,0,10-10V10A10,10,0,0,0,192,0Z" style="fill:#fff"/></svg>