<svg id="Слой_1" data-name="Слой 1" xmlns="http://www.w3.org/2000/svg" viewBox="0 0 507.14828 491.64786"><path d="M256.256,43.6695c-5.63471,5.07247-10.32533,9.87212-18.4297,9.86768-3.21763,0-6.45367-.358-9.6619-.56086,7.42723,2.7153,14.14037,5.13607,22.27394,3.89655,4.27257-.65124,8.82785-1.96135,12.3188-4.603,3.32517-2.51713,5.88075-6.002,9.92456-7.46849,5.483-1.986,12.01031.47,17.60974,1.42194-3.893-2.44807-7.76491-5.26022-12.00409-7.06454-8.18867-3.4865-15.67747-1.2088-22.03135,4.51073" style="fill:#fff"/><path d="M234.46455,40.06239c-8.83573,1.07678-14.18177,6.79313-16.82344,14.92225-2.34524,7.21218-4.007,13.71346-11.02723,17.76171-2.786,1.60665-5.77017,2.91676-8.64986,4.34493,7.79131-1.36241,14.8146-2.62174,21.24059-7.76352,3.37415-2.69994,6.66541-6.11268,8.36563-10.14418,1.62176-3.84412,2.09186-8.14017,4.86084-11.42952,3.75513-4.46312,10.6356-5.59982,15.96018-7.57488-4.59489-.17366-9.353-.6727-13.92671-.11679" style="fill:#fff"/><path d="M209.08557,55.89448c-4.06844,2.14733-8.43939,4.09459-12.12076,6.86231-7.11253,5.35062-8.88485,12.97449-7.10948,21.33555,1.5758,7.418,3.38812,13.87925-.66812,20.895-1.60946,2.78448-3.53844,5.41078-5.31851,8.08761,6.0666-5.07437,11.51725-9.67726,14.5121-17.34239,1.57262-4.02578,2.7168-8.62524,2.17321-12.96877-.51769-4.13915-2.25764-8.09523-1.5037-12.32819,1.0199-5.74365,6.41063-10.16716,10.03526-14.54116" style="fill:#fff"/><path d="M188.94841,116.692c-2.51878-3.32642-6.00351-5.88036-7.46862-9.9229-1.98585-5.48442.46984-12.01159,1.42208-17.6114-2.4496,3.89338-5.26175,7.7653-7.0648,12.004-3.4865,8.18917-1.20867,15.678,4.51085,22.03148,5.07273,5.6351,9.87226,10.32545,9.86757,18.42995-.00153,3.21624-.35927,6.45367-.56214,9.6619,2.7153-7.42723,5.13735-14.13885,3.89642-22.2756-.65124-4.27117-1.9597-8.828-4.60136-12.3174" style="fill:#fff"/><path d="M195.86087,151.87887c-3.84438-1.62189-8.14005-2.09185-11.42979-4.86085-4.46158-3.75525-5.598-10.63724-7.57461-15.962-.17366,4.59667-.6727,9.35482-.11515,13.92838,1.075,8.83572,6.793,14.18189,14.92213,16.82508,7.212,2.34359,13.71167,4.00534,17.7617,11.0257,1.60653,2.78588,2.91511,5.77,4.34328,8.64987-1.36228-7.79144-2.62161-14.81308-7.76352-21.24059-2.69841-3.37416-6.11116-6.664-10.144-8.36563" style="fill:#fff"/><path d="M232.41014,181.06781c-4.02553-1.571-8.62689-2.71682-12.96852-2.17322-4.14067.51769-8.09384,2.25777-12.32972,1.50509-5.74085-1.02117-10.16715-6.412-14.53976-10.03652,2.14721,4.06844,4.09459,8.43939,6.86371,12.12063,5.34935,7.114,12.97309,8.88638,21.33415,7.10948,7.41809-1.57568,13.87773-3.38812,20.89644.668,2.78461,1.6111,5.409,3.53843,8.08457,5.3185-5.07285-6.06482-9.67561-11.517-17.34087-14.512" style="fill:#fff"/><path d="M265.68619,185.8987c-4.26966.65124-8.82621,1.9597-12.31576,4.60136-3.32643,2.51866-5.882,6.00364-9.92456,7.46862-5.48441,1.98763-12.01006-.46971-17.60974-1.42042,3.89337,2.44807,7.76517,5.26,12.00244,7.06479,8.1907,3.48473,15.6795,1.20728,22.033-4.51072,5.6351-5.07438,10.32368-9.87378,18.42983-9.86921,3.2175.00152,6.45354.35926,9.6605.562-7.42583-2.71529-14.13872-5.13582-22.27571-3.89642" style="fill:#fff"/><path d="M288.55691,183.58824c-1.62316,3.84425-2.09184,8.13992-4.86085,11.42978-3.75677,4.46147-10.63545,5.59943-15.96018,7.57449,4.595.17367,9.35317.67283,13.92685.1154,8.8356-1.07538,14.18024-6.79313,16.825-14.92073,2.34359-7.2137,4.00369-13.71332,11.02557-17.7617,2.78766-1.60653,5.77018-2.91664,8.6481-4.34493-7.78967,1.36228-14.81283,2.62161-21.23856,7.76352-3.37441,2.69853-6.66555,6.11255-8.36589,10.14417" style="fill:#fff"/><path d="M317.74687,147.03948c-1.57111,4.0254-2.71707,8.62511-2.17639,12.96852.51933,4.139,2.26068,8.09383,1.50674,12.32793-1.0213,5.74263-6.41216,10.16729-10.03665,14.54129,4.06983-2.1486,8.43951-4.09446,12.12215-6.86359,7.11418-5.34934,8.88485-12.97474,7.10974-21.3358-1.57607-7.41631-3.38825-13.87759.668-20.89478,1.60945-2.78448,3.53677-5.40914,5.31849-8.08622-6.06685,5.0745-11.5189,9.67726-14.51208,17.34265" style="fill:#fff"/><path d="M325.91027,101.14847c.00127-3.21586.36068-6.45367.56213-9.66368-2.71568,7.429-5.13593,14.14038-3.89642,22.2775.65112,4.27079,1.96122,8.82785,4.60289,12.31575,2.51865,3.32655,6.002,5.88215,7.46722,9.926,1.98724,5.48289-.47008,12.01031-1.42068,17.60987,2.44807-3.89325,5.26162-7.76517,7.06467-12.0041,3.4865-8.18892,1.21032-15.67772-4.51085-22.03147-5.07425-5.6365-9.87213-10.32508-9.869-18.42983" style="fill:#fff"/><path d="M324.4656,80.96205c-7.21243-2.34346-13.71523-4.00509-17.76183-11.02684-1.60805-2.78626-2.91676-5.76878-4.34352-8.64848,1.35923,7.78992,2.62,14.81321,7.76046,21.23894,2.70146,3.37441,6.11268,6.66567,10.14722,8.36729,3.84109,1.62163,8.13828,2.09172,11.42648,4.86084,4.46172,3.75538,5.59982,10.63572,7.57476,15.96056.175-4.59552.67421-9.35494.11513-13.9271-1.075-8.83547-6.79133-14.18177-14.9187-16.82521" style="fill:#fff"/><path d="M295.35511,53.17817c-7.41656,1.57543-13.878,3.38774-20.89338-.66838-2.78449-1.61085-5.41066-3.53856-8.08762-5.3185,5.07426,6.06495,9.67726,11.51712,17.34239,14.512,4.0268,1.57289,8.62829,2.71529,12.9703,2.17335,4.139-.51756,8.0951-2.25929,12.32629-1.50522,5.74415,1.02142,10.16715,6.412,14.54128,10.03513-2.14708-4.06679-4.09459-8.43774-6.86193-12.11924-5.34947-7.11392-12.975-8.88472-21.33733-7.1091" style="fill:#fff"/><path d="M227.53622,145.60141l4.89474-1.20093L250.6366,98.37173l-8.15833-1.287.4301-4.63831h21.03786l19.83515,51.95406,5.24,1.20093-.43,4.72272H265.74927l.43-4.72272,8.58538-1.20093-4.37881-11.594H244.968l-4.55224,11.594,9.10447,1.20093-.43175,4.72272H227.10624Zm19.66465-18.46221h21.03925l-10.04719-27.651h-.5159Z" style="fill:#fff"/><path d="M54.68242,285.00309c-3.46937,0-8.91545-.96442-11.75984-2.457l1.20422-3.71083,13.10981,3.13321a7.78243,7.78243,0,0,0,4.09586-6.65323c0-3.80743-2.938-6.02508-7.90329-6.02508a27.06672,27.06672,0,0,0-4.04837.33958l.2412-3.90277c1.25323.046,2.31274.09357,3.47063.09357a20.79232,20.79232,0,0,0,6.21717-.77071,8.322,8.322,0,0,0,1.44543-4.723c0-3.95151-3.13321-5.54421-7.51965-5.54421a21.3002,21.3002,0,0,0-6.50559.96608l-.4824,6.266-3.37276.384-.7231-8.96292a33.0729,33.0729,0,0,1,11.22844-1.97531c7.23046,0,12.24212,2.50494,12.24212,8.38429a7.22278,7.22278,0,0,1-5.15587,7.3258v.2902c3.95177.96151,5.8791,3.61561,5.8791,7.56726,0,6.31377-4.91607,9.97495-11.66311,9.97495" style="fill:#fff"/><path d="M72.76263,281.82355l3.80757-.67587V255.315l-4.04877-.72323.2412-2.60193h16.435c5.83162,0,11.181,1.78185,11.181,7.90507a7.80959,7.80959,0,0,1-4.91607,7.5656v.336c3.08383.86655,5.7839,3.08434,5.7839,7.90507a7.652,7.652,0,0,1-2.65107,6.26616c-2.6032,2.16866-6.84365,2.50494-10.60322,2.50494H72.52143Zm11.03675-15.37368h2.65081a21.58142,21.58142,0,0,0,7.421-.91835,6.96713,6.96713,0,0,0,1.54356-4.723c0-4.72234-3.42329-5.49355-8.38734-5.49355H81.43713v25.83269h5.06066a33.00163,33.00163,0,0,0,8.53143-.817,10.39809,10.39809,0,0,0,1.1075-4.87151c0-4.52926-3.13156-5.97457-7.469-5.97457H83.55818Z" style="fill:#fff"/><polygon points="134.412 251.99 134.074 262.015 130.845 262.4 129.978 255.315 116.339 255.315 116.339 266.688 123.376 266.688 123.133 263.073 126.989 262.833 126.604 274.352 124.003 274.591 123.519 269.92 116.339 269.92 116.339 281.148 130.364 281.148 131.23 273.919 134.509 273.581 134.845 284.473 107.423 284.473 107.663 281.824 111.472 281.148 111.472 255.315 107.423 254.592 107.663 251.99 134.412 251.99" style="fill:#fff"/><path d="M154.13147,285.00309c-3.46962,0-8.9157-.96442-11.75972-2.457l1.20385-3.71083,13.10994,3.13321a7.78191,7.78191,0,0,0,4.09611-6.65323c0-3.80743-2.93961-6.02508-7.90367-6.02508a27.06528,27.06528,0,0,0-4.04825.33958l.24121-3.90277c1.25323.046,2.31274.09357,3.46936.09357a20.78654,20.78654,0,0,0,6.21716-.77071,8.31107,8.31107,0,0,0,1.4467-4.723c0-3.95151-3.1332-5.54421-7.51926-5.54421a21.30027,21.30027,0,0,0-6.506.96608l-.4824,6.266-3.374.384-.722-8.96292a33.07417,33.07417,0,0,1,11.22857-1.97531c7.23046,0,12.24212,2.50494,12.24212,8.38429a7.2225,7.2225,0,0,1-5.15587,7.3258v.2902c3.95164.96151,5.879,3.61561,5.879,7.56726,0,6.31377-4.91607,9.97495-11.66286,9.97495" style="fill:#fff"/><path d="M170.62128,291.22127l-.33781-10.07334H173.128l9.87987-25.83256-4.675-.72361.24121-2.60155h11.663l10.651,29.15772h2.84427l-.29021,9.68615-3.32515.38719-.72322-6.74857H174.71752l-.72183,6.36138Zm6.94064-10.07334h18.459l-8.86784-24.87131h-.33794Z" style="fill:#fff"/><path d="M221.71805,251.99059l-.24259,2.60155-4.24058.72361v25.83218h2.89061a33.49911,33.49911,0,0,0,8.82023-.9153,10.57138,10.57138,0,0,0,1.30236-5.10788c0-4.96546-3.95316-6.363-8.09675-6.363h-2.7968l.24108-3.22994h3.471c5.59042,0,12.242,1.97671,12.242,9.4471a8.76627,8.76627,0,0,1-3.18069,7.17981c-2.74919,2.07357-6.4105,2.31439-11.3743,2.31439h-12.5308l.24107-2.64915,3.8073-.676V255.31575l-4.04837-.72361.24107-2.60155Zm15.75922,29.83334,3.904-.676V255.31575l-4.14524-.72361.2412-2.60155H250.538l-.2412,2.60155-4.001.72361v25.83218l4.24223.676-.2412,2.64915H237.23607Z" style="fill:#fff"/><path d="M266.11717,281.82393l2.7478-.676,10.2178-25.83218-4.57814-.72361.24082-2.60155h11.80606l11.13488,29.15734,2.938.676-.2398,2.64915H287.56519l.23943-2.64915,4.81946-.676-2.45734-6.50686H275.90056l-2.5542,6.50686,5.10979.676-.24285,2.64915H265.87762Zm11.03662-10.3638h11.806l-5.6365-15.51789h-.28753Z" style="fill:#fff"/><path d="M315.81549,271.60409l.2412-2.60155h2.987a25.5975,25.5975,0,0,0,7.472-.91542,11.36525,11.36525,0,0,0,1.63839-5.88075c0-4.14359-2.31439-6.89138-8.82-6.89138h-5.49546v25.83269l5.44608.67587-.24107,2.64915H304.87572l.2412-2.64915,3.80578-.67587V255.315l-4.047-.72323.2412-2.60193h15.27669c6.65018,0,12.9147,2.26565,12.9147,10.02472a9.44757,9.44757,0,0,1-3.65979,7.9985,12.87008,12.87008,0,0,1-7.95406,2.31452h-1.73374Z" style="fill:#fff"/><path d="M365.12647,251.99021l-.29007,9.88152-3.32516.287-.91364-6.84339H348.4983v25.83256h4.38606a32.9355,32.9355,0,0,0,8.7711-.9153,10.065,10.065,0,0,0,1.30248-5.10827c0-4.67512-3.95164-5.97722-8.04762-5.97722H350.524l.23943-3.22995h5.01471c5.59017,0,12.28947,1.87807,12.28947,9.06131a8.78055,8.78055,0,0,1-3.23121,7.17981c-2.65094,2.07357-6.21551,2.31439-11.03485,2.31439H339.48738l.23993-2.64915,3.8087-.67562V255.31537l-4.04863-.72361.23993-2.60155Z" style="fill:#fff"/><path d="M372.55675,281.82393l2.74754-.676,10.21781-25.83218-4.57826-.72361.23982-2.60155h11.80883l11.1331,29.15734,2.93961.676-.23928,2.64915H394.003l.2412-2.64915,4.82111-.676-2.45911-6.50686H382.34154l-2.55395,6.50686,5.10789.676-.2412,2.64915h-12.337Zm11.038-10.3638h11.80605l-5.6365-15.51789h-.29058Z" style="fill:#fff"/><polygon points="437.437 262.062 434.112 262.399 433.195 255.315 425.438 255.315 425.438 281.148 430.447 281.824 430.208 284.473 415.413 284.473 415.653 281.824 420.472 281.148 420.472 255.315 412.666 255.315 411.798 262.062 408.424 262.399 408.086 251.99 437.774 251.99 437.437 262.062" style="fill:#fff"/><path d="M439.46835,281.82393l2.74614-.676L452.434,255.31575l-4.57851-.72361.2412-2.60155h11.80605l11.1345,29.15734,2.93822.676-.23968,2.64915H460.91637l.2393-2.64915,4.81959-.676-2.45734-6.50686H449.25174l-2.5542,6.50686,5.10941.676-.24247,2.64915H439.22715Zm11.03649-10.3638h11.80581l-5.6365-15.51789H456.387Z" style="fill:#fff"/><rect x="125.45756" y="351.845" width="54.68141" height="1.89394" style="fill:#fff"/><rect x="335.98552" y="351.82964" width="54.68319" height="1.89394" style="fill:#fff"/><polygon points="258.064 362.336 260.551 367.373 266.111 368.181 262.087 372.104 263.037 377.642 258.064 375.026 253.09 377.642 254.041 372.104 250.017 368.181 255.577 367.373 258.064 362.336" style="fill:#fff"/><polygon points="233.637 356.424 235.211 361.819 240.547 363.58 235.902 366.742 235.878 372.363 231.433 368.924 226.081 370.635 227.977 365.347 224.697 360.784 230.313 360.955 233.637 356.424" style="fill:#fff"/><polygon points="209.17 347.729 209.783 353.314 214.731 355.976 209.61 358.286 208.609 363.813 204.828 359.654 199.262 360.411 202.048 355.532 199.608 350.473 205.11 351.613 209.17 347.729" style="fill:#fff"/><polygon points="282.492 356.424 285.814 360.955 291.431 360.784 288.15 365.347 290.045 370.635 284.694 368.924 280.251 372.363 280.223 366.742 275.581 363.58 280.916 361.819 282.492 356.424" style="fill:#fff"/><polygon points="306.957 347.729 311.016 351.613 316.518 350.473 314.079 355.532 316.866 360.411 311.298 359.654 307.519 363.813 306.518 358.286 301.396 355.976 306.345 353.314 306.957 347.729" style="fill:#fff"/><path d="M126.91759,322.96835h-1.825V307.93857q.40674,0,1.922-.022,1.51271-.02,2.007-.02159a5.79966,5.79966,0,0,1,4.26076,1.32128,4.56519,4.56519,0,0,1,1.29969,3.33887,4.49969,4.49969,0,0,1-1.40684,3.349,5.48731,5.48731,0,0,1-4.00458,1.3751q-1.2444,0-2.25307-.087Zm2.275-13.35534q-.85824,0-2.275.04355V315.454c.81462.07033,1.54572.10727,2.18935.10727a3.87608,3.87608,0,0,0,2.59786-.8065,3.098,3.098,0,0,0,.08569-4.36931A3.784,3.784,0,0,0,129.19263,309.613Z" style="fill:#fff"/><path d="M141.98914,322.96835h-1.825V307.93857q.47187,0,2.1679-.022c1.13085-.01333,1.753-.02159,1.86842-.02159q5.3442,0,5.34642,4.46617a4.15569,4.15569,0,0,1-.95553,2.78016,4.38878,4.38878,0,0,1-2.3083,1.4721l5.00328,6.3549h-2.23315l-4.61672-6.012h-2.4473Zm2.10441-13.35534q-.68761,0-2.10441.04355v5.58166h2.2113a3.82016,3.82016,0,0,0,2.39361-.78277,2.48849,2.48849,0,0,0,1.02054-2.0723Q147.61459,309.61309,144.09355,309.613Z" style="fill:#fff"/><path d="M156.65266,322.96835V307.93857h1.82488v15.02978Z" style="fill:#fff"/><path d="M177.39473,307.93857l-6.18416,15.11508h-1.35149l-6.335-15.11508h1.95374l5.11018,12.36678,4.95986-12.36678Z" style="fill:#fff"/><path d="M178.6326,322.96835l6.4618-15.11509h1.56729l6.462,15.11509h-1.95385l-1.932-4.5516H182.3895l-1.912,4.5516Zm7.19111-12.68962-2.70489,6.42h5.41142Z" style="fill:#fff"/><path d="M194.43168,309.65656v-1.718h12.34674v1.718h-5.26073v13.31179h-1.82515V309.65656Z" style="fill:#fff"/><path d="M211.50228,322.96835V307.93857h8.4809v1.718h-6.65589v4.85259h6.01188v1.71774h-6.01188v5.02334h6.87v1.71812Z" style="fill:#fff"/><path d="M231.23257,322.96835l6.46179-15.11509h1.5673l6.46382,15.11509h-1.95386l-1.9338-4.5516h-6.84835l-1.912,4.5516Zm7.1911-12.68962-2.70487,6.42h5.41141Z" style="fill:#fff"/><path d="M252.38277,322.96835h-1.82666V307.93857c.271,0,.91339-.00686,1.92352-.022q1.51082-.02,2.00769-.02159,2.96069,0,4.25861,1.32128a4.56558,4.56558,0,0,1,1.30146,3.33887,4.4964,4.4964,0,0,1-1.40836,3.349,5.48793,5.48793,0,0,1-4.00458,1.3751q-1.24459,0-2.25168-.087Zm2.27516-13.35534q-.85822,0-2.27516.04355V315.454c.81285.07033,1.54572.10727,2.188.10727a3.88144,3.88144,0,0,0,2.59952-.8065,2.76057,2.76057,0,0,0,.94361-2.22121,2.73258,2.73258,0,0,0-.86-2.1481A3.78131,3.78131,0,0,0,254.65793,309.613Z" style="fill:#fff"/><path d="M262.34566,322.96835l6.4604-15.11509h1.56908l6.46,15.11509h-1.95373l-1.9305-4.5516H266.1027l-1.91362,4.5516Zm7.18984-12.68962-2.70336,6.42h5.40965Z" style="fill:#fff"/><path d="M283.49282,322.96835h-1.8231V307.93857q.47128,0,2.16776-.022c1.13061-.01333,1.753-.02159,1.86678-.02159q5.34935,0,5.34591,4.46617a4.15484,4.15484,0,0,1-.95338,2.78016,4.40132,4.40132,0,0,1-2.3083,1.4721l5.00138,6.3549h-2.23124l-4.617-6.012h-2.44883Zm2.10429-13.35534c-.45841,0-1.15776.01511-2.10429.04355v5.58166h2.21144a3.81857,3.81857,0,0,0,2.39538-.78277,2.48982,2.48982,0,0,0,1.02054-2.0723Q289.12018,309.61309,285.59711,309.613Z" style="fill:#fff"/><path d="M294.77724,309.65656v-1.718h12.34484v1.718h-5.259v13.31179h-1.82323V309.65656Z" style="fill:#fff"/><path d="M311.84594,322.96835V307.93857h1.84684l5.647,7.708,5.40977-7.708h1.73995v15.02978H324.663V310.81547l-5.32319,7.47242h-.2808l-5.38947-7.40692v12.08738Z" style="fill:#fff"/><path d="M333.23049,322.96835V307.93857h8.481v1.718H335.0541v4.85259h6.0115v1.71774h-6.0115v5.02334h6.87145v1.71812Z" style="fill:#fff"/><path d="M360.36947,322.96835h-1.45863l-9.384-11.80987v11.80987h-1.71634V307.93857h1.45863l9.384,11.85163V307.93857h1.71634Z" style="fill:#fff"/><path d="M365.09321,309.65656v-1.718h12.34495v1.718h-5.25883v13.31179H370.3556V309.65656Z" style="fill:#fff"/><path d="M388.68933,319.1241a2.16952,2.16952,0,0,0-.40814-1.3096,3.15844,3.15844,0,0,0-1.0538-.91174,13.81038,13.81038,0,0,0-1.42536-.67587c-.5252-.21569-1.04695-.448-1.56908-.69733a9.16091,9.16091,0,0,1-1.42856-.84827,3.60394,3.60394,0,0,1-1.05037-1.246,3.77216,3.77216,0,0,1-.408-1.78147,3.651,3.651,0,0,1,1.22441-2.802,4.68234,4.68234,0,0,1,3.3051-1.1273,6.53654,6.53654,0,0,1,2.39551.42985,4.542,4.542,0,0,1,1.74973,1.13733l-.9869,1.37345a4.14654,4.14654,0,0,0-3.05107-1.22276,3.01377,3.01377,0,0,0-1.97392.60021,1.97653,1.97653,0,0,0-.7293,1.61122,2.14919,2.14919,0,0,0,.408,1.3096,3.07929,3.07929,0,0,0,1.05075.90171,13.98488,13.98488,0,0,0,1.42842.654q.78264.31077,1.56565.67727a8.77686,8.77686,0,0,1,1.42855.82669,3.47923,3.47923,0,0,1,1.05381,1.25615,3.945,3.945,0,0,1,.405,1.825,3.60062,3.60062,0,0,1-1.40521,2.95065,5.39405,5.39405,0,0,1-3.4893,1.12743,6.92393,6.92393,0,0,1-2.83386-.61049,3.77125,3.77125,0,0,1-1.91019-1.64271l1.05075-1.24625a4.38409,4.38409,0,0,0,1.67584,1.30972,4.86427,4.86427,0,0,0,2.0407.47339,3.42645,3.42645,0,0,0,2.09121-.62382A2.01437,2.01437,0,0,0,388.68933,319.1241Z" style="fill:#fff"/><path d="M191.45005,411.91929a6.509,6.509,0,0,0,3.39294.96253c1.94,0,3.07355-1.02841,3.07355-2.51574,0-1.335-.77578-2.14631-2.7615-2.89733-2.40961-.87214-3.89186-2.14-3.89186-4.19539,0-2.291,1.90448-3.993,4.76741-3.993a6.616,6.616,0,0,1,3.22627.71675l-.53,1.55728a5.298,5.298,0,0,0-2.758-.70609c-2.01086,0-2.78423,1.21489-2.78423,2.20027,0,1.38335.90476,2.05427,2.92375,2.84986,2.48692.96137,3.74839,2.16853,3.74839,4.3255,0,2.27149-1.67165,4.2454-5.13466,4.2454a7.68712,7.68712,0,0,1-3.76669-.94563Z" style="fill:#fff"/><polygon points="211.821 407.345 206.13 407.345 206.13 412.631 212.489 412.631 212.489 414.244 204.198 414.244 204.198 399.52 212.165 399.52 212.165 401.116 206.13 401.116 206.13 405.756 211.821 405.756 211.821 407.345" style="fill:#fff"/><path d="M218.59792,406.41139h1.94764c2.028,0,3.33405-1.10876,3.33405-2.79209,0-1.90562-1.38881-2.72254-3.39829-2.72254a8.59093,8.59093,0,0,0-1.8834.14993Zm-1.88861-6.69029a21.69954,21.69954,0,0,1,3.6391-.31852,6.18817,6.18817,0,0,1,4.27155,1.20487,3.81433,3.81433,0,0,1,1.15333,2.82358,3.87816,3.87816,0,0,1-2.75,3.72987v.07375c1.12058.388,1.78743,1.43629,2.14137,2.95371a24.60144,24.60144,0,0,0,1.1282,4.05891H224.332a18.33663,18.33663,0,0,1-.95871-3.52345c-.43683-2.03459-1.24968-2.80009-2.9697-2.86179h-1.80571v6.38524h-1.88861Z" style="fill:#fff"/><path d="M233.78676,414.24448l-4.836-14.72472h2.08589l2.2937,7.24518c.6115,1.98992,1.15751,3.78116,1.57948,5.5041h.05523c.41067-1.6992.99172-3.55747,1.66784-5.479l2.48958-7.27032h2.03194l-5.26328,14.72472Z" style="fill:#fff"/><rect x="244.48723" y="399.51569" width="1.89635" height="14.72472" style="fill:#fff"/><path d="M261.73441,413.77629a9.388,9.388,0,0,1-3.88792.69822c-4.14244,0-7.25052-2.61691-7.25052-7.48322a7.30674,7.30674,0,0,1,7.68748-7.71477,7.86351,7.86351,0,0,1,3.4719.65239l-.4603,1.55042a6.9175,6.9175,0,0,0-2.95535-.61011c-3.45491,0-5.7406,2.20813-5.7406,6.06533,0,3.63529,2.07534,5.92772,5.63687,5.92772a7.542,7.542,0,0,0,3.117-.617Z" style="fill:#fff"/><polygon points="273.475 407.345 267.776 407.345 267.776 412.631 274.159 412.631 274.159 414.244 265.852 414.244 265.852 399.52 273.818 399.52 273.818 401.116 267.776 401.116 267.776 405.756 273.475 405.756 273.475 407.345" style="fill:#fff"/><path d="M280.26516,412.75055a15.625,15.625,0,0,0,1.9239.08023c4.09687,0,6.26832-2.26094,6.26832-6.23518.02374-3.47229-1.949-5.6897-5.96682-5.6897a10.1004,10.1004,0,0,0-2.2254.21188Zm-1.90435-13.01232a24.6519,24.6519,0,0,1,4.04406-.33565c2.73447,0,4.68071.65252,5.96454,1.84812a6.66543,6.66543,0,0,1,2.0935,5.28421,7.87042,7.87042,0,0,1-2.10544,5.71039c-1.41,1.3798-3.676,2.12549-6.54836,2.12549a28.18373,28.18373,0,0,1-3.4483-.1828Z" style="fill:#fff"/><path d="M302.95588,412.79651a10.07727,10.07727,0,0,0,1.58216.08289c1.9663,0,3.77594-.70887,3.77594-2.84884,0-1.9988-1.72027-2.83945-3.80235-2.83945h-1.55575Zm0-7.04017h1.70975c1.9833,0,3.16176-1.06129,3.16176-2.48691,0-1.69806-1.28522-2.40021-3.21306-2.40021a7.69874,7.69874,0,0,0-1.65845.13012Zm-1.92022-6.01811a16.87982,16.87982,0,0,1,3.476-.33565,5.96053,5.96053,0,0,1,4.0155,1.07995,3.08324,3.08324,0,0,1,1.24,2.59482,3.48483,3.48483,0,0,1-2.47777,3.2354v.06716a3.74942,3.74942,0,0,1,3.03291,3.65877,3.91387,3.91387,0,0,1-1.25742,2.9513c-1.00758.93484-2.67632,1.38081-5.09252,1.38081a21.01745,21.01745,0,0,1-2.9367-.1828Z" style="fill:#fff"/><path d="M317.57651,414.24448v-6.25741l-4.67919-8.46731h2.18846l2.0779,4.06132c.55107,1.11258.99945,2.01366,1.46776,3.03686h.03822c.38541-.959.91377-1.92428,1.48492-3.03686l2.116-4.06132h2.141l-4.91467,8.45v6.27467Z" style="fill:#fff"/><path d="M176.65563,443.757c-.12631-3.71145-.26836-8.22789-.26836-12.73354h-.09852c-1.01279,3.95216-2.28735,8.37122-3.5,11.99851l-3.76515,12.08649h-5.48048l-3.3117-11.94862c-.9968-3.66538-2.00946-8.08419-2.797-12.13638h-.08163c-.146,4.19044-.32359,8.97346-.51554,12.82165l-.59983,11.78015h-6.48654l1.98991-30.98183h9.31952l3.03394,10.33219c1.02193,3.59415,1.94129,7.45173,2.625,11.07927h.1922c.8206-3.579,1.87541-7.67681,2.942-11.112l3.259-10.29943h9.19562l1.67026,30.98183h-6.80316Z" style="fill:#fff"/><path d="M204.298,442.42736l-1.94383-6.572c-.54981-1.84773-1.09176-4.14283-1.54395-5.98383h-.108c-.44978,1.841-.91009,4.18865-1.41763,5.98383l-1.82831,6.572Zm-7.86736,5.228-2.20953,7.97133h-7.215l9.42451-30.98323h9.19447l9.66114,30.98323H207.7017l-2.40148-7.97133Z" style="fill:#fff"/><path d="M226.31256,438.3805h2.77115c3.49844,0,5.57253-1.75049,5.57253-4.44775,0-2.80924-1.9399-4.27968-5.17124-4.27968a14.6686,14.6686,0,0,0-3.17244.21708Zm-6.93492-13.32283a60.78671,60.78671,0,0,1,9.34313-.652c4.59006,0,7.81226.69034,10.01634,2.44083a7.83722,7.83722,0,0,1,2.89607,6.53656,8.18433,8.18433,0,0,1-5.47109,7.566v.15271c2.153.87328,3.35359,2.88135,4.13216,5.74606.96938,3.53373,1.89915,7.56624,2.48717,8.77479h-7.15607a38.56173,38.56173,0,0,1-2.13195-7.22564c-.87837-3.88906-2.20548-4.90426-5.10549-4.96355h-2.07535v12.18919h-6.93492Z" style="fill:#fff"/><path d="M253.59462,438.3805h2.766c3.48649,0,5.54749-1.75049,5.54749-4.44775,0-2.80924-1.92555-4.27968-5.14914-4.27968a14.48116,14.48116,0,0,0-3.16431.21708ZM246.652,425.05767a60.7,60.7,0,0,1,9.32713-.652c4.59515,0,7.83068.69034,10.04542,2.44083a7.872,7.872,0,0,1,2.87094,6.53656,8.18342,8.18342,0,0,1-5.45942,7.566v.15271c2.15317.87328,3.355,2.88135,4.13369,5.74606.97077,3.53373,1.89242,7.56624,2.49365,8.77479h-7.1835a40.85992,40.85992,0,0,1-2.115-7.22564c-.87175-3.88906-2.20267-4.90426-5.11867-4.96355h-2.05161v12.18919H246.652Z" style="fill:#fff"/><rect x="273.96815" y="424.64344" width="6.98229" height="30.98183" style="fill:#fff"/><path d="M292.9935,440.1852c0,6.09961,2.84592,10.38842,7.54491,10.38842,4.74278,0,7.45719-4.51872,7.45719-10.52806,0-5.61962-2.63164-10.39249-7.45719-10.39249-4.78316,0-7.54491,4.4913-7.54491,10.53213m22.39734-.38046c0,10.21247-6.11548,16.32693-15.2179,16.32693-9.15095,0-14.57608-6.95346-14.57608-15.82193,0-9.28627,5.96428-16.21459,15.08652-16.21459,9.50207,0,14.70746,7.10174,14.70746,15.70959" style="fill:#fff"/><polygon points="324.727 430.516 316.362 430.516 316.362 424.643 340.177 424.643 340.177 430.516 331.72 430.516 331.72 455.627 324.727 455.627 324.727 430.516" style="fill:#fff"/><polygon points="350.929 430.516 342.564 430.516 342.564 424.643 366.376 424.643 366.376 430.516 357.917 430.516 357.917 455.627 350.929 455.627 350.929 430.516" style="fill:#fff"/></svg>