<?xml version="1.0" encoding="utf-8"?>
<!-- Generator: Adobe Illustrator 23.0.0, SVG Export Plug-In . SVG Version: 6.00 Build 0)  -->
<svg version="1.1" id="Слой_1" xmlns="http://www.w3.org/2000/svg" xmlns:xlink="http://www.w3.org/1999/xlink" x="0px" y="0px"
	 viewBox="0 0 457.2 360.2" style="enable-background:new 0 0 457.2 360.2;" xml:space="preserve">
<style type="text/css">
	.st0{fill:#FFFFFF;}
</style>
<g>
	<path class="st0" d="M226.7,11.6c-4.6,4.1-8.3,8-14.9,8c-2.6,0-5.2-0.3-7.8-0.5c6,2.2,11.4,4.1,18,3.1c3.5-0.5,7.1-1.6,10-3.7
		c2.7-2,4.8-4.9,8-6c4.4-1.6,9.7,0.4,14.2,1.2c-3.1-2-6.3-4.3-9.7-5.7C237.9,5.2,231.8,7,226.7,11.6"/>
	<path class="st0" d="M209.1,8.7c-7.1,0.9-11.5,5.5-13.6,12.1c-1.9,5.8-3.2,11.1-8.9,14.4c-2.3,1.3-4.7,2.4-7,3.5
		c6.3-1.1,12-2.1,17.2-6.3c2.7-2.2,5.4-4.9,6.8-8.2c1.3-3.1,1.7-6.6,3.9-9.2c3-3.6,8.6-4.5,12.9-6.1C216.6,8.7,212.8,8.3,209.1,8.7"
		/>
	<path class="st0" d="M188.5,21.5c-3.3,1.7-6.8,3.3-9.8,5.5c-5.7,4.3-7.2,10.5-5.7,17.2c1.3,6,2.7,11.2-0.5,16.9
		c-1.3,2.2-2.9,4.4-4.3,6.5c4.9-4.1,9.3-7.8,11.7-14c1.3-3.3,2.2-7,1.8-10.5c-0.4-3.3-1.8-6.5-1.2-10
		C181.3,28.6,185.6,25.1,188.5,21.5"/>
	<path class="st0" d="M172.3,70.7c-2-2.7-4.9-4.8-6-8c-1.6-4.4,0.4-9.7,1.1-14.2c-2,3.1-4.3,6.3-5.7,9.7c-2.8,6.6-1,12.7,3.6,17.8
		c4.1,4.6,8,8.3,8,14.9c0,2.6-0.3,5.2-0.5,7.8c2.2-6,4.2-11.4,3.1-18C175.5,77.2,174.4,73.5,172.3,70.7"/>
	<path class="st0" d="M177.9,99.1c-3.1-1.3-6.6-1.7-9.2-3.9c-3.6-3-4.5-8.6-6.1-12.9c-0.1,3.7-0.5,7.6-0.1,11.3
		c0.9,7.1,5.5,11.5,12.1,13.6c5.8,1.9,11.1,3.2,14.4,8.9c1.3,2.3,2.4,4.7,3.5,7c-1.1-6.3-2.1-12-6.3-17.2
		C183.9,103.1,181.1,100.5,177.9,99.1"/>
	<path class="st0" d="M207.4,122.7c-3.3-1.3-7-2.2-10.5-1.8c-3.3,0.4-6.5,1.8-10,1.2c-4.6-0.8-8.2-5.2-11.8-8.1
		c1.7,3.3,3.3,6.8,5.5,9.8c4.3,5.7,10.5,7.2,17.2,5.7c6-1.3,11.2-2.7,16.9,0.5c2.3,1.3,4.4,2.9,6.5,4.3
		C217.3,129.5,213.6,125.1,207.4,122.7"/>
	<path class="st0" d="M234.3,126.6c-3.5,0.5-7.1,1.6-10,3.7c-2.7,2-4.8,4.9-8,6c-4.4,1.6-9.7-0.4-14.2-1.1c3.1,2,6.3,4.3,9.7,5.7
		c6.6,2.8,12.7,1,17.8-3.6c4.6-4.1,8.3-8,14.9-8c2.6,0,5.2,0.3,7.8,0.5C246.3,127.6,240.9,125.6,234.3,126.6"/>
	<path class="st0" d="M252.8,124.7c-1.3,3.1-1.7,6.6-3.9,9.2c-3,3.6-8.6,4.5-12.9,6.1c3.7,0.1,7.6,0.5,11.3,0.1
		c7.1-0.9,11.5-5.5,13.6-12.1c1.9-5.8,3.2-11.1,8.9-14.4c2.3-1.3,4.7-2.4,7-3.5c-6.3,1.1-12,2.1-17.2,6.3
		C256.8,118.7,254.2,121.5,252.8,124.7"/>
	<path class="st0" d="M276.4,95.2c-1.3,3.3-2.2,7-1.8,10.5c0.4,3.3,1.8,6.5,1.2,10c-0.8,4.6-5.2,8.2-8.1,11.8
		c3.3-1.7,6.8-3.3,9.8-5.5c5.7-4.3,7.2-10.5,5.7-17.2c-1.3-6-2.7-11.2,0.5-16.9c1.3-2.3,2.9-4.4,4.3-6.5
		C283.2,85.3,278.8,89,276.4,95.2"/>
	<path class="st0" d="M283,58.1c0-2.6,0.3-5.2,0.5-7.8c-2.2,6-4.1,11.4-3.1,18c0.5,3.5,1.6,7.1,3.7,10c2,2.7,4.9,4.8,6,8
		c1.6,4.4-0.4,9.7-1.1,14.2c2-3.1,4.3-6.3,5.7-9.7c2.8-6.6,1-12.7-3.6-17.8C286.8,68.4,283,64.7,283,58.1"/>
	<path class="st0" d="M281.8,41.8c-5.8-1.9-11.1-3.2-14.4-8.9c-1.3-2.3-2.4-4.7-3.5-7c1.1,6.3,2.1,12,6.3,17.2
		c2.2,2.7,4.9,5.4,8.2,6.8c3.1,1.3,6.6,1.7,9.2,3.9c3.6,3,4.5,8.6,6.1,12.9c0.1-3.7,0.5-7.6,0.1-11.3
		C293,48.2,288.4,43.9,281.8,41.8"/>
	<path class="st0" d="M258.3,19.3c-6,1.3-11.2,2.7-16.9-0.5c-2.3-1.3-4.4-2.9-6.5-4.3c4.1,4.9,7.8,9.3,14,11.7
		c3.3,1.3,7,2.2,10.5,1.8c3.3-0.4,6.5-1.8,10-1.2c4.6,0.8,8.2,5.2,11.8,8.1c-1.7-3.3-3.3-6.8-5.5-9.8
		C271.2,19.3,265,17.9,258.3,19.3"/>
	<path class="st0" d="M203.5,94l4-1l14.7-37.2l-6.6-1l0.3-3.7h17l16,42l4.2,1l-0.3,3.8h-18.5l0.3-3.8l6.9-1l-3.5-9.4h-20.5l-3.7,9.4
		l7.4,1l-0.4,3.8h-17.8L203.5,94z M219.4,79.1h17l-8.1-22.4h-0.4L219.4,79.1z"/>
	<path class="st0" d="M63.7,206.7c-2.8,0-7.2-0.8-9.5-2l1-3l10.6,2.5c2-1.1,3.3-3.1,3.3-5.4c0-3.1-2.4-4.9-6.4-4.9
		c-1.1,0-2.2,0.1-3.3,0.3l0.2-3.2c1,0,1.9,0.1,2.8,0.1c1.7,0,3.4-0.2,5-0.6c0.8-1.1,1.2-2.5,1.2-3.8c0-3.2-2.5-4.5-6.1-4.5
		c-1.8,0-3.6,0.3-5.3,0.8l-0.4,5.1l-2.7,0.3l-0.6-7.2c2.9-1.1,6-1.6,9.1-1.6c5.8,0,9.9,2,9.9,6.8c0.2,2.7-1.6,5.2-4.2,5.9v0.2
		c3.2,0.8,4.8,2.9,4.8,6.1C73.2,203.8,69.2,206.7,63.7,206.7"/>
	<path class="st0" d="M78.4,204.1l3.1-0.5v-20.9l-3.3-0.6l0.2-2.1h13.3c4.7,0,9,1.4,9,6.4c0.1,2.7-1.5,5.1-4,6.1v0.3
		c2.5,0.7,4.7,2.5,4.7,6.4c0.1,1.9-0.7,3.8-2.1,5.1c-2.1,1.8-5.5,2-8.6,2H78.2L78.4,204.1z M87.3,191.7h2.1c2,0.1,4.1-0.1,6-0.7
		c0.9-1.1,1.3-2.4,1.2-3.8c0-3.8-2.8-4.4-6.8-4.4h-4.5v20.9h4.1c2.3,0.1,4.6-0.1,6.9-0.7c0.6-1.2,0.9-2.6,0.9-3.9
		c0-3.7-2.5-4.8-6-4.8h-4.1L87.3,191.7z"/>
	<polygon class="st0" points="128.2,180 127.9,188.1 125.3,188.4 124.6,182.7 113.6,182.7 113.6,191.9 119.3,191.9 119.1,189 
		122.2,188.8 121.9,198.1 119.8,198.3 119.4,194.5 113.6,194.5 113.6,203.6 124.9,203.6 125.6,197.8 128.3,197.5 128.5,206.3 
		106.4,206.3 106.6,204.1 109.6,203.6 109.6,182.7 106.4,182.1 106.6,180 	"/>
	<path class="st0" d="M144.1,206.7c-2.8,0-7.2-0.8-9.5-2l1-3l10.6,2.5c2-1.1,3.3-3.1,3.3-5.4c0-3.1-2.4-4.9-6.4-4.9
		c-1.1,0-2.2,0.1-3.3,0.3l0.2-3.2c1,0,1.9,0.1,2.8,0.1c1.7,0,3.4-0.2,5-0.6c0.8-1.1,1.2-2.5,1.2-3.8c0-3.2-2.5-4.5-6.1-4.5
		c-1.8,0-3.6,0.3-5.3,0.8l-0.4,5.1l-2.7,0.3l-0.6-7.2c2.9-1.1,6-1.6,9.1-1.6c5.8,0,9.9,2,9.9,6.8c0.2,2.7-1.6,5.2-4.2,5.9v0.2
		c3.2,0.8,4.8,2.9,4.8,6.1C153.6,203.8,149.6,206.7,144.1,206.7"/>
	<path class="st0" d="M157.5,211.7l-0.3-8.1h2.3l8-20.9l-3.8-0.6l0.2-2.1h9.4l8.6,23.6h2.3l-0.2,7.8l-2.7,0.3l-0.6-5.5h-19.9
		l-0.6,5.1L157.5,211.7z M163.1,203.6H178l-7.2-20.1h-0.3L163.1,203.6z"/>
	<path class="st0" d="M198.8,180l-0.2,2.1l-3.4,0.6v20.9h2.3c2.4,0.1,4.8-0.2,7.1-0.7c0.7-1.3,1.1-2.7,1.1-4.1c0-4-3.2-5.1-6.5-5.1
		h-2.3l0.2-2.6h2.8c4.5,0,9.9,1.6,9.9,7.6c0.1,2.2-0.8,4.4-2.6,5.8c-2.2,1.7-5.2,1.9-9.2,1.9h-10.1l0.2-2.1l3.1-0.5v-20.9l-3.3-0.6
		l0.2-2.1L198.8,180z M211.5,204.1l3.2-0.5v-20.9l-3.4-0.6l0.2-2.1H222l-0.2,2.1l-3.2,0.6v20.9l3.4,0.5l-0.2,2.1h-10.6L211.5,204.1z
		"/>
	<path class="st0" d="M234.6,204.1l2.2-0.5l8.3-20.9l-3.7-0.6l0.2-2.1h9.5l9,23.6l2.4,0.5l-0.2,2.1H252l0.2-2.1l3.9-0.5l-2-5.3
		h-11.5l-2.1,5.3l4.1,0.5l-0.2,2.1h-10L234.6,204.1z M243.6,195.8h9.5l-4.6-12.5h-0.2L243.6,195.8z"/>
	<path class="st0" d="M274.8,195.9l0.2-2.1h2.4c2,0.1,4.1-0.2,6-0.7c0.9-1.4,1.3-3.1,1.3-4.8c0-3.4-1.9-5.6-7.1-5.6h-4.4v20.9
		l4.4,0.5l-0.2,2.1H266l0.2-2.1l3.1-0.5v-20.9l-3.3-0.6l0.2-2.1h12.4c5.4,0,10.4,1.8,10.4,8.1c0.1,2.5-1,4.9-3,6.5
		c-1.9,1.3-4.1,2-6.4,1.9h-1.4L274.8,195.9z"/>
	<path class="st0" d="M314.7,180l-0.2,8l-2.7,0.2l-0.7-5.5h-9.8v20.9h3.5c2.4,0.1,4.8-0.2,7.1-0.7c0.7-1.3,1.1-2.7,1.1-4.1
		c0-3.8-3.2-4.8-6.5-4.8h-3.5l0.2-2.6h4.1c4.5,0,9.9,1.5,9.9,7.3c0.1,2.2-0.9,4.4-2.6,5.8c-2.1,1.7-5,1.9-8.9,1.9h-11.6l0.2-2.1
		l3.1-0.5v-20.9l-3.3-0.6l0.2-2.1L314.7,180z"/>
	<path class="st0" d="M320.7,204.1l2.2-0.5l8.3-20.9l-3.7-0.6l0.2-2.1h9.5l9,23.6l2.4,0.5l-0.2,2.1H338l0.2-2.1l3.9-0.5l-2-5.3
		h-11.5l-2.1,5.3l4.1,0.5l-0.2,2.1h-10L320.7,204.1z M329.6,195.8h9.5l-4.6-12.5h-0.2L329.6,195.8z"/>
	<polygon class="st0" points="373.1,188.2 370.4,188.4 369.7,182.7 363.4,182.7 363.4,203.6 367.5,204.1 367.3,206.3 355.3,206.3 
		355.5,204.1 359.4,203.6 359.4,182.7 353.1,182.7 352.4,188.2 349.7,188.4 349.4,180 373.4,180 	"/>
	<path class="st0" d="M374.8,204.1l2.2-0.5l8.3-20.9l-3.7-0.6l0.2-2.1h9.5l9,23.6l2.4,0.5l-0.2,2.1h-10.4l0.2-2.1l3.9-0.5l-2-5.3
		h-11.5l-2.1,5.3l4.1,0.5l-0.2,2.1h-10L374.8,204.1z M383.7,195.8h9.5l-4.6-12.5h-0.2L383.7,195.8z"/>
	<rect x="120.9" y="260.7" class="st0" width="44.2" height="1.5"/>
	<rect x="291.1" y="260.7" class="st0" width="44.2" height="1.5"/>
	<polygon class="st0" points="228.1,269.2 230.1,273.3 234.6,274 231.4,277.1 232.2,281.6 228.1,279.5 224.1,281.6 224.9,277.1 
		221.6,274 226.1,273.3 	"/>
	<polygon class="st0" points="208.4,264.4 209.7,268.8 214,270.2 210.2,272.8 210.2,277.3 206.6,274.6 202.3,275.9 203.8,271.7 
		201.2,268 205.7,268.1 	"/>
	<polygon class="st0" points="188.6,257.4 189.1,261.9 193.1,264.1 189,266 188.2,270.4 185.1,267.1 180.6,267.7 182.9,263.7 
		180.9,259.6 185.3,260.6 	"/>
	<polygon class="st0" points="247.9,264.4 250.6,268.1 255.1,268 252.5,271.7 254,275.9 249.7,274.6 246.1,277.3 246,272.8 
		242.3,270.2 246.6,268.8 	"/>
	<polygon class="st0" points="267.7,257.4 270.9,260.6 275.4,259.6 273.4,263.7 275.7,267.7 271.2,267.1 268.1,270.4 267.3,266 
		263.2,264.1 267.2,261.9 	"/>
	<path class="st0" d="M122.1,237.4h-1.5v-12.1c0.2,0,0.7,0,1.6,0c0.8,0,1.4,0,1.6,0c1.2-0.1,2.5,0.3,3.4,1.1
		c0.7,0.7,1.1,1.7,1.1,2.7c0,1-0.4,2-1.1,2.7c-0.9,0.8-2.1,1.2-3.2,1.1c-0.7,0-1.3,0-1.8-0.1L122.1,237.4z M124,226.6
		c-0.5,0-1.1,0-1.8,0v4.7c0.7,0.1,1.3,0.1,1.8,0.1c0.8,0,1.5-0.2,2.1-0.7c0.5-0.5,0.8-1.1,0.8-1.8c0-0.7-0.2-1.3-0.7-1.7
		C125.5,226.8,124.7,226.6,124,226.6L124,226.6z"/>
	<path class="st0" d="M134.3,237.4h-1.5v-12.1c0.3,0,0.8,0,1.8,0c0.9,0,1.4,0,1.5,0c2.9,0,4.3,1.2,4.3,3.6c0,0.8-0.2,1.6-0.8,2.2
		c-0.5,0.6-1.1,1-1.9,1.2l4,5.1H140l-3.7-4.9h-2L134.3,237.4z M136,226.6c-0.4,0-0.9,0-1.7,0v4.5h1.8c0.7,0,1.4-0.2,1.9-0.6
		c0.5-0.4,0.8-1,0.8-1.7C138.9,227.4,137.9,226.6,136,226.6L136,226.6z"/>
	<path class="st0" d="M146.2,237.4v-12.1h1.5v12.1H146.2z"/>
	<path class="st0" d="M162.9,225.3l-5,12.2h-1.1l-5.1-12.2h1.6l4.1,10l4-10L162.9,225.3z"/>
	<path class="st0" d="M163.9,237.4l5.2-12.2h1.3l5.2,12.2h-1.6l-1.6-3.7H167l-1.5,3.7H163.9z M169.7,227.1l-2.2,5.2h4.4L169.7,227.1
		z"/>
	<path class="st0" d="M176.7,226.6v-1.4h10v1.4h-4.3v10.8H181v-10.8H176.7z"/>
	<path class="st0" d="M190.5,237.4v-12.1h6.9v1.4H192v3.9h4.9v1.4H192v4.1h5.6v1.4L190.5,237.4z"/>
	<path class="st0" d="M206.5,237.4l5.2-12.2h1.3l5.2,12.2h-1.6l-1.6-3.7h-5.5l-1.5,3.7H206.5z M212.3,227.1l-2.2,5.2h4.4
		L212.3,227.1z"/>
	<path class="st0" d="M223.6,237.4h-1.5v-12.1c0.2,0,0.7,0,1.6,0c0.8,0,1.4,0,1.6,0c1.2-0.1,2.5,0.3,3.4,1.1
		c0.7,0.7,1.1,1.7,1.1,2.7c0,1-0.4,2-1.1,2.7c-0.9,0.8-2.1,1.2-3.2,1.1c-0.7,0-1.3,0-1.8-0.1V237.4z M225.4,226.6
		c-0.5,0-1.1,0-1.8,0v4.7c0.7,0.1,1.3,0.1,1.8,0.1c0.8,0,1.5-0.2,2.1-0.7c0.5-0.5,0.8-1.1,0.8-1.8c0-0.7-0.2-1.3-0.7-1.7
		C226.9,226.8,226.2,226.6,225.4,226.6L225.4,226.6z"/>
	<path class="st0" d="M231.6,237.4l5.2-12.2h1.3l5.2,12.2h-1.6l-1.6-3.7h-5.5l-1.5,3.7H231.6z M237.4,227.1l-2.2,5.2h4.4
		L237.4,227.1z"/>
	<path class="st0" d="M248.7,237.4h-1.5v-12.1c0.3,0,0.8,0,1.8,0c0.9,0,1.4,0,1.5,0c2.9,0,4.3,1.2,4.3,3.6c0,0.8-0.2,1.6-0.8,2.2
		c-0.5,0.6-1.1,1-1.9,1.2l4,5.1h-1.8l-3.7-4.9h-2L248.7,237.4z M250.4,226.6c-0.4,0-0.9,0-1.7,0v4.5h1.8c0.7,0,1.4-0.2,1.9-0.6
		c0.5-0.4,0.8-1,0.8-1.7C253.2,227.4,252.3,226.6,250.4,226.6L250.4,226.6z"/>
	<path class="st0" d="M257.8,226.6v-1.4h10v1.4h-4.3v10.8h-1.5v-10.8H257.8z"/>
	<path class="st0" d="M271.6,237.4v-12.1h1.5l4.6,6.2l4.4-6.2h1.4v12.1H282v-9.8l-4.3,6h-0.2l-4.4-6v9.8H271.6z"/>
	<path class="st0" d="M288.9,237.4v-12.1h6.9v1.4h-5.4v3.9h4.9v1.4h-4.9v4.1h5.6v1.4L288.9,237.4z"/>
	<path class="st0" d="M310.9,237.4h-1.2l-7.6-9.5v9.5h-1.4v-12.1h1.2l7.6,9.6v-9.6h1.4L310.9,237.4z"/>
	<path class="st0" d="M314.7,226.6v-1.4h10v1.4h-4.3v10.8h-1.5v-10.8H314.7z"/>
	<path class="st0" d="M333.8,234.3c0-0.4-0.1-0.7-0.3-1.1c-0.2-0.3-0.5-0.6-0.9-0.7c-0.4-0.2-0.8-0.4-1.2-0.5
		c-0.4-0.2-0.8-0.4-1.3-0.6c-0.4-0.2-0.8-0.4-1.2-0.7c-0.4-0.3-0.6-0.6-0.8-1c-0.2-0.4-0.3-0.9-0.3-1.4c0-0.9,0.3-1.7,1-2.3
		c0.7-0.6,1.7-1,2.7-0.9c0.7,0,1.3,0.1,1.9,0.3c0.5,0.2,1,0.5,1.4,0.9l-0.8,1.1c-0.7-0.7-1.5-1-2.5-1c-0.6,0-1.1,0.1-1.6,0.5
		c-0.4,0.3-0.6,0.8-0.6,1.3c0,0.4,0.1,0.8,0.3,1.1c0.2,0.3,0.5,0.6,0.9,0.7c0.4,0.2,0.8,0.4,1.2,0.5c0.4,0.2,0.8,0.4,1.3,0.5
		c0.4,0.2,0.8,0.4,1.2,0.7c0.4,0.3,0.7,0.6,0.8,1c0.2,0.5,0.3,1,0.3,1.5c0,0.9-0.4,1.8-1.1,2.4c-0.8,0.6-1.8,0.9-2.8,0.9
		c-0.8,0-1.6-0.2-2.3-0.5c-0.7-0.3-1.2-0.7-1.5-1.3l0.8-1c0.4,0.5,0.8,0.8,1.4,1.1c0.5,0.2,1.1,0.4,1.6,0.4c0.6,0,1.2-0.2,1.7-0.5
		C333.5,235.4,333.8,234.8,333.8,234.3z"/>
</g>
<g>
	<g>
		<path class="st0" d="M176.3,318.7c-0.8-0.3-1.3-0.6-1.8-1l0.5-0.9c0.4,0.4,0.9,0.7,1.6,1c0.7,0.2,1.4,0.4,2.1,0.4
			c1,0,1.7-0.2,2.2-0.5c0.5-0.4,0.7-0.8,0.7-1.4c0-0.4-0.1-0.8-0.4-1.1c-0.3-0.3-0.6-0.5-1-0.6c-0.4-0.1-0.9-0.3-1.6-0.5
			c-0.8-0.2-1.5-0.4-2-0.6c-0.5-0.2-0.9-0.5-1.3-0.9c-0.4-0.4-0.5-0.9-0.5-1.6c0-0.6,0.1-1.1,0.4-1.5c0.3-0.5,0.8-0.8,1.4-1.1
			c0.6-0.3,1.4-0.4,2.3-0.4c0.6,0,1.3,0.1,1.9,0.3c0.6,0.2,1.1,0.4,1.6,0.7l-0.4,0.9c-0.5-0.3-1-0.5-1.5-0.7c-0.5-0.2-1-0.2-1.6-0.2
			c-1,0-1.7,0.2-2.2,0.6c-0.5,0.4-0.7,0.9-0.7,1.5c0,0.4,0.1,0.8,0.4,1.1c0.3,0.3,0.6,0.5,1,0.6c0.4,0.1,1,0.3,1.6,0.5
			c0.8,0.2,1.5,0.4,2,0.6c0.5,0.2,0.9,0.5,1.3,0.9c0.3,0.4,0.5,0.9,0.5,1.6c0,0.6-0.2,1.1-0.5,1.5c-0.3,0.5-0.8,0.8-1.4,1.1
			c-0.6,0.3-1.4,0.4-2.3,0.4C177.9,319.1,177.1,318.9,176.3,318.7z"/>
		<path class="st0" d="M193.3,318v1h-7.9v-11.1h7.6v1h-6.4v4h5.7v1h-5.7v4.1H193.3z"/>
		<path class="st0" d="M203.6,319l-2.5-3.6c-0.3,0-0.6,0-0.9,0h-3v3.5H196v-11.1h4.2c1.4,0,2.5,0.3,3.3,1c0.8,0.7,1.2,1.6,1.2,2.8
			c0,0.9-0.2,1.6-0.7,2.2c-0.4,0.6-1.1,1-1.9,1.3l2.7,3.8H203.6z M202.7,313.7c0.6-0.5,0.9-1.2,0.9-2c0-0.9-0.3-1.6-0.9-2.1
			c-0.6-0.5-1.4-0.7-2.5-0.7h-3v5.6h3C201.3,314.4,202.1,314.2,202.7,313.7z"/>
		<path class="st0" d="M216.7,307.9l-4.9,11.1h-1.2l-4.9-11.1h1.3l4.3,9.6l4.3-9.6H216.7z"/>
		<path class="st0" d="M218.3,307.9h1.2V319h-1.2V307.9z"/>
		<path class="st0" d="M225,318.3c-0.9-0.5-1.6-1.2-2.1-2c-0.5-0.9-0.8-1.8-0.8-2.9c0-1.1,0.3-2,0.8-2.9c0.5-0.9,1.2-1.5,2.1-2
			c0.9-0.5,1.9-0.7,3-0.7c0.8,0,1.6,0.1,2.3,0.4c0.7,0.3,1.3,0.7,1.8,1.2l-0.7,0.7c-0.9-0.9-2-1.3-3.3-1.3c-0.9,0-1.7,0.2-2.4,0.6
			c-0.7,0.4-1.3,1-1.7,1.7c-0.4,0.7-0.6,1.5-0.6,2.3c0,0.9,0.2,1.7,0.6,2.3c0.4,0.7,1,1.2,1.7,1.7c0.7,0.4,1.5,0.6,2.4,0.6
			c1.3,0,2.4-0.4,3.3-1.3l0.7,0.7c-0.5,0.5-1.1,0.9-1.8,1.2c-0.7,0.3-1.5,0.4-2.3,0.4C226.9,319.1,225.9,318.8,225,318.3z"/>
		<path class="st0" d="M242.4,318v1h-7.9v-11.1h7.6v1h-6.4v4h5.7v1h-5.7v4.1H242.4z"/>
		<path class="st0" d="M245.2,307.9h4.5c1.2,0,2.2,0.2,3.1,0.7c0.9,0.5,1.6,1.1,2.1,2c0.5,0.8,0.7,1.8,0.7,2.9c0,1.1-0.2,2-0.7,2.9
			c-0.5,0.8-1.2,1.5-2.1,2c-0.9,0.5-1.9,0.7-3.1,0.7h-4.5V307.9z M249.6,318c1,0,1.8-0.2,2.6-0.6c0.7-0.4,1.3-0.9,1.7-1.6
			c0.4-0.7,0.6-1.5,0.6-2.4c0-0.9-0.2-1.7-0.6-2.4c-0.4-0.7-1-1.2-1.7-1.6c-0.7-0.4-1.6-0.6-2.6-0.6h-3.3v9.1H249.6z"/>
		<path class="st0" d="M271.1,314.2c0.4,0.5,0.6,1.1,0.6,1.8c0,1-0.4,1.7-1.1,2.2c-0.7,0.5-1.7,0.8-3.1,0.8h-5.1v-11.1h4.8
			c1.2,0,2.2,0.2,2.9,0.7c0.7,0.5,1,1.2,1,2.1c0,0.6-0.2,1.1-0.5,1.6c-0.3,0.4-0.7,0.7-1.2,1C270.2,313.4,270.7,313.7,271.1,314.2z
			 M263.6,308.8v4h3.5c0.9,0,1.6-0.2,2.1-0.5c0.5-0.3,0.7-0.8,0.7-1.5c0-0.7-0.2-1.2-0.7-1.5c-0.5-0.3-1.2-0.5-2.1-0.5H263.6z
			 M269.8,317.5c0.5-0.3,0.8-0.9,0.8-1.6c0-1.4-1-2.1-3-2.1h-3.9v4.2h3.9C268.5,318,269.3,317.8,269.8,317.5z"/>
		<path class="st0" d="M278,315.1v3.8h-1.2v-3.8l-4.4-7.3h1.3l3.8,6.2l3.8-6.2h1.2L278,315.1z"/>
	</g>
</g>
<g>
	<path class="st0" d="M164.7,343.8c-0.1-2.9-0.2-6.5-0.2-10h-0.1c-0.8,3.1-1.8,6.6-2.7,9.4l-3,9.5h-4.3l-2.6-9.4
		c-0.8-2.9-1.6-6.4-2.2-9.5h-0.1c-0.1,3.3-0.3,7.1-0.4,10.1l-0.5,9.3h-5.1l1.6-24.4h7.3l2.4,8.1c0.8,2.8,1.5,5.9,2.1,8.7h0.1
		c0.7-2.8,1.5-6,2.3-8.8l2.6-8.1h7.2l1.3,24.4h-5.4L164.7,343.8z"/>
	<path class="st0" d="M180.3,346.8l-1.7,6.3h-5.7l7.4-24.4h7.2l7.6,24.4h-6l-1.9-6.3H180.3z M186.5,342.7l-1.5-5.2
		c-0.4-1.4-0.9-3.3-1.2-4.7h-0.1c-0.4,1.4-0.7,3.3-1.1,4.7l-1.4,5.2H186.5z"/>
	<path class="st0" d="M198.3,329c1.8-0.3,4.4-0.5,7.3-0.5c3.6,0,6.1,0.5,7.9,1.9c1.5,1.2,2.3,2.9,2.3,5.1c0,3.1-2.2,5.2-4.3,6v0.1
		c1.7,0.7,2.6,2.3,3.3,4.5c0.8,2.8,1.5,6,2,6.9h-5.6c-0.4-0.7-1-2.7-1.7-5.7c-0.7-3.1-1.7-3.9-4-3.9h-1.6v9.6h-5.5V329z
		 M203.8,339.5h2.2c2.7,0,4.4-1.4,4.4-3.5c0-2.2-1.5-3.4-4.1-3.4c-1.3,0-2.1,0.1-2.5,0.2V339.5z"/>
	<path class="st0" d="M219.8,329c1.8-0.3,4.4-0.5,7.3-0.5c3.6,0,6.1,0.5,7.9,1.9c1.5,1.2,2.3,2.9,2.3,5.1c0,3.1-2.2,5.2-4.3,6v0.1
		c1.7,0.7,2.6,2.3,3.3,4.5c0.8,2.8,1.5,6,2,6.9h-5.6c-0.4-0.7-1-2.7-1.7-5.7c-0.7-3.1-1.7-3.9-4-3.9h-1.6v9.6h-5.5V329z
		 M225.3,339.5h2.2c2.7,0,4.4-1.4,4.4-3.5c0-2.2-1.5-3.4-4.1-3.4c-1.3,0-2.1,0.1-2.5,0.2V339.5z"/>
	<path class="st0" d="M246.8,328.7v24.4h-5.5v-24.4H246.8z"/>
	<path class="st0" d="M273.9,340.7c0,8-4.8,12.8-12,12.8c-7.2,0-11.5-5.5-11.5-12.4c0-7.3,4.7-12.8,11.9-12.8
		C269.8,328.3,273.9,333.9,273.9,340.7z M256.3,340.9c0,4.8,2.2,8.2,5.9,8.2c3.7,0,5.9-3.5,5.9-8.3c0-4.4-2.1-8.2-5.9-8.2
		C258.4,332.7,256.3,336.2,256.3,340.9z"/>
	<path class="st0" d="M281.2,333.4h-6.6v-4.6h18.7v4.6h-6.7v19.7h-5.5V333.4z"/>
	<path class="st0" d="M301.8,333.4h-6.6v-4.6H314v4.6h-6.7v19.7h-5.5V333.4z"/>
</g>
</svg>
