<svg xmlns="http://www.w3.org/2000/svg" width="152" height="40" viewBox="0 0 152 40" fill="none">
<path d="M106.199 27.9778C110.054 27.9778 114.887 26.0326 114.887 18.1959C114.887 10.3591 110.264 8.38577 106.199 8.38577C102.134 8.38577 97.5107 10.3732 97.5107 18.1959C97.5107 26.0186 102.344 27.9778 106.199 27.9778ZM106.199 11.4303C108.685 11.4303 110.264 12.7693 110.264 18.2099C110.264 23.6506 108.699 24.9896 106.199 24.9896C103.713 24.9896 102.134 23.6506 102.134 18.2099C102.134 12.7693 103.699 11.4303 106.199 11.4303Z" fill="#00b2bd"/>
<path d="M90.0797 17.5052L96.505 9.06228H91.281L85.3725 16.9696H85.2887V10.7678C85.2887 9.95026 84.4506 8.61124 82.4392 8.61124C82.2018 8.61124 81.3078 8.65353 80.791 8.7381V27.724H85.2887V17.9844H85.3725L92.2448 27.724H97.3571L90.0797 17.5052Z" fill="#00b2bd"/>
<path d="M64.4763 23.1009L62.87 25.2574C64.0014 26.1031 66.2084 27.9778 70.7061 27.9778C74.5612 27.9778 78.2627 25.8212 78.2627 22.2129C78.2627 17.9985 73.2762 16.8146 69.5467 15.4755C67.4515 14.7003 67.2979 13.0371 68.3036 12.1068C70.1054 10.4436 74.8965 12.0646 76.0977 12.5579L77.257 10.3309C77.257 10.3309 74.5612 8.42806 70.5803 8.42806C68.2896 8.42806 65.9988 8.75224 64.3506 10.7396C63.1494 12.2337 62.9817 14.8835 64.4344 16.7441C65.915 18.6892 71.0692 20.1128 72.5498 20.9162C73.7092 21.5223 73.9187 22.4103 73.7511 23.2278C73.4438 24.6091 70.5384 26.5965 64.4763 23.1009Z" fill="#00b2bd"/>
<path d="M122.192 12.8397C123.156 12.3464 126.69 11.2611 128.226 12.8397C129.064 13.7277 129.232 14.9963 129.232 16.1239V27.724H133.73V15.2782C133.73 10.8523 130.35 8.62534 127.095 8.62534C125.768 8.62534 123.84 8.79448 121.703 10.2463C121.214 9.55561 120.293 8.94952 118.686 8.94952C118.365 8.94952 118.044 8.99181 117.681 9.03409V27.7663H122.178L122.192 12.8397Z" fill="#00b2bd"/>
<path d="M144.304 8.42806C140.001 8.42806 136.914 10.6551 136.914 10.6551L138.2 12.7693C140.616 11.6276 143.102 11.1061 145.114 11.5994C147.963 12.2478 147.488 15.6588 147.488 15.6588C145.072 15.5742 136.076 14.9258 136.076 22.1143C136.076 25.1588 137.808 27.3858 141.468 27.8791C143.759 28.161 145.854 27.5972 147.782 26.2582C148.187 27.1039 149.109 27.9214 150.994 27.9214C151.316 27.9214 151.637 27.8791 152 27.8368V14.3057C152.014 9.55566 147.195 8.42806 144.304 8.42806ZM147.516 23.4674C145.742 24.6091 144.22 24.7218 143.34 24.7218C142.292 24.7218 140.602 24.2285 140.602 21.7619C140.602 17.9422 145.351 17.7871 147.516 17.7871V23.4674Z" fill="#00b2bd"/>
<path d="M60.5793 27.8509V14.3056C60.5793 9.51336 55.7603 8.38577 52.8968 8.38577C48.5947 8.38577 45.5078 10.6128 45.5078 10.6128L46.7928 12.727C49.2093 11.5853 51.6956 11.0638 53.707 11.5571C56.5565 12.2055 56.0815 15.6165 56.0815 15.6165C53.6651 15.5319 44.6697 14.8835 44.6697 22.072C44.6697 25.1165 46.4017 27.3435 50.0613 27.8368C52.3521 28.1187 54.4473 27.5549 56.3749 26.2159C56.78 27.0616 57.7018 27.8791 59.5875 27.8791C59.8948 27.8932 60.2161 27.8932 60.5793 27.8509ZM56.0676 23.4674C54.2936 24.6091 52.7711 24.7218 51.8911 24.7218C50.8435 24.7218 49.1534 24.2285 49.1534 21.7619C49.1534 17.9421 53.9025 17.7871 56.0676 17.7871V23.4674Z" fill="#00b2bd"/>
<path d="M5.75477 9.96436C6.27159 9.96436 6.76047 9.76703 7.12363 9.40056C7.4868 9.03409 7.68236 8.55486 7.68236 7.97697C7.68236 7.45546 7.4868 6.96213 7.12363 6.59567C6.76047 6.2292 6.28555 6.03187 5.75477 6.03187C5.23795 6.03187 4.74907 6.2292 4.344 6.59567C3.98083 6.96213 3.78528 7.44136 3.78528 7.97697C3.78528 8.49848 3.98083 8.99181 4.344 9.35828C4.74907 9.76703 5.22398 9.96436 5.75477 9.96436Z" fill="#00b2bd"/>
<path d="M1.56442 16.6595C0.684433 16.6595 0 17.3925 0 18.2382C0 19.1261 0.726337 19.8168 1.56442 19.8168C2.01139 19.8168 2.37456 19.6476 2.69583 19.3235C3.01709 18.9993 3.18471 18.6328 3.18471 18.1818C3.12884 17.3502 2.41647 16.6595 1.56442 16.6595Z" fill="#00b2bd"/>
<path d="M15.9235 29.9651C14.4429 29.9651 13.2277 31.1773 13.2277 32.6855C13.2277 34.1795 14.4289 35.4058 15.9235 35.4058C16.6498 35.4058 17.3343 35.1239 17.8511 34.5883C18.3679 34.0668 18.6612 33.3761 18.6612 32.6432C18.6612 31.9102 18.3819 31.2196 17.8511 30.6981C17.3203 30.247 16.6359 29.9651 15.9235 29.9651Z" fill="#00b2bd"/>
<path d="M26.0504 24.7641C25.0866 24.7641 24.1647 25.1306 23.4803 25.8635C22.7958 26.5542 22.3907 27.4844 22.3907 28.457C22.3907 29.4295 22.7539 30.3598 23.4803 31.0504L23.5222 31.0927C24.2066 31.7834 25.1285 32.1499 26.0923 32.1499C27.0561 32.1499 27.978 31.7834 28.6624 31.0504L28.7462 30.9659C30.0732 29.5423 30.0732 27.2307 28.6624 25.8212C27.936 25.1306 27.0142 24.7641 26.0504 24.7641Z" fill="#00b2bd"/>
<path d="M23.4384 10.5705C24.1228 11.2611 25.0447 11.6276 26.0085 11.6276C26.9723 11.6276 27.8942 11.2188 28.5786 10.5282C29.9894 9.10458 29.9894 6.75073 28.5786 5.34123C27.1679 3.91764 24.8352 3.91764 23.3965 5.34123C21.9857 6.80711 22.0276 9.14687 23.4384 10.5705Z" fill="#00b2bd"/>
<path d="M5.75477 26.4696C5.23796 26.4696 4.74908 26.6669 4.344 27.0334C3.57576 27.8086 3.57576 29.0631 4.344 29.8383C4.70717 30.2047 5.18208 30.4021 5.71287 30.4021C6.22969 30.4021 6.71857 30.2047 7.08173 29.8383C7.4449 29.4718 7.64046 28.9926 7.64046 28.4147C7.64046 27.8932 7.4449 27.3998 7.08173 27.0334C6.78841 26.681 6.27159 26.4696 5.75477 26.4696Z" fill="#00b2bd"/>
<path d="M15.8817 6.46884C17.3623 6.46884 18.6194 5.25668 18.6194 3.70623C18.6054 2.21217 17.4042 1 15.9236 1C14.443 1 13.2277 2.21217 13.2277 3.76261C13.1858 5.25668 14.3871 6.46884 15.8817 6.46884Z" fill="#00b2bd"/>
<path d="M30.2688 13.3753C27.6148 13.3753 25.4917 15.5319 25.4917 18.1958C25.4917 20.8598 27.6288 23.0163 30.2688 23.0163C32.9087 23.0163 35.0458 20.8598 35.0458 18.1958C35.0458 15.5319 32.9227 13.3753 30.2688 13.3753Z" fill="#00b2bd"/>
</svg>