<svg id="Слой_1" data-name="Слой 1" xmlns="http://www.w3.org/2000/svg" viewBox="0 0 285.79 16.34"><defs><style>.cls-1{fill:#c8102e;}</style></defs><path class="cls-1" d="M14,16.07H10.52V9.75h-7v6.32H0V.27H3.5V6.48h7V.27H14Z"/><path class="cls-1" d="M29.22,16.07H17V.27H29V3.54H20.44V6.48h8V9.64h-8v3.15h8.78Z"/><path class="cls-1" d="M50.91,16.07h-3.5V3.54h-7V16.07H36.92V.27h14Z"/><path class="cls-1" d="M67.31,16.07H63.82V3.66h-5l-.09,1.82a26.62,26.62,0,0,1-1.17,7.7A4.39,4.39,0,0,1,56,15.48a5.32,5.32,0,0,1-2.85.65,6.62,6.62,0,0,1-.91-.06V12.82a5.55,5.55,0,0,0,.57,0,1.83,1.83,0,0,0,1.74-1.1,10,10,0,0,0,.6-2.6,63.38,63.38,0,0,0,.34-7.11l0-1.78H67.31Z"/><path class="cls-1" d="M72.3,16.07H68.69L75.62.27h2.59l6.93,15.8H81.48L80.2,13.13H73.59Zm6.61-5.89-2-4.72L74.8,10.18Z"/><path class="cls-1" d="M88,3.54h-5V.27H96.56V3.54H91.48V16.07H88Z"/><path class="cls-1" d="M108.59,6.43l-7.7,9.64H98V.27h3.5V10L109.17.27h2.91v15.8h-3.49Z"/><path class="cls-1" d="M118.6,3.54h-5V.27h13.63V3.54H122.1V16.07h-3.5Z"/><path class="cls-1" d="M140.92,16.07H128.65V.27h12.07V3.54h-8.58V6.48h8V9.64h-8v3.15h8.78Z"/><path class="cls-1" d="M152.11,16.07h-3.49V.27h3.49V6.43L158.18.27h4.56l-6.86,7,7.31,8.8h-4.6l-5.35-6.46-1.13,1.15Z"/><path class="cls-1" d="M162.63,8.17A7.85,7.85,0,0,1,165,2.37,7.88,7.88,0,0,1,170.78,0a8.14,8.14,0,0,1,4.43,1.29,7.43,7.43,0,0,1,3,3.45,9,9,0,0,1,.72,3.43A7.91,7.91,0,0,1,176.53,14,8.18,8.18,0,0,1,165,14,7.94,7.94,0,0,1,162.63,8.17Zm4.9-3.39a4.87,4.87,0,0,0-1.27,3.39,4.8,4.8,0,0,0,1.29,3.38,4.49,4.49,0,0,0,6.49,0,4.94,4.94,0,0,0,1.23-3.41A4.82,4.82,0,0,0,174,4.8a4.39,4.39,0,0,0-6.45,0Z"/><path class="cls-1" d="M184.54,16.07H181V.27h3.25l5.06,7.56,4.8-7.56h3.16v15.8h-3.49V6.59l-4.11,6.3h-.93l-4.24-6.37Z"/><path class="cls-1" d="M210.81,6.43l-7.7,9.64h-2.86V.27h3.49V10L211.39.27h2.91v15.8h-3.49Z"/><path class="cls-1" d="M229.18,10.85l2.07,2.24a6.52,6.52,0,0,1-2.88,2.4,9.09,9.09,0,0,1-3.84.85,7.79,7.79,0,0,1-5.88-2.28,8.11,8.11,0,0,1-2.2-5.89A8,8,0,0,1,224.62,0a9.35,9.35,0,0,1,3.69.77A5.64,5.64,0,0,1,231,3l-2.37,2.17A4.58,4.58,0,0,0,227,3.87a4.87,4.87,0,0,0-2.08-.49,4.55,4.55,0,0,0-4.79,4.79,4.68,4.68,0,0,0,1.33,3.43A4.6,4.6,0,0,0,224.82,13,5.32,5.32,0,0,0,229.18,10.85Z"/><path class="cls-1" d="M244.29,10.85l2.08,2.24a6.57,6.57,0,0,1-2.88,2.4,9.09,9.09,0,0,1-3.84.85,7.77,7.77,0,0,1-5.88-2.28,8.11,8.11,0,0,1-2.2-5.89A8,8,0,0,1,239.74,0a9.35,9.35,0,0,1,3.69.77A5.64,5.64,0,0,1,246.12,3l-2.37,2.17a4.58,4.58,0,0,0-1.68-1.3A4.88,4.88,0,0,0,240,3.38a4.55,4.55,0,0,0-4.78,4.79,4.68,4.68,0,0,0,1.33,3.43A4.6,4.6,0,0,0,239.94,13,5.29,5.29,0,0,0,244.29,10.85Z"/><path class="cls-1" d="M258.62,6.43l-7.69,9.64h-2.87V.27h3.5V10L259.21.27h2.91v15.8h-3.5Z"/><path class="cls-1" d="M268.55,16.07h-3.49V.27h3.49V6.54h1.61a7.48,7.48,0,0,1,2.67-4.67A7.78,7.78,0,0,1,277.92.09a7.52,7.52,0,0,1,5.73,2.27,8.11,8.11,0,0,1,2.14,5.81,8,8,0,0,1-2.24,5.76,7.51,7.51,0,0,1-5.63,2.32,7.79,7.79,0,0,1-5.28-1.82,7.53,7.53,0,0,1-2.51-4.91h-1.58Zm5-7.9a5.11,5.11,0,0,0,1.19,3.42A4,4,0,0,0,277.92,13a3.83,3.83,0,0,0,3.15-1.36,5.35,5.35,0,0,0,1.09-3.45A5.23,5.23,0,0,0,281,4.73a3.8,3.8,0,0,0-3.12-1.37,3.9,3.9,0,0,0-3.17,1.4A5.13,5.13,0,0,0,273.58,8.17Z"/></svg>