<svg id="Слой_1" data-name="Слой 1" xmlns="http://www.w3.org/2000/svg" viewBox="0 0 178.9 20.56"><defs><style>.cls-1{fill:#c8102e;}</style></defs><path class="cls-1" d="M6.93,20.29H0V4.39H7.11a7.37,7.37,0,0,1,4,.86,3.7,3.7,0,0,1,1.54,3.2,4.31,4.31,0,0,1-1.54,3.41,3.72,3.72,0,0,1,2.06,3.71,4.16,4.16,0,0,1-.94,2.82,4.66,4.66,0,0,1-2.26,1.5A10.23,10.23,0,0,1,6.93,20.29ZM6.52,7.68h-3v2.91h3.3a3.54,3.54,0,0,0,1.49-.3,1,1,0,0,0,.64-1,1.75,1.75,0,0,0-.19-.87,1.07,1.07,0,0,0-.59-.47,4,4,0,0,0-.75-.18A7.21,7.21,0,0,0,6.52,7.68Zm.23,6.09H3.52V17H6.57a8.44,8.44,0,0,0,1-.05,6,6,0,0,0,.9-.18,1.33,1.33,0,0,0,.76-.5,1.48,1.48,0,0,0,.26-.91,1.53,1.53,0,0,0-.24-.89A1.26,1.26,0,0,0,8.52,14a4.23,4.23,0,0,0-.83-.19C7.44,13.78,7.13,13.77,6.75,13.77Z"/><path class="cls-1" d="M34.33,20.29H30.81V7.79h-5l-.09,1.84a26.77,26.77,0,0,1-1.19,7.75,4.37,4.37,0,0,1-1.67,2.32,5.37,5.37,0,0,1-2.87.66,5.33,5.33,0,0,1-.91-.07V17l.57.05A1.84,1.84,0,0,0,21.43,16,9.53,9.53,0,0,0,22,13.34a67,67,0,0,0,.34-7.16l0-1.79H34.33Z"/><path class="cls-1" d="M40.81,20.29H37.29V4.39h3.52V10.7h1.61A7.51,7.51,0,0,1,45.12,6a7.83,7.83,0,0,1,5.12-1.8A7.54,7.54,0,0,1,56,6.49a8.16,8.16,0,0,1,2.16,5.85,8,8,0,0,1-2.26,5.8,7.56,7.56,0,0,1-5.67,2.33,7.83,7.83,0,0,1-5.32-1.83A7.52,7.52,0,0,1,42.4,13.7H40.81Zm5.07-7.95a5.14,5.14,0,0,0,1.19,3.44,4,4,0,0,0,3.17,1.4,3.85,3.85,0,0,0,3.17-1.36,5.33,5.33,0,0,0,1.1-3.48,5.32,5.32,0,0,0-1.12-3.47A3.86,3.86,0,0,0,50.24,7.5a3.92,3.92,0,0,0-3.19,1.41A5.19,5.19,0,0,0,45.88,12.34Z"/><path class="cls-1" d="M60.33,4.39h12V7.68H63.85v2.59h4a6.34,6.34,0,0,1,4.07,1.19,4.53,4.53,0,0,1,1.48,3.72q0,5.12-6.62,5.11H60.33Zm6.73,9.18H63.85V17h3.07a7.1,7.1,0,0,0,1-.06,3.75,3.75,0,0,0,.87-.23,1.41,1.41,0,0,0,.71-.55,1.8,1.8,0,0,0,.25-1,1.59,1.59,0,0,0-.24-.9,1.34,1.34,0,0,0-.68-.5,5.1,5.1,0,0,0-.83-.19A8.38,8.38,0,0,0,67.06,13.57Z"/><path class="cls-1" d="M74.65,12.34a8.16,8.16,0,0,1,8.2-8.23,8.17,8.17,0,0,1,4.46,1.3,7.51,7.51,0,0,1,3,3.47A9,9,0,0,1,91,12.34a8,8,0,0,1-2.39,5.83,8.26,8.26,0,0,1-11.62,0A8,8,0,0,1,74.65,12.34Zm4.93-3.41a4.91,4.91,0,0,0-1.28,3.41,4.89,4.89,0,0,0,1.3,3.41,4.51,4.51,0,0,0,6.53,0,4.94,4.94,0,0,0,1.24-3.43,4.89,4.89,0,0,0-1.29-3.4,4.44,4.44,0,0,0-6.5,0Z"/><path class="cls-1" d="M103.82,10.59l-7.75,9.7H93.19V4.39h3.52v9.74l7.7-9.74h2.93v15.9h-3.52ZM96.1,0h3a1.31,1.31,0,0,0,1.36,1.16,1.49,1.49,0,0,0,1-.32,1.22,1.22,0,0,0,.46-.84h3a3.48,3.48,0,0,1-1.38,2.6,4.34,4.34,0,0,1-2.85,1.13,4.51,4.51,0,0,1-3-1A4.46,4.46,0,0,1,96.1,0Z"/><path class="cls-1" d="M115.66,4.39h12V7.68h-8.46v2.59h4a6.34,6.34,0,0,1,4.07,1.19,4.53,4.53,0,0,1,1.48,3.72q0,5.12-6.62,5.11h-6.45Zm6.73,9.18h-3.21V17h3.07a7.1,7.1,0,0,0,1-.06,3.75,3.75,0,0,0,.87-.23,1.41,1.41,0,0,0,.71-.55,1.8,1.8,0,0,0,.25-1,1.59,1.59,0,0,0-.24-.9,1.34,1.34,0,0,0-.68-.5,4.88,4.88,0,0,0-.83-.19A8.38,8.38,0,0,0,122.39,13.57Z"/><path class="cls-1" d="M132.84,20.29H129.2l7-15.9h2.61l7,15.9h-3.68l-1.3-2.95h-6.66Zm6.66-5.93-2.05-4.75-2.09,4.75Z"/><path class="cls-1" d="M161.27,20.29h-3.53V13.93h-7.06v6.36h-3.53V4.39h3.53v6.24h7.06V4.39h3.53Z"/><path class="cls-1" d="M167.74,20.29h-3.52V4.39h3.52v6.2l6.11-6.2h4.6l-6.91,7,7.36,8.86h-4.64l-5.38-6.5L167.74,15Z"/></svg>