<svg id="Слой_1" data-name="Слой 1" xmlns="http://www.w3.org/2000/svg" viewBox="0 0 219.85 18.84"><defs><style>.cls-1{fill:#404040;}</style></defs><path class="cls-1" d="M3.29,18.84H0v-6H1.73Q3.38,9.43,3.39,2.18V.27H15V12.88h1.84v6H13.5V16.18H3.29ZM11.43,3.57H6.75l0,.88a24.39,24.39,0,0,1-1.37,8.43h6.07Z"/><path class="cls-1" d="M30.86,16.18H18.5V.27H30.65v3.3H22V6.52h8.07V9.7H22v3.18h8.84Z"/><path class="cls-1" d="M33.24.27h12v3.3H36.77V6.16h4a6.31,6.31,0,0,1,4.06,1.19,4.48,4.48,0,0,1,1.48,3.72q0,5.12-6.61,5.11H33.24ZM40,9.45h-3.2v3.43h3.06a7.25,7.25,0,0,0,1-.05,4.59,4.59,0,0,0,.88-.23,1.39,1.39,0,0,0,.7-.56,1.66,1.66,0,0,0,.25-.95,1.59,1.59,0,0,0-.24-.9,1.3,1.3,0,0,0-.68-.5,3.93,3.93,0,0,0-.83-.19A8.14,8.14,0,0,0,40,9.45Z"/><path class="cls-1" d="M60.72,16.18H48.35V.27H60.51v3.3H51.88V6.52h8.06V9.7H51.88v3.18h8.84Z"/><path class="cls-1" d="M66.71,3.57H61.63V.27H75.35v3.3H70.24V16.18H66.71Z"/><path class="cls-1" d="M75.26,8.23a7.91,7.91,0,0,1,2.4-5.84A7.91,7.91,0,0,1,83.46,0a8.17,8.17,0,0,1,4.47,1.3,7.57,7.57,0,0,1,3,3.47,9.13,9.13,0,0,1,.72,3.46,7.93,7.93,0,0,1-2.38,5.82,8.24,8.24,0,0,1-11.63,0A8,8,0,0,1,75.26,8.23Zm4.93-3.41a4.89,4.89,0,0,0-1.27,3.41,4.84,4.84,0,0,0,1.29,3.4,4.53,4.53,0,0,0,6.54,0A5,5,0,0,0,88,8.23a4.89,4.89,0,0,0-1.29-3.4,4.44,4.44,0,0,0-6.5,0Z"/><path class="cls-1" d="M100.73,16.18H93.8V.27h7.11a7.34,7.34,0,0,1,4,.87,3.7,3.7,0,0,1,1.54,3.2,4.32,4.32,0,0,1-1.54,3.41,3.7,3.7,0,0,1,2.07,3.7,4.19,4.19,0,0,1-1,2.83,4.66,4.66,0,0,1-2.26,1.5A10.23,10.23,0,0,1,100.73,16.18Zm-.41-12.61h-3V6.48h3.3a3.54,3.54,0,0,0,1.49-.3,1,1,0,0,0,.64-1,1.75,1.75,0,0,0-.19-.87,1.09,1.09,0,0,0-.59-.48,4,4,0,0,0-.75-.18A7.49,7.49,0,0,0,100.32,3.57Zm.23,6.09H97.32v3.22h3.05a8.73,8.73,0,0,0,1,0,6,6,0,0,0,.9-.18,1.33,1.33,0,0,0,.76-.5,1.48,1.48,0,0,0,.26-.91,1.59,1.59,0,0,0-.23-.89,1.3,1.3,0,0,0-.7-.49,3.56,3.56,0,0,0-.83-.18C101.24,9.67,100.93,9.66,100.55,9.66Z"/><path class="cls-1" d="M110.82,16.18h-3.63l7-15.91h2.61l7,15.91h-3.68l-1.3-2.95h-6.65Zm6.66-5.93-2-4.75-2.09,4.75Z"/><path class="cls-1" d="M138.11,16.18h-3.52V10.93h-2.71l-4.06,5.25h-4.16l4.68-5.91a5,5,0,0,1-2.6-1.7,4.61,4.61,0,0,1-.94-2.93,4.77,4.77,0,0,1,1-3.08A5.39,5.39,0,0,1,128.25.78a9.63,9.63,0,0,1,3.2-.51h6.66Zm-7-8.54h3.48V3.57h-3.34c-1.86,0-2.8.68-2.8,2a1.69,1.69,0,0,0,.82,1.49A3.28,3.28,0,0,0,131.11,7.64Z"/><path class="cls-1" d="M150,16.18h-3.52V.27H150V6.48L156.06.27h4.59l-6.91,7.05,7.37,8.86h-4.64l-5.38-6.5L150,10.84Z"/><path class="cls-1" d="M164,16.18H160.4l7-15.91H170l7,15.91h-3.68L172,13.23h-6.66Zm6.66-5.93-2-4.75-2.09,4.75Z"/><path class="cls-1" d="M181.88,11.18v5h-3.53V.27h6.59a10.52,10.52,0,0,1,3.39.5,5.07,5.07,0,0,1,2.41,1.76,5.24,5.24,0,0,1,.95,3.22,4.89,4.89,0,0,1-1,3.15,5.33,5.33,0,0,1-2.46,1.77,10,10,0,0,1-3.29.51ZM185,3.57h-3.15V7.89h3c2.09,0,3.13-.72,3.13-2.16S187,3.57,185,3.57Z"/><path class="cls-1" d="M196.87,3.57h-5.09V.27h13.73v3.3H200.4V16.18h-3.53Z"/><path class="cls-1" d="M206.92,16.18h-3.64l7-15.91h2.61l7,15.91h-3.68l-1.3-2.95h-6.66Zm6.66-5.93L211.53,5.5l-2.09,4.75Z"/></svg>