<svg id="Слой_1" data-name="Слой 1" xmlns="http://www.w3.org/2000/svg" viewBox="0 0 95.14 16.45"><defs><style>.cls-1{fill:#c8102e;}</style></defs><path class="cls-1" d="M14.09,16.18H10.57V3.57h-7V16.18H0V.27H14.09Z"/><path class="cls-1" d="M16.25,8.23a7.94,7.94,0,0,1,2.39-5.84A8,8,0,0,1,24.45,0a8.2,8.2,0,0,1,4.47,1.3,7.49,7.49,0,0,1,3,3.47,9,9,0,0,1,.73,3.46,7.9,7.9,0,0,1-2.39,5.82,7.86,7.86,0,0,1-5.79,2.4,7.88,7.88,0,0,1-5.83-2.4A8,8,0,0,1,16.25,8.23Zm4.93-3.41a4.89,4.89,0,0,0-1.27,3.41,4.84,4.84,0,0,0,1.29,3.4A4.23,4.23,0,0,0,24.45,13a4.19,4.19,0,0,0,3.28-1.38A5,5,0,0,0,29,8.23a4.89,4.89,0,0,0-1.29-3.4,4.44,4.44,0,0,0-6.5,0Z"/><path class="cls-1" d="M47.65,16.18H44.13V3.68h-5l-.09,1.84a26.49,26.49,0,0,1-1.18,7.75,4.42,4.42,0,0,1-1.67,2.32,5.39,5.39,0,0,1-2.88.66,6.44,6.44,0,0,1-.9-.07V12.91A5.59,5.59,0,0,0,33,13a1.82,1.82,0,0,0,1.75-1.11,9.63,9.63,0,0,0,.62-2.61,70,70,0,0,0,.34-7.16l0-1.8H47.65Z"/><path class="cls-1" d="M50.6.27h3.55V5.54h3a11.24,11.24,0,0,1,2.56.27,6.9,6.9,0,0,1,2.1.84A4,4,0,0,1,63.3,8.28a5.67,5.67,0,0,1,.53,2.54,5.46,5.46,0,0,1-.56,2.53A4,4,0,0,1,61.72,15a8.11,8.11,0,0,1-2.17.88,11.46,11.46,0,0,1-2.58.28H50.6Zm6.5,8.57h-3v4H57c2.09,0,3.13-.68,3.13-2.06S59.15,8.84,57.1,8.84Z"/><path class="cls-1" d="M71.74,16.45q-5.28,0-7.68-3.57L66.85,11a5.62,5.62,0,0,0,4.8,2.16c2,0,3.06-.58,3.06-1.73s-1.1-1.7-3.31-1.7H68.9V6.43h2.36a7.66,7.66,0,0,0,1.19-.09,3.18,3.18,0,0,0,1.16-.44,1.07,1.07,0,0,0,.58-1,1.27,1.27,0,0,0-.5-1,2.44,2.44,0,0,0-1.08-.51,5.91,5.91,0,0,0-1.21-.12A5.22,5.22,0,0,0,67.35,5L64.62,3.2a8.11,8.11,0,0,1,7-3.2,10.08,10.08,0,0,1,2.25.24A7,7,0,0,1,75.79,1a3.64,3.64,0,0,1,1.42,1.44,4.43,4.43,0,0,1,.53,2.21,3.26,3.26,0,0,1-1.64,3,3.44,3.44,0,0,1,2.16,3.57,4.94,4.94,0,0,1-.56,2.37,4.34,4.34,0,0,1-1.51,1.64,7.92,7.92,0,0,1-2.08.91A9.16,9.16,0,0,1,71.74,16.45Z"/><path class="cls-1" d="M82.21,16.18H78.58l7-15.91h2.62l7,15.91H91.46l-1.29-2.95H83.51Zm6.66-5.93-2-4.75-2.09,4.75Z"/></svg>