<svg id="Слой_1" data-name="Слой 1" xmlns="http://www.w3.org/2000/svg" viewBox="0 0 611.32 25.14"><defs><style>.cls-1{fill:#6e6e6e;}</style></defs><path class="cls-1" d="M0,11.11A10.19,10.19,0,0,1,3,3.68a9.87,9.87,0,0,1,7.33-3,9.82,9.82,0,0,1,7.38,3,10.29,10.29,0,0,1,2.92,7.45,10.27,10.27,0,0,1-3,7.46,9.86,9.86,0,0,1-7.34,3,9.84,9.84,0,0,1-7.36-3A10.29,10.29,0,0,1,0,11.11Zm2.13,0a8.5,8.5,0,0,0,2.36,6,7.71,7.71,0,0,0,5.83,2.51,7.65,7.65,0,0,0,5.87-2.49,8.64,8.64,0,0,0,2.3-6.06,8.49,8.49,0,0,0-2.35-6,7.61,7.61,0,0,0-5.82-2.51A7.66,7.66,0,0,0,4.45,5.06,8.54,8.54,0,0,0,2.13,11.11Z"/><path class="cls-1" d="M22,11.11a10.19,10.19,0,0,1,3-7.43,9.88,9.88,0,0,1,7.34-3,9.85,9.85,0,0,1,7.38,3,10.32,10.32,0,0,1,2.91,7.45,10.23,10.23,0,0,1-3,7.46,9.86,9.86,0,0,1-7.33,3,9.87,9.87,0,0,1-7.37-3A10.29,10.29,0,0,1,22,11.11Zm2.13,0a8.5,8.5,0,0,0,2.36,6,7.72,7.72,0,0,0,5.84,2.51,7.64,7.64,0,0,0,5.86-2.49,8.59,8.59,0,0,0,2.3-6.06,8.52,8.52,0,0,0-2.34-6,7.64,7.64,0,0,0-5.82-2.51,7.7,7.7,0,0,0-5.88,2.49A8.54,8.54,0,0,0,24.09,11.11Z"/><path class="cls-1" d="M43.92,11.11a10.19,10.19,0,0,1,3-7.43,10.45,10.45,0,0,1,14.72,0,10.32,10.32,0,0,1,2.91,7.45,10.23,10.23,0,0,1-3,7.46,10.44,10.44,0,0,1-14.7,0A10.29,10.29,0,0,1,43.92,11.11Zm2.13,0a8.47,8.47,0,0,0,2.37,6,8.08,8.08,0,0,0,11.69,0,8.6,8.6,0,0,0,2.31-6.06,8.53,8.53,0,0,0-2.35-6,8.09,8.09,0,0,0-11.7,0A8.59,8.59,0,0,0,46.05,11.11Z"/><path class="cls-1" d="M75.89,5.37l-1.6,1a3,3,0,0,1-.65-1.05,2.84,2.84,0,0,1-.29-1.26A4.47,4.47,0,0,1,75.8,0l.85.85a3.09,3.09,0,0,0-1.43,2.77A2.71,2.71,0,0,0,75.89,5.37Zm4.11,0-1.57,1a2.94,2.94,0,0,1-.64-1.05,2.72,2.72,0,0,1-.3-1.26,4.47,4.47,0,0,1,2.45-4l.85.85a3.09,3.09,0,0,0-1.43,2.77A2.84,2.84,0,0,0,80,5.37Z"/><path class="cls-1" d="M97.59.9H100l-7.38,10,7.64,10.38H97.85l-6.47-8.75-6.45,8.75H82.48l7.64-10.38L82.8.9h2.42l6.19,8.4Z"/><path class="cls-1" d="M104.24,21.32h-2.07V.9h2.07V11.35L115.35.9h2.71l-9.88,9.31,10.64,11.11H116l-9.3-9.74-2.45,2.25Z"/><path class="cls-1" d="M130.14,21.76h-2V19.22H128a14.56,14.56,0,0,1-3.89-.51,11.74,11.74,0,0,1-3.36-1.49,7.1,7.1,0,0,1-2.39-2.64,7.85,7.85,0,0,1-.89-3.76A8,8,0,0,1,118,7.63a6.65,6.65,0,0,1,1.64-2.39,9.07,9.07,0,0,1,2.42-1.59A12.85,12.85,0,0,1,125,2.71a16.65,16.65,0,0,1,3.11-.29V.47h2v2a15.24,15.24,0,0,1,3.91.5,12.26,12.26,0,0,1,3.41,1.47A7.21,7.21,0,0,1,139.93,7a7.73,7.73,0,0,1,.91,3.79,8.22,8.22,0,0,1-.59,3.15,6.92,6.92,0,0,1-1.62,2.39A9.48,9.48,0,0,1,136.24,18a11.72,11.72,0,0,1-2.86.95,16.31,16.31,0,0,1-3.07.29h-.17ZM119.55,10.82a6,6,0,0,0,.75,3,5.42,5.42,0,0,0,2,2.05A9.73,9.73,0,0,0,125,17a12.49,12.49,0,0,0,3,.36h.12V4.29a12.93,12.93,0,0,0-4.1.61A6.92,6.92,0,0,0,120.85,7,5.64,5.64,0,0,0,119.55,10.82Zm10.68-6.53h-.09V17.35h.17a12.49,12.49,0,0,0,4.06-.62,6.81,6.81,0,0,0,3.09-2.16,5.7,5.7,0,0,0,1.25-3.75A6.19,6.19,0,0,0,138,7.77a5.46,5.46,0,0,0-1.95-2,9.68,9.68,0,0,0-2.7-1.09A13,13,0,0,0,130.23,4.29Z"/><path class="cls-1" d="M150.93.9h14.33V2.83H153V9.51h6.35a12.74,12.74,0,0,1,2.79.28,7.85,7.85,0,0,1,2.35.9,4.4,4.4,0,0,1,1.69,1.78,5.73,5.73,0,0,1,.61,2.73,5.56,5.56,0,0,1-1.19,3.67,6,6,0,0,1-2.91,1.94,13.65,13.65,0,0,1-3.92.51h-7.85Zm8.23,10.53H153v8h6c3.8,0,5.69-1.39,5.69-4.17Q164.67,11.43,159.16,11.43Z"/><path class="cls-1" d="M169.81,9.36l-1-1.46a7.74,7.74,0,0,1,2.7-1.56,9.51,9.51,0,0,1,3.17-.56,6.37,6.37,0,0,1,4.63,1.56,6.08,6.08,0,0,1,1.61,4.56v9.42H179V18.81a5.78,5.78,0,0,1-2.46,2,8,8,0,0,1-3.25.7,6.4,6.4,0,0,1-3.88-1.17A3.91,3.91,0,0,1,167.79,17q0-4.61,7.38-4.6a13.83,13.83,0,0,1,3.82.46,6.36,6.36,0,0,0-1-3.95,4.25,4.25,0,0,0-3.55-1.33A7.37,7.37,0,0,0,169.81,9.36Zm1.19,9.7a5.43,5.43,0,0,0,2.8.72,5.59,5.59,0,0,0,3.08-1A5.31,5.31,0,0,0,179,16.39V14.58a11.31,11.31,0,0,0-3.56-.46q-5.66,0-5.65,2.77A2.34,2.34,0,0,0,171,19.06Z"/><path class="cls-1" d="M197.05,21.32h-1.9V14.5H185.5v6.82h-1.9V6.15h1.9v6.54h9.65V6.15h1.9Z"/><path class="cls-1" d="M201.92,21.32H200V6.15h1.9v7.33l8.4-7.33h2.59l-8.13,7,8.6,8.14h-2.63l-7.46-7-1.37,1.23Z"/><path class="cls-1" d="M215.3,1l1.58-1a3.89,3.89,0,0,1,.67,1,3.44,3.44,0,0,1,.26,1.28,4.36,4.36,0,0,1-2.42,4.06l-.84-.85A3.07,3.07,0,0,0,216,2.77,2.56,2.56,0,0,0,215.3,1Zm4.15,0L221,0a3.89,3.89,0,0,1,.67,1A3.44,3.44,0,0,1,222,2.33a4.42,4.42,0,0,1-2.45,4.06l-.84-.85a3.14,3.14,0,0,0,1.43-2.77A2.84,2.84,0,0,0,219.45,1Z"/><path class="cls-1" d="M222.65,19.8a1.3,1.3,0,0,1,.5-1,1.7,1.7,0,0,1,1.11-.4,1.53,1.53,0,0,1,1.08.43,1.46,1.46,0,0,1,.44,1,1.57,1.57,0,0,1-.44,1.11,1.42,1.42,0,0,1-1.08.47,1.58,1.58,0,0,1-1.14-.45A1.52,1.52,0,0,1,222.65,19.8Z"/><path class="cls-1" d="M237.18,21.32h-2.07V.9h14.26V2.83H237.18Z"/><path class="cls-1" d="M257.86,17.3l1.28,1.13a6.72,6.72,0,0,1-2.59,2.35,7.32,7.32,0,0,1-3.45.83,8,8,0,0,1-5.83-2.18,7.68,7.68,0,0,1-2.22-5.72A8,8,0,0,1,247.15,8a7.37,7.37,0,0,1,5.58-2.18,11.48,11.48,0,0,1,1.6.14,6.34,6.34,0,0,1,3.94,2.35,7,7,0,0,1,1.43,4.39,12.89,12.89,0,0,1-.12,1.63H247.07a5.32,5.32,0,0,0,1.79,4.06,6.44,6.44,0,0,0,4.33,1.45,5.4,5.4,0,0,0,2.63-.7A5.75,5.75,0,0,0,257.86,17.3Zm-5.28-9.75a5.35,5.35,0,0,0-5.54,5h10.61a5.07,5.07,0,0,0-1.41-3.67A5,5,0,0,0,252.58,7.55Z"/><path class="cls-1" d="M275.18,21.32h-1.89V14.5h-9.66v6.82h-1.89V6.15h1.89v6.54h9.66V6.15h1.89Z"/><path class="cls-1" d="M277.75,19.8a1.27,1.27,0,0,1,.5-1,1.7,1.7,0,0,1,1.1-.4,1.53,1.53,0,0,1,1.08.43,1.46,1.46,0,0,1,.44,1,1.57,1.57,0,0,1-.44,1.11,1.42,1.42,0,0,1-1.08.47,1.57,1.57,0,0,1-1.13-.45A1.48,1.48,0,0,1,277.75,19.8Z"/><path class="cls-1" d="M303,21.32h-1.9V8h-7.55v2.72c0,.64,0,1.27-.06,1.91s-.11,1.38-.21,2.26a12.13,12.13,0,0,1-.49,2.4,13.29,13.29,0,0,1-.86,2.09,4,4,0,0,1-1.34,1.54,3.37,3.37,0,0,1-1.91.56,3.16,3.16,0,0,1-.5,0l-.18-1.9c1.15.16,2-.5,2.69-2a18.35,18.35,0,0,0,1-6.91V6.15H303Z"/><path class="cls-1" d="M317.82,9l-10,12.34H306V6.15h1.9V18.52l10-12.37h1.84V21.32h-1.9Z"/><path class="cls-1" d="M336.29,21.32h-13.6V6.15h1.9V19.51H334V6.15h1.9V19.51h2.21v5.6h-1.8Z"/><path class="cls-1" d="M351.28,17.3l1.28,1.13A6.72,6.72,0,0,1,350,20.78a7.32,7.32,0,0,1-3.45.83,8,8,0,0,1-5.83-2.18,7.68,7.68,0,0,1-2.22-5.72A8,8,0,0,1,340.57,8a7.36,7.36,0,0,1,5.57-2.18,11.48,11.48,0,0,1,1.61.14,6.34,6.34,0,0,1,3.94,2.35,7,7,0,0,1,1.43,4.39,12.89,12.89,0,0,1-.12,1.63H340.49a5.28,5.28,0,0,0,1.79,4.06,6.44,6.44,0,0,0,4.33,1.45,5.4,5.4,0,0,0,2.63-.7A5.75,5.75,0,0,0,351.28,17.3ZM346,7.55a5.35,5.35,0,0,0-5.54,5h10.61a5.07,5.07,0,0,0-1.41-3.67A5,5,0,0,0,346,7.55Z"/><path class="cls-1" d="M368.6,21.32h-1.89V14.5h-9.66v6.82h-1.89V6.15h1.89v6.54h9.66V6.15h1.89Z"/><path class="cls-1" d="M377.18,21.61c-3.23,0-5.55-1.11-7-3.35l1.51-1.08a4.64,4.64,0,0,0,2.18,1.95,6.94,6.94,0,0,0,3,.7,7.8,7.8,0,0,0,2-.26,4.51,4.51,0,0,0,1.84-1,2.23,2.23,0,0,0,.83-1.76c0-1.58-1.16-2.36-3.47-2.36h-3.68V12.72H378a3.49,3.49,0,0,0,2.13-.7,2.24,2.24,0,0,0,.94-1.87,2.08,2.08,0,0,0-.43-1.28,2.49,2.49,0,0,0-1.09-.82,7.72,7.72,0,0,0-1.34-.38,7.84,7.84,0,0,0-1.37-.12,5.85,5.85,0,0,0-4.67,2.22l-1.43-.93a5.69,5.69,0,0,1,2.68-2.26,8.92,8.92,0,0,1,3.68-.8,10.87,10.87,0,0,1,2.73.32,5,5,0,0,1,2.27,1.27,3.19,3.19,0,0,1,1,2.43,3.66,3.66,0,0,1-2,3.41,3.63,3.63,0,0,1,2.59,3.53,4,4,0,0,1-2,3.63A8.22,8.22,0,0,1,377.18,21.61Z"/><path class="cls-1" d="M397.62,9l-10,12.34h-1.84V6.15h1.9V18.52l10-12.37h1.84V21.32h-1.9Z"/><path class="cls-1" d="M408.3,6.15h6V21.32h-1.9V15.69h-4.23l-4.93,5.63h-2.39L406,15.43a5.05,5.05,0,0,1-3-1.5,4.18,4.18,0,0,1-1.18-3,4.2,4.2,0,0,1,1-2.9,4.9,4.9,0,0,1,2.35-1.51A11.59,11.59,0,0,1,408.3,6.15ZM403.89,11a2.48,2.48,0,0,0,.38,1.25,2.59,2.59,0,0,0,1.5,1.26,6.34,6.34,0,0,0,2.21.4h4.43V8H408a5.7,5.7,0,0,0-2.93.69A2.47,2.47,0,0,0,403.89,11Z"/><path class="cls-1" d="M442.66,21.32H425.48V.9h2.07V19.4h12.33V.9H442V19.4h2.65v5.74h-1.95Z"/><path class="cls-1" d="M446.27.9h14.32V2.83H448.34V9.51h6.36a12.8,12.8,0,0,1,2.79.28,7.89,7.89,0,0,1,2.34.9,4.42,4.42,0,0,1,1.7,1.78,5.85,5.85,0,0,1,.61,2.73,5.51,5.51,0,0,1-1.2,3.67,5.91,5.91,0,0,1-2.9,1.94,13.7,13.7,0,0,1-3.92.51h-7.85Zm8.23,10.53h-6.16v8h6q5.69,0,5.69-4.17Q460,11.43,454.5,11.43Z"/><path class="cls-1" d="M474.53,13.45v7.87h-2.07V.9h7.35q8.28,0,8.29,6.25a6,6,0,0,1-.72,3,5,5,0,0,1-1.94,2,9.48,9.48,0,0,1-2.64,1,13.85,13.85,0,0,1-3,.32ZM480,2.8h-5.43v8.75h5.2a12.09,12.09,0,0,0,2.23-.2,8.11,8.11,0,0,0,2-.67,3.57,3.57,0,0,0,1.49-1.39A4.21,4.21,0,0,0,486,7.12C486,4.24,484,2.8,480,2.8Z"/><path class="cls-1" d="M501.51,21.76h-2V19.22h-.14a14.63,14.63,0,0,1-3.9-.51,11.68,11.68,0,0,1-3.35-1.49,7,7,0,0,1-2.39-2.64,7.74,7.74,0,0,1-.89-3.76,8,8,0,0,1,.61-3.19,6.8,6.8,0,0,1,1.65-2.39,8.91,8.91,0,0,1,2.42-1.59,12.61,12.61,0,0,1,2.88-.94,16.73,16.73,0,0,1,3.11-.29V.47h2v2a15.18,15.18,0,0,1,3.91.5,12.13,12.13,0,0,1,3.41,1.47A7.13,7.13,0,0,1,511.3,7a7.73,7.73,0,0,1,.92,3.79,8,8,0,0,1-.6,3.15A6.92,6.92,0,0,1,510,16.36,9.48,9.48,0,0,1,507.61,18a11.72,11.72,0,0,1-2.86.95,16.2,16.2,0,0,1-3.06.29h-.18ZM490.93,10.82a6,6,0,0,0,.74,3,5.49,5.49,0,0,0,2,2.05A9.66,9.66,0,0,0,496.34,17a12.35,12.35,0,0,0,3,.36h.12V4.29a13,13,0,0,0-4.1.61A7,7,0,0,0,492.22,7,5.68,5.68,0,0,0,490.93,10.82ZM501.6,4.29h-.09V17.35h.18a12.38,12.38,0,0,0,4.05-.62,6.71,6.71,0,0,0,3.09-2.16,5.7,5.7,0,0,0,1.26-3.75,6.2,6.2,0,0,0-.72-3.05,5.31,5.31,0,0,0-1.95-2,9.68,9.68,0,0,0-2.7-1.09A13,13,0,0,0,501.6,4.29Z"/><path class="cls-1" d="M539.4.9V21.32h-1.6L525,4.52v16.8h-1.92V.9h1.57l12.81,16.86V.9Zm2.22,6a4.53,4.53,0,0,1,1.43-3.51,5.06,5.06,0,0,1,3.61-1.33,5.13,5.13,0,0,1,3.65,1.36,4.54,4.54,0,0,1,1.46,3.48,4.54,4.54,0,0,1-1.46,3.5,5.16,5.16,0,0,1-3.65,1.34,5.06,5.06,0,0,1-3.6-1.35A4.59,4.59,0,0,1,541.62,6.94Zm9.24,8.46h-8.37V13.62h8.37ZM543.4,6.94a3.09,3.09,0,0,0,1,2.28,3.17,3.17,0,0,0,2.29,1A3.25,3.25,0,0,0,549,9.25a3.07,3.07,0,0,0,1-2.31,3.06,3.06,0,0,0-1-2.3,3.28,3.28,0,0,0-2.35-.93,3.19,3.19,0,0,0-2.33.91A3.14,3.14,0,0,0,543.4,6.94Z"/><path class="cls-1" d="M563.75,5.92,562.09,5a6.86,6.86,0,0,1,3.27-3.24A10.51,10.51,0,0,1,570.14.64,7.83,7.83,0,0,1,574.69,2a4.32,4.32,0,0,1,2,3.78,5.08,5.08,0,0,1-.87,3,4.82,4.82,0,0,1-2.48,1.81A4.9,4.9,0,0,1,577,13.1a5.16,5.16,0,0,1,.49,2.24,5.33,5.33,0,0,1-2.22,4.73,9.57,9.57,0,0,1-5.54,1.51,10.41,10.41,0,0,1-5-1.31,6.55,6.55,0,0,1-3.28-3.53l1.78-.76a7.25,7.25,0,0,0,2.77,2.7,7.75,7.75,0,0,0,3.79.95,9.52,9.52,0,0,0,2.61-.35,4.71,4.71,0,0,0,2.12-1.3,3.27,3.27,0,0,0,.9-2.35c0-2.54-1.88-3.82-5.63-3.82H567V9.92h2.25a7,7,0,0,0,3.63-1,3.14,3.14,0,0,0,1.73-2.78,2.91,2.91,0,0,0-1.41-2.64A5.94,5.94,0,0,0,570,2.57,6.88,6.88,0,0,0,563.75,5.92Z"/><path class="cls-1" d="M578.45,5.83l-.73-1.69L584.81.76h1.28V21.32h-1.92V3.15Z"/><path class="cls-1" d="M589.71,11.67a15.63,15.63,0,0,1,.56-4.29,10.74,10.74,0,0,1,1.67-3.49,7.6,7.6,0,0,1,3-2.39,10.08,10.08,0,0,1,4.27-.86,9.86,9.86,0,0,1,3.24.56A6.15,6.15,0,0,1,605,2.83l-1.13,1.4a7,7,0,0,0-5-1.66,6.66,6.66,0,0,0-4.16,1.3,7.34,7.34,0,0,0-2.49,3.63,11.31,11.31,0,0,0-.53,4,6.35,6.35,0,0,1,2.91-2.71,9.2,9.2,0,0,1,4.09-1,9,9,0,0,1,5.6,1.6,5.88,5.88,0,0,1,2.1,5,6.54,6.54,0,0,1-2.3,5.24,8.34,8.34,0,0,1-5.6,2c-2.94,0-5.13-.91-6.59-2.75A11.18,11.18,0,0,1,589.71,11.67Zm2.31,2a5.53,5.53,0,0,0,1.63,4.08,6.15,6.15,0,0,0,4.81,1.9,6.28,6.28,0,0,0,4.16-1.45,4.68,4.68,0,0,0,1.73-3.77q0-4.84-6.12-4.84a6.55,6.55,0,0,0-3,.78,7.81,7.81,0,0,0-2.48,2A3.27,3.27,0,0,0,592,13.68Z"/><path class="cls-1" d="M608.2,19.8a1.3,1.3,0,0,1,.5-1,1.7,1.7,0,0,1,1.11-.4,1.54,1.54,0,0,1,1.08.43,1.44,1.44,0,0,1,.43,1,1.56,1.56,0,0,1-.43,1.11,1.45,1.45,0,0,1-1.08.47,1.58,1.58,0,0,1-1.14-.45A1.52,1.52,0,0,1,608.2,19.8Z"/></svg>