    <svg xmlns="http://www.w3.org/2000/svg" xmlns:xlink="http://www.w3.org/1999/xlink" viewBox="0 0 614 288">
        <rect id="brandarea" style="fill:rgb(255,255,255);" width="614" height="288"></rect>

    <defs>
        <linearGradient id="bosch-gradient" x1="-1408.7516" y1="346.28128" x2="-1408.3533" y2="346.28128" gradientTransform="matrix(0, -723.07397, -723.07397, 0, 250418.98218, -1018279.61572)" gradientUnits="userSpaceOnUse">
            <stop offset="0" stop-color="#942231"/>
            <stop offset="0.1533" stop-color="#ca171a"/>
            <stop offset="0.206" stop-color="#982e6b"/>
            <stop offset="0.3241" stop-color="#203b78"/>
            <stop offset="0.4181" stop-color="#312b6e"/>
            <stop offset="0.5581" stop-color="#1b62a1"/>
            <stop offset="0.6556" stop-color="#5bafbf"/>
            <stop offset="0.7385" stop-color="#078daf"/>
            <stop offset="0.8875" stop-color="#00a14b"/>
            <stop offset="1" stop-color="#00917d"/>
        </linearGradient>
        <linearGradient id="linear-gradient" x1="-292.52035" y1="454.88716" x2="-291.75543" y2="454.88716" gradientTransform="matrix(161.0472, 0, 0, -161.0472, 47079.92736, 73333.9482)" gradientUnits="userSpaceOnUse">
            <stop offset="0" stop-color="#689f5f"/>
            <stop offset="0.1422" stop-color="#4e9752"/>
            <stop offset="0.30262" stop-color="#399147"/>
            <stop offset="0.48097" stop-color="#2a8c40"/>
            <stop offset="0.68932" stop-color="#218a3b"/>
            <stop offset="1" stop-color="#1e893a"/>
        </linearGradient>
        <linearGradient id="linear-gradient-2" x1="-299.6699" y1="456.71699" x2="-298.90459" y2="456.71699" gradientTransform="matrix(-42.8122, -23.9993, -23.9993, 42.8122, -1845.0315, -26649.9633)" gradientUnits="userSpaceOnUse">
            <stop offset="0" stop-color="#61b16d"/>
            <stop offset="1" stop-color="#86b856"/>
        </linearGradient>
        <linearGradient id="linear-gradient-3" x1="-292.52035" y1="454.94261" x2="-291.75543" y2="454.94261" gradientTransform="matrix(161.0472, 0, 0, -161.0472, 47079.92736, 73367.6982)" gradientUnits="userSpaceOnUse">
            <stop offset="0" stop-color="#94bd54"/>
            <stop offset="0.31031" stop-color="#8cbc66"/>
            <stop offset="0.67778" stop-color="#85bb73"/>
            <stop offset="1" stop-color="#83bb78"/>
        </linearGradient>
        <linearGradient id="linear-gradient-4" x1="-292.84565" y1="454.6873" x2="-292.07977" y2="454.6873" gradientTransform="matrix(158.5753, -41.8977, -41.8977, -158.5753, 65460.27396, 59972.6845)" gradientUnits="userSpaceOnUse">
            <stop offset="0" stop-color="#00a24c"/>
            <stop offset="0.26662" stop-color="#00a053"/>
            <stop offset="0.64512" stop-color="#009a65"/>
            <stop offset="1" stop-color="#00937d"/>
        </linearGradient>
        <linearGradient id="linear-gradient-5" x1="-292.52035" y1="455.01504" x2="-291.75543" y2="455.01504" gradientTransform="matrix(161.0472, 0, 0, -161.0472, 47079.92736, 73418.1982)" gradientUnits="userSpaceOnUse">
            <stop offset="0" stop-color="#00b5dd"/>
            <stop offset="0.27915" stop-color="#00afd6"/>
            <stop offset="0.68152" stop-color="#009dc3"/>
            <stop offset="1" stop-color="#008baf"/>
        </linearGradient>
        <linearGradient id="linear-gradient-6" x1="-292.83814" y1="454.7717" x2="-292.07255" y2="454.7717" gradientTransform="matrix(159.2028, -42.6583, -42.6583, -159.2028, 65993.39743, 60088.7376)" gradientUnits="userSpaceOnUse">
            <stop offset="0" stop-color="#0099d4"/>
            <stop offset="0.2217" stop-color="#0f9dd1"/>
            <stop offset="0.64563" stop-color="#36a7c8"/>
            <stop offset="1" stop-color="#5bb0c0"/>
        </linearGradient>
        <linearGradient id="linear-gradient-7" x1="-295.24294" y1="456.91302" x2="-294.47802" y2="456.91302" gradientTransform="matrix(-161.0472, 0, 0, 161.0472, -47454.3348, -73405.85623)" gradientUnits="userSpaceOnUse">
            <stop offset="0" stop-color="#3d9ac9"/>
            <stop offset="1" stop-color="#1d62a2"/>
        </linearGradient>
        <linearGradient id="linear-gradient-8" x1="-292.52035" y1="455.14146" x2="-291.75543" y2="455.14146" gradientTransform="matrix(161.0472, 0, 0, -161.0472, 47079.92736, 73495.6982)" gradientUnits="userSpaceOnUse">
            <stop offset="0" stop-color="#15438e"/>
            <stop offset="0.41197" stop-color="#1f579e"/>
            <stop offset="1" stop-color="#317aba"/>
        </linearGradient>
        <linearGradient id="linear-gradient-9" x1="-291.61542" y1="455.0712" x2="-290.84978" y2="455.0712" gradientTransform="matrix(106.4336, 17.0208, 17.0208, -106.4336, 23262.10616, 53609.2318)" gradientUnits="userSpaceOnUse">
            <stop offset="0" stop-color="#312b6e"/>
            <stop offset="0.24273" stop-color="#312b6e"/>
            <stop offset="0.44636" stop-color="#2c2e72"/>
            <stop offset="0.68653" stop-color="#1e377d"/>
            <stop offset="0.94425" stop-color="#06468f"/>
            <stop offset="1" stop-color="#004a94"/>
        </linearGradient>
        <linearGradient id="linear-gradient-10" x1="-291.66575" y1="459.90935" x2="-290.90785" y2="459.90935" gradientTransform="matrix(0, 56.1032, 56.1032, 0, -25770.3862, 16590.7858)" gradientUnits="userSpaceOnUse">
            <stop offset="0" stop-color="#203b78"/>
            <stop offset="0.23942" stop-color="#253b79"/>
            <stop offset="0.52211" stop-color="#333a7d"/>
            <stop offset="0.82552" stop-color="#4b3a82"/>
            <stop offset="1" stop-color="#5c3986"/>
        </linearGradient>
        <linearGradient id="linear-gradient-11" x1="-296.74196" y1="450.70098" x2="-295.98407" y2="450.70098" gradientTransform="matrix(0, -41.4022, -41.4022, 0, 18692.0122, -12003.5038)" gradientUnits="userSpaceOnUse">
            <stop offset="0" stop-color="#6d368c"/>
            <stop offset="0.99384" stop-color="#3b4190"/>
            <stop offset="1" stop-color="#3b4190"/>
        </linearGradient>
        <linearGradient id="linear-gradient-12" x1="-291.49015" y1="460.16769" x2="-290.73224" y2="460.16769" gradientTransform="matrix(0, 46.8522, 46.8522, 0, -21511.8682, 13926.8338)" gradientUnits="userSpaceOnUse">
            <stop offset="0" stop-color="#89357f"/>
            <stop offset="0.33538" stop-color="#89357f"/>
            <stop offset="0.71149" stop-color="#8d2c59"/>
            <stop offset="1" stop-color="#902641"/>
        </linearGradient>
        <linearGradient id="linear-gradient-13" x1="-291.66852" y1="460.81087" x2="-290.91093" y2="460.81087" gradientTransform="matrix(0, 50.6842, 50.6842, 0, -23339.8302, 15051.3268)" xlink:href="#linear-gradient-12"/>
        <linearGradient id="bosch-gradient-2" x1="-1408.7516" y1="345.43213" x2="-1408.3533" y2="345.43213" xlink:href="#bosch-gradient"/>
        <linearGradient id="linear-gradient-14" x1="-288.7078" y1="454.88716" x2="-287.94288" y2="454.88716" xlink:href="#linear-gradient"/>
        <linearGradient id="linear-gradient-15" x1="-310.58244" y1="450.59973" x2="-309.81714" y2="450.59973" xlink:href="#linear-gradient-2"/>
        <linearGradient id="linear-gradient-16" x1="-288.7078" y1="454.94261" x2="-287.94288" y2="454.94261" xlink:href="#linear-gradient-3"/>
        <linearGradient id="linear-gradient-17" x1="-289.22633" y1="453.73103" x2="-288.46045" y2="453.73103" xlink:href="#linear-gradient-4"/>
        <linearGradient id="linear-gradient-18" x1="-288.7078" y1="455.01504" x2="-287.94288" y2="455.01504" xlink:href="#linear-gradient-5"/>
        <linearGradient id="linear-gradient-19" x1="-289.23978" y1="453.80752" x2="-288.47419" y2="453.80752" xlink:href="#linear-gradient-6"/>
        <linearGradient id="linear-gradient-20" x1="-299.05549" y1="456.91302" x2="-298.29057" y2="456.91302" xlink:href="#linear-gradient-7"/>
        <linearGradient id="linear-gradient-21" x1="-288.7078" y1="455.14146" x2="-287.94288" y2="455.14146" xlink:href="#linear-gradient-8"/>
        <linearGradient id="linear-gradient-22" x1="-285.99042" y1="455.97075" x2="-285.22478" y2="455.97075" xlink:href="#linear-gradient-9"/>
        <linearGradient id="linear-gradient-23" x1="-291.66575" y1="470.85347" x2="-290.90785" y2="470.85347" xlink:href="#linear-gradient-10"/>
        <linearGradient id="linear-gradient-24" x1="-296.74196" y1="435.87085" x2="-295.98407" y2="435.87085" xlink:href="#linear-gradient-11"/>
        <linearGradient id="linear-gradient-25" x1="-291.49015" y1="473.27273" x2="-290.73224" y2="473.27273" xlink:href="#linear-gradient-12"/>
        <linearGradient id="linear-gradient-26" x1="-291.66852" y1="472.9251" x2="-290.91093" y2="472.9251" gradientTransform="matrix(0, 50.6842, 50.6842, 0, -23339.8302, 15051.3268)" xlink:href="#linear-gradient-12"/>
        <linearGradient id="Bosch-Gradient-3" x1="-1231.77999" y1="344.25888" x2="-1231.01935" y2="344.25888" gradientTransform="matrix(723.07397, 0, 0, -723.07397, 890732.05322, 248956.63843)" xlink:href="#bosch-gradient"/>
        <linearGradient id="linear-gradient-27" x1="-293.25393" y1="456.14074" x2="-292.48879" y2="456.14074" gradientTransform="matrix(0, 306.44489, 306.44489, 0, -139190.23975, 89780.76087)" xlink:href="#linear-gradient"/>
        <linearGradient id="linear-gradient-28" x1="-295.56537" y1="454.18254" x2="-294.80035" y2="454.18254" gradientTransform="matrix(45.6665, -81.4643, -81.4643, -45.6665, 51060.4303, -3316.2417)" xlink:href="#linear-gradient-2"/>
        <linearGradient id="linear-gradient-29" x1="-293.25393" y1="456.20489" x2="-292.48879" y2="456.20489" gradientTransform="matrix(0, 306.44489, 306.44489, 0, -139254.23975, 89780.76087)" xlink:href="#linear-gradient-3"/>
        <linearGradient id="linear-gradient-30" x1="-293.22598" y1="456.07493" x2="-292.46136" y2="456.07493" gradientTransform="matrix(79.7241, 301.74129, 301.74129, -79.7241, -113765.81379, 124754.91852)" xlink:href="#linear-gradient-4"/>
        <linearGradient id="linear-gradient-31" x1="-293.25393" y1="456.26814" x2="-292.48879" y2="456.26814" gradientTransform="matrix(0, 306.44489, 306.44489, 0, -139350.73975, 89780.76087)" xlink:href="#linear-gradient-5"/>
        <linearGradient id="linear-gradient-32" x1="-293.20953" y1="456.15134" x2="-292.44479" y2="456.15134" gradientTransform="matrix(81.1713, 302.93519, 302.93519, -81.1713, -113988.56713, 125768.76008)" xlink:href="#linear-gradient-6"/>
        <linearGradient id="linear-gradient-33" x1="-294.51333" y1="455.66136" x2="-293.74818" y2="455.66136" gradientTransform="matrix(0, -306.4449, -306.4449, 0, 140029.1769, -90102.8126)" xlink:href="#linear-gradient-7"/>
        <linearGradient id="linear-gradient-34" x1="-293.25393" y1="456.39681" x2="-292.48879" y2="456.39681" gradientTransform="matrix(0, 306.44489, 306.44489, 0, -139497.73975, 89780.76087)" xlink:href="#linear-gradient-8"/>
        <linearGradient id="linear-gradient-35" x1="-292.98956" y1="456.7388" x2="-292.22518" y2="456.7388" gradientTransform="matrix(-32.3877, 202.52459, 202.52459, 32.3877, -101658.87594, 44459.0489)" xlink:href="#linear-gradient-9"/>
        <linearGradient id="linear-gradient-36" x1="-295.26229" y1="457.8049" x2="-294.50135" y2="457.8049" gradientTransform="matrix(-106.7547, 0, 0, 106.7547, -31218.6438, -48840.8236)" xlink:href="#linear-gradient-10"/>
        <linearGradient id="linear-gradient-37" x1="-291.87848" y1="453.54595" x2="-291.11783" y2="453.54595" gradientTransform="matrix(78.7812, 0, 0, -78.7812, 23191.7078, 35762.8942)" xlink:href="#linear-gradient-11"/>
        <linearGradient id="linear-gradient-38" x1="-295.79726" y1="457.48069" x2="-295.0374" y2="457.48069" gradientTransform="matrix(-89.1517, 0, 0, 89.1517, -26150.0738, -40737.1807)" xlink:href="#linear-gradient-12"/>
        <linearGradient id="linear-gradient-39" x1="-295.64873" y1="458.63083" x2="-294.88767" y2="458.63083" gradientTransform="matrix(-96.4433, 0, 0, 96.4433, -28289.5412, -44215.8693)" xlink:href="#linear-gradient-12"/>
        <linearGradient id="Bosch-Gradient-4" x1="-1231.77999" y1="343.77207" x2="-1231.01935" y2="343.77207" gradientTransform="matrix(723.07397, 0, 0, -723.07397, 890732.05322, 248956.63843)" xlink:href="#bosch-gradient"/>
        <linearGradient id="linear-gradient-40" x1="-292.10528" y1="456.14074" x2="-291.34013" y2="456.14074" gradientTransform="matrix(0, 306.44489, 306.44489, 0, -139190.23975, 89780.76087)" xlink:href="#linear-gradient"/>
        <linearGradient id="linear-gradient-41" x1="-298.85314" y1="452.33952" x2="-298.08811" y2="452.33952" gradientTransform="matrix(45.6665, -81.4643, -81.4643, -45.6665, 51060.4303, -3316.2417)" xlink:href="#linear-gradient-2"/>
        <linearGradient id="linear-gradient-42" x1="-292.10528" y1="456.20489" x2="-291.34013" y2="456.20489" gradientTransform="matrix(0, 306.44489, 306.44489, 0, -139254.23975, 89780.76087)" xlink:href="#linear-gradient-3"/>
        <linearGradient id="linear-gradient-43" x1="-292.13554" y1="455.78683" x2="-291.37092" y2="455.78683" gradientTransform="matrix(79.7241, 301.74129, 301.74129, -79.7241, -113765.81379, 124754.91852)" xlink:href="#linear-gradient-4"/>
        <linearGradient id="linear-gradient-44" x1="-292.10528" y1="456.26814" x2="-291.34013" y2="456.26814" gradientTransform="matrix(0, 306.44489, 306.44489, 0, -139350.73975, 89780.76087)" xlink:href="#linear-gradient-5"/>
        <linearGradient id="linear-gradient-45" x1="-292.12541" y1="455.86085" x2="-291.36066" y2="455.86085" gradientTransform="matrix(81.1713, 302.93519, 302.93519, -81.1713, -113988.56713, 125768.76008)" xlink:href="#linear-gradient-6"/>
        <linearGradient id="linear-gradient-46" x1="-295.66198" y1="455.66136" x2="-294.89684" y2="455.66136" gradientTransform="matrix(0, -306.4449, -306.4449, 0, 140029.1769, -90102.8126)" xlink:href="#linear-gradient-7"/>
        <linearGradient id="linear-gradient-47" x1="-292.10528" y1="456.39681" x2="-291.34013" y2="456.39681" gradientTransform="matrix(0, 306.44489, 306.44489, 0, -139497.73975, 89780.76087)" xlink:href="#linear-gradient-8"/>
        <linearGradient id="linear-gradient-48" x1="-291.29484" y1="457.00982" x2="-290.53046" y2="457.00982" gradientTransform="matrix(-32.3877, 202.52459, 202.52459, 32.3877, -101658.87594, 44459.0489)" xlink:href="#linear-gradient-9"/>
        <linearGradient id="linear-gradient-49" x1="-295.26229" y1="461.10218" x2="-294.50135" y2="461.10218" gradientTransform="matrix(-106.7547, 0, 0, 106.7547, -31218.6438, -48840.8236)" xlink:href="#linear-gradient-10"/>
        <linearGradient id="linear-gradient-50" x1="-291.87848" y1="449.07788" x2="-291.11783" y2="449.07788" gradientTransform="matrix(78.7812, 0, 0, -78.7812, 23191.7078, 35762.8942)" xlink:href="#linear-gradient-11"/>
        <linearGradient id="linear-gradient-51" x1="-295.79726" y1="461.42902" x2="-295.0374" y2="461.42902" gradientTransform="matrix(-89.1517, 0, 0, 89.1517, -26150.0738, -40737.1807)" xlink:href="#linear-gradient-12"/>
        <linearGradient id="linear-gradient-52" x1="-295.64873" y1="462.28064" x2="-294.88767" y2="462.28064" gradientTransform="matrix(-96.4433, 0, 0, 96.4433, -28289.5412, -44215.8693)" xlink:href="#linear-gradient-12"/>
    </defs>    <title></title>

    <g id="supergraphic-vertical-left" transform="translate(0,-64)">
        <rect id="bg-gradient" y="64" width="64" height="288" style="fill:url(#bosch-gradient)"/>
        <path id="Pfad-21" d="M0,63.99992V80.09844c11.9491,1.30639,23.51556,4.22833,34.27026,7.19262A285.42343,285.42343,0,0,1,64,80.97105V63.99992Z" style="fill:url(#linear-gradient)"/>
        <path id="Pfad-20" d="M64,80.97972a285.62564,285.62564,0,0,0-29.72974,6.31055c2.054.56549,4.07813,1.134,6.06855,1.69055C48.6181,91.30162,56.58783,93.53227,64,94.97459Z" style="fill:#159a39"/>
        <path id="Pfad-19" d="M0,95.37877l.00049.0003c8.6109-1.40637,17.97992-3.85015,27.74475-6.39605q3.21332-.83817,6.525-1.692C23.5163,84.32762,11.94745,81.40483,0,80.09844Z" style="fill:url(#linear-gradient-2)"/>
        <path id="Pfad-18" d="M34.27026,87.29106q-3.30843.84824-6.525,1.692C17.98022,91.529,8.61108,93.97289,0,95.37914v18.26049c8.5708-1.41,17.89062-3.8413,27.60046-6.37249C38.90625,104.31853,51.20111,101.10478,64,99.24419V94.97875c-7.41077-1.44251-15.38324-3.677-23.66119-5.99732Q37.35318,88.14446,34.27026,87.29106Z" style="fill:url(#linear-gradient-3)"/>
        <path id="Pfad-17" d="M64,134.706V99.24675l-.00067-.00244c-12.8,1.8598-25.09174,5.07428-36.39887,8.02283C17.89062,109.79833,8.5708,112.22966,0,113.63963v11.77552c11.98041,1.09161,24.27966,3.18176,37.449,5.31634C46.38208,132.18065,55.50775,133.66087,64,134.706Z" style="fill:url(#linear-gradient-4)"/>
        <path id="Pfad-16" d="M0,125.41515V153.1848c9.73144-1.04956,20.33905-2.64966,30.706-4.21429,11.37842-1.71705,22.54529-3.40381,33.294-4.56739V134.706c-8.49225-1.04511-17.61792-2.52533-26.551-3.97449C24.28113,128.59691,11.97888,126.50676,0,125.41515Z" style="fill:url(#linear-gradient-5)"/>
        <path id="Pfad-15" d="M64,144.40386l-.00018-.00074c-10.75007,1.16358-21.91407,2.85034-33.29383,4.56739C20.33905,150.53514,9.73144,152.13524,0,153.1848v17.34125c9.76733.50775,21.11432,1.29962,35.032,2.29663,8.31824.59576,18.77051,1.34619,28.96479,1.92785L64,174.74968Z" style="fill:url(#linear-gradient-6)"/>
        <path id="Pfad-14" d="M0,170.52605v16.3435l64,.01191V174.75072c-10.19672-.58173-20.6474-1.33155-28.968-1.928C21.11572,171.82713,9.76581,171.0338,0,170.52605Z" style="fill:url(#linear-gradient-7)"/>
        <polygon id="Pfad-13" points="0 206.011 32 202.352 64 206.011 64 186.881 0 186.87 0 206.011" style="fill:url(#linear-gradient-8)"/>
        <polygon id="Pfad-12" points="0 206.011 0 209.396 64 209.396 64 206.011 32 202.35 0 206.011" style="fill:#253783"/>
        <polygon id="Pfad-11" points="64 209.398 0 209.398 0 209.398 0 232.075 32 237.15 64 232.531 64 209.398" style="fill:url(#linear-gradient-9)"/>
        <polygon id="Pfad-10" points="0 232.075 0 260.085 32 250.888 64 260.769 64 232.531 32 237.15 0 232.075" style="fill:url(#linear-gradient-10)"/>
        <polygon id="Pfad-09" points="0 260.085 0 275.166 32 282.266 64 275.843 64 260.769 32 250.888 0 260.085" style="fill:url(#linear-gradient-11)"/>
        <polygon id="Pfad-08" points="32 282.266 64 294.292 64 275.843 32 282.266" style="fill:url(#linear-gradient-12)"/>
        <polygon id="Pfad-07" points="0 294.477 32 282.266 0 275.166 0 294.477" style="fill:url(#linear-gradient-13)"/>
        <polygon id="Pfad-06" points="0 294.477 0 309.774 32.001 314.108 64 309.589 64 294.292 32.001 282.266 0 294.477" style="fill:#d5151a"/>
        <polygon id="Pfad-05" points="32.001 314.108 0.001 309.774 0.001 329.842 8.535 329.842 32.001 316.203 55.467 329.842 64 329.842 64 309.589 32.001 314.108" style="fill:#af1a19"/>
        <polygon id="Pfad-04" points="32.001 316.203 8.535 329.842 55.467 329.842 32.001 316.203" style="fill:#b22739"/>
        <polygon id="Pfad-03" points="55.407 329.867 63.931 334.822 63.931 329.867 55.407 329.867" style="fill:#931915"/>
        <polygon id="Pfad-02" points="0 329.842 0 334.802 8.535 329.842 0 329.842" style="fill:#931915"/>
        <polygon id="Pfad-01" points="8.535 329.842 0.001 334.802 0.001 352 64 352 64 334.802 55.467 329.842 8.535 329.842" style="fill:#942432"/>
    </g>
        <g transform="translate(116.6,59.237)">
    <g id="brand-claim-russian">
        <g id="claim-russian" fill="">
            <path d="M4.536,118.35158H14.63349c3.65719,0,5.88354.67565,7.5925,2.26581a8.027,8.027,0,0,1,2.30568,6.04284c0,5.1678-3.339,8.0699-9.26241,8.0699H7.83555v12.04518H4.536Zm10.3357,13.7152c4.25392,0,6.281-1.78934,6.281-5.56534,0-3.6981-1.9476-5.40758-6.0822-5.40758H7.83555v10.97292Z"/>
            <path d="M38.92263,144.549a4.4871,4.4871,0,0,1-.19877-.59683,7.68469,7.68469,0,0,1-6.4004,3.18021c-3.856,0-6.55919-2.38513-6.55919-5.76359,0-3.02142,2.02757-5.20737,5.72465-6.20163a28.22333,28.22333,0,0,1,7.03617-.79508v-1.31194c0-3.21967-1.272-4.69143-4.09461-4.69143-2.18647,0-3.8165.71615-5.963,2.58545l-1.94761-2.14742a10.79057,10.79057,0,0,1,7.91059-3.18031c4.77036,0,7.39424,2.62388,7.39424,7.43371v9.06426c0,1.70845.47688,2.18585,2.26581,2.18585.07986,0,.11932.0405.11932.15982a7.145,7.145,0,0,1-.03946.83454v1.59005c-.67617.03947-.79508.03947-1.11317.03947a4.188,4.188,0,0,1-3.93583-2.02706Zm-.39754-7.83125c-6.67851.23875-9.46129,1.54966-9.46129,4.53161,0,2.06756,1.35141,3.22071,3.8165,3.22071,3.29953,0,5.64479-1.90877,5.64479-4.572Z"/>
            <path d="M49.53706,140.57368c.83444,2.58338,2.74269,3.8165,6.00286,3.8165,3.14023,0,5.12792-1.35244,5.12792-3.53828s-2.06714-3.57775-5.32669-3.57775H51.96166v-2.74331h3.26006c2.98155,0,4.96914-1.19158,4.96914-3.02038s-1.86827-3.14178-4.53213-3.14178c-2.74269,0-4.29338.876-5.28723,2.94249l-2.78267-.99426c1.11317-3.18032,3.69707-4.69051,8.10988-4.69051,4.81024,0,7.71234,2.18595,7.71234,5.84356,0,1.98769-.75562,3.14084-2.70333,4.25453a4.946,4.946,0,0,1,3.379,5.04744c0,4.01579-3.18021,6.36042-8.58676,6.36042-3.14075,0-5.76411-.8739-7.35427-2.46406a6.07149,6.07149,0,0,1-1.70947-3.419Z"/>
            <path d="M69.2546,125.98355h3.29953v3.41885a7.68066,7.68066,0,0,1,6.75806-3.776c5.24725,0,8.70608,4.214,8.70608,10.65442,0,6.55867-3.45883,10.85153-8.74606,10.85153a7.491,7.491,0,0,1-6.71808-3.696v10.57446H69.2546Zm3.18021,10.41659c0,5.08794,2.30579,7.99,6.28107,7.99,3.89584,0,5.88343-2.62388,5.88343-7.79178,0-5.24777-2.10691-8.22972-5.88343-8.22972C74.81994,128.36868,72.43481,131.39113,72.43481,136.40014Z"/>
            <path d="M104.11819,144.549a4.4871,4.4871,0,0,1-.19877-.59683,7.68469,7.68469,0,0,1-6.4004,3.18021c-3.856,0-6.55919-2.38513-6.55919-5.76359,0-3.02142,2.02758-5.20737,5.72465-6.20163a28.22333,28.22333,0,0,1,7.03617-.79508v-1.31194c0-3.21967-1.272-4.69143-4.09461-4.69143-2.18647,0-3.8165.71615-5.963,2.58545l-1.94761-2.14742A10.7904,10.7904,0,0,1,99.626,125.6264c4.77026,0,7.39414,2.62388,7.39414,7.43371v9.06426c0,1.70845.477,2.18585,2.26581,2.18585.08,0,.11942.0405.11942.15982a7.145,7.145,0,0,1-.03946.83454v1.59005c-.67617.03947-.79508.03947-1.11317.03947A4.18785,4.18785,0,0,1,104.317,144.907Zm-.39754-7.83125c-6.67862.23875-9.46128,1.54966-9.46128,4.53161,0,2.06756,1.3514,3.22071,3.81649,3.22071,3.29954,0,5.64479-1.90877,5.64479-4.572Z"/>
            <path d="M128.00978,119.38531c-8.54688.03946-10.41515,1.5103-11.84641,9.50126a7.78643,7.78643,0,0,1,6.63915-3.26017c4.92905,0,8.14924,4.13408,8.14924,10.4946,0,6.52024-3.73706,11.01135-9.14361,11.01135a8.98864,8.98864,0,0,1-7.39372-3.696c-1.51071-2.06755-2.1469-4.651-2.1469-8.62632,0-7.39414,1.98759-13.51695,5.20778-15.90208,1.59005-1.15212,3.73654-1.82777,6.99671-2.06652.47688-.0405,1.272-.08,3.22019-.19929ZM115.607,136.40014c0,4.84919,2.46458,7.99,6.20111,7.99,3.53829,0,5.72465-3.02142,5.72465-7.87071,0-5.12834-2.14638-8.15079-5.76411-8.15079C118.07162,128.36868,115.607,131.54992,115.607,136.40014Z"/>
            <path d="M154.20768,136.35964c0,6.2816-4.09461,10.77271-9.81884,10.77271-5.72474,0-9.81935-4.53161-9.81935-10.85153,0-6.12177,4.174-10.65442,9.81935-10.65442C150.11307,125.6264,154.20768,130.11866,154.20768,136.35964Zm-16.21923.0405c0,4.88969,2.46457,7.99,6.32043,7.99,4.01527,0,6.48036-3.06088,6.48036-8.03054,0-4.84918-2.50455-7.991-6.4004-7.991C140.453,128.36868,137.98845,131.47,137.98845,136.40014Z"/>
            <path d="M162.03883,128.72675H155.599v-2.7432h16.17936v2.7432h-6.43986v18.04856h-3.29964Z"/>
            <path d="M186.92427,144.549a4.50743,4.50743,0,0,1-.19877-.59683,7.68466,7.68466,0,0,1-6.4004,3.18021c-3.85585,0-6.55918-2.38513-6.55918-5.76359,0-3.02142,2.02757-5.20737,5.72475-6.20163a28.22173,28.22173,0,0,1,7.03606-.79508v-1.31194c0-3.21967-1.272-4.69143-4.09461-4.69143-2.18636,0-3.8165.71615-5.96287,2.58545l-1.94772-2.14742a10.79074,10.79074,0,0,1,7.91059-3.18031c4.77037,0,7.39425,2.62388,7.39425,7.43371v9.06426c0,1.70845.47688,2.18585,2.26581,2.18585.07986,0,.11932.0405.11932.15982a7.145,7.145,0,0,1-.03946.83454v1.59005c-.67617.03947-.79508.03947-1.11317.03947A4.188,4.188,0,0,1,187.123,144.907Zm-.39754-7.83125c-6.67851.23875-9.46118,1.54966-9.46118,4.53161,0,2.06756,1.35131,3.22071,3.8164,3.22071,3.29963,0,5.64478-1.90877,5.64478-4.572Z"/>
            <path d="M196.70365,125.98355h3.29963v8.8659H209.862v-8.8659h3.29964v20.79176H209.862v-9.18358h-9.85872v9.18358h-3.29963Z"/>
            <path d="M236.97379,136.35964c0,6.2816-4.09461,10.77271-9.81884,10.77271-5.72465,0-9.81926-4.53161-9.81926-10.85153,0-6.12177,4.17406-10.65442,9.81926-10.65442C232.87918,125.6264,236.97379,130.11866,236.97379,136.35964Zm-16.21924.0405c0,4.88969,2.46458,7.99,6.32054,7.99,4.01527,0,6.47984-3.06088,6.47984-8.03054,0-4.84918-2.504-7.991-6.4-7.991C223.21913,128.36868,220.75455,131.47,220.75455,136.40014Z"/>
            <path d="M253.3918,125.98355h4.09367l6.71849,18.04856H266.312v6.87728h-2.34577l-.4774-4.13408H247.349l-.43741,4.13408h-2.4246v-6.87728h2.10692Zm7.39321,18.04856-5.4455-15.2254-5.446,15.2254Z"/>
            <path d="M275.21636,125.98355h3.89646l7.115,20.79176h-3.57775l-5.56534-17.45173-5.44611,17.45173h-3.41886Z"/>
            <path d="M303.4004,146.77531v-8.50793h-4.53161a4.802,4.802,0,0,0-3.339.875c-.79508.67668-.99437,1.19251-1.47083,3.49882a11.68367,11.68367,0,0,1-1.55059,4.13407h-3.14085v-.75561a13.33513,13.33513,0,0,0,1.82891-5.08794,4.693,4.693,0,0,1,2.66334-3.65761c-2.38523-.99333-3.419-2.66335-3.419-5.44612a5.41657,5.41657,0,0,1,2.107-4.69144c1.11369-.83443,2.58442-1.153,5.2083-1.153h8.865v20.79176Zm0-18.12749h-5.96288c-2.544,0-3.776,1.03383-3.776,3.18021,0,2.38524,1.51019,3.777,4.13407,3.777h5.60481Z"/>
            <path d="M340.41192,146.77531,333.654,137.791h-1.78935v8.9843H328.645v-9.14309H326.896l-6.79846,9.14309h-3.69707l8.14976-10.41567L316.798,125.98355h3.89636l6.16113,8.98429H328.645v-8.98429h3.21967v9.14412h1.74884l6.20173-9.14412h3.73747l-7.59343,10.41659,8.34811,10.37517Z"/>
            <path d="M348.1632,125.98355h3.29964v14.03381l9.97763-11.68711v-2.3467H364.74v20.79176h-3.29953V132.50379l-9.97763,11.6871v2.58442H348.1632Z"/>
            <path d="M372.17474,140.57368c.83444,2.58338,2.74321,3.8165,6.00234,3.8165,3.14075,0,5.12844-1.35244,5.12844-3.53828s-2.06755-3.57775-5.32668-3.57775h-3.3795v-2.74331h3.26007c2.981,0,4.96861-1.19158,4.96861-3.02038s-1.86827-3.14178-4.53161-3.14178c-2.74321,0-4.29286.876-5.28723,2.94249l-2.78267-.99426c1.11369-3.18032,3.69707-4.69051,8.10936-4.69051,4.81076,0,7.71287,2.18595,7.71287,5.84356,0,1.98769-.75562,3.14084-2.70386,4.25453a4.94582,4.94582,0,0,1,3.3795,5.04744c0,4.01579-3.1802,6.36042-8.58676,6.36042-3.14074,0-5.76463-.8739-7.35478-2.46406a6.0748,6.0748,0,0,1-1.70948-3.419Z"/>
            <path d="M392.131,125.98355h3.29954v8.8659h9.8583v-8.8659h3.29953v20.79176h-3.29953v-9.18358h-9.8583v9.18358H392.131Z"/>
            <path d="M415.70454,125.98355h3.29953v14.03381l9.97763-11.68711v-2.3467h3.29963v20.79176H428.9817V132.50379l-9.97763,11.6871v2.58442h-3.29953Z"/>
        </g>
        <g id="brand-russian-2">
            <g id="logotype-32" data-name="logotype">
                <path id="logotype-b-32" data-name="logotype-b" d="M185.2,47.68922a13.76635,13.76635,0,0,0,8.8-13c0-11.7-8.3-17.5-19.7-17.5H144.4v63.6h32.5c10,0,19.8-7,19.8-17.7C196.7,50.38921,185.2,47.78922,185.2,47.68922Zm-25.2-17.3h11.6a5.66863,5.66863,0,0,1,6,6,5.9267,5.9267,0,0,1-6.3,5.8H159.9l.1-11.8Zm11.7,37.1H160.1v-12.5h11.3c5.7,0,8.4,2.5,8.4,6.2C179.8,65.78922,176.4,67.48922,171.7,67.48922Z" style="fill:#EA0016;fill-rule:evenodd"/>
                <path id="logotype-o-32" data-name="logotype-o" d="M231.1,15.58923c-18.4,0-29.2,14.7-29.2,33.3,0,18.7,10.8,33.3,29.2,33.3,18.5,0,29.2-14.6,29.2-33.3C260.3,30.28922,249.6,15.58923,231.1,15.58923Zm0,51.4c-9,0-13.5-8.1-13.5-18.1s4.5-18,13.5-18,13.6,8.1,13.6,18C244.7,58.98922,240.1,66.98922,231.1,66.98922Z" style="fill:#EA0016;fill-rule:evenodd"/>
                <path id="logotype-s-32" data-name="logotype-s" d="M294.2,42.18922l-2.2-.5c-5.4-1.1-9.7-2.5-9.7-6.4,0-4.2,4.1-5.9,7.7-5.9a17.89364,17.89364,0,0,1,13,5.9l9.9-9.8c-4.5-5.1-11.8-10-23.2-10-13.4,0-23.6,7.5-23.6,20,0,11.4,8.2,17,18.2,19.1l2.2.5c8.3,1.7,11.4,3,11.4,7,0,3.8-3.4,6.3-8.6,6.3-6.2,0-11.8-2.7-16.1-8.2l-10.1,10c5.6,6.7,12.7,11.9,26.4,11.9,11.9,0,24.6-6.8,24.6-20.7C314.3,46.88921,303.3,44.08923,294.2,42.18922Z" style="fill:#EA0016;fill-rule:evenodd"/>
                <path id="logotype-c-32" data-name="logotype-c" d="M349.7,66.98922c-7,0-14.3-5.8-14.3-18.5,0-11.3,6.8-17.6,13.9-17.6,5.6,0,8.9,2.6,11.5,7.1l12.8-8.5c-6.4-9.7-14-13.8-24.5-13.8-19.2,0-29.6,14.9-29.6,32.9,0,18.9,11.5,33.7,29.4,33.7,12.6,0,18.6-4.4,25.1-13.8l-12.9-8.7C358.5,63.98922,355.7,66.98922,349.7,66.98922Z" style="fill:#EA0016;fill-rule:evenodd"/>
                <polygon id="logotype-h-32" data-name="logotype-h" points="416.3 17.189 416.3 40.589 397 40.589 397 17.189 380.3 17.189 380.3 80.789 397 80.789 397 55.689 416.3 55.689 416.3 80.789 433 80.789 433 17.189 416.3 17.189" style="fill:#EA0016;fill-rule:evenodd"/>
            </g>
            <g id="symbol-32" data-name="symbol">
                <path d="M48.2.98922a48.2,48.2,0,1,0,48.2,48.2A48.22579,48.22579,0,0,0,48.2.98922Zm0,91.9a43.7,43.7,0,1,1,43.7-43.7A43.7447,43.7447,0,0,1,48.2,92.88921Z" style="fill:#606061"/>
                <path d="M68.1,19.08923H64.8v16.5H31.7v-16.5H28.3a36.06329,36.06329,0,0,0,0,60.2h3.4v-16.5H64.8v16.5h3.3a36.06329,36.06329,0,0,0,0-60.2Zm-41,53.7a31.5717,31.5717,0,0,1,0-47.2Zm37.7-14.6H31.7v-18.1H64.8Zm4.5,14.5v-10h0v-27.1h0v-10a31.65957,31.65957,0,0,1,0,47.1Z" style="fill:#606061"/>
            </g>
        </g>
    </g>    </g>
</svg>
