<svg width="131" height="56" viewBox="0 0 131 56" fill="none" xmlns="http://www.w3.org/2000/svg">
<rect width="56" height="56" rx="28" fill="#FFC40B"/>
<path fill-rule="evenodd" clip-rule="evenodd" d="M28.0588 12C27.539 12 27.1176 12.4214 27.1176 12.9412V14.8235C27.1176 15.3433 27.539 15.7647 28.0588 15.7647C28.5786 15.7647 29 15.3433 29 14.8235V12.9412C29 12.4214 28.5786 12 28.0588 12ZM27.1176 42.7451H25.8627C25.1697 42.7451 24.6078 42.1833 24.6078 41.4902C24.6078 40.7971 25.1697 40.2353 25.8627 40.2353H30.8824C31.5754 40.2353 32.1373 40.7971 32.1373 41.4902C32.1373 42.1833 31.5754 42.7451 30.8824 42.7451L29.6275 42.7451C29.6275 43.4382 29.0656 44 28.3726 44C27.6795 44 27.1176 43.4382 27.1176 42.7451ZM37.4359 16.3465C37.8342 15.9487 38.4795 15.9487 38.8778 16.3465C39.2768 16.745 39.2768 17.3916 38.8778 17.7901L37.4342 19.2321C37.0359 19.6299 36.3906 19.6299 35.9923 19.2321C35.5933 18.8336 35.5933 18.187 35.9923 17.7885L37.4359 16.3465ZM43.1176 27.0588C43.1176 26.539 42.6963 26.1176 42.1765 26.1176H40.2941C39.7743 26.1176 39.3529 26.539 39.3529 27.0588C39.3529 27.5786 39.7743 28 40.2941 28H42.1765C42.6963 28 43.1176 27.5786 43.1176 27.0588ZM13.9412 28C13.4214 28 13 27.5786 13 27.0588C13 26.539 13.4214 26.1176 13.9412 26.1176H15.8235C16.3433 26.1176 16.7647 26.539 16.7647 27.0588C16.7647 27.5786 16.3433 28 15.8235 28H13.9412ZM17.0734 37.9704C17.3965 38.4313 18.0319 38.5434 18.4932 38.2208L20.1662 37.0507C20.6282 36.7276 20.7405 36.091 20.4168 35.6293C20.0937 35.1684 19.4583 35.0564 18.997 35.379L17.324 36.5491C16.8621 36.8722 16.7498 37.5088 17.0734 37.9704ZM38.7445 36.5491C39.2065 36.8722 39.3187 37.5088 38.9951 37.9704C38.672 38.4314 38.0366 38.5434 37.5753 38.2208L35.9023 37.0507C35.4403 36.7276 35.3281 36.091 35.6517 35.6293C35.9748 35.1684 36.6102 35.0564 37.0715 35.379L38.7445 36.5491ZM17.2099 16.3465C16.811 16.745 16.811 17.3916 17.2099 17.7901L18.6535 19.2321C19.0519 19.6299 19.6972 19.6299 20.0955 19.2321C20.4945 18.8336 20.4945 18.187 20.0955 17.7885L18.6519 16.3465C18.2536 15.9487 17.6083 15.9487 17.2099 16.3465ZM25.8627 39.6078C25.1697 39.6078 24.6078 39.046 24.6078 38.3529C24.6078 37.6599 25.1697 37.098 25.8627 37.098H30.8824C31.5754 37.098 32.1373 37.6599 32.1373 38.3529C32.1373 39.046 31.5754 39.6078 30.8824 39.6078H25.8627ZM28.0588 18.2745C23.1363 18.2745 19.5882 22.1811 19.5882 26.5614C19.5882 28.6505 20.3799 30.5565 21.6847 32.0129C22.3661 32.7736 23.8347 35.413 23.9504 35.633C24.7519 37.2047 26.7348 36.3273 26.0873 34.7935C25.6488 33.7183 24.8293 32.094 23.4221 30.5231C22.4336 29.4199 21.9051 28.0206 21.9008 26.5614C21.8912 23.0941 24.7726 20.5346 28.0588 20.5346C31.4557 20.5346 34.2193 23.2382 34.2193 26.5614C34.2193 28.0196 33.6783 29.4265 32.696 30.5231C31.2926 32.0892 30.4724 33.7141 30.0326 34.7907C29.401 36.1407 31.3413 37.322 32.1632 35.6444C32.7358 34.2517 33.7503 32.7757 34.4334 32.0133C35.7377 30.5565 36.5294 28.6505 36.5294 26.5614C36.5294 21.9848 32.7369 18.2745 28.0588 18.2745ZM23 27C23 28.5 25.25 28.5 25.25 27C25.25 25.75 26.75 24.25 28 24.25C29.5 24.25 29.5 22 28 22C25.25 22 23 24.25 23 27Z" fill="black"/>
<path d="M77.459 29.5605H81.1113L79.3145 23.8965L77.459 29.5605ZM77.6445 20.6055H81.043L86.1406 35H82.8789L81.9512 32.041H76.6484L75.6523 35H72.5078L77.6445 20.6055ZM90.8965 23.1055V32.5H93.6699C95.0892 32.5 96.0788 31.8001 96.6387 30.4004C96.9447 29.6322 97.0977 28.7174 97.0977 27.6562C97.0977 26.1914 96.8665 25.0684 96.4043 24.2871C95.9486 23.4993 95.0371 23.1055 93.6699 23.1055H90.8965ZM94.1777 20.6055C95.0697 20.6185 95.8118 20.7227 96.4043 20.918C97.4134 21.25 98.2305 21.8587 98.8555 22.7441C99.3568 23.4603 99.6986 24.235 99.8809 25.0684C100.063 25.9017 100.154 26.696 100.154 27.4512C100.154 29.3652 99.7702 30.9863 99.002 32.3145C97.9603 34.1048 96.3522 35 94.1777 35H87.9766V20.6055H94.1777ZM111.971 20.6055H116.297V35H113.494V25.2637C113.494 24.9837 113.497 24.5931 113.504 24.0918C113.51 23.584 113.514 23.1934 113.514 22.9199L110.789 35H107.869L105.164 22.9199C105.164 23.1934 105.167 23.584 105.174 24.0918C105.18 24.5931 105.184 24.9837 105.184 25.2637V35H102.381V20.6055H106.756L109.373 31.9238L111.971 20.6055ZM129.734 23.1543H122.117V26.2109H129.109V28.7109H122.117V32.4121H130.086V35H119.178V20.6055H129.734V23.1543Z" fill="black"/>
</svg>
