<svg width="137" height="46" viewBox="0 0 137 46" fill="none" xmlns="http://www.w3.org/2000/svg">
<path d="M22.9031 45.7909C35.5521 45.7909 45.8061 35.5403 45.8061 22.8955C45.8061 10.2506 35.5521 0 22.9031 0C10.254 0 0 10.2506 0 22.8955C0 35.5403 10.254 45.7909 22.9031 45.7909Z" fill="#CA202B"/>
<path d="M29.9099 34.2909C29.9099 34.2909 27.8183 34.2909 27.8183 31.6773V14.6364C27.8183 12.0227 26.9817 11.0818 26.9817 11.0818C26.9817 11.0818 29.7008 12.0227 29.7008 15.5773V30.7364C29.7008 34.1864 31.4786 33.6636 31.4786 33.6636C31.4786 33.6636 31.0603 34.2909 29.9099 34.2909ZM25.7267 30.0045C25.7267 30.0045 23.3214 33.0364 20.0794 33.0364C17.3603 33.0364 15.4779 30.7364 15.4779 28.2273C15.4779 21.2227 25.7267 20.3864 25.7267 20.3864V30.0045ZM17.9878 34.6045C14.955 34.6045 13.3863 31.9909 13.3863 29.4818C13.3863 27.9136 13.8046 26.5545 14.7458 25.4045L14.8504 25.3C14.5366 26.2409 14.3275 27.1818 14.3275 28.2273C14.3275 31.4682 16.3145 33.9773 19.2427 34.5C18.7198 34.6045 18.4061 34.6045 17.9878 34.6045ZM16.1053 15.7864C16.1053 16.2045 15.687 16.6227 15.2687 16.5182C14.8504 16.5182 14.5366 16.2045 14.5366 15.7864C14.5366 15.7864 14.5366 13.6954 16.8374 11.7091C15.7916 13.6954 16.1053 15.7864 16.1053 15.7864ZM33.0473 32.6182C31.7924 32.6182 31.8969 31.05 31.8969 31.05V17.8773C31.8969 15.5773 31.5832 8.88635 22.9031 8.88635C19.8702 8.88635 17.3603 9.61817 15.687 10.9773C14.0137 12.3364 13.0725 13.8 13.0725 15.4727C13.0725 16.3091 13.2817 17.0409 13.7 17.4591C14.1183 17.9818 14.7458 18.1909 15.3733 18.1909C16.1053 18.1909 16.6282 17.9818 17.1511 17.4591C17.5695 16.9364 17.7786 16.3091 17.7786 15.4727V14.7409C17.7786 12.1273 19.3473 10.35 21.7527 10.35C24.158 10.35 25.8313 12.1273 25.8313 14.7409V18.6091C25.8313 18.6091 11.6084 19.8636 11.6084 29.5864C11.6084 33.0364 14.0137 36.2773 17.8832 36.2773C22.3802 36.2773 25.7267 32.6182 25.7267 32.6182C25.7267 32.6182 26.5634 36.2773 29.7008 36.2773C31.6878 36.2773 33.5702 34.9182 36.0802 32.0954V30.5273C36.0802 30.4227 34.3023 32.6182 33.0473 32.6182Z" fill="#FEFEFE"/>
<path d="M50.4077 32.0954V30.9454H52.8131V16.5181H50.4077V14.1136H56.3688V17.7727C56.3688 16.5181 57.5192 15.6818 58.4604 15.0545C59.4016 14.4272 60.3428 14.1136 61.5978 14.1136C63.5848 14.1136 64.9444 14.6363 65.8856 15.7863C66.8268 16.9363 67.1405 18.7136 67.1405 21.1181V30.9454H69.5459V32.0954H61.1795V30.9454H63.5848V22.059C63.5848 19.8636 63.5848 18.3999 63.0619 17.5636C62.539 16.7272 61.7024 16.309 60.3428 16.309C58.8787 16.309 58.0421 16.8318 57.31 17.8772C56.5779 18.9227 56.3688 20.4909 56.3688 22.4772V30.9454H58.7741V32.0954H50.4077V32.0954ZM86.0695 22.5818C85.965 20.1772 85.5466 18.7136 84.71 17.5636C83.8734 16.5181 82.723 15.8909 81.1543 15.8909C79.6902 15.8909 78.6444 16.6227 77.8077 17.6681C76.9711 18.7136 76.4482 20.1772 76.3436 22.5818C76.3436 22.5818 86.0695 22.5818 86.0695 22.5818ZM89.7299 23.7318H76.7619V23.9408C76.7619 26.3454 76.9711 28.2272 77.9123 29.3772C78.8535 30.6318 80.1085 31.259 81.8863 31.259C83.2459 31.259 84.2917 31.0499 85.1283 30.3181C85.965 29.5863 86.5924 28.5408 86.9062 27.2863H89.4161C88.8932 28.4363 88.0566 30.5272 86.697 31.5727C85.3375 32.5136 83.6642 33.0363 81.468 33.0363C78.8535 33.0363 76.7619 32.0954 75.1932 30.4227C73.6245 28.7499 72.7879 26.3454 72.7879 23.5227C72.7879 20.6999 73.5199 18.3999 75.0886 16.6227C76.6573 14.8454 78.7489 14.009 81.2589 14.009C83.9779 14.009 86.0695 14.7409 87.5337 16.5181C88.9978 18.1909 89.7299 20.1772 89.7299 23.7318ZM108.031 14.1136L112.633 28.4363L116.712 16.5181H113.992V14.1136H119.954V16.5181H118.594L113.26 32.0954H110.646L106.254 18.7136L101.861 32.0954H99.3512L94.0176 16.5181H92.3444V14.1136H99.5604V16.5181H97.2596L101.234 28.4363L105.835 14.1136H108.031ZM122.359 31.4681V27.3909H124.764C124.764 28.5409 125.183 29.6908 126.019 30.3181C126.856 30.9454 128.006 31.259 129.575 31.259C130.934 31.259 131.98 30.9454 132.712 30.4227C133.444 29.8999 133.758 29.1681 133.758 28.1227C133.758 27.2863 133.444 26.659 132.921 26.2409C132.399 25.7181 131.248 25.1954 129.575 24.6727L127.379 23.9408C125.81 23.4181 124.764 22.7909 124.032 22.059C123.3 21.3272 122.986 20.3863 122.986 19.2363C122.986 17.5636 123.614 16.309 124.764 15.3681C126.019 14.4272 127.588 14.009 129.784 14.009C130.725 14.009 131.457 14.1136 132.503 14.4272C133.549 14.6363 134.281 15.0545 135.536 15.4727V18.9227H134.176C134.176 17.7727 133.758 17.1454 132.921 16.4136C132.189 15.7863 131.144 15.5772 129.784 15.5772C128.529 15.5772 127.483 15.8909 126.856 16.309C126.228 16.7272 125.81 17.459 125.81 18.3999C125.81 19.1318 126.019 19.759 126.542 20.1772C127.065 20.5954 128.111 21.1181 129.575 21.5363L132.085 22.2681C133.758 22.7908 135.013 23.4181 135.745 24.2545C136.477 25.0909 136.895 26.0318 136.895 27.2863C136.895 28.959 136.268 30.3181 134.908 31.259C133.654 32.1999 131.771 32.7227 129.575 32.7227C128.425 32.7227 126.96 32.6181 125.915 32.3045C124.869 32.3045 123.614 31.9908 122.359 31.4681Z" fill="black"/>
</svg>
