<?xml version="1.0" encoding="utf-8"?>
<!-- Generator: Adobe Illustrator 24.3.0, SVG Export Plug-In . SVG Version: 6.00 Build 0)  -->
<svg version="1.1" id="Layer_1" xmlns="http://www.w3.org/2000/svg" xmlns:xlink="http://www.w3.org/1999/xlink" x="0px" y="0px"
	 viewBox="0 0 570 22" style="enable-background:new 0 0 570 22;" xml:space="preserve">
<style type="text/css">
	.st0{fill-rule:evenodd;clip-rule:evenodd;fill:#231F20;}
	.st1{fill:#231F20;}
	.st2{fill-rule:evenodd;clip-rule:evenodd;fill:#ED1C24;}
	.st3{fill:#ED1C24;}
</style>
<g>
	<path class="st0" d="M350.4,22l3.8-5.2h8l-3.7,5.1L350.4,22z M56.4,0L51,7.4H34L39.3,0H56.4z M34,7.4l-5.3,7.2h-17L17,7.5L34,7.4z
		 M45.7,14.6L40.4,22h-17l5.3-7.3L45.7,14.6z M22.4,0L17,7.4H0L5.3,0H22.4z"/>
	<path class="st1" d="M478.8,0h-30l-16,22h7.8l12.2-16.8h7.6l-12.2,16.7h7.1l12.3-16.7h2.6c4.4,0,5.5,0,4,1.9l-10.7,14.8h7.8
		l11.3-15.4C485.5,2.5,481.6,0,478.8,0L478.8,0z M410.9,0h-24.7c-8,0-10.2,3.2-11.7,5.2l-8.3,11.3c-4,5.4,3.3,5.4,7.6,5.4h21.1
		l2.8-3.8h-22c-1.3,0-2.7,0-1.7-1.5L382.6,5c0.7-1,3.6-1,5-1H408L410.9,0z M507.5,4L504,8.6h14.6c1,0,2,0,4.6-3.5
		c1-1.3-1.6-1.3-1.6-1.3h-14L507.5,4z M501.1,12.6l-6.8,9.4h-7.8l16-22h23.1c1.4,0,6.1,1,6,3.9c0,0.5-1.6,2.8-3,4.8
		c-2.1,2.8-3,4-6.3,4h-2V22h-7.7v-9.4H501.1z M525.3,16.6l12-16.6h8c-3.7,5-7.4,10-11,15.1c-2.2,3-2.2,3,1.3,3h10
		c3.3,0,3.3,0,4.6-1.8L562.1,0h7.9c0,0-8.4,11.4-13.1,18.1c-2.9,3.8-2.9,3.8-18.3,3.9c-11,0-17.2,0-13.3-5.5L525.3,16.6z M422.5,3.8
		c-1.4,0-4.3,0-5,1l-8.6,11.8c-1,1.4,0.4,1.4,1.8,1.4h12.1c2,0,3-1.2,3.9-2.5l7-9.8c1.5-2-2-2-5-2L422.5,3.8L422.5,3.8z M408.7,21.8
		c-4.3,0-11.5,0-7.6-5.4l8.3-11.3c1.5-2,3.8-5.2,11.7-5.2h16.3c2.9,0,6.7,2.5,3.8,6.5L432.8,18c-1.6,2-2.9,3.8-10,3.9"/>
</g>
<g>
	<path class="st2" d="M475.1,22l3.8-5.2h8.1l-3.7,5.1L475.1,22z"/>
	<path class="st3" d="M311.5,3.9l-3.6,4.8h14.6c1,0,2,0,4.6-3.5c1-1.3-1.6-1.3-1.6-1.3S311.5,3.9,311.5,3.9z M305.1,12.6l-6.9,9.3
		h-7.8l16-21.9h23.2c1.3,0,6,1,6,3.9c0,0.5-1.7,2.8-3.1,4.8c-2.1,2.8-2.9,4-6.3,4h-1.9v9.2h-7.8v-9.3L305.1,12.6z M280,4
		c-1.3,0-4.2,0-4.9,1l-8.6,11.8c-1,1.4,0.4,1.4,1.8,1.4h12c2.2,0,3-1.2,4-2.5l7-9.7c1.5-2-2-2-5-2L280,4L280,4z M266.3,22
		c-4.3,0-11.5,0-7.6-5.3L267,5.3c1.5-2,3.8-5.2,11.7-5.2H295c2.9,0,6.7,2.5,3.8,6.5L290.5,18c-1.6,2-3,3.8-10,3.9 M243.7,3.9
		c-3,0-4,1.5-4.9,2.7l-1.5,2H250c2.4,0,4,0,5.3-1.6l1.6-2.2c0.6-1-2.3-1-3.4-1h-9.8V3.9z M234.4,12.6l-6.8,9.3h-7.9l13.2-18
		c2-2.8,7.4-3.7,10.7-3.9h8.5c16.2,0,13.3,3.9,12.2,5.5L262,8.7c-2.9,3.8-3,4-8.5,3.9L234.4,12.6L234.4,12.6z"/>
	<path class="st2" d="M233,0h-24.7c-4,0-7.8,0-10.6,3.9l-3.5,4.8c-2.9,4-0.3,4,5,4h16.7l-2.4,3.1c-0.5,0.8-1.6,2.3-4.2,2.3h-22
		l-2.8,3.8h24.6c7.9,0,9-1.4,10.7-3.8l4-5.5c1.2-1.7,2.8-4-5-4H202c0,0,0.6-0.6,2.8-3.7c0.7-1,3-1,4.2-1h21L233,0z"/>
	<path class="st3" d="M175,3.9c-1.4,0-4.3,0-5,1l-8.6,11.7c-1,1.5,0.4,1.5,1.8,1.5h12c2.2,0,3-1.2,4-2.5l7-9.8c1.5-2-2-2-5-2
		L175,3.9L175,3.9z M161.2,21.9c-4.3,0-11.5,0-7.6-5.4l8.3-11.4c1.5-2,3.8-5,11.7-5h16.3c2.9,0,6.7,2.4,3.8,6.4L185.3,18
		c-1.6,2-3,3.8-10,3.8 M149,4l-13.2,18H128l13-18h-12.7l2.8-3.9h32.3L160.7,4H149z M84.5,16.5L96.5,0h7.9l-11,15.1
		c-2.2,3-2.2,3,1.3,3h10c3.4,0,3.4,0,4.7-1.8L121.2,0h8L116,18.1c-2.9,3.8-2.9,3.8-18.3,3.9C86.7,22,80.5,22,84.5,16.5z"/>
	<path class="st2" d="M69,0c-5.2,0-9.6,2.6-10.5,4c-4.4,6-8.8,12-13.2,18h8l6.7-9.3h16.8L69.9,22h7.8L89.5,6c1.4-2,1.1-5.9-3.7-5.9
		L69,0z M65,5.8c1-1.4,3.7-2,4.3-2l11,0.1c2.2,0,2,1,1.5,1.8l-2.2,3H62.8l2-2.9L65,5.8z"/>
	<path class="st3" d="M357.1,3.9l-13.1,18h-8l13.2-18h-12.7l2.8-3.9h32.3l-2.8,4L357.1,3.9z"/>
</g>
</svg>
