<?xml version="1.0" encoding="utf-8"?>
<!-- Generator: Adobe Illustrator 24.3.0, SVG Export Plug-In . SVG Version: 6.00 Build 0)  -->
<svg version="1.1" id="Layer_1" xmlns="http://www.w3.org/2000/svg" xmlns:xlink="http://www.w3.org/1999/xlink" x="0px" y="0px"
	 viewBox="0 0 167.5 57.9" style="enable-background:new 0 0 167.5 57.9;" xml:space="preserve">
<style type="text/css">
	.st0{fill:#3BA3E3;}
	.st1{fill:#D85D91;}
</style>
<path class="st0" d="M78.3,9.8c0.3,1.8,0.5,3.6,0.8,5.4c-2.5,1.3-5.1,1.3-7.5,1.9c-1.8,0.4-3.6,0.7-5.4,1.1c-1.4,0.3-2.6,1-3.3,2.7
	c1.7-0.6,3.2-1.2,4.7-1.5c4.6-1,9.5,1,11.8,4.7c2.4,4,2,9.6-1.3,13c-4.9,5.1-12.8,5.6-17.9,1.2c-2.2-1.9-3.2-4.7-3.5-7.6
	c-0.3-3.2-0.2-6.5,0.2-9.7c0.7-5.4,4-8.6,9.4-9.6c3.4-0.6,6.9-1.2,10.3-1.7C77.1,9.6,77.6,9.7,78.3,9.8z M68.5,25
	c-2.6,0-4.1,1.7-4.1,4.5c0,2.8,1.8,4.6,4.4,4.6c2.4-0.1,4.1-2.1,4.1-4.7C72.9,26.9,71,25,68.5,25z"/>
<path class="st0" d="M26.8,9.7c0.3,1.8,0.7,3.6,1,5.7c-0.9,0.2-1.6,0.5-2.4,0.6c-3.4,0.7-6.9,1.3-10.3,2c-1.5,0.3-2.9,1-3.7,3
	c1.4-0.6,2.4-1,3.5-1.4c2.6-0.9,5.2-0.8,7.8,0.2c4.3,1.7,6.7,5.3,6.7,9.8c0,4.5-2.8,8.7-7,10.4c-2.4,1-5,1.3-7.6,1
	c-4.7-0.6-8.2-3.7-9.3-8.5c-1-4.2-1-8.4,0.1-12.6c1.1-4.4,4-7.3,8.4-8.3c3.6-0.8,7.4-1.3,11-2C25.6,9.5,26.1,9.7,26.8,9.7z
	 M21.5,29.6c0-2.8-1.6-4.5-4.2-4.6C14.7,25,13,26.7,13,29.5c0,2.4,1.9,4.6,4.2,4.6C19.8,34.1,21.4,32.4,21.5,29.6z"/>
<path class="st0" d="M107,40.5c0,0-5.2,0-7.9,0c0-3.3,0-6.6,0-9.8c-0.2-0.1-0.4-0.1-0.6-0.2c-2.2,3.3-4.4,6.5-6.7,9.9
	c-2.4,0-7.3,0-7.3,0l0-22.6H92l0,11.4c0,0,5.2-7.9,7.6-11.4c2.4,0,7.4,0,7.4,0L107,40.5z"/>
<g>
	<path class="st1" d="M131.7,25.7c-1.8,0-3.3,1.7-3.3,3.8c0,2.1,1.5,3.8,3.3,3.8c1.8,0,3.3-1.7,3.3-3.8
		C135,27.4,133.5,25.7,131.7,25.7z"/>
	<path class="st1" d="M138.2,3.5c-13.8,0-25,11.2-25,25c0,0.5,0,1.1,0.1,1.6c0.7-0.3,1.4-0.6,2.2-0.6c2.6,0,4.8,2.1,4.8,4.8
		c0,2.6-2.1,4.7-4.7,4.8c4,8.6,12.6,14.5,22.7,14.5c13.8,0,25-11.2,25-25C163.2,14.7,152,3.5,138.2,3.5z M137.7,34.3
		c-2.2,2.7-6.4,3.4-9.6,0.6v5.8h-3.9v-18h3.9v1.5c1.9-1.6,3.8-2.1,6-1.7c1.5,0.3,2.5,1.1,3.3,2.1C139.6,27,139.7,31.9,137.7,34.3z
		 M150.4,36c-0.2,0.5-0.5,1.1-0.7,1.6c-1.6,3.4-4,4.1-7.8,2.2c0.3-0.7,1-2,1.3-2.7c1,0.6,2.6,1,3-0.3c-1.7-4.7-5.1-14.1-5.1-14.1
		h3.9l3.2,9.2l3.2-9.1h3.8C155.2,22.7,151.8,32.5,150.4,36z"/>
</g>
<path class="st0" d="M43.9,17.5c-4.7-1.3-10.1,0.6-12.4,4.5c1.5,1.2,3.2,2.5,4.6,3.7c2.8-3.3,8.1-2.5,9.1,1c0,0.1,0,0.2,0,0.2h-6
	v4.5h6c-0.3,1.5-1.5,2.5-2.5,2.9c-2.5,1-4.9,0.2-6.8-1.7c-1.5,1.1-3,2.2-4.6,3.3c2.4,4.4,7.4,6.1,12.8,4.7c5.4-1.4,8.8-5.6,8.8-11.2
	C53.1,23.4,49.8,19.2,43.9,17.5z"/>
</svg>
