<svg width="3928" height="2483" viewBox="0 0 3928 2483" fill="none" xmlns="http://www.w3.org/2000/svg">
<g filter="url(#filter0_f_476_338)">
<ellipse rx="683" ry="623" transform="matrix(-1 1.74846e-07 1.74846e-07 1 1420 1413)" fill="#FFB39B" fill-opacity="0.35"/>
</g>
<g filter="url(#filter1_f_476_338)">
<ellipse rx="651.829" ry="344.872" transform="matrix(-0.983124 0.182937 0.182937 0.983124 2487.89 1165.93)" fill="#FF4161"/>
</g>
<g filter="url(#filter2_f_476_338)">
<path d="M2000 1156C2559.26 1126.49 2731.5 599.502 2926 614.502C3170.5 633.358 3124.94 1127.66 2926 1316C2691.5 1538 1621 1176 2000 1156Z" fill="#FFB39B"/>
</g>
<g filter="url(#filter3_f_476_338)">
<path d="M2545.5 1600C2717.26 1600 2798 1691.33 2798 1814.5C2798 2071.5 1336.33 1757.38 1106.74 1543.06C938.002 1385.55 959.638 1163.75 1137.5 1085C1338.5 996 1461.52 1014.65 1659 1085C1823.77 1143.7 1865.44 1107 2046.5 1156.5C2215.97 1202.84 2392.93 1600 2545.5 1600Z" fill="#FFC59B"/>
</g>
<g filter="url(#filter4_f_476_338)">
<ellipse rx="295.5" ry="265" transform="matrix(-1 1.74846e-07 1.74846e-07 1 2780.5 713)" fill="#FFAEAE" fill-opacity="0.2"/>
</g>
<defs>
<filter id="filter0_f_476_338" x="437" y="490" width="1966" height="1846" filterUnits="userSpaceOnUse" color-interpolation-filters="sRGB">
<feFlood flood-opacity="0" result="BackgroundImageFix"/>
<feBlend mode="normal" in="SourceGraphic" in2="BackgroundImageFix" result="shape"/>
<feGaussianBlur stdDeviation="80" result="effect1_foregroundBlur_476_338"/>
</filter>
<filter id="filter1_f_476_338" x="1443.92" y="406.422" width="2087.95" height="1519.02" filterUnits="userSpaceOnUse" color-interpolation-filters="sRGB">
<feFlood flood-opacity="0" result="BackgroundImageFix"/>
<feBlend mode="normal" in="SourceGraphic" in2="BackgroundImageFix" result="shape"/>
<feGaussianBlur stdDeviation="80" result="effect1_foregroundBlur_476_338"/>
</filter>
<filter id="filter2_f_476_338" x="1719.56" y="414.188" width="1573.16" height="1173.59" filterUnits="userSpaceOnUse" color-interpolation-filters="sRGB">
<feFlood flood-opacity="0" result="BackgroundImageFix"/>
<feBlend mode="normal" in="SourceGraphic" in2="BackgroundImageFix" result="shape"/>
<feGaussianBlur stdDeviation="80" result="effect1_foregroundBlur_476_338"/>
</filter>
<filter id="filter3_f_476_338" x="791.404" y="825.039" width="2206.6" height="1285.95" filterUnits="userSpaceOnUse" color-interpolation-filters="sRGB">
<feFlood flood-opacity="0" result="BackgroundImageFix"/>
<feBlend mode="normal" in="SourceGraphic" in2="BackgroundImageFix" result="shape"/>
<feGaussianBlur stdDeviation="80" result="effect1_foregroundBlur_476_338"/>
</filter>
<filter id="filter4_f_476_338" x="2185" y="148" width="1191" height="1130" filterUnits="userSpaceOnUse" color-interpolation-filters="sRGB">
<feFlood flood-opacity="0" result="BackgroundImageFix"/>
<feBlend mode="normal" in="SourceGraphic" in2="BackgroundImageFix" result="shape"/>
<feGaussianBlur stdDeviation="80" result="effect1_foregroundBlur_476_338"/>
</filter>
</defs>
</svg>
