<svg xmlns="http://www.w3.org/2000/svg" width="135" height="19" viewBox="0 0 135.4 18.7"><style>.a{fill:#FFF;}</style><rect x="126.5" y="13" width="9" height="2" class="a"/><polygon points="135.4 3.5 135.4 1.6 126.5 1.6 126.5 11.6 135.4 11.6 135.4 9.6 128.5 9.6 128.5 7.4 128.5 7.4 128.5 5.4 128.5 5.4 128.5 3.5 " class="a"/><path d="M59.7 17V1.6h2v15.5H59.7z" class="a"/><rect x="65.4" y="1.6" width="10.9" height="2" class="a"/><polygon points="65.4 4.8 65.4 6.8 69.9 6.8 69.9 15 71.8 15 71.8 6.8 76.3 6.8 76.3 4.8 71.8 4.8 " class="a"/><rect x="16.8" y="1.6" width="10.9" height="2" class="a"/><polygon points="16.8 4.8 16.8 6.7 21.3 6.7 21.3 15 23.3 15 23.3 6.7 27.7 6.7 27.7 4.8 " class="a"/><path d="M37.8 2.8c3 0 5.5 2.5 5.5 5.5 0 3-2.5 5.5-5.5 5.5 -3 0-5.5-2.5-5.5-5.5C32.3 5.2 34.8 2.8 37.8 2.8M37.8 0.8c-4.1 0-7.5 3.4-7.5 7.5 0 4.1 3.4 7.5 7.5 7.5s7.5-3.4 7.5-7.5C45.3 4.1 41.9 0.8 37.8 0.8L37.8 0.8z" class="a"/><path d="M86.4 2.8c3 0 5.5 2.5 5.5 5.5 0 3-2.5 5.5-5.5 5.5 -3 0-5.5-2.5-5.5-5.5C80.9 5.2 83.4 2.8 86.4 2.8M86.4 0.8c-4.1 0-7.5 3.4-7.5 7.5 0 4.1 3.4 7.5 7.5 7.5 4.1 0 7.5-3.4 7.5-7.5C93.9 4.1 90.6 0.8 86.4 0.8L86.4 0.8z" class="a"/><path d="M100.4 15V1.5h7.8v2h-5.8v11.5H100.4z" class="a"/><line x1="97.6" y1="1.6" x2="97.6" y2="15" style="fill:none;stroke-width:2;stroke:#FFF"/><path d="M116.4 14.5V2.9h2v11.6H116.4z" class="a"/><path d="M127.7 5.3h4.2v2h-4.2V5.3z" class="a"/><path d="M121.8 13V1.5h-9.5v2.8c0 0.8 0 1.5-0.1 2.3 -0.1 0.8-0.2 1.6-0.4 2.3 -0.2 0.8-0.5 1.5-0.8 2.2 -0.3 0.7-0.7 1.2-1.2 1.8h-1.2v2h14.4v-2H121.8zM112.1 13c0.8-1.3 1.3-2.6 1.6-4.1 0.3-1.5 0.5-3 0.5-4.5V3.5h5.6v9.5H112.1z" class="a"/><rect x="0.5" y="0.5" transform="matrix(0.707 -0.7072 0.7072 0.707 -0.69 1.6666)" width="2.4" height="2.4" class="a"/><rect x="60.2" y="15.8" transform="matrix(0.707 -0.7072 0.7072 0.707 5.9498 48.35)" width="2.4" height="2.4" class="a"/><rect x="107.5" y="13.5" transform="matrix(0.707 -0.7072 0.7072 0.707 21.4651 81.1324)" width="2.4" height="2.4" class="a"/><path d="M56.2 8.7v4.9l2 2V1.6h-2V4.5c0 0.5-0.1 1-0.2 1.4 -0.1 0.4-0.4 0.8-0.6 1.1 -0.3 0.3-0.6 0.5-1 0.7 -0.4 0.2-0.9 0.3-1.4 0.3 -0.5 0-0.9-0.1-1.3-0.2 -0.4-0.2-0.7-0.4-1-0.7 -0.3-0.3-0.5-0.6-0.7-1 -0.2-0.4-0.3-0.8-0.3-1.3v-3.2h-2v3.3c0 0.7 0.1 1.4 0.4 2 0.3 0.6 0.6 1.2 1.1 1.6 0.5 0.5 1 0.8 1.7 1.1 0.6 0.3 1.3 0.4 2.1 0.4 0.6 0 1.2-0.1 1.8-0.4C55.3 9.4 55.8 9.1 56.2 8.7z" class="a"/><path d="M3.3 7.4l5.9-5.8h2.8l-4.1 4.1 9.4 9.3h-2.8L6.5 7.1 5.6 7.9l7.1 7.1H9.9L3.3 8.4" class="a"/><rect x="1.3" y="1.6" width="2" height="13.4" class="a"/></svg>