<svg xmlns="http://www.w3.org/2000/svg" enable-background="new 0 0 200 69" version="1.1" viewBox="0 0 200 69" xml:space="preserve">
<style type="text/css">
	.st0{fill:#1E1E1C;}
	.st1{fill:#E20D18;}
</style>
	<path class="st0" d="m1.11 41.66c0.85 0.06 3.14-0.12 3.8-0.85 0.6-0.6 0.6-1.87 0.6-3.14v-30.97c0-1.57-0.06-2.66-0.54-3.26-0.54-0.66-1.81-0.84-2.9-0.84h-0.96v-1.45h30.31l3.02 9.6-1.27 0.48c-0.85-1.45-3.38-5.49-5.86-7.12-2.6-1.69-5.55-1.57-9.48-1.57h-6.16v18.42h3.14c1.99 0 5.19 0.06 7.06-1.33 1.81-1.33 2.78-4.29 2.9-6.34h1.03v16.78h-1.03c-0.12-1.87-1.09-5.01-2.9-6.34-1.15-0.85-3.08-1.33-7.06-1.33h-3.14v14.73c0 1.27 0.06 2.84 0.97 3.68 0.66 0.6 1.93 0.85 3.98 0.85h3.68c2.54 0 5.25-0.18 7.61-1.57 2.35-1.39 5.31-5.37 6.88-8.33l1.15 0.36-2.23 10.93h-32.6v-1.39z"/>
	<path class="st0" d="m39.43 4.89c-0.6-1.51-1.51-2.17-2.48-2.23l-1.81-0.12v-1.39h16.36v1.39l-1.87 0.12c-3.08 0.18-3.38 1.27-3.38 2.23 0 0.48 0.06 0.91 0.48 2.05l10.99 27.77 9.9-26.93c0.18-0.48 0.54-1.57 0.54-2.48 0-2.35-2.41-2.6-3.26-2.66l-1.87-0.12v-1.37h13.4v1.39l-1.33 0.24c-2.17 0.42-3.56 0.42-5.49 5.49l-13.4 35.62h-1.21l-15.57-39z"/>
	<path class="st0" d="m66.82 41.6l2.05-0.36c1.99-0.36 2.9-3.62 3.74-5.92l10.39-27.65c0.06-0.18 0.18-0.85 0.18-1.03 0-0.6-0.3-0.97-0.36-1.09l-0.54-0.91c2.6-1.93 3.86-3.62 4.53-4.65h0.54l14.73 38.34c0.91 2.29 1.81 3.38 4.47 3.26v1.45h-15.82v-1.44l1.87-0.24c1.69-0.24 2.96-0.42 2.96-1.87 0-0.36-0.06-1.15-0.42-2.05l-3.68-10.08h-14.19l-3.08 8.39c-0.24 0.66-0.85 2.6-0.85 3.32 0 1.93 2.17 2.23 3.44 2.41l1.27 0.18v1.39h-11.23v-1.45zm23.97-16l-6.7-17.15-6.22 17.15h12.92z"/>
	<path class="st1" d="m113.15 36.29c1.99 0 3.56 1.57 3.56 3.56 0 1.93-1.63 3.56-3.56 3.56-1.99 0-3.56-1.63-3.56-3.56 0-2.05 1.51-3.56 3.56-3.56z"/>
	<path class="st0" d="m146.95 38.04c-7.12-13.46-11.95-14.49-14.91-14.07v14.01c0 1.99 0.24 3.68 4.35 3.68h0.91v1.39h-15.88v-1.45h0.42c2.84 0 4.05 0.24 4.05-4.41v-30.25c0-4.41-0.85-4.35-4.05-4.35h-0.42v-1.44l11.47-0.06c12.08-0.06 20.11 1.75 20.11 11.59 0 5.19-3.26 9.6-9.36 10.75 3.62 3.38 5.55 6.58 8.15 11.29l1.87 3.38c0.72 1.27 2.23 3.92 6.1 3.62v1.33h-10.14l-2.67-5.01zm-14.91-15.34c2.11 0.12 2.84 0.12 3.14 0.12 1.99 0 5.13-0.24 7.31-1.57 3.44-2.05 4.11-5.74 4.11-8.88 0-3.08-0.78-6.64-4.53-8.69-2.05-1.15-4.29-1.27-5.86-1.27-3.98 0-4.17 2.17-4.17 4.05v16.24z"/>
	<path class="st0" d="m162.48 6.46c0-2.11 0.3-4.17-4.41-3.92v-1.39h15.52v1.39h-1.51c-2.29 0-3.44-0.24-3.44 3.62v25.06c0 6.64 4.71 10.99 11.29 10.99 12.08 0 12.2-12.02 12.2-15.64v-18.42c0-4.77-1.51-5.62-4.29-5.62h-1.27v-1.38h12.32v1.39h-1.09c-2.42 0-3.92 0.78-3.92 5.62v19.08c0 4.17-0.24 16.54-15.4 16.54-8.21 0-12.32-2.9-14.19-6.52-1.69-3.2-1.81-7.49-1.81-12.14v-18.66z"/>
		<path class="st0" d="m6.55 63.16l-2.15 3.49h-1.63l2.45-3.82c-1.11-0.38-1.67-1.19-1.67-2.43 0-0.8 0.28-1.41 0.83-1.83s1.36-0.63 2.44-0.63h2.61v8.7h-1.42v-3.49h-1.46zm1.46-4.03h-1.14c-0.6 0-1.06 0.11-1.38 0.32s-0.48 0.56-0.48 1.04c0 0.47 0.15 0.83 0.46 1.1 0.31 0.26 0.79 0.39 1.44 0.39h1.08v-2.85z"/>
		<path class="st0" d="m23.14 63.94v-1.13h5.12v1.13h-5.12z"/>
		<path class="st0" d="m44.15 62.15l-3.18-4.2h1.52l3.1 4.22v-4.22h1.35v4.22l3.1-4.22h1.52l-3.18 4.2 3.32 4.5h-1.57l-3.19-4.41v4.41h-1.35v-4.41l-3.19 4.41h-1.58l3.33-4.5z"/>
		<path class="st0" d="m69.85 66.65h-4.92v-8.7h4.92v1.2h-3.5v2.37h3.28v1.19h-3.28v2.73h3.5v1.21z"/>
		<path class="st0" d="m90.67 66.65h-1.43v-3.92h-4.01v3.92h-1.42v-8.7h1.42v3.56h4.01v-3.56h1.43v8.7z"/>
		<path class="st0" d="m110.99 65.43h3.1v-7.48h1.43v7.52h1.16v3.58h-1.38v-2.4h-10.25v-8.7h1.42v7.48h3.08v-7.48h1.44v7.48z"/>
		<path class="st0" d="m130.2 57.94h1.3v4.53c0 0.47-0.01 0.95-0.04 1.43-0.02 0.48-0.04 0.81-0.05 0.98h0.05l4.45-6.94h1.66v8.7h-1.31v-4.49c0-0.69 0.04-1.52 0.11-2.5h-0.05l-4.47 6.99h-1.67v-8.7z"/>
		<path class="st0" d="m158.79 66.65h-1.43v-3.92h-4.01v3.92h-1.42v-8.7h1.42v3.56h4.01v-3.56h1.43v8.7z"/>
		<path class="st0" d="m178.56 66.65l-0.87-2.42h-3.33l-0.85 2.42h-1.5l3.26-8.74h1.55l3.26 8.74h-1.52zm-1.25-3.65l-0.82-2.37c-0.06-0.16-0.14-0.41-0.25-0.75s-0.18-0.59-0.22-0.75c-0.11 0.49-0.26 1.02-0.47 1.6l-0.77 2.27h2.53z"/>
		<path class="st0" d="m192.94 65.9c0-0.29 0.08-0.52 0.23-0.67s0.38-0.23 0.66-0.23 0.5 0.08 0.65 0.24 0.23 0.38 0.23 0.66-0.08 0.5-0.23 0.67c-0.15 0.16-0.37 0.25-0.65 0.25s-0.5-0.08-0.66-0.24-0.23-0.38-0.23-0.68zm1.41-1.9h-1.04l-0.31-6.06h1.65l-0.3 6.06z"/>
</svg>