<?xml version="1.0" encoding="UTF-8"?> <svg xmlns="http://www.w3.org/2000/svg" width="345" height="218" viewBox="0 0 345 218" fill="none"> <path d="M239.286 113.688L226.755 85.803L245.942 56.0238L238.794 0L192.311 41.6309C188.537 40.8916 179.579 39.3668 169.818 39.5516H168.255C158.426 39.3668 149.492 40.8916 145.739 41.6309L99.2562 0L92.1084 56.0238L111.296 85.803L98.7648 113.688L103.143 114.335H103.165L101.557 120.434L104.416 121.497C134.548 132.771 165.44 168.395 165.753 168.741L166.736 169.873H171.337L172.32 168.741C172.633 168.372 203.525 132.771 233.657 121.497L236.516 120.434L234.908 114.335H234.93L239.286 113.688ZM203.793 123.091L219.361 119.186C202.497 128.127 186.839 142.173 176.296 152.847H161.755C151.189 142.173 135.531 128.127 118.667 119.186L134.236 123.091L121.057 113.203C120.566 112.833 116.277 109.714 109.777 107.935L131.086 60.5519L114.021 75.892L100.619 55.0997L103.254 34.4691L112.725 42.5781L119.225 29.2017L114.713 23.1719L144.488 49.8323L146.074 49.4627C146.186 49.4396 156.595 47.0138 168.21 47.2448H169.885C181.344 47.0369 191.865 49.4396 191.976 49.4627L193.562 49.8323L223.337 23.1719L218.825 29.2017L225.325 42.5781L234.796 34.4691L237.432 55.0997L224.03 75.892L206.964 60.5519L228.274 107.935C221.774 109.737 217.485 112.856 216.994 113.203L203.793 123.091Z" fill="white"></path> <path d="M187.822 104.98C187.621 109.323 186.727 114.152 186.638 114.706L186.079 117.663L196.399 113.366L196.645 112.696C197.471 110.455 202.184 102.231 204.842 97.6798L208.014 92.2969L187.844 104.079L187.822 104.98Z" fill="white"></path> <path d="M150.206 104.98L150.162 104.079L129.991 92.2969L133.185 97.7029C135.844 102.231 140.557 110.455 141.383 112.696L141.629 113.366L151.948 117.663L151.39 114.706C151.301 114.152 150.43 109.323 150.206 104.98Z" fill="white"></path> <path d="M75 217.587V196.379H91.3952V201.531H80.6736V205.135H90.3678V210.009H80.6736V217.587H75Z" fill="white"></path> <path d="M93.2712 206.981C93.2712 205.479 93.5616 204.047 94.12 202.707C94.6785 201.344 95.4602 200.189 96.4207 199.195C97.4035 198.202 98.5651 197.416 99.9276 196.839C101.29 196.261 102.764 195.961 104.306 195.961C105.869 195.961 107.321 196.238 108.684 196.816C110.046 197.393 111.208 198.179 112.168 199.149C113.129 200.143 113.888 201.298 114.447 202.661C115.005 204.024 115.273 205.456 115.273 206.981C115.273 208.483 114.983 209.915 114.424 211.255C113.866 212.618 113.084 213.796 112.124 214.767C111.163 215.76 109.979 216.545 108.617 217.123C107.254 217.701 105.78 218.001 104.239 218.001C102.161 218.001 100.285 217.516 98.6097 216.522C96.9345 215.529 95.6166 214.212 94.6561 212.526C93.7403 210.862 93.2712 209.014 93.2712 206.981ZM99.1011 206.981C99.1011 208.552 99.5926 209.892 100.598 211.024C101.581 212.156 102.831 212.71 104.35 212.71C105.892 212.71 107.142 212.156 108.103 211.047C109.086 209.938 109.555 208.575 109.555 206.981C109.555 205.41 109.063 204.07 108.058 202.938C107.075 201.806 105.802 201.251 104.261 201.251C102.742 201.251 101.514 201.806 100.531 202.915C99.5702 204.047 99.1011 205.387 99.1011 206.981Z" fill="white"></path> <path d="M116.792 217.583L123.806 206.818L117.082 196.398H123.604L127.245 202.359L130.909 196.398H137.275L130.551 206.748L137.587 217.583H131.065L127.134 211.207L123.18 217.583H116.792Z" fill="white"></path> <path d="M147.818 217.587V196.379H155.725C157.535 196.379 159.143 196.633 160.617 197.164C162.069 197.673 163.297 198.412 164.258 199.336C165.218 200.26 165.978 201.392 166.492 202.686C167.005 203.98 167.273 205.412 167.273 206.96C167.273 208.485 167.005 209.894 166.492 211.188C165.956 212.481 165.218 213.613 164.236 214.561C163.253 215.508 162.024 216.247 160.55 216.779C159.076 217.31 157.423 217.587 155.614 217.587H147.818ZM153.492 212.412H155.815C157.535 212.412 158.919 211.927 159.925 210.98C160.952 210.033 161.443 208.693 161.443 206.96C161.443 205.273 160.93 203.957 159.902 202.986C158.875 202.016 157.512 201.531 155.792 201.531H153.469V212.412H153.492Z" fill="white"></path> <path d="M170.312 217.587V196.379H175.985V217.587H170.312Z" fill="white"></path> <path d="M179.046 206.958C179.046 205.433 179.314 204.001 179.872 202.638C180.431 201.298 181.19 200.119 182.173 199.149C183.156 198.179 184.318 197.393 185.68 196.816C187.043 196.238 188.517 195.961 190.08 195.961C191.8 195.961 193.342 196.215 194.659 196.746C196 197.278 197.228 198.04 198.367 199.08L195.062 203.238C194.302 202.568 193.52 202.083 192.761 201.76C191.979 201.436 191.108 201.275 190.125 201.275C188.651 201.275 187.4 201.829 186.395 202.961C185.39 204.07 184.876 205.456 184.876 207.073C184.876 208.806 185.39 210.238 186.44 211.347C187.489 212.479 188.807 213.034 190.438 213.034C191.756 213.034 192.85 212.734 193.721 212.11V209.453H189.656V205.202H199.082V214.767C196.513 216.938 193.565 218.001 190.214 218.001C188.115 218.001 186.216 217.539 184.519 216.592C182.821 215.668 181.481 214.351 180.52 212.664C179.537 210.978 179.046 209.083 179.046 206.958Z" fill="white"></path> <path d="M202.365 217.587V196.379H208.038V217.587H202.365Z" fill="white"></path> <path d="M210.674 201.55V196.398H228.655V201.55H222.49V217.583H216.816V201.55H210.674Z" fill="white"></path> <path d="M229.481 217.585L238.215 196.238H243.687L252.398 217.585H246.3L244.804 213.796H236.897L235.445 217.585H229.481ZM238.572 209.222H243.173L240.895 203.192L238.572 209.222Z" fill="white"></path> <path d="M254.386 217.587V196.379H260.06V212.412H270V217.564H254.386V217.587Z" fill="white"></path> </svg> 