<svg id="Layer_1" data-name="Layer 1" xmlns="http://www.w3.org/2000/svg" xmlns:xlink="http://www.w3.org/1999/xlink" viewBox="0 0 600 600"><defs><style>.cls-1{fill:#fff;}.cls-2{fill:url(#linear-gradient);}.cls-3{fill:#ef0001;}.cls-4{fill:url(#linear-gradient-2);}.cls-5{fill:#424242;}</style><linearGradient id="linear-gradient" x1="125.97" y1="157.15" x2="122.91" y2="302.26" gradientUnits="userSpaceOnUse"><stop offset="0" stop-color="gray"/><stop offset="0.08" stop-color="#737373"/><stop offset="0.26" stop-color="#5d5d5d"/><stop offset="0.45" stop-color="#4e4e4e"/><stop offset="0.68" stop-color="#454545"/><stop offset="1" stop-color="#424242"/></linearGradient><linearGradient id="linear-gradient-2" x1="364.82" y1="284.65" x2="432.26" y2="186.55" xlink:href="#linear-gradient"/></defs><title>Artboard 1 copy 3</title><circle class="cls-1" cx="300" cy="300" r="300"/><path class="cls-2" d="M108,161.44v180.8H140v-170C132.74,165.83,122.48,162.38,108,161.44Z"/><polygon class="cls-3" points="334.15 342.91 334.15 125.93 302.2 125.93 302.2 285.47 201.19 125.93 170.42 125.93 170.42 342.91 202.37 342.91 202.37 183.37 303.38 342.91 334.15 342.91"/><path class="cls-3" d="M140,162.11V125.93H108v28.16C121.19,154.63,131.75,156.44,140,162.11Z"/><path class="cls-3" d="M477.39,280.34A43.34,43.34,0,0,1,436,313.61h-.76c-25.6,0-46.54-2-64.07-19.67a86.28,86.28,0,0,1-9.81-10.13,75.19,75.19,0,0,0,148.5-3.48Z"/><path class="cls-4" d="M435.3,123.27a75.3,75.3,0,0,0-75.21,75.21v71.88c0,.73,0,1.46.05,2.19,14.38,20.82,29.55,29.28,49.13,32.29A43.16,43.16,0,0,1,392,270.36V198.48a43.27,43.27,0,0,1,85.66-8.65H510A75.31,75.31,0,0,0,435.3,123.27Z"/><path class="cls-5" d="M189.44,477.32H171.6l-45.76-72.84v72.84H108V374.66h17.84l45.9,73.12V374.66h17.7Z"/><path class="cls-5" d="M274.28,431.49H232.12v31.59H281.4v14.24H214.28V374.66h66.63V389H232.12v28.35h42.16Z"/><path class="cls-5" d="M380.21,451.94,396,374.66h17.7L390,477.32H373l-19.53-74.95-20,74.95H316.33l-23.7-102.66h17.7l15.94,77.13,19.6-77.13h14.95Z"/><path class="cls-5" d="M484.16,450.88q0-6.76-4.76-10.44T462.23,433q-12.41-3.74-19.74-8.32-14-8.82-14-23,0-12.41,10.12-20.45t26.26-8A44.41,44.41,0,0,1,484,377.19a31.52,31.52,0,0,1,13.19,11.25,28.9,28.9,0,0,1,4.79,16.18H484.16q0-8-5-12.58t-14.42-4.55q-8.74,0-13.57,3.74a12.44,12.44,0,0,0-4.83,10.43q0,5.64,5.21,9.41t17.21,7.34q12,3.55,19.25,8.11A30.69,30.69,0,0,1,498.62,437,27.26,27.26,0,0,1,502,450.74q0,12.83-9.84,20.41t-26.68,7.58A50,50,0,0,1,445,474.6a34.27,34.27,0,0,1-14.52-11.38,28.35,28.35,0,0,1-5.19-16.93h17.84q0,8.74,5.79,13.54t16.57,4.8q9.3,0,14-3.77A12.18,12.18,0,0,0,484.16,450.88Z"/></svg>