<svg width="1591" height="371" viewBox="0 0 1591 371" fill="none" xmlns="http://www.w3.org/2000/svg">
<path d="M0 370.194L0 0L84.5104 0L84.5104 370.194H0ZM353.889 200.964L353.889 0L438.399 0L438.399 370.194H375.016L232.403 169.234L232.403 370.194L147.893 370.194L147.893 0L211.276 0L353.889 200.964Z" fill="white"/>
<path d="M629 31.1394L499.605 31.1394V94.6049H481V11.5972L629 11.5972V31.1394ZM481 236.032V215.228L514.193 203.251V137.055L481 125.074V104.27L629 159.12V181.186L481 236.032ZM605.531 170.047L532.589 143.778V196.524L605.531 170.047ZM557.749 337.532C554.363 344.396 549.641 349.791 543.583 353.712C537.52 357.634 530.614 359.597 522.861 359.597C511.024 359.597 501.087 355.464 493.05 347.197C485.017 338.934 481 328.846 481 316.94V253.474L629 253.474V312.312C629 323.941 625.121 333.681 617.372 341.524C609.618 349.509 600.032 353.505 588.617 353.505C575.365 353.505 565.077 348.18 557.749 337.532ZM610.604 312.312V273.016H565.361V312.312C565.361 318.479 567.544 323.662 571.912 327.866C576.283 332.066 581.641 334.17 587.983 334.17C594.183 334.17 599.468 332 603.84 327.655C608.349 323.451 610.604 318.338 610.604 312.312V312.312ZM499.396 273.016V316.94C499.396 323.522 501.721 329.058 506.373 333.54C511.024 338.022 516.732 340.262 523.496 340.262C530.122 340.262 535.758 337.951 540.409 333.328C545.061 328.987 547.387 323.522 547.387 316.94V273.016H499.396Z" fill="white"/>
<path d="M708.854 119.031H751.217C760.826 119.031 768.941 120.496 775.562 123.426C782.242 126.355 787.311 130.691 790.768 136.434C794.283 142.117 796.041 149.119 796.041 157.439C796.041 163.299 794.84 168.66 792.438 173.523C790.094 178.328 786.695 182.43 782.242 185.828C777.848 189.168 772.574 191.658 766.422 193.299L761.676 195.145H721.861L721.686 181.346H751.744C757.838 181.346 762.906 180.291 766.949 178.182C770.992 176.014 774.039 173.113 776.09 169.48C778.141 165.848 779.166 161.834 779.166 157.439C779.166 152.518 778.199 148.211 776.266 144.52C774.332 140.828 771.285 137.986 767.125 135.994C763.023 133.943 757.721 132.918 751.217 132.918H725.816V247H708.854V119.031ZM783.648 247L752.535 188.992L770.201 188.904L801.754 245.945V247H783.648ZM901.07 233.201V247H833.307V233.201H901.07ZM836.734 119.031V247H819.771V119.031H836.734ZM892.105 174.051V187.85H833.307V174.051H892.105ZM900.191 119.031V132.918H833.307V119.031H900.191ZM990.279 214.656C990.279 211.668 989.811 209.031 988.873 206.746C987.994 204.402 986.412 202.293 984.127 200.418C981.9 198.543 978.795 196.756 974.811 195.057C970.885 193.357 965.904 191.629 959.869 189.871C953.541 187.996 947.828 185.916 942.73 183.631C937.633 181.287 933.268 178.621 929.635 175.633C926.002 172.645 923.219 169.217 921.285 165.35C919.352 161.482 918.385 157.059 918.385 152.078C918.385 147.098 919.41 142.498 921.461 138.279C923.512 134.061 926.441 130.398 930.25 127.293C934.117 124.129 938.717 121.668 944.049 119.91C949.381 118.152 955.328 117.273 961.891 117.273C971.5 117.273 979.645 119.119 986.324 122.811C993.062 126.443 998.189 131.219 1001.71 137.137C1005.22 142.996 1006.98 149.266 1006.98 155.945H990.104C990.104 151.141 989.078 146.893 987.027 143.201C984.977 139.451 981.871 136.521 977.711 134.412C973.551 132.244 968.277 131.16 961.891 131.16C955.855 131.16 950.875 132.068 946.949 133.885C943.023 135.701 940.094 138.162 938.16 141.268C936.285 144.373 935.348 147.918 935.348 151.902C935.348 154.598 935.904 157.059 937.018 159.285C938.189 161.453 939.977 163.475 942.379 165.35C944.84 167.225 947.945 168.953 951.695 170.535C955.504 172.117 960.045 173.641 965.318 175.105C972.584 177.156 978.854 179.441 984.127 181.961C989.4 184.48 993.736 187.322 997.135 190.486C1000.59 193.592 1003.14 197.137 1004.78 201.121C1006.48 205.047 1007.33 209.5 1007.33 214.48C1007.33 219.695 1006.28 224.412 1004.17 228.631C1002.06 232.85 999.039 236.453 995.113 239.441C991.188 242.43 986.471 244.744 980.963 246.385C975.514 247.967 969.42 248.758 962.682 248.758C956.764 248.758 950.934 247.938 945.191 246.297C939.508 244.656 934.322 242.195 929.635 238.914C925.006 235.633 921.285 231.59 918.473 226.785C915.719 221.922 914.342 216.297 914.342 209.91H931.217C931.217 214.305 932.066 218.084 933.766 221.248C935.465 224.354 937.779 226.932 940.709 228.982C943.697 231.033 947.066 232.557 950.816 233.553C954.625 234.49 958.58 234.959 962.682 234.959C968.6 234.959 973.609 234.139 977.711 232.498C981.812 230.857 984.918 228.514 987.027 225.467C989.195 222.42 990.279 218.816 990.279 214.656ZM1110.25 233.201V247H1042.49V233.201H1110.25ZM1045.91 119.031V247H1028.95V119.031H1045.91ZM1101.29 174.051V187.85H1042.49V174.051H1101.29ZM1109.37 119.031V132.918H1042.49V119.031H1109.37ZM1178.63 130.369L1136.27 247H1118.95L1167.73 119.031H1178.89L1178.63 130.369ZM1214.14 247L1171.69 130.369L1171.42 119.031H1182.58L1231.54 247H1214.14ZM1211.94 199.627V213.514H1140.04V199.627H1211.94ZM1248.68 119.031H1291.04C1300.65 119.031 1308.77 120.496 1315.39 123.426C1322.07 126.355 1327.13 130.691 1330.59 136.434C1334.11 142.117 1335.87 149.119 1335.87 157.439C1335.87 163.299 1334.66 168.66 1332.26 173.523C1329.92 178.328 1326.52 182.43 1322.07 185.828C1317.67 189.168 1312.4 191.658 1306.25 193.299L1301.5 195.145H1261.69L1261.51 181.346H1291.57C1297.66 181.346 1302.73 180.291 1306.77 178.182C1310.82 176.014 1313.86 173.113 1315.91 169.48C1317.96 165.848 1318.99 161.834 1318.99 157.439C1318.99 152.518 1318.02 148.211 1316.09 144.52C1314.16 140.828 1311.11 137.986 1306.95 135.994C1302.85 133.943 1297.54 132.918 1291.04 132.918H1265.64V247H1248.68V119.031ZM1323.47 247L1292.36 188.992L1310.03 188.904L1341.58 245.945V247H1323.47ZM1436.85 206.307H1453.73C1452.85 214.393 1450.53 221.629 1446.78 228.016C1443.03 234.402 1437.73 239.471 1430.88 243.221C1424.02 246.912 1415.46 248.758 1405.21 248.758C1397.71 248.758 1390.88 247.352 1384.73 244.539C1378.64 241.727 1373.39 237.742 1369 232.586C1364.61 227.371 1361.21 221.131 1358.8 213.865C1356.46 206.541 1355.29 198.396 1355.29 189.432V176.688C1355.29 167.723 1356.46 159.607 1358.8 152.342C1361.21 145.018 1364.63 138.748 1369.09 133.533C1373.6 128.318 1379.02 124.305 1385.35 121.492C1391.68 118.68 1398.79 117.273 1406.71 117.273C1416.37 117.273 1424.55 119.09 1431.23 122.723C1437.91 126.355 1443.09 131.395 1446.78 137.84C1450.53 144.227 1452.85 151.639 1453.73 160.076H1436.85C1436.03 154.1 1434.51 148.973 1432.28 144.695C1430.05 140.359 1426.89 137.02 1422.79 134.676C1418.69 132.332 1413.33 131.16 1406.71 131.16C1401.02 131.16 1396.01 132.244 1391.68 134.412C1387.4 136.58 1383.79 139.656 1380.87 143.641C1377.99 147.625 1375.83 152.4 1374.36 157.967C1372.9 163.533 1372.16 169.715 1372.16 176.512V189.432C1372.16 195.701 1372.81 201.59 1374.1 207.098C1375.45 212.605 1377.47 217.439 1380.16 221.6C1382.86 225.76 1386.29 229.041 1390.45 231.443C1394.61 233.787 1399.53 234.959 1405.21 234.959C1412.42 234.959 1418.16 233.816 1422.44 231.531C1426.71 229.246 1429.94 225.965 1432.11 221.688C1434.33 217.41 1435.91 212.283 1436.85 206.307ZM1560.43 174.051V187.85H1491.17V174.051H1560.43ZM1493.8 119.031V247H1476.84V119.031H1493.8ZM1575.19 119.031V247H1558.32V119.031H1575.19Z" fill="white"/>
</svg>
