<svg width="3096" height="1930" viewBox="0 0 3096 1930" fill="none" xmlns="http://www.w3.org/2000/svg">
<g filter="url(#filter0_f_30_35)">
<ellipse cx="2112.81" cy="1007" rx="683" ry="623" fill="#762095"/>
</g>
<g filter="url(#filter1_f_30_35)">
<ellipse cx="1044.92" cy="759.933" rx="651.829" ry="344.872" transform="rotate(10.5409 1044.92 759.933)" fill="#0025CE"/>
</g>
<g filter="url(#filter2_f_30_35)">
<path d="M1532.81 750.002C973.553 720.489 801.311 193.502 606.811 208.502C362.311 227.358 407.867 721.663 606.811 910.002C841.311 1132 1911.81 770.002 1532.81 750.002Z" fill="#0094FF"/>
</g>
<g filter="url(#filter3_f_30_35)">
<path d="M932.812 788.5C761.052 788.5 680.312 879.835 680.312 1003C680.312 1260 2196.48 1351.38 2426.08 1137.05C2594.81 979.546 2573.17 757.755 2395.31 679C2194.31 590 2071.29 608.646 1873.81 679C1709.04 737.701 1655.38 792.996 1474.31 842.5C1304.84 888.835 1085.38 788.5 932.812 788.5Z" fill="#BAC1FF"/>
</g>
<g filter="url(#filter4_f_30_35)">
<ellipse cx="1779.06" cy="1053.5" rx="279.632" ry="232.345" transform="rotate(-19.5434 1779.06 1053.5)" fill="#0025CE" fill-opacity="0.5"/>
</g>
<defs>
<filter id="filter0_f_30_35" x="1129.81" y="84" width="1966" height="1846" filterUnits="userSpaceOnUse" color-interpolation-filters="sRGB">
<feFlood flood-opacity="0" result="BackgroundImageFix"/>
<feBlend mode="normal" in="SourceGraphic" in2="BackgroundImageFix" result="shape"/>
<feGaussianBlur stdDeviation="150" result="effect1_foregroundBlur_30_35"/>
</filter>
<filter id="filter1_f_30_35" x="0.944336" y="0.424805" width="2087.95" height="1519.02" filterUnits="userSpaceOnUse" color-interpolation-filters="sRGB">
<feFlood flood-opacity="0" result="BackgroundImageFix"/>
<feBlend mode="normal" in="SourceGraphic" in2="BackgroundImageFix" result="shape"/>
<feGaussianBlur stdDeviation="200" result="effect1_foregroundBlur_30_35"/>
</filter>
<filter id="filter2_f_30_35" x="240.083" y="8.1875" width="1573.16" height="1173.59" filterUnits="userSpaceOnUse" color-interpolation-filters="sRGB">
<feFlood flood-opacity="0" result="BackgroundImageFix"/>
<feBlend mode="normal" in="SourceGraphic" in2="BackgroundImageFix" result="shape"/>
<feGaussianBlur stdDeviation="100" result="effect1_foregroundBlur_30_35"/>
</filter>
<filter id="filter3_f_30_35" x="480.312" y="419.039" width="2261.1" height="1037.62" filterUnits="userSpaceOnUse" color-interpolation-filters="sRGB">
<feFlood flood-opacity="0" result="BackgroundImageFix"/>
<feBlend mode="normal" in="SourceGraphic" in2="BackgroundImageFix" result="shape"/>
<feGaussianBlur stdDeviation="100" result="effect1_foregroundBlur_30_35"/>
</filter>
<filter id="filter4_f_30_35" x="1104.24" y="415.337" width="1349.63" height="1276.33" filterUnits="userSpaceOnUse" color-interpolation-filters="sRGB">
<feFlood flood-opacity="0" result="BackgroundImageFix"/>
<feBlend mode="normal" in="SourceGraphic" in2="BackgroundImageFix" result="shape"/>
<feGaussianBlur stdDeviation="200" result="effect1_foregroundBlur_30_35"/>
</filter>
</defs>
</svg>
