<svg xmlns="http://www.w3.org/2000/svg" width="178" height="44" viewBox="0 0 178 44" fill="none">
    <path fill-rule="evenodd" clip-rule="evenodd" d="M139.226 14C134.593 14 130.85 17.5756 130.85 22C130.85 26.4244 134.593 30 139.226 30C143.858 30 147.602 26.4244 147.602 22C147.602 17.5756 143.858 14 139.226 14ZM139.226 27.3505C136.371 27.3505 134.028 24.9582 134.028 22.0257C134.028 19.0675 136.344 16.701 139.226 16.701C142.081 16.701 144.424 19.0932 144.424 22.0257C144.424 24.9582 142.108 27.3505 139.226 27.3505ZM91.8506 14.5401C92.6586 14.9003 93.0087 15.8006 92.6317 16.5723L89.9653 21.9485C89.9653 21.9614 89.9585 21.9678 89.9518 21.9742C89.9451 21.9806 89.9383 21.9871 89.9383 21.9999C89.9383 22.0128 89.9451 22.0192 89.9518 22.0257C89.9585 22.0321 89.9653 22.0385 89.9653 22.0514L92.6047 27.4533C92.9549 28.225 92.6317 29.1253 91.8237 29.4855C91.0157 29.8199 90.073 29.5112 89.696 28.7395L87.0565 23.3376V23.3118H83.1781V28.0707C83.1781 28.8938 82.4509 29.5884 81.5891 29.5884C80.7272 29.5884 80 28.9196 80 28.0707V22.5401V21.4083V15.8778C80 15.0546 80.7272 14.3601 81.5891 14.3601C82.4509 14.3601 83.1781 15.0289 83.1781 15.8778V20.6623H87.0834L89.7229 15.2861C90.0999 14.5144 91.0426 14.18 91.8506 14.5401ZM123.901 15.9035C123.901 15.0804 124.601 14.3858 125.49 14.3858C126.379 14.3858 127.079 15.0804 127.079 15.9035V28.0964C127.079 28.9196 126.379 29.6141 125.49 29.6141C124.628 29.6141 123.901 28.9453 123.901 28.0964V23.3376H117.518V28.0964C117.518 28.9196 116.817 29.6141 115.929 29.6141C115.067 29.6141 114.339 28.9453 114.339 28.0964V15.9035C114.339 15.0804 115.04 14.3858 115.929 14.3858C116.79 14.3858 117.518 15.0547 117.518 15.9035V20.6624H123.901V15.9035ZM104.913 15.1576C104.94 15.1833 104.966 15.2347 104.993 15.2862L110.973 27.4019C111.323 28.1736 111 29.074 110.192 29.4341C109.384 29.7685 108.441 29.4598 108.064 28.6881L106.744 25.9872H100.415L99.095 28.6881C98.7179 29.4598 97.7753 29.7942 96.9673 29.4341C96.1593 29.074 95.8091 28.1736 96.1862 27.4019L102.112 15.2605C102.125 15.2347 102.138 15.2154 102.152 15.1962C102.165 15.1769 102.179 15.1576 102.192 15.1318C102.206 15.1061 102.219 15.0868 102.233 15.0675C102.246 15.0482 102.26 15.0289 102.273 15.0032C102.311 14.9853 102.335 14.9549 102.356 14.9293C102.365 14.9183 102.373 14.9081 102.381 14.9003L102.408 14.8746L102.489 14.7974C102.489 14.7974 102.516 14.7717 102.516 14.7974C102.529 14.7846 102.542 14.7781 102.556 14.7717C102.569 14.7653 102.583 14.7589 102.596 14.746C102.623 14.7331 102.643 14.7203 102.664 14.7074L102.664 14.7074C102.684 14.6945 102.704 14.6817 102.731 14.6688C102.731 14.6431 102.758 14.6431 102.758 14.6431C102.771 14.6302 102.792 14.6238 102.812 14.6174C102.832 14.6109 102.852 14.6045 102.866 14.5916C102.879 14.5916 102.886 14.5852 102.893 14.5788C102.899 14.5724 102.906 14.5659 102.92 14.5659C102.933 14.5659 102.946 14.5595 102.96 14.5531C102.973 14.5466 102.987 14.5402 103 14.5402C103.014 14.5402 103.027 14.5338 103.041 14.5273C103.054 14.5209 103.068 14.5145 103.081 14.5145C103.108 14.4888 103.135 14.4888 103.162 14.4888C103.189 14.463 103.216 14.463 103.243 14.463H103.297H103.377H103.458H103.539H103.62H103.701H103.781H103.835C103.862 14.4888 103.889 14.4888 103.916 14.4888C103.93 14.4888 103.943 14.4952 103.956 14.5016C103.97 14.508 103.983 14.5145 103.997 14.5145C104.01 14.5145 104.024 14.5209 104.037 14.5273C104.051 14.5338 104.064 14.5402 104.078 14.5402C104.091 14.5402 104.105 14.5466 104.118 14.5531C104.132 14.5595 104.145 14.5659 104.158 14.5659C104.172 14.5659 104.179 14.5724 104.185 14.5788C104.192 14.5852 104.199 14.5916 104.212 14.5916C104.226 14.6045 104.246 14.6109 104.266 14.6174C104.286 14.6238 104.307 14.6302 104.32 14.6431C104.32 14.6688 104.347 14.6688 104.347 14.6688C104.374 14.6817 104.394 14.6945 104.414 14.7074C104.435 14.7203 104.455 14.7331 104.482 14.746C104.509 14.746 104.536 14.7717 104.562 14.7974C104.589 14.7974 104.589 14.7974 104.616 14.8231L104.616 14.8232L104.697 14.9003L104.724 14.9261C104.787 14.9663 104.834 15.0382 104.877 15.1045L104.877 15.1046L104.877 15.1047L104.877 15.1048L104.878 15.1049C104.889 15.1231 104.901 15.1409 104.913 15.1576ZM103.539 19.5563L101.681 23.3634H105.397L103.539 19.5563ZM177.067 14.5402C176.259 14.1801 175.317 14.5145 174.94 15.2862L171.6 22.1286L168.26 15.2862C167.883 14.5145 166.94 14.2058 166.132 14.5402C165.324 14.9003 165.001 15.8007 165.351 16.5724L169.741 25.5499C169.748 25.562 169.754 25.5756 169.761 25.5899C169.783 25.6363 169.808 25.6906 169.849 25.7299L169.014 27.4534C168.637 28.2251 168.987 29.1254 169.795 29.4855C170.603 29.8457 171.546 29.5113 171.923 28.7396L177.848 16.5981C178.225 15.8007 177.875 14.8746 177.067 14.5402ZM154.551 20.6623H159.453C162.065 20.6623 164.139 22.6688 164.112 25.1125C164.112 27.5819 162.011 29.5884 159.426 29.5884H153.069H153.042H152.962C152.1 29.5884 151.373 28.9196 151.373 28.0707V15.8778C151.373 15.0546 152.073 14.3601 152.962 14.3601H153.042H153.069H161.122C161.957 14.3601 162.604 15.0289 162.523 15.8263C162.442 16.5208 161.796 17.0353 161.069 17.0353H154.551V20.6623ZM154.578 26.9389H159.076C160.099 26.9389 160.961 26.09 160.961 25.1125C160.961 24.135 160.126 23.3118 159.076 23.3118H154.578V26.9389Z" fill="white"/>
    <path d="M46.4099 14.5515C45.9246 15.708 47.1379 16.4611 46.7334 16.5687C46.5447 16.6225 37.0541 14.5515 33.4951 13.5563C30.3944 12.7494 31.0146 8.31156 34.8701 9.09155C38.483 9.81774 43.9024 11.8887 48.2433 12.6956C49.0252 12.857 47.0031 13.0991 46.4099 14.5515ZM46.3829 21.3024C42.2038 21.6251 34.6005 22.4589 32.093 22.5934C28.1027 22.7817 27.9409 18.1017 31.7965 17.9673C34.8432 17.8597 40.6939 17.5907 45.9515 17.5638C48.2433 17.5369 48.6747 21.1141 46.3829 21.3024ZM48.3512 25.4175C49.5105 22.5665 49.7262 20.9527 48.0546 16.5418C47.3536 14.6859 47.9467 14.2287 48.8634 13.6639C52.9886 11.2432 57.9766 12.1846 59.1899 12.588C60.4032 12.9646 62.5602 13.9597 63.1264 17.0797C63.4769 19.0969 63.3421 21.2217 61.1851 22.7279C59.7561 23.7499 57.8688 23.3196 57.9227 23.6692C57.9766 24.1534 64.07 25.3906 64.3397 19.2314C64.4205 17.268 65.499 22.3244 64.7171 25.4982C64.0161 28.376 62.2636 30.205 58.8664 31.3077C56.1162 32.1953 52.0989 32.0877 51.4248 31.765C50.3463 31.2808 55.0377 28.8333 52.0989 27.5423C49.7262 26.5202 55.2265 26.8968 54.9029 21.1679C54.7951 19.4734 53.9323 17.1604 53.5009 17.1873C53.1234 17.2142 53.3391 17.7252 53.6088 19.85C53.8514 21.8134 53.8514 25.014 50.5081 26.2513C48.9713 26.843 48.1355 25.9285 48.3512 25.4175ZM40.5322 23.5079C39.6963 24.3147 40.64 26.7085 42.3925 26.8968C43.7676 27.0312 45.628 26.7085 46.4369 26.2513C48.0007 25.3637 48.0276 22.9699 46.8143 22.6203C46.302 22.4589 45.4662 22.4858 44.7113 22.5396C41.9072 22.6741 40.9905 23.0506 40.5322 23.5079ZM43.0666 30.7429C43.5519 31.4691 44.2529 31.7919 45.5741 31.8725C46.7334 31.9263 48.3781 31.9801 49.4566 31.5498C51.0474 30.9043 52.045 28.5912 50.0498 27.8381C49.187 27.5154 44.2529 27.5692 43.2553 27.8381C42.77 27.9726 42.3117 28.2685 42.4195 29.156C42.5004 29.8553 42.9048 30.4739 43.0666 30.7429Z" fill="#FF3737"/>
    <path d="M18.6314 14.4835C19.1192 15.644 17.8997 16.6696 18.3062 16.7776C18.5772 16.8586 22.0189 16.9395 23.2114 16.7236C24.7019 16.5077 24.4038 14.4835 23.6721 13.4309C23.3469 12.945 22.7778 12.3243 21.0162 12.1623C19.9864 12.0544 17.9268 12.1084 15.9755 12.3513C15.1896 12.4592 18.0352 13.026 18.6314 14.4835ZM22.046 30.7583C21.5582 31.487 20.8536 31.8109 19.5257 31.8918C18.3604 31.9458 16.7072 31.9998 15.6232 31.568C14.0243 30.9202 13.0216 28.5991 15.027 27.8434C15.8942 27.5195 20.8536 27.5735 21.8563 27.8434C22.3441 27.9783 22.8049 28.2752 22.6965 29.1659C22.6152 29.8676 22.2357 30.4884 22.046 30.7583ZM25 19.8004C25 21.9866 23.8076 21.9596 22.7236 21.9866C20.8265 22.0406 18.6043 21.7977 17.9539 21.6627C16.7343 21.4198 16.6259 19.9354 17.2492 18.7478C17.7642 17.7762 18.4146 17.6413 18.9024 17.6143C20.3929 17.5333 22.7507 17.6143 23.4011 17.7222C24.5122 17.9112 25 18.37 25 19.8004ZM24.2141 23.2821C25.1084 24.0108 24.4309 26.4939 22.6694 26.8448C21.3143 27.1147 19.4173 26.9797 18.5772 26.6019C16.924 25.8461 16.6801 23.471 17.8455 23.0122C18.3604 22.8233 19.1734 22.7693 19.9322 22.7153C22.7507 22.6074 23.6992 22.9043 24.2141 23.2821ZM13.6449 31.7839C12.9674 32.0808 8.92939 32.1887 6.16513 31.3251C2.72337 30.2185 0.988934 28.3832 0.28432 25.4953C-0.501595 22.3105 0.582424 17.2364 0.663726 19.2067C0.934731 25.3873 7.05945 24.1458 7.11365 23.66C7.14075 23.3361 5.27082 23.7409 3.83449 22.7153C1.66645 21.2039 1.53094 19.0717 1.88325 17.0475C2.42526 13.8897 4.5933 12.918 5.81283 12.5132C7.03235 12.1353 12.0459 11.1637 16.1923 13.5928C17.1137 14.1326 17.71 14.6184 17.0053 16.4807C15.298 20.907 15.5148 22.5264 16.6801 25.3873C16.8969 25.9001 16.0568 26.8178 14.5392 26.251C11.1787 25.0095 11.1787 21.7977 11.4226 19.8274C11.6936 17.6952 11.9104 17.1824 11.531 17.1554C11.1245 17.1284 10.2302 19.4496 10.1218 21.1499C9.7966 26.8987 15.298 26.5209 12.9403 27.5465C10.0134 28.815 14.7289 31.2981 13.6449 31.7839Z" fill="#0087FF"/>
</svg>