<?xml version="1.0" encoding="utf-8"?>
<!-- Generator: Adobe Illustrator 24.3.0, SVG Export Plug-In . SVG Version: 6.00 Build 0)  -->
<svg version="1.1" id="Layer_1" xmlns="http://www.w3.org/2000/svg" xmlns:xlink="http://www.w3.org/1999/xlink" x="0px" y="0px"
	 viewBox="0 0 210.3 38" style="enable-background:new 0 0 210.3 38;" xml:space="preserve">
<style type="text/css">
	.st0{fill-rule:evenodd;clip-rule:evenodd;}
	.st1{clip-path:url(#SVGID_2_);}
	.st2{fill-rule:evenodd;clip-rule:evenodd;fill:#BC4038;}
	.st3{fill-rule:evenodd;clip-rule:evenodd;fill:#466A9E;}
	.st4{fill-rule:evenodd;clip-rule:evenodd;fill:#5C4998;}
	.st5{fill-rule:evenodd;clip-rule:evenodd;fill:#F09A38;}
	.st6{fill-rule:evenodd;clip-rule:evenodd;fill:#A93930;}
	.st7{fill-rule:evenodd;clip-rule:evenodd;fill:#FBC338;}
	.st8{fill-rule:evenodd;clip-rule:evenodd;fill:#ED7837;}
	.st9{fill-rule:evenodd;clip-rule:evenodd;fill:#F2B641;}
	.st10{fill-rule:evenodd;clip-rule:evenodd;fill:#E07037;}
	.st11{fill-rule:evenodd;clip-rule:evenodd;fill:#96291F;}
</style>
<g>
	<path class="st0" d="M102.1,5c3.3,0,6,2.5,6,5.6c0,3.1-2.7,5.6-6,5.6c-3.3,0-6-2.5-6-5.6C96.1,7.5,98.8,5,102.1,5z M102.1,9.1
		c0.8,0,1.5,0.7,1.5,1.5c0,0.8-0.7,1.5-1.5,1.5c-0.8,0-1.5-0.7-1.5-1.5C100.6,9.8,101.3,9.1,102.1,9.1z"/>
	<path class="st0" d="M92.4,16.1c-3.3,0-6-2.5-6-5.6c0-3.1,2.7-5.6,6-5.6c1.4,0,2.7,0.3,3.8,0.8l-1.7,3.7c-0.5-0.2-1.1-0.4-1.9-0.4
		c-0.8,0-1.4,0.6-1.4,1.4c0,0.8,0.6,1.4,1.4,1.4c0.7,0,1.4-0.1,1.9-0.4l1.7,3.7C95.1,15.8,93.8,16.1,92.4,16.1z"/>
	<path class="st0" d="M65.9,5c3.3,0,6,2.5,6,5.6c0,3.1-2.7,5.6-6,5.6c-3.3,0-6-2.5-6-5.6C59.9,7.5,62.6,5,65.9,5z M65.9,9.1
		c0.8,0,1.5,0.7,1.5,1.5c0,0.8-0.7,1.5-1.5,1.5c-0.8,0-1.5-0.7-1.5-1.5C64.4,9.8,65.1,9.1,65.9,9.1z"/>
	<path class="st0" d="M164.9,16.1c-3.3,0-6-2.5-6-5.6c0-3.1,2.7-5.6,6-5.6c1.4,0,2.7,0.3,3.8,0.8L167,9.6c-0.5-0.2-1.1-0.4-1.9-0.4
		c-0.8,0-1.4,0.6-1.4,1.4c0,0.8,0.6,1.4,1.4,1.4c0.7,0,1.4-0.1,1.9-0.4l1.7,3.7C167.6,15.8,166.3,16.1,164.9,16.1z"/>
	<path class="st0" d="M121.5,5.3h-3.6l-2.3,2.8l-2.3-2.8h-4.1v10.6h4.2v-5.3l1.8,2.1l1.8-2.1v5.3h4.6V5.3z"/>
	<path class="st0" d="M146.1,5.3h-10.1l0,5.3c0,1.2-0.2,2.4-1.3,2.5v2.7c0.4,0.2,0.9,0.3,1.4,0.3c3.4,0,4-2.6,4-5.3V8.2h1.2v7.7h4.7
		V5.3z"/>
	<path class="st0" d="M152.3,5.3h-4.7v10.6h5.9c3.3,0,4.8-2,4.8-4.4c0-1.8-1.5-3.3-3.3-3.3c-1,0-1.9,0.3-2.6,0.7V5.3z M152.9,10.9
		c0.5,0,1,0.4,1,1c0,0.5-0.2,1.4-1,1.4c-0.3,0-0.5,0-0.6-0.1v-2C152.4,11,152.7,10.9,152.9,10.9z"/>
	<path class="st0" d="M205.4,5.3h-7.6c-1.7,0-3.1,1.4-3.1,3.1c0,1.2,0.7,2.3,1.7,2.8c-1.2,1.1-2.4,3-2.4,4.8h4.4
		c0.2-2.5,1.2-3.3,2.2-3.4v3.4h4.7V5.3z M200.6,7.7h-0.4c-0.7,0-1.2,0.5-1.2,1.2s0.5,1.2,1.2,1.2h0.4V7.7z"/>
	<path class="st0" d="M128.5,5c3.3,0,6,2.5,6,5.6c0,3.1-2.7,5.6-6,5.6c-3.3,0-6-2.5-6-5.6C122.5,7.5,125.2,5,128.5,5z M128.5,9.1
		c0.8,0,1.5,0.7,1.5,1.5c0,0.8-0.7,1.5-1.5,1.5c-0.8,0-1.5-0.7-1.5-1.5C127,9.8,127.7,9.1,128.5,9.1z"/>
	<path class="st0" d="M52.8,11.7v4.2h-4.7V5.3h4.7v3.4c1.5,0,2.2-1.4,2.2-3.4h4.4c0,2.2-1,4.1-2.3,4.8c1.4,0.5,2.7,3.3,2.7,5.8h-4.4
		C55.4,13.3,54.4,11.6,52.8,11.7z"/>
	<path class="st0" d="M174.2,11.7v4.2h-4.7V5.3h4.7v3.4c1.5,0,2.2-1.4,2.2-3.4h4.4c0,2.2-1,4.1-2.3,4.8c1.4,0.5,2.7,3.3,2.7,5.8
		h-4.4C176.8,13.3,175.8,11.6,174.2,11.7z"/>
	<path class="st0" d="M85.4,5.3h-3.6l-2.3,2.8l-2.3-2.8h-4.1v10.6h4.2v-5.3l1.8,2.1l1.8-2.1v5.3h4.6V5.3z"/>
	<path class="st0" d="M190.5,5.3l3.9,10.6h-4.7l-0.8-2.1h-3.5l-0.8,2.1h-3.7l3.9-10.6H190.5z M188,11.5L187.1,9l-0.9,2.5H188z"/>
	<path class="st0" d="M89.9,19.3H79.5c-1.7,3.3-3,6.9-3.2,11.6h4c0.1-0.5,0.2-1,0.3-1.4h3.6v1.4h5.8V19.3z M84.1,23.5v3.1h-2.8
		c0.4-1.1,0.8-2.2,1.3-3.1H84.1z"/>
	<path class="st0" d="M91,19.3v11.6h10.4c2,0,3.3-0.9,3.3-2.9c0-1.5-1-2.6-2.3-3.4c1.1-0.7,1.7-1.6,1.7-3c0-1.6-1.3-2.2-3.3-2.3H91z
		 M96.4,27.9h1.7c0.6,0,1.1-0.5,1.1-1c0-0.3-0.2-0.7-0.5-0.9c-0.7,0.2-1.5,0.4-2.4,0.7V27.9z M96.4,22.4h0.8c0.9,0,1.4,0.2,1.4,0.6
		c0,0.6-0.8,1.1-2.2,1.4V22.4z"/>
	<path class="st0" d="M63.1,19.3v11.6h5.8v-2c5.5-1.2,8.1-3.3,8.1-5.8c0-2.6-1.9-3.8-4.9-3.8H63.1z M68.8,25.8c1.3-0.3,2-0.9,2-1.5
		c0-0.7-0.8-1-1.6-1h-0.4V25.8z"/>
	<path class="st0" d="M53.8,23.5h2.4v7.5h5.8V19.3H48.1v11.6h5.8V23.5z"/>
	<path class="st0" d="M118.8,19.3H109c-1.4,2.3-2.3,5.1-2.6,8.2h-1.2V33h3.9c0.4-1.9,2.1-2.2,3.8-2.2c1.6,0,3,0.5,3.2,2.2h3.9v-5.5
		h-1.1V19.3z M113,23.5v4.1h-2.8c0.3-1.8,0.9-3.3,1.6-4.1H113z"/>
	<path class="st0" d="M133.9,19.3h-10.4c-1.7,3.3-3,6.9-3.2,11.6h4c0.1-0.5,0.2-1,0.3-1.4h3.6v1.4h5.8V19.3z M128.2,23.5v3.1h-2.8
		c0.4-1.1,0.8-2.2,1.3-3.1H128.2z"/>
</g>
<g>
	<defs>
		<path id="SVGID_1_" d="M5.3,4.2L0,1.4c0,0,14.5,0,21.4,0c2.3,0,4.5,0.9,6.1,2.5c0.3-0.4,0.5-0.6,1.1-1.1c1.2-1.1,2.8-2.2,5.6-2.3
			c0.8,0,1.8,0.2,2.4,0.8c1.2,0,2.4,0.1,3.4,0.2L37,4c-0.6,3.9-2.5,5.3-3.4,6.1c1.7,1.7,2.6,3.9,2.6,6.3c0,6.9,0,21.1,0,21.1
			s-4.6-8.6-6.7-12.2c-1-1.8-1.8-4.4-2.6-7.6C26.7,18,10.7,36.1,10.7,36.1l7.4-16.6L1.6,27c0,0,17.6-15.7,18.3-16.3
			c-1.9-0.6-5.1-1.2-7.5-2.6C9.9,6.7,5.3,4.2,5.3,4.2z"/>
	</defs>
	<clipPath id="SVGID_2_">
		<use xlink:href="#SVGID_1_"  style="overflow:visible;"/>
	</clipPath>
	<g class="st1">
		<path class="st2" d="M5.3,4.2L0,1.4c0,0,14.5,0,21.4,0c2.3,0,4.5,0.9,6.1,2.5c0.3-0.4,0.5-0.6,1.1-1.1c1.2-1.1,2.8-2.2,5.6-2.3
			c0.8,0,1.8,0.2,2.4,0.8c1.2,0,2.4,0.1,3.4,0.2L37,4c-0.6,3.9-2.5,5.3-3.4,6.1c1.7,1.7,2.6,3.9,2.6,6.3c0,6.9,0,21.1,0,21.1
			s-4.6-8.6-6.7-12.2c-1-1.8-1.8-4.4-2.6-7.6C26.7,18,10.7,36.1,10.7,36.1l7.4-16.6L1.6,27c0,0,17.6-15.7,18.3-16.3
			c-1.9-0.6-5.1-1.2-7.5-2.6C9.9,6.7,5.3,4.2,5.3,4.2z"/>
		<path class="st3" d="M18.1,19.5L1.2,29.2l-0.5-2.4l5.6-5.6c1.2,0.2,2.4,0.4,3.6,0.4C12.9,21.5,15.7,20.8,18.1,19.5z"/>
		<path class="st4" d="M18.1,19.5c0.9-0.5,1.8-1.1,2.7-1.8c0.2,1.1,0.3,2.3,0.3,3.5c0,9.8-7.9,17.7-17.7,17.7c-0.5,0-1.1,0-1.6-0.1
			L18.1,19.5z"/>
		<path class="st5" d="M0.3,3.8c1-0.2,2.1-0.3,3.2-0.3c2.8,0,5.4,0.7,7.8,1.8c-1,0.2-2.1,0.3-3.2,0.3C5.3,5.6,2.6,4.9,0.3,3.8z"/>
		<path class="st6" d="M11.3,5.3c6.1-1.1,11.1-5.5,13.3-11.2c1.9,2.8,3,6.2,3,9.8c0,5.6-2.6,10.6-6.7,13.8
			C19.7,12.3,16.1,7.7,11.3,5.3z"/>
		<path class="st5" d="M45.2,20.5c6,0,10.8,4.9,10.8,10.9s-4.8,10.9-10.8,10.9c-6,0-10.8-4.9-10.8-10.9
			C34.3,25.4,39.2,20.5,45.2,20.5z"/>
		<path class="st7" d="M30,14.9c0.8,4.1,3.1,7.7,6.2,10.3c-1.2,1.7-1.9,3.9-1.9,6.2c0,6,4.8,10.9,10.8,10.9c0.3,0,0.6,0,0.9,0
			c-2.1,1.1-4.5,1.7-7.1,1.7c-8.7,0-15.8-7.1-15.8-15.8C23.2,22.6,25.9,17.8,30,14.9z"/>
		<path class="st8" d="M29.8,9.4c-0.1,0.7-0.1,1.4-0.1,2.1c0,1.2,0.1,2.4,0.3,3.5c-3,2.1-5.3,5.2-6.3,8.9c0-0.4,0-0.7,0-1.1
			C23.7,17.4,26.1,12.6,29.8,9.4z"/>
		<path class="st9" d="M30,14.9c2.5-1.7,5.6-2.8,8.9-2.8c8.5,0,15.5,6.8,15.8,15.3c-2.3,1.1-4.8,1.7-7.5,1.7
			C38.8,29.1,31.7,23,30,14.9z"/>
		<path class="st10" d="M29.8,9.4c3.1-2.7,7.1-4.3,11.5-4.3c9.7,0,17.6,7.9,17.6,17.6c0,0.7,0,1.4-0.1,2.1c-1.2,1-2.6,1.9-4,2.6
			c-0.3-8.5-7.3-15.3-15.8-15.3c-3.3,0-6.4,1-8.9,2.8c-0.2-1.1-0.3-2.3-0.3-3.5C29.7,10.7,29.7,10,29.8,9.4z"/>
		<path class="st11" d="M29.8,9.4c1-8.8,8.5-15.6,17.4-15.6c9.7,0,17.6,7.9,17.6,17.6c0,5.3-2.4,10.1-6.1,13.4
			c0.1-0.7,0.1-1.4,0.1-2.1C58.9,13,51,5.1,41.3,5.1C36.9,5.1,32.9,6.7,29.8,9.4z"/>
		<path class="st10" d="M0.3,3.8c-5.8-2.9-9.8-8.9-9.8-15.8c0-9.7,7.9-17.6,17.6-17.6c9.7,0,17.6,7.9,17.6,17.6
			c0,8.6-6.2,15.8-14.4,17.4c-2.4-1.2-5-1.8-7.8-1.8C2.4,3.5,1.3,3.6,0.3,3.8z"/>
	</g>
</g>
</svg>
