<svg width="184" height="49" viewBox="0 0 184 49" fill="none" xmlns="http://www.w3.org/2000/svg">
<path d="M80.129 39.8335H86.0645V46.7582H85.4941V40.3005H80.6994V46.7502H80.129V39.8335Z" fill="white"/>
<path d="M88.043 39.8335H90.9778C92.7557 39.8335 93.9785 40.6145 93.9785 41.9673C93.9785 43.4247 92.5111 44.1735 90.8273 44.1735H88.645V46.7582H88.043V39.8335ZM90.8556 43.6985C92.3606 43.6985 93.3765 43.0221 93.3765 41.9753C93.3765 40.8803 92.3794 40.3005 90.9308 40.3005H88.645V43.6904H90.8556V43.6985Z" fill="white"/>
<path d="M94.9677 43.2959C94.9677 41.4674 96.3543 39.8335 98.4381 39.8335C100.522 39.8335 101.892 41.4519 101.892 43.2959C101.892 45.1243 100.506 46.7582 98.4221 46.7582C96.3382 46.7582 94.9677 45.1399 94.9677 43.2959ZM101.363 43.2959C101.363 41.6464 100.121 40.2848 98.4221 40.2848C96.7229 40.2848 95.4967 41.623 95.4967 43.2959C95.4967 44.9453 96.739 46.307 98.4381 46.307C100.145 46.307 101.363 44.9687 101.363 43.2959Z" fill="white"/>
<path d="M103.871 39.8335H104.384L107.333 43.9239L110.283 39.8335H110.796V46.7582H110.249V40.7434L107.342 44.7291H107.299L104.392 40.7434V46.7582H103.871V39.8335Z" fill="white"/>
<path d="M119.699 46.7582H117.951V42.2169L114.438 46.7582H112.774V39.8335H114.522V44.3748L118.054 39.8335H119.699V46.7582Z" fill="white"/>
<path d="M120.688 39.8335H122.488V42.5712H125.813V39.8335H127.613V46.7582H125.813V43.9803H122.488V46.7582H120.688V39.8335Z" fill="white"/>
<path d="M128.602 39.8335H130.402V42.5712H133.727V39.8335H135.527V46.7582H133.727V43.9803H130.402V46.7582H128.602V39.8335Z" fill="white"/>
<path d="M136.516 43.2959C136.516 41.3974 138.187 39.8335 140.482 39.8335C142.776 39.8335 144.43 41.3741 144.43 43.2959C144.43 45.1943 142.759 46.7582 140.464 46.7582C138.17 46.7582 136.516 45.2177 136.516 43.2959ZM142.707 43.2959C142.707 42.1521 141.772 41.1951 140.456 41.1951C139.14 41.1951 138.222 42.1288 138.222 43.2959C138.222 44.4396 139.157 45.3966 140.473 45.3966C141.789 45.3966 142.707 44.463 142.707 43.2959Z" fill="white"/>
<path d="M146.409 39.8335H149.648C150.444 39.8335 151.077 40.0509 151.475 40.4454C151.792 40.7595 151.954 41.146 151.954 41.6452C151.954 42.4262 151.532 42.8611 151.037 43.1348C151.841 43.4408 152.344 43.9078 152.344 44.858C152.344 46.1221 151.305 46.7582 149.73 46.7582H146.409V39.8335ZM149.324 42.6275C150.006 42.6275 150.428 42.4101 150.428 41.8787C150.428 41.4278 150.071 41.1701 149.421 41.1701H147.903V42.6356H149.324V42.6275V42.6275ZM149.73 45.4135C150.412 45.4135 150.818 45.18 150.818 44.6405C150.818 44.1735 150.468 43.8917 149.681 43.8917H147.903V45.4135H149.73Z" fill="white"/>
<path d="M155.544 39.8335H157.058L160.258 46.7582H158.536L157.849 45.215H154.692L154.005 46.7582H152.344L155.544 39.8335ZM157.275 43.8796L156.284 41.6486L155.292 43.8796H157.275Z" fill="white"/>
<path d="M166.633 47.2029H161.247V39.8335H162.845V45.7376H165.712V39.8335H167.31V45.7376H168.172L167.961 48.7367H166.633V47.2029Z" fill="white"/>
<path d="M176.086 46.7582H174.338V42.2169L170.825 46.7582H169.161V39.8335H170.909V44.3748L174.441 39.8335H176.086V46.7582Z" fill="white"/>
<path d="M184 46.7582H182.502V42.2169L179.49 46.7582H178.065V39.8335H179.562V44.3748L182.59 39.8335H184V46.7582Z" fill="white"/>
<path d="M33.6344 47.7476H24.5042L14.5461 13.475L13.8495 11.0813C14.7428 11.9195 15.9149 12.4294 17.2016 12.4294C17.4311 12.4294 17.6606 12.4121 17.8819 12.3776C17.9392 12.3689 18.0048 12.3603 18.0622 12.3516C18.1114 12.343 18.1605 12.3343 18.2097 12.3257C18.2425 12.3171 18.2835 12.3084 18.3163 12.2998C18.3245 12.2998 18.3408 12.2911 18.349 12.2911C18.3982 12.2825 18.4392 12.2652 18.4884 12.2566C18.5457 12.2393 18.6031 12.222 18.6605 12.2047C18.6851 12.1961 18.7097 12.1874 18.7343 12.1788C18.767 12.1702 18.7998 12.1529 18.8408 12.1442C18.9473 12.1097 19.0457 12.0665 19.144 12.0232C19.1768 12.006 19.2096 11.9973 19.2424 11.98C19.3735 11.9195 19.4965 11.8504 19.6194 11.7813C19.6522 11.764 19.6768 11.7467 19.7096 11.7294C19.7587 11.7035 19.7997 11.6689 19.8489 11.643C19.8653 11.6344 19.8817 11.6171 19.9063 11.6084C19.9964 11.548 20.0866 11.4875 20.1685 11.4183C20.2259 11.3751 20.2751 11.3319 20.3325 11.2887C20.3898 11.2455 20.439 11.1937 20.4964 11.1504C20.521 11.1245 20.5456 11.1072 20.5701 11.0813C20.5865 11.0727 20.5947 11.0554 20.6111 11.0381C20.6275 11.0208 20.6439 11.0035 20.6603 10.9863C20.6849 10.9603 20.7095 10.9344 20.7341 10.9085C20.7832 10.8566 20.8242 10.8134 20.8734 10.7616C20.898 10.7356 20.9226 10.7097 20.9472 10.6838C20.9717 10.6579 20.9881 10.6319 21.0127 10.606L21.0209 10.5974C21.0455 10.5715 21.0619 10.5455 21.0865 10.511C21.1029 10.485 21.1275 10.4591 21.1439 10.4418C21.1684 10.4073 21.193 10.3727 21.2176 10.3381C21.2422 10.3122 21.2586 10.2776 21.275 10.2517C21.275 10.2517 21.275 10.2517 21.275 10.2431C21.2914 10.2172 21.3078 10.1912 21.3242 10.1739C21.3733 10.1048 21.4143 10.0357 21.4553 9.96655C21.4635 9.94926 21.4799 9.93198 21.4881 9.90605C21.4963 9.88877 21.5127 9.87149 21.5209 9.8542C21.5373 9.82828 21.5536 9.80236 21.57 9.77643C21.5864 9.75051 21.6028 9.71594 21.6192 9.69001C21.6274 9.67273 21.6438 9.64681 21.652 9.62952C21.6602 9.61224 21.6766 9.58632 21.6848 9.56903C21.7012 9.54311 21.7176 9.50854 21.7258 9.48262C21.734 9.46533 21.7422 9.44805 21.7504 9.42212C21.7585 9.40484 21.7667 9.38756 21.7749 9.37028C21.7913 9.33571 21.7995 9.30978 21.8159 9.27522C21.8323 9.24065 21.8405 9.21473 21.8569 9.18016C21.8733 9.14559 21.8815 9.11103 21.8979 9.07646C21.9143 9.04189 21.9225 9.00733 21.9307 8.97276V8.96412C21.9389 8.92955 21.9552 8.89499 21.9634 8.86906V8.86042C21.9716 8.8345 21.9798 8.80857 21.988 8.78265C21.988 8.774 21.9962 8.76536 21.9962 8.74808C22.0044 8.71351 22.0208 8.67895 22.029 8.64438C22.0372 8.60981 22.0454 8.57525 22.0536 8.54068V8.53204C22.07 8.46291 22.0864 8.38513 22.1028 8.316C22.111 8.28143 22.1192 8.23823 22.1274 8.20366C22.1274 8.19502 22.1274 8.18638 22.1356 8.17773L22.1438 8.20366L22.865 10.6752L33.6344 47.7476Z" fill="white"/>
<path d="M50.4515 47.7478H41.0041L34.3637 26.1144L33.6343 23.737C34.5672 24.5915 35.8054 25.116 37.1708 25.116C39.6641 25.116 41.7419 23.3732 42.2592 21.0381L42.997 23.4409L50.4515 47.7478Z" fill="white"/>
<path d="M67.2688 47.7472H57.8378L48.2543 15.911L47.5093 13.4289L47.4839 13.3513C47.5008 13.3686 47.5178 13.3944 47.5347 13.4116C47.5432 13.4203 47.5431 13.4203 47.5516 13.4289C47.577 13.4547 47.6024 13.4806 47.6363 13.5064C47.6617 13.5323 47.6955 13.5668 47.7294 13.5926C47.7379 13.6013 47.7548 13.6185 47.7633 13.6271C47.7802 13.6443 47.8056 13.6616 47.8225 13.6788C47.831 13.6874 47.8479 13.6961 47.8564 13.7133C47.8818 13.7391 47.9072 13.7564 47.9326 13.7822C47.9495 13.7909 47.9664 13.8081 47.9749 13.8167C48.0088 13.8426 48.0342 13.8684 48.068 13.8943C48.1019 13.9201 48.1358 13.946 48.1696 13.9718C48.2035 13.9977 48.2289 14.0149 48.2628 14.0408C48.3305 14.0925 48.3982 14.1356 48.4744 14.1787C48.4913 14.1873 48.5083 14.2045 48.5252 14.2132C48.5929 14.2562 48.6691 14.2993 48.7453 14.3424C48.7622 14.351 48.7792 14.3597 48.7961 14.3683C48.8215 14.3855 48.8469 14.3941 48.8723 14.4114C48.8977 14.42 48.9146 14.4372 48.94 14.4458C48.9654 14.4545 48.9824 14.4717 49.0078 14.4803C49.0332 14.4889 49.0501 14.5062 49.0755 14.5148C49.1009 14.5234 49.1178 14.532 49.1432 14.5493C49.1601 14.5579 49.1855 14.5665 49.2025 14.5751C49.2194 14.5837 49.2448 14.5924 49.2617 14.601C49.2787 14.6096 49.3041 14.6182 49.321 14.6268C49.3379 14.6355 49.3633 14.6441 49.3803 14.6527C49.3972 14.6613 49.4226 14.6699 49.4395 14.6785C49.4734 14.6958 49.5157 14.7044 49.558 14.7216C49.5834 14.7303 49.6004 14.7389 49.6258 14.7475C49.6681 14.7647 49.7104 14.7733 49.7528 14.7906C49.7782 14.7992 49.7951 14.8078 49.8205 14.8078C49.8374 14.8164 49.8544 14.8164 49.8798 14.8251C49.8967 14.8337 49.9221 14.8337 49.939 14.8423C49.9729 14.8509 50.0067 14.8595 50.0491 14.8681C50.0829 14.8768 50.1083 14.8854 50.1422 14.8854C50.1591 14.894 50.1761 14.894 50.2015 14.894C50.2353 14.9026 50.2777 14.9112 50.3115 14.9199C50.3285 14.9199 50.3454 14.9285 50.3538 14.9285C50.4724 14.9457 50.5994 14.9716 50.7179 14.9802C50.7433 14.9802 50.7602 14.9888 50.7856 14.9888C50.811 14.9888 50.8364 14.9888 50.8618 14.9974H50.8703C50.8957 14.9974 50.9211 14.9974 50.9465 15.006C50.9719 15.006 50.9973 15.006 51.0227 15.006C51.0481 15.006 51.0735 15.006 51.0989 15.006C51.1242 15.006 51.1496 15.006 51.175 15.006C51.1835 15.006 51.192 15.006 51.2004 15.006C51.2174 15.006 51.2343 15.006 51.2512 15.006C53.6302 15.006 55.6451 13.3772 56.2546 11.145L56.9573 13.472L67.2688 47.7472Z" fill="white"/>
<path d="M58.5118 8.26028C57.9054 5.09744 55.1126 2.70187 51.7732 2.70187C47.9897 2.70187 44.9151 5.77093 44.9151 9.54758C44.9151 10.5535 45.1372 11.5084 45.5215 12.3694L42.5921 14.4069C42.0027 13.7931 41.3024 13.2901 40.5252 12.9321C39.6541 12.5314 38.6804 12.3012 37.6556 12.3012C37.5872 12.3012 37.5189 12.3012 37.4506 12.3012C37.4335 12.3012 37.425 12.3012 37.4079 12.3012C37.3823 12.3012 37.3567 12.3012 37.3225 12.3012C37.2712 12.3012 37.22 12.3097 37.1688 12.3097C37.1346 12.3097 37.1004 12.3183 37.0663 12.3183C36.9552 12.3268 36.8528 12.3353 36.7503 12.3524C36.7161 12.3609 36.6734 12.3609 36.6392 12.3694C36.6051 12.3779 36.5624 12.3779 36.5282 12.3865C36.4855 12.395 36.4343 12.4035 36.3916 12.412L36.3574 12.4206H36.3489C36.3318 12.4206 36.3147 12.4291 36.2976 12.4291C36.272 12.4376 36.2464 12.4376 36.2208 12.4461C36.2037 12.4461 36.1866 12.4547 36.161 12.4547C36.0756 12.4717 35.9816 12.4973 35.8962 12.5229C35.8706 12.5314 35.8535 12.5314 35.8279 12.5399C35.8193 12.5399 35.8023 12.5484 35.7937 12.5484C35.7852 12.5484 35.7681 12.557 35.7596 12.557C35.7339 12.5655 35.7083 12.574 35.6827 12.5825C35.6656 12.5911 35.6485 12.5911 35.6229 12.5996C35.529 12.6252 35.4436 12.6593 35.3496 12.6934C35.2898 12.7189 35.2215 12.736 35.1617 12.7616C35.1446 12.7701 35.1361 12.7701 35.119 12.7786C35.0934 12.7871 35.0678 12.7957 35.0421 12.8127C34.8799 12.8809 34.7261 12.9491 34.5724 13.0258C34.5553 13.0344 34.5468 13.0429 34.5297 13.0514C34.5041 13.0599 34.4785 13.077 34.4528 13.094C34.4187 13.1111 34.3931 13.1282 34.3589 13.1452C34.2991 13.1793 34.2308 13.2134 34.171 13.256C34.1112 13.2901 34.0514 13.3328 33.9831 13.3669C33.7098 13.5459 33.4451 13.742 33.1974 13.9466C33.1718 13.9636 33.1547 13.9892 33.129 14.0062C33.112 14.0233 33.0949 14.0403 33.0778 14.0574L23.8539 6.5723C23.5806 3.04288 20.617 0.263672 17.0129 0.263672C13.5967 0.263672 10.7526 2.77007 10.2402 6.03521H0V8.15798H10.2317C10.5904 10.4939 12.1448 12.4461 14.2457 13.3754C15.0913 13.7505 16.0307 13.9551 17.0129 13.9551C19.5153 13.9551 21.7188 12.6081 22.9145 10.5962C23.1963 10.1273 23.4184 9.62431 23.5806 9.08722L31.7284 15.6942C31.1391 16.7087 30.7975 17.8852 30.7975 19.1384C30.7975 21.9091 32.4543 24.2961 34.8286 25.3788C35.6912 25.771 36.6478 25.9841 37.6556 25.9841C40.1409 25.9841 42.3187 24.6627 43.523 22.6849C44.155 21.6533 44.5137 20.4342 44.5137 19.1384C44.5137 18.0642 44.266 17.0412 43.8134 16.129L46.6915 14.1341C47.2723 14.7735 47.9726 15.3021 48.7498 15.6857C49.6637 16.1375 50.6886 16.3848 51.7732 16.3848C54.1817 16.3848 56.3083 15.1401 57.5296 13.256C58.0847 12.4035 58.452 11.4231 58.5801 10.3745H69.2473V8.25175L58.5118 8.26028ZM22.1287 8.27733C22.1117 8.35406 22.0946 8.42226 22.0775 8.49046V8.49898C22.069 8.53308 22.0604 8.56719 22.0519 8.60129C22.0433 8.63539 22.0348 8.66949 22.0177 8.70359C22.0177 8.71211 22.0092 8.72064 22.0092 8.73769C22.0006 8.76326 21.9921 8.78884 21.9835 8.81442V8.82294C21.975 8.85704 21.9579 8.89114 21.9494 8.91672V8.92524C21.9408 8.95934 21.9238 8.99344 21.9152 9.02754C21.8981 9.06164 21.8896 9.09575 21.8725 9.12985C21.8554 9.16395 21.8469 9.18952 21.8298 9.22362C21.8127 9.25772 21.8042 9.2833 21.7871 9.3174C21.7786 9.33445 21.77 9.3515 21.7615 9.36855C21.7529 9.3856 21.7444 9.40265 21.7359 9.42823C21.7188 9.4538 21.7102 9.4879 21.6932 9.51348C21.6846 9.53053 21.6761 9.5561 21.659 9.57315C21.6505 9.5902 21.6334 9.61578 21.6248 9.63283C21.6078 9.65841 21.5907 9.69251 21.5736 9.71808C21.5565 9.74366 21.5394 9.76923 21.5224 9.79481C21.5138 9.81186 21.5053 9.82891 21.4882 9.84596C21.4796 9.86301 21.4626 9.88006 21.454 9.90564C21.4113 9.97384 21.3686 10.042 21.3174 10.1102C21.3003 10.1358 21.2832 10.1614 21.2661 10.1784C21.2661 10.1784 21.2661 10.1784 21.2661 10.187C21.2491 10.2125 21.2234 10.2466 21.2063 10.2722C21.1807 10.3063 21.1551 10.3404 21.1295 10.3745C21.1124 10.4001 21.0868 10.4257 21.0697 10.4427C21.0441 10.4683 21.027 10.4939 21.0014 10.528L20.9928 10.5365C20.9672 10.5621 20.9501 10.5876 20.9245 10.6132C20.8989 10.6388 20.8733 10.6644 20.8476 10.69C20.7964 10.7411 20.7537 10.7923 20.7025 10.8349C20.6768 10.8605 20.6512 10.886 20.6256 10.9116C20.6085 10.9287 20.5914 10.9457 20.5743 10.9628C20.5573 10.9798 20.5487 10.9883 20.5316 11.0054C20.506 11.031 20.4804 11.048 20.4548 11.0736C20.395 11.1247 20.3437 11.1674 20.284 11.21C20.2327 11.2526 20.1729 11.2952 20.1131 11.3379C20.0277 11.4061 19.9338 11.4657 19.8398 11.5254C19.8228 11.5339 19.8057 11.551 19.7801 11.5595C19.7288 11.5851 19.6861 11.6192 19.6349 11.6448C19.6007 11.6618 19.5751 11.6789 19.5409 11.6959C19.4128 11.7641 19.2847 11.8323 19.1481 11.892C19.1139 11.9091 19.0797 11.9176 19.0456 11.9346C18.9431 11.9773 18.8406 12.0199 18.7296 12.054C18.6954 12.0625 18.6612 12.0796 18.6185 12.0881C18.5929 12.0966 18.5673 12.1051 18.5417 12.1137C18.4819 12.1307 18.4221 12.1478 18.3623 12.1648C18.3111 12.1819 18.2684 12.1904 18.2171 12.1989C18.2086 12.1989 18.1915 12.2074 18.183 12.2074C18.1488 12.216 18.1061 12.2245 18.0719 12.233C18.0207 12.2415 17.9695 12.2501 17.9182 12.2586C17.8584 12.2671 17.7901 12.2756 17.7303 12.2842C17.4997 12.3183 17.2606 12.3353 17.0214 12.3353C15.6806 12.3353 14.4593 11.8323 13.5283 11.0054C12.6999 10.2722 12.1106 9.27477 11.88 8.14945C11.8117 7.80845 11.7775 7.45891 11.7775 7.10086C11.7775 6.73427 11.8117 6.37622 11.8885 6.02668C12.3839 3.64816 14.4934 1.8664 17.0214 1.8664C19.5495 1.8664 21.659 3.64816 22.1544 6.02668C22.2227 6.37622 22.2654 6.73427 22.2654 7.10086C22.2654 7.45039 22.2312 7.79992 22.1629 8.1324C22.1629 8.14093 22.1629 8.14945 22.1544 8.15798C22.1458 8.2006 22.1373 8.2347 22.1287 8.27733ZM42.9081 19.1469C42.9081 19.5306 42.8653 19.9142 42.7885 20.2722C42.2675 22.6252 40.1751 24.3814 37.6641 24.3814C36.2891 24.3814 35.0336 23.8528 34.1027 22.9918C33.0693 22.0369 32.4202 20.6644 32.4202 19.1469C32.4202 18.7377 32.4714 18.337 32.5568 17.9534C32.5654 17.9193 32.5739 17.8852 32.5824 17.8426C32.591 17.8085 32.5995 17.7744 32.6081 17.7317C32.6251 17.6635 32.6508 17.5953 32.6679 17.5271C32.702 17.4248 32.7362 17.3311 32.7703 17.2288C32.7789 17.2032 32.7874 17.1861 32.796 17.1606C32.813 17.1094 32.8387 17.0583 32.8557 17.0156C32.8643 16.9901 32.8814 16.9645 32.8899 16.9389C32.8985 16.9218 32.907 16.8963 32.9155 16.8792C32.9412 16.8281 32.9668 16.7769 32.9924 16.7258C33.0266 16.6576 33.0607 16.5979 33.1034 16.5297C33.112 16.5212 33.112 16.5041 33.1205 16.4956C33.129 16.4785 33.1376 16.4615 33.1461 16.4444C33.1547 16.4274 33.1632 16.4189 33.1717 16.4018L33.1803 16.3933C33.1974 16.3677 33.2059 16.3507 33.223 16.3336C33.3169 16.1887 33.4194 16.0438 33.5219 15.9074C33.5305 15.8988 33.5305 15.8903 33.539 15.8818C33.5561 15.8647 33.5646 15.8477 33.5817 15.8306C33.5902 15.8221 33.5988 15.8051 33.6159 15.7965C33.6756 15.7198 33.744 15.6516 33.8038 15.5834C33.8123 15.5749 33.8294 15.5578 33.8379 15.5493C33.8465 15.5408 33.855 15.5322 33.8635 15.5237C33.8635 15.5237 33.8635 15.5237 33.8721 15.5152C33.8806 15.5067 33.8977 15.4896 33.9062 15.4811C33.9233 15.464 33.9319 15.4555 33.9489 15.4385C33.966 15.4214 33.9746 15.4129 33.9916 15.3958C34.0087 15.3788 34.0258 15.3617 34.0429 15.3447C34.0771 15.3106 34.1112 15.285 34.1454 15.2509C34.1625 15.2339 34.1795 15.2253 34.1966 15.2083C34.2137 15.1912 34.2308 15.1827 34.2479 15.1657L34.2564 15.1571C34.2906 15.1316 34.3162 15.106 34.3504 15.0804C34.376 15.0548 34.4101 15.0378 34.4358 15.0122C34.4614 14.9866 34.4955 14.9696 34.5212 14.944C34.5468 14.9184 34.581 14.9014 34.6066 14.8758C34.6322 14.8588 34.6664 14.8332 34.692 14.8161C34.7176 14.7991 34.7432 14.782 34.7688 14.765C34.7774 14.7565 34.7774 14.7565 34.7859 14.7565C34.8115 14.7394 34.8457 14.7224 34.8713 14.7053C34.8884 14.6968 34.9055 14.6883 34.914 14.6797C34.9311 14.6712 34.9482 14.6627 34.9653 14.6542C34.9824 14.6456 34.9909 14.6371 35.008 14.6286C35.0592 14.603 35.1019 14.5689 35.1532 14.5433C35.1873 14.5263 35.2215 14.5092 35.2471 14.4922C35.3154 14.4581 35.3752 14.424 35.4436 14.3984C35.4606 14.3899 35.4777 14.3813 35.4948 14.3728C35.5119 14.3643 35.529 14.3558 35.546 14.3472C35.5802 14.3302 35.6144 14.3217 35.6485 14.3046C35.6827 14.2876 35.7169 14.279 35.751 14.262C35.7596 14.2535 35.7766 14.2535 35.7852 14.2449C35.8108 14.2364 35.8364 14.2279 35.862 14.2194C35.8877 14.2108 35.9133 14.2023 35.9389 14.1938C35.9645 14.1853 35.9816 14.1767 36.0072 14.1682C36.0329 14.1597 36.0499 14.1512 36.0756 14.1512C36.0926 14.1426 36.1012 14.1426 36.1183 14.1426C36.1439 14.1341 36.161 14.1256 36.1866 14.1256C36.2122 14.1171 36.2378 14.1085 36.2635 14.1085C36.2891 14.1 36.3062 14.1 36.3318 14.0915C36.3574 14.083 36.383 14.083 36.4001 14.0744C36.4343 14.0659 36.477 14.0574 36.5111 14.0489C36.5282 14.0489 36.5368 14.0403 36.5538 14.0403C36.5795 14.0318 36.6051 14.0318 36.6222 14.0233C36.699 14.0062 36.7673 13.9977 36.8442 13.9807C36.8869 13.9721 36.9296 13.9721 36.9723 13.9636C37.0065 13.9551 37.0407 13.9551 37.0834 13.9551C37.1175 13.9551 37.1602 13.9466 37.1944 13.9466C37.2285 13.9466 37.2712 13.938 37.3054 13.938C37.3139 13.938 37.3225 13.938 37.331 13.938C37.3652 13.938 37.3908 13.938 37.425 13.9295C37.4591 13.9295 37.5018 13.9295 37.536 13.9295C37.5787 13.9295 37.6129 13.9295 37.6556 13.9295C37.6897 13.9295 37.7154 13.9295 37.7495 13.9295C37.7581 13.9295 37.7751 13.9295 37.7837 13.9295C37.8093 13.9295 37.8349 13.9295 37.8605 13.9295C37.8947 13.9295 37.9289 13.9295 37.9545 13.938C37.9801 13.938 38.0057 13.938 38.0314 13.9466C38.0484 13.9466 38.057 13.9466 38.0741 13.9466C38.0826 13.9466 38.0997 13.9466 38.1082 13.9466C38.1936 13.9551 38.279 13.9636 38.3644 13.9721C38.4071 13.9807 38.4499 13.9807 38.4926 13.9892C38.5523 13.9977 38.6121 14.0062 38.6719 14.0233C38.689 14.0233 38.7061 14.0318 38.7231 14.0318C38.7402 14.0318 38.7659 14.0403 38.7829 14.0489C38.8 14.0489 38.8086 14.0574 38.8256 14.0574C38.8598 14.0659 38.8854 14.0744 38.9196 14.083C38.9537 14.0915 38.9965 14.1 39.0306 14.1085C39.0477 14.1171 39.0648 14.1171 39.0819 14.1256C39.1075 14.1341 39.1246 14.1426 39.1502 14.1426C39.1673 14.1512 39.1929 14.1512 39.21 14.1597C39.2185 14.1597 39.227 14.1682 39.2356 14.1682C39.2441 14.1682 39.2527 14.1767 39.2612 14.1767C39.2783 14.1853 39.3039 14.1853 39.321 14.1938C39.3637 14.2108 39.3979 14.2194 39.4406 14.2364C39.4576 14.2449 39.4833 14.2535 39.5003 14.2535C39.543 14.2705 39.5772 14.279 39.6114 14.2961C39.6199 14.2961 39.6285 14.3046 39.637 14.3046C39.6541 14.3131 39.6797 14.3217 39.6968 14.3302C39.7053 14.3387 39.7224 14.3387 39.7309 14.3472C39.7993 14.3813 39.8761 14.4069 39.9445 14.441C39.9615 14.4496 39.9701 14.4581 39.9872 14.4666C40.0128 14.4751 40.0299 14.4922 40.0555 14.5007C40.064 14.5092 40.0811 14.5092 40.0896 14.5178C40.1067 14.5263 40.1238 14.5348 40.1409 14.5433C40.1494 14.5433 40.158 14.5519 40.1665 14.5519C40.1836 14.5604 40.1921 14.5689 40.2092 14.5774C40.2263 14.586 40.2348 14.5945 40.2519 14.603C40.269 14.6115 40.2861 14.6286 40.3117 14.6371C40.3373 14.6456 40.3544 14.6627 40.38 14.6797C40.3886 14.6883 40.3971 14.6883 40.4057 14.6968C40.4313 14.7138 40.4484 14.7224 40.474 14.7394C40.5081 14.765 40.5508 14.7906 40.585 14.8161C40.6192 14.8417 40.6533 14.8588 40.6875 14.8843C40.7558 14.9355 40.8156 14.9781 40.8839 15.0293C40.901 15.0378 40.9095 15.0463 40.9181 15.0634C40.9266 15.0719 40.9437 15.0804 40.9523 15.0975C40.9608 15.106 40.9693 15.1145 40.9779 15.1145C41.0035 15.1401 41.0377 15.1657 41.0633 15.1912C41.0804 15.2083 41.0974 15.2253 41.1231 15.2424C41.1401 15.2509 41.1487 15.268 41.1658 15.2765C41.1914 15.3021 41.217 15.3276 41.2512 15.3532C41.2597 15.3617 41.2597 15.3617 41.2683 15.3703C41.7807 15.8562 42.1906 16.4359 42.4725 17.0924C42.7543 17.7062 42.9081 18.4138 42.9081 19.1469ZM56.8293 10.9628C56.2058 13.1623 54.1817 14.782 51.7818 14.782C51.7647 14.782 51.7476 14.782 51.7305 14.782C51.722 14.782 51.7134 14.782 51.7049 14.782C51.6793 14.782 51.6536 14.782 51.628 14.782C51.6024 14.782 51.5768 14.782 51.5512 14.782C51.5255 14.782 51.4999 14.782 51.4743 14.782C51.4487 14.782 51.423 14.782 51.3974 14.7735H51.3889C51.3633 14.7735 51.3376 14.7735 51.312 14.765C51.2864 14.765 51.2693 14.765 51.2437 14.7565C51.1156 14.7479 50.996 14.7309 50.8764 14.7053C50.8594 14.7053 50.8423 14.6968 50.8337 14.6968C50.7996 14.6883 50.7569 14.6797 50.7227 14.6712C50.7056 14.6712 50.6886 14.6627 50.6629 14.6627C50.6288 14.6542 50.6031 14.6456 50.569 14.6456C50.5348 14.6371 50.5007 14.6286 50.458 14.6201C50.4409 14.6115 50.4153 14.6115 50.3982 14.603C50.3811 14.5945 50.364 14.5945 50.3384 14.586C50.3128 14.5774 50.2957 14.5689 50.2701 14.5689C50.2274 14.5604 50.1847 14.5433 50.142 14.5263C50.1163 14.5178 50.0992 14.5092 50.0736 14.5007C50.0309 14.4837 49.9968 14.4751 49.9541 14.4581C49.9284 14.4496 49.9114 14.441 49.8943 14.4325C49.8772 14.424 49.8516 14.4154 49.8345 14.4069C49.8174 14.3984 49.7918 14.3899 49.7747 14.3813C49.7576 14.3728 49.732 14.3643 49.7149 14.3558C49.6978 14.3472 49.6722 14.3387 49.6551 14.3302C49.6295 14.3217 49.6124 14.3131 49.5868 14.2961C49.5612 14.2876 49.5441 14.279 49.5185 14.262C49.4929 14.2535 49.4758 14.2364 49.4502 14.2279C49.4245 14.2194 49.4075 14.2023 49.3818 14.1938C49.3562 14.1853 49.3306 14.1682 49.305 14.1512C49.2879 14.1426 49.2708 14.1341 49.2537 14.1256C49.1769 14.083 49.1085 14.0403 49.0317 13.9977C49.0146 13.9892 48.9975 13.9721 48.9804 13.9636C48.9121 13.921 48.8438 13.8698 48.7669 13.8272C48.7328 13.8016 48.7071 13.7846 48.673 13.759C48.6388 13.7334 48.6046 13.7079 48.5705 13.6823C48.5363 13.6567 48.5107 13.6311 48.4765 13.6056C48.4594 13.597 48.4424 13.58 48.4338 13.5715C48.4082 13.5544 48.3826 13.5288 48.357 13.5033C48.3484 13.4947 48.3313 13.4862 48.3228 13.4692C48.3057 13.4521 48.2801 13.4351 48.263 13.418C48.2545 13.4095 48.2374 13.3924 48.2289 13.3839C48.1947 13.3583 48.1691 13.3242 48.1349 13.2987C48.1093 13.2731 48.0837 13.2475 48.0495 13.2219C48.041 13.2134 48.041 13.2134 48.0324 13.2049C48.0153 13.1878 47.9983 13.1708 47.9812 13.1452C47.5114 12.6507 47.1357 12.0625 46.8794 11.4146C46.6574 10.8349 46.5293 10.1955 46.5293 9.53053C46.5293 6.6405 48.8779 4.29608 51.7732 4.29608C54.2244 4.29608 56.2827 5.97553 56.8549 8.24323C56.9574 8.65244 57.0171 9.08722 57.0171 9.53053C57.0171 9.81186 56.9915 10.0932 56.9488 10.366C56.9232 10.5791 56.8805 10.7752 56.8293 10.9628Z" fill="url(#paint0_linear_2_1349)"/>
<defs>
<linearGradient id="paint0_linear_2_1349" x1="0" y1="13.1281" x2="69.2473" y2="13.1281" gradientUnits="userSpaceOnUse">
<stop stop-color="#003DFE"/>
<stop offset="0.33" stop-color="#007CF6"/>
<stop offset="0.6405" stop-color="#00B1EF"/>
<stop offset="0.8726" stop-color="#00D2EB"/>
<stop offset="1" stop-color="#00DEE9"/>
</linearGradient>
</defs>
</svg>
