<?xml version="1.0" encoding="UTF-8"?> <svg xmlns="http://www.w3.org/2000/svg" width="200" height="24" viewBox="0 0 200 24" fill="none"> <path d="M0 23.0575V0.452044H5.16051V23.0575H0ZM21.6097 12.7237V0.452044H26.7702V23.0575H22.8999L14.1914 10.7861V23.0575H9.0309V0.452044H12.9013L21.6097 12.7237ZM43.2195 12.7237V0.452044H48.38V23.0575H44.5096L35.8011 10.7861V23.0575H30.6406V0.452044H34.511L43.2195 12.7237ZM71.3444 20.1187C69.0652 22.3793 66.2914 23.5095 63.0231 23.5095C59.7547 23.5095 56.9809 22.3793 54.7015 20.1187C52.4224 17.8583 51.2829 15.0702 51.2829 11.7548C51.2829 8.43931 52.4224 5.65125 54.7015 3.39083C56.9809 1.13021 59.7547 0 63.0231 0C66.2914 0 69.0652 1.13021 71.3444 3.39083C73.6237 5.65125 74.7633 8.43931 74.7633 11.7548C74.7633 15.0702 73.6237 17.8583 71.3444 20.1187ZM56.4434 11.7548C56.4434 13.7354 57.0669 15.3502 58.314 16.5988C59.5611 17.8475 61.1309 18.4718 63.0231 18.4718C64.8937 18.4718 66.4525 17.8475 67.6998 16.5988C68.9684 15.3286 69.6028 13.7139 69.6028 11.7548C69.6028 9.79564 68.9684 8.18108 67.6998 6.91088C66.4525 5.66203 64.8937 5.03769 63.0231 5.03769C61.1309 5.03769 59.5611 5.66203 58.314 6.91088C57.0669 8.15954 56.4434 9.77411 56.4434 11.7548ZM88.6968 23.0575H82.1171L74.7633 0.452044H80.4075L85.4069 17.0832L90.4061 0.452044H96.0506L88.6968 23.0575ZM116.693 23.0575H111.048L109.92 19.5051H101.534L100.405 23.0575H94.7604L102.437 0.452044H109.016L116.693 23.0575ZM105.727 6.36173L103.082 14.6612H108.371L105.727 6.36173ZM115.403 0.452044H132.174V5.42534H126.369V23.0575H121.208V5.42534H115.403V0.452044ZM134.432 23.0575V0.452044H139.593V23.0575H134.432ZM162.557 20.1187C160.278 22.3793 157.504 23.5095 154.236 23.5095C150.967 23.5095 148.194 22.3793 145.914 20.1187C143.635 17.8583 142.496 15.0702 142.496 11.7548C142.496 8.43931 143.635 5.65125 145.914 3.39083C148.194 1.13021 150.967 0 154.236 0C157.504 0 160.278 1.13021 162.557 3.39083C164.836 5.65125 165.976 8.43931 165.976 11.7548C165.976 15.0702 164.836 17.8583 162.557 20.1187ZM147.656 11.7548C147.656 13.7354 148.28 15.3502 149.527 16.5988C150.774 17.8475 152.344 18.4718 154.236 18.4718C156.106 18.4718 157.665 17.8475 158.913 16.5988C160.181 15.3286 160.815 13.7139 160.815 11.7548C160.815 9.79564 160.181 8.18108 158.913 6.91088C157.665 5.66203 156.106 5.03769 154.236 5.03769C152.344 5.03769 150.774 5.66203 149.527 6.91088C148.28 8.15954 147.656 9.77411 147.656 11.7548ZM181.457 12.7237V0.452044H186.618V23.0575H182.748L174.039 10.7861V23.0575H168.879V0.452044H172.749L181.457 12.7237Z" fill="white"></path> <path d="M200 3.62276H193.339V6.91385H192.381V2.60938H200V3.62276ZM192.381 14.2477V13.1689L194.09 12.5478V9.11515L192.381 8.49386V7.41506L200 10.2594V11.4036L192.381 14.2477ZM198.792 10.826L195.037 9.46378V12.199L198.792 10.826ZM196.332 19.5111C196.158 19.8671 195.915 20.1468 195.603 20.3502C195.291 20.5536 194.935 20.6554 194.536 20.6554C193.927 20.6554 193.415 20.441 193.002 20.0124C192.588 19.5839 192.381 19.0607 192.381 18.4433V15.1522H200V18.2034C200 18.8064 199.8 19.3114 199.402 19.7182C199.002 20.1322 198.509 20.3395 197.921 20.3395C197.239 20.3395 196.709 20.0634 196.332 19.5111ZM199.053 18.2034V16.1656H196.724V18.2034C196.724 18.5231 196.836 18.7919 197.061 19.0099C197.286 19.2277 197.562 19.3368 197.889 19.3368C198.208 19.3368 198.48 19.2243 198.705 18.999C198.937 18.781 199.053 18.5158 199.053 18.2034ZM193.328 16.1656V18.4433C193.328 18.7846 193.448 19.0717 193.687 19.3041C193.927 19.5366 194.221 19.6527 194.569 19.6527C194.91 19.6527 195.2 19.5329 195.44 19.2932C195.679 19.0681 195.799 18.7846 195.799 18.4433V16.1656H193.328Z" fill="white"></path> </svg> 