<svg width="120" height="32" viewBox="0 0 120 32" fill="none" xmlns="http://www.w3.org/2000/svg">
<g clip-path="url(#clip0_1781_1587)">
<path d="M31.9998 30L16.4737 1H9.02344L24.5495 30H31.9998Z" fill="#8D68C8"/>
<path d="M17.2441 23.5391V29.999H32.0004L28.5436 23.5391H17.2441Z" fill="#8D68C8"/>
<path d="M3.45681 30.001H3.99347L14.2714 10.803L10.5444 3.84412L0 23.5411L3.45681 30.001Z" fill="url(#paint0_linear_1781_1587)"/>
<path d="M3.45681 29.9989H11.2994V23.5389H0L3.45681 29.9989Z" fill="#8D68C8"/>
</g>
<path d="M91.7976 25.9883C90.8456 21.7448 89.8964 17.5147 88.95 13.298H88.9088C87.9419 17.5195 86.9742 21.741 86.0023 25.9911H85.8064C84.455 25.9911 83.1036 25.9869 81.7523 25.9967C81.5843 25.9967 81.5341 25.9241 81.4963 25.7626C80.0844 19.6126 78.6711 13.4625 77.2565 7.31252C77.1594 6.89107 77.0647 6.46963 76.9643 6.02711C77.0355 6.02055 77.0931 6.01071 77.1507 6.01071C78.4268 6.01071 79.7028 6.01071 80.9788 6.00603C81.132 6.00603 81.1847 6.05754 81.2213 6.2294C82.103 10.5634 82.9885 14.8967 83.8779 19.2292C83.8944 19.3088 83.9154 19.3879 83.9343 19.4671L83.9891 19.4727C84.0162 19.3851 84.0504 19.2994 84.0714 19.21C84.7226 16.1906 85.3727 13.1711 86.0217 10.1517C86.3036 8.8405 86.5901 7.53495 86.8647 6.22378C86.9013 6.04911 86.9643 6.00556 87.1116 6.00603C88.3054 6.01259 89.4991 6.01446 90.6928 6.00603C90.8615 6.00603 90.9118 6.07861 90.948 6.24579C91.881 10.5574 92.8177 14.8683 93.7581 19.1786C93.7787 19.2723 93.8022 19.3659 93.8244 19.4596L93.8775 19.4572C93.9598 19.0602 94.0422 18.664 94.1245 18.2664C94.937 14.2495 95.7488 10.2327 96.5597 6.21582C96.5835 6.09781 96.6008 6.00556 96.7482 6.0065C98.0654 6.01399 99.3826 6.01118 100.7 6.01212C100.733 6.01479 100.766 6.01964 100.799 6.02664C100.79 6.09032 100.785 6.14979 100.772 6.20645C99.2937 12.7239 97.8159 19.2415 96.339 25.7593C96.2979 25.9443 96.2345 26.0009 96.0649 26C94.7135 25.9906 93.3622 25.9944 92.0104 25.9944L91.7976 25.9883Z" fill="#555555"/>
<path d="M52.7912 6.01873H56.6605V25.9884H56.4485C55.1453 25.9884 53.8417 25.9855 52.5381 25.9926C52.3903 25.9926 52.3059 25.9397 52.2232 25.8015C49.6739 21.5393 47.1218 17.279 44.567 13.0209C44.5225 12.9469 44.4748 12.8757 44.3937 12.7483C44.6407 17.1923 44.4624 21.5734 44.5365 25.9706H40.6578V25.6723C40.6578 20.6229 40.65 15.5739 40.6652 10.5245C40.6681 9.65068 40.5927 8.8031 40.3931 7.96161C40.2523 7.36783 40.1424 6.76423 40.0193 6.16483C40.0103 6.12128 40.0082 6.07586 40 6.00468H40.2128C41.7358 6.00468 43.2588 6.00796 44.7818 6C44.9407 6 45.0288 6.06181 45.1111 6.20511C47.6569 10.4608 50.2047 14.7146 52.7546 18.9666C52.8036 19.048 52.8534 19.129 52.9357 19.2644C52.6846 14.8167 52.8641 10.428 52.7912 6.01873Z" fill="#555555"/>
<path d="M118.985 12.0941H114.745V11.8441C114.745 11.3135 114.748 10.7825 114.745 10.2519C114.741 9.60103 114.45 9.27183 113.881 9.27183C112.077 9.27183 110.273 9.27183 108.468 9.27183C107.868 9.27183 107.578 9.60524 107.576 10.2955C107.576 11.0606 107.576 11.8253 107.576 12.59C107.576 13.2667 107.833 13.6202 108.421 13.7106C110.105 13.9691 111.791 14.2145 113.475 14.4734C114.433 14.6205 115.391 14.7675 116.343 14.9473C116.833 15.041 117.285 15.2751 117.697 15.5964C118.534 16.2496 118.957 17.1721 118.978 18.3091C119.006 19.6827 119.007 21.0563 118.982 22.4299C118.949 24.3868 117.523 25.9663 115.795 25.9865C114.76 25.9986 113.724 25.9888 112.688 25.9888C110.664 25.9888 108.641 25.9888 106.617 25.9888C104.97 25.9888 103.656 24.7348 103.37 22.8874C103.342 22.6794 103.329 22.469 103.332 22.2585C103.328 21.3842 103.332 20.5104 103.332 19.6362V19.4105H107.578V19.6694C107.578 20.3564 107.575 21.0429 107.578 21.7298C107.581 22.3943 107.866 22.7207 108.454 22.7212C110.271 22.7234 112.089 22.7234 113.907 22.7212C114.452 22.7212 114.743 22.3896 114.746 21.7645C114.751 20.7817 114.751 19.7984 114.746 18.8144C114.744 18.2936 114.517 17.9682 114.064 17.8886C113.191 17.7345 112.314 17.6076 111.439 17.4671C109.674 17.1862 107.908 16.9202 106.146 16.6205C105.511 16.5127 104.914 16.2119 104.417 15.7499C103.679 15.0719 103.339 14.1747 103.336 13.1089C103.332 11.8759 103.316 10.6425 103.351 9.4095C103.398 7.70311 104.716 6.17138 106.211 6.03277C106.409 6.0145 106.609 6.0056 106.807 6.00513C109.764 6.00513 112.721 6.00513 115.677 6.00513C116.672 6.00513 117.51 6.40926 118.175 7.2545C118.687 7.90587 118.97 8.67337 118.986 9.54905C118.997 10.3887 118.985 11.2302 118.985 12.0941Z" fill="#555555"/>
<path d="M73.657 14.0936C73.4841 14.8771 73.3211 15.6169 73.1577 16.3563C73.1091 16.5755 73.0486 16.7918 73.0132 17.0119C72.9827 17.203 72.9161 17.2737 72.7325 17.2718C71.5935 17.2601 70.455 17.2662 69.316 17.2662H64.3024V22.745H74.4593C74.4559 22.8108 74.4494 22.8763 74.4399 22.9412C74.2403 23.8965 74.0373 24.8504 73.8422 25.8071C73.8163 25.9345 73.7813 25.9883 73.657 25.9883C69.1503 25.9846 64.6431 25.9832 60.1355 25.9841C60.1154 25.9841 60.0944 25.978 60.045 25.97V25.6802C60.045 20.6148 60.0372 15.55 60.0524 10.4846C60.0553 9.61878 59.9808 8.7787 59.7824 7.94517C59.6325 7.31534 59.5136 6.67567 59.3765 6.01868H74.3152V9.22731H64.2991V14.0904L73.657 14.0936Z" fill="#555555"/>
<defs>
<linearGradient id="paint0_linear_1781_1587" x1="7.13569" y1="7.9358" x2="7.13569" y2="30.001" gradientUnits="userSpaceOnUse">
<stop stop-color="#FFA900"/>
<stop offset="1" stop-color="#FF0000"/>
</linearGradient>
<clipPath id="clip0_1781_1587">
<rect width="32" height="32" fill="white"/>
</clipPath>
</defs>
</svg>
