<svg xmlns="http://www.w3.org/2000/svg" viewBox="0 0 227 56"><path d="M59,136.563V82.675h8.684l22.621,35.537V82.675h10.8v53.888H92.422L69.873,101.026v35.537Zm67.288.437q-4.159,0-8.9-.437a56.677,56.677,0,0,1-8.027-1.384v-8.52q3.21.291,7.735.51,4.6.146,8.683.146a16.18,16.18,0,0,0,6.568-1.093q2.407-1.164,2.408-4.369v-1.966a4.507,4.507,0,0,0-1.459-3.641,5.789,5.789,0,0,0-4.014-1.311h-4.6q-7.736,0-11.9-3.35-4.086-3.423-4.086-11.579V97.385q0-7.865,4.451-11.506,4.524-3.641,12.989-3.641a66.937,66.937,0,0,1,8.83.582q4.452.584,7.516,1.238v8.521q-3.357-.219-7.516-.437-4.086-.219-7.589-.219a13.8,13.8,0,0,0-6.13,1.165q-2.262,1.166-2.262,4.807v1.456a4.833,4.833,0,0,0,1.605,4.078,7.683,7.683,0,0,0,4.744,1.238h5.327q7.224,0,10.8,3.932a14.166,14.166,0,0,1,3.575,9.9v3.059q0,6.335-2.408,9.685a11.737,11.737,0,0,1-6.567,4.588A36.468,36.468,0,0,1,126.288,137Zm58.282-.437q-6.348,0-9.559-2.913t-3.211-9.831V82.675h10.8v39.4q0,2.694,1.313,3.713a5.756,5.756,0,0,0,3.5,1.02h17.076v9.758Zm34.09.437a10.083,10.083,0,0,1-7.224-2.622,9.536,9.536,0,0,1-2.774-7.282v-3.5a9.378,9.378,0,0,1,3.138-7.282q3.138-2.913,9.779-2.913h10v-2.7a6.028,6.028,0,0,0-.657-2.985,3.494,3.494,0,0,0-2.408-1.748,19.185,19.185,0,0,0-5.473-.583H211.29V99.133a58.861,58.861,0,0,1,6.64-1.53,53.171,53.171,0,0,1,9.049-.655,26.03,26.03,0,0,1,8.319,1.165,9.758,9.758,0,0,1,5.254,4q1.824,2.841,1.824,7.865v26.58h-8.538l-1.751-4.151a10.969,10.969,0,0,1-2.627,1.821,29.3,29.3,0,0,1-4.816,1.893A19.8,19.8,0,0,1,218.66,137Zm5.473-7.5a13.035,13.035,0,0,0,2.846-.364q1.679-.436,2.992-.874a12.579,12.579,0,0,0,1.6-.655v-9.1l-6.568.437q-5.546.436-5.545,4.806v1.6a3.768,3.768,0,0,0,1.313,3.276A6.165,6.165,0,0,0,224.133,129.5Zm48.513,7.5a15.7,15.7,0,0,1-6.568-1.238,26.44,26.44,0,0,1-4.816-2.913l-1.751,3.714h-9.049V81h10.8v19.152a37.883,37.883,0,0,1,5.254-2.257,17.459,17.459,0,0,1,5.619-1.02q7.517,0,10.654,4.806Q286,106.415,286,117.411q0,9.9-3.284,14.783Q279.506,137,272.646,137Zm-4.014-8.811a6.032,6.032,0,0,0,3.357-.947,6.362,6.362,0,0,0,2.335-3.5,21.254,21.254,0,0,0,.876-6.845,21.57,21.57,0,0,0-.949-7.428,5.183,5.183,0,0,0-2.408-3.131,6.839,6.839,0,0,0-3.211-.8,11.317,11.317,0,0,0-4.086.728,18.973,18.973,0,0,0-3.284,1.457V126.3a17.383,17.383,0,0,0,3.138,1.311A13.941,13.941,0,0,0,268.632,128.189Z" transform="translate(-59 -81)" style="fill:#fff"/></svg>