<?xml version="1.0" encoding="UTF-8"?> <svg xmlns="http://www.w3.org/2000/svg" width="136" height="42" viewBox="0 0 136 42" fill="none"> <path fill-rule="evenodd" clip-rule="evenodd" d="M119.078 16.0309C119.082 15.9763 119.087 15.9195 119.087 15.8605C118.94 15.8849 118.794 15.8849 118.704 15.8605H115.61C115.447 15.8605 115.317 15.9903 115.317 16.1526V19.3085C115.317 19.4707 115.447 19.6005 115.61 19.6005H118.777C118.94 19.6005 119.071 19.4707 119.071 19.3085V16.1769C119.071 16.1301 119.074 16.0815 119.078 16.0309ZM131.985 11.504V4.49449C131.985 3.75623 131.366 3.15588 130.608 3.13966H123.573C122.841 3.13966 122.23 3.72378 122.23 4.47827V12.6398V12.8426H122.45H130.641C131.374 12.8426 131.985 12.2341 131.985 11.504ZM123.59 0H130.625C133.133 0 135.152 2.02009 135.152 4.51072V11.5121C135.152 14.0027 133.133 16.0228 130.625 16.0228H122.45C122.393 16.0228 122.319 16.0228 122.262 16.039C122.262 16.0593 122.258 16.0776 122.254 16.0958C122.25 16.1141 122.246 16.1323 122.246 16.1526V19.3247C122.246 21.2312 120.683 22.7889 118.769 22.7889H115.602C113.672 22.7889 112.125 21.2312 112.125 19.3247V16.185C112.125 14.2785 113.688 12.7209 115.602 12.7209H118.875C118.932 12.7209 119.005 12.7209 119.062 12.7047V12.6316V4.51072C119.079 2.02009 121.09 0 123.59 0ZM7.54281 32.8762C8.43034 32.8925 9.29345 32.5436 9.89599 31.9027C10.523 31.2618 10.8324 30.199 10.8324 28.7306C10.8324 25.9966 9.67615 24.6255 7.37182 24.6255C6.30515 24.6255 5.45833 24.9744 4.87207 25.6883C4.28581 26.386 3.96826 27.3433 3.96826 28.5115C3.96826 29.8339 4.28581 30.8805 4.92907 31.6674C5.57233 32.4949 6.43543 32.8762 7.54281 32.8762ZM2.38861 39.0744C2.68174 38.4335 3.17843 38.2144 3.8624 38.4335C4.78251 38.7823 5.75961 38.9608 6.7367 38.9608C7.91737 38.9608 8.88632 38.685 9.62729 38.1333C10.3601 37.5816 10.751 36.7055 10.751 35.5291V34.4744L10.808 33.7605H10.751C9.94485 35.1721 8.63391 35.8698 6.86698 35.8698C4.86393 35.8698 3.29243 35.1884 2.13619 33.8173C0.979959 32.4462 0.42627 30.7345 0.42627 28.6819C0.42627 26.6456 0.979959 24.9582 2.10362 23.6358C3.22729 22.3134 4.79065 21.6562 6.83442 21.6562C7.40439 21.6562 7.97436 21.7293 8.52805 21.8753C8.96775 21.9889 9.37487 22.1674 9.75757 22.427C10.0344 22.6136 10.2705 22.8326 10.5148 23.0679C10.6777 23.2301 10.8324 23.4167 10.9382 23.6195L11.0522 23.8386H11.1255C11.1226 23.815 11.1193 23.7923 11.1162 23.7701C11.102 23.6697 11.0892 23.5798 11.1092 23.4735V22.9381C11.1092 22.6785 11.1988 22.427 11.4024 22.2566C11.6385 22.07 11.9398 21.9808 12.2492 21.997H13.1856C13.9428 21.997 14.3255 22.3864 14.3255 23.1733V35.3101C14.3255 37.5492 13.5927 39.2123 12.1352 40.3319C10.6777 41.4352 8.95146 42.0031 6.96469 41.9788C5.36062 41.9788 3.98454 41.7192 2.82831 41.2243C2.12805 40.9322 1.92449 40.4373 2.21762 39.7234L2.38861 39.0744ZM17.3379 31.0881V23.1457C17.3379 22.375 17.7287 21.9693 18.5186 21.9693H19.7155C20.489 21.9693 20.8962 22.3588 20.8962 23.1457V30.3742C20.8962 31.3072 21.059 32.0455 21.3766 32.5241C21.6941 33.0028 22.2804 33.2543 23.0865 33.2543C24.316 33.2543 25.2768 32.7918 25.9934 31.8589C26.7099 30.9421 27.06 29.8063 27.06 28.4677V23.1295C27.06 22.3588 27.4427 21.9531 28.2407 21.9531H29.4376C30.2112 21.9531 30.6183 22.3344 30.6183 23.1295V34.958C30.6183 35.7287 30.2274 36.1343 29.4376 36.1343H28.3547C27.5974 36.1343 27.2147 35.753 27.2147 34.958V34.1304L27.2717 33.4895H27.2147C26.7913 34.3495 26.1318 35.0634 25.3175 35.5826C24.4137 36.1668 23.3633 36.4832 22.2804 36.4832C18.9745 36.475 17.3379 34.6821 17.3379 31.0881ZM33.7861 23.149V34.9775C33.7861 35.7482 34.177 36.1295 34.9098 36.1944H36.1393C36.8884 36.1944 37.2793 35.7888 37.2793 35.018V29.8258C37.2467 28.617 37.5805 27.4082 38.2401 26.3779C38.8345 25.4368 39.8604 24.8689 40.9678 24.9095C41.7169 24.9095 42.238 25.161 42.4742 25.6396C42.7103 26.1183 42.8406 26.8322 42.8406 27.7327V35.0099C42.8406 35.805 43.2477 36.1863 44.0212 36.1863H45.2182C45.9754 36.1863 46.3581 35.7806 46.3581 35.0099V29.8177C46.3256 28.5927 46.6594 27.3839 47.3189 26.3536C47.9622 25.3638 48.866 24.8851 49.9897 24.8851C50.7469 24.8851 51.2599 25.1204 51.5368 25.5991C51.8136 26.0777 51.9439 26.7917 51.9439 27.7084V34.9937C51.9439 35.7806 52.351 36.1701 53.1245 36.1701H54.3215C55.1113 36.1701 55.5021 35.7644 55.5021 34.9937V27.0513C55.5021 23.4492 53.9551 21.6562 50.8446 21.6562C49.8187 21.6562 48.8009 21.9483 47.9378 22.5162C47.1317 23.0111 46.4721 23.725 46.008 24.5687H45.951C45.3566 22.6298 43.9805 21.6562 41.8065 21.6562C40.7887 21.6562 39.8116 21.9727 39.0055 22.5568C38.2156 23.0922 37.5724 23.8061 37.149 24.6499H37.092L37.149 24.009V23.149C37.149 22.3621 36.7663 21.9726 36.009 21.9726H34.9261C34.177 21.9726 33.7861 22.3783 33.7861 23.149ZM64.8579 32.8763C65.7454 32.8925 66.6085 32.5436 67.2111 31.9027C67.8381 31.2618 68.1475 30.199 68.1475 28.7306C68.1475 25.9966 67.0075 24.6255 64.6869 24.6255C63.6203 24.6255 62.7734 24.9744 62.179 25.6883C61.5928 26.386 61.2752 27.3433 61.2915 28.5116C61.2915 29.834 61.6009 30.8805 62.2279 31.6674C62.8711 32.495 63.7587 32.8763 64.8579 32.8763ZM59.7037 39.0744C59.9968 38.4335 60.4935 38.2145 61.1775 38.4335C62.0976 38.7824 63.0747 38.9609 64.0518 38.9609C65.2325 38.9609 66.2014 38.685 66.9424 38.1334C67.6752 37.5817 68.066 36.7055 68.066 35.5291V34.4745L68.123 33.7606H68.066C67.2599 35.1722 65.949 35.8699 64.1658 35.8699C62.1628 35.8699 60.5994 35.1884 59.435 33.8173C58.2951 32.4463 57.7251 30.7345 57.7251 28.6819C57.7251 26.6456 58.2788 24.9582 59.4025 23.6358C60.5261 22.3134 62.0895 21.6562 64.1332 21.6562C64.7032 21.6562 65.2732 21.7293 65.8269 21.8753C66.2666 21.9889 66.6737 22.1674 67.0564 22.4107C67.3332 22.5973 67.5694 22.8164 67.8136 23.0517C67.9765 23.2139 68.123 23.4005 68.237 23.5871L68.351 23.8061H68.408C68.4063 23.7921 68.4044 23.7783 68.4025 23.7647L68.3987 23.7376C68.3845 23.6373 68.3717 23.5473 68.3917 23.4411V22.9056C68.3917 22.646 68.4813 22.3945 68.6849 22.2241C68.921 22.0376 69.2386 21.9483 69.5317 21.9645H70.4681C71.2253 21.9645 71.608 22.354 71.608 23.1409V35.2776C71.608 37.5168 70.8752 39.188 69.4177 40.2995C67.9683 41.419 66.234 41.9707 64.2472 41.9707C62.6432 41.9707 61.2671 41.7111 60.1027 41.2162C59.4025 40.9242 59.1989 40.4293 59.492 39.7154L59.7037 39.0744ZM74.637 23.1457V31.0881C74.637 34.6821 76.2899 36.475 79.612 36.4832C80.695 36.4832 81.7454 36.1668 82.6492 35.5826C83.4634 35.0634 84.123 34.3495 84.5464 33.4895H84.6034L84.5464 34.1304V34.958C84.5464 35.753 84.9291 36.1343 85.6863 36.1343H86.7693C87.5672 36.1343 87.9499 35.7287 87.9499 34.958V23.1295C87.9499 22.3344 87.5428 21.9531 86.7693 21.9531H85.556C84.7662 21.9531 84.3754 22.3588 84.3754 23.1295V28.4677C84.3754 29.8063 84.0252 30.9421 83.3087 31.8589C82.5922 32.7918 81.6314 33.2543 80.4018 33.2543C79.5957 33.2543 79.0258 33.019 78.6919 32.5241C78.3581 32.0455 78.1952 31.3072 78.1952 30.3742V23.1457C78.1952 22.3588 77.7881 21.9693 77.0146 21.9693H75.8176C75.0278 21.9693 74.637 22.375 74.637 23.1457ZM91.1094 34.9775V23.149C91.1094 22.3783 91.5002 21.9726 92.2493 21.9726H93.3322C94.0895 21.9726 94.4722 22.3621 94.4722 23.149V24.009L94.4152 24.6499H94.4722C94.8956 23.8061 95.5388 23.0922 96.3286 22.5568C97.1347 21.9727 98.1118 21.6562 99.1296 21.6562C101.304 21.6562 102.68 22.6298 103.274 24.5687H103.331C103.787 23.725 104.455 23.0111 105.261 22.5162C106.124 21.9483 107.142 21.6562 108.168 21.6562C111.278 21.6562 112.825 23.4492 112.825 27.0513V34.9937C112.825 35.7644 112.434 36.1701 111.644 36.1701H110.448C109.674 36.1701 109.267 35.7806 109.267 34.9937V27.7084C109.267 26.7917 109.137 26.0777 108.86 25.5991C108.583 25.1204 108.07 24.8851 107.313 24.8851C106.173 24.8851 105.285 25.3638 104.642 26.3536C103.982 27.3839 103.649 28.5927 103.681 29.8177V35.0099C103.681 35.7806 103.29 36.1863 102.541 36.1863H101.312C100.538 36.1863 100.131 35.805 100.131 35.0099V27.7327C100.131 26.8322 100.001 26.1183 99.7647 25.6396C99.5286 25.161 99.0075 24.9095 98.2584 24.9095C97.151 24.8689 96.1251 25.4368 95.5307 26.3779C94.8712 27.4082 94.5373 28.6008 94.5536 29.8258V35.018C94.5536 35.7888 94.1628 36.1944 93.4137 36.1944H92.1842C91.4921 36.1295 91.1094 35.7482 91.1094 34.9775Z" fill="#BE96FF"></path> </svg> 