<?xml version="1.0" encoding="UTF-8"?> <svg xmlns="http://www.w3.org/2000/svg" width="81" height="20" viewBox="0 0 81 20" fill="none"> <path fill-rule="evenodd" clip-rule="evenodd" d="M74.7181 16.8518C75.1669 16.8518 75.5682 16.7428 75.915 16.5111C76.2755 16.2658 76.5543 15.8501 76.7447 15.2641C76.9488 14.678 77.0508 13.8603 77.0508 12.8177C77.0508 11.6184 76.942 10.7394 76.7175 10.167C76.5067 9.59455 76.2211 9.21976 75.8606 9.0494C75.4934 8.8586 75.1193 8.7632 74.7181 8.7632C74.2012 8.7632 73.7116 8.85179 73.2627 9.02215C72.8138 9.17888 72.4262 9.34923 72.0998 9.54003V16.1704C72.4058 16.3407 72.7798 16.4974 73.2151 16.6405C73.6435 16.7836 74.1468 16.8518 74.7181 16.8518ZM76.1463 20C75.2282 20 74.4529 19.8501 73.8068 19.5571C73.1879 19.2641 72.6166 18.9165 72.0998 18.5145L71.4741 19.8433H68.2573V0H72.0998V6.84157C72.6506 6.54855 73.2763 6.27598 73.9632 6.03748C74.6773 5.79216 75.3438 5.67632 75.9626 5.67632C77.7445 5.67632 79.0094 6.24872 79.7507 7.39353C80.5124 8.51789 80.8933 10.3918 80.8933 13.0085C80.8933 15.3663 80.5056 17.1244 79.7235 18.2896C78.9686 19.4276 77.7717 20 76.1463 20ZM58.8925 17.3152C59.1849 17.3152 59.5249 17.2743 59.9058 17.1857C60.3002 17.0835 60.6607 16.9813 60.9735 16.8722C61.3 16.7496 61.4904 16.6746 61.5448 16.6405V13.3901L59.2121 13.5468C57.8995 13.6491 57.2398 14.2215 57.2398 15.2641V15.8365C57.2398 16.3884 57.3963 16.7836 57.7091 17.0085C58.022 17.2129 58.4232 17.3152 58.8925 17.3152ZM56.9406 20C55.8865 20 55.0296 19.6865 54.3699 19.0664C53.7102 18.4395 53.3838 17.5741 53.3838 16.4634V15.2164C53.3838 14.1601 53.7578 13.2947 54.4991 12.6133C55.2404 11.9182 56.4033 11.5707 57.9743 11.5707H61.5312V10.6099C61.5312 10.1738 61.4564 9.81942 61.3 9.54685C61.164 9.25383 60.8783 9.04259 60.4431 8.91993C60.0078 8.78365 59.3617 8.7155 58.498 8.7155H54.3223V6.47359C55.016 6.26235 55.8049 6.08518 56.6822 5.92845C57.5663 5.77172 58.634 5.69676 59.899 5.69676C61.0551 5.69676 62.0413 5.83305 62.8574 6.11244C63.6667 6.39182 64.2924 6.86882 64.7276 7.54344C65.1561 8.21806 65.3737 9.15162 65.3737 10.3509V19.8433H62.3337L61.7148 18.3578C61.5584 18.5281 61.2456 18.7462 60.7831 19.0051C60.3138 19.2504 59.7426 19.4753 59.0693 19.6797C58.4164 19.891 57.7023 20 56.9406 20ZM44.8215 19.8433C43.3185 19.8433 42.1827 19.4957 41.421 18.8007C40.6593 18.1056 40.2785 16.9336 40.2785 15.2913V0.599659H44.121V14.6644C44.121 15.3049 44.2774 15.7479 44.5902 15.9932C44.9167 16.2385 45.3315 16.3543 45.8348 16.3543H51.908V19.8365H44.8215V19.8433ZM24.0924 20C23.1063 20 22.0522 19.9455 20.93 19.8433C19.8215 19.7206 18.8693 19.5571 18.0736 19.3458V16.3066C18.8353 16.3748 19.7535 16.4361 20.828 16.4906C21.9161 16.5247 22.9499 16.5451 23.9156 16.5451C24.9017 16.5451 25.677 16.4157 26.2483 16.1567C26.8196 15.8773 27.1052 15.3595 27.1052 14.5963V13.8944C27.1052 13.322 26.9352 12.8859 26.5883 12.5928C26.2415 12.2794 25.7654 12.1227 25.1602 12.1227H23.5279C21.6917 12.1227 20.2839 11.7206 19.2978 10.9233C18.3253 10.1056 17.8424 8.72913 17.8424 6.78705V5.85349C17.8424 3.97956 18.3729 2.60988 19.427 1.74446C20.4948 0.872232 22.0318 0.44293 24.038 0.44293C25.0921 0.44293 26.1395 0.511073 27.18 0.654174C28.2341 0.79046 29.1251 0.940375 29.8528 1.0971V4.13629C29.057 4.08177 28.1661 4.03407 27.18 3.97956C26.2075 3.92504 25.3098 3.9046 24.4801 3.9046C23.5823 3.9046 22.8547 4.04089 22.297 4.32027C21.7597 4.59966 21.4945 5.17206 21.4945 6.03748V6.55537C21.4945 7.22998 21.6849 7.7138 22.0658 8.01363C22.4466 8.30664 23.0111 8.45656 23.7524 8.45656H25.6498C27.3636 8.45656 28.6422 8.92675 29.4923 9.86031C30.3424 10.7939 30.7641 11.9727 30.7641 13.3969V14.4872C30.7641 15.9932 30.4784 17.1516 29.9072 17.9489C29.3563 18.7462 28.5742 19.2913 27.5745 19.5843C26.5815 19.8569 25.4254 20 24.0924 20ZM0.160156 19.8433V0.599659H3.24775L11.2932 13.2879V0.599659H15.1357V19.8433H12.0481L4.02985 7.14821V19.8365H0.160156V19.8433Z" fill="#3361B4"></path> </svg> 