<?xml version="1.0" encoding="UTF-8"?> <svg xmlns="http://www.w3.org/2000/svg" width="80" height="30" viewBox="0 0 80 30" fill="none"> <path d="M78.2987 27.2695H1.38672V29.9989H78.2987V27.2695Z" fill="#3361B4"></path> <path fill-rule="evenodd" clip-rule="evenodd" d="M11.2537 20.7887C16.832 20.7887 21.0996 16.8342 21.6239 11.1663L21.6659 10.7878H7.92974V13.2781H18.4678C17.5031 16.2564 14.6195 18.3084 11.3271 18.3483C6.32544 18.3483 3.2217 14.1945 3.2217 10.3495C3.2217 7.18192 5.36077 2.46038 11.2432 2.46038C11.3061 2.46038 11.3795 2.46038 11.4424 2.46038C14.0009 2.46038 16.3497 3.81509 17.5136 5.97664L17.6184 6.1659H20.6697L20.4495 5.6778C18.992 2.24124 15.4899 0 11.5892 0C11.4739 0 11.348 0 11.2327 0.00996106C5.16154 0 0.568848 4.41275 0.568848 10.2997C0.568848 15.3898 4.32269 20.7887 11.2537 20.7887Z" fill="#3361B4"></path> <path fill-rule="evenodd" clip-rule="evenodd" d="M26.5205 2.77757H30.3058C34.1645 2.77757 34.5735 5.37741 34.5735 6.50301C34.5735 7.36962 34.2694 10.1886 30.3058 10.1886H26.5205V2.77757V2.77757ZM26.5205 12.649H30.2744C35.3914 12.649 37.2263 9.4714 37.2263 6.49304C37.2263 4.63033 36.5762 0.277344 30.2744 0.277344H23.8677V20.4485H26.4891L26.5205 12.649Z" fill="#3361B4"></path> <path fill-rule="evenodd" clip-rule="evenodd" d="M41.7145 4.71315L48.1002 20.4417H50.1344L56.5202 4.71315V20.4417H59.0891V0.320312H55.6394L49.1173 16.258L42.5953 0.320312H39.1455V20.4417H41.7145V4.71315Z" fill="#3361B4"></path> <path fill-rule="evenodd" clip-rule="evenodd" d="M64.8352 2.77894H67.7817C74.1779 2.77894 76.4638 6.69364 76.4638 10.3593C76.4638 13.8756 74.2198 18.0194 67.897 18.0194H64.8142L64.8352 2.77894ZM79.1061 10.3593C79.1061 7.99854 78.2883 0.308594 67.7817 0.308594H62.1719V20.4499H67.8865C76.1806 20.4499 79.1061 15.0111 79.1061 10.3593Z" fill="#3361B4"></path> </svg> 