<?xml version="1.0" encoding="UTF-8"?> <svg xmlns="http://www.w3.org/2000/svg" width="207" height="23" viewBox="0 0 207 23" fill="none"> <path fill-rule="evenodd" clip-rule="evenodd" d="M31.1301 14.2706C30.6661 16.847 29.2628 18.8016 27.2597 18.8016C25.7772 18.8016 25.1548 17.68 25.5169 15.5477L27.4521 4.99748H20.5488C20.2885 4.99748 20.0848 5.19737 20.0848 5.4528C20.0848 5.59717 20.1527 5.73044 20.2659 5.80818L21.1826 6.82988C21.3636 7.04089 21.4768 7.30742 21.4768 7.58506C21.4768 7.65169 21.4655 7.71832 21.4542 7.78496L20.0396 15.6699C19.3153 19.6901 21.092 21.6224 24.1702 21.6224C27.4182 21.6224 29.4213 19.6234 30.734 16.5028L30.6661 16.8915C29.9418 20.7895 32.4995 21.6224 34.0725 21.6224C34.5365 21.6224 35.0571 21.478 35.4532 21.3337L38.2484 4.99748H32.7711L31.1301 14.2706ZM54.0128 5.91923C52.4964 5.21959 50.199 4.58657 48.0828 4.58657C44.733 4.58657 40.5118 6.19687 40.5118 10.317C40.5118 12.7602 42.0169 13.8597 44.0879 14.9147L46.125 15.7809C47.2793 16.3251 47.9583 17.1025 47.9583 18.3241C47.9583 19.8344 47.1095 20.9339 45.2649 20.9339C44.9027 20.9339 44.4727 20.8561 44.1219 20.6784C43.9634 20.6007 43.8276 20.4674 43.7371 20.312L40.5684 15.1479C40.4892 15.0257 40.3534 14.948 40.2062 14.948C40.0025 14.948 39.8328 15.0924 39.7875 15.2923L38.984 19.5013C38.9727 19.5346 38.9727 19.579 38.9727 19.6123C38.9727 19.8566 39.1198 20.0676 39.3348 20.1676C40.9758 20.9117 42.7073 21.6446 45.3554 21.6446C48.5355 21.6446 53.232 20.523 53.232 16.0141C53.232 13.6376 51.9192 12.5381 49.7916 11.5053L47.5622 10.5391C46.2495 9.92832 45.5931 9.11762 45.5931 8.02928C45.5931 6.92983 46.2495 5.19737 48.2865 5.19737C48.6599 5.19737 48.9768 5.28622 49.2258 5.38617C49.4182 5.46391 49.5879 5.60828 49.6898 5.78597L52.8132 10.8168C52.8925 10.95 53.0396 11.0278 53.198 11.0278C53.413 11.0278 53.5941 10.8723 53.6394 10.6613L54.375 6.58556C54.3863 6.55225 54.3863 6.50782 54.3863 6.47451C54.3637 6.24129 54.2279 6.01918 54.0128 5.91923ZM62.9984 18.8682C61.7536 18.8682 61.1311 17.8688 61.3914 16.3584L63.3266 5.6416H67.2762H67.2875C67.4686 5.6416 67.6157 5.49722 67.6157 5.31954C67.6157 5.14185 67.4686 4.99748 67.2875 4.99748H67.2762H63.4624L64.1641 1.02171C64.1641 1.0106 64.1669 0.996719 64.1697 0.982837C64.1726 0.968955 64.1754 0.955073 64.1754 0.943968C64.1754 0.699647 63.9717 0.510853 63.734 0.510853C63.6322 0.510853 63.5303 0.54417 63.4511 0.610803L56.5139 4.91974C56.412 4.97527 56.3441 5.08632 56.3215 5.19737C56.3215 5.20847 56.3186 5.21956 56.3158 5.23065L56.3158 5.23069L56.3158 5.23074C56.313 5.24183 56.3102 5.25292 56.3102 5.26401C56.3102 5.47501 56.4686 5.6416 56.6836 5.6527L56.7628 5.66381C57.2834 5.78597 57.6569 6.24129 57.6569 6.77436C57.6569 6.80767 57.654 6.84099 57.6512 6.87431C57.6484 6.90762 57.6455 6.94094 57.6455 6.97426L56.0159 16.1363C55.3595 19.7345 57.3626 21.6335 60.2484 21.6335C62.5684 21.6335 64.4017 20.3009 65.4995 18.3463C65.556 18.3019 65.59 18.2352 65.59 18.1686C65.59 18.0353 65.4881 17.9354 65.3523 17.9354C65.2618 17.9354 65.1826 17.9798 65.1486 18.0575C64.4017 18.6128 63.7114 18.8682 62.9984 18.8682ZM79.555 0H69.3246C69.053 0 68.8266 0.22211 68.8266 0.488642C68.8266 0.599697 68.8719 0.721858 68.9511 0.799596L69.8904 1.86572C70.1167 2.12115 70.2186 2.47653 70.162 2.80969L66.8914 21.1782H74.3493C74.5982 21.1782 74.8019 20.9783 74.8019 20.734C74.8019 20.5896 74.734 20.4563 74.6209 20.3786L73.3194 19.2903C73.0591 19.0793 72.912 18.7572 72.912 18.4351C72.912 18.3685 72.9233 18.3019 72.9346 18.2352L76.0694 0.633014H77.7104C79.9737 0.633014 81.5807 2.96517 81.5807 6.11913C81.5807 10.0505 80.1209 13.7597 76.4429 13.7819C76.1034 13.7819 75.6507 13.7819 75.198 13.7153C75.0169 13.6931 74.8359 13.7042 74.8019 13.8819C74.7793 14.004 74.8472 14.1151 74.9491 14.1706C75.447 14.4705 76.3637 14.5815 76.8163 14.6148C84.0252 15.1701 87.0581 11.0056 87.0581 6.69662C87.0694 2.95406 83.6857 0 79.555 0ZM100.672 4.70873C97.4923 4.70873 95.4892 6.82988 94.4707 9.79505H94.4367L95.2968 4.99748H88.4614C88.1785 4.99748 87.9521 5.21959 87.9521 5.49722C87.9521 5.61938 87.9974 5.74154 88.0766 5.83039L89.0499 6.90762C89.2875 7.16305 89.3894 7.51843 89.3215 7.8627L86.9223 21.1893H92.3657L93.8143 13.1156C94.3688 10.6724 95.591 8.37355 96.8133 7.52953C97.2433 7.24079 97.8318 7.34074 98.1373 7.75164L100.344 10.7279C100.604 11.0833 101.182 10.9833 101.306 10.5613L102.936 5.00858C102.37 4.842 101.555 4.70873 100.672 4.70873ZM117.568 16.1918C117.455 16.1141 117.297 16.1474 117.218 16.2585C115.803 18.002 114.377 18.7794 112.612 18.7794C109.726 18.7794 108.085 16.9803 107.791 13.9485C112.351 13.9485 118.779 12.9823 118.779 8.83998C118.779 6.00808 116.086 4.59768 112.612 4.59768C106.806 4.59768 101.759 8.61787 101.759 14.1484C101.759 18.6239 105.041 21.6446 109.624 21.6446C113.2 21.6446 115.882 19.8344 117.67 16.5472C117.738 16.4139 117.682 16.2696 117.568 16.1918ZM107.723 12.7824C107.723 9.0843 109.522 5.09743 112.442 5.09743C113.653 5.09743 114.411 5.77486 114.411 7.11863C114.411 10.6946 110.767 13.1378 107.757 13.5487C107.723 13.3044 107.723 13.0491 107.723 12.7826V12.7824ZM142.839 4.58657C139.693 4.58657 138.052 6.48561 136.739 9.73952C137.135 6.23019 135.46 4.58657 132.676 4.58657C129.327 4.58657 127.788 6.67441 126.509 9.99495L127.391 5.00858H120.556C120.273 5.00858 120.047 5.23069 120.047 5.50833C120.047 5.63049 120.092 5.75265 120.171 5.84149L121.145 6.91873C121.382 7.17415 121.484 7.52953 121.416 7.8738L119.017 21.1893H124.46L125.649 14.6037C125.649 14.6037 126.215 11.7496 126.316 11.3498C126.973 8.85108 128.093 7.39626 129.711 7.39626C130.99 7.39626 131.511 8.4846 131.183 10.4836L129.281 21.2004H134.759L136.4 11.7052C137.056 9.00656 138.199 7.39626 139.874 7.39626C141.153 7.39626 141.741 8.4846 141.356 10.4836L140.213 16.9137C139.489 20.8117 142.047 21.6446 143.62 21.6446C144.073 21.6446 144.593 21.5114 145.023 21.3559L146.823 10.3503C147.366 6.38566 145.827 4.58657 142.839 4.58657ZM149.505 5.39727C149.471 5.55275 149.516 5.70823 149.629 5.83039L150.614 6.87431C150.863 7.14084 150.964 7.49621 150.908 7.85159L149.391 16.9137C148.667 20.8117 151.112 21.6446 152.685 21.6446C153.205 21.6446 153.624 21.5225 154.099 21.3559L156.872 4.99748H150.003C149.754 4.99748 149.55 5.16406 149.505 5.39727ZM1.84193 13.1829C1.11765 14.1269 0.744191 15.1708 0.85736 16.6367C1.03843 18.8912 2.67938 20.1794 3.58473 20.7458C3.6979 20.8124 3.82238 20.6791 3.74316 20.5792C3.46024 20.2349 3.24522 19.8351 3.10942 19.402C2.88308 18.7135 3.21127 17.7362 3.98082 17.3586C4.2821 17.2108 4.60612 17.115 4.92875 17.0197C5.16359 16.9503 5.3977 16.8811 5.62176 16.7922C7.20613 16.1703 7.70407 14.6044 6.77609 13.1829C5.70098 11.5615 2.98493 11.6726 1.84193 13.1829ZM18.7154 0.367188H11.8687C11.6423 0.367188 11.4273 0.53377 11.3821 0.75588C11.3481 0.922463 11.4047 1.11126 11.5405 1.22231L12.3214 2.11075C12.7174 2.47723 12.774 2.92145 12.7061 3.32125L10.2277 16.7367C10.2064 16.8267 10.185 16.918 10.1634 17.0105C9.99028 17.7512 9.80026 18.564 9.45819 19.3243C9.45819 19.3243 9.4695 19.3243 9.4695 19.3132C9.09605 20.1572 8.54152 20.9124 7.64748 21.4343C7.44378 21.5565 7.20613 21.6342 6.94584 21.712C6.82135 21.7453 6.84399 21.9119 6.96847 21.9341C7.34193 21.9896 7.90777 22.0118 8.16806 22.0118C13.1135 22.0118 15.3203 19.2354 16.1917 14.6155L18.7154 0.367188ZM166.582 19.0933C168.585 19.0933 169.988 17.1277 170.452 14.5512L172.071 5.27809H177.548L174.764 21.6254C174.368 21.7698 173.836 21.9141 173.383 21.9141C171.81 21.9141 169.253 21.0812 169.977 17.1832L170.045 16.7945C168.744 19.9151 166.74 21.9141 163.493 21.9141C160.414 21.9141 158.638 19.9818 159.362 15.9616L160.776 8.06557C160.833 7.73241 160.742 7.37703 160.505 7.1216L159.588 6.0999C159.486 5.99995 159.407 5.88889 159.407 5.74452C159.407 5.4891 159.611 5.2892 159.871 5.2892H166.774L164.839 15.8394C164.477 17.9717 165.099 19.0933 166.582 19.0933ZM196.221 10.0201C197.534 6.76623 199.175 4.86719 202.321 4.86719C205.308 4.86719 206.847 6.66628 206.316 10.6309L204.505 21.6365C204.064 21.792 203.543 21.9252 203.09 21.9252C201.517 21.9252 198.96 21.0923 199.684 17.1943L200.827 10.7642C201.223 8.77632 200.635 7.67688 199.356 7.67688C197.681 7.67688 196.538 9.28718 195.881 11.9858L194.24 21.481H188.763L190.664 10.7642C190.993 8.77632 190.472 7.67688 189.193 7.67688C187.315 7.67688 186.104 9.63145 185.515 12.9187H185.481L183.942 21.481H178.499L180.898 8.15442C180.966 7.81014 180.864 7.46587 180.626 7.19934L179.653 6.12211C179.574 6.03326 179.529 5.9111 179.529 5.78894C179.529 5.51131 179.755 5.2892 180.038 5.2892H186.873L185.99 10.2756C187.269 6.95502 188.808 4.86719 192.158 4.86719C194.942 4.86719 196.617 6.5108 196.221 10.0201Z" fill="#F2807E"></path> </svg> 