<svg xmlns="http://www.w3.org/2000/svg" width="136" height="40" viewBox="0 0 136 40">
  <path fill="#315EFB" fill-rule="evenodd" d="M135.927 5.996L125.25 33.928h-4.351l10.676-27.932h4.353zM106.57 19.683c0-2.168 1.57-4.439 4.32-4.439s4.257 1.975 4.257 4.439-1.472 4.439-4.256 4.439c-2.784 0-4.321-2.271-4.321-4.439zm.06-5.686V12.43h-4.064v21.486h4.213v-8.35c.477.488 2.155 1.772 4.64 1.772 3.896 0 7.48-2.799 7.48-7.656 0-5.08-3.945-7.597-7.48-7.597-2.69 0-4.311 1.408-4.788 1.91zm-17.54 4.087c.118-.978 1.156-2.946 3.716-2.946 2.85 0 3.312 2.143 3.38 2.946h-7.096zm-4.196 1.658c0 4.336 3.239 7.597 8.06 7.597 4.822 0 6.877-3.29 6.877-3.29l-3.07-1.986s-1.049 2.058-3.777 2.058c-2.81 0-3.94-2.305-3.94-3.184h11.133s.06-.637.06-.822v-.49c0-4.296-2.72-7.54-7.431-7.54-4.712 0-7.912 3.32-7.912 7.657zm-5.81-7.311l5.566 14.563h-4.52l-3.234-9.288h-.056l-3.223 9.288h-4.504l5.566-14.563h4.405zM57.027 19.9c0-2.082 1.2-3.9 3.967-3.9 2.767 0 3.758 2.362 3.758 4.047 0 1.685-1.017 4.073-3.79 4.073-2.772 0-3.935-2.138-3.935-4.22zm.42-6.228c.111-.493.55-4.393 6.031-4.393h3.387l1.255-3.284h-4.583c-6.043 0-10.635 2.672-10.635 12.072 0 5.16 2.296 9.27 7.941 9.27 5.369 0 8.002-3.764 8.002-7.425 0-5.302-4.077-7.482-7.508-7.482-2.032 0-3.484.95-3.89 1.242zM46.667 12.43h3.6v14.563h-4.213v-8.532L41.97 23.59H40.83l-.095-.116-4.02-4.941v8.46h-4.216V12.432H36.1l.092.108 5.234 6.038 5.242-6.146zm-21.566 8.491c0 1.992-1.157 3.365-3.4 3.365-2.168 0-2.352-1.224-2.352-1.69 0-1.078 1.018-1.796 3.441-2.008.668-.058 1.35-.087 2.024-.087h.287v.42zm3.945-1.584c0-.294-.004-.576-.017-.848-.206-4.535-2.205-6.404-6.519-6.404-2.92 0-4.82 1.144-5.488 1.61l1.137 2.975s1.776-1.45 4.02-1.45c3.175 0 2.861 2.518 2.861 2.518-1.086.01-9.725-.422-9.725 4.972 0 2.993 2.572 4.628 5.459 4.628 2.568 0 3.95-1.24 4.405-1.721.003.065.09 1.376.09 1.376h3.926s-.149-1.264-.149-3.243v-4.413zM4.364 16.104v-6.59h2.152c1.529 0 3.996.899 3.996 3.309 0 2.43-2.467 3.28-4.057 3.28H4.364zM6.816 5.996c4.363 0 8.092 2.312 8.092 6.813 0 4.501-3.73 6.781-8.182 6.781H4.364v7.404H0V5.996z"/>
</svg>
