<svg width="170" height="38" viewBox="0 0 170 38" fill="none" xmlns="http://www.w3.org/2000/svg">
<path fill-rule="evenodd" clip-rule="evenodd" d="M0 0H37.5882V37.5882H0V0Z" fill="#FFB800"/>
<path fill-rule="evenodd" clip-rule="evenodd" d="M14.096 28.1912C12.8499 28.1912 11.6548 27.6962 10.7736 26.815C9.89248 25.9339 9.39746 24.7388 9.39746 23.4927V14.0956C9.39746 12.8495 9.89248 11.6544 10.7736 10.7733C11.6548 9.89212 12.8499 9.39709 14.096 9.39709H22.5533V14.0956H23.493V9.39709C24.7392 9.39709 25.9343 9.89212 26.8154 10.7733C27.6966 11.6544 28.1916 12.8495 28.1916 14.0956V23.4927C28.1916 24.7388 27.6966 25.9339 26.8154 26.815C25.9343 27.6962 24.7392 28.1912 23.493 28.1912H15.0357V22.553H14.096V28.1912ZM15.0357 14.0956H23.493V15.0353H15.0357V14.0956ZM14.096 14.0956H15.0357V18.3243H14.096V14.0956ZM14.096 18.3243H23.493V19.264H14.096V18.3243ZM22.5533 19.264H23.493V23.4927H22.5533V19.264ZM15.0357 22.553H22.5533V23.4927H15.0357V22.553Z" fill="white"/>
<path fill-rule="evenodd" clip-rule="evenodd" d="M54.2023 15.195V28.1911H50.763V15.195H48.9023V12.2255H50.7536V11.2013C50.7536 8.94597 51.0731 7.37666 51.7403 6.50273C52.4168 5.6664 53.5727 5.23413 55.2642 5.23413L58.7035 5.55363L58.6753 8.39154C57.6228 8.36335 56.7583 8.33516 56.0629 8.33516C55.3581 8.33516 54.8789 8.55129 54.6252 8.96476C54.3432 9.38763 54.2023 10.1488 54.2023 11.267V12.2537H58.4216V15.2232H54.2023V15.195ZM72.2446 25.3156L73.1374 25.2217L73.2031 27.8059C70.7787 28.2757 68.6362 28.5388 66.7568 28.5388C64.3887 28.5388 62.6972 27.8998 61.6448 26.5936C60.6205 25.2781 60.113 23.2107 60.113 20.3634C60.113 14.7158 62.4153 11.8779 67.0387 11.8779C71.5117 11.8779 73.7482 14.3023 73.7482 19.1888L73.5226 21.679H63.6275C63.6557 22.9852 63.947 23.9719 64.4827 24.5827C65.0277 25.1841 66.0802 25.5036 67.5837 25.5036C69.1154 25.5036 70.6471 25.4378 72.2446 25.3156ZM70.3276 18.9914C70.3276 17.4315 70.0739 16.3133 69.5665 15.6743C69.0496 15.0353 68.2227 14.744 67.0105 14.744C65.8264 14.744 64.9619 15.0635 64.4263 15.74C63.8813 16.4072 63.5899 17.4879 63.5899 18.9914H70.3276ZM77.0935 28.1911V12.2255H80.5422V14.1425C82.1876 13.0405 84.0328 12.2711 85.9737 11.8779V15.3548C84.1507 15.7025 82.5908 16.1817 81.2752 16.7643L80.5798 17.0462V28.1911H77.1029H77.0935ZM88.6237 28.1911V12.2255H92.063V14.1425C93.7084 13.0405 95.5536 12.2711 97.4945 11.8779V15.3548C95.6715 15.7025 94.1116 16.1817 92.796 16.7643L92.1006 17.0462V28.1911H88.6237ZM111.957 17.1402V24.4229C111.985 24.8928 112.088 25.2217 112.304 25.4378C112.53 25.6633 112.878 25.7949 113.329 25.8607L113.235 28.5106C111.412 28.5106 109.974 28.1254 108.987 27.3266C107.296 28.1254 105.567 28.5106 103.847 28.5106C100.69 28.5106 99.092 26.8192 99.092 23.4362C99.092 21.8011 99.5055 20.6547 100.37 19.9217C101.225 19.1888 102.531 18.7659 104.354 18.6061L108.48 18.2585V17.112C108.48 16.2475 108.292 15.6743 107.897 15.3266C107.521 14.9695 106.976 14.8097 106.271 14.8097C104.899 14.8097 103.208 14.9037 101.169 15.0635L100.145 15.1292L100.013 12.6766C102.343 12.1316 104.486 11.8403 106.431 11.8403C108.376 11.8403 109.786 12.2537 110.65 13.0901C111.543 13.9828 111.957 15.3172 111.957 17.1402ZM104.805 21.0964C103.34 21.2279 102.607 22.0267 102.607 23.4926C102.607 24.9586 103.236 25.7009 104.552 25.7009C105.604 25.7009 106.751 25.5412 107.935 25.1841L108.508 24.9961V20.7393L104.805 21.087V21.0964ZM116.166 28.1911V23.5866H119.907V28.1911H116.166ZM123.957 28.1911V12.2255H127.405V14.1425C129.051 13.0405 130.896 12.2711 132.837 11.8779V15.3548C131.014 15.7025 129.454 16.1817 128.138 16.7643L127.443 17.0462V28.1911H123.966H123.957ZM145.156 12.2255H148.605V28.1911H145.156V27.1951C143.86 28.0101 142.373 28.4732 140.843 28.5388C138.644 28.5388 137.178 27.9656 136.445 26.7816C135.703 25.5976 135.318 23.5302 135.318 20.5607V12.2255H138.795V20.5889C138.795 22.5059 138.964 23.7839 139.283 24.4511C139.603 25.1183 140.336 25.4378 141.52 25.4378C142.666 25.4378 143.719 25.2217 144.677 24.7988L145.147 24.6109V12.2255H145.156Z" fill="black"/>
</svg>
