<svg width="157" height="59" viewBox="0 0 157 59" fill="none" xmlns="http://www.w3.org/2000/svg">
<path fill-rule="evenodd" clip-rule="evenodd" d="M119.056 43.0523C119.05 43.0369 119.044 43.0214 119.039 43.0051C119.072 42.995 119.103 42.9842 119.135 42.9726L119.154 43.0237L119.056 43.0523ZM100.785 43.1243C97.6151 44.8252 97.5592 39.6065 97.7269 38.9601L93.86 39.6809H93.9272C92.2651 44.7834 88.9263 49.1512 84.6714 52.2316C84.0097 52.6713 83.343 53.0173 82.6797 53.296L98.0606 28.6243C99.8143 29.9349 101.713 30.7687 103.659 31.2588C105.611 35.7443 103.245 41.8052 100.785 43.1243ZM67.0249 43.8582C61.1962 44.9661 64.782 34.8052 72.1894 29.9226C72.2656 29.8722 72.3563 29.8359 72.5256 29.7507C73.0148 29.5254 73.4595 29.3791 73.8621 29.2978C74.361 30.1471 75.3565 30.9723 76.6493 31.6474C77.3118 34.4328 73.112 42.7032 67.0249 43.8582ZM151.502 39.4811C150.982 40.9838 149.126 44.2995 147.622 43.7065C145.876 43.0152 151.749 33.1431 153.785 28.9146L147.466 28.1521C145.034 30.0278 138.867 34.8137 135.93 37.1029L140.648 27.8215L133.998 27.0187L125.366 33.9691L123.114 35.6831L127.646 26.2515L120.57 25.3968C120.535 25.4162 120.503 25.434 120.469 25.4518C120.452 25.4711 120.434 25.4905 120.416 25.5091C111.627 31.8758 105.263 23.079 105.263 23.079L98.6066 25.4456L93.4226 24.4756C90.8201 27.2819 87.5275 28.7962 81.51 28.6359C80.6522 23.7602 73.7641 26.7841 73.5437 27.7774C73.5429 27.7774 69.5626 26.3034 67.745 25.5811C59.8832 38.083 34.7605 53.3046 56.4569 28.2899L51.0762 27.0853C47.1048 29.0865 37.1929 35.9951 37.1929 35.9951C38.9044 32.9 40.9504 30.0116 42.9333 26.9916L36.8195 26.243C36.8162 26.2445 36.8138 26.2461 36.8097 26.2468C31.3844 34.0233 24.8308 39.0073 19.7942 41.8121C11.0228 46.6971 5.38606 45.34 6.08103 41.0411C7.80551 30.3755 29.8438 23.0016 18.8846 34.7231C19.0312 34.9159 18.4504 34.6581 22.9248 36.4C24.5408 35.4648 27.2939 30.9878 27.0007 28.91C25.9121 21.1954 3.27684 25.3217 0.147834 41.0697C-1.39601 48.8392 9.26107 55.1943 27.008 41.799C24.6841 45.4646 22.8641 48.4281 22.8641 48.4281H30.5064C34.3547 44.4195 37.721 41.2137 41.8358 38.7108C40.0432 40.3861 36.4169 56.9803 58.2478 42.1775C58.29 42.2704 58.3159 42.2875 58.324 42.3277C60.9492 55.665 80.2278 45.405 81.4922 33.4984C81.5019 33.4078 81.5343 33.3103 81.587 33.2189C84.3588 33.4876 87.9049 32.5586 89.7784 31.1008L72.2283 58.9993H78.1048C78.7075 58.9993 79.3611 58.757 80.0504 58.503C84.9647 56.834 89.1191 53.6243 92.2125 50.0616C92.6912 49.5266 93.1318 49.0064 93.5247 48.4676C94.0568 47.7724 94.5477 47.0795 94.9956 46.382C95.7141 47.167 96.7606 47.7701 98.2534 47.9063C104.605 48.4854 110.075 41.8044 109.471 31.7465C112.777 32.1731 115.797 31.5692 118.049 30.723L108.91 48.4281H115.115C115.161 48.4281 115.205 48.216 115.249 48.1541C119.652 44.5891 123.74 41.1262 128.638 37.6324C128.354 38.7937 124.087 46.7025 123.386 47.9714C123.386 47.9714 123.27 47.8816 123.098 48.4281H130.076C130.734 47.6996 142.274 38.1109 142.274 38.1109C142.274 38.1109 142.315 38.0938 142.336 38.1085C134.725 51.4164 153.301 51.1377 156.937 40.6184C156.617 40.5069 151.618 39.4997 151.502 39.4811ZM97.752 38.909C97.7431 38.9183 97.735 38.9392 97.7269 38.9694L97.752 38.9648V38.909ZM46.8188 13.628C47.2611 14.1777 47.9156 14.8094 48.8438 15.3056C48.2671 16.5621 46.7646 17.968 45.2183 17.968C43.5424 17.968 44.6926 14.5988 46.8188 13.628ZM54.9504 15.9203C55.7563 15.7577 56.6295 15.51 57.5747 15.1609C58.8796 16.2385 57.4986 18.7104 55.6445 18.5679C54.406 18.4719 54.3283 17.4098 54.9504 15.9203ZM63.6059 5.99324C70.111 1.87625 63.5978 10.9417 56.3176 13.4786C58.1879 10.6932 61.2116 7.50905 63.6059 5.99324ZM70.8165 12.6224C70.972 13.2742 68.5372 15.3312 65.5208 16.014C66.9334 13.9841 70.5678 11.5749 70.8165 12.6224ZM33.7245 20.2185C36.1942 21.4099 39.4633 19.4691 42.1679 17.1636C41.7904 19.0696 42.7365 20.4422 44.6545 20.4344C46.916 20.4259 49.7186 18.5014 51.111 16.0589C51.5994 16.1386 52.1316 16.1797 52.7083 16.1719C52.0344 18.825 53.3368 20.1062 55.1107 20.2014C56.9899 20.3021 59.5487 18.9519 60.6916 17.1946C61.312 17.5035 61.9706 17.6707 62.7401 17.7342C62.8105 20.347 66.901 22.2568 73.888 17.0467L72.0987 19.997H74.638L80.6741 15.9598L78.3664 19.7694C78.3081 19.8623 78.3794 19.997 78.4928 19.997H80.7762L86.2015 16.5946C83.9295 21.5616 89.2544 20.5397 92.2441 18.1522C92.381 19.4187 93.3384 20.3493 94.9624 20.3493C97.1964 20.3493 100.168 18.7506 102.197 16.7138L100.206 19.997H103.033L105.34 16.1975C105.409 17.594 105.905 19.9707 108.499 19.9707C109.878 19.9707 111.46 19.0766 112.98 17.8487C113.069 18.6786 113.51 19.9754 115.269 19.9754C117.706 19.9754 119.537 17.3943 119.537 17.3943C118.974 20.7364 122.531 20.347 124.932 18.0918C125.054 18.9155 125.51 19.8786 126.987 19.8786C129.424 19.8786 131.05 17.8046 131.05 17.8046C130.596 21.1227 134.801 20.6241 136.877 16.943L135.341 16.2927C134.02 18.739 130.059 20.2277 136.406 12.1989L134.009 11.8544C131.091 16.11 129.515 17.8635 128.139 17.906C126.568 17.9533 127.743 15.9203 130.86 11.1941L128.756 10.344C125.939 14.6368 123.52 17.7466 122.409 17.7001C121.292 17.6537 121.979 15.9335 124.911 11.705L122.828 11.0237C120.151 14.8644 117.169 17.9045 116.374 17.8681C114.94 17.8031 115.997 16.0411 119.276 10.9734L117.88 10.6939L117.197 10.5956C113.685 15.9985 108.557 19.8128 108.178 15.7237C109.859 15.2158 111.717 13.8727 113.44 11.112L111.302 10.7389C109.844 12.9824 108.019 14.3124 106.259 14.6731L108.65 10.7017H105.812L104.936 12.1703C101.376 17.1388 92.6968 20.9369 95.6323 15.7012C96.5962 13.981 99.1355 12.1099 100.035 12.2121C100.352 12.2477 99.9414 13.3733 99.0277 14.2226L100.755 14.8264C105.896 10.6529 98.9192 7.41925 93.1658 15.2685C93.0767 15.3892 92.9957 15.5108 92.9196 15.6323C89.1612 19.5295 85.9326 19.2151 90.812 13.6241L88.6202 12.7664L83.5974 16.2594C83.4864 16.336 83.343 16.2168 83.4078 16.1015L85.4312 12.459L83.4807 11.8281L78.3527 14.9921C78.2668 15.0486 78.1599 14.9549 78.2125 14.8675L80.2238 11.5556L77.8642 10.6707C72.7994 16.9887 66.1121 19.2864 65.4948 18.0198C65.4082 17.841 65.5313 17.6335 65.7338 17.601C71.2264 16.7123 75.8895 11.4789 71.4596 10.8612C68.1727 10.4029 63.8214 13.3749 62.9336 16.1456C62.2476 16.1386 61.717 16.0829 61.2367 15.8994C61.3728 15.1849 61.2351 14.4479 60.7126 13.7449C65.2251 11.3179 70.793 5.50862 69.0321 3.25581C67.4461 1.22596 62.0386 3.16368 56.6943 9.50019C55.2112 11.2583 54.1857 12.7842 53.5223 14.0894C52.9642 14.132 52.411 14.1204 51.8683 14.0484C52.181 12.2067 51.2349 10.8921 49.359 10.8999C48.5312 10.903 47.6305 11.1631 46.754 11.6106L45.6678 10.9595C33.6524 24.3502 30.6052 16.014 38.2232 8.25379C43.8073 2.56526 49.0236 1.9227 44.9307 7.5346L47.2902 8.60449C47.2902 8.60449 50.3229 4.18945 48.5822 2.21379C42.9187 -4.21872 25.1661 16.0899 33.7245 20.2185ZM139.985 8.51468H134.654L133.32 10.5879L138.789 10.3835L139.985 8.51468Z" fill="black"/>
</svg>
