<svg width="152" height="21" viewBox="0 0 152 21" fill="none" xmlns="http://www.w3.org/2000/svg">
<path d="M26.0186 0.000394593C23.2002 0.00193357 20.4048 0.508118 17.7649 1.49498C17.6848 1.53174 17.6183 1.59259 17.5745 1.66902C17.5307 1.74546 17.5119 1.83366 17.5207 1.9213L17.9644 4.91172C17.978 4.9774 18.014 5.03565 18.0685 5.07531C18.0984 5.08988 18.1313 5.09745 18.1645 5.09745C18.1978 5.09745 18.2307 5.08988 18.2606 5.07531C19.4761 4.72371 20.7087 4.43416 21.9537 4.2078C24.9094 3.69969 26.5502 3.83601 27.3768 4.62668C27.6178 4.88221 27.7908 5.19411 27.88 5.53382C27.9692 5.87353 27.9718 6.23019 27.8874 6.57114L27.8131 7.13873C27.8131 7.13873 24.2303 7.62454 21.9016 8.06573C20.1535 8.29954 18.4688 8.87654 16.9445 9.76356C14.5216 11.3623 13.9231 14.4878 14.389 16.716C14.7955 18.6667 16.4946 20.999 22.2945 20.999H22.7159C31.5818 20.999 32.7418 19.466 33.1334 16.2215L34.3516 6.20431C34.5375 4.42592 34.2487 3.10235 33.3614 2.10844C32.106 0.688203 29.7067 0.000394593 26.0186 0.000394593ZM27.326 11.0177C27.326 11.0177 27.1488 12.7081 27.1488 12.7304L26.6234 16.9986H26.549C25.7252 17.2298 24.8713 17.3359 24.0159 17.3133C23.0587 17.4058 22.1035 17.1182 21.3563 16.5128C21.1164 16.2521 20.9318 15.9455 20.8136 15.6115C20.6954 15.2776 20.646 14.9231 20.6685 14.5695C20.6685 12.8655 21.6724 11.796 23.7271 11.4081C24.9516 11.1754 26.1838 10.9857 27.4215 10.8393L27.326 11.019V11.0177ZM106.358 0.000394593H105.708C101.01 0.000394593 97.8172 1.37601 96.2284 4.06652C94.9507 6.21174 94.3372 13.4852 94.3298 13.5595C94.1914 14.7131 94.3125 15.883 94.6842 16.9837C96.0078 20.5429 100.596 21.0288 103.233 20.999C107.969 20.999 111.168 19.6308 112.727 17.0072C113.208 16.1992 113.909 13.9412 114.56 7.81911V7.60347C114.713 6.5031 114.635 5.38285 114.331 4.31438C113.31 0.898884 109.431 0.0896238 106.357 0.000394593H106.358ZM107.444 13.277V13.3811C107.387 14.3762 107.009 15.326 106.366 16.0877C105.746 16.6663 104.931 16.9894 104.083 16.9924C103.354 17.081 102.615 16.948 101.963 16.6107C101.594 16.3757 101.286 16.0573 101.064 15.6812C100.84 15.3039 100.707 14.8796 100.676 14.4419C100.633 13.8669 101.142 10.3089 101.416 8.39414L101.54 7.513C101.642 6.44853 102.144 5.46246 102.945 4.75433C103.579 4.26304 104.36 3.99975 105.161 4.00704C105.843 3.96398 106.522 4.12536 107.112 4.47053C107.452 4.72196 107.727 5.0514 107.914 5.43116C108.1 5.81093 108.193 6.22992 108.184 6.65293C108.184 7.0272 107.947 9.33724 107.444 13.277ZM93.7907 0.172657H90.975C90.2185 0.152696 89.4697 0.32858 88.8013 0.683246C88.1321 1.03768 87.562 1.55943 87.1481 2.1989L80.0097 11.1702L80.203 10.6385L81.4584 0.457695C81.465 0.424016 81.463 0.389223 81.4526 0.35652C81.4422 0.323817 81.4238 0.294256 81.399 0.270561C81.3769 0.245111 81.3497 0.224652 81.3192 0.210547C81.2886 0.196443 81.2554 0.189018 81.2217 0.188767H75.3562C75.2757 0.191825 75.1986 0.222409 75.138 0.275414C75.0773 0.328419 75.0366 0.400635 75.0228 0.480002L72.5702 20.3124C72.5647 20.3763 72.5832 20.44 72.6223 20.4909C72.6718 20.5281 72.7301 20.5491 72.7921 20.5516H75.8581C76.6125 20.5635 77.3573 20.3808 78.0206 20.0212C78.6866 19.6598 79.2496 19.1348 79.6565 18.4956L86.63 9.32361L86.402 9.89121L85.1305 20.2827C85.1251 20.3489 85.1436 20.4148 85.1825 20.4686C85.2072 20.4947 85.237 20.5156 85.27 20.5299C85.3031 20.5441 85.3386 20.5515 85.3746 20.5516H91.234C91.3156 20.5479 91.3933 20.516 91.4539 20.4613C91.5145 20.4065 91.5542 20.3325 91.5661 20.2517L94.0038 0.398208C94.012 0.367895 94.0121 0.335993 94.0043 0.305595C93.9965 0.275197 93.981 0.247334 93.9592 0.224707C93.9101 0.188809 93.8503 0.170477 93.7894 0.172657H93.7907ZM136.105 0.010309L130.128 0.757604C130.042 0.771206 129.961 0.811671 129.899 0.873276C129.837 0.934881 129.796 1.01451 129.781 1.10089L128.931 8.0459L128.888 8.33094H123.176L124.166 0.234621C124.17 0.202632 124.167 0.170219 124.158 0.139196C124.15 0.108188 124.135 0.0794257 124.114 0.0549236C124.09 0.0365161 124.063 0.0230837 124.033 0.0154207C124.004 0.00775764 123.974 0.00601947 123.944 0.010309L117.967 0.757604C117.88 0.770296 117.799 0.810464 117.737 0.872232C117.675 0.933999 117.633 1.01413 117.62 1.10089L115.3 20.2691C115.295 20.3196 115.305 20.3705 115.33 20.4149C115.355 20.4592 115.393 20.4948 115.439 20.5169C115.469 20.5309 115.503 20.5381 115.537 20.538H121.402C121.486 20.536 121.567 20.5039 121.63 20.4475C121.692 20.3911 121.732 20.3142 121.743 20.2306L122.689 12.5606V12.5012H128.407L127.454 20.2691C127.448 20.3196 127.459 20.3706 127.484 20.415C127.509 20.4594 127.547 20.495 127.592 20.5169C127.623 20.5308 127.657 20.538 127.69 20.538H129.168C131.872 20.538 133.86 20.2083 134.281 17.0469L136.357 0.234621C136.364 0.203221 136.364 0.170386 136.356 0.139196C136.348 0.108012 136.333 0.0790949 136.312 0.0549236C136.285 0.0298841 136.251 0.0125669 136.215 0.00473091C136.178 -0.00310506 136.141 -0.00118054 136.105 0.010309ZM72.6359 4.48788L73.1378 0.375901C73.1412 0.342588 73.1377 0.308941 73.1277 0.276992C73.1177 0.245042 73.1013 0.215452 73.0796 0.190007C73.0564 0.163605 73.0278 0.142518 72.9957 0.128188C72.9636 0.113858 72.9288 0.106622 72.8937 0.106974H50.6632C50.2566 0.128443 49.8745 0.308142 49.5986 0.607649L43.3848 8.31606H42.4987L43.4964 0.227186C43.5028 0.196219 43.5015 0.164122 43.4924 0.133817C43.4833 0.103513 43.4668 0.0759654 43.4443 0.0536843C43.4216 0.033097 43.3945 0.0178501 43.3652 0.00905871C43.3358 0.000267349 43.3048 -0.00184602 43.2745 0.00287318L37.2974 0.750168C37.2105 0.76286 37.1299 0.803028 37.0675 0.864796C37.0051 0.926564 36.964 1.00669 36.9504 1.09345L34.5933 20.2381C34.5865 20.271 34.5877 20.305 34.5967 20.3373C34.6058 20.3697 34.6224 20.3994 34.6453 20.424C34.6687 20.4499 34.6971 20.4706 34.7289 20.4849C34.7607 20.4992 34.7951 20.5067 34.83 20.507H40.7402C40.8211 20.502 40.898 20.4698 40.9583 20.4155C41.0186 20.3613 41.0588 20.2883 41.0723 20.2083L42.0266 12.4789H42.9424L47.2056 20.2158C47.2571 20.2985 47.3274 20.3679 47.4107 20.4185C47.494 20.4691 47.588 20.4994 47.6852 20.507H54.0465C54.1506 20.507 54.2534 20.455 54.1655 20.2753L48.3432 10.4538L53.1753 4.79523H60.1574L58.2576 20.2393C58.2508 20.2722 58.252 20.3062 58.2611 20.3386C58.2701 20.3709 58.2868 20.4006 58.3097 20.4252C58.3331 20.4513 58.3618 20.4722 58.3938 20.4865C58.4258 20.5008 58.4605 20.5082 58.4955 20.5083H64.3611C64.4429 20.506 64.5213 20.4748 64.5822 20.42C64.643 20.3653 64.6824 20.2907 64.6933 20.2096L66.5621 4.79523H72.2963C72.3797 4.79154 72.4591 4.75898 72.5211 4.70313C72.583 4.64728 72.6236 4.57162 72.6359 4.48912V4.48788ZM151.08 10.403L145.634 0.684485C145.54 0.534078 145.411 0.408668 145.257 0.318912C145.104 0.229156 144.932 0.177708 144.754 0.168939H139.892C139.553 0.168939 139.383 0.393251 139.545 0.669614L145.013 10.3882L137.108 20.1067C136.893 20.3447 136.996 20.5467 137.344 20.5467H142.952C143.336 20.5293 143.701 20.3608 143.964 20.0757L150.975 11.4651C151.098 11.3193 151.174 11.1398 151.192 10.9502C151.211 10.7606 151.172 10.5699 151.08 10.403ZM13.8611 0.168939H8.25328C7.86435 0.18467 7.49755 0.354032 7.23334 0.639871L0.228843 9.25173C0.101152 9.39939 0.0226331 9.58316 0.00419876 9.77749C-0.0142356 9.97183 0.0283309 10.1671 0.125982 10.3361L5.57021 20.0534C5.66192 20.2062 5.79057 20.3335 5.94432 20.4236C6.09807 20.5137 6.27199 20.5637 6.45011 20.569H11.3032C11.6502 20.569 11.82 20.3459 11.6502 20.0683L6.19109 10.351L14.0978 0.632435C14.3035 0.363508 14.2007 0.168939 13.8611 0.168939Z" fill="#F1361D"/>
</svg>
