<svg width="114" height="27" viewBox="0 0 114 27" fill="none" xmlns="http://www.w3.org/2000/svg">
<path d="M100.412 7.73022H93.6758V19.0151V19.1878H93.7334C93.7909 20.109 93.9061 20.9151 94.1364 21.606C94.4818 22.8726 95.1152 23.8514 96.094 24.7151C96.9 25.406 97.7637 25.8666 98.7424 26.1544C99.5485 26.3848 100.642 26.4999 101.909 26.4999H108.703C109.509 26.4999 110.085 26.4423 110.488 26.3848C111.236 26.2696 111.927 25.9241 112.503 25.4635C113.136 24.9454 113.597 24.2544 113.827 23.3908C113.942 22.9302 114 22.3545 114 21.7211V7.73022H107.321V14.6969V16.5393V21.2605C107.264 21.3181 107.148 21.3181 106.976 21.3181H103.406C103.118 21.3181 102.888 21.3181 102.658 21.3181C102.255 21.3181 101.967 21.2605 101.736 21.1454C101.391 21.0302 101.103 20.8575 100.93 20.5696C100.758 20.3393 100.642 20.0514 100.585 19.706C100.527 19.4757 100.47 19.1302 100.47 18.7848V7.73022H100.412Z" fill="#222222"/>
<path d="M34.3155 0.993774H27.5791V26.4422H34.3155V0.993774Z" fill="#222222"/>
<path d="M75.0214 19.9363H68.1123V26.4423H75.0214V19.9363Z" fill="#222222"/>
<path d="M24.6426 7.78772H17.9062V26.4422H24.6426V7.78772Z" fill="#222222"/>
<path d="M24.6426 0.993774H17.9062V5.71498H24.6426V0.993774Z" fill="#222222"/>
<path d="M4.37575 4.04533L4.20303 4.3332C3.91515 4.85139 3.56969 5.65744 3.45454 6.17563C3.28181 6.80896 3.22424 7.78775 3.22424 7.78775H0V12.9696H3.05151V26.4423H9.78787V12.9696H14.9697V7.78775H9.9606C9.9606 7.78775 9.9606 7.49987 9.9606 7.15441C9.9606 6.2332 10.8242 5.88775 11.3424 5.83017C11.8606 5.7726 12.6667 5.71502 13.8182 5.71502H14.9697V0.936238L13.0697 0.878662C11.6879 0.878662 10.3636 0.993814 9.26969 1.22412C8.00302 1.45442 6.96666 1.85745 6.21818 2.31805C5.9303 2.43321 5.75757 2.60593 5.52727 2.77866C5.06666 3.18169 4.66363 3.6423 4.37575 4.04533Z" fill="#222222"/>
<path d="M40.7056 7.84533C40.5328 7.90291 40.3025 7.96049 40.1298 8.01806C39.7268 8.13321 39.3813 8.30594 39.0934 8.47867C38.6904 8.70897 38.345 9.05442 38.0571 9.45745C37.5965 10.2059 37.3086 11.1847 37.3086 12.3938V26.4423H44.0449V12.9696H47.9025V26.4423H54.5813V12.9696H56.4237C56.7692 12.9696 56.9995 12.9696 57.2298 13.0271C57.5177 13.0847 57.748 13.2574 57.8631 13.4302C58.0358 13.6029 58.2086 13.8908 58.2661 14.2938C58.3813 14.6393 58.4389 14.9847 58.3813 15.3878V26.4423H65.1177V15.3878C65.1177 14.2362 64.9449 13.1423 64.5419 12.1635C64.254 11.415 63.9086 10.7241 63.448 10.1484C63.2752 9.91806 63.1025 9.74533 62.9298 9.57261C62.6995 9.3423 62.4116 9.16958 62.1813 8.99685C60.9146 8.13321 59.2449 7.73018 57.2298 7.67261H41.9722C41.5116 7.73018 41.051 7.73018 40.7056 7.84533Z" fill="#222222"/>
<path d="M90.7398 7.73022H86.9974C85.7883 7.73022 84.7519 7.84538 83.9459 8.0181C82.6792 8.24841 81.5853 8.76659 80.6641 9.51507C80.5489 9.57265 80.4913 9.6878 80.3762 9.74537C80.0883 9.97568 79.8004 10.2636 79.6277 10.5514C79.052 11.2423 78.6489 12.0484 78.4186 12.912C78.1307 13.8908 77.958 15.0999 77.958 16.4242V26.4423H84.6944V16.3666C84.6944 15.2151 84.9822 14.409 85.4428 13.8908C85.7307 13.5454 86.1338 13.3151 86.5944 13.1999C86.9974 13.0848 87.5156 13.0272 88.1489 13.0272H90.7974V7.73022H90.7398Z" fill="#222222"/>
</svg>
