<svg width="217" height="39" viewBox="0 0 217 39" fill="none" xmlns="http://www.w3.org/2000/svg">
<path fill-rule="evenodd" clip-rule="evenodd" d="M107.654 4.74329C111.133 4.74329 113.979 7.37841 113.979 10.646C113.979 13.9135 111.133 16.5486 107.654 16.5486C104.176 16.5486 101.33 13.9135 101.33 10.646C101.33 7.37841 104.176 4.74329 107.654 4.74329ZM107.654 9.06488C108.498 9.06488 109.235 9.80271 109.235 10.646C109.235 11.4892 108.498 12.227 107.654 12.227C106.811 12.227 106.073 11.4892 106.073 10.646C106.073 9.80271 106.811 9.06488 107.654 9.06488Z" fill="black"/>
<path fill-rule="evenodd" clip-rule="evenodd" d="M97.4288 16.4432C93.9504 16.4432 91.1045 13.808 91.1045 10.5405C91.1045 7.27294 93.9504 4.63782 97.4288 4.63782C98.9044 4.63782 100.275 4.95403 101.434 5.48106L99.6423 9.38103C99.1153 9.17022 98.4828 8.95941 97.6396 8.95941C96.7963 8.95941 96.1639 9.59184 96.1639 10.4351C96.1639 11.2783 96.7963 11.9107 97.6396 11.9107C98.3774 11.9107 99.1153 11.8053 99.6423 11.4891L101.434 15.3891C100.275 16.1269 98.9044 16.4432 97.4288 16.4432Z" fill="black"/>
<path fill-rule="evenodd" clip-rule="evenodd" d="M69.4981 4.74329C72.9765 4.74329 75.8224 7.37841 75.8224 10.646C75.8224 13.9135 72.9765 16.5486 69.4981 16.5486C66.0198 16.5486 63.1738 13.9135 63.1738 10.646C63.1738 7.37841 66.0198 4.74329 69.4981 4.74329ZM69.4981 9.06488C70.3414 9.06488 71.0792 9.80271 71.0792 10.646C71.0792 11.4892 70.3414 12.227 69.4981 12.227C68.6549 12.227 67.917 11.4892 67.917 10.646C67.917 9.80271 68.6549 9.06488 69.4981 9.06488Z" fill="black"/>
<path fill-rule="evenodd" clip-rule="evenodd" d="M173.848 16.4432C170.369 16.4432 167.523 13.808 167.523 10.5405C167.523 7.27294 170.369 4.63782 173.848 4.63782C175.323 4.63782 176.694 4.95403 177.853 5.48106L176.061 9.59184C175.534 9.38103 174.902 9.17022 174.059 9.17022C173.215 9.17022 172.583 9.80265 172.583 10.6459C172.583 11.4891 173.215 12.1216 174.059 12.1216C174.796 12.1216 175.534 12.0162 176.061 11.6999L177.853 15.5999C176.694 16.1269 175.323 16.4432 173.848 16.4432Z" fill="black"/>
<path fill-rule="evenodd" clip-rule="evenodd" d="M128.102 5.05945H124.308L121.884 8.01078L119.459 5.05945H115.138V16.2324H119.565V10.6459L121.462 12.8594L123.359 10.6459V16.2324H128.208V5.05945H128.102Z" fill="black"/>
<path fill-rule="evenodd" clip-rule="evenodd" d="M154.032 5.05945H143.386V10.6459C143.386 11.9108 143.175 13.1756 142.016 13.281V16.1269C142.437 16.3378 142.964 16.4432 143.491 16.4432C147.075 16.4432 147.707 13.7026 147.707 10.8567V8.11619H148.972V16.2324H153.926V5.05945H154.032Z" fill="black"/>
<path fill-rule="evenodd" clip-rule="evenodd" d="M160.567 5.05945H155.613V16.2324H161.832C165.311 16.2324 166.892 14.1243 166.892 11.5945C166.892 9.69726 165.311 8.11619 163.413 8.11619C162.359 8.11619 161.411 8.4324 160.673 8.85402V5.05945H160.567ZM161.2 10.9621C161.727 10.9621 162.254 11.3837 162.254 12.0162C162.254 12.5432 162.043 13.4918 161.2 13.4918C160.884 13.4918 160.673 13.4918 160.567 13.3864V11.2783C160.673 11.0675 160.989 10.9621 161.2 10.9621Z" fill="black"/>
<path fill-rule="evenodd" clip-rule="evenodd" d="M216.538 5.05945H208.527C206.735 5.05945 205.259 6.53511 205.259 8.32699C205.259 9.59185 205.997 10.7513 207.051 11.2783C205.786 12.4378 204.521 14.4405 204.521 16.3378H209.159C209.37 13.7026 210.424 12.8594 211.478 12.754V16.3378H216.432V5.05945H216.538ZM211.478 7.58916H211.057C210.319 7.58916 209.792 8.11619 209.792 8.85402C209.792 9.59185 210.319 10.1189 211.057 10.1189H211.478V7.58916Z" fill="black"/>
<path fill-rule="evenodd" clip-rule="evenodd" d="M135.481 4.74329C138.959 4.74329 141.805 7.37841 141.805 10.646C141.805 13.9135 138.959 16.5486 135.481 16.5486C132.002 16.5486 129.156 13.9135 129.156 10.646C129.156 7.37841 132.002 4.74329 135.481 4.74329ZM135.481 9.06488C136.324 9.06488 137.062 9.80271 137.062 10.646C137.062 11.4892 136.324 12.227 135.481 12.227C134.637 12.227 133.899 11.4892 133.899 10.646C133.899 9.80271 134.637 9.06488 135.481 9.06488Z" fill="black"/>
<path fill-rule="evenodd" clip-rule="evenodd" d="M55.6894 11.8054V16.2324H50.7354V5.05945H55.6894V8.64321C57.2704 8.64321 58.0083 7.16754 58.0083 5.05945H62.6461C62.6461 7.37835 61.592 9.38104 60.2218 10.1189C61.6974 10.6459 63.0677 13.5972 63.0677 16.2324H58.4299C58.4299 13.4918 57.3759 11.6999 55.6894 11.8054Z" fill="black"/>
<path fill-rule="evenodd" clip-rule="evenodd" d="M183.651 11.8054V16.2324H178.697V5.05945H183.651V8.64321C185.232 8.64321 185.97 7.16754 185.97 5.05945H190.608C190.608 7.37835 189.554 9.38104 188.184 10.1189C189.659 10.6459 191.03 13.5972 191.03 16.2324H186.392C186.392 13.4918 185.338 11.6999 183.651 11.8054Z" fill="black"/>
<path fill-rule="evenodd" clip-rule="evenodd" d="M90.0507 5.05945H86.2562L83.8318 8.01078L81.4075 5.05945H77.0859V16.2324H81.5129V10.6459L83.4102 12.8594L85.3075 10.6459V16.2324H90.1561V5.05945H90.0507Z" fill="black"/>
<path fill-rule="evenodd" clip-rule="evenodd" d="M200.831 5.05945L204.942 16.2324H199.988L199.144 14.0189H195.455L194.612 16.2324H190.712L194.823 5.05945H200.831ZM198.196 11.5945L197.247 8.95942L196.298 11.5945H198.196Z" fill="black"/>
<path fill-rule="evenodd" clip-rule="evenodd" d="M94.794 19.8162H83.8319C82.0401 23.2945 80.6698 27.0891 80.459 32.0431H84.6752C84.7806 31.5161 84.886 30.9891 84.9914 30.5674H88.786V32.0431H94.8994V19.8162H94.794ZM88.6805 24.2432V27.5107H85.7292C86.1508 26.3513 86.5725 25.1918 87.0995 24.2432H88.6805Z" fill="black"/>
<path fill-rule="evenodd" clip-rule="evenodd" d="M95.9541 19.8162V32.0431H106.916C109.024 32.0431 110.395 31.0945 110.395 28.9864C110.395 27.4053 109.341 26.2459 107.97 25.4026C109.13 24.6648 109.762 23.7161 109.762 22.2405C109.762 20.554 108.392 19.9216 106.284 19.8162H95.9541ZM101.646 28.881H103.438C104.07 28.881 104.597 28.3539 104.597 27.8269C104.597 27.5107 104.386 27.0891 104.07 26.8783C103.332 27.0891 102.489 27.2999 101.541 27.6161V28.881H101.646ZM101.646 23.0837H102.489C103.438 23.0837 103.965 23.2945 103.965 23.7161C103.965 24.3486 103.122 24.8756 101.646 25.1918V23.0837Z" fill="black"/>
<path fill-rule="evenodd" clip-rule="evenodd" d="M66.5459 19.8162V32.0431H72.6594V29.935C78.4566 28.6702 81.1972 26.4567 81.1972 23.8215C81.1972 21.081 79.1945 19.8162 76.0323 19.8162H66.5459ZM72.554 26.6675C73.9242 26.3513 74.6621 25.7188 74.6621 25.0864C74.6621 24.3486 73.8188 24.0324 72.9756 24.0324H72.554V26.6675Z" fill="black"/>
<path fill-rule="evenodd" clip-rule="evenodd" d="M56.7434 24.2432H59.2731V32.1485H65.3866V19.8162H50.7354V32.0431H56.8488V24.2432H56.7434Z" fill="black"/>
<path fill-rule="evenodd" clip-rule="evenodd" d="M125.256 19.8162H114.926C113.451 22.2405 112.502 25.1918 112.186 28.4594H110.921V34.2566H115.032C115.453 32.2539 117.245 31.9377 119.037 31.9377C120.724 31.9377 122.199 32.4647 122.41 34.2566H126.521V28.4594H125.361V19.8162H125.256ZM119.142 24.2432V28.5648H116.191C116.507 26.6675 117.14 25.0864 117.878 24.2432H119.142Z" fill="black"/>
<path fill-rule="evenodd" clip-rule="evenodd" d="M141.173 19.8162H130.211C128.419 23.2945 127.049 27.0891 126.838 32.0431H131.054C131.159 31.5161 131.265 30.9891 131.37 30.5674H135.165V32.0431H141.278V19.8162H141.173ZM135.165 24.2432V27.5107H132.214C132.635 26.3513 133.057 25.1918 133.584 24.2432H135.165Z" fill="black"/>
<mask id="mask0_58_156" style="mask-type:alpha" maskUnits="userSpaceOnUse" x="0" y="0" width="43" height="39">
<path fill-rule="evenodd" clip-rule="evenodd" d="M5.62258 3.89998L0.0361328 0.948643C0.0361328 0.948643 15.3198 0.948643 22.5927 0.948643C25.0171 0.948643 27.336 1.89729 29.0224 3.58376C29.3387 3.16214 29.5495 2.95133 30.1819 2.42431C31.4467 1.26486 33.1332 0.105405 36.0846 0C36.9278 0 37.9818 0.210809 38.6143 0.843238C39.8791 0.843238 41.144 0.948643 42.198 1.05405L39.0359 3.68917C38.4035 7.79995 36.4008 9.27562 35.4521 10.1189C37.244 11.9107 38.1927 14.2296 38.1927 16.7594C38.1927 24.0323 38.1927 38.9998 38.1927 38.9998C38.1927 38.9998 33.344 29.9349 31.1305 26.1404C30.0765 24.2431 29.2332 21.5026 28.39 18.1296C28.1792 18.4458 11.3144 37.5241 11.3144 37.5241L19.1144 20.0269L1.72261 27.9323C1.72261 27.9323 20.2738 11.3837 21.0117 10.7513C19.009 10.1189 15.636 9.48643 13.1063 8.01076C10.4712 6.53509 5.62258 3.89998 5.62258 3.89998Z" fill="#BC4038"/>
</mask>
<g mask="url(#mask0_58_156)">
<path fill-rule="evenodd" clip-rule="evenodd" d="M5.62258 3.9001L0.0361328 0.948765C0.0361328 0.948765 15.3198 0.948765 22.5927 0.948765C25.0171 0.948765 27.336 1.89741 29.0224 3.58388C29.3387 3.16226 29.5495 2.95145 30.1819 2.42443C31.4467 1.26498 33.1332 0.105527 36.0846 0.00012207C36.9278 0.00012207 37.9818 0.210931 38.6143 0.84336C39.8791 0.84336 41.144 0.948765 42.198 1.05417L39.0359 3.68929C38.4035 7.80007 36.4008 9.27574 35.4521 10.119C37.244 11.9109 38.1927 14.2298 38.1927 16.7595C38.1927 24.0324 38.1927 38.9999 38.1927 38.9999C38.1927 38.9999 33.344 29.9351 31.1305 26.1405C30.0765 24.2432 29.2332 21.5027 28.39 18.1297C28.1792 18.446 11.3144 37.5242 11.3144 37.5242L19.1144 20.027L1.72261 27.9324C1.72261 27.9324 20.2738 11.3838 21.0117 10.7514C19.009 10.119 15.636 9.48655 13.1063 8.01088C10.4712 6.53522 5.62258 3.9001 5.62258 3.9001Z" fill="#BC4038"/>
<path fill-rule="evenodd" clip-rule="evenodd" d="M19.1158 20.027L1.30241 30.2512L0.775391 27.7215L6.67806 21.8189C7.94291 22.0297 9.20777 22.2405 10.4726 22.2405C13.6348 22.1351 16.5861 21.3972 19.1158 20.027Z" fill="#466A9E"/>
<path fill-rule="evenodd" clip-rule="evenodd" d="M19.1155 20.027C20.0642 19.5 21.0128 18.8676 21.9615 18.1298C22.1723 19.2892 22.2777 20.5541 22.2777 21.8189C22.2777 32.1486 13.9507 40.4756 3.62105 40.4756C3.09402 40.4756 2.46159 40.4756 1.93457 40.3702L19.1155 20.027Z" fill="#5C4998"/>
<path fill-rule="evenodd" clip-rule="evenodd" d="M0.352539 3.47832C1.40659 3.26751 2.56604 3.16211 3.72549 3.16211C6.67682 3.16211 9.41735 3.89994 11.9471 5.0594C10.893 5.2702 9.73356 5.37561 8.57411 5.37561C5.62278 5.37561 2.77685 4.63778 0.352539 3.47832Z" fill="#F09A38"/>
<path fill-rule="evenodd" clip-rule="evenodd" d="M11.9473 5.05948C18.377 3.90003 23.6472 -0.737779 25.9661 -6.74585C27.9688 -3.79452 29.1282 -0.210755 29.1282 3.58382C29.1282 9.48648 26.3877 14.7567 22.0661 18.1297C20.8013 12.4378 17.0067 7.5892 11.9473 5.05948Z" fill="#A93930"/>
<path fill-rule="evenodd" clip-rule="evenodd" d="M47.6802 21.0811C54.0045 21.0811 59.0639 26.2459 59.0639 32.5702C59.0639 38.8945 54.0045 44.0593 47.6802 44.0593C41.3559 44.0593 36.2965 38.8945 36.2965 32.5702C36.1911 26.2459 41.3559 21.0811 47.6802 21.0811Z" fill="#F09A38"/>
<path fill-rule="evenodd" clip-rule="evenodd" d="M31.6587 15.1783C32.5019 19.4999 34.9262 23.2945 38.1938 26.035C36.9289 27.8269 36.1911 30.1458 36.1911 32.5701C36.1911 38.8944 41.2505 44.0592 47.5748 44.0592C47.891 44.0592 48.2072 44.0592 48.5234 44.0592C46.3099 45.2187 43.7802 45.8511 41.0397 45.8511C31.8695 45.8511 24.3857 38.3674 24.3857 29.1972C24.4911 23.2945 27.3371 18.2351 31.6587 15.1783Z" fill="#FBC338"/>
<path fill-rule="evenodd" clip-rule="evenodd" d="M31.4473 9.3811C31.3419 10.1189 31.3419 10.8568 31.3419 11.5946C31.3419 12.8595 31.4473 14.1243 31.6581 15.2838C28.4959 17.4973 26.0716 20.7648 25.0176 24.6648C25.0176 24.2432 25.0176 23.927 25.0176 23.5053C25.0176 17.8135 27.5473 12.7541 31.4473 9.3811Z" fill="#ED7837"/>
<path fill-rule="evenodd" clip-rule="evenodd" d="M31.6592 15.1781C34.2943 13.3863 37.5618 12.2268 41.0402 12.2268C49.9996 12.2268 57.3779 19.3943 57.6942 28.3537C55.2698 29.5132 52.6347 30.1456 49.7888 30.1456C40.9348 30.1456 33.4511 23.7159 31.6592 15.1781Z" fill="#F2B641"/>
<path fill-rule="evenodd" clip-rule="evenodd" d="M31.4472 9.38104C34.7148 6.53511 38.931 4.84863 43.5688 4.84863C53.793 4.84863 62.12 13.1756 62.12 23.3999C62.12 24.1377 62.12 24.8755 62.0146 25.6134C60.7497 26.6674 59.2741 27.6161 57.7984 28.3539C57.4822 19.3945 50.1039 12.227 41.1445 12.227C37.6661 12.227 34.3986 13.281 31.7634 15.1783C31.5526 14.0188 31.4472 12.754 31.4472 11.4891C31.3418 10.7513 31.3418 10.0135 31.4472 9.38104Z" fill="#E07037"/>
<path fill-rule="evenodd" clip-rule="evenodd" d="M31.4473 9.38113C32.5013 0.105511 40.4067 -7.06201 49.7877 -7.06201C60.012 -7.06201 68.3389 1.26496 68.3389 11.4892C68.3389 17.0757 65.8092 22.1351 61.9092 25.6135C62.0146 24.8756 62.0146 24.1378 62.0146 23.4C62.12 13.1757 53.7931 4.84873 43.5688 4.84873C38.931 4.84873 34.7148 6.5352 31.4473 9.38113Z" fill="#96291F"/>
<path fill-rule="evenodd" clip-rule="evenodd" d="M0.353104 3.47838C-5.76037 0.421642 -9.97656 -5.90264 -9.97656 -13.1756C-9.97656 -23.3998 -1.64959 -31.7268 8.57467 -31.7268C18.7989 -31.7268 27.1259 -23.3998 27.1259 -13.1756C27.1259 -4.11076 20.5908 3.47838 11.9476 5.16486C9.41791 3.9 6.67739 3.26757 3.72606 3.26757C2.5666 3.16217 1.40715 3.26757 0.353104 3.47838Z" fill="#E07037"/>
</g>
</svg>
