<svg width="127" height="52" viewBox="0 0 127 52" fill="none" xmlns="http://www.w3.org/2000/svg">
<path d="M83.6545 37.5655C83.6545 35.9893 83.6545 34.8072 83.6545 33.6907C81.4873 33.8878 79.4514 34.2818 77.4155 34.2818C68.8778 34.2818 66.1195 27.3204 67.039 21.541C68.2211 14.0542 75.5766 10.4421 82.8664 13.6602C83.4575 13.9228 84.0485 14.2512 84.5739 14.5796C84.968 14.7766 85.2307 15.105 85.6904 15.499C84.7709 16.6812 83.9172 17.7976 83.2604 18.6514C81.0275 18.323 79.123 17.8633 77.2184 17.8633C74.2631 17.8633 72.884 19.3738 72.6213 22.2635C72.5556 22.9202 72.5556 23.5769 72.6213 24.2337C72.7526 27.7801 74.2631 29.3562 77.5468 29.5533C80.9619 29.7503 83.1291 28.1741 83.7202 25.0218C83.9172 23.8396 83.8515 22.6575 83.9829 21.0813C85.4934 20.8186 87.0695 20.5559 88.7771 20.2932C88.9084 21.2783 89.0398 22.0008 89.0398 22.7888C89.0398 26.9263 89.1711 31.1294 88.9741 35.2669C88.8427 37.7625 88.5144 40.2581 87.8576 42.6881C86.8725 46.4315 84.3112 48.9271 80.5678 50.0436C75.7079 51.5541 70.8481 51.4227 66.0539 49.8465C61.785 48.4017 60.0118 44.6583 61.5223 40.7835C62.3104 38.6163 64.018 37.4998 66.1195 36.9088C69.9943 35.7923 73.8691 35.9237 77.8095 36.5147C79.6484 36.6461 81.4216 37.1058 83.6545 37.5655ZM66.8419 44.2643C70.9794 46.5628 75.1825 46.4972 79.4514 45.0523C80.7648 44.5926 81.7499 43.5418 82.4724 41.9C77.0214 41.0462 71.8988 39.5357 66.7106 42.2284C66.7763 43.0821 66.7763 43.6075 66.8419 44.2643Z" fill="black"/>
<path d="M21.2646 7.0928C17.3242 6.69875 13.5151 6.23903 9.706 5.91066C8.1955 5.77931 6.61932 5.91066 5.30584 7.28982C5.10882 8.07791 4.84612 8.99734 4.51775 10.1138C3.26994 10.1138 2.02214 10.1138 0.77433 10.1138C-1.06454 6.30471 0.44596 2.69264 4.51775 1.37915C7.14471 0.525392 9.90302 0.459718 12.6613 0.853763C20.4109 2.0359 28.2261 3.21803 35.9756 4.33449C38.4056 4.66286 40.9668 5.12257 43.4625 3.41505C43.5938 2.69264 43.7252 1.83887 43.9222 0.853763C44.973 0.591066 46.0894 0.262696 47.2059 0C49.5701 3.21803 48.5194 6.89577 44.8416 8.6033C42.2803 9.78543 39.5877 9.91678 36.8294 9.58841C34.6621 9.32571 32.4949 8.93167 30.3277 8.6033C29.4739 8.47195 28.6201 8.6033 27.438 8.6033C27.438 9.71976 27.438 10.8362 27.438 11.887C27.438 16.9439 27.3723 21.9351 27.438 26.992C27.5037 30.8011 24.9424 34.5445 19.5571 34.0848C16.0764 33.8221 14.0405 31.7206 13.5808 27.7801C14.7629 27.4517 16.0107 27.0577 17.1928 26.7293C18.572 27.3861 19.0317 29.7503 21.0019 28.3055C21.7243 26.0726 21.9214 12.6094 21.2646 7.0928Z" fill="black"/>
<path d="M123.847 22.0665C123.059 22.986 122.271 23.9054 121.417 24.9562C117.083 24.9562 112.683 24.9562 108.151 24.9562C108.151 27.2548 109.53 28.1742 111.172 28.8966C113.339 29.8161 115.507 29.1593 117.608 28.6339C118.528 28.3713 119.381 27.9772 120.432 27.5832C121.22 28.7653 121.943 29.8161 122.731 31.1296C118.265 34.4133 113.536 35.3327 108.48 33.3625C105.196 32.049 103.357 29.3564 102.897 25.8756C102.766 24.8905 102.766 23.9054 102.766 22.9203C102.635 13.0692 113.142 10.5079 119.053 13.923C121.746 15.4991 122.993 17.6007 123.847 22.0665ZM118.002 20.7531C117.083 17.9948 115.507 16.8783 112.814 17.0753C110.121 17.2067 108.808 18.2575 108.282 20.7531C111.435 20.7531 114.587 20.7531 118.002 20.7531Z" fill="black"/>
<path d="M30.3936 14.5139C32.6265 14.3826 34.334 14.3169 36.1729 14.1856C37.355 18.9141 38.2088 23.577 40.573 27.7144C40.8357 28.1741 41.2954 28.5025 41.5581 28.8966C44.5135 27.6487 45.827 24.7591 45.6956 19.5708C43.6597 18.8484 42.1492 17.6663 42.4776 15.105C42.6746 13.4632 43.6597 12.5437 45.1045 12.1497C47.4688 11.4273 49.3734 12.2154 50.9495 14.2512C51.5406 19.3081 51.0809 24.2337 48.6509 28.8309C47.9285 30.1444 46.9434 31.3922 45.827 32.3773C42.9373 34.9386 39.4566 34.7415 36.8296 31.9176C36.1729 31.1951 35.5818 30.4071 35.1221 29.5533C32.5608 24.9561 31.3787 19.9649 30.3936 14.5139Z" fill="black"/>
<path d="M102.963 32.64C102.044 33.0997 101.387 33.5594 100.664 33.7564C95.6733 35.5296 92.1269 33.2311 91.9298 27.9115C91.7328 22.6575 91.8642 17.4036 91.8642 12.2154C91.8642 9.71975 91.8642 7.22413 91.8642 4.33448C93.7031 4.07178 95.3449 3.80908 97.2495 3.54639C97.3808 4.59717 97.5121 5.45093 97.5121 6.23902C97.5121 12.6751 97.5121 19.1111 97.5121 25.5472C97.5121 26.598 97.5778 27.6488 97.6435 28.9622C98.8256 28.9622 99.7451 28.9622 100.796 28.9622C101.453 30.1444 102.109 31.2608 102.963 32.64Z" fill="black"/>
<path d="M89.8291 43.2792C90.1575 41.8344 90.4202 40.7179 90.7485 39.4044C102.57 41.0463 114.063 40.7179 125.49 36.0551C125.95 37.4342 126.41 38.682 127.001 40.3239C114.72 45.1181 102.504 45.7091 89.8291 43.2792Z" fill="black"/>
<path d="M58.1079 17.8635C56.1377 17.8635 54.7585 17.8635 53.248 17.8635C53.248 16.747 53.248 15.4992 53.248 13.9887C54.8242 13.529 56.3347 12.8722 57.9109 12.6095C61.6543 11.9528 63.8872 13.8573 63.6245 17.6664C63.3618 20.5561 62.7051 23.4457 62.1797 26.3354C61.917 27.2548 61.2603 28.1743 62.5081 29.1594C63.1648 29.0937 63.9529 29.028 64.938 28.8967C65.5948 30.0131 66.2515 31.1296 66.9739 32.3117C65.3977 34.0849 63.3618 34.4133 61.326 34.282C58.3049 34.0849 56.3347 31.9177 56.4004 28.831C56.4661 26.6638 56.9915 24.5622 57.3855 22.395C57.5169 21.0815 57.7796 19.7023 58.1079 17.8635Z" fill="black"/>
<path d="M55.7432 6.76445C56.6626 3.87479 57.7791 2.95535 59.8806 3.21805C61.6538 3.48075 62.836 4.72855 62.9016 6.50175C62.9673 8.34063 61.9822 9.58843 60.1433 9.98248C57.9761 10.4422 56.8596 9.65411 55.7432 6.76445Z" fill="black"/>
</svg>
