<svg width="101" height="42" viewBox="0 0 101 42" fill="none" xmlns="http://www.w3.org/2000/svg">
<path d="M75.2166 0H72.2754V41.1765H75.2166V0Z" fill="#272727"/>
<path d="M92.864 0H89.9229V41.1765H92.864V0Z" fill="#272727"/>
<path d="M100.707 0H97.7656V41.1765H100.707V0Z" fill="#272727"/>
<path d="M73.2559 2.94118V0H84.0402V2.94118H73.2559Z" fill="#272727"/>
<path d="M89.9229 41.1764V38.2352H100.707V41.1764H89.9229Z" fill="#272727"/>
<path d="M3.64821 0H0.707031V33.3333H3.64821V0Z" fill="#272727"/>
<path d="M11.491 0H8.5498V41.1765H11.491V0Z" fill="#272727"/>
<path d="M21.2957 0H18.3545V41.1765H21.2957V0Z" fill="#272727"/>
<path d="M29.1384 0H26.1973V41.1765H29.1384V0Z" fill="#272727"/>
<path d="M38.9422 0H36.001V41.1765H38.9422V0Z" fill="#272727"/>
<path d="M65.4129 0H62.4717V41.1765H65.4129V0Z" fill="#272727"/>
<path d="M46.7859 12.7451H43.8447V41.1765H46.7859V12.7451Z" fill="#272727"/>
<path d="M56.5896 12.7451H53.6484V41.1765H56.5896V12.7451Z" fill="#272727"/>
<path d="M0.707031 2.94118V0H11.4913V2.94118H0.707031Z" fill="#272727"/>
<path d="M18.3545 2.94118V0H29.1388V2.94118H18.3545Z" fill="#272727"/>
<path d="M36.001 15.6863V12.7451H46.7853V15.6863H36.001Z" fill="#272727"/>
<path d="M54.6289 15.6863V12.7451H65.4132V15.6863H54.6289Z" fill="#272727"/>
<path d="M54.6289 41.1764V38.2352H65.4132V41.1764H54.6289Z" fill="#272727"/>
<path d="M54.6289 2.94118V0H65.4132V2.94118H54.6289Z" fill="#272727"/>
<path d="M18.3545 41.1764V38.2352H29.1388V41.1764H18.3545Z" fill="#272727"/>
<path d="M0.707031 41.1764V38.2352H11.4913V41.1764H0.707031Z" fill="#272727"/>
<path d="M0.707031 33.3333V30.3921H11.4913V33.3333H0.707031Z" fill="#272727"/>
</svg>
