<svg width="171" height="23" viewBox="0 0 171 23" fill="none" xmlns="http://www.w3.org/2000/svg">
<path d="M22.1389 0.495239L19.9228 7.20854L17.7066 0.495239H12.8036L10.5874 7.20854L8.36321 0.495239H0.805664L7.81932 21.7635H13.3475L15.2551 16.0243L17.1546 21.7635H22.6828L29.7045 0.495239H22.1389ZM20.353 19.2714H19.2084L15.2551 6.80266L11.3018 19.2714H10.1491L4.78332 2.98736H6.1552L10.7011 16.7712L15.2551 2.41101L19.801 16.7712L24.3469 2.98736H25.7188L20.353 19.2714Z" fill="url(#paint0_linear_58_134)"/>
<path d="M43.8456 12.1279C44.5437 11.2674 44.9009 10.1391 44.9009 8.78344C44.9009 7.83367 44.7142 6.98132 44.3489 6.26696C43.9754 5.55261 43.464 4.94378 42.8227 4.45672C42.1896 3.97778 41.4346 3.60437 40.5823 3.35272C39.7299 3.10919 38.7964 2.98743 37.7979 2.98743H34.1855V19.2715H35.5006V14.5389H37.7979C38.561 14.5389 39.324 14.4658 40.0465 14.3197L42.9851 19.2715H44.5274L41.3453 13.9219C42.3763 13.516 43.2124 12.9153 43.8456 12.1279ZM35.5006 4.23755H37.7979C39.6244 4.23755 41.0612 4.63531 42.084 5.43084C43.0987 6.21826 43.5939 7.30602 43.5939 8.78344C43.5939 10.2446 43.0987 11.3405 42.084 12.1117C41.0693 12.8991 39.6244 13.2969 37.7979 13.2969H35.5006V4.23755Z" fill="white"/>
<path d="M45.2902 14.7336C45.7529 14.3764 46.1831 13.9381 46.5566 13.4429C46.93 12.9558 47.2628 12.3227 47.5631 11.5758C47.8635 10.829 48.0096 9.90361 48.0096 8.84019C48.0096 7.5089 47.7742 6.29937 47.2871 5.26842C46.8082 4.22936 46.1344 3.34454 45.274 2.6383C44.4216 1.93207 43.4069 1.3963 42.2542 1.03912C41.0934 0.673828 39.8351 0.495239 38.4876 0.495239H31.0762V21.7635H38.2035V17.1689L40.9229 21.7635H49.2841L45.2902 14.7336ZM42.0837 5.43078C41.0609 4.63525 39.6241 4.23748 37.7976 4.23748H35.5003V13.2968H37.7976C39.6241 13.2968 41.069 12.899 42.0837 12.1116C43.0984 11.3404 43.5936 10.2446 43.5936 8.78337C43.5936 7.30596 43.0984 6.21819 42.0837 5.43078ZM40.1761 10.2202C39.6647 10.5449 39.0315 10.7073 38.3009 10.7073H38.2035V6.59972H38.3009C39.0315 6.59972 39.6647 6.77019 40.1761 7.08678C40.6469 7.40337 40.8823 7.90666 40.8823 8.65349C40.8823 9.40031 40.6469 9.91984 40.1761 10.2202ZM44.5271 19.2714H42.9848L40.0462 14.3196C39.3237 14.4657 38.5607 14.5388 37.7976 14.5388H35.5003V19.2714H34.1852V2.98736H37.7976C38.7961 2.98736 39.7296 3.10913 40.582 3.35266C41.4343 3.6043 42.1892 3.97772 42.8224 4.45666C43.4637 4.94372 43.9751 5.55254 44.3485 6.2669C44.7138 6.98125 44.9005 7.83361 44.9005 8.78337C44.9005 10.139 44.5434 11.2674 43.8453 12.1278C43.2121 12.9153 42.376 13.516 41.345 13.9219L44.5271 19.2714Z" fill="url(#paint1_linear_58_134)"/>
<path d="M71.1764 6.81072C70.6001 5.46319 69.7883 4.26989 68.7817 3.2633C67.7832 2.26483 66.5818 1.45306 65.2343 0.876707C63.8786 0.292236 62.4256 0 60.9076 0C59.3815 0 57.9284 0.292236 56.5727 0.876707C55.2252 1.45306 54.0238 2.26483 53.0253 3.2633C52.0187 4.26989 51.2151 5.46319 50.6387 6.81072C50.0543 8.16637 49.7539 9.61943 49.7539 11.1455C49.7539 12.6717 50.0543 14.1247 50.6387 15.4804C51.2151 16.8279 52.0187 18.0212 53.0253 19.0278C54.0238 20.0344 55.2252 20.8299 56.5727 21.4144C57.9284 21.9989 59.3896 22.2911 60.9076 22.2911C62.4256 22.2911 63.8786 21.9989 65.2343 21.4144C66.5818 20.8299 67.7832 20.0344 68.7817 19.0278C69.7883 18.0212 70.5919 16.8279 71.1764 15.4804C71.7528 14.1247 72.0531 12.6636 72.0531 11.1455C72.0531 9.61943 71.7528 8.16637 71.1764 6.81072ZM67.2718 8.4586C66.9146 7.6306 66.4113 6.89189 65.7863 6.26683C65.1531 5.63366 64.4144 5.13036 63.5945 4.77319C62.7665 4.41601 61.8573 4.23742 60.9076 4.23742C59.9497 4.23742 59.0405 4.41601 58.2125 4.77319C57.3926 5.13036 56.6539 5.63366 56.0207 6.26683C55.3957 6.89189 54.8924 7.6306 54.5352 8.4586C54.178 9.27849 53.9994 10.1877 53.9994 11.1455C53.9994 12.1034 54.178 13.0045 54.5352 13.8325C54.8924 14.6605 55.3957 15.3992 56.0207 16.0243C56.6539 16.6574 57.3926 17.1526 58.2125 17.5179C59.0405 17.8751 59.9497 18.0537 60.9076 18.0537C61.8573 18.0537 62.7665 17.8751 63.5945 17.5179C64.4144 17.1526 65.1531 16.6574 65.7863 16.0243C66.4113 15.3992 66.9146 14.6605 67.2718 13.8325C67.629 13.0045 67.8157 12.1034 67.8157 11.1455C67.8157 10.1877 67.629 9.2866 67.2718 8.4586ZM64.6904 12.7447C64.4712 13.2399 64.179 13.6783 63.8137 14.0517C63.4403 14.417 62.9938 14.7173 62.4986 14.9365C61.5164 15.3586 60.2906 15.3586 59.3084 14.9365C58.8132 14.7173 58.3667 14.417 58.0015 14.0517C57.628 13.6783 57.3358 13.2399 57.1166 12.7447C56.9056 12.2496 56.8 11.7138 56.8 11.1455C56.8 10.5854 56.9056 10.0415 57.1166 9.54637C57.3358 9.05119 57.628 8.61284 58.0015 8.23943C58.3749 7.87413 58.8132 7.5819 59.3084 7.36272C59.8036 7.14354 60.3393 7.03801 60.9076 7.03801C61.4677 7.03801 62.0035 7.14354 62.4986 7.36272C62.9938 7.5819 63.4403 7.87413 63.8056 8.23943C64.179 8.61284 64.4712 9.05119 64.6904 9.54637C64.9096 10.0497 65.007 10.5854 65.007 11.1455C65.007 11.7138 64.9096 12.2496 64.6904 12.7447ZM68.4814 14.3439C68.0592 15.3343 67.4585 16.211 66.7198 16.9578C65.973 17.7046 65.0882 18.2972 64.0978 18.7193C63.1075 19.1496 62.0359 19.3687 60.9076 19.3687C59.7792 19.3687 58.6996 19.1496 57.7092 18.7193C56.7189 18.2972 55.834 17.7046 55.0953 16.9578C54.3485 16.211 53.7559 15.3343 53.3257 14.3439C52.9036 13.3536 52.6844 12.2739 52.6844 11.1455C52.6844 10.0172 52.9036 8.93755 53.3257 7.94719C53.7559 6.95684 54.3485 6.08013 55.0953 5.3333C55.834 4.58648 56.7189 3.99389 57.7092 3.56365C58.6996 3.14154 59.7792 2.92236 60.9076 2.92236C62.0359 2.92236 63.1075 3.14154 64.0978 3.56365C65.0882 3.99389 65.973 4.58648 66.7198 5.3333C67.4585 6.08013 68.0592 6.95684 68.4814 7.94719C68.9116 8.93755 69.1226 10.0172 69.1226 11.1455C69.1226 12.2739 68.9116 13.3454 68.4814 14.3439Z" fill="url(#paint2_linear_58_134)"/>
<path d="M68.4825 7.9472C68.0604 6.95684 67.4597 6.08013 66.721 5.33331C65.9742 4.58648 65.0893 3.99389 64.099 3.56366C63.1086 3.14154 62.0371 2.92236 60.9087 2.92236C59.7804 2.92236 58.7007 3.14154 57.7104 3.56366C56.72 3.99389 55.8352 4.58648 55.0965 5.33331C54.3497 6.08013 53.7571 6.95684 53.3268 7.9472C52.9047 8.93755 52.6855 10.0172 52.6855 11.1456C52.6855 12.2739 52.9047 13.3536 53.3268 14.3439C53.7571 15.3343 54.3497 16.211 55.0965 16.9578C55.8352 17.7046 56.72 18.2972 57.7104 18.7193C58.7007 19.1496 59.7804 19.3687 60.9087 19.3687C62.0371 19.3687 63.1086 19.1496 64.099 18.7193C65.0893 18.2972 65.9742 17.7046 66.721 16.9578C67.4597 16.211 68.0604 15.3343 68.4825 14.3439C68.9128 13.3454 69.1238 12.2739 69.1238 11.1456C69.1238 10.0172 68.9128 8.93755 68.4825 7.9472ZM60.9087 18.0537C59.9509 18.0537 59.0417 17.8751 58.2137 17.5179C57.3938 17.1526 56.6551 16.6574 56.0219 16.0243C55.3968 15.3992 54.8936 14.6605 54.5364 13.8325C54.1792 13.0045 54.0006 12.1034 54.0006 11.1456C54.0006 10.1877 54.1792 9.27849 54.5364 8.45861C54.8936 7.63061 55.3968 6.8919 56.0219 6.26684C56.6551 5.63366 57.3938 5.13037 58.2137 4.77319C59.0417 4.41601 59.9509 4.23742 60.9087 4.23742C61.8585 4.23742 62.7677 4.41601 63.5957 4.77319C64.4156 5.13037 65.1543 5.63366 65.7875 6.26684C66.4125 6.8919 66.9158 7.63061 67.273 8.45861C67.6302 9.28661 67.8169 10.1877 67.8169 11.1456C67.8169 12.1034 67.6302 13.0045 67.273 13.8325C66.9158 14.6605 66.4125 15.3992 65.7875 16.0243C65.1543 16.6574 64.4156 17.1526 63.5957 17.5179C62.7677 17.8751 61.8585 18.0537 60.9087 18.0537Z" fill="white"/>
<path d="M95.2132 6.81072C94.6287 5.46319 93.8332 4.26989 92.8266 3.2633C91.82 2.26483 90.6267 1.45306 89.2792 0.876707C87.9236 0.292236 86.4705 0 84.9444 0C83.4183 0 81.9571 0.292236 80.6095 0.876707C79.2539 1.45306 78.0606 2.26483 77.0621 3.2633C76.0555 4.26989 75.2519 5.46319 74.6755 6.81072C74.0911 8.16637 73.7988 9.61943 73.7988 11.1455C73.7988 12.6717 74.0911 14.1247 74.6755 15.4804C75.2519 16.8279 76.0555 18.0212 77.0621 19.0278C78.0606 20.0344 79.2539 20.8299 80.6095 21.4144C81.9652 21.9989 83.4183 22.2911 84.9444 22.2911C86.4624 22.2911 87.9236 21.9989 89.2792 21.4144C90.6267 20.8299 91.82 20.0344 92.8266 19.0278C93.8332 18.0212 94.6287 16.8279 95.2132 15.4804C95.7977 14.1247 96.0899 12.6636 96.0899 11.1455C96.0899 9.61943 95.7977 8.16637 95.2132 6.81072ZM91.3167 8.4586C90.9514 7.6306 90.4563 6.89189 89.8231 6.26683C89.198 5.63366 88.4593 5.13036 87.6313 4.77319C86.8033 4.41601 85.9023 4.23742 84.9444 4.23742C83.9865 4.23742 83.0773 4.41601 82.2574 4.77319C81.4294 5.13036 80.6907 5.63366 80.0657 6.26683C79.4325 6.89189 78.9373 7.6306 78.572 8.4586C78.2148 9.27849 78.0281 10.1877 78.0281 11.1455C78.0281 12.1034 78.2148 13.0045 78.572 13.8325C78.9292 14.6605 79.4325 15.3992 80.0657 16.0243C80.6907 16.6574 81.4294 17.1526 82.2574 17.5179C83.0773 17.8751 83.9865 18.0537 84.9444 18.0537C85.9023 18.0537 86.8033 17.8751 87.6313 17.5179C88.4593 17.1526 89.198 16.6574 89.8231 16.0243C90.4563 15.3992 90.9514 14.6605 91.3167 13.8325C91.6739 13.0045 91.8525 12.1034 91.8525 11.1455C91.8525 10.1877 91.6739 9.2866 91.3167 8.4586ZM88.7272 12.7447C88.5161 13.2399 88.2158 13.6783 87.8424 14.0517C87.4771 14.417 87.0387 14.7173 86.5436 14.9365C85.5532 15.3586 84.3356 15.3586 83.3452 14.9365C82.85 14.7173 82.4117 14.417 82.0383 14.0517C81.673 13.6783 81.3726 13.2399 81.1615 12.7447C80.9424 12.2496 80.8368 11.7138 80.8368 11.1455C80.8368 10.5854 80.9424 10.0415 81.1615 9.54637C81.3726 9.05119 81.673 8.61284 82.0383 8.23943C82.4117 7.87413 82.85 7.5819 83.3452 7.36272C83.8404 7.14354 84.3843 7.03801 84.9444 7.03801C85.5045 7.03801 86.0484 7.14354 86.5436 7.36272C87.0387 7.5819 87.4771 7.87413 87.8424 8.23943C88.2158 8.61284 88.5161 9.05119 88.7272 9.54637C88.9383 10.0497 89.0519 10.5854 89.0519 11.1455C89.0519 11.7138 88.9383 12.2496 88.7272 12.7447ZM92.5182 14.3439C92.0879 15.3343 91.5034 16.211 90.7566 16.9578C90.0098 17.7046 89.1331 18.2972 88.1427 18.7193C87.1524 19.1496 86.0727 19.3687 84.9444 19.3687C83.816 19.3687 82.7364 19.1496 81.746 18.7193C80.7557 18.2972 79.879 17.7046 79.1321 16.9578C78.3853 16.211 77.7927 15.3343 77.3625 14.3439C76.9404 13.3536 76.7212 12.2739 76.7212 11.1455C76.7212 10.0172 76.9404 8.93755 77.3625 7.94719C77.7927 6.95684 78.3853 6.08013 79.1321 5.3333C79.879 4.58648 80.7557 3.99389 81.746 3.56365C82.7364 3.14154 83.816 2.92236 84.9444 2.92236C86.0727 2.92236 87.1524 3.14154 88.1427 3.56365C89.1331 3.99389 90.0098 4.58648 90.7566 5.3333C91.5034 6.08013 92.0879 6.95684 92.5182 7.94719C92.9484 8.93755 93.1595 10.0172 93.1595 11.1455C93.1595 12.2739 92.9484 13.3454 92.5182 14.3439Z" fill="url(#paint3_linear_58_134)"/>
<path d="M92.5177 7.9472C92.0874 6.95684 91.503 6.08013 90.7561 5.33331C90.0093 4.58648 89.1326 3.99389 88.1423 3.56366C87.1519 3.14154 86.0723 2.92236 84.9439 2.92236C83.8155 2.92236 82.7359 3.14154 81.7455 3.56366C80.7552 3.99389 79.8785 4.58648 79.1316 5.33331C78.3848 6.08013 77.7922 6.95684 77.362 7.9472C76.9399 8.93755 76.7207 10.0172 76.7207 11.1456C76.7207 12.2739 76.9399 13.3536 77.362 14.3439C77.7922 15.3343 78.3848 16.211 79.1316 16.9578C79.8785 17.7046 80.7552 18.2972 81.7455 18.7193C82.7359 19.1496 83.8155 19.3687 84.9439 19.3687C86.0723 19.3687 87.1519 19.1496 88.1423 18.7193C89.1326 18.2972 90.0093 17.7046 90.7561 16.9578C91.503 16.211 92.0874 15.3343 92.5177 14.3439C92.9479 13.3454 93.159 12.2739 93.159 11.1456C93.159 10.0172 92.9479 8.93755 92.5177 7.9472ZM84.9439 18.0537C83.986 18.0537 83.0768 17.8751 82.2569 17.5179C81.4289 17.1526 80.6902 16.6574 80.0652 16.0243C79.432 15.3992 78.9287 14.6605 78.5715 13.8325C78.2144 13.0045 78.0276 12.1034 78.0276 11.1456C78.0276 10.1877 78.2144 9.27849 78.5715 8.45861C78.9368 7.63061 79.432 6.8919 80.0652 6.26684C80.6902 5.63366 81.4289 5.13037 82.2569 4.77319C83.0768 4.41601 83.986 4.23742 84.9439 4.23742C85.9018 4.23742 86.8028 4.41601 87.6308 4.77319C88.4588 5.13037 89.1976 5.63366 89.8226 6.26684C90.4558 6.8919 90.951 7.63061 91.3163 8.45861C91.6734 9.28661 91.852 10.1877 91.852 11.1456C91.852 12.1034 91.6734 13.0045 91.3163 13.8325C90.951 14.6605 90.4558 15.3992 89.8226 16.0243C89.1976 16.6574 88.4588 17.1526 87.6308 17.5179C86.8028 17.8751 85.9018 18.0537 84.9439 18.0537Z" fill="white"/>
<path d="M114.707 0.495239L109.447 8.27196L104.171 0.495239H98.3096V21.7635H105.437V14.8554L109.447 20.7163L113.441 14.8554V21.7635H120.568V0.495239H114.707ZM117.459 19.2714H116.144V5.54442L109.447 15.3262L102.726 5.53631V19.2714H101.419V2.98736H102.612L109.447 13.037L116.258 2.98736H117.459V19.2714Z" fill="url(#paint4_linear_58_134)"/>
<path d="M117.457 2.98743V19.2715H116.142V5.54449L109.445 15.3263L102.724 5.53637V19.2715H101.417V2.98743H102.61L109.445 13.0371L116.256 2.98743H117.457Z" fill="white"/>
<path d="M147.053 12.1279C147.751 11.2674 148.108 10.1391 148.108 8.78344C148.108 7.83367 147.921 6.98132 147.548 6.26696C147.182 5.55261 146.671 4.94378 146.03 4.45672C145.397 3.97778 144.634 3.60437 143.789 3.35272C142.937 3.10919 142.003 2.98743 141.005 2.98743H137.393V19.2715H138.708V14.5389H141.005C141.768 14.5389 142.523 14.4658 143.245 14.3197L146.192 19.2715H147.734L144.552 13.9219C145.575 13.516 146.419 12.9153 147.053 12.1279ZM138.708 4.23755H141.005C142.823 4.23755 144.268 4.63531 145.291 5.43084C146.306 6.21826 146.793 7.30602 146.793 8.78344C146.793 10.2446 146.306 11.3405 145.291 12.1117C144.268 12.8991 142.831 13.2969 141.005 13.2969H138.708V4.23755Z" fill="white"/>
<path d="M148.498 14.7336C148.961 14.3764 149.391 13.9381 149.765 13.4429C150.138 12.9558 150.471 12.3227 150.763 11.5758C151.063 10.829 151.218 9.90361 151.218 8.84019C151.218 7.5089 150.982 6.29937 150.495 5.26842C150.016 4.22936 149.334 3.34454 148.482 2.6383C147.63 1.93207 146.607 1.3963 145.462 1.03912C144.309 0.673828 143.035 0.495239 141.696 0.495239H134.284V21.7635H141.411V17.1689L144.131 21.7635H152.484L148.498 14.7336ZM145.292 5.43078C144.269 4.63525 142.824 4.23748 141.006 4.23748H138.708V13.2968H141.006C142.832 13.2968 144.269 12.899 145.292 12.1116C146.306 11.3404 146.793 10.2445 146.793 8.78337C146.793 7.30596 146.306 6.21819 145.292 5.43078ZM143.376 10.2202C142.873 10.5449 142.239 10.7073 141.501 10.7073H141.411V6.59972H141.501C142.239 6.59972 142.873 6.77019 143.376 7.08678C143.855 7.40337 144.082 7.90666 144.082 8.65349C144.082 9.40031 143.855 9.91984 143.376 10.2202ZM147.735 19.2714H146.193L143.246 14.3196C142.524 14.4657 141.769 14.5388 141.006 14.5388H138.708V19.2714H137.393V2.98736H141.006C142.004 2.98736 142.938 3.10913 143.79 3.35266C144.634 3.6043 145.397 3.97772 146.03 4.45666C146.672 4.94372 147.183 5.55254 147.548 6.2669C147.922 6.98125 148.109 7.8336 148.109 8.78337C148.109 10.139 147.751 11.2674 147.053 12.1278C146.42 12.9153 145.576 13.516 144.553 13.9219L147.735 19.2714Z" fill="url(#paint5_linear_58_134)"/>
<path d="M167.882 2.98743V13.7271C167.882 15.5373 167.379 16.9417 166.38 17.9077C165.382 18.8737 163.945 19.3689 162.127 19.3689C160.3 19.3689 158.871 18.8737 157.889 17.9077C156.891 16.9417 156.396 15.5373 156.396 13.7271V2.98743H157.711V13.7271C157.711 16.6413 159.156 18.0538 162.127 18.0538C165.098 18.0538 166.543 16.6413 166.543 13.7271V2.98743H167.882Z" fill="white"/>
<path d="M163.833 0.495239V13.6702C163.833 14.3277 163.703 14.8391 163.443 15.1801C163.192 15.4967 162.745 15.659 162.128 15.659C161.503 15.659 161.065 15.4967 160.813 15.1801C160.553 14.8391 160.415 14.3277 160.415 13.6702V0.495239H153.288V13.9462C153.288 15.3424 153.491 16.5763 153.905 17.6154C154.327 18.6707 154.928 19.5474 155.699 20.2374C156.47 20.9193 157.412 21.4388 158.5 21.7797C159.579 22.1207 160.797 22.2912 162.128 22.2912C163.451 22.2912 164.669 22.1207 165.749 21.7797C166.836 21.4388 167.778 20.9274 168.566 20.2374C169.345 19.5474 169.954 18.6707 170.376 17.6154C170.79 16.5763 171.001 15.3424 171.001 13.9462V0.495239H163.833ZM167.884 13.727C167.884 15.5373 167.38 16.9416 166.382 17.9076C165.383 18.8736 163.947 19.3688 162.128 19.3688C160.302 19.3688 158.873 18.8736 157.891 17.9076C156.892 16.9416 156.397 15.5373 156.397 13.727V2.98736H157.712V13.727C157.712 16.6413 159.157 18.0537 162.128 18.0537C165.099 18.0537 166.544 16.6413 166.544 13.727V2.98736H167.884V13.727Z" fill="url(#paint6_linear_58_134)"/>
<path d="M127.612 13.8812C125.258 13.8812 123.351 15.7889 123.351 18.143C123.351 20.4971 125.258 22.4048 127.612 22.4048C129.966 22.4048 131.874 20.4971 131.874 18.143C131.874 15.7889 129.966 13.8812 127.612 13.8812ZM127.612 19.8802C126.654 19.8802 125.875 19.1009 125.875 18.143C125.875 17.1851 126.654 16.4058 127.612 16.4058C128.57 16.4058 129.35 17.1851 129.35 18.143C129.35 19.1009 128.57 19.8802 127.612 19.8802Z" fill="url(#paint7_linear_58_134)"/>
<path d="M129.347 18.1432C129.347 19.1011 128.568 19.8804 127.61 19.8804C126.652 19.8804 125.873 19.1011 125.873 18.1432C125.873 17.1853 126.652 16.406 127.61 16.406C128.568 16.406 129.347 17.1853 129.347 18.1432Z" fill="white"/>
<path d="M25.7216 2.98724L20.3558 19.2713H19.2112L15.2579 6.80254L11.3046 19.2713H10.1519L4.78613 2.98724H6.15802L10.7039 16.771L15.2579 2.41089L19.8038 16.771L24.3497 2.98724H25.7216Z" fill="white"/>
<defs>
<linearGradient id="paint0_linear_58_134" x1="9.01676" y1="21.7632" x2="9.01708" y2="0.496457" gradientUnits="userSpaceOnUse">
<stop stop-color="#006832"/>
<stop offset="0.211765" stop-color="#037F39"/>
<stop offset="1" stop-color="#07C840"/>
</linearGradient>
<linearGradient id="paint1_linear_58_134" x1="40.1801" y1="0.495239" x2="40.1801" y2="21.7635" gradientUnits="userSpaceOnUse">
<stop stop-color="#08C740"/>
<stop offset="0.723958" stop-color="#037F39"/>
<stop offset="1" stop-color="#016C34"/>
</linearGradient>
<linearGradient id="paint2_linear_58_134" x1="60.9035" y1="0" x2="60.9035" y2="22.2911" gradientUnits="userSpaceOnUse">
<stop stop-color="#08C740"/>
<stop offset="0.723958" stop-color="#037F39"/>
<stop offset="1" stop-color="#016C34"/>
</linearGradient>
<linearGradient id="paint3_linear_58_134" x1="84.9444" y1="0" x2="84.9444" y2="22.2911" gradientUnits="userSpaceOnUse">
<stop stop-color="#08C740"/>
<stop offset="0.723958" stop-color="#037F39"/>
<stop offset="1" stop-color="#016C34"/>
</linearGradient>
<linearGradient id="paint4_linear_58_134" x1="109.439" y1="0.495239" x2="109.439" y2="21.7635" gradientUnits="userSpaceOnUse">
<stop stop-color="#08C740"/>
<stop offset="0.723958" stop-color="#037F39"/>
<stop offset="1" stop-color="#016C34"/>
</linearGradient>
<linearGradient id="paint5_linear_58_134" x1="143.384" y1="0.495239" x2="143.384" y2="21.7635" gradientUnits="userSpaceOnUse">
<stop stop-color="#08C740"/>
<stop offset="0.723958" stop-color="#037F39"/>
<stop offset="1" stop-color="#016C34"/>
</linearGradient>
<linearGradient id="paint6_linear_58_134" x1="162.144" y1="0.495239" x2="162.144" y2="22.2912" gradientUnits="userSpaceOnUse">
<stop stop-color="#08C740"/>
<stop offset="0.723958" stop-color="#037F39"/>
<stop offset="1" stop-color="#016C34"/>
</linearGradient>
<linearGradient id="paint7_linear_58_134" x1="127.612" y1="13.8812" x2="127.612" y2="22.4048" gradientUnits="userSpaceOnUse">
<stop stop-color="#08C740"/>
<stop offset="0.723958" stop-color="#037F39"/>
<stop offset="1" stop-color="#016C34"/>
</linearGradient>
</defs>
</svg>
