<svg width="173" height="65" viewBox="0 0 173 65" fill="none" xmlns="http://www.w3.org/2000/svg">
<g filter="url(#filter0_d_53_1390)">
<path d="M95.3335 26.9696V35.9806C95.3335 37.9438 94.4002 38.9736 92.7911 38.9736C91.0532 38.9736 90.12 37.9438 90.12 35.9806V26.9696H85.4857V36.4634C85.4857 40.6149 88.2534 43.286 92.6624 43.286C97.0714 43.286 99.9678 40.6149 99.9678 36.4634V26.9696H95.3335ZM60.834 36.0128C60.834 37.9759 59.9007 39.0058 58.2916 39.0058C56.5538 39.0058 55.6205 37.9759 55.6205 36.0128V27.0018H50.9862V36.4956C50.9862 40.6471 53.7539 43.3182 58.1629 43.3182C62.5719 43.3182 65.4683 40.6471 65.4683 36.4956V26.9696H60.834V36.0128ZM29.1344 36.0128C29.1344 37.9759 28.2011 39.0058 26.592 39.0058C24.8542 39.0058 23.9209 37.9759 23.9209 36.0128V27.0018H19.2866V36.4956C19.2866 40.6471 22.0543 43.3182 26.4633 43.3182C30.8723 43.3182 33.7687 40.6471 33.7687 36.4956V26.9696H29.1344V36.0128ZM74.3828 33.921V42.932H79.0171V34.1462C79.0171 32.4084 79.8216 31.4751 81.4307 31.4751C81.7847 31.4751 82.5893 31.4751 83.2973 31.7004V26.9696C82.8468 26.8409 82.2675 26.7443 81.6882 26.7443C76.7965 26.7443 74.3828 29.1902 74.3828 33.921ZM43.1337 34.4037V31.282H46.706L47.8645 26.9696H43.1337V23.0433H38.4995V26.9696H36.5364V31.2498H38.4995V34.7255C38.4995 40.1643 41.2672 43.0608 46.6094 43.0608H48.2185V38.6518H47.06C44.2923 38.684 43.1337 37.3967 43.1337 34.4037ZM11.4019 34.4037V31.282H14.9742L16.1327 27.0018H11.4019V23.0755H6.76768V26.9696H4V31.2498H6.76768V34.7255C6.76768 40.1643 9.53536 43.0608 14.8776 43.0608H16.4868V38.6518H15.3282C12.5605 38.684 11.4019 37.3967 11.4019 34.4037Z" fill="black"/>
</g>
<path d="M127.129 58.7979C99.9992 65.8458 77.7934 54.7429 71.196 41.0333C70.8818 40.5198 70.3871 40.1423 69.8089 39.9748C69.2307 39.8073 68.6108 39.8619 68.0708 40.1279C67.5308 40.3939 67.1097 40.852 66.89 41.4125C66.6704 41.9729 66.6681 42.5952 66.8836 43.1573C74.3499 58.0577 100.514 71.5743 132.664 60.6323C130.749 60.2564 128.889 59.64 127.129 58.7979Z" fill="url(#paint0_linear_53_1390)"/>
<path d="M141.289 57.0922C144.958 55.2817 148.44 53.1151 151.684 50.6235C149.753 50.881 147.597 51.0419 145.312 51.1385C141.84 53.2671 138.177 55.0664 134.37 56.5129C136.643 56.9943 138.968 57.189 141.289 57.0922Z" fill="#00DCFF"/>
<path d="M160.212 48.4673C150.847 59.2484 132.503 59.9564 122.591 50.4626C121.705 49.642 120.867 48.7717 120.081 47.8558C119.083 47.888 116.251 47.888 113.998 47.2122C118.177 53.9781 124.865 58.8146 132.599 60.6644C139.94 62.3947 147.654 61.5186 154.419 58.1863C160.564 55.0622 165.392 49.8467 168.032 43.479C167.936 43.6399 165.071 46.5363 160.212 48.4673Z" fill="url(#paint1_linear_53_1390)"/>
<path d="M158.603 44.2514C162.079 40.3895 164.879 35.9483 166.552 30.9923C167.775 27.42 167.711 26.0362 167.679 22.6892C166.777 24.1374 165.49 25.9396 164.267 27.4844C163.215 31.8119 161.263 35.8692 158.539 39.3918C156.808 41.7297 154.822 43.867 152.617 45.7639C152.617 45.7318 155.61 45.3456 158.603 44.2514Z" fill="#00DCFF"/>
<path d="M163.977 19.8894L164.267 19.4388C163.891 17.6996 163.25 16.0282 162.368 14.4827V14.4506C151.459 6.5337 132.31 5.11768 119.695 13.3242C119.598 13.3885 116.315 17.4435 114.867 22.0134C127.611 6.08315 154.13 8.62555 163.977 19.8894Z" fill="url(#paint2_linear_53_1390)"/>
<path d="M163.817 20.179C157.702 17.9584 147.565 16.9929 138.103 19.0526C128.905 21.1486 120.437 25.6716 113.58 32.1508C113.677 33.6312 113.902 35.2725 114.32 36.8494C116.509 33.599 119.727 31.2175 120.435 30.5739C131.216 22.1421 143.928 18.7308 157.863 21.1766C158.314 21.2732 160.47 21.6915 162.24 22.303C163.044 21.3375 163.785 20.179 163.817 20.179Z" fill="url(#paint3_linear_53_1390)"/>
<path d="M111.295 33.8565C112.101 35.871 113.369 37.6679 114.996 39.1022C113.078 33.5875 113.021 27.5956 114.835 22.0456C116.007 18.9435 117.623 16.0275 119.631 13.3885C121.401 11.1358 123.557 9.26919 125.938 7.72444C129.341 5.61986 133.152 4.26188 137.119 3.74038C141.085 3.21887 145.118 3.54572 148.949 4.6993C151.931 5.39103 154.727 6.72192 157.144 8.6C159.561 10.4781 161.541 12.8586 162.948 15.5769C163.521 16.8037 163.963 18.0873 164.268 19.4066C164.718 18.6664 165.33 17.6688 165.587 17.0895C165.845 16.6389 166.231 16.2849 166.649 16.0918C159.247 -4.98759 121.079 -7.14381 111.006 20.3721C110.837 20.8921 110.686 21.4181 110.555 21.949C110.491 22.4961 108.689 27.935 111.295 33.8565Z" fill="url(#paint4_linear_53_1390)"/>
<path d="M170.64 27.227C170.575 26.5511 170.189 25.2317 170.157 25.1029C169.753 23.7442 169.191 22.4373 168.484 21.2089L167.647 22.6893C167.647 22.6893 167.679 26.004 167.454 27.5166C167.775 29.5763 167.711 31.7647 167.325 33.8565C166.915 36.021 166.245 38.1281 165.33 40.1321L165.008 40.8401C165.909 40.0999 166.713 39.2632 167.357 38.3621C169.352 35.53 171.026 30.6383 170.64 27.227Z" fill="#0086FF"/>
<path d="M109.139 38.2332C109.832 39.3967 110.759 40.4037 111.862 41.1903C112.964 41.977 114.218 42.5262 115.543 42.8031C116.927 43.0928 118.987 43.1571 121.208 42.8997C119.041 42.1263 117.052 40.9241 115.36 39.3648C113.668 37.8055 112.307 35.9211 111.36 33.8243C109.987 30.0172 109.73 25.8971 110.62 21.949L110.298 22.4317C107.112 27.3878 106.243 33.0519 109.139 38.2332Z" fill="url(#paint5_linear_53_1390)"/>
<path d="M168.579 16.2207C168.061 15.9545 167.459 15.8997 166.901 16.0677C166.343 16.2357 165.872 16.6135 165.586 17.1218C165.168 17.9585 164.042 19.7929 163.752 20.2434C161.79 23.0691 159.451 25.6136 156.801 27.8063C143.477 39.0701 122.559 44.348 115.575 42.8354C114.248 42.5622 112.993 42.0145 111.89 41.2275C110.787 40.4405 109.861 39.4316 109.171 38.2656C108.044 41.1942 108.72 43.7044 110.522 45.3457C114.964 49.465 124.49 47.7272 130.347 46.2146C141.578 43.3182 151.523 39.3276 160.148 31.6682C165.973 26.4546 167.839 22.6571 169.609 19.0849C170.028 18.0229 169.609 16.7678 168.579 16.2207Z" fill="url(#paint6_linear_53_1390)"/>
<path d="M170.156 25.1029C170.124 25.0708 170.543 26.5511 170.607 27.227C170.993 30.6383 169.32 35.53 167.357 38.3299C164.299 42.6745 157.863 44.8951 152.585 45.6996C145.738 46.5818 138.806 46.5926 131.956 45.7318L130.282 46.1502C125.165 47.4053 121.239 47.7593 121.239 47.7593C132.246 52.0396 148.626 51.8143 156.415 49.6902C171.862 45.6353 176.207 33.406 170.156 25.1029Z" fill="url(#paint7_linear_53_1390)"/>
<defs>
<filter id="filter0_d_53_1390" x="0" y="23.0433" width="103.968" height="28.2749" filterUnits="userSpaceOnUse" color-interpolation-filters="sRGB">
<feFlood flood-opacity="0" result="BackgroundImageFix"/>
<feColorMatrix in="SourceAlpha" type="matrix" values="0 0 0 0 0 0 0 0 0 0 0 0 0 0 0 0 0 0 127 0" result="hardAlpha"/>
<feOffset dy="4"/>
<feGaussianBlur stdDeviation="2"/>
<feComposite in2="hardAlpha" operator="out"/>
<feColorMatrix type="matrix" values="0 0 0 0 0 0 0 0 0 0 0 0 0 0 0 0 0 0 0.25 0"/>
<feBlend mode="normal" in2="BackgroundImageFix" result="effect1_dropShadow_53_1390"/>
<feBlend mode="normal" in="SourceGraphic" in2="effect1_dropShadow_53_1390" result="shape"/>
</filter>
<linearGradient id="paint0_linear_53_1390" x1="66.6583" y1="52.1683" x2="132.697" y2="52.1683" gradientUnits="userSpaceOnUse">
<stop stop-color="#00B4FF"/>
<stop offset="1" stop-color="#00DCFF"/>
</linearGradient>
<linearGradient id="paint1_linear_53_1390" x1="114.03" y1="52.5222" x2="168.064" y2="52.5222" gradientUnits="userSpaceOnUse">
<stop stop-color="#0093FF"/>
<stop offset="1" stop-color="#0086FF"/>
</linearGradient>
<linearGradient id="paint2_linear_53_1390" x1="114.867" y1="14.9333" x2="164.267" y2="14.9333" gradientUnits="userSpaceOnUse">
<stop stop-color="#0093FF" stop-opacity="0.8"/>
<stop offset="0.1" stop-color="#0A97FF" stop-opacity="0.8"/>
<stop offset="0.3" stop-color="#169CFF" stop-opacity="0.7"/>
<stop offset="0.5" stop-color="#1A9EFF" stop-opacity="0.6"/>
<stop offset="0.7" stop-color="#169BFF" stop-opacity="0.7"/>
<stop offset="0.9" stop-color="#0C91FF" stop-opacity="0.8"/>
<stop offset="1" stop-color="#0086FF" stop-opacity="0.8"/>
</linearGradient>
<linearGradient id="paint3_linear_53_1390" x1="113.58" y1="27.3878" x2="163.817" y2="27.3878" gradientUnits="userSpaceOnUse">
<stop stop-color="#4C67FF" stop-opacity="0.8"/>
<stop offset="0.1" stop-color="#476BFF" stop-opacity="0.8"/>
<stop offset="0.3" stop-color="#3973FF" stop-opacity="0.7"/>
<stop offset="0.5" stop-color="#3576FF" stop-opacity="0.6"/>
<stop offset="0.7" stop-color="#3179FF" stop-opacity="0.7"/>
<stop offset="0.9" stop-color="#2481FF" stop-opacity="0.8"/>
<stop offset="1" stop-color="#1E85FF" stop-opacity="0.8"/>
</linearGradient>
<linearGradient id="paint4_linear_53_1390" x1="109.879" y1="19.5675" x2="166.681" y2="19.5675" gradientUnits="userSpaceOnUse">
<stop stop-color="#0096FF"/>
<stop offset="1" stop-color="#00DCFF"/>
</linearGradient>
<linearGradient id="paint5_linear_53_1390" x1="114.288" y1="21.9812" x2="114.288" y2="43.0928" gradientUnits="userSpaceOnUse">
<stop stop-color="#00A6FF"/>
<stop offset="0.1" stop-color="#009AFF"/>
<stop offset="0.3" stop-color="#008CFF"/>
<stop offset="0.6" stop-color="#0083FF"/>
<stop offset="1" stop-color="#0081FF"/>
</linearGradient>
<linearGradient id="paint6_linear_53_1390" x1="108.592" y1="31.9256" x2="169.738" y2="31.9256" gradientUnits="userSpaceOnUse">
<stop offset="0.1" stop-color="#4057FF"/>
<stop offset="0.5" stop-color="#AA5CFF"/>
<stop offset="1" stop-color="#FF3F68"/>
</linearGradient>
<linearGradient id="paint7_linear_53_1390" x1="121.271" y1="38.1368" x2="172.795" y2="38.1368" gradientUnits="userSpaceOnUse">
<stop stop-color="#0081FF"/>
<stop offset="1" stop-color="#0073FF"/>
</linearGradient>
</defs>
</svg>
