<svg width="160" height="21" viewBox="0 0 160 21" fill="none" xmlns="http://www.w3.org/2000/svg">
<path fill-rule="evenodd" clip-rule="evenodd" d="M125.147 4.59558C120.983 4.59558 117.618 7.80961 117.618 11.7866C117.618 15.7636 120.983 18.9777 125.147 18.9777C129.311 18.9777 132.676 15.7636 132.676 11.7866C132.676 7.80961 129.311 4.59558 125.147 4.59558ZM125.147 16.5961C122.581 16.5961 120.475 14.4457 120.475 11.8097C120.475 9.15065 122.557 7.02345 125.147 7.02345C127.713 7.02345 129.82 9.17375 129.82 11.8097C129.82 14.4457 127.738 16.5961 125.147 16.5961ZM82.5624 5.08107C83.2887 5.40484 83.6034 6.2141 83.2645 6.90777L80.8678 11.7403C80.8678 11.7519 80.8616 11.7577 80.8556 11.7634C80.8496 11.7692 80.8435 11.775 80.8435 11.7865C80.8435 11.7981 80.8496 11.8039 80.8556 11.8097C80.8616 11.8155 80.8678 11.8212 80.8678 11.8328L83.2403 16.6885C83.555 17.3821 83.2645 18.1914 82.5382 18.5152C81.8119 18.8158 80.9646 18.5383 80.6257 17.8446L78.2531 12.989V12.9658H74.7669V17.2434C74.7669 17.9833 74.1132 18.6077 73.3386 18.6077C72.5638 18.6077 71.9102 18.0065 71.9102 17.2434V12.2721V11.2548V6.2835C71.9102 5.54354 72.5638 4.91927 73.3386 4.91927C74.1132 4.91927 74.7669 5.52044 74.7669 6.2835V10.5842H78.2773L80.6499 5.75163C80.9887 5.05796 81.8361 4.75738 82.5624 5.08107ZM111.372 6.3066C111.372 5.56673 112.001 4.94237 112.8 4.94237C113.599 4.94237 114.229 5.56673 114.229 6.3066V17.2665C114.229 18.0065 113.599 18.6308 112.8 18.6308C112.025 18.6308 111.372 18.0296 111.372 17.2665V12.989H105.634V17.2665C105.634 18.0065 105.004 18.6308 104.206 18.6308C103.431 18.6308 102.777 18.0296 102.777 17.2665V6.3066C102.777 5.56673 103.407 4.94237 104.206 4.94237C104.98 4.94237 105.634 5.54363 105.634 6.3066V10.5843H111.372V6.3066ZM94.3039 5.63612C94.3282 5.65923 94.3516 5.70543 94.3758 5.75172L99.7512 16.6423C100.066 17.3359 99.7754 18.1453 99.0491 18.469C98.3228 18.7696 97.4752 18.4921 97.1363 17.7984L95.9498 15.3706H90.2608L89.0743 17.7984C88.7353 18.4921 87.888 18.7927 87.1617 18.469C86.4354 18.1453 86.1206 17.3359 86.4596 16.6423L91.7862 5.72862C91.7979 5.70543 91.8096 5.68808 91.8221 5.67082C91.8338 5.65347 91.8464 5.63612 91.8581 5.61293C91.8707 5.58983 91.8824 5.57248 91.8949 5.55514C91.9066 5.53779 91.9192 5.52044 91.9309 5.49734C91.9651 5.48125 91.9866 5.45392 92.0055 5.43091C92.0136 5.42102 92.0208 5.41185 92.028 5.40484L92.0522 5.38174L92.1251 5.31235C92.1251 5.31235 92.1493 5.28925 92.1493 5.31235C92.161 5.30084 92.1727 5.295 92.1853 5.28925C92.197 5.28349 92.2096 5.27774 92.2212 5.26615C92.2455 5.25455 92.2635 5.24304 92.2824 5.23145C92.3003 5.21985 92.3183 5.20835 92.3426 5.19675C92.3426 5.17365 92.3669 5.17365 92.3669 5.17365C92.3785 5.16205 92.3974 5.1563 92.4154 5.15055C92.4334 5.14471 92.4513 5.13895 92.4639 5.12736C92.4756 5.12736 92.4819 5.12161 92.4882 5.11585C92.4936 5.1101 92.4999 5.10426 92.5125 5.10426C92.5242 5.10426 92.5358 5.0985 92.5484 5.09275C92.5601 5.08691 92.5727 5.08116 92.5844 5.08116C92.597 5.08116 92.6087 5.0754 92.6212 5.06956C92.6329 5.06381 92.6455 5.05805 92.6572 5.05805C92.6815 5.03495 92.7057 5.03495 92.73 5.03495C92.7543 5.01176 92.7785 5.01176 92.8028 5.01176H92.8513H92.9233H92.9961H93.0689H93.1417H93.2145H93.2864H93.3349C93.3592 5.03495 93.3835 5.03495 93.4078 5.03495C93.4203 5.03495 93.432 5.04071 93.4437 5.04646C93.4563 5.05221 93.468 5.05805 93.4806 5.05805C93.4923 5.05805 93.5048 5.06381 93.5165 5.06956C93.5291 5.0754 93.5408 5.08116 93.5534 5.08116C93.5651 5.08116 93.5776 5.08691 93.5893 5.09275C93.6019 5.0985 93.6136 5.10426 93.6253 5.10426C93.6379 5.10426 93.6442 5.1101 93.6496 5.11585C93.6558 5.12161 93.6621 5.12736 93.6738 5.12736C93.6864 5.13895 93.7044 5.14471 93.7224 5.15055C93.7403 5.1563 93.7592 5.16205 93.7709 5.17365C93.7709 5.19675 93.7952 5.19675 93.7952 5.19675C93.8194 5.20835 93.8374 5.21985 93.8554 5.23145C93.8743 5.24304 93.8923 5.25455 93.9165 5.26615C93.9408 5.26615 93.9651 5.28925 93.9884 5.31235C94.0127 5.31235 94.0127 5.31235 94.037 5.33545L94.1098 5.40484L94.1341 5.42803C94.1907 5.46417 94.2329 5.5288 94.2716 5.58839L94.2725 5.58875C94.2824 5.60511 94.2932 5.62111 94.3039 5.63612ZM93.0689 9.59002L91.3988 13.0121H94.739L93.0689 9.59002ZM159.162 5.08116C158.435 4.75747 157.589 5.05805 157.25 5.75172L154.248 11.9022L151.245 5.75172C150.906 5.05805 150.059 4.78057 149.332 5.08116C148.606 5.40484 148.316 6.21419 148.63 6.90786L152.576 14.9775C152.583 14.9884 152.588 15.0006 152.594 15.0135C152.614 15.0552 152.637 15.104 152.674 15.1393L151.923 16.6886C151.584 17.3822 151.899 18.1915 152.625 18.5152C153.351 18.839 154.199 18.5384 154.538 17.8447L159.864 6.93096C160.203 6.21419 159.888 5.38174 159.162 5.08116ZM138.923 10.5842H143.329C145.677 10.5842 147.541 12.3878 147.517 14.5844C147.517 16.8041 145.628 18.6077 143.305 18.6077H137.59H137.566H137.494C136.719 18.6077 136.066 18.0065 136.066 17.2434V6.2835C136.066 5.54354 136.695 4.91927 137.494 4.91927H137.566H137.59H144.829C145.58 4.91927 146.161 5.52044 146.088 6.2372C146.016 6.86148 145.435 7.32395 144.781 7.32395H138.923V10.5842ZM138.947 16.2261H142.99C143.91 16.2261 144.684 15.463 144.684 14.5844C144.684 13.7057 143.934 12.9658 142.99 12.9658H138.947V16.2261Z" fill="black"/>
<path d="M41.7168 5.0912C41.2805 6.13075 42.3711 6.8077 42.0075 6.90442C41.8379 6.95278 33.307 5.0912 30.1079 4.19664C27.3208 3.47133 27.8782 -0.517754 31.3439 0.183363C34.5914 0.836121 39.4628 2.69766 43.3648 3.42297C44.0676 3.56805 42.25 3.78567 41.7168 5.0912ZM41.6925 11.1594C37.936 11.4495 31.1015 12.199 28.8476 12.3199C25.2608 12.4892 25.1154 8.2824 28.5811 8.16159C31.3197 8.06487 36.5788 7.82307 41.3047 7.79889C43.3648 7.77471 43.7525 10.9902 41.6925 11.1594ZM43.4618 14.8584C44.5038 12.2957 44.6977 10.8451 43.1951 6.88024C42.565 5.21201 43.0982 4.80104 43.9222 4.29336C47.6302 2.11744 52.1138 2.96364 53.2044 3.32625C54.295 3.66477 56.2339 4.55924 56.7429 7.36375C57.0579 9.17697 56.9368 11.0869 54.9979 12.4408C53.7134 13.3595 52.0169 12.9727 52.0654 13.2869C52.1138 13.7222 57.5911 14.8342 57.8335 9.29786C57.9061 7.53301 58.8756 12.0781 58.1727 14.931C57.5426 17.5178 55.9673 19.1618 52.9137 20.153C50.4416 20.9508 46.8305 20.8541 46.2246 20.5641C45.2551 20.1288 49.4721 17.9288 46.8305 16.7684C44.6977 15.8496 49.6418 16.1881 49.3509 11.0385C49.254 9.51539 48.4785 7.43629 48.0907 7.46047C47.7514 7.48465 47.9453 7.94397 48.1877 9.85391C48.4058 11.6188 48.4058 14.4957 45.4005 15.6079C44.0191 16.1398 43.2679 15.3177 43.4618 14.8584ZM36.4334 13.1419C35.682 13.8671 36.5303 16.0189 38.1056 16.1881C39.3417 16.3089 41.0139 16.0189 41.741 15.6079C43.1467 14.8101 43.1709 12.6583 42.0803 12.3441C41.6198 12.199 40.8685 12.2232 40.1899 12.2715C37.6694 12.3924 36.8454 12.7309 36.4334 13.1419ZM38.7115 19.6453C39.1478 20.2981 39.7779 20.5882 40.9655 20.6607C42.0075 20.709 43.4859 20.7574 44.4554 20.3706C45.8853 19.7904 46.782 17.7112 44.9886 17.0343C44.213 16.7442 39.7779 16.7925 38.8812 17.0343C38.4449 17.1552 38.033 17.4211 38.1299 18.2189C38.2026 18.8475 38.5661 19.4035 38.7115 19.6453Z" fill="#FF3737"/>
<path d="M16.7474 5.03011C17.1859 6.07326 16.0897 6.99515 16.4551 7.09223C16.6987 7.16504 19.7923 7.23776 20.8643 7.04369C22.204 6.84963 21.9361 5.03011 21.2784 4.08395C20.986 3.64719 20.4745 3.08925 18.891 2.94363C17.9654 2.84665 16.114 2.89518 14.3601 3.11352C13.6536 3.21051 16.2115 3.72 16.7474 5.03011ZM19.8167 19.6592C19.3782 20.3142 18.7449 20.6054 17.5513 20.6781C16.5038 20.7266 15.0178 20.7752 14.0434 20.387C12.6062 19.8047 11.7049 17.7183 13.5075 17.0391C14.287 16.7479 18.7449 16.7964 19.6462 17.0391C20.0847 17.1603 20.4989 17.4272 20.4014 18.2278C20.3283 18.8586 19.9872 19.4166 19.8167 19.6592ZM22.472 9.80937C22.472 11.7745 21.4002 11.7502 20.4258 11.7745C18.7205 11.823 16.723 11.6047 16.1384 11.4833C15.0421 11.265 14.9447 9.93072 15.505 8.86321C15.9679 7.98985 16.5525 7.86859 16.991 7.84433C18.3308 7.77152 20.4501 7.84433 21.0348 7.94131C22.0335 8.1112 22.472 8.52361 22.472 9.80937ZM21.7656 12.939C22.5694 13.594 21.9604 15.826 20.3771 16.1414C19.159 16.384 17.4538 16.2627 16.6987 15.9231C15.2126 15.2437 14.9934 13.1088 16.041 12.6964C16.5038 12.5266 17.2346 12.478 17.9166 12.4295C20.4501 12.3325 21.3027 12.5994 21.7656 12.939ZM12.2651 20.5811C11.6561 20.848 8.02645 20.945 5.54171 20.1687C2.44798 19.174 0.888933 17.5243 0.25557 14.9284C-0.450873 12.0656 0.52353 7.50464 0.59661 9.2757C0.840211 14.8313 6.3456 13.7154 6.39431 13.2787C6.41867 12.9875 4.73783 13.3514 3.44675 12.4295C1.49794 11.0709 1.37613 9.15435 1.69282 7.33484C2.18002 4.49636 4.12882 3.62292 5.22503 3.25905C6.32124 2.91936 10.8278 2.04601 14.5549 4.22948C15.3832 4.7147 15.9192 5.15137 15.2857 6.82536C13.7511 10.8041 13.9459 12.2597 14.9934 14.8313C15.1883 15.2923 14.4331 16.1172 13.069 15.6077C10.0483 14.4917 10.0483 11.6047 10.2675 9.83364C10.5111 7.91704 10.706 7.4561 10.365 7.43183C9.99959 7.40756 9.19572 9.49404 9.09828 11.0224C8.80596 16.1899 13.7511 15.8503 11.6318 16.7722C9.00084 17.9124 13.2395 20.1444 12.2651 20.5811Z" fill="#0087FF"/>
</svg>
