<svg width="325" height="14" viewBox="0 0 325 14" fill="none" xmlns="http://www.w3.org/2000/svg">
<path fill-rule="evenodd" clip-rule="evenodd" d="M199.518 13.1136L201.681 10.1527H206.236L204.13 13.0566L199.518 13.1136ZM32.1141 0.586792L29.0394 4.80035H19.3596L22.3774 0.586792H32.1141ZM19.3596 4.80035L16.3418 8.90002H6.66197L9.67979 4.85729L19.3596 4.80035ZM26.0216 8.90002L23.0037 13.1136H13.3239L16.3418 8.95696L26.0216 8.90002ZM12.7545 0.586792L9.67979 4.80035H0L3.01782 0.586792H12.7545Z" fill="#231F20"/>
<path d="M272.629 0.586725H255.547L246.436 13.1135H250.878L257.824 3.5476H262.152L255.205 13.0566H259.248L266.251 3.5476H267.732C270.237 3.5476 270.863 3.5476 270.009 4.62946L263.917 13.0566H268.358L274.792 4.28782C276.444 2.01022 274.223 0.586725 272.629 0.586725ZM233.966 0.586725H219.902C215.347 0.586725 214.094 2.4088 213.24 3.5476L208.514 9.98181C206.237 13.0566 210.393 13.0566 212.842 13.0566H224.856L226.45 10.8929H213.924C213.183 10.8929 212.386 10.8929 212.956 10.0388L217.852 3.43372C218.251 2.86432 219.902 2.86432 220.699 2.86432H232.315L233.966 0.586725ZM288.97 2.86432L286.977 5.48356H295.291C295.86 5.48356 296.429 5.48356 297.91 3.49066C298.479 2.75044 296.999 2.75044 296.999 2.75044H289.027L288.97 2.86432ZM285.326 7.76116L281.454 13.1135H277.013L286.123 0.586725H299.276C300.074 0.586725 302.75 1.15612 302.693 2.80738C302.693 3.09208 301.782 4.4017 300.985 5.5405C299.789 7.13482 299.276 7.8181 297.397 7.8181H296.259V13.1135H291.874V7.76116H285.326ZM299.106 10.0388L305.938 0.586725H310.494C308.387 3.43372 306.28 6.28072 304.23 9.18466C302.978 10.8929 302.978 10.8929 304.97 10.8929H310.664C312.543 10.8929 312.543 10.8929 313.284 9.86793L320.06 0.586725H324.558C324.558 0.586725 319.775 7.07788 317.099 10.8929C315.447 13.0566 315.447 13.0566 306.679 13.1135C300.415 13.1135 296.885 13.1135 299.106 9.98181V10.0388ZM240.571 2.75044C239.774 2.75044 238.123 2.75044 237.724 3.31984L232.828 10.0388C232.258 10.8359 233.055 10.8359 233.852 10.8359H240.742C241.881 10.8359 242.45 10.1526 242.963 9.41242L246.949 3.8323C247.803 2.6935 245.81 2.6935 244.102 2.6935L240.571 2.75044ZM232.714 12.9996C230.265 12.9996 226.166 12.9996 228.386 9.92487L233.112 3.49066C233.966 2.35186 235.276 0.529785 239.774 0.529785H249.055C250.707 0.529785 252.87 1.95328 251.219 4.23088L246.436 10.8359C245.525 11.9747 244.785 12.9996 240.742 13.0566" fill="#231F20"/>
<path fill-rule="evenodd" clip-rule="evenodd" d="M270.522 13.1135L272.686 10.1526H277.298L275.192 13.0565L270.522 13.1135Z" fill="#ED1C24"/>
<path d="M177.369 2.80733L175.319 5.54044H183.632C184.201 5.54044 184.771 5.54044 186.251 3.54755C186.821 2.80733 185.34 2.80733 185.34 2.80733H177.369ZM173.724 7.7611L169.796 13.0565H165.354L174.465 0.58667H187.675C188.415 0.58667 191.091 1.15607 191.091 2.80733C191.091 3.09203 190.123 4.40165 189.326 5.54044C188.13 7.13476 187.675 7.81804 185.739 7.81804H184.657V13.0565H180.216V7.7611H173.724ZM159.432 2.86427C158.692 2.86427 157.041 2.86427 156.642 3.43367L151.746 10.1526C151.176 10.9497 151.973 10.9497 152.77 10.9497H159.603C160.856 10.9497 161.311 10.2665 161.881 9.52624L165.867 4.00307C166.721 2.86427 164.728 2.86427 163.02 2.86427H159.432ZM151.632 13.1135C149.183 13.1135 145.084 13.1135 147.304 10.0956L152.03 3.60449C152.884 2.46569 154.194 0.64361 158.692 0.64361H167.973C169.625 0.64361 171.788 2.06711 170.137 4.34471L165.411 10.8359C164.5 11.9747 163.703 12.9996 159.717 13.0565L151.632 13.1135ZM138.763 2.80733C137.055 2.80733 136.486 3.66143 135.973 4.34471L135.119 5.4835H142.35C143.717 5.4835 144.628 5.4835 145.368 4.57247L146.279 3.31979C146.621 2.75039 144.97 2.75039 144.343 2.75039H138.763V2.80733ZM133.468 7.7611L129.596 13.0565H125.098L132.614 2.80733C133.753 1.21301 136.827 0.70055 138.706 0.58667H143.546C152.77 0.58667 151.119 2.80733 150.493 3.71837L149.183 5.54044C147.532 7.70416 147.475 7.81804 144.343 7.7611H133.468Z" fill="#ED1C24"/>
<path fill-rule="evenodd" clip-rule="evenodd" d="M132.672 0.58667H118.607C116.33 0.58667 114.166 0.58667 112.572 2.80733L110.579 5.54044C108.928 7.81804 110.408 7.81804 113.426 7.81804H122.935L121.568 9.58318C121.284 10.0387 120.657 10.8928 119.177 10.8928H106.65L105.056 13.0565H119.063C123.561 13.0565 124.187 12.2594 125.155 10.8928L127.433 7.7611C128.116 6.79312 129.027 5.4835 124.586 5.4835H115.02C115.02 5.4835 115.362 5.14186 116.614 3.37673C117.013 2.80733 118.323 2.80733 119.006 2.80733H130.963L132.672 0.58667Z" fill="#ED1C24"/>
<path d="M99.6456 2.80733C98.8485 2.80733 97.1972 2.80733 96.7986 3.37673L91.9018 10.0387C91.3324 10.8928 92.1296 10.8928 92.9267 10.8928H99.7595C101.012 10.8928 101.468 10.2095 102.037 9.4693L106.023 3.88919C106.877 2.75039 104.884 2.75039 103.176 2.75039L99.6456 2.80733ZM91.7879 13.0565C89.3395 13.0565 85.2398 13.0565 87.4605 9.98176L92.1865 3.49061C93.0406 2.35181 94.3502 0.64361 98.8485 0.64361H108.13C109.781 0.64361 111.945 2.01017 110.293 4.28777L105.51 10.8359C104.599 11.9747 103.802 12.9996 99.8165 12.9996L91.7879 13.0565ZM84.8413 2.86427L77.3252 13.1135H72.8839L80.2861 2.86427H73.0547L74.649 0.64361H93.0406L91.5032 2.86427H84.8413ZM48.115 9.98176L54.9478 0.58667H59.446L53.1827 9.1846C51.93 10.8928 51.93 10.8928 53.9229 10.8928H59.6169C61.5528 10.8928 61.5528 10.8928 62.293 9.86788L69.012 0.58667H73.5672L66.0511 10.8928C64.3998 13.0565 64.3998 13.0565 55.6311 13.1135C49.3677 13.1135 45.8374 13.1135 48.115 9.98176Z" fill="#ED1C24"/>
<path fill-rule="evenodd" clip-rule="evenodd" d="M39.2897 0.58667C36.3288 0.58667 33.8235 2.06711 33.311 2.86427C30.8056 6.28066 28.3003 9.69706 25.7949 13.1135H30.3501L34.1651 7.81804H43.731L39.8021 13.1135H44.2435L50.9624 4.00307C51.7595 2.86427 51.5887 0.64361 48.8556 0.64361L39.2897 0.58667ZM37.0121 3.88919C37.5815 3.09203 39.1189 2.75039 39.4605 2.75039L45.7239 2.80733C46.9766 2.80733 46.8627 3.37673 46.578 3.83225L45.3253 5.54044H35.7594L36.8982 3.88919H37.0121Z" fill="#ED1C24"/>
<path d="M203.334 2.80733L195.875 13.0565H191.319L198.835 2.80733H191.604L193.198 0.58667H211.59L209.996 2.86427L203.334 2.80733Z" fill="#ED1C24"/>
</svg>
