<svg width="125" height="55" viewBox="0 0 125 55" fill="none" xmlns="http://www.w3.org/2000/svg">
<path d="M53.8105 27.1389C53.8105 12.1505 41.7646 0 26.9052 0C12.0459 0 0 12.1505 0 27.1389C0 42.1272 12.0459 54.2777 26.9052 54.2777C41.7646 54.2777 53.8105 42.1272 53.8105 27.1389Z" fill="#FFC40B"/>
<path fill-rule="evenodd" clip-rule="evenodd" d="M26.9612 11.6309C26.4618 11.6309 26.0568 12.0393 26.0568 12.5431V14.3675C26.0568 14.8713 26.4618 15.2798 26.9612 15.2798C27.4607 15.2798 27.8656 14.8713 27.8656 14.3675V12.5431C27.8656 12.0393 27.4607 11.6309 26.9612 11.6309ZM26.0568 41.4304H24.851C24.1851 41.4304 23.6452 40.8859 23.6452 40.2141C23.6452 39.5423 24.1851 38.9978 24.851 38.9978H29.6744C30.3403 38.9978 30.8803 39.5423 30.8803 40.2141C30.8803 40.8859 30.3403 41.4304 29.6744 41.4304H28.4686C28.4686 42.1022 27.9287 42.6467 27.2628 42.6467C26.5968 42.6467 26.0568 42.1022 26.0568 41.4304ZM35.9717 15.8437C36.3544 15.4581 36.9745 15.4581 37.3572 15.8437C37.7406 16.2299 37.7406 16.8566 37.3572 17.2429L35.9701 18.6405C35.5873 19.0261 34.9673 19.0261 34.5845 18.6405C34.2011 18.2543 34.2011 17.6276 34.5845 17.2413L35.9717 15.8437ZM41.4313 26.2265C41.4313 25.7227 41.0264 25.3143 40.527 25.3143H38.7182C38.2187 25.3143 37.8138 25.7227 37.8138 26.2265C37.8138 26.7303 38.2187 27.1388 38.7182 27.1388H40.527C41.0264 27.1388 41.4313 26.7303 41.4313 26.2265ZM13.3956 27.1388C12.8961 27.1388 12.4912 26.7303 12.4912 26.2265C12.4912 25.7227 12.8961 25.3143 13.3956 25.3143H15.2043C15.7038 25.3143 16.1087 25.7227 16.1087 26.2265C16.1087 26.7303 15.7038 27.1388 15.2043 27.1388H13.3956ZM16.4053 36.8025C16.7158 37.2493 17.3264 37.3579 17.7696 37.0452L19.3772 35.9111C19.8212 35.598 19.9291 34.9809 19.618 34.5334C19.3076 34.0867 18.697 33.9782 18.2537 34.2908L16.6461 35.4249C16.2023 35.7381 16.0944 36.3551 16.4053 36.8025ZM37.2291 35.4249C37.6731 35.7381 37.7809 36.3551 37.4699 36.8025C37.1595 37.2494 36.5489 37.3579 36.1057 37.0452L34.4981 35.9111C34.0541 35.598 33.9463 34.9809 34.2573 34.5334C34.5677 34.0867 35.1783 33.9782 35.6215 34.2908L37.2291 35.4249ZM16.5365 15.8437C16.1532 16.2299 16.1532 16.8566 16.5365 17.2429L17.9237 18.6405C18.3065 19.0261 18.9266 19.0261 19.3093 18.6405C19.6927 18.2543 19.6927 17.6276 19.3093 17.2413L17.9221 15.8437C17.5394 15.4581 16.9193 15.4581 16.5365 15.8437ZM24.851 38.3896C24.1851 38.3896 23.6452 37.8451 23.6452 37.1733C23.6452 36.5016 24.1851 35.957 24.851 35.957H29.6744C30.3403 35.957 30.8803 36.5016 30.8803 37.1733C30.8803 37.8451 30.3403 38.3896 29.6744 38.3896H24.851ZM26.9612 17.7124C22.2312 17.7124 18.8218 21.4988 18.8218 25.7444C18.8218 27.7693 19.5826 29.6167 20.8364 31.0283C21.4911 31.7656 22.9023 34.3238 23.0135 34.537C23.7836 36.0604 25.689 35.21 25.0668 33.7233C24.6455 32.6812 23.858 31.1069 22.5058 29.5843C21.556 28.515 21.0481 27.1587 21.044 25.7444C21.0348 22.3838 23.8035 19.903 26.9612 19.903C30.2253 19.903 32.8809 22.5234 32.8809 25.7444C32.8809 27.1578 32.361 28.5214 31.4171 29.5843C30.0686 31.1022 29.2805 32.6771 28.8579 33.7206C28.251 35.0291 30.1154 36.1741 30.9052 34.5481C31.4554 33.1982 32.4302 31.7676 33.0866 31.0286C34.3399 29.6167 35.1006 27.7693 35.1006 25.7444C35.1006 21.3086 31.4564 17.7124 26.9612 17.7124ZM22.1002 26.1695C22.1002 27.6234 24.2623 27.6234 24.2623 26.1695C24.2623 24.958 25.7036 23.5041 26.9047 23.5041C28.3461 23.5041 28.3461 21.3233 26.9047 21.3233C24.2623 21.3233 22.1002 23.5041 22.1002 26.1695Z" fill="black"/>
<path d="M74.4305 28.6514H77.94L76.2134 23.1616L74.4305 28.6514ZM74.6087 19.9718H77.8743L82.7726 33.9236H79.6385L78.747 31.0556H73.6516L72.6944 33.9236H69.6729L74.6087 19.9718ZM87.3426 22.3949V31.5005H90.0076C91.3714 31.5005 92.3223 30.8221 92.8603 29.4655C93.1543 28.7209 93.3013 27.8342 93.3013 26.8057C93.3013 25.3859 93.0792 24.2974 92.635 23.5402C92.1972 22.7766 91.3213 22.3949 90.0076 22.3949H87.3426ZM90.4955 19.9718C91.3526 19.9844 92.0657 20.0854 92.635 20.2747C93.6047 20.5965 94.3898 21.1865 94.9904 22.0446C95.4721 22.7388 95.8005 23.4897 95.9757 24.2974C96.1507 25.1051 96.2381 25.875 96.2381 26.607C96.2381 28.4621 95.8693 30.0333 95.1312 31.3207C94.1302 33.0559 92.585 33.9236 90.4955 33.9236H84.5369V19.9718H90.4955ZM107.593 19.9718H111.75V33.9236H109.057V24.4867C109.057 24.2154 109.059 23.8368 109.066 23.3509C109.072 22.8587 109.076 22.4801 109.076 22.215L106.457 33.9236H103.651L101.052 22.215C101.052 22.4801 101.055 22.8587 101.062 23.3509C101.068 23.8368 101.071 24.2154 101.071 24.4867V33.9236H98.3781V19.9718H102.582L105.097 30.942L107.593 19.9718ZM124.662 22.4422H117.342V25.4048H124.061V27.8279H117.342V31.4153H125V33.9236H114.518V19.9718H124.662V22.4422Z" fill="black"/>
</svg>
