<svg width="97" height="65" viewBox="0 0 97 65" fill="none" xmlns="http://www.w3.org/2000/svg">
<path d="M95.2405 19.6106C94.8886 18.1072 94.3607 16.6701 93.4149 15.3657C92.2271 13.7517 90.7095 12.6463 88.9278 11.8946C87.6741 11.364 86.3324 11.0544 84.9467 11.0102C84.7047 11.0102 84.4848 10.9881 84.2868 10.9881C84.2868 10.4575 84.2868 9.75001 84.2868 9.57314C84.2648 8.88776 84.3528 8.20239 84.2428 7.49491C83.363 7.49491 82.5492 7.49491 81.7573 7.49491C80.9215 7.49491 80.0857 7.4728 79.2498 7.51702C79.2498 8.35715 79.2498 9.92688 79.2498 10.966C79.0739 10.9881 78.8759 11.0102 78.678 11.0323C77.6882 11.1429 76.8963 11.2976 76.0165 11.4745C74.3009 11.8061 72.8712 12.7126 71.5294 13.7517C70.8696 14.2602 70.2977 14.9235 69.8578 15.6089C69.2199 16.6259 68.802 17.7313 68.4721 18.9031C68.0981 20.2738 68.2081 21.6667 68.2961 22.8384C68.3401 23.4354 68.4281 23.7449 68.4501 23.8776C68.78 25.3589 69.4619 26.5527 70.5396 27.8793C71.4195 28.9847 72.5412 29.7806 73.707 30.4218C75.1587 31.2177 76.8083 31.6599 78.48 31.6157C78.7659 31.6157 79.0299 31.5935 79.2718 31.5935C79.2718 32.6548 79.2718 34.1361 79.2718 34.6888C80.9875 34.6888 82.5931 34.6888 84.3308 34.6888C84.3308 34.1361 84.3308 32.6769 84.3308 31.6599C84.5947 31.6599 84.9027 31.6599 85.2106 31.6378C86.2444 31.5935 87.2782 31.4609 88.18 31.1514C89.1258 30.7534 89.9176 30.5102 90.8414 29.8691C91.3693 29.5374 91.8092 29.1837 92.2711 28.7194C93.129 27.9898 94.0308 26.7517 94.5587 25.5578C95.1085 24.3418 95.3945 23.1922 95.3945 21.7993C95.3725 21.0476 95.3945 20.2296 95.2405 19.6106ZM79.2058 27.2823C78.6999 27.415 78.238 27.3486 77.7321 27.1718C75.4006 26.4201 74.2129 24.8061 73.685 22.4405C73.2011 20.2738 73.9489 18.483 75.2907 16.9796C76.2365 15.9184 77.5342 15.1667 79.1838 15.4541C79.2058 19.4558 79.2058 23.3469 79.2058 27.2823ZM89.9616 22.4184C89.7197 23.568 89.3018 24.1871 88.7519 25.0493C88.158 25.9779 87.4981 26.5748 86.4863 26.9728C85.8705 27.216 85.1666 27.415 84.3308 27.3044C84.3308 23.3912 84.3308 19.4779 84.3308 15.5204C85.0126 15.3435 85.6945 15.3878 86.3983 15.6752C88.136 16.4048 89.1038 17.8418 89.6977 19.5C89.9836 20.3401 90.1376 21.114 89.9616 22.4184Z" fill="black"/>
<path d="M38.8215 8.57819C37.8097 8.57819 36.8639 8.57819 35.9181 8.57819C35.0163 8.57819 34.1365 8.6224 33.2346 8.57819C32.2888 8.55608 31.343 8.57819 30.3092 8.57819C28.0437 17.068 25.8222 25.4915 23.5566 33.9591C25.4263 33.9591 27.1639 33.9591 28.9895 33.9591C29.4734 32.301 29.7814 31.2176 30.2653 29.6037C33.1906 29.6037 36.0281 29.6037 38.9755 29.6037C39.3494 31.0629 39.7453 32.5221 40.1192 33.9812C41.9008 33.9812 43.6165 33.9812 45.3321 33.9812C45.3541 33.9812 45.3981 33.9591 45.4201 33.937C45.4421 33.9149 45.4421 33.8928 45.4861 33.8265C43.3086 25.4472 41.065 17.0459 38.8215 8.57819ZM33.9605 14.1275C34.4004 14.1275 34.7743 14.1275 35.1482 14.1275C36.0061 17.5986 36.9739 21.5561 37.8537 25.0935C35.8741 25.0935 33.2346 25.1156 31.277 25.1377C32.1129 21.6445 33.1247 17.4881 33.9605 14.1275Z" fill="black"/>
<path d="M37.6564 61.1531C37.3705 60.114 37.0625 59.0748 36.7766 58.0357C36.0728 55.3163 35.3689 52.597 34.665 49.8997C34.1811 48.0646 33.7192 46.2075 33.2133 44.3725C33.0154 43.6429 32.4655 41.5204 31.9376 39.5527C29.3641 39.5748 25.295 39.6191 23.3594 39.6412C22.8315 41.6752 22.0616 44.5936 21.6217 46.2517C20.9179 48.9711 20.214 51.6684 19.4882 54.3878C19.2682 55.2279 18.9383 56.0238 18.7623 56.8861C18.3664 58.8316 17.8165 60.733 17.2666 62.6123C17.0467 63.364 16.8927 64.1157 16.7607 64.9116C18.6304 64.9116 20.412 64.9116 22.1496 64.9116C22.5236 63.4303 22.8755 61.9932 23.2274 60.5782C26.1968 60.5782 29.1002 60.5782 32.0696 60.5782C32.7074 61.9711 32.7074 63.5187 33.2353 64.9337C35.083 64.9337 36.8646 64.9337 38.6682 64.9337C38.3383 63.6293 38.0084 62.3912 37.6564 61.1531ZM30.2879 56.0902C29.6721 56.1123 29.0342 56.0902 28.4183 56.0902C27.3626 56.0902 26.3068 56.0902 25.229 56.0902C24.9211 56.0902 24.6351 56.0459 24.5031 55.7585C25.009 53.5034 25.4929 51.2704 26.0208 49.0153C26.2188 48.131 26.4827 47.2908 26.7247 46.4065C26.7907 46.2075 26.8347 45.9864 26.8787 45.7874C26.9886 45.0578 27.1866 44.9031 27.8684 44.9915C28.1544 45.0357 28.3523 45.1684 28.3963 45.4558C28.7043 46.7823 28.9902 48.131 29.2982 49.4575C29.3641 49.7449 29.4521 50.0102 29.5181 50.2976C29.914 51.8674 30.3319 53.4371 30.7279 54.9847C30.7718 55.1174 30.8158 55.2721 30.8158 55.4048C30.8598 55.847 30.6839 56.068 30.2879 56.0902Z" fill="black"/>
<path d="M58.7715 8.64459C58.7715 9.06466 58.7715 9.4184 58.7715 9.77214C58.7715 11.6514 58.7715 15.7857 58.7715 19.0357C57.3638 20.8266 55.4502 23.2364 54.9443 23.8555C54.6363 23.8334 54.3724 23.7891 54.0864 23.767C54.1084 21.6446 54.1304 19.1463 54.1304 18.6378C54.1524 17.8198 54.1304 17.0238 54.1304 16.2058C54.1304 15.3657 54.1304 14.5034 54.1304 13.6633C54.1304 12.8232 54.1304 11.9609 54.1304 11.1208C54.1304 10.2806 54.1524 9.46262 54.1084 8.55615C52.2828 8.62248 50.5672 8.48983 48.8955 8.64459C48.8955 17.1344 48.8955 25.5136 48.8955 33.9371C49.8193 33.9371 50.6991 33.9371 51.6889 33.9371C52.1508 33.3844 56.198 28.5868 57.5837 26.8623C57.9796 26.8844 58.3316 26.9065 58.7715 26.9286C58.7715 29.2943 58.7715 31.6157 58.7715 33.9371C60.5311 33.9371 62.2247 33.9371 64.0284 33.9371C64.0284 33.4507 64.0284 33.0528 64.0284 32.6327C64.0284 26.8402 64.0284 15.6089 64.0284 8.60037C62.5547 8.64459 60.0252 8.64459 58.7715 8.64459Z" fill="black"/>
<path d="M20.2574 8.9319C20.2574 17.2669 20.2574 25.5577 20.2574 33.9149C19.3996 34.0918 18.5198 33.9812 17.662 34.0033C16.8262 34.0254 15.9683 34.0033 15.1105 34.0033C14.8905 33.6054 15.0005 33.2074 15.0005 32.8094C15.0005 26.6853 15.0005 20.5833 15.0005 14.4591C15.0005 14.1938 15.0005 13.9506 15.0005 13.6853C14.9785 13.1326 14.8466 12.9999 14.2747 12.9778C13.2409 12.9557 12.2291 12.9778 11.1293 12.9778C11.1073 13.2873 11.0633 13.5526 11.0633 13.8401C11.0633 15.9404 11.0853 18.0407 11.0413 20.1411C10.9974 21.6003 10.9974 23.0816 10.7774 24.5186C10.5135 26.4421 10.0955 28.3656 9.21572 30.1122C8.40189 31.704 7.23613 33.0748 5.65246 33.9149C4.66266 34.4455 3.56289 34.8435 2.26516 34.8877C2.24316 33.9591 2.24316 33.0969 2.24316 32.2346C2.24316 31.3945 2.24316 30.5543 2.24316 29.7142C3.32094 29.2278 3.98081 28.4098 4.44271 27.3928C5.10257 25.9336 5.4325 24.4081 5.58647 22.7941C6.00439 18.505 5.67445 14.1938 5.78443 9.90469C5.78443 9.63938 5.78443 9.39618 5.78443 9.13088C5.80643 8.77714 5.98239 8.60027 6.33432 8.60027C6.51028 8.60027 6.70824 8.60027 6.8842 8.60027C10.8874 8.60027 14.8686 8.60027 18.8717 8.60027C19.3336 8.57816 19.8175 8.55605 20.2574 8.9319Z" fill="black"/>
<path d="M57.232 64.9115C56.3962 64.9115 55.6703 64.9115 54.9664 64.9115C52.7669 62.1258 50.5673 59.3401 48.3678 56.5323C48.0379 56.6428 47.7299 56.7313 47.356 56.8639C47.356 59.517 47.356 62.1921 47.356 64.8894C45.5744 64.8894 43.8587 64.8894 42.1211 64.8894C42.1211 56.5102 42.1211 48.153 42.1211 39.7738C43.8147 39.6411 45.4864 39.8622 47.246 39.619C47.466 40.6139 47.312 41.6309 47.334 42.6479C47.356 43.7092 47.334 44.7925 47.334 45.8537C47.334 46.8928 47.334 47.9098 47.334 48.9489C47.334 49.9659 47.334 51.0051 47.334 51.9779C47.488 52.0442 47.532 52.1105 47.598 52.1105C48.8517 52.1326 48.6537 52.2874 49.0497 51.1156C49.6435 49.3027 50.1054 47.4455 50.6553 45.6326C51.1172 44.1071 51.6011 42.6037 52.063 41.1003C52.129 40.9013 52.173 40.6802 52.195 40.4592C52.283 39.818 52.349 39.7517 53.0308 39.7296C54.2846 39.7296 55.5163 39.7296 56.7701 39.7296C57.122 39.7296 57.4739 39.6853 57.8698 39.6411C58.0238 40.1938 57.7159 40.7245 57.5619 41.2551C56.7701 43.9524 55.9342 46.6275 55.1204 49.3027C54.7025 50.6513 54.3506 52 53.8667 53.3265C53.6247 54.0119 53.7347 54.5204 54.1306 55.051C54.9884 56.2227 55.8463 57.3945 56.7261 58.5442C57.034 58.9421 57.254 59.318 57.254 59.8265C57.21 61.4846 57.232 63.1428 57.232 64.9115Z" fill="black"/>
<path d="M96.648 46.2738C96.428 44.903 95.9221 43.7312 95.0863 42.6258C94.2725 41.5646 93.2167 40.7908 92.0069 40.3486C91.2591 40.0833 90.4673 39.8622 89.6754 39.6411C87.6958 39.1105 85.6942 39.2431 83.7146 39.3537C82.8568 39.3979 81.4491 39.4863 79.6895 39.7517C79.7114 44.5935 79.7994 59.2959 79.8214 64.8894C81.6031 64.8894 83.8686 64.8894 85.1663 64.8894C85.1663 62.0374 85.1663 59.2074 85.1663 56.2891C85.7602 56.3996 86.2001 56.3996 86.75 56.4217C87.2999 56.4438 87.8498 56.4438 88.3117 56.3996C88.9276 56.3554 89.4555 56.3112 90.2913 56.1564C92.1169 55.8248 93.5686 54.8962 94.7784 53.5697C96.0981 52.1105 96.714 50.2976 96.802 48.3299C96.8459 47.6445 96.758 46.9591 96.648 46.2738ZM89.9394 51.1819C89.7194 51.3588 89.4775 51.5799 89.2135 51.6241C87.9158 51.8452 86.596 52.1989 85.1663 51.5357C85.1663 49.3248 85.1663 47.1139 85.1663 44.9251C85.1663 44.284 85.2983 44.1513 85.9362 44.1513C86.904 44.1734 87.9158 43.9744 88.8396 44.3724C89.3015 44.5714 89.7414 44.8146 90.1593 45.0799C90.8632 45.5663 91.1051 46.3622 91.3031 47.1139C91.699 48.7499 91.2371 50.1207 89.9394 51.1819Z" fill="black"/>
<path d="M0.923773 39.8402C1.38568 39.7517 1.73761 39.6854 2.08953 39.597C2.79339 39.4422 3.25529 39.6412 3.60722 40.3265C4.33307 41.6973 5.05892 43.0902 5.78477 44.483C6.1147 45.0799 6.44464 45.6769 6.84056 46.3623C7.14849 46.3623 7.5884 46.3623 8.0723 46.3623C9.34804 44.2177 10.4478 41.8963 11.6796 39.818C12.5154 39.7517 13.1533 39.7075 13.8791 39.6633C13.8791 39.8402 13.9231 40.0834 13.9231 40.3487C13.9231 42.1837 13.9011 44.0408 13.9451 45.8759C13.9671 46.6276 13.6811 47.2245 13.3072 47.7993C12.9333 48.3742 12.5374 48.9269 12.1855 49.5238C11.7236 50.2534 11.3056 51.0272 10.8437 51.8453C11.2616 52.9065 11.9655 53.8793 12.5814 54.8963C13.1093 55.7585 13.6592 56.6208 14.1431 57.5051C14.407 57.9694 14.473 58.4779 14.407 59.0306C14.319 59.8708 14.385 60.733 14.385 61.5731C14.385 62.6786 14.385 63.784 14.385 64.9779C13.6592 65.0442 12.9773 65 12.2074 65C10.8657 62.4575 9.524 59.915 8.16028 57.3282C7.80836 57.3282 7.43443 57.3282 6.95053 57.3282C5.49883 59.716 4.1791 62.3248 2.79339 64.9116C2.06754 64.9116 1.34169 64.9116 0.54985 64.9116C0.527855 64.6242 0.505859 64.3367 0.505859 64.0714C0.505859 62.5238 0.505859 60.9762 0.505859 59.4286C0.505859 57.9694 0.527855 57.9915 1.31969 56.6871C2.22151 55.2279 3.05733 53.7687 3.91516 52.2874C4.09112 51.9779 4.02513 51.6684 3.82718 51.3589C3.29928 50.4966 2.79339 49.6123 2.2655 48.75C1.91357 48.1531 1.51765 47.5782 1.20971 46.9813C1.05575 46.6939 0.923773 46.3623 0.923773 46.0527C0.923773 43.9966 0.923773 41.9405 0.923773 39.8402Z" fill="black"/>
<path d="M62.5771 39.7738C66.5143 39.7738 70.4075 39.7738 74.3887 39.7738C74.4327 40.5918 74.4107 41.3878 74.4107 42.1837C74.4107 42.9575 74.4107 43.7313 74.4107 44.5714C72.2111 44.5714 70.0556 44.5714 67.8561 44.5714C67.8561 46.8265 67.8561 48.9711 67.8561 51.2041C69.6377 51.3367 71.4193 51.182 73.2449 51.2704C73.2449 52.8622 73.2449 54.432 73.2449 56.0459C71.4633 56.0459 69.7037 56.0459 67.8781 56.0459C67.8561 56.3775 67.8121 56.6428 67.8121 56.9303C67.8121 57.7041 67.7901 58.4779 67.8121 59.2517C67.8341 59.9592 67.922 60.0697 68.6479 60.0697C69.7037 60.0918 70.7814 60.0697 71.8372 60.0697C72.783 60.0697 73.7508 60.0697 74.7846 60.0697C74.8946 60.8877 74.8286 61.6837 74.8286 62.4796C74.8506 63.2534 74.8286 64.0272 74.8286 64.7789C73.9488 64.9558 65.4366 65.0221 62.6431 64.8673C62.4672 64.0272 62.4012 42.5374 62.5771 39.7738Z" fill="black"/>
<path d="M61.1695 0.221069C61.0815 0.221069 60.1797 0.221069 59.1459 0.221069C56.9683 1.52549 54.1089 3.22787 52.6572 4.06801C52.6572 4.68706 52.6572 5.35032 52.6572 6.07991C55.3627 6.0578 60.2456 6.01359 61.2134 5.99148C61.2134 5.35032 61.2134 4.68706 61.2134 4.02379C61.2134 3.40474 61.2134 2.7857 61.2134 2.14454C61.1915 1.50338 61.2354 0.862226 61.1695 0.221069Z" fill="black"/>
</svg>
