<svg width="126" height="26" viewBox="0 0 126 26" fill="none" xmlns="http://www.w3.org/2000/svg">
<path fill-rule="evenodd" clip-rule="evenodd" d="M125.999 0.00117487L116.102 26.0002H112.069L121.965 0.00117487H126H125.999ZM98.7863 12.741C98.7863 10.723 100.242 8.6092 102.791 8.6092C105.34 8.6092 106.737 10.4475 106.737 12.741C106.737 15.0345 105.372 16.8728 102.792 16.8728C100.211 16.8728 98.7863 14.759 98.7863 12.741ZM98.8419 7.44849V5.98993H95.0747V25.9891H98.98V18.2169C99.4222 18.6711 100.978 19.8663 103.281 19.8663C106.893 19.8663 110.215 17.261 110.215 12.7401C110.215 8.01163 106.558 5.66881 103.281 5.66881C100.788 5.66881 99.285 6.97937 98.8428 7.44663L98.8419 7.44849ZM82.583 11.2527C82.6924 10.3423 83.6546 8.51054 86.0276 8.51054C88.6694 8.51054 89.0977 10.5052 89.1607 11.2527H82.583ZM78.6935 12.7959C78.6935 16.8319 81.6959 19.8672 86.1648 19.8672C90.6346 19.8672 92.5395 16.8049 92.5395 16.8049L89.6937 14.9563C89.6937 14.9563 88.7213 16.8719 86.1926 16.8719C83.5878 16.8719 82.5403 14.7264 82.5403 13.9082H92.8602C92.8602 13.9082 92.9158 13.3153 92.9158 13.1431V12.687C92.9158 8.68832 90.3945 5.66881 86.0276 5.66881C81.6597 5.66881 78.6935 8.75906 78.6935 12.7959ZM73.3078 5.99086L78.4673 19.5461H74.2774L71.2796 10.9008H71.2277L68.2401 19.5461H64.0651L69.2245 5.99086H73.3078ZM52.8618 12.943C52.8618 11.0051 53.9742 9.31288 56.5391 9.31288C59.104 9.31288 60.0226 11.5114 60.0226 13.0798C60.0226 14.6482 59.0799 16.871 56.5094 16.871C53.9399 16.871 52.8618 14.8809 52.8618 12.943ZM53.2511 7.14599C53.354 6.6871 53.761 3.05699 58.8417 3.05699H61.9813L63.1446 0.000244141H58.8963C53.2947 0.000244141 49.0381 2.48734 49.0381 11.2368C49.0381 16.0398 51.1664 19.8653 56.3991 19.8653C61.376 19.8653 63.8167 16.3618 63.8167 12.9542C63.8167 8.01907 60.0374 5.98993 56.857 5.98993C54.9734 5.98993 53.6275 6.87419 53.2511 7.14599ZM43.2585 5.98993H46.5956V19.5452H42.6903V11.6036L38.9046 16.3776H37.8478L37.7598 16.2697L34.0334 11.6706V19.5452H30.1253V5.9918H33.4633L33.5486 6.09232L38.4003 11.7125L43.2594 5.9918L43.2585 5.98993ZM23.2677 13.8933C23.2677 15.7475 22.1952 17.0255 20.116 17.0255C18.1063 17.0255 17.9358 15.8862 17.9358 15.4524C17.9358 14.449 18.8794 13.7807 21.1255 13.5834C21.7447 13.5294 22.3768 13.5024 23.0016 13.5024H23.2677V13.8933ZM26.9245 12.419C26.9245 12.1453 26.9208 11.8828 26.9088 11.6296C26.7178 7.40847 24.8648 5.66881 20.8659 5.66881C18.1592 5.66881 16.3979 6.73364 15.7787 7.16739L16.8327 9.93652C16.8327 9.93652 18.479 8.58686 20.5591 8.58686C23.5022 8.58686 23.2111 10.9306 23.2111 10.9306C22.2044 10.9399 14.1964 10.5378 14.1964 15.5585C14.1964 18.3444 16.5806 19.8663 19.2567 19.8663C21.6371 19.8663 22.9182 18.7121 23.34 18.2644C23.3427 18.3249 23.4234 19.5452 23.4234 19.5452H27.0626C27.0626 19.5452 26.9245 18.3686 26.9245 16.5266V12.419ZM4.04526 9.40969V3.27572H6.04008C7.4574 3.27572 9.74422 4.11251 9.74422 6.35574C9.74422 8.61758 7.4574 9.40876 5.98354 9.40876H4.04526V9.40969ZM6.31817 0.00117487C10.3625 0.00117487 13.8191 2.15318 13.8191 6.34271C13.8191 10.5322 10.3616 12.6545 6.23474 12.6545H4.04526V19.5461H0V0.00117487H6.31817Z" fill="#315EFB"/>
</svg>
