<svg width="196" height="27" viewBox="0 0 196 27" fill="none" xmlns="http://www.w3.org/2000/svg">
<path d="M195.413 18.7704H182.397V21.6628H195.413V18.7704Z" fill="black"/>
<path d="M195.269 5.17624V2.42847H182.397V16.7458H195.269V13.8534H185.29V10.8164V7.92402V5.17624H195.269Z" fill="black"/>
<path d="M86.0811 24.5553V2.42847H88.9735V24.8445L86.0811 24.5553Z" fill="black"/>
<path d="M110.089 2.42847H94.3252V5.32086H110.089V2.42847Z" fill="black"/>
<path d="M94.3252 7.05627V9.94867H100.833V21.6629H103.581V9.94867H110.089V7.05627H103.581H94.3252Z" fill="black"/>
<path d="M40.0917 2.42847H24.3281V5.32086H40.0917V2.42847Z" fill="black"/>
<path d="M24.3281 7.05627V9.80405H30.6914V21.6629H33.5838V9.80405H39.9471V7.05627H24.3281Z" fill="black"/>
<path d="M54.5545 4.16388C58.8931 4.16388 62.5086 7.77938 62.5086 12.118C62.5086 16.4566 58.8931 20.0721 54.5545 20.0721C50.2159 20.0721 46.6004 16.4566 46.6004 12.118C46.6004 7.63476 50.2159 4.16388 54.5545 4.16388ZM54.5545 1.27148C48.6251 1.27148 43.708 6.18856 43.708 12.118C43.708 18.0474 48.6251 22.9645 54.5545 22.9645C60.4839 22.9645 65.401 18.0474 65.401 12.118C65.401 6.04394 60.4839 1.27148 54.5545 1.27148Z" fill="black"/>
<path d="M124.55 4.16388C128.888 4.16388 132.504 7.77938 132.504 12.118C132.504 16.4566 128.888 20.0721 124.55 20.0721C120.211 20.0721 116.596 16.4566 116.596 12.118C116.74 7.63476 120.356 4.16388 124.55 4.16388ZM124.55 1.27148C118.62 1.27148 113.703 6.18856 113.703 12.118C113.703 18.0474 118.62 22.9645 124.55 22.9645C130.479 22.9645 135.396 18.0474 135.396 12.118C135.396 6.04394 130.624 1.27148 124.55 1.27148Z" fill="black"/>
<path d="M144.796 21.663V2.28394H156.076V5.17633H147.688V21.8076H144.796V21.663Z" fill="black"/>
<path d="M167.936 20.9398V4.30847H170.828V21.0844H167.936V20.9398Z" fill="black"/>
<path d="M184.133 7.7793H190.207V10.6717H184.133V7.7793Z" fill="black"/>
<path d="M175.6 18.7706V2.28394H162.006V6.33329C162.006 7.49025 162.006 8.50259 161.862 9.65955C161.717 10.8165 161.572 11.9735 161.283 12.9858C160.994 14.1428 160.56 15.1551 160.126 16.1674C159.692 17.1798 159.114 17.9029 158.391 18.7706H156.655V21.663H177.481V18.7706H175.6ZM161.717 18.7706C162.874 16.8905 163.597 15.0105 164.031 12.8412C164.465 10.6719 164.754 8.50259 164.754 6.33329V5.17633H172.853V18.9152H161.717V18.7706Z" fill="black"/>
<path d="M2.45391 -1.37847e-05L0 2.45459L2.4546 4.9085L4.90851 2.4539L2.45391 -1.37847e-05Z" fill="black"/>
<path d="M88.5652 22.0913L86.1113 24.5459L88.5659 26.9998L91.0198 24.5452L88.5652 22.0913Z" fill="black"/>
<path d="M156.808 18.7607L154.354 21.2153L156.809 23.6692L159.263 21.2146L156.808 18.7607Z" fill="black"/>
<path d="M81.0192 12.6965V19.7828L83.9116 22.6752V2.42847H81.0192V6.62244C81.0192 7.34554 80.8745 8.06864 80.7299 8.64712C80.5853 9.2256 80.1514 9.80408 79.8622 10.2379C79.4283 10.6718 78.9945 10.961 78.416 11.2503C77.8375 11.5395 77.1144 11.6841 76.3913 11.6841C75.6682 11.6841 75.0897 11.5395 74.5113 11.3949C73.9328 11.1057 73.4989 10.8164 73.0651 10.3826C72.6312 9.9487 72.342 9.51484 72.0527 8.93636C71.7635 8.35788 71.7635 7.7794 71.7635 7.0563V2.42847H68.8711V7.20092C68.8711 8.21326 69.0157 9.2256 69.4496 10.0933C69.8834 10.961 70.3173 11.8288 71.0404 12.4072C71.7635 13.1303 72.4866 13.5642 73.4989 13.9981C74.3666 14.4319 75.379 14.5765 76.5359 14.5765C77.4037 14.5765 78.2714 14.4319 79.1391 13.9981C79.7176 13.5642 80.4407 13.275 81.0192 12.6965Z" fill="black"/>
<path d="M4.80469 10.8164L13.3373 2.42847H17.3866L11.4572 8.35788L25.0515 21.8075H21.0021L9.43252 10.3826L8.13094 11.5395L18.399 21.8075H14.3496L4.80469 12.2626" fill="black"/>
<path d="M4.80451 2.42847H1.91211V21.8075H4.80451V2.42847Z" fill="black"/>
<path d="M124.55 13.9982C125.588 13.9982 126.43 13.1564 126.43 12.1181C126.43 11.0798 125.588 10.238 124.55 10.238C123.512 10.238 122.67 11.0798 122.67 12.1181C122.67 13.1564 123.512 13.9982 124.55 13.9982Z" fill="black"/>
<path d="M54.5549 13.9982C55.5932 13.9982 56.4349 13.1564 56.4349 12.1181C56.4349 11.0798 55.5932 10.238 54.5549 10.238C53.5165 10.238 52.6748 11.0798 52.6748 12.1181C52.6748 13.1564 53.5165 13.9982 54.5549 13.9982Z" fill="black"/>
</svg>
