<svg width="147" height="41" viewBox="0 0 147 41" fill="none" xmlns="http://www.w3.org/2000/svg">
<path d="M14.4902 24.687C14.4902 21.0279 11.758 19.4666 8.48921 18.1981C5.95221 17.2224 4.19582 16.1978 4.19582 14.1487C4.19582 12.2459 5.36674 11.3677 6.92798 11.3677C8.19648 11.3677 9.51377 11.9532 10.5871 12.929C11.6605 13.9535 12.4899 15.466 12.7826 17.0272H13.0753L12.8314 11.2214H12.685L11.5141 12.4411H11.3677C10.5871 11.5629 8.39164 10.8799 6.8304 10.8799C2.68337 10.8799 0 13.5632 0 16.7833C0 20.6864 3.07368 22.394 5.70826 23.5161C8.39164 24.687 10.2456 25.8092 10.2456 27.6631C10.2456 29.9562 9.46499 30.7368 7.31829 30.7368C4.24461 30.7368 0.878195 27.5168 0.243943 23.6137H0L0.195154 30.7368H0.390309L1.95154 29.3219H2.1467C3.46399 30.4441 5.80584 31.1271 7.41586 31.1271C11.1726 31.0783 14.4902 28.7853 14.4902 24.687ZM37.3233 21.0279C37.3233 27.3216 33.6641 31.1271 28.6877 31.1271C26.541 31.1271 25.1261 30.6392 23.9064 29.5659H23.76V34.4447C23.76 35.7132 23.7113 37.0793 23.9552 38.0551C24.2479 39.2748 24.5894 39.47 25.5164 39.9091C25.858 40.0554 26.1507 40.0554 26.4434 40.1042V40.3482H15.6123V40.1042C15.9051 40.0554 16.1978 40.0554 16.5393 39.9091C17.4663 39.5188 17.8566 39.2748 18.1006 38.0551C18.3445 37.1281 18.2957 35.7132 18.2957 34.4447V16.7345C18.2957 15.9051 18.2957 14.3438 18.1981 13.6608C18.1006 12.8314 17.9054 12.5875 17.3687 12.1484C16.8321 11.7093 15.7587 11.5141 15.3684 11.4653V11.2702H23.3697C23.5649 11.2702 23.7113 11.3677 23.7113 11.6605L23.6625 14.539H23.9064C24.7358 12.2459 27.0777 10.8799 29.1756 10.8799C33.6641 10.8799 37.3233 14.1487 37.3233 21.0279ZM31.4198 20.8327C31.4198 13.6608 30.2001 11.9532 27.9071 11.9532C25.5652 11.9532 23.76 14.7829 23.76 18.3933V23.8088C23.76 25.7604 24.2479 27.9559 25.0773 28.8828C25.9067 29.8098 26.7361 30.3465 27.9559 30.3465C30.2489 30.3953 31.4198 28.0046 31.4198 20.8327ZM49.4228 30.688V30.4441C49.1301 30.3953 48.6422 30.3953 48.3495 30.2489C47.6177 29.9562 47.2273 29.7122 46.9346 28.5413C46.7395 27.7119 46.7395 26.0531 46.7395 24.7846V3.12247C46.7395 1.90275 46.7883 0.975772 46.7883 0.292732C46.7883 0.0487886 46.6907 0 46.4955 0H38.8357V0.243943C39.2748 0.292732 39.8603 0.292731 40.2994 0.634252C40.6897 0.926983 40.9336 1.2685 41.08 2.09791C41.2264 2.82974 41.2264 4.73249 41.2264 5.5619V24.8334C41.2264 26.1507 41.2264 27.8095 40.9824 28.5901C40.6897 29.761 40.2994 30.005 39.5675 30.2977C39.226 30.4441 38.8845 30.4441 38.5918 30.4929V30.7368L49.4228 30.688ZM68.2552 19.9545H56.5948C56.5948 25.0773 57.473 27.4192 58.6439 28.7365C59.3757 29.5171 60.4978 29.9074 61.62 29.9074C65.1815 29.9074 66.8404 26.9801 67.5722 24.2967L68.0601 24.4431C67.2307 28.1998 64.5473 31.0783 60.2051 31.0783C58.0096 31.0783 55.619 30.5417 53.8626 29.0292C51.8135 27.224 50.6426 24.7358 50.6426 21.0279C50.6426 14.3926 55.0823 10.8311 59.8636 10.8311C65.6206 10.8311 68.2552 14.7342 68.2552 18.7348C68.304 19.0763 68.304 19.613 68.2552 19.9545ZM63.0349 17.6127C63.0349 15.0757 62.6933 13.1729 61.8639 12.1971C61.376 11.6605 60.693 11.4165 59.9612 11.4165C59.1806 11.4165 58.5951 11.6605 58.0096 12.2459C57.1802 13.1729 56.6436 15.466 56.546 19.3691H61.5712C62.6933 19.3203 63.0349 18.9788 63.0349 17.6127ZM82.6479 27.7607C82.0136 28.7853 80.8915 29.3707 79.6718 29.3707C77.769 29.3707 77.3299 28.0534 77.3299 26.4434L77.5251 12.0508H81.7697V11.2214H77.5251V3.36641H76.9396C75.5247 8.39164 73.0365 10.8311 69.3774 11.5629V11.9044C70.0604 12.002 71.2801 11.9532 71.9632 12.0508C71.9144 14.2463 71.768 24.931 71.768 25.8092C71.768 27.5656 72.1095 28.7853 73.2317 29.761C74.1587 30.5904 75.6711 31.0783 77.5251 31.0783C80.1596 31.0783 82.2088 29.2732 82.7942 27.9559L82.6479 27.7607ZM105.871 30.688V30.4929C105.578 30.4441 105.188 30.3953 104.847 30.2489C104.115 29.9562 103.773 29.7122 103.432 28.5413C103.237 27.7119 103.237 26.0531 103.237 24.7846V17.076C103.237 14.9293 102.651 13.4169 102.017 12.4899C101.139 11.2214 99.7239 10.8311 97.6748 10.8311C96.5038 10.8311 94.7474 11.2702 93.6741 12.0996C92.7959 12.8314 91.8201 13.856 91.3322 15.6611H91.2347C91.2347 15.1732 91.3322 11.8556 91.3322 11.5141C91.3322 11.319 91.2347 11.2214 91.0395 11.2214H83.4285V11.4653C83.8188 11.5141 84.4043 11.5141 84.8433 11.8556C85.2337 12.1484 85.5264 12.4899 85.6728 13.3193C85.7703 14.0511 85.7703 15.9051 85.7703 16.7345V24.7846C85.7703 26.1019 85.8191 27.8095 85.5752 28.5901C85.2824 29.761 84.8921 29.9562 84.1603 30.2489C83.8188 30.3953 83.3797 30.4441 83.1357 30.4929V30.688H93.6741V30.4929C93.3814 30.4441 93.0398 30.3953 92.6983 30.2489C91.8689 29.9074 91.625 29.5171 91.381 28.395C91.1859 27.5656 91.1859 26.4434 91.1859 25.2725V20.9791C91.1859 19.613 91.2834 18.4909 91.381 17.4175C91.6738 13.7584 93.8692 12.2947 95.089 12.2947C96.1135 12.2947 96.6502 12.5875 97.0405 13.1241C97.5284 13.7096 97.6748 14.539 97.6748 16.2466V25.2725C97.6748 26.4434 97.626 27.5655 97.4796 28.3462C97.2357 29.5171 96.9429 29.8586 96.1623 30.2489C95.8208 30.3953 95.5281 30.4441 95.1865 30.4929V30.688H105.871ZM117.385 30.688V30.4929C117.093 30.4441 116.702 30.4441 116.361 30.2977C115.629 30.005 115.239 29.761 114.946 28.5901C114.751 27.9559 114.751 26.5898 114.751 25.5164V14.3438C114.751 13.1729 114.8 12.2459 114.8 11.5629C114.8 11.319 114.702 11.2702 114.507 11.2702H106.896V11.5141C107.335 11.5629 107.92 11.6117 108.359 11.9044C108.75 12.1971 109.042 12.5387 109.189 13.3681C109.286 14.0999 109.286 15.9539 109.286 16.7833V25.5164C109.286 26.5898 109.238 28.0046 109.042 28.5901C108.75 29.761 108.359 30.005 107.676 30.2977C107.335 30.4441 106.945 30.4441 106.652 30.4929V30.688H117.385ZM115.043 4.14703C115.043 2.34185 113.531 1.12214 111.97 1.12214C110.457 1.12214 108.994 2.43943 108.994 4.14703C108.994 5.85463 110.409 7.07435 111.97 7.07435C113.58 7.02556 115.043 5.90342 115.043 4.14703ZM126.021 0H118.361V0.243943C118.751 0.292732 119.386 0.292731 119.825 0.634252C120.215 0.926983 120.459 1.2685 120.605 2.09791C120.703 2.82974 120.752 4.6837 120.752 5.51311V24.8334C120.752 26.1019 120.752 27.8095 120.508 28.5901C120.215 29.761 119.874 30.005 119.093 30.2977C118.751 30.4441 118.41 30.4441 118.117 30.4929V30.7368H128.948V30.4929C128.656 30.4441 128.168 30.4441 127.826 30.2977C127.045 30.005 126.704 29.761 126.411 28.5901C126.216 27.7607 126.167 26.0531 126.167 24.8334V22.2964L128.119 20.3448C129.534 21.0767 130.119 22.2964 130.656 25.1261C130.997 27.6143 131.973 30.1026 132.851 30.688H140.17V30.4441C139.047 30.2977 138.462 30.0538 137.974 29.4683C137.145 28.5413 136.267 25.3701 135.876 23.3209C135.291 20.3448 133.827 18.0518 131.193 17.3687L132.559 15.9539C133.827 14.5878 135.925 12.8802 136.413 12.5875C137.437 11.9532 138.413 11.6117 139.194 11.4653V11.2214H130.851V11.4653C131.241 11.5141 132.022 11.7093 132.363 11.8556C132.998 12.1484 133.095 12.6362 133.095 13.1729C133.095 14.0023 132.315 15.222 131.144 16.4905L126.265 21.4182V4.00066C126.265 2.04912 126.362 0.731829 126.362 0.34152C126.265 0.0975772 126.167 0 126.021 0V0Z" fill="black"/>
<path d="M140.023 26.1995L141.78 24.3943H145.244L147 26.1995L143.487 30.7368L140.023 26.1995Z" fill="#913EBA"/>
</svg>
