<svg width="133" height="32" viewBox="0 0 133 32" fill="none" xmlns="http://www.w3.org/2000/svg">
<path d="M123.845 9.01619V5.46935H117.538V31.1054H124.414V16.6984C124.414 13.6302 126.085 11.6999 129.511 11.6999L132.977 11.6842L133 4.89652H130.424C127.146 4.89652 124.992 6.1128 123.845 9.01619ZM102.583 25.3379C98.7822 25.3379 95.9099 22.309 95.9099 18.307C95.9099 14.8543 98.2514 11.182 102.583 11.182C106.923 11.182 109.265 14.8543 109.265 18.307C109.265 22.309 106.392 25.3301 102.583 25.3301V25.3379ZM102.583 4.51986C100.783 4.50609 98.998 4.854 97.3332 5.54317C95.6684 6.23234 94.1573 7.24889 92.8886 8.53316C91.6199 9.81743 90.6192 11.3435 89.9451 13.0219C89.271 14.7003 88.9372 16.4972 88.9633 18.307C88.9633 25.9814 94.9498 32 102.583 32C110.232 32 116.211 25.9814 116.211 18.307C116.211 10.5777 110.225 4.51986 102.583 4.51986ZM83.164 21.179V11.5272H88.893V5.46935H83.164V0H75.9989V23.6351C75.9989 29.1437 78.7697 31.1054 82.9533 31.1054H89.135V24.255L85.6695 24.2786C83.6401 24.2786 83.1718 23.282 83.1718 21.179H83.164ZM36.1379 4.51986C32.4773 4.51986 29.4489 6.10495 27.5132 9.45562C26.1785 6.26189 23.5638 4.51986 19.9032 4.51986C17.0543 4.51986 14.3381 5.75969 12.6053 8.50613C12.059 5.40657 10.1077 4.60618 7.20417 4.60618H0V11.4488L3.84795 11.4174C5.22946 11.4174 6.11144 12.1157 6.11144 13.4654V31.1054H12.98V16.2746C12.98 13.7715 14.463 11.2918 17.9987 11.2918C21.1442 11.2918 22.7208 13.2065 22.7208 16.2746V31.1054H29.5894V16.2746C29.5894 13.3242 31.6343 11.182 34.5769 11.182C37.8004 11.182 39.338 13.128 39.338 16.2825V31.1054H46.2066V15.5056C46.2066 8.11378 42.5381 4.51986 36.1301 4.51986H36.1379ZM61.091 25.3301C57.2899 25.3301 54.4176 22.309 54.4176 18.307C54.4176 14.8543 56.7592 11.182 61.091 11.182C65.4307 11.182 67.7722 14.8543 67.7722 18.307C67.7722 22.309 64.8999 25.3301 61.091 25.3301ZM61.091 4.51986C59.2907 4.50609 57.5057 4.854 55.841 5.54317C54.1762 6.23234 52.6651 7.24889 51.3964 8.53316C50.1277 9.81743 49.1269 11.3435 48.4529 13.0219C47.7788 14.7003 47.445 16.4972 47.471 18.307C47.471 25.9814 53.4576 32 61.091 32C68.7401 32 74.7188 25.9814 74.7188 18.307C74.7188 10.5777 68.7323 4.51986 61.091 4.51986Z" fill="black"/>
</svg>
