<svg width="146" height="46" viewBox="0 0 146 46" fill="none" xmlns="http://www.w3.org/2000/svg">
<path d="M67.5198 5.78439C67.7953 7.43708 67.9789 9.08978 68.2544 10.7425C65.959 11.9361 63.5717 11.9361 61.3681 12.487C59.7154 12.8542 58.0627 13.1297 56.4101 13.497C55.1246 13.7724 54.0228 14.4151 53.3801 15.976C54.941 15.4251 56.3182 14.8742 57.6955 14.5988C61.919 13.6806 66.418 15.5169 68.5298 18.9141C70.7334 22.5868 70.3661 27.7285 67.3362 30.8503C62.8372 35.5329 55.5837 35.992 50.9011 31.9521C48.8811 30.2075 47.963 27.6367 47.6875 24.974C47.4121 22.0359 47.5039 19.0059 47.8711 16.0678C48.5138 11.1097 51.5438 8.17161 56.5019 7.25345C59.6236 6.70255 62.8372 6.15165 65.959 5.69257C66.418 5.60076 66.8771 5.69257 67.5198 5.78439ZM58.5218 19.7405C56.1346 19.7405 54.7574 21.3014 54.7574 23.8722C54.7574 26.4431 56.4101 28.0958 58.7973 28.0958C61.0009 28.0039 62.5618 26.1676 62.5618 23.7804C62.5618 21.485 60.8172 19.7405 58.5218 19.7405Z" fill="#3BA3E3"/>
<path d="M20.2344 5.6926C20.5099 7.34529 20.8772 8.99799 21.1526 10.9261C20.3263 11.1098 19.6835 11.3852 18.949 11.477C15.8273 12.1197 12.6137 12.6706 9.49193 13.3134C8.11468 13.5888 6.82925 14.2315 6.09472 16.0678C7.38015 15.5169 8.29831 15.1497 9.30829 14.7824C11.6955 13.9561 14.0827 14.0479 16.47 14.9661C20.4181 16.5269 22.6217 19.8323 22.6217 23.9641C22.6217 28.0958 20.0508 31.9521 16.1945 33.513C13.9909 34.4311 11.6037 34.7066 9.21648 34.4311C4.90111 33.8802 1.68754 31.0339 0.677556 26.6267C-0.240608 22.7704 -0.240608 18.9142 0.769372 15.0579C1.77935 11.0179 4.44203 8.35527 8.48195 7.43711C11.7873 6.70258 15.2764 6.2435 18.5817 5.60078C19.1326 5.50897 19.5917 5.6926 20.2344 5.6926ZM15.3682 23.9641C15.3682 21.3932 13.8991 19.8323 11.5119 19.7405C9.12466 19.7405 7.56378 21.3014 7.56378 23.8722C7.56378 26.0758 9.3083 28.0958 11.4201 28.0958C13.8073 28.0958 15.2764 26.5349 15.3682 23.9641Z" fill="#3BA3E3"/>
<path d="M93.8721 33.9721C93.8721 33.9721 89.0976 33.9721 86.6186 33.9721C86.6186 30.9421 86.6186 27.9122 86.6186 24.9741C86.4349 24.8823 86.2513 24.8823 86.0677 24.7904C84.0477 27.8204 82.0278 30.7585 79.916 33.8803C77.7124 33.8803 73.2134 33.8803 73.2134 33.8803V13.1298H80.0996V23.5968C80.0996 23.5968 84.8741 16.3433 87.0776 13.1298C89.2812 13.1298 93.8721 13.1298 93.8721 13.1298V33.9721Z" fill="#3BA3E3"/>
<path d="M116.551 20.3832C114.899 20.3832 113.521 21.9441 113.521 23.8722C113.521 25.8003 114.899 27.3612 116.551 27.3612C118.204 27.3612 119.581 25.8003 119.581 23.8722C119.581 21.9441 118.204 20.3832 116.551 20.3832Z" fill="#D85D91"/>
<path d="M122.519 0C109.848 0 99.5649 10.2834 99.5649 22.9541C99.5649 23.4132 99.5649 23.9641 99.6568 24.4232C100.299 24.1477 100.942 23.8723 101.677 23.8723C104.064 23.8723 106.084 25.8004 106.084 28.2794C106.084 30.6667 104.156 32.5948 101.769 32.6866C105.441 40.5828 113.337 46 122.611 46C135.282 46 145.565 35.7166 145.565 23.0459C145.473 10.2834 135.19 0 122.519 0ZM122.06 28.2794C120.04 30.7585 116.184 31.4012 113.246 28.8303V34.1557H109.665V17.6287H113.246V19.006C114.99 17.5369 116.735 17.0778 118.755 17.4451C120.132 17.7206 121.05 18.4551 121.785 19.3733C123.804 21.5768 123.896 26.0758 122.06 28.2794ZM133.721 29.8403C133.537 30.2994 133.262 30.8503 133.078 31.3094C131.609 34.4311 129.405 35.0739 125.916 33.3293C126.192 32.6866 126.834 31.493 127.11 30.8503C128.028 31.4012 129.497 31.7685 129.864 30.5749C128.303 26.2595 125.182 17.6287 125.182 17.6287H128.763L131.701 26.0758L134.639 17.7206H138.128C138.128 17.6287 135.006 26.6267 133.721 29.8403Z" fill="#D85D91"/>
<path d="M35.9356 12.8543C31.6202 11.6607 26.6621 13.4052 24.5503 16.9861C25.9276 18.0879 27.4885 19.2815 28.7739 20.3833C31.3447 17.3533 36.211 18.0879 37.1292 21.3014C37.1292 21.3932 37.1292 21.4851 37.1292 21.4851H31.6202V25.6168H37.1292C36.8537 26.994 35.7519 27.9122 34.8338 28.2795C32.5384 29.1976 30.3348 28.4631 28.5903 26.7186C27.213 27.7286 25.8358 28.7386 24.3667 29.7485C26.5703 33.7885 31.1611 35.3493 36.1192 34.0639C41.0773 32.7785 44.199 28.9222 44.199 23.7805C44.3827 18.2715 41.3527 14.4152 35.9356 12.8543Z" fill="#3BA3E3"/>
</svg>
