<svg width="91" height="41" viewBox="0 0 91 41" fill="none" xmlns="http://www.w3.org/2000/svg">
<path d="M62.51 18.6512H75.48V14.6512H66.71V11.3912H74.55V7.36123H66.71V4.27123H80.23V18.6512H84.43V4.27123H90.69V0.27123H62.51V18.6512ZM17.46 18.6512H30.41V14.6512H21.67V11.3912H29.51V7.36123H21.67V4.27123H30.41V0.27123H17.46V18.6512ZM31.13 18.6512H35.33V8.95123L41.91 18.6512H47.37L40.44 8.72123L47.37 0.26123H41.88L35.33 8.91123V0.26123H31.13V18.6512ZM80.17 21.5512H84.42V39.9612H80.17V21.5512Z" fill="#302E28"/>
<path fill-rule="evenodd" clip-rule="evenodd" d="M13.13 21.5312V18.6012C14.6393 18.2773 16.0303 17.5438 17.15 16.4812L14.83 13.1812C13.611 14.2845 12.0136 14.8754 10.37 14.8312C6.71 14.8312 4.49 12.4912 4.49 9.17117C4.49 6.25117 6.71 4.01117 9.99 4.01117C11.69 4.01117 13.33 4.65117 14.6 5.79117L17.13 2.69117C15.0834 0.919262 12.4567 -0.0381652 9.75 0.00116535C3.65 0.00116535 0 4.45117 0 9.50117C0 15.0012 3.85 18.7312 8.9 19.0112V21.5312C3.77 21.5512 0 24.9112 0 29.8812C0 34.9112 3.72 38.2512 8.9 38.2512V40.1112H13.13V38.2512C18.47 38.2512 22.08 34.8712 22.08 29.9012C22.08 24.7212 18.34 21.5512 13.13 21.5312ZM8.9 34.3012C5.65 34.3212 4.49 31.9412 4.49 29.8712C4.49 27.9312 5.47 25.3912 8.9 25.3912V34.2912V34.3012ZM13.13 25.4012V34.3012C16.33 34.3212 17.57 32.0212 17.57 29.8712C17.57 27.9312 16.56 25.3912 13.13 25.3912V25.4012ZM70.21 27.2912C70.86 27.2112 71.51 27.1712 72.17 27.1912C77.18 27.1912 79.58 29.6412 79.59 33.4212C79.59 37.5912 76.87 40.0512 70.96 40.0512C70.22 40.0512 69.42 40.0312 68.65 40.0112C68.0035 39.9897 67.3568 39.9764 66.71 39.9712H66.01V28.6012L60.77 35.2312H60.15L54.92 28.5812V39.9612H50.7V21.5612H54.95L60.78 29.0412L66.21 21.5512H70.21V27.2912ZM70.21 35.9312C70.73 35.9912 71.26 36.0212 71.78 36.0112H71.79C73.91 36.0112 75.09 35.2212 75.09 33.5112C75.09 31.9412 73.79 31.1812 71.83 31.1812C71.29 31.1712 70.75 31.2012 70.21 31.2612V35.9312ZM39.77 21.5312L42.04 21.5012C48.12 21.5012 50.11 24.4912 50.11 28.0212C50.11 31.9212 47.38 34.6512 42.14 34.6512C41.52 34.6512 41.04 34.6512 40.24 34.5912V39.9612H36.03V28.4012L26.41 39.9712H22.71V21.5712H26.93V33.1412L36.52 21.5612H37.27C37.95 21.5612 38.87 21.5612 39.77 21.5412V21.5312ZM40.23 30.4812C40.91 30.5812 41.59 30.6312 42.27 30.6112C44.31 30.6112 45.62 29.7812 45.62 28.0212C45.62 26.3712 44.62 25.5312 42.02 25.5312C41.7 25.5312 41.44 25.5512 41.17 25.5612C40.88 25.5712 40.59 25.5912 40.23 25.5912V30.4912V30.4812ZM53.95 13.3312C53.32 13.3312 52.69 13.3012 52.07 13.2312V18.6612H47.87V0.261165C48.97 0.241165 51.73 0.201165 53.85 0.201165C59.95 0.201165 61.95 2.74117 61.95 6.71117C61.95 10.5912 59.21 13.3412 53.95 13.3412V13.3312ZM52.25 4.26117L52.07 4.27117V9.14117C52.7 9.26117 53.34 9.31117 53.98 9.30117C56.14 9.30117 57.43 8.46117 57.43 6.70117C57.43 4.95117 56.25 4.20117 53.67 4.20117C53.1 4.20117 52.6 4.23117 52.24 4.26117H52.25Z" fill="#302E28"/>
</svg>
