<svg width="136" height="31" viewBox="0 0 136 31" fill="none" xmlns="http://www.w3.org/2000/svg">
<path d="M119.533 8.15625H111.514V21.59V21.7956H111.582C111.651 22.8922 111.788 23.8518 112.062 24.6742C112.473 26.1821 113.227 27.3473 114.392 28.3754C115.352 29.1978 116.38 29.7461 117.545 30.0888C118.505 30.363 119.807 30.5001 121.315 30.5001H129.402C130.362 30.5001 131.047 30.4315 131.527 30.363C132.418 30.2259 133.241 29.8147 133.926 29.2664C134.68 28.6495 135.228 27.827 135.502 26.799C135.64 26.2506 135.708 25.5652 135.708 24.8113V8.15625H127.757V16.4495V18.6428V24.263C127.689 24.3315 127.552 24.3315 127.346 24.3315H123.097C122.754 24.3315 122.48 24.3315 122.206 24.3315C121.726 24.3315 121.383 24.263 121.109 24.1259C120.698 23.9888 120.355 23.7832 120.15 23.4405C119.944 23.1664 119.807 22.8237 119.738 22.4124C119.67 22.1383 119.601 21.727 119.601 21.3158V8.15625H119.533Z" fill="#222222"/>
<path d="M40.8497 0.137085H32.8306V30.4315H40.8497V0.137085Z" fill="#222222"/>
<path d="M89.3068 22.6865H81.082V30.4315H89.3068V22.6865Z" fill="#222222"/>
<path d="M29.3345 8.22473H21.3154V30.4315H29.3345V8.22473Z" fill="#222222"/>
<path d="M29.3345 0.137085H21.3154V5.75731H29.3345V0.137085Z" fill="#222222"/>
<path d="M5.20899 3.76966L5.00337 4.11236C4.66068 4.72921 4.24944 5.68877 4.11236 6.30562C3.90674 7.05955 3.8382 8.22472 3.8382 8.22472H0V14.3933H3.63259V30.4315H11.6517V14.3933H17.8202V8.22472H11.8573C11.8573 8.22472 11.8573 7.88202 11.8573 7.47079C11.8573 6.37416 12.8854 5.96292 13.5023 5.89438C14.1191 5.82584 15.0787 5.7573 16.4494 5.7573H17.8202V0.0685393L15.5584 0C13.9135 0 12.3371 0.137079 11.0348 0.411236C9.52697 0.685393 8.29326 1.16517 7.40225 1.71348C7.05955 1.85056 6.85393 2.05618 6.57978 2.2618C6.03146 2.74157 5.55169 3.28989 5.20899 3.76966Z" fill="#222222"/>
<path d="M48.4574 8.29326C48.2518 8.3618 47.9776 8.43034 47.772 8.49888C47.2922 8.63596 46.881 8.84158 46.5383 9.0472C46.0585 9.32135 45.6473 9.73259 45.3046 10.2124C44.7563 11.1034 44.4136 12.2685 44.4136 13.7079V30.4315H52.4327V14.3933H57.0248V30.4315H64.9754V14.3933H67.1686C67.5799 14.3933 67.854 14.3933 68.1282 14.4618C68.4709 14.5303 68.745 14.736 68.8821 14.9416C69.0877 15.1472 69.2934 15.4899 69.3619 15.9697C69.499 16.3809 69.5675 16.7921 69.499 17.2719V30.4315H77.5181V17.2719C77.5181 15.9011 77.3125 14.5989 76.8327 13.4337C76.49 12.5427 76.0787 11.7202 75.5304 11.0348C75.3248 10.7607 75.1192 10.5551 74.9136 10.3494C74.6394 10.0753 74.2967 9.86967 74.0226 9.66405C72.5147 8.63596 70.5271 8.15619 68.1282 8.08765H49.9653C49.4169 8.15619 48.8686 8.15619 48.4574 8.29326Z" fill="#222222"/>
<path d="M108.018 8.15625H103.563C102.124 8.15625 100.89 8.29333 99.9308 8.49895C98.423 8.7731 97.1207 9.38996 96.0241 10.281C95.887 10.3495 95.8185 10.4866 95.6814 10.5551C95.3387 10.8293 94.996 11.172 94.7904 11.5147C94.105 12.3371 93.6252 13.2967 93.3511 14.3248C93.0084 15.49 92.8027 16.9293 92.8027 18.5057V30.4315H100.822V18.4372C100.822 17.0664 101.165 16.1068 101.713 15.49C102.056 15.0787 102.535 14.8046 103.084 14.6675C103.563 14.5304 104.18 14.4619 104.934 14.4619H108.087V8.15625H108.018Z" fill="#222222"/>
</svg>
