<svg width="194" height="21" viewBox="0 0 194 21" fill="none" xmlns="http://www.w3.org/2000/svg">
<path fill-rule="evenodd" clip-rule="evenodd" d="M56.5634 18.8568L50.2407 14.9955L43.919 18.897C45.6722 20.2175 47.8522 21 50.2148 21C52.6011 21 54.8013 20.2016 56.5634 18.8568ZM39.7304 10.5C39.7304 13.8662 41.312 16.8623 43.7716 18.7838L45.7268 11.8822L40.1954 7.39808C39.8931 8.37845 39.7304 9.42016 39.7304 10.5ZM50.1298 0.000320435C45.5196 0.036971 41.6183 3.05345 40.2516 7.22113L47.4364 6.87628L50.1298 0.000320435ZM53.0167 6.87628L60.1778 7.22113C58.8047 3.03377 54.8729 0.00853263 50.2344 0L53.0167 6.87628ZM56.7537 18.7081C59.1585 16.7841 60.6992 13.8222 60.6992 10.5C60.6992 9.42049 60.5365 8.37911 60.2344 7.39896L54.7395 11.8822L56.7537 18.7081ZM105.138 11.9729H114.523V8.84255H105.138V4.15266H115L115.083 0.908162H100.87V20.188H115.374V16.9443H105.138V11.9729ZM144.181 1.0284L135.382 20.0682H139.7L141.034 16.9514H150.633L151.905 20.0682H156.335L147.507 1.0284H144.181ZM149.405 13.9402H142.342L143.539 11.1627L145.863 5.61873L147.874 10.1894L149.405 13.9402ZM178.56 11.0527V20.0678H174.439V1.02864H178.56V10.0919V10.1457L188.777 0.971018H194L183.31 10.5881L193.924 20.1591H188.674L188.635 20.1253L178.56 11.0527ZM119.056 4.29026H125.057V20.0682H129.302V4.29026H135.454V1.0284H119.056V4.29026ZM159.357 1.0284H163.603V16.8072H171.284V20.0682H159.357V1.0284ZM89.1919 0.908338H84.8944V20.1882H97.1554V16.888H89.1919V0.908338ZM65.3682 0.908338V20.1882H69.6657V14.0028V13.9512H74.3072C78.189 13.9512 81.5946 10.9039 81.5946 7.4298C81.5946 3.95563 78.189 0.908338 74.3072 0.908338H65.3682ZM74.3072 10.4054H69.6657V4.45414H74.3072C76.1294 4.45414 77.9181 5.9278 77.9181 7.4298C77.9181 8.9313 76.1294 10.4054 74.3072 10.4054ZM24.5027 11.9729H33.8875V8.84255H24.5027V4.15266H34.3632L34.4484 0.908162H20.2346V20.188H34.7374V16.9443H24.5027V11.9729ZM0.310241 0.908338H4.2975H8.93901C12.8208 0.908338 16.2263 3.95563 16.2263 7.4298C16.2263 10.9039 12.8208 13.9512 8.93901 13.9512H4.2975V14.0028V20.1882H0V0.908338H0.310241ZM4.2975 4.45414V10.4054H8.93901C10.7612 10.4054 12.5498 8.9313 12.5498 7.4298C12.5498 5.9278 10.7612 4.45414 8.93901 4.45414H4.2975Z" fill="#0A0A0A"/>
</svg>
