<svg width="82" height="82" viewBox="0 0 82 82" fill="none" xmlns="http://www.w3.org/2000/svg">
<path d="M41 82C63.6437 82 82 63.6437 82 41C82 18.3563 63.6437 0 41 0C18.3563 0 0 18.3563 0 41C0 63.6437 18.3563 82 41 82Z" fill="white"/>
<path d="M14.7603 22.0635V46.7728H19.1336V23.5395C18.1414 22.6634 16.7392 22.1919 14.7603 22.0635Z" fill="url(#paint0_linear_53_477)"/>
<path d="M45.667 46.8644V17.2104H41.3005V39.0143L27.4958 17.2104H23.2905V46.8644H27.657V25.0606L41.4617 46.8644H45.667Z" fill="#EF0001"/>
<path d="M19.1336 22.155V17.2104H14.7603V21.059C16.5629 21.1328 18.0061 21.3801 19.1336 22.155Z" fill="#EF0001"/>
<path d="M65.2437 38.3131C64.9386 39.5911 64.2173 40.7313 63.1933 41.5544C62.1693 42.3775 60.9007 42.8368 59.587 42.86H59.4832C55.9845 42.86 53.1227 42.5867 50.7269 40.1718C50.243 39.7477 49.7946 39.2847 49.3862 38.7874C49.8244 41.1955 51.1078 43.3681 53.0053 44.9142C54.9029 46.4603 57.29 47.2783 59.7369 47.2209C62.1839 47.1636 64.5301 46.2347 66.3531 44.6014C68.1762 42.9681 69.3563 40.7378 69.6812 38.3118L65.2437 38.3131Z" fill="#EF0001"/>
<path d="M59.4911 16.8469C56.766 16.8502 54.1535 17.9342 52.2266 19.8611C50.2996 21.788 49.2157 24.4005 49.2124 27.1256V36.9492C49.2124 37.049 49.2124 37.1488 49.2192 37.2485C51.1845 40.0939 53.2577 41.2501 55.9337 41.6615C55.2018 41.1128 54.6076 40.4014 54.198 39.5836C53.7884 38.7658 53.5745 37.8639 53.5734 36.9492V27.1256C53.5745 25.6609 54.1192 24.2486 55.1019 23.1625C56.0847 22.0763 57.4355 21.3935 58.8929 21.2464C60.3502 21.0992 61.8103 21.4981 62.9904 22.3659C64.1704 23.2337 64.9864 24.5085 65.2803 25.9435H69.7001C69.4073 23.4402 68.2062 21.1315 66.3245 19.4548C64.4428 17.7782 62.0114 16.8503 59.4911 16.8469Z" fill="url(#paint1_linear_53_477)"/>
<path d="M25.8904 65.2338H23.4523L17.1984 55.279V65.2338H14.7603V51.2036H17.1984L23.4714 61.1967V51.2036H25.8904V65.2338Z" fill="#424242"/>
<path d="M37.4852 58.9704H31.7233V63.2877H38.4582V65.2338H29.2852V51.2036H38.3913V53.1634H31.7233V57.0379H37.4852V58.9704Z" fill="#424242"/>
<path d="M51.9619 61.7652L54.1199 51.2036H56.5389L53.2999 65.2338H50.9766L48.3075 54.9906L45.5741 65.2338H43.2317L39.9927 51.2036H42.4117L44.5901 61.7447L47.2688 51.2036H49.312L51.9619 61.7652Z" fill="#424242"/>
<path d="M66.1684 61.6203C66.1684 61.0044 65.9516 60.5288 65.5179 60.1935C65.0842 59.8582 64.302 59.5193 63.1713 59.1767C62.0406 58.836 61.1414 58.4569 60.4735 58.0396C59.198 57.236 58.5602 56.1883 58.5602 54.8963C58.5602 53.7656 59.0212 52.834 59.9433 52.1015C60.8653 51.3689 62.0616 51.0045 63.5321 51.0081C64.433 50.9923 65.3261 51.1771 66.1466 51.5493C66.8793 51.8833 67.5038 52.4159 67.9492 53.0868C68.3825 53.7424 68.6105 54.5123 68.6038 55.2981H66.1684C66.1684 54.5692 65.9406 53.9961 65.4851 53.5788C65.0295 53.1616 64.3726 52.9543 63.5144 52.957C62.718 52.957 62.0999 53.1274 61.6598 53.4681C61.4432 53.6351 61.2702 53.8519 61.1552 54.1001C61.0403 54.3482 60.987 54.6204 60.9997 54.8936C60.9997 55.4074 61.237 55.8361 61.7117 56.1796C62.1864 56.5231 62.9704 56.8575 64.0638 57.1827C65.1571 57.5062 66.034 57.8756 66.6946 58.2911C67.2883 58.642 67.7864 59.134 68.1446 59.7234C68.4612 60.2977 68.6205 60.9455 68.6066 61.6012C68.6066 62.7701 68.1583 63.6999 67.2618 64.3905C66.3652 65.0812 65.1498 65.4265 63.6155 65.4265C62.6532 65.4375 61.6994 65.2452 60.8166 64.862C60.0254 64.5347 59.339 63.9968 58.8322 63.3068C58.3547 62.631 58.1062 61.8202 58.1229 60.993H60.561C60.561 61.7893 60.8248 62.4061 61.3523 62.8435C61.8798 63.2808 62.6347 63.4995 63.6169 63.4995C64.4642 63.4995 65.102 63.3277 65.5302 62.9842C65.7363 62.823 65.9015 62.6155 66.0124 62.3786C66.1233 62.1416 66.1767 61.8818 66.1684 61.6203Z" fill="#424242"/>
<defs>
<linearGradient id="paint0_linear_53_477" x1="17.2162" y1="21.4772" x2="16.798" y2="41.3089" gradientUnits="userSpaceOnUse">
<stop stop-color="#808080"/>
<stop offset="0.08" stop-color="#737373"/>
<stop offset="0.26" stop-color="#5D5D5D"/>
<stop offset="0.45" stop-color="#4E4E4E"/>
<stop offset="0.68" stop-color="#454545"/>
<stop offset="1" stop-color="#424242"/>
</linearGradient>
<linearGradient id="paint1_linear_53_477" x1="7523.54" y1="7080.31" x2="9286.28" y2="4963.29" gradientUnits="userSpaceOnUse">
<stop stop-color="#808080"/>
<stop offset="0.08" stop-color="#737373"/>
<stop offset="0.26" stop-color="#5D5D5D"/>
<stop offset="0.45" stop-color="#4E4E4E"/>
<stop offset="0.68" stop-color="#454545"/>
<stop offset="1" stop-color="#424242"/>
</linearGradient>
</defs>
</svg>
