<svg width="151" height="53" viewBox="0 0 151 53" fill="none" xmlns="http://www.w3.org/2000/svg">
<path d="M0 31.814C0.648954 31.8598 2.39731 31.7224 2.9012 31.165C3.35929 30.7069 3.35929 29.7373 3.35929 28.7677V5.12291C3.35929 3.92425 3.31348 3.09206 2.94701 2.63398C2.53474 2.13008 1.56512 1.99266 0.732936 1.99266H0V0.88562H23.1409L25.4466 8.21498L24.477 8.58145C23.828 7.47441 21.8965 4.38997 20.003 3.14551C18.018 1.85523 15.7658 1.94685 12.7653 1.94685H8.06229V16.0101H10.4596C11.9789 16.0101 14.422 16.0559 15.8497 14.9946C17.2316 13.9792 17.9722 11.7193 18.0638 10.1542H18.8502V22.9653H18.0638C17.9722 21.5376 17.2316 19.1403 15.8497 18.1249C14.9717 17.4759 13.4982 17.1095 10.4596 17.1095H8.06229V28.3554C8.06229 29.3251 8.1081 30.5237 8.80287 31.165C9.30676 31.6231 10.2764 31.814 11.8415 31.814H14.6511C16.5903 31.814 18.6593 31.6766 20.4611 30.6153C22.2553 29.5541 24.5152 26.5155 25.7138 24.2556L26.5918 24.5304L24.8893 32.8752H0V31.814Z" fill="#1E1E1C"/>
<path d="M29.2563 3.74102C28.7982 2.58817 28.1034 2.08428 27.3628 2.03847L25.981 1.94685V0.88562H38.4714V1.94685L37.0437 2.03847C34.6922 2.17589 34.4632 3.00808 34.4632 3.74102C34.4632 4.10748 34.509 4.43578 34.8296 5.30614L43.2202 26.5078L50.7786 5.94746C50.916 5.58099 51.1909 4.7488 51.1909 4.05404C51.1909 2.25987 49.3509 2.06901 48.702 2.0232L47.2743 1.93158V0.88562H57.5048V1.94685L56.4894 2.13008C54.8327 2.45074 53.7714 2.45074 52.2979 6.32156L42.0674 33.5165H41.1436L29.2563 3.74102Z" fill="#1E1E1C"/>
<path d="M50.1675 31.7682L51.7326 31.4933C53.2519 31.2185 53.9467 28.7296 54.588 26.9736L62.5205 5.86349C62.5663 5.72606 62.6579 5.21453 62.6579 5.07711C62.6579 4.61902 62.4289 4.33654 62.3831 4.24492L61.9708 3.55016C63.9558 2.07665 64.9178 0.786379 65.4293 0H65.8416L77.0876 29.2716C77.7824 31.02 78.4695 31.8522 80.5003 31.7605V32.8676H68.4222V31.7682L69.8499 31.5849C71.1401 31.4017 72.1097 31.2643 72.1097 30.1573C72.1097 29.8824 72.0639 29.2793 71.7891 28.5921L68.9795 20.8963H58.1458L55.7943 27.3019C55.6111 27.8057 55.1453 29.2869 55.1453 29.8366C55.1453 31.3101 56.8021 31.5391 57.7717 31.6766L58.7413 31.814V32.8752H50.1675V31.7682ZM68.468 19.5526L63.3527 6.459L58.6039 19.5526H68.468Z" fill="#1E1E1C"/>
<path d="M85.5398 27.7142C87.0591 27.7142 88.2577 28.9129 88.2577 30.4322C88.2577 31.9057 87.0133 33.1502 85.5398 33.1502C84.0204 33.1502 82.8218 31.9057 82.8218 30.4322C82.8218 28.8671 83.9746 27.7142 85.5398 27.7142Z" fill="#E20D18"/>
<path d="M111.345 29.0503C105.909 18.774 102.221 17.9876 99.9616 18.3083V29.0045C99.9616 30.5238 100.145 31.8141 103.283 31.8141H103.977V32.8754H91.8535V31.7683H92.1742C94.3424 31.7683 95.2662 31.9515 95.2662 28.4014V5.30628C95.2662 1.93935 94.6173 1.98516 92.1742 1.98516H91.8535V0.885759L100.611 0.839951C109.833 0.794142 115.964 2.17603 115.964 9.68862C115.964 13.6511 113.475 17.018 108.818 17.896C111.582 20.4765 113.055 22.9196 115.04 26.5156L116.468 29.0961C117.018 30.0658 118.17 32.089 121.125 31.8599V32.8754H113.384L111.345 29.0503ZM99.9616 17.3386C101.573 17.4303 102.13 17.4303 102.359 17.4303C103.878 17.4303 106.276 17.247 107.94 16.2316C110.566 14.6665 111.078 11.8493 111.078 9.45195C111.078 7.10044 110.482 4.38247 107.619 2.81735C106.054 1.93935 104.344 1.84774 103.145 1.84774C100.107 1.84774 99.9616 3.50448 99.9616 4.93981V17.3386Z" fill="#1E1E1C"/>
<path d="M123.202 4.93967C123.202 3.32874 123.431 1.75598 119.835 1.94685V0.88562H131.684V1.94685H130.531C128.783 1.94685 127.905 1.76362 127.905 4.71063V23.8433C127.905 28.9128 131.501 32.2339 136.525 32.2339C145.747 32.2339 145.839 23.0569 145.839 20.2931V6.22994C145.839 2.58817 144.686 1.93922 142.564 1.93922H141.594V0.88562H151V1.94685H150.168C148.32 1.94685 147.175 2.54236 147.175 6.23758V20.8047C147.175 23.9884 146.992 33.4325 135.417 33.4325C129.149 33.4325 126.011 31.2185 124.584 28.4547C123.293 26.0116 123.202 22.7363 123.202 19.1861V4.93967Z" fill="#1E1E1C"/>
<path d="M4.15254 48.2287L2.51107 50.8933H1.2666L3.13711 47.9768C2.28966 47.6867 1.86211 47.0683 1.86211 46.1216C1.86211 45.5108 2.07588 45.0451 2.4958 44.7244C2.91571 44.4037 3.53412 44.2434 4.35867 44.2434H6.35134V50.8856H5.26721V48.2211H4.15254V48.2287ZM5.26721 45.1519H4.39685C3.93876 45.1519 3.58756 45.2359 3.34325 45.3963C3.09894 45.5566 2.97679 45.8238 2.97679 46.1903C2.97679 46.5491 3.09131 46.824 3.32798 47.0301C3.56466 47.2286 3.93113 47.3278 4.42739 47.3278H5.25194V45.1519H5.26721Z" fill="#1E1E1C"/>
<path d="M16.8184 48.8242V47.9614H20.7274V48.8242H16.8184Z" fill="#1E1E1C"/>
<path d="M32.8593 47.4576L30.4314 44.251H31.5919L33.9587 47.4728V44.251H34.9894V47.4728L37.3561 44.251H38.5166L36.0888 47.4576L38.6235 50.8932H37.4248L34.9894 47.5263V50.8932H33.9587V47.5263L31.5232 50.8932H30.3169L32.8593 47.4576Z" fill="#1E1E1C"/>
<path d="M52.4804 50.8932H48.7241V44.251H52.4804V45.1671H49.8083V46.9766H52.3125V47.8851H49.8083V49.9694H52.4804V50.8932Z" fill="#1E1E1C"/>
<path d="M68.3766 50.8932H67.2848V47.9004H64.2233V50.8932H63.1392V44.251H64.2233V46.9689H67.2848V44.251H68.3766V50.8932Z" fill="#1E1E1C"/>
<path d="M83.8905 49.9618H86.2573V44.251H87.349V49.9923H88.2347V52.7255H87.1811V50.8932H79.3555V44.251H80.4396V49.9618H82.7911V44.251H83.8905V49.9618Z" fill="#1E1E1C"/>
<path d="M98.5568 44.2434H99.5493V47.702C99.5493 48.0608 99.5417 48.4273 99.5188 48.7937C99.5035 49.1602 99.4882 49.4121 99.4806 49.5419H99.5188L102.916 44.2434H104.184V50.8856H103.183V47.4576C103.183 46.9308 103.214 46.2972 103.267 45.549H103.229L99.8165 50.8856H98.5415V44.2434H98.5568Z" fill="#1E1E1C"/>
<path d="M120.384 50.8932H119.292V47.9004H116.231V50.8932H115.146V44.251H116.231V46.9689H119.292V44.251H120.384V50.8932Z" fill="#1E1E1C"/>
<path d="M135.478 50.8931L134.814 49.0455H132.272L131.623 50.8931H130.478L132.966 44.2203H134.15L136.639 50.8931H135.478ZM134.524 48.1064L133.898 46.297C133.852 46.1748 133.791 45.984 133.707 45.7244C133.623 45.4648 133.57 45.2739 133.539 45.1518C133.455 45.5259 133.341 45.9305 133.18 46.3733L132.592 48.1064H134.524Z" fill="#1E1E1C"/>
<path d="M146.458 50.3207C146.458 50.0993 146.519 49.9237 146.633 49.8091C146.748 49.6946 146.923 49.6335 147.137 49.6335C147.351 49.6335 147.519 49.6946 147.633 49.8168C147.748 49.9389 147.809 50.1069 147.809 50.3207C147.809 50.5344 147.748 50.7024 147.633 50.8322C147.519 50.9544 147.351 51.0231 147.137 51.0231C146.923 51.0231 146.755 50.962 146.633 50.8398C146.511 50.7177 146.458 50.5497 146.458 50.3207ZM147.534 48.8701H146.74L146.503 44.2434H147.763L147.534 48.8701Z" fill="#1E1E1C"/>
</svg>
