<svg width="116" height="45" viewBox="0 0 116 45" fill="none" xmlns="http://www.w3.org/2000/svg">
<path fill-rule="evenodd" clip-rule="evenodd" d="M112.094 20.4763V34.0585C112.094 36.8303 113.511 37.1627 113.672 37.1918C114.346 37.2792 116 37.8447 116 41.0933C116 42.6295 115.191 43.8637 113.778 44.4835C112.862 44.8874 111.907 44.9298 111.538 44.9298H111.402C109.863 44.9298 104.752 44.273 104.128 35.8318C104.072 35.4384 104.086 35.0597 104.094 34.918V20.1916L104.088 20.0922C103.662 19.8896 103.296 19.6181 102.99 19.2976V40.3993C103.016 40.8363 103.026 42.5182 101.896 43.7697C101.395 44.3233 100.483 44.9828 98.9902 44.9828C97.5024 44.9828 96.3105 44.31 95.6199 43.134C94.1481 44.6398 92.8576 44.9484 91.2259 44.9484C90.1113 44.9272 89.1435 44.4928 88.3502 43.6638C86.2518 41.4694 86.2465 37.1931 86.2665 36.3602V33.1368C85.4093 37.6262 83.8828 40.9079 81.6911 42.9394C79.5687 44.906 77.5156 45.0159 76.8824 44.9974L76.7064 45C75.9705 45 74.0427 44.8067 72.075 43.0096C68.4794 39.7305 66.6583 33.0533 66.6583 23.158C66.6583 13.076 68.4901 6.31271 72.107 3.05224C74.2134 1.15184 76.2531 1.10549 76.873 1.14522C77.353 1.11873 79.486 1.13198 81.6524 3.11448C84.1428 5.38966 85.7825 9.31626 86.5584 14.8281C86.7238 14.3685 86.9771 13.8958 87.3583 13.4733C87.8583 12.9171 88.7715 12.2602 90.2646 12.2602C91.7618 12.2602 92.671 12.9184 93.1709 13.472C94.3348 14.7632 94.2868 16.5497 94.2641 16.894L94.2668 30.2961C94.2801 30.6404 94.2801 31.0867 94.2775 31.541C94.2775 31.8456 94.2775 32.2958 94.2908 32.762V32.8017L94.3201 33.5592C94.3201 34.1287 94.4641 34.5922 94.6401 34.5922C94.8134 34.5922 94.956 34.1287 94.956 33.5592L94.96 33.4241C94.968 33.2308 94.9734 33.011 94.9774 32.7527V32.7461L94.9734 32.4071L94.9707 32.031C94.9707 31.9383 94.9747 31.8588 94.984 31.7767V16.8424C94.9574 16.4053 94.9494 14.7235 96.0772 13.4733C96.5798 12.9171 97.4877 12.2602 98.9835 12.2602C100.483 12.2602 101.393 12.9184 101.89 13.4733C102.13 13.7382 102.311 14.0242 102.459 14.3142C102.832 13.6719 103.379 13.1621 104.082 12.8217L104.068 11.9265C104.066 11.8338 104.074 11.7345 104.088 11.6378V6.79608C104.059 6.35906 104.052 4.67718 105.181 3.4257C105.681 2.87346 106.591 2.21262 108.088 2.21262C109.586 2.21262 110.498 2.87213 110.994 3.4257C112.125 4.67718 112.119 6.35906 112.09 6.84508V12.4642C113.723 12.7992 115.347 13.9792 115.347 16.4557C115.347 18.8302 113.756 20.2207 112.091 20.4763H112.094ZM80.6139 4.30239C78.8621 2.69997 77.2543 2.71719 76.945 2.7397H76.8517C76.8064 2.73573 76.7397 2.73308 76.6557 2.73308C76.0771 2.73308 74.656 2.88405 73.1415 4.24942C69.8753 7.19206 68.2195 13.5541 68.2195 23.158C68.2195 32.5779 69.8673 38.8578 73.1149 41.8216C74.824 43.3777 76.4478 43.4267 76.8344 43.4042H76.9144C77.2277 43.4214 78.8741 43.4042 80.6472 41.762C83.8841 38.7558 85.5239 32.4998 85.5239 23.158C85.5239 13.6229 83.8735 7.27946 80.6152 4.30239H80.6139ZM100.749 14.5526C100.459 14.2348 99.9194 13.8534 98.9889 13.8534C98.0556 13.8534 97.517 14.2335 97.2264 14.5526C96.4825 15.3763 96.5372 16.6503 96.5438 16.7934V31.827C96.5438 31.8667 96.5438 31.8999 96.5385 31.9369L96.5345 31.9846V32.3859C96.5385 32.6348 96.5398 32.8719 96.5345 33.101V33.885C96.5345 35.1458 95.6866 36.1681 94.6414 36.1681C93.5935 36.1681 92.7457 35.1444 92.7457 33.8837V32.656C92.7297 32.3409 92.719 31.9714 92.719 31.5436C92.719 31.1026 92.719 30.6828 92.7057 30.3252V16.841C92.719 16.649 92.7723 15.3803 92.0257 14.5526C91.6071 14.0865 91.0125 13.8507 90.266 13.8507C89.3328 13.8507 88.7942 14.2348 88.5062 14.5526C87.7596 15.3763 87.813 16.6503 87.8236 16.7934V36.38C87.7863 38.005 88.0863 41.1078 89.4634 42.5513C89.9727 43.0811 90.5659 43.3459 91.2765 43.3552L91.3432 43.3578C92.855 43.3578 93.9322 42.8771 95.2293 41.3422L95.332 41.2297C95.4813 41.0641 95.6919 40.9728 95.9053 40.9728C95.9692 40.9728 96.0332 40.9794 96.0946 40.9939C96.3705 41.0668 96.5878 41.2853 96.6585 41.5674C96.9598 42.7566 97.765 43.3843 98.9862 43.3843C99.9167 43.3843 100.457 43.0029 100.746 42.6851C101.493 41.8587 101.437 40.5847 101.426 40.443V16.8437C101.437 16.653 101.493 15.379 100.746 14.5553L100.749 14.5526ZM111.273 13.962C110.859 13.9395 110.534 13.5912 110.534 13.1674V6.79608C110.545 6.60538 110.597 5.33139 109.851 4.50502C109.562 4.18718 109.025 3.8071 108.092 3.80578C107.158 3.80578 106.62 4.18718 106.332 4.50502C105.585 5.33139 105.639 6.60538 105.652 6.74709V11.7133C105.652 11.7729 105.644 11.8325 105.631 11.8894L105.651 13.2402C105.647 13.3726 105.637 13.4389 105.631 13.4879C105.587 13.7872 105.377 14.0335 105.095 14.1235C104.036 14.4679 103.476 15.2717 103.476 16.4543C103.476 17.5932 103.972 18.364 104.948 18.7361C105.079 18.7851 105.241 18.8858 105.327 18.997C105.536 19.2579 105.644 19.6592 105.651 20.1823V34.9643C105.645 35.0663 105.631 35.3418 105.677 35.6569C105.816 37.5004 106.617 43.3353 111.414 43.3353L111.543 43.3393C111.763 43.3393 112.498 43.3128 113.162 43.0215C114.011 42.6507 114.442 41.9991 114.442 41.0946C114.442 39.7001 114.076 38.8512 113.442 38.7691C113.108 38.7108 110.535 38.1228 110.535 34.0598V20.4869C110.549 20.1267 110.642 19.3427 111.139 19.0381C111.259 18.9639 111.398 18.9255 111.539 18.9255C112.623 18.9255 113.792 18.1508 113.792 16.4543C113.792 14.3275 112.03 14.0017 111.273 13.9606V13.962ZM76.877 36.0516H76.8744C76.1465 36.0516 75.4785 35.6185 75.1732 34.9431C74.2134 32.8322 73.7094 28.8142 73.7094 23.3209C73.7094 16.0597 74.488 12.6297 75.1399 11.0313C75.4332 10.3161 76.1131 9.85526 76.873 9.85526C77.6303 9.85526 78.3075 10.3161 78.6008 11.0299C79.2541 12.6284 80.0326 16.0584 80.0326 23.3196C80.0326 28.8023 79.53 32.8176 78.5795 34.9339C78.2729 35.6093 77.6089 36.0503 76.8797 36.0516H76.877ZM77.117 11.6656C77.0743 11.5623 76.9783 11.4974 76.8704 11.4974C76.7597 11.4974 76.6637 11.561 76.6197 11.6643C76.0251 13.121 75.3132 16.3298 75.3132 23.3183C75.3132 30.3107 76.1371 33.1712 76.6291 34.2518C76.6717 34.3472 76.7677 34.4108 76.8717 34.4108C76.9757 34.4108 77.0717 34.3472 77.1143 34.2518C77.6023 33.1632 78.4235 30.2988 78.4235 23.3196C78.4235 16.3298 77.7103 13.1224 77.1143 11.6656H77.117ZM60.6471 31.3357C58.2674 31.3357 57.3835 31.4496 57.1449 31.4893C57.1049 31.5052 57.0649 31.5184 57.0249 31.529C56.9049 31.6522 56.5183 32.1581 56.5183 33.6903C56.5183 34.4717 56.697 36.2304 57.7608 36.2304C57.9901 36.2237 58.6674 35.7708 59.0567 35.3696C60.1285 34.3896 61.803 34.1777 63.1148 35.4676C64.428 36.7561 64.28 38.5863 63.9867 39.467C63.4828 41.3873 61.3604 44.9828 57.0329 44.9828C51.6949 44.9828 49.2606 37.5348 49.1566 37.2117C49.1353 37.1455 48.9966 36.7243 48.818 36.0238V40.3993C48.8473 40.8363 48.854 42.5182 47.7248 43.7697C47.2262 44.3219 46.3156 44.9815 44.8185 44.9815C43.3213 44.9815 42.4095 44.3219 41.9122 43.7684C40.783 42.5169 40.7897 40.8324 40.819 40.349L40.8163 27.1456C40.8097 27.0793 40.8083 27.0131 40.8083 26.9496C40.8083 24.9432 40.619 23.5461 40.3897 22.8137C40.1844 23.4851 39.9991 24.824 40.0364 26.939C40.0364 27.0012 40.0364 27.0674 40.0284 27.131V40.3874C40.0551 40.9065 40.0418 42.5301 39.0019 43.7512C38.5273 44.3114 37.6594 44.9801 36.2223 44.9801C34.7864 44.9801 33.9159 44.3114 33.4399 43.7485C32.4027 42.5301 32.3867 40.9238 32.4134 40.4073L32.4214 27.2012C32.4147 27.1376 32.4121 27.0727 32.4121 27.0078C32.4121 25.0015 32.2214 23.6017 31.9921 22.8707C31.7868 23.5408 31.6055 24.8836 31.6402 26.9972C31.6402 27.0634 31.6402 27.127 31.6335 27.1906V40.4271C31.6628 40.8575 31.6695 42.5196 30.5403 43.7671C30.0417 44.3193 29.1325 44.9788 27.6367 44.9788C26.1382 44.9788 25.229 44.3193 24.7304 43.7657C23.5972 42.5143 23.6052 40.8297 23.6372 40.3464L23.6345 16.8371C23.6052 16.4 23.5985 14.7182 24.7304 13.468C25.229 12.9118 26.1382 12.2549 27.6367 12.2549C28.3899 12.2549 29.7471 12.5065 30.6763 14.1421C32.6094 12.6509 33.9065 12.4284 34.3785 12.4046C35.3517 12.2721 37.2541 12.6588 38.3446 14.7883C39.3045 13.7527 41.027 12.2986 43.1174 12.2986C46.337 12.2986 48.7673 16.2398 48.8006 19.781C48.8273 20.1068 48.8166 20.3597 48.8113 20.4538V21.4364C48.8713 21.2113 48.9313 20.9861 49.0006 20.7557C51.5203 12.1119 56.133 11.945 57.0369 11.9967C64.3026 12.0364 64.8892 24.0943 64.9092 24.6082C64.9452 24.9128 65.2425 28.1308 63.5667 30.0379C62.8242 30.8854 61.8123 31.3317 60.6445 31.3317L60.6471 31.3357ZM47.2488 19.8843L47.2462 19.8247C47.2328 17.1364 45.3891 13.8918 43.124 13.8918C40.8643 13.8918 38.9379 16.5298 38.8179 16.6967C38.6873 16.89 38.4766 17.0145 38.2447 17.037C37.974 17.0595 37.7114 16.9417 37.5514 16.7192C37.4114 16.5285 37.2768 16.2689 37.1515 15.9484C36.3142 13.7898 34.5945 13.9845 34.5211 13.9938C34.2812 14.0096 33.2786 14.1262 31.5775 15.4505C31.1976 15.7458 30.6483 16.0862 30.2044 16.012C30.0417 15.9855 29.8924 15.9087 29.7737 15.7869C29.7564 15.7697 29.7311 15.7418 29.7164 15.7207C29.6631 15.6584 29.6204 15.5843 29.5911 15.5061C29.5564 15.42 29.5218 15.334 29.4844 15.2519C29.4765 15.2386 29.4471 15.175 29.4405 15.1618C29.0205 14.2957 28.4139 13.8547 27.6407 13.8547C26.7075 13.8547 26.1662 14.2348 25.8809 14.5539C25.1343 15.3777 25.185 16.6517 25.1957 16.7947V40.3993C25.1823 40.59 25.1317 41.864 25.8782 42.6904C26.1649 43.0082 26.7048 43.3896 27.638 43.3896C28.5686 43.3896 29.1072 43.0096 29.3951 42.6904C30.123 41.8865 30.091 40.7039 30.0777 40.4788L30.075 27.1561C30.075 27.1204 30.075 27.0899 30.0804 27.0581C30.0444 24.9392 30.187 22.2535 31.0802 21.3066C31.3522 21.0179 31.6802 20.8736 32.0535 20.8736C32.3561 20.8736 32.6294 20.9994 32.8667 21.2497C33.5999 22.0284 33.9732 23.9672 33.9732 27.0105C33.9772 27.0502 33.9799 27.1244 33.9799 27.1601L33.9705 40.4192C33.9705 40.4258 33.9665 40.4324 33.9665 40.4417C33.9665 40.4496 33.9705 40.4549 33.9665 40.4642C33.9625 40.6072 33.9132 41.8786 34.6131 42.7076C34.9997 43.1579 35.5383 43.3883 36.2183 43.3883C36.8982 43.3883 37.4368 43.1592 37.8207 42.7076C38.5246 41.8773 38.474 40.5887 38.466 40.443L38.4686 40.4205L38.466 40.3993V27.0952C38.466 27.0634 38.466 27.0317 38.47 26.9999C38.4326 24.881 38.5766 22.1953 39.4698 21.2484C39.7405 20.961 40.0671 20.814 40.4404 20.814C40.7443 20.814 41.019 20.9424 41.2536 21.1901C41.9895 21.9714 42.3601 23.9076 42.3601 26.9509C42.3655 26.9906 42.3681 27.0634 42.3681 27.1005V40.3967C42.3588 40.5887 42.3041 41.8627 43.0507 42.6877C43.3387 43.0082 43.8773 43.3896 44.8105 43.3896C45.7437 43.3896 46.2823 43.0082 46.5703 42.6877C47.3168 41.8627 47.2608 40.5887 47.2528 40.447V20.414C47.2555 20.3213 47.2635 20.1359 47.2422 19.8843H47.2488ZM63.3601 24.7353C63.3494 24.5578 63.2188 21.6298 62.2856 18.809C61.1391 15.3618 59.3593 13.6071 56.9889 13.5912H56.8823C56.1024 13.5912 52.6055 13.9938 50.4991 21.2166C48.1634 29.2247 50.5297 36.4065 50.6324 36.7085C50.6591 36.7945 52.8161 43.391 57.0289 43.391C60.4085 43.391 62.0816 40.5702 62.4895 39.0048C62.6695 38.4671 62.7802 37.3521 62.0309 36.6184C61.0817 35.6848 60.1072 36.5482 60.0645 36.5853C60.0512 36.6038 58.8647 37.8262 57.7582 37.8262C57.1156 37.8262 54.9585 37.5878 54.9585 33.6917C54.9585 31.0695 55.9357 30.2882 56.3757 30.067C56.449 30.0312 56.529 30.0048 56.613 29.9902C56.653 29.973 56.6983 29.9584 56.7396 29.9505C57.0156 29.8882 57.9475 29.7465 60.6458 29.7465C61.371 29.7465 61.9629 29.4883 62.4096 28.9811C63.6534 27.568 63.3601 24.7644 63.3588 24.7379L63.3601 24.7353ZM56.7609 24.8187C56.7609 24.8187 54.9252 24.9882 54.9252 22.276C54.9252 19.4182 56.7596 19.4076 56.7596 19.4076C56.7596 19.4076 58.5927 19.4182 58.5927 22.2774C58.5927 24.9896 56.7583 24.82 56.7583 24.82L56.7609 24.8187ZM56.7676 21.0603H56.7503C56.7503 21.0603 56.4837 21.1 56.4837 21.9953C56.4837 22.8918 56.4677 23.2242 56.7503 23.2242H56.7676C57.0476 23.2242 57.0342 22.8932 57.0342 21.9953C57.0342 21.0987 56.7676 21.0603 56.7676 21.0603ZM21.6015 43.771C21.1015 44.3246 20.1923 44.9828 18.6952 44.9828C17.198 44.9828 16.2888 44.3246 15.7889 43.7697C14.6584 42.5169 14.6664 40.835 14.6957 40.349L14.693 16.8424C14.6664 16.4053 14.6584 14.7234 15.7902 13.472C16.2888 12.9158 17.1994 12.2589 18.6965 12.2589C20.1923 12.2589 21.1015 12.9171 21.6028 13.472C22.7333 14.7221 22.7253 16.404 22.696 16.8887V40.398C22.7253 40.835 22.7333 42.5169 21.6028 43.7684L21.6015 43.771ZM20.4549 14.5539C20.1683 14.2335 19.6284 13.852 18.6952 13.852C17.762 13.852 17.2247 14.2335 16.9354 14.5539C16.1888 15.3777 16.2422 16.6517 16.2515 16.796V40.4006C16.2422 40.5913 16.1888 41.8667 16.9341 42.6917C17.2234 43.0122 17.7606 43.391 18.6938 43.391C19.6271 43.391 20.167 43.0122 20.4536 42.6917C21.2002 41.8653 21.1469 40.5913 21.1375 40.451V16.8424C21.1469 16.6517 21.1988 15.3777 20.4523 14.5539H20.4549ZM13.7491 14.8546V40.4006C13.7758 40.8377 13.7838 42.5196 12.6533 43.7697C12.1533 44.3219 11.2441 44.9815 9.74699 44.9815C8.24985 44.9815 7.34063 44.3219 6.84069 43.7684C5.71284 42.5182 5.72084 40.835 5.7475 40.349V14.8546C5.7475 11.7345 5.1969 11.5239 3.3798 10.822C0.254873 9.61688 -0.0250911 7.95884 0.00157219 7.29933V3.48529C0.00157219 2.13846 0.556168 1.32665 1.02144 0.886979C1.95465 0.00233515 3.1345 -0.00825937 3.47046 0.00233517H16.0622C16.3648 -0.010908 17.542 0.00233515 18.4725 0.886979C18.9391 1.32665 19.4951 2.13846 19.4951 3.48662V7.26887C19.5564 8.1257 19.1791 9.68839 16.0955 10.8313C14.3397 11.4802 13.7491 11.7014 13.7491 14.8572V14.8546ZM17.9353 7.30065V3.48529C17.9353 2.71321 17.6513 2.28016 17.4127 2.05503C16.9127 1.58489 16.2288 1.59152 16.0968 1.59814H3.35447C3.12517 1.59814 2.52391 1.63787 2.08264 2.05768C1.84534 2.28281 1.56271 2.71321 1.56271 3.48794V7.33111C1.55604 7.46751 1.58937 8.43029 3.93307 9.33083C6.15012 10.189 7.30597 10.822 7.30597 14.8532V40.3993C7.29797 40.59 7.24331 41.8653 7.98988 42.6904C8.27784 43.0082 8.81644 43.3896 9.74965 43.3896C10.6829 43.3896 11.2215 43.0096 11.5094 42.6904C12.256 41.864 12.2027 40.59 12.1933 40.4483V14.8559C12.1933 10.9862 13.2199 10.2022 15.5662 9.33348C17.3887 8.65808 17.9833 7.85554 17.9393 7.37349V7.30197L17.9353 7.30065Z" fill="black"/>
</svg>
