<svg width="59" height="59" viewBox="0 0 59 59" fill="none" xmlns="http://www.w3.org/2000/svg">
<path d="M10.8933 24.0576C13.7032 24.0576 16.0127 26.3671 16.0127 29.1771C16.0127 31.987 13.7032 34.2965 10.8933 34.2965C8.08333 34.2965 5.77381 31.987 5.77381 29.1771C5.77381 26.3671 8.08333 24.0576 10.8933 24.0576ZM10.8933 18.2838C4.88849 18.2838 0 23.1723 0 29.1771C0 35.1818 4.88849 40.0703 10.8933 40.0703C16.898 40.0703 21.7865 35.1818 21.7865 29.1771C21.7865 23.1723 16.898 18.2838 10.8933 18.2838Z" fill="black"/>
<path d="M47.2683 24.0576C50.0782 24.0576 52.3877 26.3671 52.3877 29.1771C52.3877 31.987 50.0782 34.2965 47.2683 34.2965C44.4583 34.2965 42.1488 31.987 42.1488 29.1771C42.1488 26.3671 44.4583 24.0576 47.2683 24.0576ZM47.2683 18.2838C41.2635 18.2838 36.375 23.1723 36.375 29.1771C36.375 35.1818 41.2635 40.0703 47.2683 40.0703C53.273 40.0703 58.123 35.1818 58.123 29.1771C58.123 23.1723 53.273 18.2838 47.2683 18.2838Z" fill="black"/>
<path d="M39.9546 10.8933C39.9546 4.88849 35.0661 0 29.0613 0C23.0565 0 18.2065 4.88849 18.2065 10.8933C18.2065 16.7056 23.2105 21.4016 23.4415 29.1C23.172 36.8369 18.2065 41.4944 18.2065 47.3067C18.2065 53.3115 23.095 58.2 29.0998 58.2C35.1046 58.2 39.9931 53.3115 39.9931 47.3067C39.9931 41.4944 34.9891 36.7984 34.7581 29.1C34.9506 21.4016 39.9546 16.7056 39.9546 10.8933ZM32.5256 41.456C33.2569 43.573 34.1808 45.8056 34.1808 47.3452C34.1808 50.1552 31.8712 52.4647 29.0613 52.4647C26.2514 52.4647 23.9419 50.1552 23.9419 47.3452C23.9419 45.8056 24.8657 43.573 25.597 41.456C26.9057 37.2218 27.4831 33.5266 27.4831 29.1385C27.4831 24.7504 26.9057 21.0552 25.597 16.821C24.8657 14.704 23.9419 12.4714 23.9419 10.9317C23.9419 8.12183 26.2514 5.8123 29.0613 5.8123C31.8712 5.8123 34.1808 8.12183 34.1808 10.9317C34.1808 12.4714 33.2569 14.704 32.5256 16.821C31.2169 21.0552 30.6395 24.7504 30.6395 29.1385C30.678 33.5266 31.2169 37.2218 32.5256 41.456Z" fill="black"/>
</svg>
