<?xml version="1.0" encoding="UTF-8"?>
<svg width="146px" height="55px" viewBox="0 0 146 55" version="1.1" xmlns="http://www.w3.org/2000/svg" xmlns:xlink="http://www.w3.org/1999/xlink">
    <!-- Generator: Sketch 49.2 (51160) - http://www.bohemiancoding.com/sketch -->
    <title>logotype</title>
    <desc>Created with Sketch.</desc>
    <defs></defs>
    <g id="Mine-2" stroke="none" stroke-width="1" fill="none" fill-rule="evenodd">
        <g id="Artboard" transform="translate(-64.000000, -21.000000)">
            <g id="menu" transform="translate(40.000000, 0.000000)">
                <g id="logotype">
                    <rect id="Rectangle" x="0" y="0" width="200" height="90"></rect>
                    <path d="M134.859596,60.3577126 C134.854335,60.3433467 134.849075,60.3289808 134.843814,60.3138966 C134.874627,60.3045588 134.903937,60.2945027 134.933247,60.2837283 L134.950532,60.3311357 L134.859596,60.3577126 Z M117.907859,60.4245139 C114.966332,62.0026053 114.914476,57.1605869 115.070044,56.5608116 L111.482192,57.2295432 L111.54457,57.2295432 C110.00241,61.9638175 106.904562,66.016431 102.956722,68.8745219 C102.342714,69.2825128 101.724197,69.6035901 101.108685,69.8621759 L115.379679,46.9708714 C117.006763,48.1869427 118.768373,48.9605451 120.574323,49.4152251 C122.385535,53.5770193 120.189535,59.2005413 117.907859,60.4245139 Z M86.5836716,61.1054564 C81.1755896,62.1333348 84.5026572,52.7057289 91.3754907,48.17545 C91.4461355,48.1287609 91.530308,48.0950011 91.6873798,48.0159888 C92.14131,47.8069653 92.5539055,47.6712078 92.9274208,47.595787 C93.3903695,48.3837552 94.3140122,49.1494564 95.51347,49.7758086 C96.1282298,52.3602296 92.2314948,60.0337621 86.5836716,61.1054564 Z M164.964035,57.0442234 C164.482297,58.4384316 162.759768,61.5148838 161.364909,60.9646708 C159.744589,60.3232345 165.193254,51.1635522 167.082626,47.2402315 L161.219862,46.5327122 C158.962988,48.273138 153.241513,52.7136302 150.516429,54.8376249 L154.893398,46.2260007 L148.724006,45.4811301 L140.714844,51.9299716 L138.624812,53.5202741 L142.83043,44.7693009 L136.264224,43.9763046 C136.23266,43.9942619 136.202598,44.0107827 136.171033,44.0273035 C136.155251,44.0452608 136.138717,44.0632182 136.122183,44.0804572 C127.967223,49.9877053 122.062373,41.825733 122.062373,41.825733 L115.886217,44.0215571 L111.076361,43.121535 C108.661663,45.72535 105.606652,47.1303326 100.023462,46.9816458 C99.2275808,42.4578316 92.8364845,45.2634871 92.6320656,46.185058 C92.6313141,46.185058 88.9382464,44.8174266 87.2517906,44.1472585 C79.9573432,55.7469848 56.647578,69.8700771 76.7783289,46.6605685 L71.7858486,45.5429033 C68.1010479,47.3996928 58.9044527,53.8097465 58.9044527,53.8097465 C60.4924568,50.9380079 62.3908469,48.2580538 64.2306168,45.4559898 L58.5579928,44.7613997 C58.5549866,44.7628363 58.552732,44.7642729 58.5489743,44.7649912 C53.5151592,51.9802522 47.434449,56.6046276 42.7613731,59.2070059 C34.6229463,63.7394397 29.3929793,62.4802707 30.0378006,58.4915853 C31.6378293,48.5956519 52.0857301,41.7539036 41.9173937,52.6295898 C42.0534224,52.8084449 41.5145682,52.5692531 45.6660753,54.1854141 C47.1653976,53.3177152 49.7198822,49.1638223 49.4478247,47.2359218 C48.4377549,40.0781243 27.4359691,43.9066301 24.53277,58.5181622 C23.1003347,65.7269586 32.9883467,71.6234322 49.4545885,59.1947949 C47.2984202,62.595916 45.6097098,65.3455446 45.6097098,65.3455446 L52.7004899,65.3455446 C56.2710565,61.6262194 59.3944568,58.6517648 63.2122801,56.329521 C61.549122,57.8839088 58.1844774,73.280536 78.4399839,59.5460406 C78.479064,59.6322358 78.5031133,59.6480383 78.5106287,59.6853896 C80.9463699,72.0601548 98.8337738,62.5406074 100.006928,51.493249 C100.015946,51.4092086 100.046008,51.3187036 100.094858,51.233945 C102.666628,51.4831929 105.95687,50.6212404 107.695182,49.2686932 L91.4115646,75.1538462 L96.8639875,75.1538462 C97.4231332,75.1538462 98.029626,74.9290202 98.6691866,74.6934198 C103.22878,73.1447784 107.083429,70.1667324 109.95356,66.8611445 C110.39772,66.3648035 110.806558,65.88211 111.171055,65.3821776 C111.664817,64.7371497 112.12025,64.0942768 112.535851,63.4470941 C113.202467,64.175444 114.173457,64.7349949 115.558545,64.8614146 C121.451371,65.3986983 126.527272,59.199823 125.966623,49.8677502 C129.033658,50.2635301 131.836151,49.7032609 133.925432,48.9181658 L125.445806,65.3455446 L131.203354,65.3455446 C131.246192,65.3455446 131.286775,65.1487321 131.327358,65.0912686 C135.41273,61.7835257 139.205752,58.5705976 143.750315,55.3289378 C143.487276,56.4063785 139.527411,63.7444677 138.877329,64.9217512 C138.877329,64.9217512 138.769859,64.8384292 138.610532,65.3455446 L145.08505,65.3455446 C145.6953,64.6696301 156.402491,55.7728434 156.402491,55.7728434 C156.402491,55.7728434 156.440819,55.7570409 156.459608,55.7706885 C149.398138,68.1181586 166.633957,67.8595728 170.006868,58.0993969 C169.71001,57.9959626 165.072256,57.0614624 164.964035,57.0442234 Z M115.093342,56.5134043 C115.085075,56.5220238 115.07756,56.5414177 115.070044,56.5694312 L115.093342,56.5651214 L115.093342,56.5134043 Z M67.8357543,33.0568025 C68.2460951,33.5667911 68.8533395,34.1529189 69.7146043,34.6133452 C69.1795078,35.779136 67.7854011,37.0835575 66.3507112,37.0835575 C64.7957749,37.0835575 65.8629617,33.957543 67.8357543,33.0568025 Z M75.3804645,35.1836704 C76.1282468,35.0328287 76.938407,34.8029747 77.8154542,34.4790242 C79.0261851,35.4788892 77.7448094,37.7724012 76.0245343,37.6402352 C74.8754296,37.5511667 74.8032818,36.5656677 75.3804645,35.1836704 Z M83.4114211,25.9729893 C89.447039,22.153103 83.4039057,30.5643231 76.6490641,32.9181718 C78.38437,30.3337508 81.1898689,27.3794085 83.4114211,25.9729893 Z M90.1016304,32.1237389 C90.2459261,32.7285423 87.9867968,34.6370489 85.1880617,35.270584 C86.4987475,33.3872177 89.8709076,31.1518874 90.1016304,32.1237389 Z M55.6863584,39.1716375 C57.9778039,40.2770916 61.0110194,38.4763291 63.5204115,36.3372502 C63.1701939,38.1056895 64.0479926,39.3792244 65.8276394,39.3720415 C67.9259391,39.3641402 70.5262675,37.5784619 71.8181648,35.312245 C72.2713435,35.3862293 72.7651053,35.4242989 73.3002017,35.4171159 C72.6749205,37.8787087 73.8833968,39.0674849 75.5292694,39.155835 C77.2728423,39.2492132 79.6469572,37.9965089 80.7073802,36.365982 C81.2830598,36.6525812 81.8940618,36.8077327 82.6080249,36.8666328 C82.6734088,39.2908743 86.4686859,41.062905 92.9514701,36.2287879 L91.2913182,38.9662055 L93.6473962,38.9662055 L99.2478724,35.2203034 L97.1067349,38.7550271 C97.052624,38.8412224 97.1187595,38.9662055 97.2239751,38.9662055 L99.3425664,38.9662055 L104.376381,35.8093043 C102.268312,40.4178772 107.208936,39.4697294 109.98287,37.2545114 C110.10988,38.42964 110.998201,39.2930292 112.505038,39.2930292 C114.577786,39.2930292 117.335186,37.8097525 119.217794,35.9199216 L117.370508,38.9662055 L119.993383,38.9662055 L122.133769,35.4408196 C122.19765,36.7366216 122.657592,38.9417835 125.064775,38.9417835 C126.343896,38.9417835 127.812405,38.1121542 129.222294,36.9729402 C129.304964,37.7429512 129.714553,38.9460933 131.346147,38.9460933 C133.60753,38.9460933 135.306011,36.5513018 135.306011,36.5513018 C134.783691,39.652176 138.083703,39.2908743 140.312019,37.1984845 C140.42475,37.9627491 140.848619,38.8563065 142.218676,38.8563065 C144.48006,38.8563065 145.988401,36.9319975 145.988401,36.9319975 C145.566787,40.0106046 149.468783,39.5480234 151.39498,36.1325365 L149.969308,35.5291697 C148.744298,37.7989781 145.069267,39.180257 150.957583,31.7308322 L148.733776,31.4111915 C146.025978,35.3596524 144.564232,36.9865878 143.287366,37.026094 C141.83013,37.0699099 142.919863,35.1836704 145.81254,30.7984869 L143.860039,30.0098003 C141.246183,33.9927393 139.001333,36.8781255 137.970972,36.8350278 C136.934598,36.7919302 137.571904,35.1958814 140.292479,31.2725608 L138.359518,30.6404623 C135.875678,34.2039177 133.109259,37.0246574 132.371247,36.9908976 C131.041021,36.9305609 132.021781,35.2957243 135.064015,30.5937732 L133.769112,30.3344691 L133.134812,30.2432458 C129.876886,35.2562181 125.118134,38.7952516 124.767165,35.0012238 C126.326611,34.5300231 128.050644,33.2837834 129.649169,30.7223478 L127.665104,30.3761302 C126.313083,32.4577455 124.619112,33.6917743 122.986767,34.0264992 L125.205313,30.3416521 L122.571917,30.3416521 L121.758751,31.7042554 C118.455732,36.3142648 110.402981,39.8382141 113.126562,34.9803933 C114.020895,33.3843445 116.376972,31.6482284 117.211182,31.7430432 C117.505786,31.7760847 117.124755,32.8204839 116.277018,33.6084522 L117.879301,34.1687213 C122.650077,30.2963995 116.176311,27.2960864 110.838123,34.5788671 C110.755453,34.6909209 110.680299,34.803693 110.609654,34.9164651 C107.122509,38.532356 104.12687,38.2407288 108.654147,33.0532111 L106.62048,32.2573416 L101.96018,35.4982831 C101.857219,35.5693942 101.724197,35.458777 101.78432,35.3517512 L103.661667,31.9721789 L101.851959,31.3867695 L97.0939587,34.3224362 C97.0142955,34.3748716 96.9150922,34.2879581 96.9639423,34.2067909 L98.8300161,31.1339301 L96.6407801,30.3129203 C91.9414003,36.1749159 85.736686,38.3068118 85.1640125,37.1316832 C85.0835977,36.9657573 85.1978318,36.7732546 85.3857168,36.7430862 C90.4819096,35.918485 94.8085255,31.062819 90.6983532,30.4896206 C87.6486038,30.0643907 83.6113308,32.8219205 82.7876429,35.3926939 C82.1510885,35.3862293 81.6588298,35.3345121 81.2131666,35.1642765 C81.3394253,34.5012913 81.2116635,33.8174757 80.7269202,33.1652649 C84.9137496,30.9134139 90.0798357,25.5233374 88.4459877,23.4331025 C86.9744724,21.5497362 81.9571912,23.3476255 76.9985302,29.2268601 C75.6224604,30.8581053 74.6710107,32.2738623 74.0554995,33.4849056 C73.5376884,33.5244118 73.0243866,33.5136374 72.5208547,33.4468361 C72.8109492,31.7380152 71.9331505,30.5183523 70.1925838,30.5255353 C69.4245099,30.5284084 68.5887974,30.7697552 67.7756311,31.184929 L66.7678159,30.5808439 C55.6194713,43.0051714 52.7921777,35.270584 59.8604116,28.0704071 C65.0415285,22.7923844 69.8814462,22.1962006 66.0839145,27.4031122 L68.2731506,28.3957942 C68.2731506,28.3957942 71.0869164,24.2993648 69.4718569,22.466279 C64.2170891,16.497976 47.7455865,35.3409768 55.6863584,39.1716375 Z M154.278639,28.3124721 L149.332754,28.3124721 L148.094216,30.2360629 L153.168614,30.0464333 L154.278639,28.3124721 Z" fill="#FFFFFF"></path>
                </g>
            </g>
        </g>
    </g>
</svg>