<svg width="526" height="201" viewBox="0 0 526 201" fill="none" xmlns="http://www.w3.org/2000/svg">
<path d="M284.5 84V112C284.5 118.1 281.6 121.3 276.6 121.3C271.2 121.3 268.3 118.1 268.3 112V84H253.9V113.5C253.9 126.4 262.5 134.7 276.2 134.7C289.9 134.7 298.9 126.4 298.9 113.5V84H284.5ZM177.3 112.1C177.3 118.2 174.4 121.4 169.4 121.4C164 121.4 161.1 118.2 161.1 112.1V84.1H146.7V113.6C146.7 126.5 155.3 134.8 169 134.8C182.7 134.8 191.7 126.5 191.7 113.6V84H177.3V112.1ZM78.8 112.1C78.8 118.2 75.9 121.4 70.9 121.4C65.5 121.4 62.5999 118.2 62.5999 112.1V84.1H48.2V113.6C48.2 126.5 56.8 134.8 70.5 134.8C84.2 134.8 93.2 126.5 93.2 113.6V84H78.8V112.1ZM219.4 105.6V133.6H233.8V106.3C233.8 100.9 236.3 98 241.3 98C242.4 98 244.9 98 247.1 98.7V84C245.7 83.6 243.9 83.3 242.1 83.3C226.9 83.3 219.4 90.9 219.4 105.6ZM122.3 107.1V97.4H133.4L137 84H122.3V71.8H107.9V84H101.8V97.3H107.9V108.1C107.9 125 116.5 134 133.1 134H138.1V120.3H134.5C125.9 120.4 122.3 116.4 122.3 107.1ZM23.7 107.1V97.4H34.7999L38.4 84.1H23.7V71.9H9.29995V84H0.699951V97.3H9.29995V108.1C9.29995 125 17.9 134 34.5 134H39.5V120.3H35.9C27.3 120.4 23.7 116.4 23.7 107.1Z" fill="#090909"/>
<path d="M383.3 182.9C299 204.8 230 170.3 209.5 127.7C208.524 126.105 206.986 124.932 205.19 124.411C203.393 123.891 201.467 124.06 199.789 124.887C198.111 125.713 196.803 127.137 196.12 128.878C195.438 130.62 195.43 132.554 196.1 134.3C219.3 180.6 300.6 222.6 400.5 188.6C394.55 187.432 388.771 185.517 383.3 182.9V182.9Z" fill="url(#paint0_linear_32_102)"/>
<path d="M427.3 177.6C438.699 171.974 449.518 165.242 459.6 157.5C453.6 158.3 446.9 158.8 439.8 159.1C429.012 165.714 417.629 171.305 405.8 175.8C412.864 177.296 420.087 177.901 427.3 177.6V177.6Z" fill="#00DCFF"/>
<path d="M486.1 150.8C457 184.3 400 186.5 369.2 157C366.448 154.45 363.844 151.746 361.4 148.9C358.3 149 349.5 149 342.5 146.9C355.486 167.924 376.267 182.952 400.3 188.7C423.109 194.076 447.078 191.354 468.1 181C487.194 171.292 502.195 155.086 510.4 135.3C510.1 135.8 501.2 144.8 486.1 150.8Z" fill="url(#paint1_linear_32_102)"/>
<path d="M481.1 137.7C491.9 125.7 500.6 111.9 505.8 96.4999C509.6 85.3999 509.4 81.1 509.3 70.7C506.5 75.2 502.5 80.7999 498.7 85.5999C495.432 99.0467 489.367 111.654 480.9 122.6C475.523 129.864 469.351 136.505 462.5 142.4C462.5 142.3 471.8 141.1 481.1 137.7V137.7Z" fill="#00DCFF"/>
<path d="M497.8 62L498.7 60.6C497.531 55.1958 495.541 50.0023 492.8 45.2V45.1C458.9 20.5 399.4 16.1 360.2 41.6C359.9 41.8 349.7 54.4 345.2 68.6C384.8 19.1 467.2 27 497.8 62Z" fill="url(#paint2_linear_32_102)"/>
<path d="M497.3 62.9C478.3 56 446.8 53 417.4 59.4C388.819 65.9128 362.506 79.9671 341.2 100.1C341.5 104.7 342.2 109.8 343.5 114.7C350.3 104.6 360.3 97.2 362.5 95.2C396 69 435.5 58.4 478.8 66C480.2 66.3 486.9 67.6 492.4 69.5C494.9 66.5 497.2 62.9 497.3 62.9Z" fill="url(#paint3_linear_32_102)"/>
<path d="M334.1 105.4C336.603 111.66 340.542 117.243 345.6 121.7C339.638 104.564 339.463 85.9454 345.1 68.7C348.742 59.0609 353.761 50.0001 360 41.8C365.5 34.8 372.2 29 379.6 24.2C390.173 17.6604 402.015 13.4408 414.341 11.8203C426.667 10.1998 439.196 11.2155 451.1 14.8C460.365 16.9494 469.053 21.0849 476.564 26.9206C484.074 32.7563 490.228 40.1532 494.6 48.6C496.38 52.4119 497.755 56.4005 498.7 60.5C500.1 58.2 502 55.1 502.8 53.3C503.6 51.9 504.8 50.8 506.1 50.2C483.1 -15.3 364.5 -22 333.2 63.5C332.674 65.1158 332.207 66.7502 331.8 68.4C331.6 70.1 326 87 334.1 105.4V105.4Z" fill="url(#paint4_linear_32_102)"/>
<path d="M518.5 84.8C518.3 82.7 517.1 78.6 517 78.2C515.743 73.978 513.998 69.9172 511.8 66.1L509.2 70.7C509.2 70.7 509.3 81 508.6 85.7C509.6 92.1 509.4 98.9 508.2 105.4C506.925 112.126 504.843 118.673 502 124.9L501 127.1C503.8 124.8 506.3 122.2 508.3 119.4C514.5 110.6 519.7 95.4 518.5 84.8V84.8Z" fill="#0086FF"/>
<path d="M327.4 119C329.554 122.615 332.435 125.744 335.86 128.188C339.285 130.633 343.181 132.339 347.3 133.2C351.6 134.1 358 134.3 364.9 133.5C358.167 131.097 351.986 127.361 346.729 122.516C341.471 117.671 337.244 111.815 334.3 105.3C330.034 93.4702 329.236 80.6678 332 68.3999L331 69.8999C321.1 85.2999 318.4 102.9 327.4 119V119Z" fill="url(#paint5_linear_32_102)"/>
<path d="M512.1 50.6C510.489 49.773 508.62 49.6026 506.886 50.1247C505.151 50.6469 503.687 51.8208 502.8 53.4C501.5 56 498 61.7 497.1 63.1C491.004 71.8801 483.736 79.7865 475.5 86.6C434.1 121.6 369.1 138 347.4 133.3C343.277 132.451 339.376 130.749 335.949 128.304C332.522 125.858 329.644 122.723 327.5 119.1C324 128.2 326.1 136 331.7 141.1C345.5 153.9 375.1 148.5 393.3 143.8C428.2 134.8 459.1 122.4 485.9 98.6C504 82.4 509.8 70.6 515.3 59.5C516.6 56.2 515.3 52.3 512.1 50.6V50.6Z" fill="url(#paint6_linear_32_102)"/>
<path d="M517 78.2C516.9 78.1 518.2 82.6999 518.4 84.7999C519.6 95.3999 514.4 110.6 508.3 119.3C498.8 132.8 478.8 139.7 462.4 142.2C441.123 144.941 419.585 144.975 398.3 142.3L393.1 143.6C377.2 147.5 365 148.6 365 148.6C399.2 161.9 450.1 161.2 474.3 154.6C522.3 142 535.8 104 517 78.2V78.2Z" fill="url(#paint7_linear_32_102)"/>
<defs>
<linearGradient id="paint0_linear_32_102" x1="195.4" y1="162.3" x2="400.6" y2="162.3" gradientUnits="userSpaceOnUse">
<stop stop-color="#00B4FF"/>
<stop offset="1" stop-color="#00DCFF"/>
</linearGradient>
<linearGradient id="paint1_linear_32_102" x1="342.6" y1="163.4" x2="510.5" y2="163.4" gradientUnits="userSpaceOnUse">
<stop stop-color="#0093FF"/>
<stop offset="1" stop-color="#0086FF"/>
</linearGradient>
<linearGradient id="paint2_linear_32_102" x1="345.2" y1="46.6" x2="498.7" y2="46.6" gradientUnits="userSpaceOnUse">
<stop stop-color="#0093FF" stop-opacity="0.8"/>
<stop offset="0.1" stop-color="#0A97FF" stop-opacity="0.8"/>
<stop offset="0.3" stop-color="#169CFF" stop-opacity="0.7"/>
<stop offset="0.5" stop-color="#1A9EFF" stop-opacity="0.6"/>
<stop offset="0.7" stop-color="#169BFF" stop-opacity="0.7"/>
<stop offset="0.9" stop-color="#0C91FF" stop-opacity="0.8"/>
<stop offset="1" stop-color="#0086FF" stop-opacity="0.8"/>
</linearGradient>
<linearGradient id="paint3_linear_32_102" x1="341.2" y1="85.3" x2="497.3" y2="85.3" gradientUnits="userSpaceOnUse">
<stop stop-color="#4C67FF" stop-opacity="0.8"/>
<stop offset="0.1" stop-color="#476BFF" stop-opacity="0.8"/>
<stop offset="0.3" stop-color="#3973FF" stop-opacity="0.7"/>
<stop offset="0.5" stop-color="#3576FF" stop-opacity="0.6"/>
<stop offset="0.7" stop-color="#3179FF" stop-opacity="0.7"/>
<stop offset="0.9" stop-color="#2481FF" stop-opacity="0.8"/>
<stop offset="1" stop-color="#1E85FF" stop-opacity="0.8"/>
</linearGradient>
<linearGradient id="paint4_linear_32_102" x1="329.7" y1="61" x2="506.2" y2="61" gradientUnits="userSpaceOnUse">
<stop stop-color="#0096FF"/>
<stop offset="1" stop-color="#00DCFF"/>
</linearGradient>
<linearGradient id="paint5_linear_32_102" x1="343.4" y1="68.4999" x2="343.4" y2="134.1" gradientUnits="userSpaceOnUse">
<stop stop-color="#00A6FF"/>
<stop offset="0.1" stop-color="#009AFF"/>
<stop offset="0.3" stop-color="#008CFF"/>
<stop offset="0.6" stop-color="#0083FF"/>
<stop offset="1" stop-color="#0081FF"/>
</linearGradient>
<linearGradient id="paint6_linear_32_102" x1="325.7" y1="99.4" x2="515.7" y2="99.4" gradientUnits="userSpaceOnUse">
<stop offset="0.1" stop-color="#4057FF"/>
<stop offset="0.5" stop-color="#AA5CFF"/>
<stop offset="1" stop-color="#FF3F68"/>
</linearGradient>
<linearGradient id="paint7_linear_32_102" x1="365.1" y1="118.7" x2="525.2" y2="118.7" gradientUnits="userSpaceOnUse">
<stop stop-color="#0081FF"/>
<stop offset="1" stop-color="#0073FF"/>
</linearGradient>
</defs>
</svg>
