<?xml version="1.0" encoding="utf-8"?>
<!-- Generator: Adobe Illustrator 24.3.0, SVG Export Plug-In . SVG Version: 6.00 Build 0)  -->
<svg version="1.1" id="Layer_1" xmlns="http://www.w3.org/2000/svg" xmlns:xlink="http://www.w3.org/1999/xlink" x="0px" y="0px"
	 viewBox="0 0 204.8 84.5" style="enable-background:new 0 0 204.8 84.5;" xml:space="preserve">
<style type="text/css">
	.st0{fill:#FFFFFF;}
</style>
<path class="st0" d="M131.1,59.8c0-2.4,0-4.2,0-5.9c-3.3,0.3-6.4,0.9-9.5,0.9c-13,0-17.2-10.6-15.8-19.4c1.8-11.4,13-16.9,24.1-12
	c0.9,0.4,1.8,0.9,2.6,1.4c0.6,0.3,1,0.8,1.7,1.4c-1.4,1.8-2.7,3.5-3.7,4.8c-3.4-0.5-6.3-1.2-9.2-1.2c-4.5,0-6.6,2.3-7,6.7
	c-0.1,1-0.1,2,0,3c0.2,5.4,2.5,7.8,7.5,8.1c5.2,0.3,8.5-2.1,9.4-6.9c0.3-1.8,0.2-3.6,0.4-6c2.3-0.4,4.7-0.8,7.3-1.2
	c0.2,1.5,0.4,2.6,0.4,3.8c0,6.3,0.2,12.7-0.1,19c-0.2,3.8-0.7,7.6-1.7,11.3c-1.5,5.7-5.4,9.5-11.1,11.2c-7.4,2.3-14.8,2.1-22.1-0.3
	c-6.5-2.2-9.2-7.9-6.9-13.8c1.2-3.3,3.8-5,7-5.9c5.9-1.7,11.8-1.5,17.8-0.6C125,58.4,127.7,59.1,131.1,59.8z M105.5,70
	c6.3,3.5,12.7,3.4,19.2,1.2c2-0.7,3.5-2.3,4.6-4.8c-8.3-1.3-16.1-3.6-24,0.5C105.4,68.2,105.4,69,105.5,70z"/>
<path class="st0" d="M36.1,13.4c-6-0.6-11.8-1.3-17.6-1.8c-2.3-0.2-4.7,0-6.7,2.1c-0.3,1.2-0.7,2.6-1.2,4.3c-1.9,0-3.8,0-5.7,0
	C2.1,12.2,4.4,6.7,10.6,4.7c4-1.3,8.2-1.4,12.4-0.8c11.8,1.8,23.7,3.6,35.5,5.3c3.7,0.5,7.6,1.2,11.4-1.4c0.2-1.1,0.4-2.4,0.7-3.9
	c1.6-0.4,3.3-0.9,5-1.3c3.6,4.9,2,10.5-3.6,13.1c-3.9,1.8-8,2-12.2,1.5c-3.3-0.4-6.6-1-9.9-1.5c-1.3-0.2-2.6,0-4.4,0
	c0,1.7,0,3.4,0,5c0,7.7-0.1,15.3,0,23c0.1,5.8-3.8,11.5-12,10.8c-5.3-0.4-8.4-3.6-9.1-9.6c1.8-0.5,3.7-1.1,5.5-1.6
	c2.1,1,2.8,4.6,5.8,2.4C36.8,42.3,37.1,21.8,36.1,13.4z"/>
<path class="st0" d="M192.3,36.2c-1.2,1.4-2.4,2.8-3.7,4.4c-6.6,0-13.3,0-20.2,0c0,3.5,2.1,4.9,4.6,6c3.3,1.4,6.6,0.4,9.8-0.4
	c1.4-0.4,2.7-1,4.3-1.6c1.2,1.8,2.3,3.4,3.5,5.4c-6.8,5-14,6.4-21.7,3.4c-5-2-7.8-6.1-8.5-11.4c-0.2-1.5-0.2-3-0.2-4.5
	C160,22.5,176,18.6,185,23.8C189.1,26.2,191,29.4,192.3,36.2z M183.4,34.2c-1.4-4.2-3.8-5.9-7.9-5.6c-4.1,0.2-6.1,1.8-6.9,5.6
	C173.4,34.2,178.2,34.2,183.4,34.2z"/>
<path class="st0" d="M50,24.7c3.4-0.2,6-0.3,8.8-0.5c1.8,7.2,3.1,14.3,6.7,20.6c0.4,0.7,1.1,1.2,1.5,1.8c4.5-1.9,6.5-6.3,6.3-14.2
	c-3.1-1.1-5.4-2.9-4.9-6.8c0.3-2.5,1.8-3.9,4-4.5c3.6-1.1,6.5,0.1,8.9,3.2c0.9,7.7,0.2,15.2-3.5,22.2c-1.1,2-2.6,3.9-4.3,5.4
	c-4.4,3.9-9.7,3.6-13.7-0.7c-1-1.1-1.9-2.3-2.6-3.6C53.3,40.6,51.5,33,50,24.7z"/>
<path class="st0" d="M160.5,52.3c-1.4,0.7-2.4,1.4-3.5,1.7c-7.6,2.7-13-0.8-13.3-8.9c-0.3-8-0.1-16-0.1-23.9c0-3.8,0-7.6,0-12
	c2.8-0.4,5.3-0.8,8.2-1.2c0.2,1.6,0.4,2.9,0.4,4.1c0,9.8,0,19.6,0,29.4c0,1.6,0.1,3.2,0.2,5.2c1.8,0,3.2,0,4.8,0
	C158.2,48.5,159.2,50.2,160.5,52.3z"/>
<path class="st0" d="M140.5,68.5c0.5-2.2,0.9-3.9,1.4-5.9c18,2.5,35.5,2,52.9-5.1c0.7,2.1,1.4,4,2.3,6.5
	C178.4,71.3,159.8,72.2,140.5,68.5z"/>
<path class="st0" d="M92.2,29.8c-3,0-5.1,0-7.4,0c0-1.7,0-3.6,0-5.9c2.4-0.7,4.7-1.7,7.1-2.1c5.7-1,9.1,1.9,8.7,7.7
	c-0.4,4.4-1.4,8.8-2.2,13.2C98,44.1,97,45.5,98.9,47c1-0.1,2.2-0.2,3.7-0.4c1,1.7,2,3.4,3.1,5.2c-2.4,2.7-5.5,3.2-8.6,3
	c-4.6-0.3-7.6-3.6-7.5-8.3c0.1-3.3,0.9-6.5,1.5-9.8C91.3,34.7,91.7,32.6,92.2,29.8z"/>
<path class="st0" d="M88.6,12.9c1.4-4.4,3.1-5.8,6.3-5.4c2.7,0.4,4.5,2.3,4.6,5c0.1,2.8-1.4,4.7-4.2,5.3
	C92,18.5,90.3,17.3,88.6,12.9z"/>
</svg>
