<svg width="1440" height="82" viewBox="0 0 1440 82" fill="none" xmlns="http://www.w3.org/2000/svg">
<path fill-rule="evenodd" clip-rule="evenodd" d="M588.909 36.7755C598.028 36.7755 605.421 29.3831 605.421 20.2641C605.421 11.145 598.028 3.7526 588.909 3.7526C579.79 3.7526 572.398 11.145 572.398 20.2641C572.398 29.3831 579.79 36.7755 588.909 36.7755ZM609.065 22.3698C609.137 21.6777 609.173 20.9751 609.173 20.2641C609.173 9.07253 600.101 0 588.909 0C577.718 0 568.645 9.07253 568.645 20.2641C568.645 21.0535 568.69 21.8324 568.778 22.5983L476.417 51.668C473.079 45.0596 466.228 40.5281 458.319 40.5281C450.45 40.5281 443.629 45.0131 440.272 51.5662L347.872 22.4842C347.951 21.755 347.992 21.0143 347.992 20.2641C347.992 9.07253 338.92 0 327.728 0C316.537 0 307.464 9.07253 307.464 20.2641C307.464 21.0143 307.505 21.755 307.584 22.4841L215.184 51.5662C211.828 45.0131 205.006 40.5281 197.137 40.5281C186.579 40.5281 177.906 48.6039 176.959 58.9158H-1V62.6684H176.959C177.906 72.9803 186.579 81.0562 197.137 81.0562C208.329 81.0562 217.402 71.9837 217.402 60.7921C217.402 58.8017 217.115 56.8783 216.58 55.0611L308.341 26.18C310.873 34.4855 318.595 40.5281 327.728 40.5281C336.862 40.5281 344.584 34.4856 347.115 26.18L438.876 55.0611C438.342 56.8783 438.055 58.8017 438.055 60.7921C438.055 71.9837 447.127 81.0562 458.319 81.0562C469.51 81.0562 478.583 71.9837 478.583 60.7921C478.583 58.8412 478.307 56.9546 477.793 55.1693L569.556 26.2877C572.121 34.5377 579.815 40.5281 588.909 40.5281C598.082 40.5281 605.832 34.4332 608.329 26.0721L700.09 54.9531C699.534 56.8021 699.236 58.7622 699.236 60.7921C699.236 71.9837 708.308 81.0562 719.5 81.0562C730.692 81.0562 739.764 71.9837 739.764 60.7921C739.764 58.8412 739.488 56.9546 738.974 55.1693L830.737 26.2877C833.302 34.5377 840.997 40.5281 850.091 40.5281C859.264 40.5281 867.013 34.4332 869.51 26.0721L961.271 54.9531C960.716 56.8021 960.417 58.7623 960.417 60.7921C960.417 71.9837 969.49 81.0562 980.681 81.0562C991.873 81.0562 1000.95 71.9837 1000.95 60.7921C1000.95 58.8412 1000.67 56.9546 1000.16 55.1693L1091.92 26.2877C1094.48 34.5377 1102.18 40.5281 1111.27 40.5281C1120.44 40.5281 1128.19 34.4332 1130.69 26.0721L1222.45 54.9531C1221.9 56.8021 1221.6 58.7622 1221.6 60.7921C1221.6 71.9837 1230.67 81.0562 1241.86 81.0562C1252.42 81.0562 1261.09 72.9803 1262.04 62.6684H1440V58.9158H1262.04C1261.09 48.6039 1252.42 40.5281 1241.86 40.5281C1234.03 40.5281 1227.24 44.9668 1223.87 51.4646L1131.43 22.3699C1131.5 21.6777 1131.54 20.9751 1131.54 20.2641C1131.54 9.07253 1122.46 0 1111.27 0C1100.08 0 1091.01 9.07253 1091.01 20.2641C1091.01 21.0535 1091.05 21.8323 1091.14 22.5982L998.78 51.668C995.442 45.0596 988.591 40.5281 980.681 40.5281C972.853 40.5281 966.062 44.9668 962.687 51.4646L870.247 22.3699C870.318 21.6777 870.355 20.9752 870.355 20.2641C870.355 9.07253 861.282 0 850.091 0C838.899 0 829.827 9.07253 829.827 20.2641C829.827 21.0535 829.872 21.8323 829.96 22.5982L737.599 51.668C734.26 45.0596 727.409 40.5281 719.5 40.5281C711.672 40.5281 704.881 44.9668 701.506 51.4646L609.065 22.3698ZM213.649 60.7921C213.649 69.9112 206.257 77.3036 197.137 77.3036C188.018 77.3036 180.626 69.9112 180.626 60.7921C180.626 51.6731 188.018 44.2807 197.137 44.2807C206.257 44.2807 213.649 51.6731 213.649 60.7921ZM196.248 56.4515V71.2848H200.354V52.2366H197.517L192.087 53.8577L192.951 57.262L196.248 56.4515ZM589.598 25.9264V30.0062H593.57V25.9264H596.11V22.5491H593.57V10.958H590.058L579.682 22.9814L580.358 25.9264H589.598ZM589.598 22.5491H584.573L589.598 16.659V22.5491ZM980.681 77.3036C989.8 77.3036 997.193 69.9112 997.193 60.7921C997.193 51.6731 989.8 44.2807 980.681 44.2807C971.562 44.2807 964.17 51.6731 964.17 60.7921C964.17 69.9112 971.562 77.3036 980.681 77.3036ZM983.044 55.2147L974.587 70.5343H979.288L987.772 54.7553V51.6212H974.154V55.2147H983.044ZM327.728 36.7755C336.847 36.7755 344.24 29.3831 344.24 20.2641C344.24 11.145 336.847 3.7526 327.728 3.7526C318.609 3.7526 311.217 11.145 311.217 20.2641C311.217 29.3831 318.609 36.7755 327.728 36.7755ZM320.635 25.9595V29.2557H334.631V25.6623H326.39L329.47 23.2846C330.731 22.3119 331.677 21.5194 332.307 20.907C332.938 20.2765 333.451 19.556 333.847 18.7455C334.244 17.9169 334.442 16.9892 334.442 15.9625C334.442 14.1793 333.847 12.7563 332.658 11.6936C331.47 10.6128 329.894 10.0724 327.93 10.0724C326.327 10.0724 324.994 10.3877 323.931 11.0181C322.887 11.6485 321.869 12.6392 320.878 13.9902L323.796 16.3408C324.535 15.4221 325.183 14.7737 325.742 14.3954C326.318 13.9992 326.957 13.801 327.66 13.801C328.417 13.801 329.029 14.0172 329.497 14.4495C329.966 14.8818 330.2 15.4852 330.2 16.2597C330.2 17.0163 329.966 17.7097 329.497 18.3402C329.029 18.9526 328.173 19.7722 326.93 20.7989L320.635 25.9595ZM719.5 77.3036C728.619 77.3036 736.011 69.9112 736.011 60.7921C736.011 51.6731 728.619 44.2807 719.5 44.2807C710.381 44.2807 702.989 51.6731 702.989 60.7921C702.989 69.9112 710.381 77.3036 719.5 77.3036ZM712.153 68.0215C714.134 69.9129 716.494 70.8585 719.231 70.8585C721.411 70.8585 723.149 70.2731 724.446 69.1023C725.761 67.9135 726.418 66.3194 726.418 64.32C726.418 62.2666 725.806 60.7355 724.581 59.7268C723.356 58.7181 721.762 58.2137 719.799 58.2137C719.006 58.2137 718.178 58.3218 717.313 58.538L717.529 55.2687H725.581V51.6212H713.963L713.422 60.9426L715.827 62.5367C716.926 62.0684 717.98 61.8343 718.988 61.8343C719.997 61.8343 720.807 62.0684 721.42 62.5367C722.032 62.9871 722.339 63.6085 722.339 64.401C722.339 65.2476 722.059 65.9051 721.501 66.3734C720.943 66.8417 720.168 67.0759 719.177 67.0759C717.682 67.0759 716.178 66.3914 714.665 65.0225L712.153 68.0215ZM1111.27 36.7755C1120.39 36.7755 1127.78 29.3831 1127.78 20.2641C1127.78 11.145 1120.39 3.7526 1111.27 3.7526C1102.15 3.7526 1094.76 11.145 1094.76 20.2641C1094.76 29.3831 1102.15 36.7755 1111.27 36.7755ZM1106.03 28.7634C1107.4 29.7721 1109.15 30.2764 1111.27 30.2764C1113.42 30.2764 1115.16 29.7811 1116.52 28.7904C1117.88 27.7817 1118.57 26.4217 1118.57 24.7106C1118.57 23.6118 1118.32 22.7202 1117.81 22.0357C1117.31 21.3512 1116.54 20.7388 1115.52 20.1984C1117.12 19.2257 1117.92 17.8478 1117.92 16.0646C1117.92 14.5515 1117.31 13.2996 1116.08 12.3089C1114.86 11.3183 1113.25 10.8229 1111.27 10.8229C1109.31 10.8229 1107.71 11.3183 1106.46 12.3089C1105.24 13.2996 1104.63 14.5335 1104.63 16.0105C1104.63 17.8298 1105.43 19.2257 1107.03 20.1984C1105 21.1351 1103.98 22.6571 1103.98 24.7646C1103.98 26.4217 1104.66 27.7547 1106.03 28.7634ZM1111.27 18.8205C1110.46 18.8205 1109.81 18.6043 1109.3 18.172C1108.81 17.7217 1108.57 17.1633 1108.57 16.4969C1108.57 15.8664 1108.81 15.335 1109.3 14.9027C1109.79 14.4704 1110.44 14.2543 1111.27 14.2543C1112.08 14.2543 1112.73 14.4704 1113.22 14.9027C1113.72 15.335 1113.98 15.8574 1113.98 16.4698C1113.98 17.1723 1113.72 17.7397 1113.22 18.172C1112.73 18.6043 1112.08 18.8205 1111.27 18.8205ZM1113.65 26.1696C1113.07 26.6199 1112.28 26.845 1111.27 26.845C1110.28 26.845 1109.49 26.6199 1108.9 26.1696C1108.3 25.7193 1108 25.1609 1108 24.4944C1108 23.7559 1108.3 23.1795 1108.9 22.7652C1109.51 22.3329 1110.3 22.1168 1111.27 22.1168C1112.25 22.1168 1113.03 22.3239 1113.62 22.7382C1114.24 23.1525 1114.54 23.7199 1114.54 24.4404C1114.54 25.1429 1114.25 25.7193 1113.65 26.1696ZM458.319 77.3036C467.438 77.3036 474.83 69.9112 474.83 60.7921C474.83 51.6731 467.438 44.2807 458.319 44.2807C449.2 44.2807 441.807 51.6731 441.807 60.7921C441.807 69.9112 449.2 77.3036 458.319 77.3036ZM450.955 67.5892C452.792 69.7688 455.251 70.8585 458.331 70.8585C460.402 70.8585 462.051 70.2821 463.275 69.1293C464.518 67.9765 465.14 66.4905 465.14 64.6712C465.14 61.6811 463.447 59.8979 460.06 59.3215L464.842 54.7553V51.6212H452.063V55.1876H459.493L454.981 59.7268L455.629 62.3746H457.358C458.529 62.3746 459.439 62.5818 460.087 62.9961C460.736 63.4103 461.06 64.0048 461.06 64.7793C461.06 65.4998 460.808 66.0762 460.303 66.5085C459.817 66.9228 459.178 67.1299 458.385 67.1299C456.692 67.1299 455.17 66.3734 453.819 64.8604L450.955 67.5892ZM850.091 36.7755C859.21 36.7755 866.602 29.3831 866.602 20.2641C866.602 11.145 859.21 3.7526 850.091 3.7526C840.972 3.7526 833.579 11.145 833.579 20.2641C833.579 29.3831 840.972 36.7755 850.091 36.7755ZM844.847 28.304C846.198 29.655 848.018 30.3305 850.305 30.3305C852.377 30.3305 854.097 29.718 855.466 28.4932C856.835 27.2683 857.519 25.7012 857.519 23.7919C857.519 21.8646 856.898 20.3695 855.655 19.3068C854.412 18.2441 852.818 17.7127 850.873 17.7127C849.486 17.7127 848.18 18.118 846.955 18.9285C847.099 17.6136 847.486 16.5599 848.117 15.7673C848.765 14.9568 849.648 14.5515 850.765 14.5515C851.521 14.5515 852.179 14.6776 852.737 14.9298C853.313 15.1639 853.944 15.5422 854.628 16.0646L856.817 12.8493C855.07 11.4624 853.097 10.7689 850.9 10.7689C848.18 10.7689 846.117 11.7235 844.712 13.6329C843.307 15.5422 842.605 18.0279 842.605 21.09C842.605 24.4043 843.352 26.809 844.847 28.304ZM850.143 26.764C849.134 26.764 848.333 26.5028 847.738 25.9804C847.144 25.4401 846.847 24.7646 846.847 23.954C846.847 23.1074 847.135 22.432 847.711 21.9276C848.288 21.4233 849.08 21.1711 850.089 21.1711C851.098 21.1711 851.899 21.4323 852.494 21.9546C853.088 22.459 853.385 23.1164 853.385 23.927C853.385 24.7736 853.097 25.4581 852.521 25.9804C851.944 26.5028 851.152 26.764 850.143 26.764ZM1241.86 77.3036C1250.98 77.3036 1258.37 69.9112 1258.37 60.7921C1258.37 51.6731 1250.98 44.2807 1241.86 44.2807C1232.74 44.2807 1225.35 51.6731 1225.35 60.7921C1225.35 69.9112 1232.74 77.3036 1241.86 77.3036ZM1234.86 68.616C1236.66 70.111 1238.74 70.8585 1241.08 70.8585C1243.71 70.8585 1245.74 69.9219 1247.18 68.0486C1248.62 66.1753 1249.35 63.6715 1249.35 60.5374C1249.35 57.2411 1248.6 54.8454 1247.1 53.3504C1246.38 52.6299 1245.6 52.1075 1244.75 51.7833C1243.92 51.4591 1242.89 51.2969 1241.64 51.2969C1239.52 51.2969 1237.78 51.9274 1236.43 53.1883C1235.1 54.4311 1234.43 56.0072 1234.43 57.9165C1234.43 59.8439 1235.03 61.3569 1236.24 62.4557C1237.47 63.5364 1239.11 64.0768 1241.19 64.0768C1242.73 64.0768 1244.01 63.6445 1245.02 62.7799C1244.88 64.0948 1244.48 65.1395 1243.83 65.9141C1243.18 66.6886 1242.3 67.0759 1241.19 67.0759C1239.78 67.0759 1238.4 66.5355 1237.05 65.4548L1234.86 68.616ZM1241.86 60.6184C1240.85 60.6184 1240.05 60.3572 1239.46 59.8349C1238.86 59.3125 1238.56 58.628 1238.56 57.7814C1238.56 56.8988 1238.84 56.1963 1239.4 55.674C1239.98 55.1336 1240.77 54.8634 1241.78 54.8634C1242.81 54.8634 1243.62 55.1336 1244.21 55.674C1244.81 56.2144 1245.1 56.9078 1245.1 57.7544C1245.1 58.601 1244.82 59.2945 1244.24 59.8349C1243.66 60.3572 1242.87 60.6184 1241.86 60.6184Z" fill="white"/>
</svg>
